<?xml version="1.0" encoding="UTF-8" standalone="no"?>
<svg xmlns:ffdec="https://www.free-decompiler.com/flash" xmlns:xlink="http://www.w3.org/1999/xlink" ffdec:objectType="frame" height="613.45px" width="484.75px" xmlns="http://www.w3.org/2000/svg">
  <g transform="matrix(1.0, 0.0, 0.0, 1.0, 252.0, 317.85)">
    <use ffdec:characterId="953" ffdec:characterName="a_BurlyArm3" height="54.6" transform="matrix(0.9633, -0.2593, 0.2593, 0.9633, 21.926, -144.6299)" width="63.0" xlink:href="#sprite0"/>
    <use ffdec:characterId="951" ffdec:characterName="a_BurlyForearm" height="66.5" transform="matrix(0.8789, 0.4683, -0.4683, 0.8789, 36.3671, -142.1696)" width="60.55" xlink:href="#sprite1"/>
    <use ffdec:characterId="961" ffdec:characterName="a_BurlyLegs" height="84.35" id="boat" transform="matrix(-0.8876, -0.0668, 0.0237, 0.8841, 59.1628, -67.3089)" width="143.15" xlink:href="#sprite2"/>
    <use ffdec:characterId="959" ffdec:characterName="a_Belt04" height="61.25" transform="matrix(-1.0012, 0.0088, 0.0088, 1.0012, 31.9635, -75.6021)" width="84.0" xlink:href="#sprite3"/>
    <use ffdec:characterId="949" ffdec:characterName="a_Torso06" height="107.1" transform="matrix(-0.9856, -0.1657, -0.2428, 0.9723, 59.1509, -145.4058)" width="97.65" xlink:href="#sprite4"/>
    <use ffdec:characterId="953" ffdec:characterName="a_BurlyArm3" height="54.6" transform="matrix(-0.8992, -0.43, -0.43, 0.8992, -11.0863, -146.3043)" width="63.0" xlink:href="#sprite0"/>
    <use ffdec:characterId="986" ffdec:characterName="WholeHead2" height="159.0" transform="matrix(-0.5094, -0.1276, -0.1276, 0.5092, 83.906, -173.5248)" width="136.5" xlink:href="#sprite5"/>
    <use ffdec:characterId="947" ffdec:characterName="a_Tiller" height="400.4" transform="matrix(0.957, 0.0385, 0.0, 1.0, -239.5135, -115.3164)" width="273.35" xlink:href="#sprite7"/>
    <use ffdec:characterId="945" ffdec:characterName="a_BurlyForearm2_Fink" height="64.75" transform="matrix(-0.7555, -0.648, -0.648, 0.7555, -25.9192, -110.132)" width="61.25" xlink:href="#sprite8"/>
  </g>
  <defs>
    <g id="sprite0" transform="matrix(1.0, 0.0, 0.0, 1.0, 31.5, 27.3)">
      <use ffdec:characterId="952" height="7.8" transform="matrix(7.0, 0.0, 0.0, 7.0, -31.5, -27.3)" width="9.0" xlink:href="#shape0"/>
    </g>
    <g id="shape0" transform="matrix(1.0, 0.0, 0.0, 1.0, 4.5, 3.9)">
      
      
      
      
      
    <path d="M-1.35 -3.05 Q-1.4 -3.15 -1.45 -3.3 L-1.45 -3.4 -1.4 -3.8 Q-1.4 -4.1 -1.55 -4.9 L-1.6 -5.2 -1.6 -5.3 -1.45 -5.2 -1.15 -4.95 -0.75 -4.6 -0.6 -4.45 Q-0.55 -4.4 -0.45 -4.05 L-0.35 -3.8 -0.3 -3.65 -0.25 -3.4 -0.2 -3.05 0.15 -2.05 Q0.45 -1.3 0.7 -1.15 L0.55 -1.0 0.35 -0.7 0.1 -0.5 -0.1 -0.3 -0.45 0.2 -0.5 0.3 -0.55 0.35 -0.45 0.2 -0.75 -0.05 Q-0.95 -0.4 -0.95 -0.5 L-1.0 -1.25 -0.45 -1.25 Q-0.35 -1.25 -0.3 -1.3 L-0.25 -1.35 -0.25 -1.4 -0.4 -1.55 Q-0.75 -2.05 -1.05 -2.65 L-1.0 -2.6 -1.4 -3.15 -1.35 -3.05 M-1.1 1.35 L-1.1 1.4 -1.1 1.35" fill="#d6b37e" fill-rule="evenodd" stroke="none"/><path d="M0.55 -0.65 L0.7 -0.3 0.9 0.25 0.95 0.3 0.65 0.45 0.2 0.8 0.05 0.9 -0.35 1.2 Q-0.9 1.35 -0.9 1.65 L-0.6 1.05 -0.6 1.0 -0.1 0.2 0.55 -0.65 M0.95 0.4 L1.0 0.85 Q1.05 1.1 1.15 1.2 L0.95 1.3 Q0.0 1.6 -0.15 1.6 0.45 1.35 0.45 1.3 0.45 1.05 0.1 1.1 L0.65 0.55 0.95 0.4 M-2.0 -5.8 Q-1.9 -5.55 -1.9 -5.35 -1.75 -4.95 -1.75 -4.6 L-1.75 -4.45 -1.8 -4.45 Q-1.85 -4.35 -2.05 -4.3 L-2.5 -4.2 -2.7 -4.25 -2.75 -4.25 -2.8 -4.35 -2.8 -4.4 -2.85 -4.45 -2.85 -4.5 -2.95 -4.8 -3.05 -5.3 -3.05 -5.2 Q-2.9 -5.15 -2.7 -5.15 -2.5 -5.15 -2.2 -5.45 L-2.0 -5.8 M-1.7 -3.2 Q-1.8 -2.8 -2.2 -2.7 L-2.45 -2.65 Q-2.7 -2.65 -2.75 -3.0 L-2.8 -3.2 -2.85 -3.85 -2.8 -4.1 -2.75 -4.2 Q-2.6 -4.1 -2.4 -4.1 -2.25 -4.1 -2.0 -4.15 L-2.0 -3.95 -1.9 -3.55 Q-1.8 -3.2 -1.75 -3.1 L-1.7 -3.2 M-1.7 -4.3 L-1.65 -4.35 -1.65 -4.3 -1.7 -4.3 M-1.9 -0.95 L-2.0 -0.85 -2.05 -0.85 Q-2.2 -0.8 -2.35 -0.8 L-2.5 -0.8 -2.55 -1.0 -2.6 -1.15 -2.65 -1.5 -2.7 -2.0 -2.7 -2.5 -2.5 -2.5 Q-2.25 -2.5 -2.05 -2.65 -1.9 -2.75 -1.75 -3.0 L-1.65 -3.1 -1.65 -3.05 Q-1.95 -2.85 -1.95 -1.1 L-1.95 -0.95 -1.9 -0.95 M-2.45 -0.6 L-2.5 -0.6 -2.45 -0.65 -2.45 -0.6 M-2.25 0.5 L-2.3 0.4 -2.3 0.35 Q-2.25 0.35 -2.2 0.4 L-2.25 0.5" fill="#b34424" fill-rule="evenodd" stroke="none"/><path d="M-0.55 0.35 L-1.0 1.15 -1.05 1.2 -1.05 1.3 -1.1 1.35 -1.1 1.4 -1.15 1.3 -1.35 1.1 -1.5 0.85 -1.65 0.7 -1.55 0.3 Q-1.35 0.1 -1.25 -0.75 L-1.2 -1.2 -1.15 -1.55 Q-1.15 -1.7 -1.2 -1.75 L-1.15 -1.95 -1.15 -2.0 -1.2 -2.05 -1.25 -2.4 -1.25 -2.45 -1.35 -2.85 -1.35 -3.05 -1.4 -3.15 -1.0 -2.6 -1.05 -2.65 Q-0.75 -2.05 -0.4 -1.55 L-0.25 -1.4 -0.25 -1.35 -0.3 -1.3 Q-0.35 -1.25 -0.45 -1.25 L-1.0 -1.25 -0.95 -0.5 Q-0.95 -0.4 -0.75 -0.05 L-0.45 0.2 -0.55 0.35" fill="#c67137" fill-rule="evenodd" stroke="none"/><path d="M0.55 -0.65 L0.85 -1.1 0.9 -1.1 1.25 -0.4 1.3 -0.2 1.35 0.25 1.35 0.3 1.45 1.0 1.45 1.15 1.4 1.15 1.15 1.2 Q1.05 1.1 1.0 0.85 L0.95 0.4 1.0 0.35 1.25 0.2 1.3 0.2 Q1.15 0.25 0.95 0.3 L0.9 0.25 0.7 -0.3 0.55 -0.65 M-0.15 1.6 L-0.45 1.6 0.1 1.1 Q0.45 1.05 0.45 1.3 0.45 1.35 -0.15 1.6 M-3.05 -5.3 L-3.05 -5.55 Q-3.05 -5.8 -2.95 -6.0 L-2.9 -6.05 -2.85 -6.15 -2.75 -6.2 -2.65 -6.3 -2.45 -6.4 -2.35 -6.35 Q-2.2 -6.25 -2.1 -6.05 L-2.05 -5.85 -2.0 -5.8 -2.2 -5.45 Q-2.5 -5.15 -2.7 -5.15 -2.9 -5.15 -3.05 -5.2 L-3.05 -5.3 M-1.7 -3.2 L-1.75 -3.1 Q-1.8 -3.2 -1.9 -3.55 L-2.0 -3.95 -2.0 -4.15 -1.8 -4.25 -1.75 -4.25 -1.75 -4.3 -1.7 -4.3 -1.65 -4.3 -1.65 -4.05 -1.6 -3.65 -1.65 -3.55 -1.65 -3.3 -1.7 -3.2 M-1.65 -3.05 L-1.6 -3.05 -1.5 -2.6 -1.45 -2.45 -1.45 -2.4 -1.4 -2.0 -1.4 -1.9 Q-1.4 -1.75 -1.55 -1.5 L-1.55 -1.45 -1.65 -1.35 -1.85 -1.05 -1.9 -0.95 -1.95 -0.95 -1.95 -1.1 Q-1.95 -2.85 -1.65 -3.05 M-2.45 -0.6 L-2.45 -0.65 -2.3 -0.65 Q-1.9 -0.65 -1.55 -1.25 L-1.4 -1.5 -1.4 -1.05 Q-1.45 -0.75 -1.65 -0.25 L-1.7 -0.05 -1.75 0.0 Q-1.8 0.1 -1.9 0.2 -1.95 0.25 -2.0 0.25 L-2.1 0.25 Q-2.25 0.25 -2.25 0.15 L-2.3 0.15 Q-2.45 -0.35 -2.45 -0.55 L-2.45 -0.6 M-0.35 1.2 L-0.75 1.55 -0.9 1.65 Q-0.9 1.35 -0.35 1.2 M-2.2 0.4 L-2.15 0.45 -2.15 0.4 -2.05 0.45 -1.95 0.45 -1.85 0.4 Q-1.8 0.35 -1.75 0.35 L-1.65 0.25 Q-1.65 0.2 -1.65 0.25 -1.65 0.35 -1.75 0.55 -1.75 0.65 -1.8 0.75 L-1.85 0.85 -1.85 0.9 -1.95 0.9 Q-2.05 0.9 -2.15 0.7 L-2.2 0.65 -2.2 0.6 -2.25 0.55 -2.25 0.5 -2.2 0.4" fill="#763529" fill-rule="evenodd" stroke="none"/><path d="M0.15 -3.05 L0.2 -2.85 0.2 -2.75 0.25 -2.75 0.25 -2.7 0.3 -2.5 0.4 -2.15 0.8 -1.6 Q1.2 -1.55 1.45 -0.85 1.75 -0.1 1.75 0.45 L1.75 1.0 Q1.8 1.15 1.7 1.2 L1.7 1.3 1.75 1.3 1.7 1.35 1.7 1.4 1.6 1.4 Q1.3 1.6 0.75 1.8 L-0.45 2.15 -0.7 2.15 -0.7 2.1 -0.9 2.2 -0.95 2.15 -1.05 2.0 -1.15 1.95 Q-1.2 1.75 -1.4 1.6 L-1.6 1.3 Q-2.05 1.3 -2.35 0.9 -2.55 0.65 -2.55 0.5 L-2.55 0.45 -2.65 0.25 -2.65 0.15 Q-2.65 0.1 -2.75 -0.15 -2.8 -0.4 -2.8 -0.55 L-2.8 -0.75 Q-2.9 -0.9 -2.95 -1.2 -3.0 -1.5 -3.0 -1.85 -2.95 -2.4 -2.9 -2.55 -3.0 -2.65 -3.1 -2.85 L-3.2 -3.2 Q-3.2 -3.5 -3.15 -3.9 L-3.1 -4.15 Q-3.2 -4.3 -3.3 -4.6 L-3.35 -5.15 -3.35 -5.85 Q-3.35 -6.0 -2.95 -6.3 -2.7 -6.55 -2.5 -6.6 -2.45 -6.8 -2.1 -6.4 -1.75 -6.0 -1.65 -5.75 L-1.5 -5.6 -1.2 -5.4 Q-0.45 -4.75 -0.25 -4.5 L-0.2 -4.4 Q-0.05 -4.1 0.05 -3.55 L0.05 -3.5 0.1 -3.15 0.15 -3.05 M1.15 1.2 L1.4 1.15 1.45 1.15 1.45 1.0 1.35 0.3 1.35 0.25 1.3 -0.2 1.25 -0.4 0.9 -1.1 0.85 -1.1 0.55 -0.65 -0.1 0.2 -0.6 1.0 -0.6 1.05 -0.9 1.65 -0.75 1.55 -0.35 1.2 0.05 0.9 0.2 0.8 0.65 0.45 0.95 0.3 Q1.15 0.25 1.3 0.2 L1.25 0.2 1.0 0.35 0.95 0.4 0.65 0.55 0.1 1.1 -0.45 1.6 -0.15 1.6 Q0.0 1.6 0.95 1.3 L1.15 1.2 M-0.55 0.35 L-0.5 0.3 -0.45 0.2 -0.1 -0.3 0.1 -0.5 0.35 -0.7 0.55 -1.0 0.7 -1.15 Q0.45 -1.3 0.15 -2.05 L-0.2 -3.05 -0.25 -3.4 -0.3 -3.65 -0.35 -3.8 -0.45 -4.05 Q-0.55 -4.4 -0.6 -4.45 L-0.75 -4.6 -1.15 -4.95 -1.45 -5.2 -1.6 -5.3 -1.6 -5.2 -1.55 -4.9 Q-1.4 -4.1 -1.4 -3.8 L-1.45 -3.4 -1.45 -3.3 Q-1.4 -3.15 -1.35 -3.05 L-1.35 -2.85 -1.25 -2.45 -1.25 -2.4 -1.2 -2.05 -1.15 -2.0 -1.15 -1.95 -1.2 -1.75 Q-1.15 -1.7 -1.15 -1.55 L-1.2 -1.2 -1.25 -0.75 Q-1.35 0.1 -1.55 0.3 L-1.65 0.7 -1.5 0.85 -1.35 1.1 -1.15 1.3 -1.1 1.4 -1.1 1.35 -1.05 1.3 -1.05 1.2 -1.0 1.15 -0.55 0.35 M-2.0 -5.8 L-2.05 -5.85 -2.1 -6.05 Q-2.2 -6.25 -2.35 -6.35 L-2.45 -6.4 -2.65 -6.3 -2.75 -6.2 -2.85 -6.15 -2.9 -6.05 -2.95 -6.0 Q-3.05 -5.8 -3.05 -5.55 L-3.05 -5.3 -2.95 -4.8 -2.85 -4.5 -2.85 -4.45 -2.8 -4.4 -2.8 -4.35 -2.75 -4.25 -2.7 -4.25 -2.5 -4.2 -2.05 -4.3 Q-1.85 -4.35 -1.8 -4.45 L-1.75 -4.45 -1.75 -4.6 Q-1.75 -4.95 -1.9 -5.35 -1.9 -5.55 -2.0 -5.8 M-2.0 -4.15 Q-2.25 -4.1 -2.4 -4.1 -2.6 -4.1 -2.75 -4.2 L-2.8 -4.1 -2.85 -3.85 -2.8 -3.2 -2.75 -3.0 Q-2.7 -2.65 -2.45 -2.65 L-2.2 -2.7 Q-1.8 -2.8 -1.7 -3.2 L-1.65 -3.3 -1.65 -3.55 -1.6 -3.65 -1.65 -4.05 -1.65 -4.3 -1.65 -4.35 -1.7 -4.3 -1.75 -4.3 -1.75 -4.25 -1.8 -4.25 -2.0 -4.15 M-1.55 -1.45 L-1.55 -1.5 Q-1.4 -1.75 -1.4 -1.9 L-1.4 -2.0 -1.45 -2.4 -1.45 -2.45 -1.5 -2.6 -1.6 -3.05 -1.65 -3.05 -1.65 -3.1 -1.75 -3.0 Q-1.9 -2.75 -2.05 -2.65 -2.25 -2.5 -2.5 -2.5 L-2.7 -2.5 -2.7 -2.0 -2.65 -1.5 -2.6 -1.15 -2.55 -1.0 -2.5 -0.8 -2.35 -0.8 Q-2.2 -0.8 -2.05 -0.85 L-2.0 -0.85 -1.9 -0.95 -1.85 -1.05 -1.65 -1.35 -1.55 -1.45 M-2.45 -0.65 L-2.5 -0.6 -2.45 -0.6 -2.45 -0.55 Q-2.45 -0.35 -2.3 0.15 L-2.25 0.15 Q-2.25 0.25 -2.1 0.25 L-2.0 0.25 Q-1.95 0.25 -1.9 0.2 -1.8 0.1 -1.75 0.0 L-1.7 -0.05 -1.65 -0.25 Q-1.45 -0.75 -1.4 -1.05 L-1.4 -1.5 -1.55 -1.25 Q-1.9 -0.65 -2.3 -0.65 L-2.45 -0.65 M-0.75 1.7 L-0.7 1.65 Q-0.75 1.65 -0.75 1.7 M-2.25 0.5 L-2.25 0.55 -2.2 0.6 -2.2 0.65 -2.15 0.7 Q-2.05 0.9 -1.95 0.9 L-1.85 0.9 -1.85 0.85 -1.8 0.75 Q-1.75 0.65 -1.75 0.55 -1.65 0.35 -1.65 0.25 -1.65 0.2 -1.65 0.25 L-1.75 0.35 Q-1.8 0.35 -1.85 0.4 L-1.95 0.45 -2.05 0.45 -2.15 0.4 -2.15 0.45 -2.2 0.4 Q-2.25 0.35 -2.3 0.35 L-2.3 0.4 -2.25 0.5" fill="#101010" fill-rule="evenodd" stroke="none"/></g>
    <g id="sprite1" transform="matrix(1.0, 0.0, 0.0, 1.0, 30.1, 33.25)">
      <use ffdec:characterId="950" height="9.5" transform="matrix(7.0, 0.0, 0.0, 7.0, -30.1, -33.25)" width="8.65" xlink:href="#shape1"/>
    </g>
    <g id="shape1" transform="matrix(1.0, 0.0, 0.0, 1.0, 4.3, 4.75)">
      
      
      
      
      
      
      
      
      
    <path d="M0.65 -4.65 L0.75 -4.7 0.75 -4.75 0.95 -4.95 1.5 -4.6 1.75 -4.4 1.95 -4.25 2.05 -4.25 2.25 -4.2 Q2.4 -4.1 2.5 -4.05 L2.0 -3.55 2.2 -3.35 2.25 -3.35 Q2.15 -3.2 2.15 -2.9 L2.35 -2.55 2.3 -2.55 Q1.65 -3.1 0.75 -3.45 0.9 -3.5 0.9 -3.65 L0.8 -4.05 0.7 -4.55 0.65 -4.65 M2.6 -2.35 L2.55 -2.35 2.55 -2.4 2.6 -2.4 2.6 -2.35" fill="#d6b37e" fill-rule="evenodd" stroke="none"/><path d="M-2.3 -1.4 Q-2.2 -1.95 -2.0 -2.5 -1.85 -2.9 -1.65 -3.15 L-1.6 -3.25 -1.35 -3.5 -1.25 -3.5 Q-1.05 -3.6 -0.85 -3.6 L-0.4 -3.6 Q0.45 -3.45 1.1 -3.15 L1.95 -2.65 2.15 -2.45 2.25 -2.4 2.25 -2.35 2.35 -2.15 2.45 -1.9 2.55 -1.4 2.5 -1.4 Q2.5 -1.45 2.5 -1.3 L2.15 -1.05 1.45 -0.35 Q0.95 0.0 0.1 0.45 L-0.2 0.3 -0.15 0.25 -0.3 0.35 -0.3 0.25 Q-0.4 0.3 -0.45 0.35 L-0.5 0.3 Q-0.75 0.0 -0.9 -0.05 L-1.35 -0.5 -1.65 -0.9 Q-2.0 -1.35 -2.3 -1.4 M-0.2 0.65 L-0.25 0.65 -0.2 0.65 M-4.9 1.35 L-4.8 1.0 -4.8 1.05 -4.5 1.05 Q-4.0 0.95 -3.75 0.4 L-3.55 -0.05 -3.45 -0.25 Q-3.3 -0.4 -3.35 -0.5 L-3.35 -0.55 Q-3.35 -0.65 -3.35 -0.6 L-3.55 -0.8 -3.6 -0.9 Q-3.45 -0.95 -3.25 -1.05 -3.05 -1.15 -2.95 -1.2 L-2.85 -1.2 Q-2.7 -1.2 -2.5 -1.1 -2.5 -0.95 -2.1 -0.85 L-1.95 -0.85 -1.9 -0.75 -1.85 -0.75 Q-1.8 -0.6 -1.45 -0.45 L-1.3 -0.25 Q-0.8 0.2 -0.85 0.25 L-0.8 0.3 -0.75 0.45 Q-0.8 0.5 -0.8 0.55 -1.0 0.75 -1.05 0.95 L-1.05 1.0 -0.7 0.8 -0.65 0.9 -0.65 1.1 -0.8 1.3 Q-0.65 1.3 -0.55 1.25 L-0.65 1.3 -0.6 1.5 -0.6 1.6 -0.75 1.95 Q-0.95 2.45 -1.1 2.6 -1.45 2.9 -2.05 3.55 -2.5 3.15 -3.6 2.45 L-3.85 2.3 Q-4.0 2.2 -4.1 2.15 -4.85 1.65 -4.85 1.35 L-4.9 1.35 M-3.0 3.65 L-3.0 3.6 -3.0 3.65" fill="#875a32" fill-rule="evenodd" stroke="none"/><path d="M2.5 -4.05 L2.55 -4.05 2.6 -3.95 2.55 -3.7 2.5 -3.55 2.4 -3.4 2.3 -3.3 Q2.2 -3.2 2.2 -3.15 L2.3 -3.05 2.45 -3.2 2.55 -3.2 2.95 -2.25 3.1 -1.75 Q2.9 -2.05 2.6 -2.35 L2.6 -2.4 2.55 -2.4 2.55 -2.35 2.35 -2.55 2.15 -2.9 Q2.15 -3.2 2.25 -3.35 L2.2 -3.35 2.0 -3.55 2.5 -4.05 M0.75 -3.45 L-0.35 -3.85 -0.1 -4.1 0.3 -4.4 0.45 -4.5 0.55 -4.6 0.65 -4.65 0.7 -4.55 0.8 -4.05 0.9 -3.65 Q0.9 -3.5 0.75 -3.45" fill="#c67137" fill-rule="evenodd" stroke="none"/><path d="M-2.2 -1.3 L-2.3 -1.35 -2.3 -1.4 Q-2.0 -1.35 -1.65 -0.9 L-1.35 -0.5 -1.75 -0.85 -1.75 -0.95 -1.8 -1.0 Q-1.9 -1.15 -2.2 -1.3 M2.25 -2.4 Q2.6 -2.05 2.9 -1.55 3.0 -1.35 3.05 -1.15 L3.0 -1.1 3.05 -1.05 3.05 -0.8 Q3.05 -0.55 3.0 -0.3 L2.95 -0.25 Q2.7 0.35 1.8 0.65 1.65 0.75 1.35 0.75 0.8 0.8 0.3 1.0 L-0.05 1.0 -0.1 1.05 -0.3 1.05 -0.3 1.0 -0.25 0.95 Q-0.1 0.75 -0.1 0.6 L-0.1 0.55 -0.2 0.65 -0.25 0.65 -0.35 0.75 -0.4 0.8 -0.5 0.6 -0.45 0.6 -0.4 0.55 -0.3 0.35 -0.15 0.25 -0.2 0.3 0.1 0.45 Q0.95 0.0 1.45 -0.35 L2.15 -1.05 2.5 -1.3 Q2.5 -1.45 2.5 -1.4 L2.55 -1.4 2.45 -1.9 2.35 -2.15 2.25 -2.35 2.25 -2.4 M-0.45 0.35 L-0.5 0.35 -0.55 0.4 -0.6 0.3 -0.65 0.25 -0.7 0.1 -0.85 0.0 -0.9 -0.05 Q-0.75 0.0 -0.5 0.3 L-0.45 0.35 M-2.5 -1.1 L-2.45 -1.05 -2.4 -1.05 Q-2.2 -0.95 -2.0 -0.85 L-1.95 -0.85 -2.1 -0.85 Q-2.5 -0.95 -2.5 -1.1 M-1.85 -0.75 Q-1.75 -0.65 -1.8 -0.75 L-1.45 -0.45 Q-1.8 -0.6 -1.85 -0.75 M-0.8 0.3 L-0.7 0.5 -0.75 0.55 -0.8 0.55 Q-0.8 0.5 -0.75 0.45 L-0.8 0.3 M-0.7 0.8 L-0.6 0.7 -0.5 0.85 -0.5 0.9 -0.55 0.95 -0.55 1.0 -0.65 1.1 -0.65 0.9 -0.7 0.8 M-0.55 1.25 L-0.5 1.2 -0.45 1.25 -0.45 1.45 -0.5 1.75 -0.55 2.1 Q-0.55 2.45 -1.15 3.1 -1.8 3.75 -2.15 3.75 L-3.0 3.65 -3.0 3.6 Q-3.25 3.35 -3.8 2.9 L-5.0 1.9 -5.05 1.7 -5.05 1.65 -4.9 1.35 -4.85 1.35 Q-4.85 1.65 -4.1 2.15 L-4.05 2.15 -4.25 2.05 -4.65 1.8 -4.7 1.75 -3.95 2.3 Q-3.7 2.45 -2.55 3.55 L-2.45 3.45 Q-3.2 2.75 -3.6 2.45 -2.5 3.15 -2.05 3.55 -1.45 2.9 -1.1 2.6 -0.95 2.45 -0.75 1.95 L-0.6 1.6 -0.6 1.5 -0.65 1.3 -0.55 1.25" fill="#6d3227" fill-rule="evenodd" stroke="none"/><path d="M2.5 -4.05 Q2.4 -4.1 2.25 -4.2 L2.05 -4.25 1.95 -4.25 1.75 -4.4 1.5 -4.6 0.95 -4.95 0.75 -4.75 0.75 -4.7 0.65 -4.65 0.55 -4.6 0.45 -4.5 0.3 -4.4 -0.1 -4.1 -0.35 -3.85 0.75 -3.45 Q1.65 -3.1 2.3 -2.55 L2.35 -2.55 2.55 -2.35 2.6 -2.35 Q2.9 -2.05 3.1 -1.75 L2.95 -2.25 2.55 -3.2 2.45 -3.2 2.3 -3.05 2.2 -3.15 Q2.2 -3.2 2.3 -3.3 L2.4 -3.4 2.5 -3.55 2.55 -3.7 2.6 -3.95 2.55 -4.05 2.5 -4.05 M-2.6 -1.45 L-2.5 -1.65 Q-2.4 -1.85 -2.4 -2.05 L-2.4 -2.1 -2.3 -2.35 -2.3 -2.6 -2.0 -3.25 -1.45 -3.75 -1.25 -3.8 -1.2 -3.85 Q-0.95 -3.95 -0.85 -3.9 L-0.65 -3.95 Q-0.55 -4.15 0.0 -4.55 L0.4 -4.8 Q0.9 -5.1 1.05 -5.2 L1.45 -4.95 1.9 -4.55 2.05 -4.5 2.4 -4.4 2.5 -4.35 2.7 -4.1 2.8 -4.0 2.8 -3.65 2.75 -3.2 Q3.25 -2.4 3.3 -2.2 3.35 -2.15 3.35 -2.05 L3.35 -0.95 3.4 -0.55 Q3.4 -0.3 3.2 0.1 3.0 0.35 2.9 0.4 2.75 0.6 2.25 0.8 L1.85 0.9 1.1 1.1 1.15 1.05 Q1.8 0.85 2.05 0.7 L2.05 0.65 1.15 0.85 0.5 0.95 0.3 1.0 Q0.8 0.8 1.35 0.75 1.65 0.75 1.8 0.65 2.7 0.35 2.95 -0.25 L3.0 -0.3 Q3.05 -0.55 3.05 -0.8 L3.05 -1.05 3.0 -1.1 3.05 -1.15 Q3.0 -1.35 2.9 -1.55 2.6 -2.05 2.25 -2.4 L2.15 -2.45 1.95 -2.65 1.1 -3.15 Q0.45 -3.45 -0.4 -3.6 L-0.85 -3.6 Q-1.05 -3.6 -1.25 -3.5 L-1.35 -3.5 -1.6 -3.25 -1.65 -3.15 Q-1.85 -2.9 -2.0 -2.5 -2.2 -1.95 -2.3 -1.4 L-2.3 -1.35 -2.2 -1.3 -2.25 -1.3 -2.45 -1.4 -2.6 -1.45 M2.6 -3.2 L2.6 -3.15 2.65 -3.1 Q2.6 -3.15 2.6 -3.2 M3.15 -1.15 L3.15 -1.15 M2.7 0.25 L2.8 0.2 2.65 0.3 2.7 0.25 M-1.75 -0.95 L-1.8 -1.0 -1.75 -0.95 M-2.4 -1.55 L-2.35 -1.6 -2.4 -1.6 -2.4 -1.55" fill="#101010" fill-rule="evenodd" stroke="none"/><path d="M1.1 1.1 Q0.45 1.25 0.05 1.25 L-0.2 1.25 -0.15 1.4 Q0.0 1.65 0.0 1.8 0.0 1.95 -0.2 2.35 -0.4 2.7 -0.6 2.8 L-0.9 3.2 -1.45 3.95 Q-1.6 4.05 -2.3 4.05 L-2.75 4.0 Q-2.95 3.95 -3.0 3.85 L-3.5 3.5 -4.15 3.0 Q-4.6 2.9 -5.0 2.35 -5.35 1.9 -5.35 1.7 -5.35 1.6 -5.25 1.3 -5.1 0.95 -4.95 0.85 L-4.75 0.75 -4.55 0.9 Q-4.1 0.8 -3.85 0.4 L-3.65 0.0 -3.55 -0.3 -3.6 -0.25 -3.65 -0.25 -3.55 -0.35 -3.55 -0.4 -3.6 -0.4 -3.6 -0.45 -4.0 -0.95 -3.95 -1.05 Q-3.9 -1.15 -3.75 -1.15 L-3.3 -1.35 -2.8 -1.5 -2.75 -1.5 -2.6 -1.45 -2.45 -1.4 -2.25 -1.3 -2.2 -1.3 Q-1.9 -1.15 -1.8 -1.0 L-1.75 -0.95 -1.75 -0.85 -1.35 -0.5 -0.9 -0.05 -0.85 0.0 -0.7 0.1 -0.65 0.25 -0.6 0.3 -0.55 0.4 -0.5 0.35 -0.45 0.35 Q-0.4 0.3 -0.3 0.25 L-0.3 0.35 -0.4 0.55 -0.45 0.6 -0.5 0.6 -0.4 0.8 -0.35 0.75 -0.25 0.65 -0.2 0.65 -0.1 0.55 -0.1 0.6 Q-0.1 0.75 -0.25 0.95 L-0.3 1.0 -0.3 1.05 -0.1 1.05 -0.05 1.0 0.3 1.0 0.5 0.95 1.15 0.85 2.05 0.65 2.05 0.7 Q1.8 0.85 1.15 1.05 L1.1 1.1 M-2.5 -1.1 Q-2.7 -1.2 -2.85 -1.2 L-2.95 -1.2 Q-3.05 -1.15 -3.25 -1.05 -3.45 -0.95 -3.6 -0.9 L-3.55 -0.8 -3.35 -0.6 Q-3.35 -0.65 -3.35 -0.55 L-3.35 -0.5 Q-3.3 -0.4 -3.45 -0.25 L-3.55 -0.05 -3.75 0.4 Q-4.0 0.95 -4.5 1.05 L-4.8 1.05 -4.8 1.0 -4.9 1.35 -5.05 1.65 -5.05 1.7 -5.0 1.9 -3.8 2.9 Q-3.25 3.35 -3.0 3.6 L-3.0 3.65 -2.15 3.75 Q-1.8 3.75 -1.15 3.1 -0.55 2.45 -0.55 2.1 L-0.5 1.75 -0.45 1.45 -0.45 1.25 -0.5 1.2 -0.55 1.25 Q-0.65 1.3 -0.8 1.3 L-0.65 1.1 -0.55 1.0 -0.55 0.95 -0.5 0.9 -0.5 0.85 -0.6 0.7 -0.7 0.8 -1.05 1.0 -1.05 0.95 Q-1.0 0.75 -0.8 0.55 L-0.75 0.55 -0.7 0.5 -0.8 0.3 -0.85 0.25 Q-0.8 0.2 -1.3 -0.25 L-1.45 -0.45 -1.8 -0.75 Q-1.75 -0.65 -1.85 -0.75 L-1.9 -0.75 -1.95 -0.85 -2.0 -0.85 Q-2.2 -0.95 -2.4 -1.05 L-2.45 -1.05 -2.5 -1.1 M-4.1 2.15 Q-4.0 2.2 -3.85 2.3 L-3.6 2.45 Q-3.2 2.75 -2.45 3.45 L-2.55 3.55 Q-3.7 2.45 -3.95 2.3 L-4.7 1.75 -4.65 1.8 -4.25 2.05 -4.05 2.15 -4.1 2.15 M-0.25 1.85 L-0.25 1.85" fill="#000000" fill-rule="evenodd" stroke="none"/></g>
    <g id="sprite2" transform="matrix(1.0, 0.0, 0.0, 1.0, 13.3, 63.0)">
      <use ffdec:characterId="960" height="12.05" transform="matrix(7.0, 0.0, 0.0, 7.0, -13.3, -63.0)" width="20.45" xlink:href="#shape2"/>
    </g>
    <g id="shape2" transform="matrix(1.0, 0.0, 0.0, 1.0, 1.9, 9.0)">
      
      
      
      
      
    <path d="M2.4 -7.6 L2.4 -7.7 2.65 -8.05 2.8 -8.3 2.7 -8.15 2.45 -7.7 2.4 -7.6" fill="#ce9306" fill-rule="evenodd" stroke="none"/><path d="M8.1 -7.25 L8.15 -7.25 8.15 -7.3 Q8.15 -7.55 7.5 -7.5 6.8 -7.4 6.05 -7.0 5.0 -6.35 4.5 -5.35 L4.55 -5.5 4.05 -5.15 Q3.15 -4.55 2.8 -4.15 L2.65 -4.55 Q2.35 -5.65 2.3 -6.6 2.4 -6.85 2.55 -7.2 L2.55 -7.25 3.05 -8.1 3.45 -8.8 3.7 -9.35 3.65 -9.25 3.95 -9.15 Q4.55 -9.0 5.5 -9.0 8.35 -9.0 11.05 -9.4 12.4 -9.6 13.1 -9.8 L13.0 -9.8 Q12.95 -9.55 13.0 -9.25 13.1 -8.85 13.05 -8.1 L13.0 -7.3 13.15 -4.8 12.7 -3.8 12.35 -3.1 12.3 -3.15 Q11.95 -3.15 11.15 -2.85 L10.8 -2.7 10.75 -2.8 10.5 -3.45 Q10.3 -3.95 10.1 -4.3 9.95 -4.65 9.3 -5.65 L9.25 -5.7 Q8.65 -6.85 8.3 -7.25 L8.1 -7.25 M3.85 -3.35 L4.0 -3.4 4.0 -3.35 4.1 -3.35 3.85 -3.35 M3.3 -9.1 L3.5 -9.35 3.3 -9.1 M14.1 -8.3 L14.15 -7.95 14.15 -7.85 14.15 -7.95 14.1 -8.3" fill="#ac8228" fill-rule="evenodd" stroke="none"/><path d="M1.55 -2.3 L1.55 -1.0 Q1.4 -1.25 0.95 -1.8 L0.8 -2.05 0.3 -2.8 0.3 -3.05 1.55 -3.1 1.55 -2.3" fill="#613916" fill-rule="evenodd" stroke="none"/><path d="M8.1 -7.25 L7.95 -7.25 7.85 -7.3 Q7.5 -7.15 6.6 -6.4 L6.3 -6.2 6.05 -5.9 5.15 -4.8 5.1 -4.8 5.1 -4.55 5.15 -4.4 5.2 -4.05 5.35 -3.5 5.2 -3.45 4.95 -3.4 4.3 -3.35 4.1 -3.35 4.0 -3.35 4.0 -3.4 3.85 -3.35 3.25 -3.35 3.05 -3.4 3.0 -3.4 2.8 -4.15 Q3.15 -4.55 4.05 -5.15 L4.55 -5.5 4.5 -5.35 Q5.0 -6.35 6.05 -7.0 6.8 -7.4 7.5 -7.5 8.15 -7.55 8.15 -7.3 L8.15 -7.25 8.1 -7.25 M12.35 -3.1 L12.7 -3.8 13.15 -4.8 13.0 -7.3 13.05 -8.1 Q13.1 -8.85 13.0 -9.25 12.95 -9.55 13.0 -9.8 L13.1 -9.8 Q12.4 -9.6 11.05 -9.4 8.35 -9.0 5.5 -9.0 4.55 -9.0 3.95 -9.15 L3.65 -9.25 3.7 -9.35 3.75 -9.45 3.75 -9.5 Q3.7 -9.6 3.5 -9.35 L3.5 -9.4 Q5.2 -10.75 8.55 -10.7 10.0 -10.7 10.1 -10.7 L12.2 -10.65 Q13.05 -10.6 13.55 -10.35 L13.65 -10.1 13.65 -9.95 Q13.65 -9.8 13.8 -9.25 L13.85 -9.15 14.0 -8.7 14.1 -8.3 14.15 -7.95 14.15 -7.85 14.15 -7.6 Q14.15 -6.85 14.05 -5.55 13.95 -4.7 13.9 -3.95 L13.8 -3.1 13.7 -3.1 13.55 -2.85 Q13.35 -2.55 13.35 -2.5 L13.45 -1.75 13.45 -1.5 13.4 -1.3 13.35 -0.95 Q13.3 -0.75 13.15 -0.4 L13.1 -0.45 13.05 -0.4 13.05 -0.5 Q13.05 -0.55 13.05 -0.6 L13.0 -0.7 13.0 -0.8 12.9 -1.15 12.85 -1.4 12.65 -2.0 12.5 -2.6 12.4 -3.05 12.35 -3.1" fill="#aa542b" fill-rule="evenodd" stroke="none"/><path d="M2.85 0.0 L2.8 0.0 1.65 -0.7 1.6 -0.75 1.6 -0.8 1.8 -0.8 1.85 -0.95 1.9 -1.0 1.85 -1.0 1.85 -1.1 1.9 -1.2 Q1.85 -1.7 1.9 -2.4 L1.95 -3.3 2.2 -3.2 Q2.85 -3.0 4.3 -3.0 L4.55 -3.05 3.85 -2.7 Q2.5 -2.0 2.5 -1.7 L2.6 -1.0 Q2.6 -0.35 2.85 0.0 M-0.95 2.15 L-1.25 2.1 -1.4 2.05 Q-1.8 1.95 -1.9 1.9 -1.95 1.85 -2.0 1.8 L-2.0 1.75 Q-2.0 1.6 -1.9 1.5 -1.55 1.15 -1.25 0.9 -0.85 0.7 -0.15 0.45 0.6 0.25 1.4 0.1 L1.55 0.1 1.6 0.05 1.65 0.05 1.65 0.0 1.8 0.1 2.2 0.25 Q2.3 0.4 2.75 0.65 L3.0 0.8 3.15 0.9 2.8 0.9 2.0 1.0 Q1.25 1.1 0.5 1.3 -0.3 1.5 -0.7 1.7 L-0.8 1.75 -0.85 1.8 Q-0.95 1.9 -0.95 2.0 L-0.95 2.15 M2.15 0.1 L2.05 0.05 Q1.8 -0.1 1.65 -0.2 L1.65 -0.35 Q1.85 -0.25 2.05 -0.15 L2.25 -0.05 Q2.15 0.0 2.15 0.1 M15.25 3.5 L13.65 3.5 Q13.2 3.5 12.45 3.3 L11.7 3.05 11.5 3.0 11.0 2.7 10.85 2.65 10.85 2.45 Q10.85 2.05 10.75 1.75 L10.75 1.65 10.65 1.15 Q10.65 0.8 10.2 0.1 L10.15 0.05 Q10.05 -0.2 10.05 -0.3 L10.05 -0.55 10.15 -1.9 10.85 -2.3 10.9 -2.3 10.95 -2.35 11.45 -2.6 Q11.9 -2.75 12.3 -2.8 L12.3 -2.85 12.35 -2.7 Q12.35 -2.35 12.5 -1.75 L12.55 -1.6 12.75 -0.9 12.95 -0.25 Q11.45 0.2 11.45 1.3 L11.45 1.45 Q11.55 1.55 11.75 1.55 11.9 1.55 12.25 1.15 L12.45 0.9 12.8 0.75 Q13.2 0.45 13.8 0.35 13.75 0.4 13.75 0.5 L13.75 0.65 13.8 0.7 13.0 0.85 12.95 0.85 12.8 1.0 12.95 0.95 Q13.45 0.85 14.0 0.8 L14.35 0.8 Q14.35 0.9 14.7 1.15 15.1 1.5 15.55 1.5 L15.5 1.4 15.55 1.7 Q15.55 2.25 15.5 2.7 15.45 3.3 15.25 3.5 M14.9 -0.05 L14.8 0.05 14.85 0.05 14.9 -0.05 M15.65 3.5 L15.7 3.45 15.85 3.45 15.65 3.5 M16.7 3.25 L16.85 3.25 17.0 3.05 17.0 3.2 16.7 3.25" fill="#875a32" fill-rule="evenodd" stroke="none"/><path d="M2.85 0.0 Q2.6 -0.35 2.6 -1.0 L2.5 -1.7 Q2.5 -2.0 3.85 -2.7 L4.55 -3.05 Q5.2 -3.05 5.85 -3.3 L5.95 -3.35 Q5.95 -3.25 6.0 -3.1 L6.05 -3.05 6.25 -2.1 Q6.5 -0.45 6.5 -0.15 L6.45 0.1 6.4 0.15 6.3 0.35 6.1 0.55 Q5.5 0.9 5.05 1.25 5.0 1.3 4.85 1.35 L4.55 1.5 4.55 1.6 4.7 1.6 Q4.85 1.6 5.1 1.5 L5.9 1.1 Q5.95 1.25 6.0 1.45 L6.05 1.85 6.05 2.05 6.0 2.05 5.2 2.25 4.5 2.4 3.7 2.45 3.65 2.45 2.9 2.5 1.15 2.5 0.85 2.45 -0.4 2.25 -0.75 2.2 -0.85 2.2 -0.9 2.15 -0.95 2.15 -0.95 2.0 Q-0.95 1.9 -0.85 1.8 L-0.8 1.75 -0.7 1.7 Q-0.3 1.5 0.5 1.3 1.25 1.1 2.0 1.0 L2.8 0.9 3.15 0.9 3.0 0.8 2.75 0.65 Q2.3 0.4 2.2 0.25 L2.3 0.3 2.45 0.4 2.55 0.4 2.5 0.35 2.15 0.1 Q2.15 0.0 2.25 -0.05 L2.55 0.1 2.9 0.25 Q3.0 0.3 3.45 0.6 L3.65 0.8 3.75 0.85 3.9 0.95 4.3 1.15 3.75 0.6 2.85 0.0 M15.25 3.5 Q15.45 3.3 15.5 2.7 15.55 2.25 15.55 1.7 L15.5 1.4 15.55 1.5 Q15.1 1.5 14.7 1.15 14.35 0.9 14.35 0.8 L14.0 0.8 14.85 0.8 14.9 0.9 14.95 0.85 15.2 0.9 15.35 1.0 15.5 1.15 Q16.05 1.45 16.4 1.9 L16.9 2.75 16.95 2.95 17.0 3.05 16.85 3.25 16.7 3.25 16.5 3.3 16.4 3.35 16.25 3.35 15.85 3.45 15.7 3.45 15.65 3.5 15.25 3.5 M13.8 0.7 L13.75 0.65 13.75 0.5 Q13.75 0.4 13.8 0.35 L14.75 0.25 Q14.85 0.45 14.85 0.6 L14.85 0.65 14.05 0.7 13.8 0.7 M12.45 0.9 L12.25 1.15 Q11.9 1.55 11.75 1.55 11.55 1.55 11.45 1.45 L11.45 1.3 Q11.45 0.2 12.95 -0.25 L13.0 0.05 13.35 -0.1 13.5 -0.35 13.6 -0.7 13.6 -0.85 13.7 -1.8 13.75 -1.95 13.7 -2.75 13.75 -2.75 Q14.4 -2.65 15.25 -2.15 L15.8 -1.8 Q15.8 -1.15 15.3 -0.5 L15.2 -0.4 14.9 -0.05 14.85 0.05 14.8 0.05 14.05 0.05 Q13.45 0.1 12.7 0.6 12.0 1.1 11.95 1.45 12.05 1.2 12.4 0.95 L12.45 0.9" fill="#6d3227" fill-rule="evenodd" stroke="none"/><path d="M4.1 -3.35 L4.3 -3.35 4.95 -3.4 5.2 -3.45 5.35 -3.5 5.2 -4.05 5.15 -4.4 5.1 -4.55 5.1 -4.8 5.15 -4.8 6.05 -5.9 6.3 -6.2 6.6 -6.4 Q7.5 -7.15 7.85 -7.3 L7.95 -7.25 8.1 -7.25 8.3 -7.25 Q8.65 -6.85 9.25 -5.7 L9.3 -5.65 Q9.95 -4.65 10.1 -4.3 10.3 -3.95 10.5 -3.45 L10.75 -2.8 10.8 -2.7 11.15 -2.85 Q11.95 -3.15 12.3 -3.15 L12.35 -3.1 12.4 -3.05 12.5 -2.6 12.65 -2.0 12.85 -1.4 12.9 -1.15 13.0 -0.8 13.0 -0.7 13.05 -0.6 Q13.05 -0.55 13.05 -0.5 L13.05 -0.4 13.1 -0.45 13.15 -0.4 Q13.3 -0.75 13.35 -0.95 L13.4 -1.3 13.45 -1.5 13.45 -1.75 13.35 -2.5 Q13.35 -2.55 13.55 -2.85 L13.7 -3.1 13.8 -3.1 13.9 -3.95 Q13.95 -4.7 14.05 -5.55 14.15 -6.85 14.15 -7.6 L14.15 -7.85 14.15 -7.95 14.1 -8.3 14.0 -8.7 13.85 -9.15 13.8 -9.25 Q13.65 -9.8 13.65 -9.95 L13.65 -10.1 14.1 -9.2 14.3 -8.85 14.45 -8.35 14.45 -8.05 14.55 -7.35 Q14.55 -6.15 14.45 -5.0 14.4 -3.5 14.3 -3.0 L15.35 -2.4 16.2 -1.95 16.2 -1.9 16.15 -1.75 16.15 -1.65 15.95 -1.1 Q15.85 -0.75 15.5 -0.25 L15.2 0.25 15.15 0.25 15.15 0.3 15.2 0.35 15.15 0.35 15.2 0.45 15.25 0.6 15.25 0.65 15.4 0.7 Q15.75 0.9 16.2 1.25 17.35 2.2 17.4 3.2 L17.35 3.3 16.9 3.55 Q16.3 3.7 15.0 3.8 L14.35 3.85 13.7 3.85 Q13.1 3.8 11.8 3.4 10.45 2.95 10.45 2.8 L10.5 2.65 10.45 2.55 10.45 1.8 10.5 1.8 10.5 1.6 Q10.5 1.3 10.15 0.5 9.95 0.0 9.8 -0.2 L9.8 -0.6 Q9.8 -1.1 10.0 -2.25 L10.4 -2.5 Q10.25 -2.7 10.0 -3.35 L9.4 -4.85 Q9.15 -5.35 8.5 -6.35 L8.1 -6.95 7.9 -7.05 7.4 -6.65 6.6 -6.0 5.35 -4.85 Q5.6 -4.2 5.6 -3.6 L5.85 -3.65 5.95 -3.7 6.05 -3.7 6.15 -3.45 6.4 -2.85 6.55 -2.15 Q6.7 -1.4 6.7 -1.25 L6.85 -0.25 6.85 0.2 6.45 0.7 6.35 0.75 6.25 0.9 Q6.2 0.85 6.2 1.0 L6.2 1.3 6.25 1.9 6.25 2.1 6.15 2.3 6.0 2.4 6.0 2.35 5.05 2.6 Q3.5 2.9 2.6 2.9 1.5 2.9 -0.3 2.55 -2.15 2.25 -2.3 1.9 L-2.3 1.95 Q-2.35 2.0 -2.35 1.85 L-2.35 1.8 -2.4 1.7 Q-2.4 1.2 -1.25 0.55 -0.1 -0.05 1.15 -0.1 L1.25 -0.1 1.3 -0.2 1.3 -0.3 1.4 -0.4 1.45 -0.5 1.35 -0.65 1.3 -0.8 1.3 -0.9 1.35 -0.9 1.15 -1.15 0.75 -1.55 0.65 -1.7 Q0.0 -2.75 0.0 -2.8 0.0 -3.1 0.1 -3.25 L0.95 -3.25 1.5 -3.3 Q1.6 -3.35 1.6 -3.45 L1.6 -3.5 Q1.65 -3.6 1.75 -3.6 L2.1 -3.55 2.35 -3.55 Q2.45 -3.45 2.5 -3.45 L2.55 -3.45 2.6 -3.5 2.6 -3.55 Q2.6 -3.7 2.5 -3.8 2.45 -4.05 2.15 -5.15 L2.1 -5.8 Q2.0 -6.35 2.0 -6.7 2.0 -6.9 2.4 -7.6 L2.45 -7.7 2.7 -8.15 2.8 -8.3 3.3 -9.1 3.5 -9.35 Q3.7 -9.6 3.75 -9.5 L3.75 -9.45 3.7 -9.35 3.45 -8.8 3.05 -8.1 2.55 -7.25 2.55 -7.2 Q2.4 -6.85 2.3 -6.6 2.35 -5.65 2.65 -4.55 L2.8 -4.15 3.0 -3.4 3.05 -3.4 3.25 -3.35 3.85 -3.35 4.1 -3.35 M1.55 -2.3 L1.55 -3.1 0.3 -3.05 0.3 -2.8 0.8 -2.05 0.95 -1.8 Q1.4 -1.25 1.55 -1.0 L1.55 -2.3 M4.55 -3.05 L4.3 -3.0 Q2.85 -3.0 2.2 -3.2 L1.95 -3.3 1.9 -2.4 Q1.85 -1.7 1.9 -1.2 L1.85 -1.1 1.85 -1.0 1.9 -1.0 1.85 -0.95 1.8 -0.8 1.6 -0.8 1.6 -0.75 1.65 -0.7 2.8 0.0 2.85 0.0 3.75 0.6 4.3 1.15 3.9 0.95 3.75 0.85 3.65 0.8 3.45 0.6 Q3.0 0.3 2.9 0.25 L2.55 0.1 2.25 -0.05 2.05 -0.15 Q1.85 -0.25 1.65 -0.35 L1.65 -0.2 Q1.8 -0.1 2.05 0.05 L2.15 0.1 2.5 0.35 2.55 0.4 2.45 0.4 2.3 0.3 2.2 0.25 1.8 0.1 1.65 0.0 1.65 0.05 1.6 0.05 1.55 0.1 1.4 0.1 Q0.6 0.25 -0.15 0.45 -0.85 0.7 -1.25 0.9 -1.55 1.15 -1.9 1.5 -2.0 1.6 -2.0 1.75 L-2.0 1.8 Q-1.95 1.85 -1.9 1.9 -1.8 1.95 -1.4 2.05 L-1.25 2.1 -0.95 2.15 -0.9 2.15 -0.85 2.2 -0.75 2.2 -0.4 2.25 0.85 2.45 1.15 2.5 2.9 2.5 3.65 2.45 3.7 2.45 4.5 2.4 5.2 2.25 6.0 2.05 6.05 2.05 6.05 1.85 6.0 1.45 Q5.95 1.25 5.9 1.1 L5.1 1.5 Q4.85 1.6 4.7 1.6 L4.55 1.6 4.55 1.5 4.85 1.35 Q5.0 1.3 5.05 1.25 5.5 0.9 6.1 0.55 L6.3 0.35 6.4 0.15 6.45 0.1 6.5 -0.15 Q6.5 -0.45 6.25 -2.1 L6.05 -3.05 6.0 -3.1 Q5.95 -3.25 5.95 -3.35 L5.85 -3.3 Q5.2 -3.05 4.55 -3.05 M12.95 -0.25 L12.75 -0.9 12.55 -1.6 12.5 -1.75 Q12.35 -2.35 12.35 -2.7 L12.3 -2.85 12.3 -2.8 Q11.9 -2.75 11.45 -2.6 L10.95 -2.35 10.9 -2.3 10.85 -2.3 10.15 -1.9 10.05 -0.55 10.05 -0.3 Q10.05 -0.2 10.15 0.05 L10.2 0.1 Q10.65 0.8 10.65 1.15 L10.75 1.65 10.75 1.75 Q10.85 2.05 10.85 2.45 L10.85 2.65 11.0 2.7 11.5 3.0 11.7 3.05 12.45 3.3 Q13.2 3.5 13.65 3.5 L15.25 3.5 15.65 3.5 15.85 3.45 16.25 3.35 16.4 3.35 16.5 3.3 16.7 3.25 17.0 3.2 17.0 3.05 16.95 2.95 16.9 2.75 16.4 1.9 Q16.05 1.45 15.5 1.15 L15.35 1.0 15.2 0.9 14.95 0.85 14.9 0.9 14.85 0.8 14.0 0.8 Q13.45 0.85 12.95 0.95 L12.8 1.0 12.95 0.85 13.0 0.85 13.8 0.7 14.05 0.7 14.85 0.65 14.85 0.6 Q14.85 0.45 14.75 0.25 L13.8 0.35 Q13.2 0.45 12.8 0.75 L12.45 0.9 12.4 0.95 Q12.05 1.2 11.95 1.45 12.0 1.1 12.7 0.6 13.45 0.1 14.05 0.05 L14.8 0.05 14.9 -0.05 15.2 -0.4 15.3 -0.5 Q15.8 -1.15 15.8 -1.8 L15.25 -2.15 Q14.4 -2.65 13.75 -2.75 L13.7 -2.75 13.75 -1.95 13.7 -1.8 13.6 -0.85 13.6 -0.7 13.5 -0.35 13.35 -0.1 13.0 0.05 12.95 -0.25 M9.75 -1.95 L9.8 -2.05 9.8 -1.9 9.75 -1.95 M15.0 0.7 L14.95 0.65 14.95 0.7 15.0 0.7" fill="#101010" fill-rule="evenodd" stroke="none"/></g>
    <g id="sprite3" transform="matrix(1.0, 0.0, 0.0, 1.0, 0.0, 43.75)">
      <use ffdec:characterId="958" height="8.75" transform="matrix(7.0, 0.0, 0.0, 7.0, 0.0, -43.75)" width="12.0" xlink:href="#shape3"/>
    </g>
    <g id="shape3" transform="matrix(1.0, 0.0, 0.0, 1.0, 0.0, 6.25)">
      
      
      
    <path d="M84.0 30.625 C84.0 47.5 65.2 61.25 42.0 61.25 C18.8 61.25 0.0 47.5 0.0 30.625 C0.0 13.75 18.8 0.0 42.0 0.0 C65.2 0.0 84.0 13.75 84.0 30.625 Z" fill="rgba(139, 69, 19, 0.01)" stroke="rgba(0, 0, 0, 0.01)" stroke-width="0.5"/></g>
    <g id="sprite4" transform="matrix(1.0, 0.0, 0.0, 1.0, 48.65, 53.55)">
      <use ffdec:characterId="948" height="15.3" transform="matrix(7.0, 0.0, 0.0, 7.0, -48.65, -53.55)" width="13.95" xlink:href="#shape4"/>
    </g>
    <g id="shape4" transform="matrix(1.0, 0.0, 0.0, 1.0, 6.95, 7.65)">
      
      
      
      
      
    <path d="M-0.2 -1.25 L-0.45 -1.3 -0.8 -1.3 -0.8 -1.35 Q-0.8 -1.95 -1.8 -1.8 -2.2 -1.75 -2.5 -1.6 -2.8 -1.45 -2.8 -1.4 L-2.8 -1.2 -2.9 -1.2 -3.2 -2.1 Q-3.5 -2.95 -3.5 -3.1 L-3.5 -3.15 -3.3 -3.0 -2.55 -2.55 -1.9 -2.5 -1.4 -2.55 Q-1.2 -2.6 -1.1 -2.65 L-0.95 -2.7 Q-0.6 -2.85 0.1 -3.35 L0.15 -3.4 0.2 -3.4 Q0.7 -3.7 1.2 -4.2 L0.45 -2.6 -0.2 -1.25 M-6.1 -4.3 L-6.15 -4.05 -6.15 -4.1 -6.1 -4.3" fill="#d6b37e" fill-rule="evenodd" stroke="none"/><path d="M4.1 3.5 L4.15 3.45 4.25 3.5 4.1 3.5 M3.15 3.7 L3.5 3.55 3.65 3.6 3.35 3.65 3.15 3.7 M0.7 3.15 L0.6 3.15 0.45 3.05 0.7 3.15" fill="#485679" fill-rule="evenodd" stroke="none"/><path d="M-0.8 -1.3 L-1.7 -1.3 -1.85 -1.25 -2.0 -1.3 -2.6 -1.2 -2.8 -1.2 -2.8 -1.4 Q-2.8 -1.45 -2.5 -1.6 -2.2 -1.75 -1.8 -1.8 -0.8 -1.95 -0.8 -1.35 L-0.8 -1.3 M-4.25 -7.4 L-4.25 -7.4" fill="#c67137" fill-rule="evenodd" stroke="none"/><path d="M-1.05 -3.7 L-1.1 -3.7 -1.05 -3.7" fill="#663e5c" fill-rule="evenodd" stroke="none"/><path d="M0.0 -1.2 L-0.1 -1.05 -0.2 -1.05 -0.2 -1.25 0.45 -2.6 1.2 -4.2 1.45 -4.8 1.55 -4.8 1.55 -4.7 1.5 -4.5 Q1.4 -4.0 0.75 -2.7 L0.2 -1.65 0.15 -1.55 0.1 -1.45 0.1 -1.4 0.0 -1.2 M-2.9 -1.2 L-2.8 -1.0 -2.75 -0.95 -2.8 -0.95 -2.85 -0.9 -2.9 -0.95 -3.0 -1.2 -3.1 -1.35 -3.15 -1.6 -3.3 -1.9 -3.3 -2.0 Q-3.6 -2.9 -3.6 -3.1 L-3.6 -3.3 -3.6 -3.35 -3.5 -3.35 Q-3.45 -3.35 -3.5 -3.25 L-3.5 -3.15 -3.5 -3.1 Q-3.5 -2.95 -3.2 -2.1 L-2.9 -1.2" fill="#180e06" fill-rule="evenodd" stroke="none"/><path d="M6.4 -6.7 L6.45 -6.6 6.5 -6.45 6.55 -6.4 6.6 -6.2 6.65 -6.1 6.4 -6.45 6.45 -6.45 6.45 -6.0 6.5 -5.75 6.5 -5.45 Q6.45 -4.5 6.35 -3.65 L6.3 -3.4 6.3 -3.35 6.2 -2.9 6.15 -2.75 5.95 -2.35 5.85 -2.25 5.55 -1.8 Q5.25 -1.35 5.0 -1.05 L4.8 -0.9 4.65 -0.75 4.1 -0.35 4.05 -0.3 4.0 -0.2 4.0 -0.15 4.1 -0.1 4.3 -0.15 4.35 -0.2 4.35 -0.05 4.4 0.25 4.4 0.4 4.35 0.35 Q3.85 0.0 3.25 -0.25 L3.1 -0.3 3.05 -0.3 2.95 -0.35 2.9 -0.4 2.9 -0.45 2.8 -0.4 2.75 -0.45 2.5 -0.55 Q2.5 -0.85 3.1 -1.25 3.8 -1.75 3.95 -2.25 3.95 -3.4 4.1 -3.9 4.45 -5.2 4.6 -5.6 5.1 -6.75 5.9 -6.8 L6.05 -6.8 Q6.25 -6.8 6.4 -6.7 M0.1 -1.2 L0.0 -1.2 0.1 -1.4 0.05 -1.25 0.1 -1.2 M-3.1 -1.2 Q-3.95 -1.1 -4.4 -0.9 L-4.55 -0.85 -4.6 -0.85 -4.6 -0.9 -4.7 -1.0 -4.0 -1.55 Q-3.55 -1.85 -3.3 -1.9 L-3.15 -1.6 -3.1 -1.35 -3.05 -1.25 -3.1 -1.2" fill="#3f201d" fill-rule="evenodd" stroke="none"/><path d="M3.45 -8.15 Q3.55 -8.35 3.65 -8.35 4.6 -8.35 5.45 -7.6 L5.7 -7.6 5.9 -7.4 Q6.15 -7.15 6.4 -6.7 6.25 -6.8 6.05 -6.8 L5.9 -6.8 Q5.1 -6.75 4.6 -5.6 4.45 -5.2 4.1 -3.9 3.95 -3.4 3.95 -2.25 3.8 -1.75 3.1 -1.25 2.5 -0.85 2.5 -0.55 L2.3 -0.6 1.45 -0.85 Q0.8 -1.05 0.1 -1.2 L0.05 -1.25 0.1 -1.4 0.1 -1.45 0.15 -1.55 0.2 -1.65 0.75 -2.7 Q1.4 -4.0 1.5 -4.5 1.9 -4.9 2.25 -5.4 L2.65 -6.0 2.65 -6.05 2.75 -6.35 2.8 -6.45 2.85 -6.5 2.95 -6.75 3.25 -7.45 3.35 -7.95 3.4 -8.05 3.45 -8.15 M6.6 -6.2 L6.65 -6.05 6.65 -6.1 6.6 -6.2 M-3.0 -1.2 L-3.1 -1.2 -3.05 -1.25 -3.1 -1.35 -3.0 -1.2 M-4.7 -1.0 L-4.8 -1.15 -4.85 -1.2 -5.35 -1.8 -5.35 -1.85 -5.4 -1.95 -5.7 -2.45 -5.9 -3.0 -5.95 -3.2 -5.95 -3.55 Q-5.9 -4.25 -5.4 -5.45 L-5.35 -5.55 -4.5 -7.05 -4.25 -7.4 -4.3 -7.3 -4.3 -7.1 -4.35 -6.8 -4.35 -6.65 -4.35 -6.6 -4.35 -6.05 Q-4.35 -4.95 -4.1 -4.2 L-4.0 -3.9 Q-3.95 -3.7 -3.85 -3.5 L-3.6 -3.3 -3.6 -3.1 Q-3.6 -2.9 -3.3 -2.0 L-3.3 -1.9 Q-3.55 -1.85 -4.0 -1.55 L-4.7 -1.0" fill="#6a2c1a" fill-rule="evenodd" stroke="none"/><path d="M-3.35 -5.45 L-3.35 -5.65 -3.3 -5.8 -3.35 -5.9 Q-3.4 -6.1 -3.35 -6.3 -3.35 -6.5 -3.15 -7.05 -2.5 -6.4 -1.7 -6.4 -1.05 -6.4 0.25 -7.0 1.05 -7.4 1.35 -7.65 L1.35 -7.5 Q1.35 -7.0 0.75 -6.25 L0.25 -5.65 0.2 -5.6 0.1 -5.5 -0.3 -5.15 Q-0.9 -4.7 -1.5 -4.55 L-1.5 -4.55 Q-1.0 -4.65 -0.45 -4.95 -0.25 -5.1 -0.1 -5.2 L0.2 -5.4 0.25 -5.4 0.25 -5.45 0.3 -5.45 0.4 -5.55 0.45 -5.55 0.75 -5.8 0.85 -5.9 Q1.25 -6.05 1.25 -5.7 -0.05 -3.7 -0.95 -3.7 L-1.05 -3.7 -1.05 -3.7 -1.1 -3.7 -1.2 -3.7 Q-2.15 -3.7 -2.65 -4.2 -2.95 -4.5 -3.0 -4.75 L-3.15 -5.0 -3.3 -5.4 -3.35 -5.45 M-1.3 -3.0 Q-1.45 -2.95 -1.55 -2.9 -1.9 -2.8 -2.2 -2.75 -2.55 -2.8 -2.85 -2.95 -2.95 -3.0 -3.0 -3.05 -3.25 -3.2 -3.4 -3.45 L-3.5 -3.6 Q-3.7 -3.9 -3.8 -4.35 L-3.95 -5.2 -4.0 -5.3 Q-4.1 -6.0 -4.15 -6.7 L-4.15 -6.95 -4.15 -6.9 Q-4.05 -6.8 -3.95 -6.8 -3.85 -6.8 -3.8 -6.9 -3.75 -6.1 -3.45 -5.3 -3.2 -4.6 -2.8 -4.2 L-2.8 -4.0 -2.35 -3.45 Q-1.8 -3.0 -1.35 -3.0 L-1.3 -3.0 M-4.8 3.65 L-4.6 3.9 -4.8 3.7 -4.8 3.65 M-4.85 3.15 L-4.85 3.15" fill="#b34424" fill-rule="evenodd" stroke="none"/><path d="M-3.35 -5.45 Q-3.65 -6.35 -3.65 -7.1 -3.65 -7.5 -3.5 -8.1 L-3.45 -8.25 -3.4 -8.45 -3.3 -8.7 -3.2 -8.8 Q-3.0 -9.05 -2.85 -9.05 L-2.7 -9.1 Q-2.5 -9.25 -2.2 -9.3 -0.7 -10.0 0.6 -10.05 L1.75 -10.0 1.85 -10.0 Q2.15 -9.95 2.55 -9.75 L2.4 -9.85 2.75 -9.7 3.4 -9.15 3.1 -8.8 3.1 -8.75 2.9 -8.55 2.9 -8.5 2.85 -8.4 2.7 -8.25 2.2 -7.55 Q1.5 -6.6 1.05 -6.4 L0.7 -6.05 0.2 -5.6 0.25 -5.65 0.75 -6.25 Q1.35 -7.0 1.35 -7.5 L1.35 -7.65 Q1.05 -7.4 0.25 -7.0 -1.05 -6.4 -1.7 -6.4 -2.5 -6.4 -3.15 -7.05 -3.35 -6.5 -3.35 -6.3 -3.4 -6.1 -3.35 -5.9 L-3.3 -5.8 -3.35 -5.65 -3.35 -5.45 M0.85 -5.9 L1.95 -6.95 2.95 -8.05 3.05 -8.2 3.45 -8.7 3.25 -8.15 2.9 -7.2 2.6 -6.5 2.2 -5.8 2.0 -5.6 Q1.05 -4.55 -0.05 -3.8 L-0.7 -3.3 -1.3 -3.0 -1.35 -3.0 Q-1.8 -3.0 -2.35 -3.45 L-2.8 -4.0 -2.8 -4.2 -2.7 -4.1 Q-2.5 -3.9 -2.3 -3.8 L-2.25 -3.8 Q-1.95 -3.7 -1.5 -3.6 L-1.15 -3.65 -1.1 -3.65 -1.05 -3.7 -0.95 -3.7 Q-0.05 -3.7 1.25 -5.7 1.25 -6.05 0.85 -5.9 M-4.15 -6.95 L-4.05 -7.7 -4.05 -7.75 -4.0 -7.8 -3.9 -8.0 -3.8 -8.0 -3.85 -7.15 -3.8 -6.9 Q-3.85 -6.8 -3.95 -6.8 -4.05 -6.8 -4.15 -6.9 L-4.15 -6.95" fill="#763529" fill-rule="evenodd" stroke="none"/><path d="M6.4 -6.7 Q6.15 -7.15 5.9 -7.4 L5.7 -7.6 5.45 -7.6 Q4.6 -8.35 3.65 -8.35 3.55 -8.35 3.45 -8.15 L3.4 -8.15 3.4 -8.05 3.35 -7.95 3.25 -7.45 2.95 -6.75 2.85 -6.5 2.8 -6.45 2.75 -6.35 2.65 -6.05 2.65 -6.0 2.25 -5.4 Q1.9 -4.9 1.5 -4.5 L1.55 -4.7 1.55 -4.8 1.45 -4.8 1.2 -4.2 Q0.7 -3.7 0.2 -3.4 L0.15 -3.4 0.1 -3.35 Q-0.6 -2.85 -0.95 -2.7 L-1.1 -2.65 Q-1.2 -2.6 -1.4 -2.55 L-1.9 -2.5 -2.55 -2.55 -3.3 -3.0 -3.5 -3.15 -3.5 -3.25 Q-3.45 -3.35 -3.5 -3.35 L-3.6 -3.35 -3.6 -3.3 -3.85 -3.5 Q-3.95 -3.7 -4.0 -3.9 L-4.1 -4.2 Q-4.35 -4.95 -4.35 -6.05 L-4.35 -6.6 -4.35 -6.65 -4.35 -6.8 -4.3 -7.1 -4.3 -7.3 -4.25 -7.4 -4.5 -7.05 -5.35 -5.55 -5.4 -5.45 Q-5.9 -4.25 -5.95 -3.55 L-5.95 -3.2 -5.9 -3.0 -5.7 -2.45 -5.4 -1.95 -5.35 -1.85 -5.35 -1.8 -4.85 -1.2 -4.8 -1.15 -4.7 -1.0 -4.6 -0.9 -4.6 -0.85 -4.55 -0.85 -4.4 -0.9 Q-3.95 -1.1 -3.1 -1.2 L-3.0 -1.2 -2.9 -0.95 -3.9 -0.75 -4.1 -0.7 -4.6 -0.5 -4.7 -0.45 -4.75 -0.15 -4.75 -0.05 -4.8 0.1 -4.8 0.35 -2.1 0.4 Q0.95 0.7 2.6 1.1 L3.0 1.2 4.45 1.55 4.4 1.0 4.4 0.95 Q4.4 0.75 3.95 0.45 3.9 0.25 3.7 0.3 L3.6 0.2 3.5 0.15 3.45 0.15 2.95 -0.1 Q2.1 -0.5 1.75 -0.5 1.2 -0.7 0.75 -0.75 L0.6 -0.75 Q-0.6 -1.15 -1.1 -0.95 L-1.75 -1.05 -2.8 -1.0 -2.9 -1.2 -2.8 -1.2 -2.6 -1.2 -2.0 -1.3 -1.85 -1.25 -1.7 -1.3 -0.8 -1.3 -0.45 -1.3 -0.2 -1.25 -0.2 -1.05 -0.1 -1.05 0.0 -1.2 0.1 -1.2 Q0.8 -1.05 1.45 -0.85 L2.3 -0.6 2.5 -0.55 2.75 -0.45 2.8 -0.4 2.9 -0.45 2.9 -0.4 2.95 -0.35 3.05 -0.3 3.1 -0.3 3.25 -0.25 Q3.85 0.0 4.35 0.35 L4.4 0.4 4.4 0.25 4.35 -0.05 4.35 -0.2 4.3 -0.15 4.1 -0.1 4.0 -0.15 4.0 -0.2 4.05 -0.3 4.1 -0.35 4.65 -0.75 4.8 -0.9 5.0 -1.05 Q5.25 -1.35 5.55 -1.8 L5.85 -2.25 5.95 -2.35 6.15 -2.75 6.2 -2.9 6.3 -3.35 6.3 -3.4 6.35 -3.65 Q6.45 -4.5 6.5 -5.45 L6.5 -5.75 6.45 -6.0 6.45 -6.45 6.4 -6.45 6.65 -6.1 6.65 -6.05 6.6 -6.2 6.55 -6.4 6.5 -6.45 6.45 -6.6 6.4 -6.7 M-4.25 -7.4 L-4.25 -7.4 M-6.1 -4.3 Q-5.85 -4.95 -5.4 -5.9 L-4.95 -6.85 Q-4.25 -8.0 -3.9 -8.5 L-3.9 -8.55 -3.85 -8.55 -3.85 -8.6 -3.8 -8.6 -3.6 -8.65 -3.6 -8.7 -3.55 -8.7 -3.3 -8.9 Q-2.95 -9.2 -2.45 -9.4 L-2.45 -9.45 -1.8 -9.7 -1.3 -9.85 -0.3 -10.1 -0.25 -10.1 Q1.3 -10.35 1.65 -10.25 L1.8 -10.3 2.1 -10.25 2.15 -10.25 2.2 -10.2 Q2.4 -10.2 2.7 -10.0 L2.75 -9.95 3.1 -9.7 3.4 -9.5 3.65 -9.25 3.65 -9.15 3.6 -8.75 3.6 -8.7 3.8 -8.65 Q4.55 -8.5 5.75 -8.1 L5.95 -7.95 6.05 -7.85 Q6.15 -7.7 6.4 -7.4 L6.7 -6.8 7.05 -6.2 6.95 -5.9 6.9 -5.65 6.9 -5.3 Q6.9 -4.45 6.85 -3.75 L6.8 -3.2 6.85 -3.25 6.8 -3.05 6.75 -2.9 6.75 -2.85 6.65 -2.7 6.6 -2.65 6.3 -2.2 6.25 -2.15 6.1 -1.95 6.05 -1.85 5.85 -1.65 Q5.45 -1.1 5.1 -0.7 4.95 -0.5 4.9 -0.3 L4.9 0.95 4.95 1.0 4.95 1.25 4.9 1.2 4.9 1.55 Q4.9 1.8 4.9 2.05 L4.85 2.85 4.8 3.3 4.4 3.85 Q4.05 4.15 3.1 4.75 2.0 5.35 0.45 5.65 L-1.2 5.65 -1.8 5.55 -2.55 5.4 -2.75 5.3 -2.85 5.3 -3.85 4.95 -4.05 4.85 -4.4 4.55 Q-5.05 3.95 -5.05 3.75 L-5.1 3.7 -5.15 3.4 -5.15 3.35 -5.2 3.2 -5.35 2.65 -5.4 2.65 -5.4 2.25 -5.35 1.25 -5.25 0.3 Q-5.15 0.25 -5.1 0.1 -5.05 0.0 -5.05 -0.15 -5.0 -0.3 -5.0 -0.5 L-5.0 -0.7 -5.05 -0.85 Q-5.15 -1.0 -5.3 -1.2 L-5.35 -1.2 -5.4 -1.3 -5.5 -1.4 Q-5.85 -1.8 -6.05 -2.25 -6.1 -2.45 -6.15 -2.75 L-6.15 -4.05 -6.1 -4.3 M0.2 -5.6 L0.7 -6.05 1.05 -6.4 Q1.5 -6.6 2.2 -7.55 L2.7 -8.25 2.85 -8.4 2.9 -8.5 2.9 -8.55 3.1 -8.75 3.1 -8.8 3.4 -9.15 2.75 -9.7 2.4 -9.85 2.55 -9.75 Q2.15 -9.95 1.85 -10.0 L1.75 -10.0 0.6 -10.05 Q-0.7 -10.0 -2.2 -9.3 -2.5 -9.25 -2.7 -9.1 L-2.85 -9.05 Q-3.0 -9.05 -3.2 -8.8 L-3.3 -8.7 -3.4 -8.45 -3.45 -8.25 -3.5 -8.1 Q-3.65 -7.5 -3.65 -7.1 -3.65 -6.35 -3.35 -5.45 L-3.3 -5.4 -3.15 -5.0 -3.0 -4.75 Q-2.95 -4.5 -2.65 -4.2 -2.15 -3.7 -1.2 -3.7 L-1.1 -3.7 -1.05 -3.7 -1.1 -3.65 -1.15 -3.65 -1.5 -3.6 Q-1.95 -3.7 -2.25 -3.8 L-2.3 -3.8 Q-2.5 -3.9 -2.7 -4.1 L-2.8 -4.2 Q-3.2 -4.6 -3.45 -5.3 -3.75 -6.1 -3.8 -6.9 L-3.85 -7.15 -3.8 -8.0 -3.9 -8.0 -4.0 -7.8 -4.05 -7.75 -4.05 -7.7 -4.15 -6.95 -4.15 -6.7 Q-4.1 -6.0 -4.0 -5.3 L-3.95 -5.2 -3.8 -4.35 Q-3.7 -3.9 -3.5 -3.6 L-3.4 -3.45 Q-3.25 -3.2 -3.0 -3.05 -2.95 -3.0 -2.85 -2.95 -2.55 -2.8 -2.2 -2.75 -1.9 -2.8 -1.55 -2.9 -1.45 -2.95 -1.3 -3.0 L-0.7 -3.3 -0.05 -3.8 Q1.05 -4.55 2.0 -5.6 L2.2 -5.8 2.6 -6.5 2.9 -7.2 3.25 -8.15 3.45 -8.7 3.05 -8.2 2.95 -8.05 1.95 -6.95 0.85 -5.9 0.75 -5.8 0.45 -5.55 0.4 -5.55 0.3 -5.45 0.25 -5.45 0.25 -5.4 0.2 -5.4 -0.1 -5.2 Q-0.25 -5.1 -0.45 -4.95 -1.0 -4.65 -1.5 -4.55 L-1.5 -4.55 Q-0.9 -4.7 -0.3 -5.15 L0.1 -5.5 0.2 -5.6 M-1.05 -3.7 L-1.05 -3.7 M-4.15 -7.25 L-4.15 -7.25 M-4.2 0.9 Q-3.6 1.3 -2.85 1.7 L-2.8 1.7 -2.35 1.9 -1.25 2.35 -0.2 2.7 Q2.4 3.55 3.8 3.5 L4.1 3.5 4.25 3.5 4.3 3.5 4.4 3.45 4.4 3.0 4.45 1.85 4.45 1.7 2.95 1.35 2.65 1.25 Q1.1 0.85 -2.0 0.55 L-4.7 0.55 -4.6 0.6 -4.2 0.9 M-4.9 2.45 L-4.9 2.8 -4.8 3.0 -4.75 3.0 Q-4.65 3.2 -4.4 3.4 -3.95 3.75 -3.25 3.85 L-2.85 3.95 -2.25 4.15 -1.45 4.25 -0.4 4.2 1.3 4.05 1.75 3.95 3.0 3.7 3.15 3.7 3.35 3.65 3.65 3.6 3.5 3.55 1.25 3.25 0.7 3.15 0.45 3.05 -0.55 2.75 Q-2.35 2.1 -3.3 1.65 L-3.65 1.45 Q-4.6 1.0 -4.85 0.6 L-4.85 0.85 -4.9 1.2 -4.9 2.45 M-4.85 3.15 L-4.8 3.25 -4.8 3.65 -4.8 3.7 -4.6 3.9 -4.5 4.05 -3.95 4.4 -3.65 4.55 Q-2.8 4.95 -2.5 5.05 L-2.45 5.05 -2.35 5.1 -1.95 5.2 -1.8 5.2 -1.05 5.3 0.1 5.3 1.35 5.1 Q1.65 5.05 2.15 4.8 2.3 4.8 2.9 4.5 L2.95 4.5 3.1 4.4 3.45 4.25 3.7 4.1 4.15 3.85 4.15 3.8 4.0 3.8 4.0 3.75 3.95 3.75 3.75 3.8 3.25 3.9 3.1 3.95 2.95 3.95 2.5 4.05 1.95 4.15 0.7 4.4 -0.4 4.55 -0.65 4.55 -1.4 4.55 Q-2.1 4.4 -2.65 4.2 L-2.9 4.1 -3.6 3.85 -3.7 3.8 -3.75 3.8 Q-4.45 3.5 -4.75 3.2 L-4.8 3.15 -4.85 3.15 -4.85 3.15" fill="#101010" fill-rule="evenodd" stroke="none"/><path d="M-2.8 -1.0 L-1.75 -1.05 -1.1 -0.95 Q-0.6 -1.15 0.6 -0.75 L0.75 -0.75 Q1.2 -0.7 1.75 -0.5 L1.95 -0.45 Q2.85 -0.05 3.25 0.35 3.2 0.55 3.1 0.95 L3.0 1.2 2.6 1.1 Q0.95 0.7 -2.1 0.4 L-4.8 0.35 -4.8 0.1 -4.75 -0.05 -4.75 -0.15 -4.7 -0.45 -4.6 -0.5 -4.1 -0.7 -3.9 -0.75 -2.9 -0.95 -2.85 -0.9 -2.8 -0.95 -2.75 -0.95 -2.8 -1.0 M-4.2 0.9 L-1.8 1.05 -0.6 1.2 -0.5 1.2 -0.1 1.4 0.2 1.6 0.65 1.75 0.95 1.9 2.2 2.55 1.0 2.65 0.95 2.65 Q-0.45 2.65 -1.15 2.3 L-1.2 2.25 -1.25 2.25 -1.25 2.35 -2.35 1.9 -2.8 1.7 -2.85 1.7 Q-3.6 1.3 -4.2 0.9 M-3.65 1.45 L-3.2 1.85 -2.65 2.2 -0.85 3.15 Q0.1 3.65 0.1 3.75 0.1 3.9 -0.05 3.95 L-0.35 4.0 -0.95 3.95 Q-1.25 4.05 -1.65 4.05 -2.7 3.85 -3.95 3.05 L-4.75 2.5 -4.9 2.45 -4.9 1.2 -4.85 0.85 -4.85 0.6 Q-4.6 1.0 -3.65 1.45 M3.1 3.95 Q2.7 4.4 0.1 4.8 L-0.5 4.8 -0.6 4.75 Q-0.65 4.75 -0.65 4.6 L-0.65 4.55 -0.4 4.55 0.7 4.4 1.95 4.15 2.5 4.05 2.95 3.95 3.1 3.95" fill="#587094" fill-rule="evenodd" stroke="none"/><path d="M1.75 -0.5 Q2.1 -0.5 2.95 -0.1 L3.45 0.15 3.5 0.15 3.6 0.2 3.7 0.3 Q3.9 0.25 3.95 0.45 4.4 0.75 4.4 0.95 L4.4 1.0 4.45 1.55 3.0 1.2 3.1 0.95 Q3.2 0.55 3.25 0.35 2.85 -0.05 1.95 -0.45 L1.75 -0.5 M-1.25 2.35 L-1.25 2.25 -1.2 2.25 -1.15 2.3 Q-0.45 2.65 0.95 2.65 L1.0 2.65 2.2 2.55 0.95 1.9 0.65 1.75 0.2 1.6 -0.1 1.4 -0.5 1.2 -0.6 1.2 -1.8 1.05 -4.2 0.9 -4.6 0.6 -4.7 0.55 -2.0 0.55 Q1.1 0.85 2.65 1.25 L2.95 1.35 4.45 1.7 4.45 1.85 4.4 3.0 4.4 3.45 4.3 3.5 4.25 3.5 4.15 3.45 4.1 3.5 3.8 3.5 Q2.4 3.55 -0.2 2.7 L-1.25 2.35 M-4.9 2.45 L-4.75 2.5 -3.95 3.05 Q-2.7 3.85 -1.65 4.05 -1.25 4.05 -0.95 3.95 L-0.35 4.0 -0.05 3.95 Q0.1 3.9 0.1 3.75 0.1 3.65 -0.85 3.15 L-2.65 2.2 -3.2 1.85 -3.65 1.45 -3.3 1.65 Q-2.35 2.1 -0.55 2.75 L0.45 3.05 0.6 3.15 0.7 3.15 1.25 3.25 3.5 3.55 3.15 3.7 3.0 3.7 1.75 3.95 1.3 4.05 -0.4 4.2 -1.45 4.25 -2.25 4.15 -2.85 3.95 -3.25 3.85 Q-3.95 3.75 -4.4 3.4 -4.65 3.2 -4.75 3.0 L-4.8 3.0 -4.9 2.8 -4.9 2.45 M-4.8 3.65 L-4.8 3.25 -4.85 3.15 -4.8 3.15 -4.75 3.2 Q-4.45 3.5 -3.75 3.8 L-3.7 3.8 -3.6 3.85 -2.9 4.1 -2.65 4.2 Q-2.1 4.4 -1.4 4.55 L-0.65 4.55 -0.65 4.6 Q-0.65 4.75 -0.6 4.75 L-0.5 4.8 0.1 4.8 Q2.7 4.4 3.1 3.95 L3.25 3.9 3.75 3.8 3.95 3.75 4.0 3.75 4.0 3.8 4.15 3.8 4.15 3.85 3.7 4.1 3.45 4.25 3.1 4.4 2.95 4.5 2.9 4.5 Q2.3 4.8 2.15 4.8 1.65 5.05 1.35 5.1 L0.1 5.3 -1.05 5.3 -1.8 5.2 -1.95 5.2 -2.35 5.1 -2.45 5.05 -2.5 5.05 Q-2.8 4.95 -3.65 4.55 L-3.95 4.4 -4.5 4.05 -4.6 3.9 -4.8 3.65" fill="#565f69" fill-rule="evenodd" stroke="none"/></g>
    <g id="sprite5" transform="matrix(1.0, 0.0, 0.0, 1.0, 96.65, 114.6)">
      <use ffdec:characterId="985" ffdec:characterName="a_Face2" height="158.2" transform="matrix(1.0052, 0.0, 0.0, 1.0052, -96.65, -114.6207)" width="135.8" xlink:href="#sprite6"/>
    </g>
    <g id="sprite6" transform="matrix(1.0, 0.0, 0.0, 1.0, 0.0, 158.2)">
      <use ffdec:characterId="984" height="22.6" transform="matrix(7.0, 0.0, 0.0, 7.0, 0.0, -158.2)" width="19.4" xlink:href="#shape5"/>
    </g>
    <g id="shape5" transform="matrix(1.0, 0.0, 0.0, 1.0, 0.0, 22.6)">
      
      
      
      
      
      
      
      
      
      
      
      
    <path d="M17.7 -30.95 L17.55 -30.7 Q17.35 -30.35 17.3 -29.95 L17.3 -29.55 Q17.3 -29.5 17.2 -29.5 17.0 -29.5 16.95 -29.75 L16.95 -29.8 Q16.6 -30.3 16.45 -30.8 L16.4 -30.85 16.4 -29.15 16.15 -29.15 16.15 -29.2 16.05 -29.15 16.0 -29.25 15.6 -29.25 15.2 -29.5 15.05 -29.6 14.8 -29.75 14.6 -29.95 14.65 -29.85 14.6 -29.85 Q14.55 -29.8 14.55 -29.7 L14.6 -29.55 Q14.6 -29.4 14.75 -29.15 L14.85 -28.95 14.55 -28.95 14.3 -29.0 14.2 -29.0 13.7 -29.05 13.15 -29.05 Q12.8 -28.95 12.55 -28.8 L12.2 -28.5 12.1 -28.4 11.7 -27.7 11.7 -27.6 11.8 -27.65 11.85 -27.65 12.35 -27.75 12.7 -27.85 Q13.1 -27.85 13.3 -27.7 13.25 -27.55 13.3 -27.4 13.3 -27.8 13.3 -27.9 13.35 -28.25 13.6 -28.45 L13.7 -28.45 13.7 -28.3 13.6 -27.45 Q13.5 -26.65 13.55 -26.25 L13.5 -26.2 13.5 -26.05 Q13.7 -26.4 14.45 -27.15 15.0 -27.8 15.35 -28.05 L15.4 -28.15 15.55 -28.2 15.6 -28.2 15.7 -28.25 15.65 -28.2 15.7 -28.15 15.7 -28.1 15.5 -27.7 15.25 -27.25 15.2 -27.05 15.15 -27.05 15.1 -26.85 15.05 -26.75 15.1 -26.75 15.05 -26.7 Q15.0 -26.25 15.0 -25.75 L15.0 -25.65 15.2 -25.95 Q15.45 -26.2 16.0 -27.05 L16.3 -27.5 Q16.6 -27.75 16.95 -27.95 L17.0 -28.15 Q17.2 -28.75 17.5 -28.85 L17.55 -28.8 17.55 -28.7 17.4 -28.1 17.4 -28.05 17.35 -27.95 17.2 -27.6 17.2 -27.55 17.85 -28.15 18.15 -28.35 18.2 -28.35 18.2 -28.4 Q18.5 -28.55 18.85 -28.7 18.9 -28.8 18.9 -28.6 19.05 -28.45 19.05 -28.1 18.95 -27.6 18.95 -27.45 L19.05 -27.0 19.1 -26.55 19.1 -26.45 19.15 -26.5 19.2 -26.7 19.2 -26.95 19.3 -27.4 19.45 -27.95 19.55 -28.0 Q20.1 -27.15 20.5 -26.65 20.8 -26.3 21.15 -26.0 L21.25 -25.9 21.3 -25.8 21.5 -25.65 Q21.8 -25.4 22.1 -25.3 L22.4 -25.15 Q21.95 -25.25 21.5 -25.45 21.35 -25.5 21.2 -25.6 L21.15 -25.35 21.25 -25.35 Q21.25 -25.2 21.3 -25.0 21.45 -24.65 21.9 -24.25 22.55 -23.65 23.7 -23.1 23.85 -23.05 23.9 -23.0 23.8 -22.95 23.65 -22.95 L23.55 -22.95 Q23.8 -22.8 24.0 -22.45 L24.2 -22.0 Q24.5 -22.0 24.75 -21.9 L25.05 -21.75 24.95 -22.7 Q24.8 -23.4 24.6 -23.95 L24.6 -24.0 24.55 -24.15 24.7 -24.05 24.7 -24.1 Q24.7 -24.2 24.75 -24.2 L24.8 -24.25 Q24.9 -24.15 24.95 -24.0 L25.3 -23.85 25.25 -23.9 24.55 -25.15 24.5 -25.2 24.25 -25.5 24.5 -25.45 24.55 -25.4 24.9 -25.35 Q24.7 -25.6 24.45 -26.05 L24.15 -26.5 Q23.8 -26.9 23.35 -27.25 22.5 -27.75 21.0 -28.1 L20.95 -28.05 20.8 -28.05 20.7 -28.1 20.7 -28.15 20.65 -28.15 20.65 -28.25 Q20.65 -28.4 21.0 -28.95 L21.4 -29.45 20.6 -29.2 19.6 -29.0 19.4 -29.0 Q18.45 -29.0 18.15 -29.95 18.1 -30.25 18.1 -31.25 L18.1 -31.3 18.1 -31.35 18.05 -31.4 18.05 -31.35 18.0 -31.3 17.95 -31.2 17.7 -30.95 M14.15 -29.95 Q14.1 -30.25 14.1 -30.9 14.1 -31.35 15.0 -30.6 L15.9 -29.75 15.95 -30.25 16.0 -31.0 16.1 -31.5 16.35 -31.45 Q16.7 -31.3 17.0 -30.75 L17.1 -30.6 Q17.2 -30.9 17.45 -31.25 17.8 -31.75 18.15 -31.75 18.2 -31.85 18.3 -31.9 L18.3 -31.7 18.5 -31.6 Q18.45 -31.45 18.45 -31.15 L18.6 -30.5 18.65 -30.25 Q18.8 -30.0 19.0 -29.8 L19.1 -29.75 Q19.5 -29.55 19.55 -29.55 20.25 -29.55 20.75 -29.7 21.3 -29.9 21.4 -29.9 L21.6 -29.85 21.9 -29.95 22.0 -29.85 Q22.05 -29.75 22.05 -29.7 22.05 -29.65 21.55 -28.85 L21.3 -28.4 21.75 -28.35 Q22.9 -28.25 23.9 -27.3 24.65 -26.55 25.4 -25.1 L25.35 -25.0 Q25.4 -24.95 25.3 -24.95 L25.3 -24.9 25.15 -24.9 25.0 -24.95 Q25.8 -23.9 25.95 -23.1 L25.95 -22.95 Q25.95 -22.85 25.8 -22.85 25.7 -22.85 25.3 -23.35 L25.15 -23.55 25.3 -22.75 Q25.4 -22.05 25.4 -21.55 L25.45 -21.4 25.4 -21.3 25.4 -21.25 25.5 -21.2 25.35 -21.15 25.25 -21.15 25.25 -21.1 25.15 -21.1 Q25.1 -21.1 25.1 -21.2 L24.6 -21.45 24.4 -21.5 24.45 -21.3 24.55 -21.0 24.6 -20.65 Q24.8 -19.75 24.8 -19.5 L24.75 -19.0 24.65 -18.5 Q24.65 -18.4 24.55 -18.2 L25.1 -18.4 Q25.85 -18.7 26.0 -18.7 L26.0 -18.55 Q26.0 -18.0 25.25 -17.3 L24.5 -16.55 24.75 -15.95 Q25.05 -15.4 25.05 -15.0 25.05 -14.85 25.0 -14.6 24.9 -14.35 24.75 -14.25 L24.6 -14.25 24.6 -14.3 24.55 -14.3 24.25 -14.55 Q24.1 -13.95 23.8 -13.25 23.0 -11.75 21.55 -11.75 20.5 -11.75 19.9 -12.85 19.65 -13.25 19.55 -13.65 L19.15 -13.45 Q18.7 -13.2 18.3 -13.05 L18.25 -13.1 18.3 -12.65 18.4 -11.45 Q18.35 -10.35 18.2 -9.7 L18.15 -9.45 18.15 -9.3 Q17.85 -8.5 17.35 -7.4 L17.0 -6.9 Q16.4 -6.1 16.1 -5.7 L15.8 -5.4 15.75 -5.45 15.45 -5.25 Q15.5 -5.5 15.55 -5.95 L15.6 -6.15 15.65 -6.55 Q15.65 -8.3 15.2 -9.8 L14.75 -10.85 14.3 -11.65 Q14.15 -11.55 13.8 -11.4 13.0 -11.05 12.25 -11.05 11.45 -11.05 10.95 -11.85 10.85 -12.05 10.75 -12.25 10.4 -11.15 10.2 -10.1 10.1 -9.4 10.1 -8.75 10.1 -8.0 10.25 -7.05 L10.5 -5.35 10.45 -5.3 Q10.4 -5.2 10.25 -5.2 9.55 -5.2 8.65 -7.35 8.25 -8.1 7.9 -9.1 7.65 -9.95 7.5 -10.9 L7.4 -11.55 Q7.1 -13.05 7.1 -13.85 7.1 -14.9 8.05 -16.0 8.5 -16.6 8.9 -16.95 L8.2 -16.6 8.15 -16.6 8.1 -16.55 8.05 -16.55 8.05 -16.6 8.0 -16.6 7.9 -16.65 Q7.85 -16.7 7.85 -16.85 7.85 -16.9 8.45 -17.4 L9.0 -17.85 9.05 -17.9 Q9.4 -18.15 9.7 -18.4 9.15 -18.7 8.75 -19.35 8.35 -20.0 8.35 -20.5 8.35 -21.05 8.75 -21.75 9.05 -22.35 9.45 -22.65 L9.25 -22.65 Q9.1 -22.55 9.0 -22.5 L8.85 -22.25 Q8.8 -22.05 8.65 -22.05 8.45 -22.05 8.3 -22.65 8.2 -22.9 8.2 -23.2 8.2 -25.0 8.4 -25.6 8.8 -26.6 9.7 -26.2 L10.0 -26.1 9.95 -26.15 9.55 -26.6 Q10.05 -26.7 10.55 -26.55 10.85 -26.45 11.1 -26.2 L11.1 -26.15 11.35 -25.9 11.5 -26.25 11.75 -26.8 11.8 -26.9 11.1 -26.8 Q10.95 -26.8 10.9 -26.95 L10.9 -27.1 Q10.9 -28.5 12.9 -29.4 13.6 -29.7 14.2 -29.75 L14.15 -29.95 M18.7 -27.7 L18.7 -27.85 Q18.7 -28.05 18.85 -28.4 L18.85 -28.45 18.55 -28.3 18.3 -28.05 Q17.55 -27.45 17.0 -26.85 16.85 -26.85 16.85 -27.05 L16.85 -27.2 16.9 -27.45 Q16.65 -27.15 16.2 -26.6 L15.3 -25.65 15.0 -25.3 Q14.8 -25.5 14.75 -25.75 14.75 -25.9 14.75 -26.2 L14.8 -26.5 14.3 -26.5 14.1 -26.25 13.55 -25.5 13.4 -25.5 13.4 -25.55 Q13.35 -25.75 13.3 -26.05 13.25 -26.35 13.25 -26.5 L13.25 -26.6 13.05 -26.65 Q13.0 -26.75 12.8 -26.8 L12.7 -26.7 12.6 -26.5 Q12.85 -26.3 12.95 -25.5 12.9 -25.1 13.05 -24.4 L13.2 -23.7 13.25 -23.5 13.25 -23.85 Q13.3 -24.05 13.45 -24.4 13.65 -25.05 13.95 -25.25 L14.0 -25.15 Q13.65 -24.6 13.5 -23.95 L13.45 -23.45 13.4 -23.25 13.4 -23.15 13.5 -23.05 Q13.55 -23.0 13.7 -23.0 14.1 -23.4 14.45 -23.95 L14.55 -24.05 15.1 -24.9 Q15.95 -26.0 17.4 -26.45 L17.4 -26.4 17.45 -26.25 Q17.45 -26.15 17.2 -25.8 L17.25 -25.8 17.55 -25.9 18.35 -25.95 Q19.0 -25.95 19.4 -25.3 19.5 -25.2 19.6 -25.05 L19.65 -24.85 19.85 -24.2 Q20.0 -23.65 20.05 -23.0 L20.1 -22.55 20.1 -22.5 20.05 -22.5 20.0 -22.4 19.95 -22.35 20.55 -22.6 20.6 -22.6 20.5 -22.85 Q20.3 -23.3 20.3 -23.4 20.3 -23.8 20.6 -24.75 20.85 -25.65 20.95 -25.75 L20.5 -26.15 Q19.95 -26.7 19.7 -27.35 L19.6 -27.55 Q19.55 -27.4 19.5 -27.25 L19.45 -27.0 19.45 -26.95 19.35 -26.2 19.35 -26.15 19.25 -26.15 Q18.8 -26.15 18.7 -27.0 18.7 -27.35 18.7 -27.7 M21.0 -25.7 L21.05 -25.7 21.0 -25.75 21.0 -25.7 M21.25 -24.9 L21.15 -25.05 21.0 -24.5 20.95 -24.25 20.75 -23.55 20.75 -23.45 20.7 -23.35 20.85 -23.0 20.95 -22.9 21.0 -22.75 21.05 -22.8 21.3 -22.95 21.45 -23.15 21.6 -23.25 Q21.3 -23.75 21.3 -23.85 21.3 -24.0 21.35 -23.95 L21.4 -23.95 21.3 -24.1 Q21.65 -24.05 22.05 -23.5 L22.1 -23.5 Q22.2 -23.45 22.25 -23.25 L22.5 -22.85 Q22.8 -23.05 23.05 -23.05 22.4 -23.3 21.8 -24.05 21.45 -24.45 21.25 -24.85 L21.25 -24.9 M14.85 -22.0 L15.0 -22.0 15.6 -22.2 Q16.1 -22.4 16.8 -22.65 18.3 -23.1 18.9 -23.1 19.15 -23.1 19.35 -23.0 L19.45 -22.9 Q19.5 -22.9 19.6 -22.85 L19.85 -22.75 19.8 -23.15 Q19.75 -23.6 19.6 -24.1 L19.55 -24.2 Q19.25 -25.1 18.75 -25.45 18.4 -25.6 17.9 -25.6 L17.5 -25.55 Q17.25 -25.5 17.0 -25.35 L16.45 -25.0 16.45 -24.95 16.4 -24.95 Q16.3 -24.85 16.2 -24.8 L16.15 -24.85 Q16.1 -24.85 16.1 -24.95 L16.4 -25.4 16.75 -25.95 Q16.05 -25.45 15.25 -24.3 14.35 -23.05 14.0 -22.75 L13.9 -22.75 13.8 -22.7 13.9 -22.6 14.5 -22.05 14.65 -22.0 14.85 -22.0 M19.95 -26.35 L20.0 -26.35 20.0 -26.2 19.95 -26.35 M18.7 -22.7 Q18.85 -22.55 19.05 -22.15 L19.25 -22.1 19.45 -22.15 19.9 -22.35 19.85 -22.35 Q19.7 -22.35 19.55 -22.45 L19.35 -22.6 19.3 -22.6 Q19.15 -22.7 19.0 -22.7 L18.7 -22.7 M17.8 -21.05 L17.8 -20.4 Q17.8 -20.25 17.7 -19.7 L17.65 -19.5 Q18.15 -19.7 18.55 -20.2 L18.75 -20.45 Q18.75 -20.7 18.85 -20.9 18.95 -21.1 18.95 -21.25 L18.95 -21.3 18.9 -21.45 18.5 -22.4 Q18.35 -22.5 18.25 -22.5 L18.15 -22.65 18.1 -22.6 17.55 -22.4 17.55 -22.2 17.6 -22.15 17.65 -22.15 17.75 -21.9 18.3 -21.9 18.5 -21.8 Q18.4 -21.75 17.9 -21.7 L17.8 -21.7 17.85 -21.55 17.85 -21.5 17.9 -21.5 18.0 -21.5 Q18.35 -21.4 18.45 -21.3 L17.85 -21.35 17.85 -21.1 17.8 -21.1 17.8 -21.05 M15.55 -20.25 L16.25 -19.55 16.3 -19.55 16.35 -19.5 16.5 -19.45 16.95 -19.35 17.4 -19.4 Q17.45 -19.65 17.55 -19.9 17.7 -20.3 17.7 -20.85 L17.65 -21.35 17.45 -21.35 Q17.4 -21.4 17.4 -21.55 L17.65 -21.55 17.65 -21.7 17.15 -21.7 17.2 -21.75 Q17.3 -21.85 17.55 -21.85 L17.4 -22.2 17.35 -22.2 17.35 -22.25 17.3 -22.3 17.1 -22.25 17.05 -22.2 16.6 -22.05 Q15.65 -21.7 15.15 -21.7 L14.95 -21.7 14.75 -21.6 Q15.05 -21.0 15.2 -20.7 L15.3 -20.5 15.55 -20.25 M17.55 -22.4 L17.55 -22.4 M19.85 -22.55 L19.85 -22.55 M19.2 -21.75 Q19.35 -21.35 19.35 -21.15 L19.35 -21.1 20.0 -21.4 21.1 -21.95 21.05 -22.0 21.15 -22.05 21.2 -22.05 21.6 -22.35 21.95 -22.65 21.95 -22.7 21.8 -22.9 Q21.6 -22.65 21.0 -22.3 L20.75 -22.15 Q20.55 -22.05 20.35 -22.0 19.8 -21.75 19.3 -21.75 L19.2 -21.75 M21.55 -20.95 L21.45 -20.75 21.45 -20.6 21.4 -20.4 Q21.35 -20.15 21.3 -20.0 21.2 -19.4 20.65 -18.7 19.7 -17.6 19.4 -17.05 L19.3 -17.05 19.6 -17.55 19.5 -17.4 19.0 -16.7 18.95 -16.7 18.95 -16.8 Q18.95 -17.0 19.2 -17.45 L19.75 -18.1 19.95 -18.45 20.05 -18.5 20.75 -19.55 Q21.25 -20.5 21.25 -21.35 L21.25 -21.5 20.95 -21.45 20.8 -21.35 Q19.85 -20.8 19.2 -20.5 19.05 -20.2 18.75 -19.9 L18.75 -19.85 Q18.2 -19.25 17.5 -19.05 L17.1 -19.0 17.25 -18.9 17.25 -18.85 17.55 -18.85 18.05 -18.9 17.8 -18.75 Q17.55 -18.7 17.45 -18.7 17.2 -18.7 16.85 -18.85 16.7 -18.9 16.55 -19.0 15.85 -19.15 15.3 -19.75 L15.3 -19.7 Q15.5 -19.35 15.6 -19.1 L15.7 -18.75 15.7 -18.6 15.6 -18.5 15.6 -18.55 15.5 -18.5 Q16.45 -18.05 17.15 -17.3 17.5 -16.95 17.75 -16.6 18.1 -16.05 18.2 -15.5 18.15 -15.4 18.1 -15.4 18.1 -15.35 17.95 -15.35 17.9 -15.35 17.7 -15.55 L17.9 -14.95 Q18.05 -14.25 18.15 -13.65 L18.55 -13.9 18.7 -13.95 19.1 -14.1 19.5 -14.3 19.5 -14.55 19.45 -15.2 Q19.45 -15.95 19.7 -16.85 19.85 -17.3 20.0 -17.6 20.0 -17.85 20.8 -18.45 L20.9 -18.6 Q21.05 -18.75 21.2 -18.8 L21.35 -18.85 21.35 -18.8 21.7 -18.8 Q21.85 -18.75 21.95 -18.65 21.8 -18.9 21.5 -19.1 21.95 -19.1 22.15 -18.6 L22.2 -18.2 22.25 -18.05 22.3 -17.75 22.25 -17.7 22.25 -17.75 22.2 -17.1 22.05 -16.8 Q22.45 -16.8 22.75 -16.9 L23.05 -17.0 Q23.5 -17.45 23.7 -18.25 L23.95 -19.25 Q24.1 -19.95 24.1 -20.3 24.1 -20.6 23.9 -21.5 L23.8 -21.75 Q23.6 -22.2 23.4 -22.45 L23.3 -22.45 Q23.15 -22.65 22.75 -22.35 L22.6 -22.25 22.3 -22.0 21.65 -21.4 21.6 -21.35 21.55 -20.95 M22.9 -21.6 L23.2 -21.8 23.25 -21.8 23.25 -21.55 23.15 -21.55 23.1 -21.5 22.75 -21.4 Q22.35 -21.25 22.25 -20.8 L22.35 -20.45 Q22.4 -20.75 22.4 -20.9 23.35 -20.85 23.6 -20.4 23.7 -20.25 23.7 -19.7 L23.7 -19.6 Q23.7 -19.4 23.5 -18.9 23.3 -18.25 23.0 -18.05 22.9 -18.1 22.8 -18.1 23.05 -18.3 23.3 -18.95 L23.4 -19.25 23.45 -19.35 23.5 -19.65 Q23.5 -20.15 23.45 -20.3 23.3 -20.65 22.75 -20.75 22.55 -20.6 22.45 -20.2 L22.4 -20.05 Q22.45 -19.65 22.6 -19.35 L22.65 -19.7 22.75 -19.7 22.75 -19.65 22.8 -19.5 22.75 -19.25 22.7 -19.2 22.7 -19.15 22.85 -18.95 22.65 -19.05 22.6 -18.95 22.55 -19.1 Q22.25 -19.35 22.1 -20.0 L22.05 -20.35 22.0 -20.5 22.0 -20.55 22.05 -20.65 22.05 -20.8 22.05 -21.0 Q22.05 -21.1 22.05 -21.15 L22.1 -21.15 22.1 -21.1 22.35 -21.3 22.9 -21.6 M14.55 -26.75 L14.8 -26.75 Q14.85 -26.85 14.9 -27.05 L14.7 -26.85 14.55 -26.75 M14.95 -25.7 L14.95 -25.6 15.0 -25.65 14.95 -25.7 M13.2 -27.2 L13.1 -27.1 13.05 -27.0 12.95 -26.9 13.05 -26.9 13.25 -26.85 13.3 -27.15 13.3 -27.2 13.2 -27.2 M12.4 -27.05 L12.4 -27.05 M12.35 -26.25 L12.25 -26.25 12.25 -26.3 Q12.1 -26.15 12.1 -26.0 L12.0 -25.7 11.95 -25.7 11.95 -25.65 12.2 -24.95 12.2 -24.8 12.3 -24.25 12.35 -24.2 Q12.55 -23.5 12.75 -23.1 L12.8 -23.0 13.1 -22.6 Q13.4 -22.25 13.7 -21.95 L14.35 -21.4 14.4 -21.35 14.45 -21.35 14.45 -21.4 14.35 -21.6 14.35 -21.8 Q13.9 -22.05 13.5 -22.65 13.0 -23.35 12.8 -24.15 L12.85 -24.3 12.85 -24.4 12.7 -24.85 12.65 -25.2 12.65 -25.45 12.6 -25.55 12.5 -25.85 12.35 -26.25 M11.95 -24.4 L11.85 -24.7 11.75 -24.85 11.6 -25.15 11.55 -25.1 11.45 -25.3 11.35 -25.35 Q11.3 -25.35 11.25 -25.45 L11.25 -25.6 11.0 -25.9 Q10.65 -26.15 10.2 -26.35 10.45 -26.2 10.7 -25.85 L10.9 -25.55 11.0 -25.4 11.45 -24.95 Q11.4 -24.85 11.35 -24.8 L11.2 -24.9 11.15 -24.9 10.8 -25.1 10.3 -25.3 Q9.75 -25.55 9.4 -25.65 8.75 -25.5 8.65 -24.45 8.6 -24.25 8.65 -23.85 L8.65 -23.55 8.75 -23.0 Q9.0 -23.7 10.25 -23.05 11.05 -22.6 11.65 -22.1 L11.65 -22.6 Q11.65 -23.0 11.7 -23.15 11.8 -23.3 12.15 -23.5 L12.1 -23.6 12.1 -23.7 12.0 -24.2 11.95 -24.4 M12.3 -23.6 L12.3 -23.6 M12.3 -23.7 L12.3 -23.65 12.35 -23.6 12.3 -23.7 M13.25 -22.0 L13.15 -22.1 Q12.9 -22.45 12.7 -22.8 12.5 -23.05 12.4 -23.3 L12.35 -23.25 12.35 -23.3 Q11.95 -22.9 11.85 -22.6 L11.85 -21.9 11.9 -21.85 11.85 -21.8 11.85 -21.65 11.9 -20.55 11.95 -20.5 11.95 -19.8 Q11.95 -19.25 11.85 -18.8 L11.75 -20.0 11.6 -19.8 11.25 -19.35 11.3 -19.3 11.55 -18.75 Q11.9 -18.2 12.05 -17.75 L12.3 -18.0 Q12.65 -18.3 13.15 -18.55 13.6 -18.75 14.0 -18.8 L14.55 -18.85 14.65 -18.85 15.1 -18.8 15.45 -18.75 15.2 -19.5 15.15 -19.55 Q14.95 -19.85 14.65 -20.15 L14.35 -20.0 13.95 -19.75 13.85 -19.65 13.6 -19.55 13.55 -19.5 13.2 -19.25 13.15 -19.3 Q13.35 -19.6 13.6 -19.9 L13.95 -20.15 14.0 -20.2 14.4 -20.4 Q14.1 -20.7 13.9 -21.15 L13.8 -21.45 13.7 -21.55 13.65 -21.55 Q13.45 -21.75 13.25 -22.0 M14.15 -21.15 L14.15 -21.1 14.45 -20.55 14.5 -20.45 14.85 -20.45 14.75 -20.65 14.15 -21.15 14.15 -21.15 M16.0 -17.9 L15.25 -18.45 15.15 -18.45 15.05 -18.5 14.7 -18.5 14.25 -18.55 Q13.5 -18.55 12.7 -17.95 L12.2 -17.55 12.05 -17.4 11.95 -17.35 11.9 -17.5 Q11.7 -17.85 11.35 -18.65 L11.2 -19.0 11.05 -18.9 10.25 -18.3 9.9 -18.0 9.05 -17.4 9.3 -17.5 9.4 -17.45 Q9.65 -17.7 9.9 -17.8 10.15 -17.9 10.4 -18.0 L10.4 -17.95 10.55 -17.95 10.7 -17.85 Q10.5 -17.8 10.3 -17.75 L8.8 -16.2 8.65 -15.95 8.5 -15.65 Q7.8 -14.2 7.8 -13.0 7.8 -11.7 8.0 -10.55 8.4 -9.35 9.05 -8.05 L9.25 -7.65 9.85 -6.6 9.7 -7.2 Q9.6 -7.85 9.6 -8.35 9.6 -9.35 9.75 -10.4 9.9 -11.5 10.25 -12.6 10.75 -14.05 11.5 -15.05 L11.55 -15.1 11.5 -15.15 11.6 -15.3 11.8 -15.65 11.8 -15.7 11.85 -16.0 11.8 -16.25 11.85 -16.35 Q11.8 -16.65 11.8 -16.95 11.8 -17.1 11.8 -17.05 L12.0 -16.9 12.05 -16.9 12.05 -16.85 Q12.25 -16.6 12.35 -16.1 L12.4 -16.0 Q12.7 -15.05 12.8 -14.8 13.05 -14.3 13.45 -13.65 L14.95 -11.5 15.15 -11.1 15.45 -10.55 Q15.8 -9.95 15.95 -9.5 16.2 -8.75 16.2 -7.15 L16.15 -6.95 16.5 -7.65 Q17.35 -9.35 17.35 -9.85 L17.55 -10.5 Q17.7 -11.2 17.7 -11.8 17.7 -13.3 17.25 -14.85 L16.95 -15.9 16.85 -16.1 16.45 -16.95 Q17.05 -16.9 17.45 -16.15 L17.7 -15.95 Q17.8 -15.85 17.85 -15.85 L17.75 -16.0 Q17.4 -16.6 16.9 -17.1 L16.75 -17.25 16.0 -17.9 M17.1 -18.1 L17.75 -17.05 17.7 -17.05 16.9 -17.85 Q16.45 -18.35 16.05 -18.8 16.65 -18.65 17.1 -18.1 M11.4 -20.5 L11.8 -20.95 11.8 -21.0 Q11.8 -21.35 11.65 -21.7 11.5 -21.95 10.9 -22.35 L10.3 -22.8 Q10.05 -22.9 9.9 -22.9 L9.95 -22.85 10.15 -22.75 Q10.05 -22.7 10.0 -22.6 L10.0 -22.2 Q10.1 -22.75 10.5 -22.5 11.0 -22.1 11.0 -21.45 L10.95 -21.2 10.9 -21.15 Q10.85 -21.1 10.65 -21.1 10.4 -21.1 10.2 -21.4 10.45 -20.9 11.35 -20.5 L11.4 -20.5 M13.45 -12.95 Q12.7 -13.8 12.55 -14.1 12.35 -14.4 12.25 -14.75 L12.0 -15.15 11.7 -14.55 Q11.3 -13.65 11.1 -13.1 L11.1 -13.0 11.2 -12.9 11.3 -12.5 11.45 -12.3 11.8 -11.65 11.95 -11.6 12.05 -11.55 12.1 -11.55 Q12.75 -11.6 13.8 -12.0 L13.8 -11.95 13.85 -12.0 13.95 -12.05 14.0 -12.1 13.75 -12.45 13.5 -12.9 13.45 -12.95 M21.2 -18.45 L20.4 -17.65 20.4 -17.6 20.35 -17.55 20.35 -17.45 20.15 -17.0 20.1 -16.85 Q20.0 -16.45 19.9 -16.0 L19.9 -15.95 19.85 -15.45 Q19.85 -14.55 20.05 -13.95 20.2 -13.45 20.55 -12.95 20.9 -12.55 21.4 -12.4 L21.8 -12.4 Q22.8 -12.4 23.3 -13.7 L23.35 -13.95 Q23.55 -14.6 23.6 -15.15 L23.55 -15.8 23.45 -16.3 23.35 -16.7 23.15 -16.55 23.25 -16.4 Q23.35 -16.2 23.35 -16.0 22.95 -13.85 22.2 -13.7 L22.1 -13.7 Q21.85 -13.7 21.7 -13.9 21.5 -14.0 21.4 -14.2 L21.25 -14.7 21.25 -15.15 21.25 -15.2 21.2 -15.2 21.2 -15.3 Q21.2 -15.85 21.45 -16.35 L21.45 -16.4 21.5 -16.5 21.7 -16.75 21.7 -16.8 Q22.0 -17.35 22.0 -17.45 L22.0 -17.95 21.95 -18.05 Q21.95 -18.25 21.85 -18.4 21.7 -18.5 21.5 -18.5 L21.2 -18.45 M22.1 -17.1 L22.1 -17.15 22.05 -17.1 22.1 -17.1 M22.75 -16.3 Q22.35 -16.1 21.8 -16.1 L21.75 -15.9 Q21.65 -15.45 21.65 -15.05 L21.7 -14.95 Q21.8 -14.85 21.9 -14.8 L22.0 -15.1 22.05 -15.4 22.05 -15.5 Q22.35 -15.6 22.5 -15.35 L22.6 -15.2 22.75 -15.0 Q22.8 -15.5 22.8 -15.95 L22.75 -16.3 M22.2 -14.7 L22.15 -14.5 Q22.15 -14.35 22.15 -14.25 22.1 -14.2 21.95 -14.2 L21.9 -14.4 21.85 -14.4 21.75 -14.45 Q21.9 -14.1 22.05 -14.05 22.2 -14.1 22.35 -14.2 22.5 -14.35 22.65 -14.7 L22.6 -14.7 Q22.55 -14.7 22.4 -14.9 L22.3 -15.05 22.2 -14.85 22.2 -14.7 M11.5 -20.15 L11.65 -20.35 Q11.55 -20.3 11.35 -20.25 L11.3 -20.3 11.15 -20.3 Q10.2 -20.3 9.85 -21.35 L9.75 -21.7 9.65 -21.5 9.55 -21.3 Q9.3 -20.95 9.2 -20.65 9.1 -20.3 9.1 -20.05 9.1 -19.9 9.15 -19.75 9.25 -19.55 9.55 -19.2 L10.05 -18.6 Q10.65 -19.0 11.1 -19.2 L11.05 -19.35 Q11.05 -19.4 11.1 -19.5 11.1 -19.6 11.25 -19.8 L10.9 -19.8 Q10.5 -19.8 10.25 -19.95 10.1 -20.1 10.1 -20.2 L10.1 -20.3 10.15 -20.3 Q10.25 -20.15 10.45 -20.05 10.75 -19.9 11.3 -19.9 L11.45 -20.1 11.5 -20.15 M11.55 -20.25 L11.55 -20.25 M23.25 -22.65 L23.35 -22.65 23.4 -22.6 23.45 -22.6 Q23.35 -22.65 23.3 -22.65 L23.25 -22.65 M24.75 -17.45 L24.2 -17.5 24.05 -17.5 23.8 -17.2 23.75 -17.15 23.55 -16.9 Q23.85 -16.85 23.9 -16.4 L23.95 -15.55 23.9 -15.55 23.9 -15.45 24.15 -15.1 24.4 -14.9 24.45 -14.9 Q24.5 -14.85 24.55 -14.85 L24.55 -15.1 Q24.5 -15.35 24.25 -15.85 L24.0 -16.5 Q24.0 -16.65 24.15 -16.8 24.25 -17.0 24.55 -17.25 L24.7 -17.35 24.75 -17.45 M23.7 -16.0 L23.65 -16.2 23.7 -15.95 23.7 -16.0" fill="#000000" fill-rule="evenodd" stroke="none"/><path d="M10.3 -22.8 L10.9 -22.35 Q11.5 -21.95 11.65 -21.7 11.8 -21.35 11.8 -21.0 L11.8 -20.95 11.4 -20.5 11.35 -20.5 Q10.45 -20.9 10.2 -21.4 10.4 -21.1 10.65 -21.1 10.85 -21.1 10.9 -21.15 L10.95 -21.2 11.0 -21.45 Q11.0 -22.1 10.5 -22.5 10.1 -22.75 10.0 -22.2 L10.0 -22.6 Q10.05 -22.7 10.15 -22.75 L10.25 -22.8 10.3 -22.8" fill="#ffffff" fill-rule="evenodd" stroke="none"/><path d="M13.2 -23.7 L13.05 -24.4 Q12.9 -25.1 12.95 -25.5 12.85 -26.3 12.6 -26.5 L12.7 -26.7 12.8 -26.8 Q13.0 -26.75 13.05 -26.65 L13.25 -26.6 13.25 -26.5 Q13.25 -26.35 13.3 -26.05 13.35 -25.75 13.4 -25.55 L13.4 -25.5 13.55 -25.5 14.1 -26.25 14.3 -26.5 14.8 -26.5 14.75 -26.2 Q14.75 -25.9 14.75 -25.75 14.8 -25.5 15.0 -25.3 L15.3 -25.65 16.2 -26.6 Q16.65 -27.15 16.9 -27.45 L16.85 -27.2 16.85 -27.05 Q16.85 -26.85 17.0 -26.85 17.55 -27.45 18.3 -28.05 L18.55 -28.3 18.85 -28.45 18.85 -28.4 Q18.7 -28.05 18.7 -27.85 L18.7 -27.7 Q18.55 -27.65 18.35 -27.45 18.0 -27.15 17.75 -26.7 17.45 -26.25 17.45 -25.95 L17.45 -25.9 17.55 -25.9 17.25 -25.8 17.2 -25.8 Q17.45 -26.15 17.45 -26.25 L17.4 -26.4 17.4 -26.45 Q15.95 -26.0 15.1 -24.9 L14.55 -24.05 14.5 -24.1 Q13.9 -24.1 13.5 -23.95 13.65 -24.6 14.0 -25.15 L13.95 -25.25 Q13.65 -25.05 13.45 -24.4 13.3 -24.05 13.25 -23.85 L13.2 -23.8 13.2 -23.7 M19.5 -27.25 Q19.55 -27.4 19.6 -27.55 L19.7 -27.35 19.5 -27.25 M18.75 -19.9 L18.8 -19.8 Q18.95 -19.4 18.95 -19.2 18.95 -18.45 18.3 -17.55 17.9 -17.05 17.75 -16.6 17.5 -16.95 17.15 -17.3 16.45 -18.05 15.5 -18.5 L15.6 -18.55 15.6 -18.5 15.7 -18.6 15.7 -18.75 15.6 -19.1 Q15.5 -19.35 15.3 -19.7 L15.3 -19.75 Q15.85 -19.15 16.55 -19.0 16.7 -18.9 16.85 -18.85 17.2 -18.7 17.45 -18.7 17.55 -18.7 17.8 -18.75 L18.05 -18.9 17.55 -18.85 17.25 -18.85 17.25 -18.9 17.1 -19.0 17.5 -19.05 Q18.2 -19.25 18.75 -19.85 L18.75 -19.9 M21.2 -18.8 Q21.6 -19.7 21.6 -20.0 21.6 -20.55 21.55 -20.95 L21.6 -21.35 21.65 -21.4 22.3 -22.0 22.6 -22.25 22.8 -21.55 22.9 -21.6 22.35 -21.3 22.1 -21.1 22.1 -21.15 22.05 -21.15 Q22.05 -21.1 22.05 -21.0 L22.05 -20.8 22.0 -20.7 22.05 -20.65 22.0 -20.55 22.0 -20.5 22.05 -20.35 22.1 -20.0 Q22.25 -19.35 22.55 -19.1 L22.6 -18.95 22.65 -19.05 22.85 -18.95 22.7 -19.15 22.7 -19.2 22.75 -19.25 Q22.85 -19.2 23.0 -19.2 23.25 -19.2 23.4 -19.3 L23.4 -19.25 23.3 -18.95 Q23.05 -18.3 22.8 -18.1 22.9 -18.1 23.0 -18.05 L22.95 -18.05 Q22.6 -17.5 22.6 -17.25 22.6 -17.1 22.7 -16.95 L22.75 -16.9 Q22.45 -16.8 22.05 -16.8 L22.2 -17.1 22.25 -17.75 22.25 -17.7 22.3 -17.75 22.25 -18.05 22.2 -18.2 22.15 -18.6 Q21.95 -19.1 21.5 -19.1 21.8 -18.9 21.95 -18.65 21.85 -18.75 21.7 -18.8 L21.35 -18.8 21.35 -18.85 21.2 -18.8 M14.55 -26.75 L14.7 -26.85 14.9 -27.05 Q14.85 -26.85 14.8 -26.75 L14.55 -26.75 M13.2 -27.2 L13.3 -27.2 13.3 -27.15 13.25 -26.85 13.05 -26.9 12.95 -26.9 13.05 -27.0 13.1 -27.1 13.2 -27.2 M14.65 -18.85 L14.55 -18.85 14.0 -18.8 Q13.6 -18.75 13.15 -18.55 12.65 -18.3 12.3 -18.0 L12.05 -17.75 Q11.9 -18.2 11.55 -18.75 L11.3 -19.3 11.25 -19.35 11.6 -19.8 11.75 -20.0 11.85 -18.8 Q11.95 -19.25 11.95 -19.8 L11.95 -20.5 11.9 -20.55 11.85 -21.65 11.85 -21.8 11.9 -21.85 11.85 -21.9 11.85 -22.6 Q11.95 -22.9 12.35 -23.3 L12.35 -23.25 12.4 -23.3 Q12.5 -23.05 12.7 -22.8 12.9 -22.45 13.15 -22.1 L13.25 -22.0 Q13.1 -21.9 13.1 -21.55 13.15 -21.15 13.25 -20.65 13.4 -20.1 13.6 -19.85 L13.6 -19.9 Q13.35 -19.6 13.15 -19.3 L13.2 -19.25 13.55 -19.5 13.6 -19.55 13.85 -19.65 13.95 -19.65 Q14.1 -19.65 14.2 -19.75 L14.45 -19.2 14.65 -18.85 M14.15 -21.15 L14.15 -21.15 M17.1 -18.1 Q16.65 -18.65 16.05 -18.8 16.45 -18.35 16.9 -17.85 L17.7 -17.05 17.75 -17.05 17.1 -18.1 M12.1 -11.55 L12.05 -11.55 11.95 -11.6 11.8 -11.65 11.45 -12.3 11.3 -12.5 11.2 -12.9 11.1 -13.0 11.1 -13.1 Q11.3 -13.65 11.7 -14.55 L12.0 -15.15 12.25 -14.75 Q12.35 -14.4 12.55 -14.1 12.7 -13.8 13.45 -12.95 L13.15 -12.75 12.45 -12.05 12.1 -11.65 12.1 -11.55 M14.0 -12.1 L13.95 -12.05 14.0 -12.1 M9.65 -21.5 L9.7 -21.45 9.65 -21.25 Q9.65 -20.95 9.9 -20.65 10.3 -20.15 11.3 -20.15 L11.5 -20.15 11.45 -20.1 11.3 -19.9 Q10.75 -19.9 10.45 -20.05 10.25 -20.15 10.15 -20.3 L10.1 -20.3 10.1 -20.2 Q10.1 -20.1 10.25 -19.95 10.5 -19.8 10.9 -19.8 L11.25 -19.8 Q11.1 -19.6 11.1 -19.5 11.05 -19.4 11.05 -19.35 L11.1 -19.2 Q10.65 -19.0 10.05 -18.6 L9.55 -19.2 Q9.25 -19.55 9.15 -19.75 9.1 -19.9 9.1 -20.05 9.1 -20.3 9.2 -20.65 9.3 -20.95 9.55 -21.3 L9.65 -21.5" fill="#d6b37e" fill-rule="evenodd" stroke="none"/><path d="M13.2 -23.7 L13.2 -23.8 13.25 -23.85 13.25 -23.5 13.2 -23.7 M13.5 -23.95 Q13.9 -24.1 14.5 -24.1 L14.55 -24.05 14.45 -23.95 Q14.1 -23.4 13.7 -23.0 13.55 -23.0 13.5 -23.05 L13.4 -23.15 13.4 -23.25 13.45 -23.45 13.5 -23.95 M17.55 -25.9 L17.45 -25.9 17.45 -25.95 Q17.45 -26.25 17.75 -26.7 18.0 -27.15 18.35 -27.45 18.55 -27.65 18.7 -27.7 18.7 -27.35 18.7 -27.0 18.8 -26.15 19.25 -26.15 L19.35 -26.15 19.35 -26.2 19.45 -26.95 19.45 -27.0 19.5 -27.25 19.7 -27.35 Q19.95 -26.7 20.5 -26.15 L20.95 -25.75 Q20.85 -25.65 20.6 -24.75 20.3 -23.8 20.3 -23.4 20.3 -23.3 20.5 -22.85 L20.6 -22.6 20.55 -22.6 19.95 -22.35 20.0 -22.4 20.05 -22.5 20.1 -22.5 20.1 -22.55 20.05 -23.0 Q20.0 -23.65 19.85 -24.2 L19.65 -24.85 19.6 -25.05 Q19.5 -25.2 19.4 -25.3 19.0 -25.95 18.35 -25.95 L17.55 -25.9 M21.0 -25.7 L21.0 -25.75 21.05 -25.7 21.0 -25.7 M18.7 -22.7 L19.0 -22.7 Q19.15 -22.7 19.3 -22.6 L19.35 -22.6 19.55 -22.45 Q19.7 -22.35 19.85 -22.35 L19.9 -22.35 19.45 -22.15 19.25 -22.1 19.05 -22.15 Q18.85 -22.55 18.7 -22.7 M19.95 -26.35 L20.0 -26.2 20.0 -26.35 19.95 -26.35 M19.85 -22.55 L19.85 -22.55 M18.75 -19.9 Q19.05 -20.2 19.2 -20.5 19.85 -20.8 20.8 -21.35 L20.95 -21.45 21.25 -21.5 21.25 -21.35 Q21.25 -20.5 20.75 -19.55 L20.05 -18.5 19.95 -18.45 19.75 -18.1 19.2 -17.45 Q18.95 -17.0 18.95 -16.8 L18.95 -16.7 19.0 -16.7 19.5 -17.4 19.6 -17.55 19.3 -17.05 19.4 -17.05 Q19.7 -17.6 20.65 -18.7 21.2 -19.4 21.3 -20.0 21.35 -20.15 21.4 -20.4 L21.45 -20.6 21.45 -20.75 21.55 -20.95 Q21.6 -20.55 21.6 -20.0 21.6 -19.7 21.2 -18.8 21.05 -18.75 20.9 -18.6 L20.8 -18.45 Q20.0 -17.85 20.0 -17.6 19.85 -17.3 19.7 -16.85 19.45 -15.95 19.45 -15.2 L19.5 -14.55 19.5 -14.3 19.1 -14.1 18.7 -13.95 18.55 -13.9 18.15 -13.65 Q18.05 -14.25 17.9 -14.95 L17.7 -15.55 Q17.9 -15.35 17.95 -15.35 18.1 -15.35 18.1 -15.4 18.15 -15.4 18.2 -15.5 18.1 -16.05 17.75 -16.6 17.9 -17.05 18.3 -17.55 18.95 -18.45 18.95 -19.2 18.95 -19.4 18.8 -19.8 L18.75 -19.9 M22.6 -22.25 L22.75 -22.35 Q23.15 -22.65 23.3 -22.45 L23.4 -22.45 Q23.6 -22.2 23.8 -21.75 L23.9 -21.5 Q24.1 -20.6 24.1 -20.3 24.1 -19.95 23.95 -19.25 L23.7 -18.25 Q23.5 -17.45 23.05 -17.0 L22.75 -16.9 22.7 -16.95 Q22.6 -17.1 22.6 -17.25 22.6 -17.5 22.95 -18.05 L23.0 -18.05 Q23.3 -18.25 23.5 -18.9 23.7 -19.4 23.7 -19.6 L23.7 -19.7 Q23.7 -20.25 23.6 -20.4 23.35 -20.85 22.4 -20.9 22.4 -20.75 22.35 -20.45 L22.25 -20.8 Q22.35 -21.25 22.75 -21.4 L23.1 -21.5 23.15 -21.55 23.25 -21.55 23.25 -21.8 23.2 -21.8 22.9 -21.6 22.8 -21.55 22.6 -22.25 M22.05 -20.8 L22.05 -20.65 22.0 -20.7 22.05 -20.8 M22.75 -19.25 L22.8 -19.5 22.75 -19.65 22.75 -19.7 22.65 -19.7 22.6 -19.35 Q22.45 -19.65 22.4 -20.05 L22.45 -20.2 Q22.55 -20.6 22.75 -20.75 23.3 -20.65 23.45 -20.3 23.5 -20.15 23.5 -19.65 L23.45 -19.35 23.4 -19.25 23.4 -19.3 Q23.25 -19.2 23.0 -19.2 22.85 -19.2 22.75 -19.25 M13.25 -22.0 Q13.45 -21.75 13.65 -21.55 L13.7 -21.55 13.8 -21.45 13.9 -21.15 Q14.1 -20.7 14.4 -20.4 L14.0 -20.2 13.95 -20.15 13.6 -19.9 13.6 -19.85 Q13.4 -20.1 13.25 -20.65 13.15 -21.15 13.1 -21.55 13.1 -21.9 13.25 -22.0 M13.85 -19.65 L13.95 -19.75 14.35 -20.0 14.65 -20.15 Q14.95 -19.85 15.15 -19.55 L15.2 -19.5 15.45 -18.75 15.1 -18.8 14.65 -18.85 14.45 -19.2 14.2 -19.75 Q14.1 -19.65 13.95 -19.65 L13.85 -19.65 M14.15 -21.15 L14.75 -20.65 14.85 -20.45 14.5 -20.45 14.45 -20.55 14.15 -21.1 14.15 -21.15 M11.35 -20.5 L11.4 -20.5 11.35 -20.5 M12.1 -11.55 L12.1 -11.65 12.45 -12.05 13.15 -12.75 13.45 -12.95 13.5 -12.9 13.75 -12.45 14.0 -12.1 13.95 -12.05 13.85 -12.0 13.8 -11.95 13.8 -12.0 Q12.75 -11.6 12.1 -11.55 M9.65 -21.5 L9.75 -21.7 9.85 -21.35 Q10.2 -20.3 11.15 -20.3 L11.3 -20.3 11.35 -20.25 Q11.55 -20.3 11.65 -20.35 L11.5 -20.15 11.3 -20.15 Q10.3 -20.15 9.9 -20.65 9.65 -20.95 9.65 -21.25 L9.7 -21.45 9.65 -21.5 M11.55 -20.25 L11.55 -20.25" fill="#c67137" fill-rule="evenodd" stroke="none"/><path d="M21.5 -25.65 L21.3 -25.8 21.25 -25.9 21.15 -26.0 Q20.8 -26.3 20.5 -26.65 20.1 -27.15 19.55 -28.0 L19.45 -27.95 19.3 -27.4 19.2 -26.95 19.2 -26.7 19.15 -26.5 19.1 -26.45 19.1 -26.55 19.05 -27.0 18.95 -27.45 Q18.95 -27.6 19.05 -28.1 19.05 -28.45 18.9 -28.6 18.9 -28.8 18.85 -28.7 18.5 -28.55 18.2 -28.4 L18.2 -28.35 18.15 -28.35 17.85 -28.15 17.2 -27.55 17.2 -27.6 17.35 -27.95 17.4 -28.05 17.4 -28.1 17.55 -28.7 17.55 -28.8 17.5 -28.85 Q17.2 -28.75 17.0 -28.15 L16.95 -27.95 Q16.6 -27.75 16.3 -27.5 L16.0 -27.05 Q15.45 -26.2 15.2 -25.95 L15.0 -25.65 15.0 -25.75 Q15.0 -26.25 15.05 -26.7 L15.1 -26.75 15.05 -26.75 15.1 -26.85 15.15 -27.05 15.2 -27.05 15.25 -27.25 15.5 -27.7 15.7 -28.1 15.7 -28.15 15.65 -28.2 15.7 -28.25 15.6 -28.2 15.55 -28.2 15.4 -28.15 15.35 -28.05 Q15.0 -27.8 14.45 -27.15 13.7 -26.4 13.5 -26.05 L13.5 -26.2 13.55 -26.25 Q13.5 -26.65 13.6 -27.45 L13.7 -28.3 13.7 -28.45 13.6 -28.45 Q13.35 -28.25 13.3 -27.9 13.3 -27.8 13.3 -27.4 13.25 -27.55 13.3 -27.7 13.1 -27.85 12.7 -27.85 L12.35 -27.75 11.85 -27.65 11.8 -27.65 11.7 -27.6 11.7 -27.7 12.1 -28.4 12.2 -28.5 12.55 -28.8 Q12.8 -28.95 13.15 -29.05 L13.7 -29.05 14.2 -29.0 14.3 -29.0 14.55 -28.95 14.85 -28.95 14.75 -29.15 Q14.6 -29.4 14.6 -29.55 L14.55 -29.7 Q14.55 -29.8 14.6 -29.85 L14.65 -29.85 14.6 -29.95 14.8 -29.75 15.05 -29.6 15.2 -29.5 15.6 -29.25 16.0 -29.25 16.05 -29.15 16.15 -29.2 16.15 -29.15 16.4 -29.15 16.4 -30.85 16.45 -30.8 Q16.6 -30.3 16.95 -29.8 L16.95 -29.75 Q17.0 -29.5 17.2 -29.5 17.3 -29.5 17.3 -29.55 L17.3 -29.95 Q17.35 -30.35 17.55 -30.7 L17.7 -30.95 17.65 -30.85 17.65 -30.55 Q17.75 -30.2 18.0 -29.75 18.5 -28.85 19.3 -28.85 19.4 -28.85 19.6 -29.0 L20.6 -29.2 21.4 -29.45 21.0 -28.95 Q20.65 -28.4 20.65 -28.25 L20.65 -28.15 20.7 -28.15 20.7 -28.1 20.8 -28.05 20.8 -27.9 Q20.8 -27.75 21.15 -26.95 21.45 -26.25 21.5 -25.65 M18.05 -31.35 L18.05 -31.4 18.1 -31.35 18.1 -31.3 18.05 -31.35 M21.5 -25.45 L21.3 -25.0 Q21.25 -25.2 21.25 -25.35 L21.15 -25.35 21.2 -25.6 Q21.35 -25.5 21.5 -25.45 M20.95 -24.25 L21.0 -24.5 21.15 -25.05 21.25 -24.9 21.05 -24.55 20.95 -24.35 20.95 -24.25 M17.5 -25.55 Q17.6 -25.3 17.9 -24.85 18.35 -24.25 18.3 -23.95 17.5 -23.8 16.25 -23.25 14.75 -22.55 14.75 -22.15 L14.8 -22.0 14.85 -22.0 14.65 -22.0 14.5 -22.05 13.9 -22.6 13.8 -22.7 13.9 -22.75 14.0 -22.75 Q14.35 -23.05 15.25 -24.3 16.05 -25.45 16.75 -25.95 L16.4 -25.4 16.1 -24.95 Q16.1 -24.85 16.15 -24.85 L16.2 -24.8 Q16.3 -24.85 16.4 -24.95 L16.45 -24.95 16.45 -25.0 17.0 -25.35 Q17.25 -25.5 17.5 -25.55 M19.6 -22.85 L19.7 -22.95 19.8 -23.15 19.85 -22.75 19.6 -22.85 M14.95 -25.7 L15.0 -25.65 14.95 -25.6 14.95 -25.7 M11.35 -25.35 L11.45 -25.3 11.55 -25.1 11.6 -25.15 11.75 -24.85 11.85 -24.7 11.95 -24.4 11.6 -24.95 11.35 -25.35 M8.65 -23.85 Q8.6 -24.25 8.65 -24.45 8.75 -25.5 9.4 -25.65 9.75 -25.55 10.3 -25.3 L10.8 -25.1 10.75 -24.9 Q10.75 -24.7 10.95 -24.2 11.15 -23.7 11.15 -23.55 L11.15 -23.35 11.1 -23.4 10.5 -23.7 Q10.1 -23.9 9.25 -23.9 L8.65 -23.85 M10.9 -25.55 L10.7 -25.85 Q10.45 -26.2 10.2 -26.35 10.65 -26.15 11.0 -25.9 L11.25 -25.6 11.25 -25.45 Q11.15 -25.55 11.05 -25.55 L10.9 -25.55 M11.9 -17.5 Q11.4 -17.25 10.8 -16.2 10.1 -15.1 9.65 -13.75 9.1 -12.2 9.1 -10.95 9.05 -9.65 9.15 -8.35 9.2 -8.0 9.25 -7.65 L9.05 -8.05 Q8.4 -9.35 8.0 -10.55 7.8 -11.7 7.8 -13.0 7.8 -14.2 8.5 -15.65 L8.65 -15.95 8.8 -16.2 10.3 -17.75 Q10.5 -17.8 10.7 -17.85 L10.55 -17.95 10.4 -17.95 10.4 -18.0 Q10.15 -17.9 9.9 -17.8 9.65 -17.7 9.4 -17.45 L9.3 -17.5 9.05 -17.4 9.9 -18.0 10.25 -18.3 11.05 -18.9 11.2 -19.0 11.35 -18.65 Q11.7 -17.85 11.9 -17.5 M12.4 -16.0 Q12.45 -16.4 12.45 -16.85 L12.45 -17.05 12.8 -17.0 Q14.95 -17.0 15.4 -14.45 15.6 -13.6 15.55 -12.5 L15.5 -11.3 15.45 -10.55 15.15 -11.1 14.95 -11.5 13.45 -13.65 Q13.05 -14.3 12.8 -14.8 12.7 -15.05 12.4 -16.0 M17.7 -15.95 L17.75 -16.0 17.85 -15.85 Q17.8 -15.85 17.7 -15.95 M16.9 -17.1 L16.65 -17.3 16.0 -17.9 16.75 -17.25 16.9 -17.1 M24.75 -17.45 L24.7 -17.35 24.55 -17.25 Q24.25 -17.0 24.15 -16.8 24.0 -16.65 24.0 -16.5 L24.25 -15.85 Q24.5 -15.35 24.55 -15.1 L24.55 -14.85 Q24.5 -14.85 24.45 -14.9 L24.4 -14.9 24.15 -15.1 23.9 -15.45 23.9 -15.55 23.95 -15.55 23.9 -16.4 Q23.85 -16.85 23.55 -16.9 L23.75 -17.15 23.8 -17.2 24.05 -17.5 24.2 -17.5 24.75 -17.45" fill="#777e86" fill-rule="evenodd" stroke="none"/><path d="M21.5 -25.65 Q21.45 -26.25 21.15 -26.95 20.8 -27.75 20.8 -27.9 L20.8 -28.05 20.95 -28.05 21.0 -28.1 Q22.5 -27.75 23.35 -27.25 23.8 -26.9 24.15 -26.5 L24.45 -26.05 Q24.7 -25.6 24.9 -25.35 L24.55 -25.4 24.5 -25.45 24.25 -25.5 24.5 -25.2 24.55 -25.15 25.25 -23.9 25.3 -23.85 24.95 -24.0 Q24.9 -24.15 24.8 -24.25 L24.75 -24.2 Q24.7 -24.2 24.7 -24.1 L24.7 -24.05 24.55 -24.15 24.6 -24.0 24.6 -23.95 Q24.8 -23.4 24.95 -22.7 L25.05 -21.75 24.75 -21.9 Q24.5 -22.0 24.2 -22.0 L24.0 -22.45 Q23.8 -22.8 23.55 -22.95 L23.65 -22.95 Q23.8 -22.95 23.9 -23.0 23.85 -23.05 23.7 -23.1 22.55 -23.65 21.9 -24.25 21.45 -24.65 21.3 -25.0 L21.5 -25.45 Q21.95 -25.25 22.4 -25.15 L22.1 -25.3 Q21.8 -25.4 21.5 -25.65 M19.6 -29.0 Q19.4 -28.85 19.3 -28.85 18.5 -28.85 18.0 -29.75 17.75 -30.2 17.65 -30.55 L17.65 -30.85 17.7 -30.95 17.95 -31.2 18.0 -31.3 18.05 -31.35 18.1 -31.3 18.1 -31.25 Q18.1 -30.25 18.15 -29.95 18.45 -29.0 19.4 -29.0 L19.6 -29.0 M20.95 -24.25 L20.95 -24.35 21.05 -24.55 21.25 -24.9 21.25 -24.85 Q21.45 -24.45 21.8 -24.05 22.4 -23.3 23.05 -23.05 22.8 -23.05 22.5 -22.85 L22.25 -23.25 Q22.2 -23.45 22.1 -23.5 L22.05 -23.5 Q21.65 -24.05 21.3 -24.1 L21.4 -23.95 21.35 -23.95 Q21.3 -24.0 21.3 -23.85 21.3 -23.75 21.6 -23.25 L21.45 -23.15 21.3 -22.95 21.05 -22.8 21.0 -22.75 20.95 -22.9 20.85 -23.0 20.7 -23.35 20.75 -23.45 20.75 -23.55 20.95 -24.25 M14.85 -22.0 L14.8 -22.0 14.75 -22.15 Q14.75 -22.55 16.25 -23.25 17.5 -23.8 18.3 -23.95 18.35 -24.25 17.9 -24.85 17.6 -25.3 17.5 -25.55 L17.9 -25.6 Q18.4 -25.6 18.75 -25.45 19.25 -25.1 19.55 -24.2 L19.6 -24.1 Q19.75 -23.6 19.8 -23.15 L19.7 -22.95 19.6 -22.85 Q19.5 -22.9 19.45 -22.9 L19.35 -23.0 Q19.15 -23.1 18.9 -23.1 18.3 -23.1 16.8 -22.65 16.1 -22.4 15.6 -22.2 L15.0 -22.0 14.85 -22.0 M11.35 -25.35 L11.6 -24.95 11.95 -24.4 12.0 -24.2 12.1 -23.7 12.1 -23.6 12.15 -23.5 Q11.8 -23.3 11.7 -23.15 11.65 -23.0 11.65 -22.6 L11.65 -22.1 Q11.05 -22.6 10.25 -23.05 9.0 -23.7 8.75 -23.0 L8.65 -23.55 8.65 -23.85 9.25 -23.9 Q10.1 -23.9 10.5 -23.7 L11.1 -23.4 11.15 -23.35 11.15 -23.55 Q11.15 -23.7 10.95 -24.2 10.75 -24.7 10.75 -24.9 L10.8 -25.1 11.15 -24.9 11.2 -24.9 11.35 -24.8 Q11.4 -24.85 11.45 -24.95 L11.0 -25.4 10.9 -25.55 11.05 -25.55 Q11.15 -25.55 11.25 -25.45 11.3 -25.35 11.35 -25.35 M11.9 -17.5 L11.95 -17.35 12.05 -17.4 12.2 -17.55 12.7 -17.95 Q13.5 -18.55 14.25 -18.55 L14.7 -18.5 15.05 -18.5 15.15 -18.45 15.25 -18.45 16.0 -17.9 16.65 -17.3 16.9 -17.1 Q17.4 -16.6 17.75 -16.0 L17.7 -15.95 17.45 -16.15 Q17.05 -16.9 16.45 -16.95 L16.85 -16.1 16.95 -15.9 17.25 -14.85 Q17.7 -13.3 17.7 -11.8 17.7 -11.2 17.55 -10.5 L17.35 -9.85 Q17.35 -9.35 16.5 -7.65 L16.15 -6.95 16.2 -7.15 Q16.2 -8.75 15.95 -9.5 15.8 -9.95 15.45 -10.55 L15.5 -11.3 15.55 -12.5 Q15.6 -13.6 15.4 -14.45 14.95 -17.0 12.8 -17.0 L12.45 -17.05 12.45 -16.85 Q12.45 -16.4 12.4 -16.0 L12.35 -16.1 Q12.25 -16.6 12.05 -16.85 L12.05 -16.9 12.0 -16.9 11.8 -17.05 Q11.8 -17.1 11.8 -16.95 11.8 -16.65 11.85 -16.35 L11.8 -16.25 11.85 -16.0 11.8 -15.7 11.8 -15.65 11.6 -15.3 11.5 -15.15 11.55 -15.1 11.5 -15.05 Q10.75 -14.05 10.25 -12.6 9.9 -11.5 9.75 -10.4 9.6 -9.35 9.6 -8.35 9.6 -7.85 9.7 -7.2 L9.85 -6.6 9.25 -7.65 Q9.2 -8.0 9.15 -8.35 9.05 -9.65 9.1 -10.95 9.1 -12.2 9.65 -13.75 10.1 -15.1 10.8 -16.2 11.4 -17.25 11.9 -17.5 M10.3 -22.8 L10.25 -22.8 10.15 -22.75 9.95 -22.85 9.9 -22.9 Q10.05 -22.9 10.3 -22.8 M22.75 -16.3 L22.8 -15.95 Q22.8 -15.5 22.75 -15.0 L22.6 -15.2 22.5 -15.35 Q22.35 -15.6 22.05 -15.5 L22.05 -15.4 22.0 -15.1 21.9 -14.8 Q21.8 -14.85 21.7 -14.95 L21.65 -15.05 Q21.65 -15.45 21.75 -15.9 L21.8 -16.1 Q22.35 -16.1 22.75 -16.3 M23.25 -22.65 L23.3 -22.65 Q23.35 -22.65 23.45 -22.6 L23.4 -22.6 23.35 -22.65 23.25 -22.65" fill="#5e6264" fill-rule="evenodd" stroke="none"/><path d="M17.85 -21.55 L17.85 -21.5 17.9 -21.5 17.85 -21.5 17.85 -21.55 M17.85 -21.1 L17.8 -21.05 17.8 -21.1 17.85 -21.1 M17.55 -22.4 L17.55 -22.4 M19.2 -21.75 L19.3 -21.75 Q19.8 -21.75 20.35 -22.0 20.55 -22.05 20.75 -22.15 L21.0 -22.3 Q21.6 -22.65 21.8 -22.9 L21.95 -22.7 21.95 -22.65 21.6 -22.35 21.2 -22.05 21.15 -22.05 21.05 -22.0 21.1 -21.95 20.0 -21.4 19.35 -21.1 19.35 -21.15 Q19.35 -21.35 19.2 -21.75 M12.35 -26.25 L12.5 -25.85 12.6 -25.55 12.65 -25.45 12.65 -25.2 12.7 -24.85 12.85 -24.4 12.85 -24.3 12.8 -24.15 Q13.0 -23.35 13.5 -22.65 13.9 -22.05 14.35 -21.8 L14.35 -21.6 14.45 -21.4 14.45 -21.35 14.4 -21.35 14.35 -21.4 13.7 -21.95 Q13.4 -22.25 13.1 -22.6 L12.8 -23.0 12.75 -23.1 Q12.55 -23.5 12.35 -24.2 L12.3 -24.25 12.2 -24.8 12.2 -24.95 11.95 -25.65 11.95 -25.7 12.0 -25.7 12.1 -26.0 Q12.1 -26.15 12.25 -26.3 L12.25 -26.25 12.35 -26.25" fill="#b34424" fill-rule="evenodd" stroke="none"/><path d="M16.6 -22.05 L16.55 -22.0 Q16.5 -21.45 16.0 -20.9 15.65 -20.55 15.55 -20.25 L15.3 -20.5 15.2 -20.7 Q15.05 -21.0 14.75 -21.6 L14.95 -21.7 15.15 -21.7 Q15.65 -21.7 16.6 -22.05" fill="#6a2c1a" fill-rule="evenodd" stroke="none"/><path d="M17.55 -22.4 L18.1 -22.6 18.15 -22.65 18.25 -22.5 Q18.35 -22.5 18.5 -22.4 L18.9 -21.45 18.95 -21.3 18.95 -21.25 Q18.95 -21.1 18.85 -20.9 18.75 -20.7 18.75 -20.45 L18.55 -20.2 Q18.15 -19.7 17.65 -19.5 L17.7 -19.7 Q17.8 -20.25 17.8 -20.4 L17.8 -21.05 17.85 -21.1 17.85 -21.35 18.45 -21.3 Q18.35 -21.4 18.0 -21.5 L17.9 -21.5 17.85 -21.5 17.85 -21.55 17.8 -21.7 17.9 -21.7 Q18.4 -21.75 18.5 -21.8 L18.3 -21.9 17.75 -21.9 17.65 -22.15 17.6 -22.15 17.55 -22.2 17.55 -22.4 M16.6 -22.05 L17.05 -22.2 17.1 -22.25 17.3 -22.3 17.35 -22.25 17.35 -22.2 17.4 -22.2 17.55 -21.85 Q17.3 -21.85 17.2 -21.75 L17.15 -21.7 17.65 -21.7 17.65 -21.55 17.4 -21.55 Q17.4 -21.4 17.45 -21.35 L17.65 -21.35 17.7 -20.85 Q17.7 -20.3 17.55 -19.9 17.45 -19.65 17.4 -19.4 L16.95 -19.35 16.5 -19.45 16.35 -19.5 16.3 -19.55 16.25 -19.55 15.55 -20.25 Q15.65 -20.55 16.0 -20.9 16.5 -21.45 16.55 -22.0 L16.6 -22.05" fill="#3f201d" fill-rule="evenodd" stroke="none"/><path d="M21.15 -17.25 Q21.35 -17.95 21.35 -18.2 L21.35 -18.5 21.2 -18.45 21.5 -18.5 Q21.7 -18.5 21.85 -18.4 21.95 -18.25 21.95 -18.05 L22.0 -17.95 Q21.8 -18.0 21.5 -17.7 L21.15 -17.25 M21.25 -15.15 L21.25 -14.7 21.4 -14.2 Q21.5 -14.0 21.7 -13.9 21.85 -13.7 22.1 -13.7 L22.2 -13.7 21.95 -13.3 Q21.75 -13.0 21.55 -12.85 L21.4 -12.7 Q21.35 -12.55 21.4 -12.4 20.9 -12.55 20.55 -12.95 20.2 -13.45 20.05 -13.95 19.85 -14.55 19.85 -15.45 L19.9 -15.95 Q19.9 -15.55 20.0 -15.15 20.15 -14.4 20.4 -14.3 L20.55 -14.45 Q20.65 -14.55 20.65 -14.8 20.65 -15.4 20.75 -16.0 L20.8 -15.65 Q20.9 -15.15 21.2 -15.15 L21.25 -15.15" fill="#dbc673" fill-rule="evenodd" stroke="none"/><path d="M20.85 -16.7 Q20.9 -16.95 21.15 -17.25 L21.5 -17.7 Q21.8 -18.0 22.0 -17.95 L22.0 -17.45 Q22.0 -17.35 21.7 -16.8 L21.7 -16.75 21.5 -16.5 21.45 -16.4 21.45 -16.35 Q21.2 -15.85 21.2 -15.3 L21.2 -15.2 21.25 -15.2 21.25 -15.15 21.2 -15.15 Q20.9 -15.15 20.8 -15.65 L20.75 -16.0 20.75 -16.25 Q20.75 -16.4 20.8 -16.6 L20.85 -16.65 20.85 -16.7 M22.2 -13.7 Q22.95 -13.85 23.35 -16.0 23.35 -16.2 23.25 -16.4 L23.15 -16.55 23.35 -16.7 23.45 -16.3 23.55 -15.8 23.6 -15.15 Q23.55 -14.6 23.35 -13.95 L23.3 -13.7 Q22.8 -12.4 21.8 -12.4 L21.4 -12.4 Q21.35 -12.55 21.4 -12.7 L21.55 -12.85 Q21.75 -13.0 21.95 -13.3 L22.2 -13.7" fill="#b79d4f" fill-rule="evenodd" stroke="none"/><path d="M20.4 -17.6 L20.4 -17.65 21.2 -18.45 21.35 -18.5 21.35 -18.2 Q21.35 -17.95 21.15 -17.25 20.9 -16.95 20.85 -16.7 L21.0 -17.35 20.95 -17.5 20.85 -17.6 20.65 -17.85 20.4 -17.6 M19.9 -15.95 L19.9 -16.0 Q20.0 -16.45 20.1 -16.85 L20.1 -16.7 20.2 -16.35 Q20.35 -15.8 20.5 -15.65 L20.75 -16.4 20.8 -16.5 20.8 -16.6 Q20.75 -16.4 20.75 -16.25 L20.75 -16.0 Q20.65 -15.4 20.65 -14.8 20.65 -14.55 20.55 -14.45 L20.4 -14.3 Q20.15 -14.4 20.0 -15.15 19.9 -15.55 19.9 -15.95" fill="#ecdaa4" fill-rule="evenodd" stroke="none"/><path d="M20.4 -17.6 L20.65 -17.85 20.85 -17.6 20.95 -17.5 20.6 -17.55 20.35 -17.55 20.4 -17.6 M20.75 -16.4 L20.5 -15.65 Q20.35 -15.8 20.2 -16.35 L20.1 -16.7 Q20.3 -16.4 20.75 -16.4" fill="#f3e8c5" fill-rule="evenodd" stroke="none"/><path d="M20.95 -17.5 L21.0 -17.35 20.85 -16.7 20.85 -16.65 20.8 -16.6 20.8 -16.5 20.75 -16.4 Q20.3 -16.4 20.1 -16.7 L20.1 -16.85 20.15 -17.0 20.35 -17.45 20.35 -17.55 20.6 -17.55 20.95 -17.5" fill="#fbf7ea" fill-rule="evenodd" stroke="none"/></g>
    <g id="sprite7" transform="matrix(1.0, 0.0, 0.0, 1.0, 136.85, 204.75)">
      <use ffdec:characterId="946" height="57.2" transform="matrix(7.0, 0.0, 0.0, 7.0, -136.85, -204.75)" width="39.05" xlink:href="#shape6"/>
    </g>
    <g id="shape6" transform="matrix(1.0, 0.0, 0.0, 1.0, 19.55, 29.25)">
      <path d="M19.35 -26.6 L19.3 -26.3 Q19.2 -26.05 18.95 -26.0 L18.8 -25.85 14.85 -25.3 9.55 -25.45 8.3 -25.65 Q8.1 -25.5 7.5 -25.5 L5.2 -25.7 2.95 -26.0 -5.6 -25.15 -8.75 -23.0 -1.05 9.15 Q-0.4 11.25 -0.4 11.45 -0.4 12.95 -2.4 15.8 -4.1 18.2 -5.8 19.75 L-8.25 22.05 Q-10.0 23.7 -11.2 24.75 -14.85 27.95 -16.1 27.95 -16.95 27.95 -17.25 27.5 -17.4 27.3 -17.4 26.85 L-14.45 13.2 -16.25 -0.5 -18.9 -24.15 Q-18.4 -27.0 -17.15 -27.6 L-13.3 -28.75 -9.75 -27.05 -8.65 -27.4 Q-6.4 -27.95 -0.95 -27.95 L3.75 -27.4 4.2 -27.5 8.35 -27.1 10.05 -26.9 18.6 -27.2 Q19.1 -27.3 19.2 -27.0 L19.35 -26.6 M18.25 -26.35 L18.25 -26.4 18.15 -26.4 18.25 -26.35" fill="#775d2b" fill-rule="evenodd" stroke="none"/>
      <path d="M18.25 -26.15 Q18.45 -25.95 18.9 -26.05 19.1 -26.1 19.3 -26.25 L19.4 -26.25 Q19.45 -26.25 19.45 -26.1 19.45 -26.0 19.15 -25.85 L12.8 -25.3 7.45 -25.55 7.5 -25.6 7.4 -25.6 5.75 -25.75 -1.65 -25.85 Q-5.45 -25.7 -7.4 -24.35 L-8.55 -23.2 -8.55 -22.0 -0.65 9.85 Q-0.85 10.0 -1.05 10.0 -2.65 10.0 -4.05 3.1 -4.8 -0.35 -5.15 -3.75 L-7.85 -14.85 Q-8.55 -17.45 -8.6 -19.05 L-8.85 -20.2 Q-9.05 -20.45 -9.4 -21.35 L-9.8 -22.6 Q-9.8 -23.05 -9.15 -23.5 L-7.7 -24.7 Q-5.65 -25.9 -3.3 -26.5 L-2.1 -26.5 -1.1 -26.55 -0.7 -26.6 2.45 -26.3 3.2 -26.25 Q3.45 -26.3 3.8 -26.25 5.3 -26.0 6.7 -25.95 L7.5 -25.95 8.1 -25.9 8.2 -25.9 8.3 -25.85 10.4 -25.75 Q12.55 -25.6 14.7 -25.65 16.4 -25.7 18.0 -26.0 L18.15 -26.05 18.25 -26.15 M-11.1 -23.75 Q-11.05 -23.75 -11.05 -23.4 -11.05 -23.1 -11.15 -22.8 L-11.45 -22.2 -11.6 -22.2 -11.7 -22.4 Q-11.75 -22.55 -11.75 -22.85 -11.75 -23.1 -11.65 -23.3 -11.5 -23.6 -11.2 -23.7 -11.15 -23.75 -11.1 -23.75 M-12.55 -25.4 Q-12.45 -25.5 -12.25 -25.5 -11.8 -24.95 -11.8 -24.35 -11.8 -24.05 -11.85 -23.95 L-11.85 -23.9 -11.9 -23.8 Q-12.0 -23.7 -12.15 -23.65 -12.4 -24.0 -12.5 -24.25 -12.65 -24.6 -12.65 -24.9 -12.65 -25.25 -12.55 -25.4 M-11.75 -26.05 L-11.95 -26.15 Q-11.85 -26.15 -11.85 -26.1 L-11.75 -26.05 M-13.75 -2.4 Q-13.7 -1.95 -13.7 -1.5 -13.7 -1.2 -13.8 -1.0 L-13.95 -0.65 -14.1 -0.65 Q-14.1 -0.85 -14.45 -1.9 -14.75 -3.0 -14.75 -3.15 L-14.75 -3.7 Q-14.65 -4.0 -14.35 -4.1 -14.0 -3.5 -13.85 -2.8 L-13.8 -2.55 -13.7 -2.35 -13.75 -2.4 M-10.45 -12.0 Q-10.05 -11.65 -9.75 -11.15 L-9.35 -10.3 Q-9.4 -10.15 -9.55 -10.0 -9.7 -9.85 -9.85 -9.8 -10.25 -9.95 -10.65 -10.5 -11.0 -10.95 -11.0 -11.3 -11.0 -11.55 -10.75 -11.75 L-10.45 -12.0" fill="#55420f" fill-rule="evenodd" stroke="none"/>
      <path d="M19.4 -27.35 L19.45 -27.2 19.5 -27.1 19.5 -26.55 Q19.5 -26.3 19.4 -26.1 19.3 -25.9 19.15 -25.8 L19.1 -25.75 Q18.95 -25.55 18.45 -25.45 16.8 -25.05 11.7 -25.05 L7.7 -25.3 7.25 -25.3 7.3 -25.35 5.4 -25.35 Q4.95 -25.6 4.25 -25.5 L2.45 -25.55 -3.3 -25.3 -4.5 -25.1 -4.95 -25.05 -5.0 -25.0 -5.05 -25.0 -5.35 -24.9 Q-5.85 -24.7 -6.35 -24.45 L-6.55 -24.4 Q-6.9 -24.25 -7.15 -24.05 L-7.4 -23.85 Q-8.1 -23.1 -8.55 -22.4 -7.65 -19.35 -6.35 -14.75 L-4.05 -6.65 Q-3.1 -3.45 -1.55 2.5 0.15 9.05 0.15 9.65 0.15 10.6 -0.3 10.6 -1.05 10.6 -2.1 5.85 L-2.95 1.8 Q-3.45 -0.6 -3.75 -1.65 -6.95 -13.1 -6.95 -13.95 L-7.9 -17.45 Q-8.9 -21.2 -8.9 -22.55 L-8.85 -22.75 -8.9 -22.85 -8.95 -22.8 Q-9.15 -22.7 -9.3 -22.7 L-9.7 -22.75 -9.75 -23.0 -9.45 -23.05 -8.9 -23.1 -8.85 -23.1 Q-8.7 -23.35 -7.95 -23.9 L-7.6 -24.25 -6.9 -24.7 -6.35 -25.1 Q-4.95 -25.8 -3.95 -25.95 L0.95 -26.2 1.0 -26.2 1.8 -26.15 1.95 -26.1 3.1 -25.95 3.15 -25.95 5.3 -25.85 Q5.65 -25.75 6.05 -25.75 L6.5 -25.65 7.5 -25.55 7.55 -25.6 8.1 -25.55 8.95 -25.55 Q13.45 -25.2 17.9 -25.8 L17.95 -25.9 Q18.05 -25.85 18.1 -25.95 L18.1 -26.0 18.0 -26.15 17.95 -26.15 17.95 -26.2 18.05 -26.2 18.0 -26.35 18.0 -26.45 18.1 -26.6 18.1 -26.75 18.2 -26.75 18.2 -26.8 18.25 -26.8 18.2 -26.75 18.15 -26.65 18.15 -26.55 18.2 -26.4 18.2 -26.3 18.25 -26.25 18.25 -26.1 18.4 -25.95 18.85 -25.95 18.85 -26.0 18.9 -26.0 18.95 -26.05 19.1 -26.15 19.15 -26.3 Q19.25 -26.45 19.2 -26.5 L19.25 -26.65 19.25 -26.8 Q19.25 -26.9 19.2 -26.95 L19.15 -27.0 19.1 -27.0 19.1 -27.05 19.05 -27.05 18.95 -27.1 18.75 -27.15 18.55 -27.1 Q18.35 -27.05 18.3 -26.9 L18.3 -27.0 18.2 -27.1 Q16.5 -26.8 14.75 -26.75 12.85 -26.7 10.9 -26.7 9.3 -26.7 7.75 -27.0 L4.3 -27.35 4.2 -27.35 4.2 -27.3 4.1 -27.3 0.95 -27.7 -2.25 -27.85 -3.15 -27.9 -3.6 -27.9 -4.8 -27.85 Q-5.7 -27.8 -6.5 -27.55 -7.3 -27.5 -8.3 -27.25 L-8.95 -27.1 Q-9.45 -26.9 -9.7 -26.8 L-10.15 -26.6 -10.55 -26.4 Q-10.4 -26.05 -10.4 -25.8 L-10.45 -25.8 Q-10.55 -25.75 -10.65 -25.7 L-10.75 -25.9 Q-10.85 -26.05 -10.85 -26.2 L-10.8 -26.3 -10.85 -26.3 -10.9 -26.35 -10.9 -26.5 Q-10.9 -26.85 -10.4 -27.0 L-10.35 -27.05 -10.45 -27.2 -11.3 -27.6 Q-12.55 -28.2 -13.5 -28.2 -15.95 -28.2 -17.4 -26.65 -17.8 -26.25 -18.15 -25.7 -18.25 -25.3 -18.4 -24.15 -18.6 -23.0 -18.6 -22.5 -18.6 -21.25 -17.8 -16.1 L-16.1 -5.35 Q-13.65 10.1 -13.65 13.5 -13.65 15.0 -14.1 16.9 -14.45 18.3 -15.15 20.4 L-16.2 24.4 Q-16.7 26.2 -16.95 26.85 L-16.95 27.15 Q-16.95 27.4 -16.95 27.35 L-16.95 27.45 Q-17.0 27.5 -17.15 27.5 -17.4 27.5 -17.5 27.05 L-17.5 27.0 Q-17.6 26.85 -17.7 26.55 L-17.75 25.9 Q-17.75 25.05 -17.3 23.4 L-16.25 20.2 Q-14.8 15.6 -14.8 13.55 -14.8 12.65 -15.1 9.45 L-15.4 6.1 Q-15.4 5.9 -16.0 3.0 -16.6 -0.1 -16.65 -0.75 L-17.1 -4.15 -17.55 -7.6 Q-17.6 -8.5 -18.6 -14.75 -19.55 -20.55 -19.55 -21.2 -19.55 -23.05 -19.4 -24.0 L-19.25 -25.0 Q-19.2 -25.35 -19.0 -25.75 L-18.9 -25.9 Q-18.85 -26.2 -18.6 -26.6 -18.25 -27.25 -17.6 -27.8 -15.8 -29.25 -12.95 -29.25 -11.85 -29.25 -10.8 -28.5 -10.05 -28.0 -9.85 -27.65 L-9.65 -27.5 -9.0 -27.7 -8.75 -27.7 -8.65 -27.75 -8.25 -27.85 -8.05 -27.85 -7.55 -27.95 Q-5.9 -28.2 -3.65 -28.2 L0.95 -28.1 0.95 -28.05 3.55 -27.7 4.0 -27.7 4.25 -27.6 9.25 -27.15 10.35 -27.15 Q13.45 -26.95 16.6 -27.2 L16.8 -27.2 17.05 -27.25 17.1 -27.3 18.9 -27.4 19.4 -27.35 M-10.35 -25.35 L-10.2 -25.35 Q-10.1 -25.15 -9.85 -24.25 L-9.55 -23.3 Q-9.55 -23.15 -9.6 -23.15 L-9.6 -23.1 Q-9.6 -23.05 -9.7 -23.05 L-9.8 -23.25 -10.1 -24.05 Q-10.4 -24.95 -10.4 -25.15 -10.4 -25.3 -10.35 -25.35" fill="#362612" fill-rule="evenodd" stroke="none"/>
      <path d="M-13.35 -28.35 Q-12.15 -28.35 -11.5 -27.5 -11.3 -27.25 -11.2 -26.9 L-11.05 -26.5 -11.05 -26.4 -11.1 -26.55 Q-11.35 -27.0 -11.7 -27.3 -12.8 -28.2 -14.25 -28.3 L-14.55 -28.2 -14.5 -28.25 -14.25 -28.3 -13.35 -28.35 M-1.1 -26.45 L-0.25 -26.35 -0.3 -26.3 Q-1.2 -26.35 -2.35 -26.3 L-4.1 -26.15 -4.25 -26.1 Q-4.35 -26.1 -4.4 -26.1 -6.55 -25.4 -7.25 -24.95 -7.75 -24.65 -8.35 -24.05 -8.85 -23.55 -9.15 -23.15 L-9.25 -23.15 -9.25 -23.1 -9.3 -23.3 Q-9.3 -23.6 -8.6 -24.15 L-7.7 -24.8 -7.55 -24.95 -6.75 -25.5 -7.25 -25.1 -6.9 -25.25 Q-4.5 -26.6 -3.3 -26.45 L-1.1 -26.45 M-10.55 -25.15 L-10.25 -24.35 -10.2 -24.5 -10.1 -24.5 -9.65 -22.8 -9.6 -22.8 Q-8.9 -20.5 -8.25 -17.35 L-8.05 -16.35 -7.95 -16.0 -7.95 -16.1 -7.85 -16.1 -7.85 -16.0 -7.8 -16.0 -7.85 -15.85 -7.8 -15.85 -7.8 -15.75 -7.75 -15.7 -7.75 -15.6 -7.7 -15.45 -7.7 -15.35 -7.65 -15.25 -7.65 -15.05 -7.6 -14.95 -7.55 -14.9 -7.55 -14.5 -7.5 -14.45 -7.45 -14.35 -7.45 -14.05 -7.35 -13.9 -7.35 -13.7 -7.3 -13.6 -7.25 -13.55 -7.25 -13.4 -7.2 -13.25 -7.2 -13.15 -7.05 -12.95 -4.65 -2.65 Q-2.9 4.7 -1.95 9.45 L-1.95 10.15 -2.05 10.15 -5.1 -2.25 Q-6.8 -9.2 -7.65 -14.0 L-7.75 -14.4 -6.95 -9.9 -7.05 -9.85 Q-7.65 -12.25 -8.45 -16.2 L-9.25 -20.55 Q-10.0 -23.2 -10.6 -25.15 L-10.55 -25.15 M-15.55 -18.0 Q-15.75 -13.8 -14.3 -7.55 -12.45 -0.6 -11.8 2.9 -11.25 6.15 -10.85 14.95 -10.6 21.15 -10.6 23.85 L-10.6 24.0 Q-10.65 23.95 -10.65 24.0 L-10.7 24.0 Q-10.95 21.55 -11.25 14.35 -11.55 8.2 -12.0 4.6 -12.25 2.7 -12.95 -0.05 -13.3 -1.65 -14.2 -4.9 -15.75 -11.05 -15.75 -14.6 -15.75 -17.25 -15.55 -18.0 M-10.4 -12.35 L-10.35 -12.35 Q-10.15 -10.7 -9.5 -8.6 -9.25 -7.65 -8.3 -4.9 -6.65 -0.05 -6.55 2.55 -6.3 11.7 -5.9 17.45 L-5.9 17.5 Q-5.95 17.55 -6.0 17.55 -6.4 14.8 -6.55 10.25 -6.7 4.4 -6.85 2.85 -7.1 -0.6 -8.8 -5.5 -9.75 -8.1 -9.95 -8.85 -10.45 -10.55 -10.45 -11.7 L-10.4 -12.35" fill="#362612" fill-rule="evenodd" stroke="none"/>
      <path d="M10.2 -26.95 Q10.25 -26.9 10.1 -26.9 L9.4 -27.0 9.2 -26.95 8.5 -27.0 Q8.5 -26.95 8.4 -26.95 L7.95 -27.0 7.9 -27.0 5.65 -27.15 Q4.5 -27.25 4.1 -27.4 L3.95 -27.4 3.9 -27.45 3.95 -27.45 Q3.9 -27.45 3.85 -27.5 L3.8 -27.55 3.7 -27.55 3.7 -27.65 5.15 -27.65 6.45 -27.55 7.85 -27.45 8.3 -27.35 9.0 -27.25 9.65 -27.2 Q10.05 -27.15 10.2 -27.0 L10.2 -26.95" fill="#362612" fill-rule="evenodd" stroke="none"/>
    </g>
    <g id="sprite8" transform="matrix(1.0, 0.0, 0.0, 1.0, 37.45, 36.4)">
      <use ffdec:characterId="944" height="9.25" transform="matrix(7.0, 0.0, 0.0, 7.0, -37.45, -36.4)" width="8.75" xlink:href="#shape7"/>
    </g>
    <g id="shape7" transform="matrix(1.0, 0.0, 0.0, 1.0, 5.35, 5.2)">
      <path d="M0.65 -4.65 L0.75 -4.7 0.75 -4.75 0.95 -4.95 1.5 -4.6 1.75 -4.4 1.95 -4.25 2.05 -4.25 2.25 -4.2 Q2.4 -4.1 2.5 -4.05 L2.0 -3.55 2.2 -3.35 2.25 -3.35 Q2.15 -3.2 2.15 -2.9 L2.35 -2.55 2.3 -2.55 Q1.65 -3.1 0.75 -3.45 0.9 -3.5 0.9 -3.65 L0.8 -4.05 0.7 -4.55 0.65 -4.65 M2.6 -2.35 L2.55 -2.35 2.55 -2.4 2.6 -2.4 2.6 -2.35" fill="#d6b37e" fill-rule="evenodd" stroke="none"/>
      <path d="M-2.3 -1.4 Q-2.2 -1.95 -2.0 -2.5 -1.85 -2.9 -1.65 -3.15 L-1.6 -3.25 -1.35 -3.5 -1.25 -3.5 Q-1.05 -3.6 -0.85 -3.6 L-0.4 -3.6 Q0.45 -3.45 1.1 -3.15 L1.95 -2.65 2.15 -2.45 2.25 -2.4 2.25 -2.35 2.35 -2.15 2.45 -1.9 2.55 -1.4 2.5 -1.4 Q2.5 -1.45 2.5 -1.3 L2.15 -1.05 1.45 -0.35 Q0.95 0.0 0.1 0.45 L-0.2 0.3 -0.15 0.25 -0.3 0.35 -0.3 0.25 Q-0.4 0.3 -0.45 0.35 L-0.5 0.3 Q-0.75 0.0 -0.9 -0.05 L-1.35 -0.5 -1.65 -0.9 Q-2.0 -1.35 -2.3 -1.4 M-0.2 0.65 L-0.25 0.65 -0.2 0.65 M-4.9 1.35 L-4.8 1.0 -4.8 1.05 -4.5 1.05 Q-4.0 0.95 -3.75 0.4 L-3.55 -0.05 -3.45 -0.25 Q-3.3 -0.4 -3.35 -0.5 L-3.35 -0.55 Q-3.35 -0.65 -3.35 -0.6 L-3.55 -0.8 -3.6 -0.9 Q-3.45 -0.95 -3.25 -1.05 -3.05 -1.15 -2.95 -1.2 L-2.85 -1.2 Q-2.7 -1.2 -2.5 -1.1 -2.5 -0.95 -2.1 -0.85 L-1.95 -0.85 -1.9 -0.75 -1.85 -0.75 Q-1.8 -0.6 -1.45 -0.45 L-1.3 -0.25 Q-0.8 0.2 -0.85 0.25 L-0.8 0.3 -0.75 0.45 Q-0.8 0.5 -0.8 0.55 -1.0 0.75 -1.05 0.95 L-1.05 1.0 -0.7 0.8 -0.65 0.9 -0.65 1.1 -0.8 1.3 Q-0.65 1.3 -0.55 1.25 L-0.65 1.3 -0.6 1.5 -0.6 1.6 -0.75 1.95 Q-0.95 2.45 -1.1 2.6 -1.45 2.9 -2.05 3.55 -2.5 3.15 -3.6 2.45 L-3.85 2.3 Q-4.0 2.2 -4.1 2.15 -4.85 1.65 -4.85 1.35 L-4.9 1.35 M-3.0 3.65 L-3.0 3.6 -3.0 3.65" fill="#875a32" fill-rule="evenodd" stroke="none"/>
      <path d="M2.5 -4.05 L2.55 -4.05 2.6 -3.95 2.55 -3.7 2.5 -3.55 2.4 -3.4 2.3 -3.3 Q2.2 -3.2 2.2 -3.15 L2.3 -3.05 2.45 -3.2 2.55 -3.2 2.95 -2.25 3.1 -1.75 Q2.9 -2.05 2.6 -2.35 L2.6 -2.4 2.55 -2.4 2.55 -2.35 2.35 -2.55 2.15 -2.9 Q2.15 -3.2 2.25 -3.35 L2.2 -3.35 2.0 -3.55 2.5 -4.05 M0.75 -3.45 L-0.35 -3.85 -0.1 -4.1 0.3 -4.4 0.45 -4.5 0.55 -4.6 0.65 -4.65 0.7 -4.55 0.8 -4.05 0.9 -3.65 Q0.9 -3.5 0.75 -3.45" fill="#c67137" fill-rule="evenodd" stroke="none"/>
      <path d="M-2.2 -1.3 L-2.3 -1.35 -2.3 -1.4 Q-2.0 -1.35 -1.65 -0.9 L-1.35 -0.5 -1.75 -0.85 -1.75 -0.95 -1.8 -1.0 Q-1.9 -1.15 -2.2 -1.3 M2.25 -2.4 Q2.6 -2.05 2.9 -1.55 3.0 -1.35 3.05 -1.15 L3.0 -1.1 3.05 -1.05 3.05 -0.8 Q3.05 -0.55 3.0 -0.3 L2.95 -0.25 Q2.7 0.35 1.8 0.65 1.65 0.75 1.35 0.75 0.8 0.8 0.3 1.0 L-0.05 1.0 -0.1 1.05 -0.3 1.05 -0.3 1.0 -0.25 0.95 Q-0.1 0.75 -0.1 0.6 L-0.1 0.55 -0.2 0.65 -0.25 0.65 -0.35 0.75 -0.4 0.8 -0.5 0.6 -0.45 0.6 -0.4 0.55 -0.3 0.35 -0.15 0.25 -0.2 0.3 0.1 0.45 Q0.95 0.0 1.45 -0.35 L2.15 -1.05 2.5 -1.3 Q2.5 -1.45 2.5 -1.4 L2.55 -1.4 2.45 -1.9 2.35 -2.15 2.25 -2.35 2.25 -2.4 M-0.45 0.35 L-0.5 0.35 -0.55 0.4 -0.6 0.3 -0.65 0.25 -0.7 0.1 -0.85 0.0 -0.9 -0.05 Q-0.75 0.0 -0.5 0.3 L-0.45 0.35 M-2.5 -1.1 L-2.45 -1.05 -2.4 -1.05 Q-2.2 -0.95 -2.0 -0.85 L-1.95 -0.85 -2.1 -0.85 Q-2.5 -0.95 -2.5 -1.1 M-1.85 -0.75 Q-1.75 -0.65 -1.8 -0.75 L-1.45 -0.45 Q-1.8 -0.6 -1.85 -0.75 M-0.8 0.3 L-0.7 0.5 -0.75 0.55 -0.8 0.55 Q-0.8 0.5 -0.75 0.45 L-0.8 0.3 M-0.7 0.8 L-0.6 0.7 -0.5 0.85 -0.5 0.9 -0.55 0.95 -0.55 1.0 -0.65 1.1 -0.65 0.9 -0.7 0.8 M-0.55 1.25 L-0.5 1.2 -0.45 1.25 -0.45 1.45 -0.5 1.75 -0.55 2.1 Q-0.55 2.45 -1.15 3.1 -1.8 3.75 -2.15 3.75 L-3.0 3.65 -3.0 3.6 Q-3.25 3.35 -3.8 2.9 L-5.0 1.9 -5.05 1.7 -5.05 1.65 -4.9 1.35 -4.85 1.35 Q-4.85 1.65 -4.1 2.15 L-4.05 2.15 -4.25 2.05 -4.65 1.8 -4.7 1.75 -3.95 2.3 Q-3.7 2.45 -2.55 3.55 L-2.45 3.45 Q-3.2 2.75 -3.6 2.45 -2.5 3.15 -2.05 3.55 -1.45 2.9 -1.1 2.6 -0.95 2.45 -0.75 1.95 L-0.6 1.6 -0.6 1.5 -0.65 1.3 -0.55 1.25" fill="#6d3227" fill-rule="evenodd" stroke="none"/>
      <path d="M2.5 -4.05 Q2.4 -4.1 2.25 -4.2 L2.05 -4.25 1.95 -4.25 1.75 -4.4 1.5 -4.6 0.95 -4.95 0.75 -4.75 0.75 -4.7 0.65 -4.65 0.55 -4.6 0.45 -4.5 0.3 -4.4 -0.1 -4.1 -0.35 -3.85 0.75 -3.45 Q1.65 -3.1 2.3 -2.55 L2.35 -2.55 2.55 -2.35 2.6 -2.35 Q2.9 -2.05 3.1 -1.75 L2.95 -2.25 2.55 -3.2 2.45 -3.2 2.3 -3.05 2.2 -3.15 Q2.2 -3.2 2.3 -3.3 L2.4 -3.4 2.5 -3.55 2.55 -3.7 2.6 -3.95 2.55 -4.05 2.5 -4.05 M-2.6 -1.45 L-2.5 -1.65 Q-2.4 -1.85 -2.4 -2.05 L-2.4 -2.1 -2.3 -2.35 -2.3 -2.6 -2.0 -3.25 -1.45 -3.75 -1.25 -3.8 -1.2 -3.85 Q-0.95 -3.95 -0.85 -3.9 L-0.65 -3.95 Q-0.55 -4.15 0.0 -4.55 L0.4 -4.8 Q0.9 -5.1 1.05 -5.2 L1.45 -4.95 1.9 -4.55 2.05 -4.5 2.4 -4.4 2.5 -4.35 2.7 -4.1 2.8 -4.0 2.8 -3.65 2.75 -3.2 Q3.25 -2.4 3.3 -2.2 3.35 -2.15 3.35 -2.05 L3.35 -0.95 3.4 -0.55 Q3.4 -0.3 3.2 0.1 3.0 0.35 2.9 0.4 2.75 0.6 2.25 0.8 L1.85 0.9 1.1 1.1 1.15 1.05 Q1.8 0.85 2.05 0.7 L2.05 0.65 1.15 0.85 0.5 0.95 0.3 1.0 Q0.8 0.8 1.35 0.75 1.65 0.75 1.8 0.65 2.7 0.35 2.95 -0.25 L3.0 -0.3 Q3.05 -0.55 3.05 -0.8 L3.05 -1.05 3.0 -1.1 3.05 -1.15 Q3.0 -1.35 2.9 -1.55 2.6 -2.05 2.25 -2.4 L2.15 -2.45 1.95 -2.65 1.1 -3.15 Q0.45 -3.45 -0.4 -3.6 L-0.85 -3.6 Q-1.05 -3.6 -1.25 -3.5 L-1.35 -3.5 -1.6 -3.25 -1.65 -3.15 Q-1.85 -2.9 -2.0 -2.5 -2.2 -1.95 -2.3 -1.4 L-2.3 -1.35 -2.2 -1.3 -2.25 -1.3 -2.45 -1.4 -2.6 -1.45 M2.6 -3.2 L2.6 -3.15 2.65 -3.1 Q2.6 -3.15 2.6 -3.2 M3.15 -1.15 L3.15 -1.15 M2.7 0.25 L2.8 0.2 2.65 0.3 2.7 0.25 M-1.75 -0.95 L-1.8 -1.0 -1.75 -0.95 M-2.4 -1.55 L-2.35 -1.6 -2.4 -1.6 -2.4 -1.55" fill="#101010" fill-rule="evenodd" stroke="none"/>
      <path d="M1.1 1.1 Q0.45 1.25 0.05 1.25 L-0.2 1.25 -0.15 1.4 Q0.0 1.65 0.0 1.8 0.0 1.95 -0.2 2.35 -0.4 2.7 -0.6 2.8 L-0.9 3.2 -1.45 3.95 Q-1.6 4.05 -2.3 4.05 L-2.75 4.0 Q-2.95 3.95 -3.0 3.85 L-3.5 3.5 -4.15 3.0 Q-4.6 2.9 -5.0 2.35 -5.35 1.9 -5.35 1.7 -5.35 1.6 -5.25 1.3 -5.1 0.95 -4.95 0.85 L-4.75 0.75 -4.55 0.9 Q-4.1 0.8 -3.85 0.4 L-3.65 0.0 -3.55 -0.3 -3.6 -0.25 -3.65 -0.25 -3.55 -0.35 -3.55 -0.4 -3.6 -0.4 -3.6 -0.45 -4.0 -0.95 -3.95 -1.05 Q-3.9 -1.15 -3.75 -1.15 L-3.3 -1.35 -2.8 -1.5 -2.75 -1.5 -2.6 -1.45 -2.45 -1.4 -2.25 -1.3 -2.2 -1.3 Q-1.9 -1.15 -1.8 -1.0 L-1.75 -0.95 -1.75 -0.85 -1.35 -0.5 -0.9 -0.05 -0.85 0.0 -0.7 0.1 -0.65 0.25 -0.6 0.3 -0.55 0.4 -0.5 0.35 -0.45 0.35 Q-0.4 0.3 -0.3 0.25 L-0.3 0.35 -0.4 0.55 -0.45 0.6 -0.5 0.6 -0.4 0.8 -0.35 0.75 -0.25 0.65 -0.2 0.65 -0.1 0.55 -0.1 0.6 Q-0.1 0.75 -0.25 0.95 L-0.3 1.0 -0.3 1.05 -0.1 1.05 -0.05 1.0 0.3 1.0 0.5 0.95 1.15 0.85 2.05 0.65 2.05 0.7 Q1.8 0.85 1.15 1.05 L1.1 1.1 M-2.5 -1.1 Q-2.7 -1.2 -2.85 -1.2 L-2.95 -1.2 Q-3.05 -1.15 -3.25 -1.05 -3.45 -0.95 -3.6 -0.9 L-3.55 -0.8 -3.35 -0.6 Q-3.35 -0.65 -3.35 -0.55 L-3.35 -0.5 Q-3.3 -0.4 -3.45 -0.25 L-3.55 -0.05 -3.75 0.4 Q-4.0 0.95 -4.5 1.05 L-4.8 1.05 -4.8 1.0 -4.9 1.35 -5.05 1.65 -5.05 1.7 -5.0 1.9 -3.8 2.9 Q-3.25 3.35 -3.0 3.6 L-3.0 3.65 -2.15 3.75 Q-1.8 3.75 -1.15 3.1 -0.55 2.45 -0.55 2.1 L-0.5 1.75 -0.45 1.45 -0.45 1.25 -0.5 1.2 -0.55 1.25 Q-0.65 1.3 -0.8 1.3 L-0.65 1.1 -0.55 1.0 -0.55 0.95 -0.5 0.9 -0.5 0.85 -0.6 0.7 -0.7 0.8 -1.05 1.0 -1.05 0.95 Q-1.0 0.75 -0.8 0.55 L-0.75 0.55 -0.7 0.5 -0.8 0.3 -0.85 0.25 Q-0.8 0.2 -1.3 -0.25 L-1.45 -0.45 -1.8 -0.75 Q-1.75 -0.65 -1.85 -0.75 L-1.9 -0.75 -1.95 -0.85 -2.0 -0.85 Q-2.2 -0.95 -2.4 -1.05 L-2.45 -1.05 -2.5 -1.1 M-4.1 2.15 Q-4.0 2.2 -3.85 2.3 L-3.6 2.45 Q-3.2 2.75 -2.45 3.45 L-2.55 3.55 Q-3.7 2.45 -3.95 2.3 L-4.7 1.75 -4.65 1.8 -4.25 2.05 -4.05 2.15 -4.1 2.15 M-0.25 1.85 L-0.25 1.85" fill="#000000" fill-rule="evenodd" stroke="none"/>
    </g>
  </defs>
</svg>