<?xml version="1.0" encoding="UTF-8" standalone="no"?>
<svg xmlns:ffdec="https://www.free-decompiler.com/flash" xmlns:xlink="http://www.w3.org/1999/xlink" ffdec:objectType="frame" height="205.35px" width="887.0px" xmlns="http://www.w3.org/2000/svg">
  <g transform="matrix(1.0, 0.0, 0.0, 1.0, -40.75, -55.75)">
    <use ffdec:characterId="25" ffdec:characterName="a_EB_Cloud1Base" height="198.35" transform="matrix(1.0, 0.0, 0.0, 1.0, 44.75, 57.15)" width="880.0" xlink:href="#sprite0"/>
    <use ffdec:characterId="27" ffdec:characterName="a_EB_Cloud1Flicker" height="205.35" transform="matrix(1.0, 0.0, 0.0, 1.0, 40.75, 55.75)" width="887.0" xlink:href="#sprite1"/>
  </g>
  <defs>
    <g id="sprite0" transform="matrix(1.0, 0.0, 0.0, 1.0, 2.25, 0.85)">
      <use ffdec:characterId="19" height="198.35" transform="matrix(1.0, 0.0, 0.0, 1.0, -2.25, -0.85)" width="880.0" xlink:href="#shape0"/>
    </g>
    <g id="shape0" transform="matrix(1.0, 0.0, 0.0, 1.0, 2.25, 0.85)">
      <path d="M872.65 5.2 Q875.45 9.35 877.75 22.0 877.75 27.95 875.7 35.45 872.85 45.9 867.0 54.25 853.45 73.55 827.5 77.35 827.15 83.2 825.65 90.0 822.8 102.35 816.85 112.15 799.8 140.35 762.0 140.35 741.9 140.35 719.25 129.6 710.2 125.35 704.4 120.8 680.55 136.35 648.85 136.35 631.6 136.35 616.35 123.35 L611.6 118.85 Q607.0 120.7 603.25 121.65 602.4 124.8 600.35 129.05 596.35 137.45 589.75 144.65 571.55 164.5 544.25 164.5 528.65 164.5 521.75 160.75 L520.0 161.9 510.15 168.25 Q493.8 177.5 475.6 177.5 444.85 177.5 424.75 164.0 420.85 161.4 417.8 158.6 415.65 162.95 413.0 167.0 392.95 197.5 351.0 197.5 325.8 197.5 307.35 186.25 L304.95 184.7 289.85 185.75 Q254.7 185.75 239.25 162.55 234.1 154.85 231.75 145.35 230.25 139.3 230.25 135.0 L230.45 129.35 Q224.3 127.3 219.6 123.9 203.55 134.35 185.75 134.35 168.95 134.35 160.0 129.35 152.5 131.6 148.6 131.6 115.65 131.6 110.75 104.7 105.55 101.4 101.7 95.85 99.35 92.5 96.45 86.35 94.45 82.05 93.5 82.0 74.6 81.05 58.95 75.4 43.55 69.85 39.5 62.75 36.85 58.2 21.55 49.05 6.9 40.3 4.75 35.0 L-1.65 19.35 Q-2.25 17.15 -2.25 6.85 -2.25 5.35 -0.95 3.25 0.45 0.95 2.25 -0.1 4.9 -1.6 7.05 0.0 L847.45 0.0 853.95 -0.6 Q861.4 -0.85 867.05 0.45 873.0 1.8 873.0 4.1 L872.65 5.2" fill="#140525" fill-rule="evenodd" stroke="none"/>
    </g>
    <g id="sprite1" transform="matrix(1.0, 0.0, 0.0, 1.0, -40.75, -55.75)">
      <use ffdec:characterId="26" height="205.35" transform="matrix(1.0, 0.0, 0.0, 1.0, 40.75, 55.75)" width="887.0" xlink:href="#shape1"/>
    </g>
    <g id="shape1" transform="matrix(1.0, 0.0, 0.0, 1.0, -40.75, -55.75)">
      <path d="M921.3 55.75 Q922.4 58.45 925.1 73.05 927.75 87.7 927.75 91.3 927.75 103.55 920.25 113.6 914.65 121.1 903.6 128.5 891.35 136.05 886.6 139.3 878.6 144.8 878.0 149.2 875.95 164.6 863.25 179.25 852.75 191.45 838.4 197.7 830.5 201.8 821.25 204.5 L796.4 204.5 Q788.6 203.9 777.7 199.45 L775.1 199.45 Q774.0 199.45 766.55 195.2 759.15 190.9 754.4 190.9 L747.65 190.45 746.7 190.4 742.8 192.3 Q722.6 201.6 699.95 201.6 682.9 201.6 671.05 193.6 665.65 189.6 663.1 188.1 658.95 185.6 654.8 185.6 L653.05 185.85 Q652.1 189.8 649.65 194.5 645.3 202.95 637.8 210.1 618.65 228.45 591.15 228.45 577.25 228.45 570.15 223.95 L570.1 223.95 Q565.75 229.25 558.3 233.75 540.5 244.55 517.35 244.55 L504.65 243.55 Q484.45 243.5 475.15 234.5 471.0 231.8 467.8 228.7 L467.5 228.35 466.25 228.1 Q464.9 230.45 462.6 233.25 457.35 239.5 448.85 245.3 430.3 258.0 412.85 259.05 404.4 261.1 395.55 261.1 379.65 261.1 351.8 251.85 346.2 253.35 336.6 253.35 296.0 253.35 279.9 221.65 273.2 208.5 271.75 193.1 269.1 189.65 266.65 187.9 264.3 186.25 261.15 185.4 258.2 188.95 251.45 192.65 238.9 199.4 225.4 199.4 L215.25 198.5 Q213.45 198.1 209.95 196.55 203.45 193.65 189.5 193.65 183.65 193.65 178.75 192.25 165.95 190.3 160.6 183.0 159.4 181.4 155.85 174.35 153.15 169.05 150.0 166.5 145.55 162.95 144.1 158.1 143.4 155.95 143.05 150.4 142.7 146.2 141.25 144.6 139.1 142.4 133.15 142.4 L132.8 142.35 Q125.7 145.65 116.15 145.65 112.8 145.65 109.0 144.15 92.45 143.6 85.4 134.45 83.85 132.4 81.3 127.25 79.4 123.6 77.8 122.95 64.9 117.7 59.7 114.55 53.35 110.75 52.45 107.05 48.7 102.85 45.25 94.05 40.75 82.5 40.75 76.8 40.75 67.8 46.2 62.4 48.3 60.25 49.85 60.6 51.55 60.95 51.55 64.15 51.55 64.7 49.2 69.25 47.65 72.05 47.1 74.65 L47.95 78.15 Q49.75 85.2 52.05 87.25 54.1 89.15 55.85 91.85 L58.6 96.15 Q62.15 101.15 70.0 103.6 82.05 107.35 84.75 108.45 93.25 111.9 93.7 115.4 94.15 119.7 96.6 123.55 L96.9 123.95 98.0 124.7 Q103.1 127.7 106.95 127.7 L115.0 126.45 123.05 125.2 Q126.65 125.2 128.95 126.35 127.1 123.05 125.6 121.95 121.2 118.75 114.35 109.1 107.6 99.7 107.6 97.15 107.6 95.0 108.8 92.05 109.45 90.45 109.95 89.7 109.7 90.1 109.7 91.3 109.7 95.5 114.2 101.2 119.3 107.65 125.35 108.1 137.9 109.15 141.75 114.0 L144.8 119.25 Q146.7 122.75 149.0 125.4 150.55 126.4 152.25 127.1 L155.45 128.2 161.65 128.95 Q171.0 128.95 171.65 126.6 171.95 125.5 172.3 125.1 L172.0 124.65 Q169.25 120.7 167.35 115.95 166.0 112.6 166.0 111.9 L166.0 110.15 166.7 110.15 171.75 115.9 Q174.7 118.9 178.2 120.7 187.15 125.2 208.15 125.7 L208.35 126.5 208.6 128.8 Q208.6 131.85 204.0 134.55 199.6 137.1 195.0 137.1 187.9 137.1 182.1 134.0 L182.35 138.0 182.5 138.9 182.6 139.1 Q184.75 143.55 190.85 148.95 L193.6 150.2 Q204.85 154.45 214.35 154.45 L217.65 154.1 222.0 152.55 225.35 151.3 226.05 150.9 233.25 146.9 233.85 147.4 235.55 146.4 237.0 146.65 Q237.6 146.85 237.6 148.4 237.6 152.05 229.95 156.05 227.85 158.45 224.75 161.1 215.35 169.0 205.15 169.0 186.35 169.0 176.85 157.7 173.7 154.05 172.0 149.6 L171.15 147.05 Q169.4 144.15 169.25 141.15 167.9 141.5 163.8 143.7 161.65 144.85 158.55 145.1 L158.5 145.4 Q158.5 152.3 165.95 158.75 174.0 165.75 184.45 165.75 182.05 168.0 175.7 170.2 169.65 172.3 166.45 172.3 L164.4 172.2 Q165.4 174.1 166.55 175.7 172.65 184.1 181.2 184.1 L195.85 183.6 198.05 182.85 202.85 180.8 Q203.7 180.8 204.5 181.25 L208.85 180.8 Q210.1 180.8 215.55 182.5 221.0 184.1 225.85 184.1 236.55 184.1 245.4 178.2 249.2 175.4 250.9 174.3 242.9 166.05 242.9 153.45 242.9 151.55 243.3 150.55 243.75 149.45 244.75 148.9 247.65 152.55 253.25 157.7 260.4 164.35 264.65 166.0 279.05 171.8 293.7 171.65 L297.15 171.75 310.7 170.5 311.05 170.35 Q311.4 170.35 311.4 171.95 311.4 176.7 305.0 180.55 302.95 181.85 301.0 182.65 L299.4 183.95 Q297.15 187.85 293.65 187.85 L291.8 187.85 287.0 188.6 Q287.8 191.95 288.8 199.55 289.95 207.8 291.1 211.35 292.75 216.15 299.35 222.35 302.55 225.3 306.25 227.9 317.8 234.15 333.6 235.6 329.8 230.2 328.4 223.75 323.15 220.65 318.55 216.2 314.35 212.0 313.0 208.7 309.15 206.8 306.1 203.55 304.35 201.7 303.15 199.9 301.2 197.85 300.35 195.65 L301.05 195.75 300.8 194.4 Q302.55 194.65 308.5 196.7 315.0 198.65 320.6 198.65 L326.05 198.55 326.95 198.4 327.55 198.45 334.95 197.45 343.55 194.9 344.85 195.15 Q345.35 195.35 345.35 196.9 345.35 200.5 340.35 205.35 338.85 206.8 337.15 207.95 L338.6 210.8 342.45 220.25 344.85 225.95 Q356.55 237.0 374.6 237.0 383.3 237.0 390.25 235.2 399.25 230.4 400.15 229.7 L393.7 222.8 Q390.75 219.35 390.75 218.0 390.75 216.2 391.25 215.35 391.75 214.6 392.8 214.4 393.6 216.4 395.65 217.95 L396.5 217.9 Q404.25 217.9 411.75 219.55 419.25 221.15 431.1 221.15 440.55 221.15 448.8 214.2 L449.8 213.35 447.2 212.15 Q445.6 211.15 442.85 208.55 439.95 205.8 437.35 204.1 L437.6 202.65 Q437.9 202.2 439.4 202.2 L446.0 203.15 452.55 204.1 Q460.4 204.1 471.1 201.15 L479.5 198.6 479.9 198.3 490.45 190.6 Q492.75 188.7 496.2 188.3 497.5 187.35 499.4 187.35 501.8 187.35 508.6 188.85 L516.0 190.35 Q520.15 190.35 523.85 188.75 L523.6 188.6 525.45 187.95 Q527.65 186.75 529.65 185.0 L533.35 181.3 Q534.9 179.55 535.3 179.55 536.5 179.55 541.0 180.7 L546.6 181.85 561.35 179.55 Q558.65 184.05 549.9 186.65 544.0 188.4 540.85 190.65 L545.25 193.0 Q553.45 197.55 557.55 199.15 565.2 202.2 572.6 202.2 579.5 202.2 590.8 194.8 598.45 189.75 598.6 189.65 600.75 188.35 602.35 187.8 604.55 185.6 605.4 185.6 607.0 185.6 609.3 187.15 611.15 188.45 612.3 189.85 L623.15 189.85 Q629.0 187.95 635.75 182.95 L645.4 175.2 Q649.75 171.85 651.5 172.6 L651.7 172.7 Q656.0 169.0 661.25 169.0 665.0 169.0 667.9 171.2 L673.45 175.95 Q682.5 182.85 703.15 182.85 718.1 182.85 730.45 179.85 734.55 178.15 738.75 176.05 754.0 168.35 760.85 160.75 L761.6 159.85 Q750.05 165.75 730.8 165.75 721.25 165.75 714.35 163.15 710.25 161.6 703.9 157.35 697.55 153.15 693.25 151.55 686.25 148.9 676.45 148.9 666.3 148.9 663.1 145.95 661.2 142.55 658.95 141.65 L659.45 140.15 Q660.6 140.05 661.6 140.75 L663.55 142.3 Q666.95 144.65 673.7 144.65 L697.2 138.6 Q703.65 138.6 706.85 141.3 708.4 142.55 711.0 147.15 713.3 151.25 716.4 153.05 721.05 155.7 729.9 155.7 749.75 155.7 758.55 143.15 764.05 135.4 764.05 126.45 764.05 120.0 765.6 117.8 766.8 116.15 770.55 115.8 L779.1 114.55 Q785.35 112.95 791.7 108.35 L793.0 108.6 Q793.5 108.8 793.5 110.4 793.5 113.7 789.1 120.65 783.95 128.75 778.55 129.6 778.6 133.9 778.0 137.65 L778.65 137.4 Q783.15 135.85 792.5 135.85 802.2 135.85 812.15 122.8 819.4 113.3 823.35 102.85 824.9 98.45 826.15 97.35 829.35 94.25 838.8 92.8 844.55 91.9 851.95 86.75 859.05 81.85 861.1 81.75 L861.35 81.35 Q861.6 81.3 861.6 82.85 861.6 89.7 848.7 100.45 L839.25 108.15 Q834.6 112.25 833.75 114.65 831.1 121.8 821.45 131.0 815.1 137.0 807.6 142.2 L806.65 142.9 804.75 144.1 804.0 144.6 798.5 147.9 Q797.05 148.7 793.35 149.4 L789.4 150.45 Q787.1 150.9 785.15 152.0 L784.3 152.95 Q781.65 157.6 778.8 161.25 L768.25 173.8 Q772.35 176.95 775.4 178.75 789.7 187.15 810.2 187.15 828.6 187.15 840.05 181.0 847.45 176.2 852.9 168.7 856.4 163.25 859.1 155.7 L863.0 144.1 863.3 143.4 863.3 143.2 Q853.85 141.55 849.45 140.05 844.2 138.1 841.75 135.0 843.7 131.9 851.4 132.0 L863.3 131.25 Q869.5 128.65 873.35 128.4 879.4 124.2 888.6 124.2 899.5 124.2 905.55 116.1 910.3 109.75 912.85 96.9 L916.15 74.25 Q918.15 61.35 921.3 55.75 M504.25 162.4 L513.7 161.5 Q516.8 161.5 526.6 157.95 L535.9 154.45 537.65 154.7 538.3 155.45 Q536.5 160.65 527.45 166.4 514.9 174.3 497.55 174.3 487.55 174.3 478.65 168.3 L476.8 172.0 Q473.55 177.8 468.45 183.15 455.7 196.3 442.4 196.4 L438.55 198.45 Q426.15 204.6 405.25 204.6 388.8 204.6 366.1 183.95 356.9 175.5 350.8 167.15 344.7 158.65 344.7 154.2 344.7 153.35 338.25 148.5 330.5 142.75 327.85 139.9 336.35 142.05 342.3 146.75 348.6 151.75 348.6 157.1 348.6 162.45 353.45 168.5 358.65 175.0 367.95 180.3 390.85 193.4 426.5 193.4 431.45 193.4 437.9 191.75 440.35 189.85 444.5 187.5 449.3 184.8 458.75 179.8 465.75 176.0 470.9 169.65 L474.55 165.2 471.9 162.8 Q467.4 158.35 461.05 148.65 L461.3 148.4 461.5 148.15 465.3 151.05 Q469.1 154.0 472.75 156.15 484.5 163.25 494.8 163.25 L504.25 162.4 M534.7 197.3 Q531.8 199.85 527.95 201.7 521.9 204.6 516.0 204.6 L512.05 204.2 509.55 204.35 Q505.55 204.35 502.75 203.2 498.85 207.05 490.2 210.35 481.05 213.95 473.75 215.0 478.8 218.0 484.0 220.55 502.25 229.45 516.65 229.7 523.65 228.65 532.35 226.45 545.6 223.1 548.2 221.65 549.9 220.8 554.1 216.7 L556.0 214.95 554.95 214.55 Q549.2 212.15 543.85 206.95 L534.8 197.45 534.7 197.3 M611.85 195.9 L604.0 204.75 Q600.55 208.2 597.55 209.6 594.6 212.0 591.25 213.65 L591.95 213.65 Q608.0 213.65 621.9 205.45 633.4 198.65 637.3 190.85 L637.55 190.1 Q635.6 190.45 634.45 191.35 L632.15 193.0 Q627.9 195.15 611.85 195.9 M449.6 222.6 L440.45 227.85 Q426.95 235.5 418.7 235.5 414.25 235.5 410.4 234.4 L407.55 236.9 Q405.95 240.1 403.75 243.15 408.9 245.8 415.9 245.8 422.15 245.8 433.9 238.65 L438.6 235.7 452.05 223.3 453.65 222.2 455.55 220.15 Q453.7 220.25 449.6 222.6 M390.3 255.0 L389.95 254.8 389.6 255.0 390.3 255.0 M235.15 115.45 L238.1 119.5 Q240.7 121.95 252.1 121.95 L262.0 123.1 271.9 124.2 280.5 123.2 289.05 122.2 291.95 122.6 294.8 123.2 295.25 124.7 Q292.2 127.2 284.2 131.2 273.05 136.85 266.4 136.85 253.5 136.85 241.2 127.4 229.5 118.35 228.4 109.15 L229.35 108.9 Q232.65 112.05 235.15 115.45" fill="#4b4f5c" fill-rule="evenodd" stroke="none"/>
    </g>
  </defs>
</svg>
