<?xml version="1.0" encoding="UTF-8" standalone="no"?>
<svg xmlns:ffdec="https://www.free-decompiler.com/flash" xmlns:xlink="http://www.w3.org/1999/xlink" ffdec:objectType="frame" height="98.3px" width="160.1px" xmlns="http://www.w3.org/2000/svg">
  <g transform="matrix(1.0, 0.0, 0.0, 1.0, 79.5, 87.5)">
    <use ffdec:characterId="179" height="68.4" transform="matrix(1.0, 0.0, 0.0, 1.0, -29.4, -57.6)" width="70.7" xlink:href="#shape0"/>
  </g>
  <defs>
    <g id="shape0" transform="matrix(1.0, 0.0, 0.0, 1.0, 29.4, 57.6)">
      <path d="M23.0 -57.6 L24.4 -57.5 Q26.5 -56.95 27.05 -53.8 L27.2 -49.4 Q27.2 -45.2 25.7 -38.25 24.2 -31.3 24.2 -30.2 24.2 -29.7 24.7 -29.45 25.2 -29.2 25.2 -28.7 25.2 -27.3 24.1 -25.7 L25.6 -25.5 Q26.0 -25.1 26.0 -24.6 L33.1 -30.6 Q39.1 -35.7 40.2 -35.7 L41.1 -35.5 41.3 -33.55 Q41.3 -28.95 32.5 -15.75 28.05 -9.0 22.6 -1.9 L22.05 -2.05 Q21.9 -2.2 21.9 -2.85 L22.35 -3.85 22.3 -3.9 Q21.65 -2.6 19.55 -0.15 L16.2 3.6 15.2 2.75 Q15.2 0.4 16.4 -2.5 L16.3 -2.8 8.5 5.05 Q2.8 10.8 1.0 10.8 -4.55 10.8 -7.9 6.7 L-10.6 2.95 Q-12.35 0.65 -14.1 -0.7 -14.4 -0.4 -14.4 0.8 L-14.0 2.25 -13.6 3.65 -13.6 4.15 Q-13.3 4.4 -14.2 4.4 -15.4 4.4 -17.6 0.1 L-20.6 -6.2 -23.3 -10.85 Q-25.8 -15.35 -25.8 -16.7 L-25.75 -17.25 Q-29.4 -24.75 -29.4 -26.2 L-29.4 -26.5 -29.3 -26.65 -28.8 -26.9 Q-28.1 -25.45 -27.4 -24.95 -26.9 -24.55 -25.0 -23.5 -22.45 -25.85 -22.7 -30.15 -23.4 -35.0 -23.4 -37.1 L-23.35 -44.0 Q-23.05 -48.25 -21.2 -50.9 L-19.6 -50.9 Q-15.65 -48.7 -12.65 -44.0 -9.5 -39.0 -6.6 -37.1 L-5.4 -37.2 Q-5.1 -37.35 -4.35 -38.25 L-3.6 -39.3 Q-1.25 -38.35 0.5 -36.35 L3.0 -33.3 Q6.3 -33.65 10.45 -39.05 12.55 -41.8 14.7 -45.4 L18.55 -51.7 Q20.8 -55.6 23.0 -57.6" fill="#afbfc2" fill-rule="evenodd" stroke="none"/>
    </g>
  </defs>
</svg>
