<?xml version="1.0" encoding="UTF-8" standalone="no"?>
<svg xmlns:ffdec="https://www.free-decompiler.com/flash" xmlns:xlink="http://www.w3.org/1999/xlink" ffdec:objectType="frame" height="98.3px" width="160.1px" xmlns="http://www.w3.org/2000/svg">
  <g transform="matrix(1.0, 0.0, 0.0, 1.0, 79.5, 87.5)">
    <use ffdec:characterId="185" height="43.9" transform="matrix(1.0, 0.0, 0.0, 1.0, -66.4, -81.7)" width="142.7" xlink:href="#shape0"/>
  </g>
  <defs>
    <g id="shape0" transform="matrix(1.0, 0.0, 0.0, 1.0, 66.4, 81.7)">
      <path d="M64.5 -76.3 L64.7 -76.6 Q65.55 -76.25 67.25 -74.45 L69.4 -72.1 Q70.2 -71.3 71.05 -69.55 L72.2 -67.3 Q72.55 -66.75 73.85 -65.65 74.45 -65.1 75.1 -62.5 L75.25 -60.15 75.1 -58.15 Q75.1 -57.7 75.7 -56.5 L76.3 -55.15 Q76.3 -52.85 75.35 -50.6 74.0 -47.55 71.4 -46.7 L71.3 -45.1 Q71.2 -44.2 70.0 -43.4 66.4 -41.0 63.8 -41.0 L56.1 -41.3 Q53.9 -42.15 51.65 -44.15 49.45 -46.1 47.6 -46.7 L40.25 -49.1 Q39.9 -49.35 39.9 -51.7 39.9 -52.0 38.65 -52.7 L37.3 -53.3 Q32.15 -53.3 29.9 -50.75 L28.3 -47.6 27.0 -47.1 Q26.25 -47.15 25.9 -47.5 L25.1 -47.8 Q21.95 -47.8 20.45 -45.4 L19.3 -42.6 Q18.45 -41.4 14.95 -39.6 11.55 -37.8 10.4 -37.8 L9.25 -37.9 7.9 -37.9 Q3.15 -38.45 1.2 -40.45 L-0.6 -43.3 Q-3.7 -44.25 -4.3 -45.95 -4.5 -47.75 -5.1 -48.5 L-8.3 -49.6 -10.7 -50.5 Q-13.75 -50.5 -15.9 -49.55 L-21.0 -47.4 -22.0 -47.5 -22.95 -48.55 -24.2 -49.4 Q-27.15 -49.4 -29.4 -46.4 -31.7 -43.4 -34.2 -43.4 L-36.65 -43.7 -39.2 -44.3 -40.35 -45.65 -41.4 -46.9 -44.0 -47.1 Q-45.75 -48.2 -45.85 -48.85 L-45.6 -50.5 Q-45.6 -52.05 -46.3 -52.9 L-47.2 -53.35 -48.2 -53.7 -51.4 -53.6 Q-52.6 -52.85 -53.2 -51.9 -53.6 -51.4 -54.6 -51.4 -60.3 -51.4 -62.4 -54.55 L-63.7 -58.6 -65.2 -58.9 Q-65.8 -59.4 -66.15 -60.85 L-66.4 -62.65 Q-66.4 -64.7 -65.0 -66.7 L-63.15 -69.4 -63.2 -70.1 -63.1 -70.65 -62.95 -70.8 -63.2 -70.9 -62.3 -71.9 -62.1 -72.2 -62.2 -72.8 -61.35 -73.75 -60.2 -75.2 Q-59.65 -76.65 -58.6 -77.6 -57.7 -78.35 -54.95 -79.45 L-51.2 -80.9 -51.0 -80.6 Q-52.05 -79.7 -52.85 -79.1 -54.4 -77.95 -55.7 -77.6 -56.7 -76.6 -56.3 -75.2 L-56.8 -74.8 -56.8 -74.35 -58.3 -71.85 -58.2 -71.0 -56.8 -70.9 Q-56.1 -70.3 -55.85 -69.05 L-55.7 -66.7 Q-55.6 -65.45 -53.25 -64.8 L-50.5 -64.4 Q-49.8 -64.4 -48.3 -66.3 L-47.3 -67.15 -46.2 -67.8 -44.5 -68.6 -44.65 -68.7 -44.7 -69.35 -44.45 -70.05 -43.6 -70.2 -43.3 -69.9 Q-43.3 -69.35 -43.55 -69.05 L-42.2 -69.4 -41.4 -70.6 -40.75 -70.65 Q-40.6 -70.65 -40.6 -70.05 -40.6 -69.35 -41.35 -68.55 L-42.6 -67.2 -42.5 -66.7 -41.2 -66.5 -41.2 -65.65 -41.4 -64.55 Q-41.4 -63.95 -41.05 -63.7 L-40.6 -63.5 -38.6 -63.6 Q-38.1 -63.95 -37.55 -64.75 -36.75 -65.4 -34.6 -65.6 L-33.7 -67.05 Q-33.9 -67.1 -33.9 -67.4 L-32.8 -68.45 -33.3 -68.45 Q-33.5 -68.45 -33.5 -69.05 L-33.0 -69.85 -32.45 -70.4 -32.6 -71.3 Q-32.6 -72.25 -31.8 -73.45 L-31.3 -74.2 -31.8 -75.45 -31.55 -76.65 -30.2 -78.1 -29.0 -79.2 -27.8 -80.2 -27.25 -80.1 -26.6 -79.8 -28.5 -77.65 Q-29.4 -76.75 -29.4 -76.2 L-28.65 -75.35 Q-27.9 -74.5 -27.8 -73.9 -27.45 -72.0 -26.7 -71.2 L-25.4 -71.2 Q-24.85 -71.45 -23.6 -73.3 L-21.0 -73.6 -19.7 -75.2 -18.4 -76.9 -17.6 -76.9 -17.0 -74.95 -16.7 -74.0 -16.7 -74.15 -16.6 -75.0 -16.0 -75.0 -15.6 -74.5 Q-15.55 -75.65 -14.8 -76.0 -14.2 -75.7 -14.0 -74.6 L-14.1 -74.0 -14.4 -73.7 -15.3 -73.7 -15.4 -73.6 -15.75 -73.3 -15.7 -72.6 Q-15.7 -72.05 -16.7 -70.75 -17.6 -69.6 -17.65 -69.0 L-17.1 -67.65 -16.7 -67.1 -16.7 -66.85 Q-15.9 -65.6 -15.1 -65.2 L-12.8 -64.9 -11.95 -63.9 Q-11.35 -63.5 -11.0 -63.5 -7.9 -63.5 -7.8 -65.65 L-8.3 -67.9 Q-8.3 -68.8 -7.6 -70.9 -7.05 -70.6 -6.85 -69.9 L-6.4 -68.2 -6.3 -68.15 -6.2 -68.0 -5.0 -68.1 -3.4 -66.8 Q-2.5 -65.85 -2.5 -65.2 L-3.05 -64.15 -3.6 -63.1 Q-3.6 -62.45 -1.6 -60.35 L-1.0 -60.1 1.0 -60.1 2.7 -61.0 3.5 -61.0 3.8 -61.4 5.9 -60.3 7.25 -60.6 9.3 -61.2 Q9.55 -62.25 9.3 -62.75 L9.0 -63.6 10.2 -65.2 Q11.4 -66.7 11.4 -67.5 11.4 -68.4 10.6 -70.2 L10.7 -70.5 Q11.55 -70.45 12.0 -69.35 L12.5 -67.5 13.5 -67.2 Q14.2 -66.7 13.95 -64.35 13.75 -62.3 16.2 -61.5 18.1 -61.35 18.55 -62.05 19.4 -63.3 20.6 -63.9 L22.05 -63.7 23.3 -63.8 23.3 -65.9 23.4 -66.6 23.8 -66.7 24.3 -66.35 24.4 -66.4 25.0 -66.3 Q25.75 -67.15 25.65 -67.9 L25.4 -69.1 26.25 -69.4 27.1 -69.6 27.45 -68.15 27.6 -67.9 28.05 -67.45 29.6 -67.3 29.9 -65.65 29.55 -65.15 29.2 -64.85 29.05 -63.9 29.1 -63.8 30.7 -63.9 31.1 -63.35 32.65 -65.25 33.7 -67.2 34.0 -69.0 34.1 -70.8 Q34.2 -71.55 35.1 -72.3 L37.3 -74.3 Q37.8 -74.85 37.85 -75.95 L37.9 -77.8 Q38.75 -77.35 39.75 -75.15 41.15 -72.05 41.5 -71.5 41.6 -71.3 42.65 -70.5 L42.6 -70.6 44.65 -70.95 Q45.5 -71.3 45.5 -72.15 L45.1 -73.3 Q44.7 -73.95 44.7 -74.45 L45.45 -76.05 46.4 -77.6 47.2 -77.6 48.2 -77.5 Q48.4 -77.7 48.4 -78.7 L48.7 -78.7 48.85 -77.9 49.1 -77.9 49.2 -76.1 50.6 -76.3 Q52.2 -76.3 52.6 -72.75 L52.3 -71.45 51.8 -70.2 Q52.6 -69.2 50.5 -70.5 49.25 -70.5 48.0 -68.3 L47.3 -66.7 Q47.65 -65.95 47.25 -65.3 L48.4 -63.5 48.1 -63.0 48.6 -62.5 52.4 -62.3 Q53.2 -61.7 53.2 -60.9 L54.8 -60.45 55.2 -60.1 Q59.25 -60.6 61.2 -62.2 L64.2 -64.7 65.7 -64.45 66.55 -64.3 Q67.0 -64.3 68.1 -67.15 68.1 -68.05 66.9 -69.55 65.7 -71.05 65.7 -71.65 L65.9 -72.6 66.5 -73.3 65.35 -74.5 Q64.5 -75.5 64.5 -76.3 M60.2 -78.1 Q60.95 -77.8 61.1 -77.3 L60.2 -76.3 59.65 -76.45 Q59.5 -76.6 59.5 -77.25 59.5 -77.9 59.7 -78.0 L60.2 -78.1 M21.9 -78.0 L24.3 -78.0 25.4 -77.05 Q25.65 -76.25 26.5 -75.4 L26.5 -73.0 26.2 -72.7 25.5 -72.8 25.5 -74.5 24.6 -74.3 22.4 -74.4 Q21.15 -75.3 20.4 -76.45 19.55 -77.7 19.8 -78.6 18.8 -78.8 18.7 -79.1 L19.0 -79.3 Q20.05 -79.4 20.5 -78.85 L20.9 -77.9 21.9 -78.0 M25.8 -70.25 L25.05 -70.1 24.25 -70.25 24.2 -70.4 24.2 -71.2 24.85 -71.2 Q25.45 -71.05 25.9 -70.6 L25.8 -70.25 M24.95 -65.5 L24.8 -65.5 24.85 -65.3 24.95 -65.5 M29.0 -66.5 L28.8 -66.5 28.9 -66.3 29.0 -66.4 29.0 -66.5 M-11.45 -78.35 L-11.4 -78.2 -10.4 -78.2 -10.1 -77.9 -10.3 -77.4 -11.2 -77.3 Q-11.5 -76.75 -11.5 -77.75 L-11.45 -78.35 M-38.0 -74.5 L-37.9 -74.55 -37.8 -73.9 Q-37.8 -73.35 -38.05 -73.1 L-39.4 -72.1 -40.2 -72.9 -39.0 -74.6 -38.0 -74.5 M-24.6 -81.0 Q-24.8 -80.45 -25.4 -80.2 L-25.9 -80.4 -25.8 -81.4 -24.8 -81.3 -24.6 -81.0 M-55.8 -74.5 L-54.9 -74.5 -54.7 -73.7 -54.9 -72.8 -55.2 -72.5 -56.4 -72.5 -56.5 -73.55 Q-56.5 -74.15 -56.15 -74.35 L-55.8 -74.5 M-48.4 -81.7 L-48.2 -81.4 -49.0 -80.6 Q-49.6 -80.7 -49.8 -81.0 -49.35 -81.7 -48.4 -81.7 M-55.6 -70.75 Q-56.05 -70.75 -56.2 -71.0 -56.05 -71.5 -55.0 -71.0 -55.15 -70.75 -55.6 -70.75" fill="#afbfc2" fill-rule="evenodd" stroke="none"/>
    </g>
  </defs>
</svg>
