<?xml version="1.0" encoding="UTF-8" standalone="no"?>
<svg xmlns:ffdec="https://www.free-decompiler.com/flash" xmlns:xlink="http://www.w3.org/1999/xlink" ffdec:objectType="frame" height="98.3px" width="160.1px" xmlns="http://www.w3.org/2000/svg">
  <g transform="matrix(1.0, 0.0, 0.0, 1.0, 79.5, 87.5)">
    <use ffdec:characterId="186" height="55.8" transform="matrix(1.0, 0.0, 0.0, 1.0, -73.05, -79.7)" width="151.35" xlink:href="#shape0"/>
  </g>
  <defs>
    <g id="shape0" transform="matrix(1.0, 0.0, 0.0, 1.0, 73.05, 79.7)">
      <path d="M66.0 -74.7 L66.8 -73.8 66.7 -73.5 Q66.5 -73.3 66.2 -73.2 65.2 -73.35 65.2 -73.9 L65.3 -74.7 66.0 -74.7 M45.0 -74.7 L45.75 -74.6 46.7 -74.3 46.25 -73.7 45.9 -73.2 46.8 -73.0 47.3 -71.25 47.0 -70.0 47.45 -69.6 Q47.6 -69.4 48.2 -69.4 L49.35 -70.15 Q50.1 -70.8 51.2 -70.5 L51.3 -71.2 51.0 -71.7 51.05 -71.85 51.4 -72.2 52.6 -70.6 Q53.4 -69.5 53.4 -68.8 L52.95 -67.5 51.6 -65.5 49.1 -65.5 48.3 -66.7 48.2 -67.3 46.8 -67.5 Q46.55 -68.35 46.65 -68.9 L45.75 -68.8 Q45.05 -68.8 44.5 -71.05 L44.1 -73.45 Q44.1 -74.1 44.4 -74.35 L45.0 -74.7 M51.4 -73.0 Q50.65 -73.3 50.5 -73.8 50.55 -74.0 50.95 -74.2 51.25 -74.4 51.5 -74.4 51.9 -74.0 51.9 -73.5 L51.4 -73.0 M42.4 -62.6 L43.5 -62.3 43.6 -61.1 45.1 -59.5 Q45.5 -59.0 45.5 -58.4 45.5 -55.7 43.5 -56.3 L42.9 -55.4 Q42.6 -54.85 42.6 -54.2 42.6 -53.3 43.85 -52.5 L46.3 -51.1 48.45 -50.7 49.2 -50.1 50.15 -51.05 Q51.1 -51.8 53.0 -52.0 52.2 -53.2 52.2 -54.25 L52.3 -55.0 Q52.5 -55.55 53.4 -55.8 L54.0 -55.7 54.0 -55.35 53.8 -54.5 Q53.8 -53.4 54.5 -53.3 L55.4 -53.4 Q57.0 -53.4 57.8 -50.9 57.8 -50.4 57.4 -49.85 L57.0 -48.8 Q57.0 -48.25 57.3 -47.75 57.85 -46.85 59.2 -46.9 L59.05 -46.8 59.6 -46.7 60.9 -46.9 60.75 -48.5 Q60.9 -49.55 62.2 -49.9 L62.65 -50.05 Q63.05 -50.1 63.1 -49.65 L63.75 -49.0 63.8 -48.1 65.0 -49.0 66.8 -48.9 Q67.25 -48.65 67.2 -47.7 67.2 -47.3 70.1 -47.3 71.95 -47.3 72.65 -49.45 L73.0 -51.8 Q73.05 -53.75 74.25 -54.25 75.4 -54.75 75.4 -55.55 75.4 -56.6 74.25 -57.55 72.75 -58.75 72.5 -59.3 71.8 -60.75 71.8 -62.9 71.8 -63.5 72.2 -63.75 L72.7 -64.1 72.4 -64.3 Q72.2 -64.4 72.2 -65.0 72.2 -65.6 72.3 -65.5 L72.6 -65.3 72.6 -65.4 73.4 -65.3 73.3 -63.95 Q73.3 -63.65 74.3 -62.45 75.25 -61.3 75.5 -60.0 L76.4 -58.9 Q77.1 -57.5 77.1 -55.8 L77.1 -55.55 Q76.3 -54.8 76.3 -53.2 L76.35 -52.8 76.3 -52.5 76.4 -52.45 Q76.45 -52.1 76.65 -51.7 77.15 -50.5 78.25 -50.3 L78.3 -49.2 Q78.3 -45.15 77.35 -41.9 75.65 -35.9 71.4 -36.3 70.2 -35.9 69.8 -34.75 69.35 -33.3 68.2 -32.5 L64.6 -32.1 59.9 -32.55 Q58.2 -33.15 57.3 -35.4 56.95 -36.3 55.85 -37.3 L53.8 -38.9 49.2 -39.5 48.2 -40.3 Q47.45 -40.8 47.0 -41.6 L47.0 -43.7 Q46.9 -44.35 45.15 -45.4 43.45 -46.45 41.8 -46.9 41.25 -46.9 39.15 -45.95 37.05 -45.0 36.2 -45.0 L34.0 -45.1 33.75 -45.65 Q33.6 -46.0 33.0 -46.0 L32.0 -45.85 30.5 -45.6 29.4 -43.2 30.4 -42.9 30.75 -42.25 30.8 -42.3 31.1 -42.1 31.2 -41.4 30.95 -40.35 30.75 -40.15 Q30.75 -39.1 29.85 -37.95 28.35 -36.05 25.5 -36.9 23.9 -36.45 22.85 -35.2 21.9 -34.1 22.0 -33.1 22.15 -31.2 20.7 -29.5 L18.65 -27.75 Q17.1 -26.55 16.8 -25.9 L16.7 -25.3 Q14.3 -24.1 12.1 -23.9 10.5 -24.1 9.05 -25.45 L8.5 -26.6 Q7.65 -28.0 6.9 -28.25 L6.2 -29.0 Q3.85 -29.35 2.9 -28.6 L2.7 -28.2 -0.45 -28.15 -0.6 -28.3 Q-5.15 -29.7 -6.4 -31.95 L-7.4 -36.1 Q-8.2 -38.9 -13.05 -39.95 -17.25 -40.85 -16.6 -43.1 L-17.8 -43.55 -19.3 -43.75 -19.9 -43.65 -22.6 -43.1 -23.95 -41.1 Q-24.75 -39.8 -27.4 -39.1 -30.75 -38.2 -31.2 -37.65 L-31.3 -35.6 Q-31.3 -35.1 -32.05 -34.55 -33.15 -33.65 -35.3 -33.5 -35.65 -32.4 -36.05 -32.0 -36.75 -31.3 -38.2 -31.3 -44.3 -31.3 -46.3 -36.6 -46.95 -38.25 -47.1 -40.25 L-47.1 -42.0 Q-48.05 -42.6 -48.2 -43.5 L-48.2 -45.0 -49.5 -46.3 Q-50.75 -47.3 -51.0 -47.3 -52.0 -47.3 -53.75 -46.0 -55.15 -44.95 -57.4 -45.7 L-63.55 -44.7 -65.9 -44.55 -68.95 -44.4 -70.2 -45.05 Q-72.65 -46.05 -72.9 -48.0 L-73.05 -51.3 -73.0 -54.0 Q-73.0 -56.7 -72.6 -57.6 L-71.6 -59.4 -71.1 -59.7 -70.1 -60.1 Q-69.05 -60.65 -68.4 -63.2 L-68.15 -64.15 -67.6 -66.1 -67.4 -66.1 -67.3 -66.3 -67.25 -66.15 -65.5 -66.4 Q-64.7 -68.55 -63.6 -68.9 L-63.5 -69.05 -63.4 -68.45 Q-63.4 -68.25 -64.75 -65.6 -65.95 -63.2 -65.4 -62.0 L-65.5 -61.5 Q-66.95 -61.95 -67.9 -60.5 -68.6 -59.4 -68.6 -58.35 -68.6 -57.45 -68.4 -57.2 -67.75 -56.6 -65.2 -56.5 -65.0 -56.25 -65.05 -55.15 -65.1 -54.35 -64.2 -53.9 L-62.7 -53.6 -60.65 -55.45 -58.2 -57.4 -57.2 -57.3 Q-56.7 -56.55 -56.7 -55.8 L-54.6 -55.4 -53.0 -55.1 -51.6 -55.4 -50.2 -55.6 -50.5 -57.3 Q-50.55 -57.8 -49.4 -58.8 L-47.7 -60.45 Q-47.4 -60.85 -47.4 -61.75 -47.4 -63.05 -46.2 -63.4 L-45.45 -62.45 -45.0 -61.65 Q-45.0 -61.2 -46.0 -60.0 -47.0 -58.8 -47.0 -58.05 -47.0 -57.55 -46.6 -57.1 -46.2 -56.7 -46.2 -56.2 -46.2 -55.05 -47.2 -54.85 -48.2 -54.6 -48.2 -53.65 L-47.9 -52.7 -47.5 -52.3 -46.35 -51.9 -44.8 -51.7 -43.2 -49.45 Q-42.15 -48.1 -42.6 -47.2 L-42.2 -46.7 -40.0 -48.1 -40.0 -48.2 -40.45 -48.3 -40.6 -48.4 Q-41.35 -49.75 -39.85 -50.95 L-39.65 -51.1 Q-39.55 -51.6 -38.65 -52.3 L-37.2 -53.6 Q-36.25 -54.8 -36.5 -55.4 L-36.7 -55.55 Q-37.1 -55.35 -37.7 -55.3 L-37.95 -55.5 -38.0 -56.2 -37.85 -56.7 Q-37.55 -57.3 -36.4 -57.8 L-36.15 -57.6 -35.7 -58.25 Q-34.25 -60.15 -33.2 -60.5 L-33.1 -60.65 -33.0 -60.05 Q-33.0 -59.4 -33.6 -58.55 L-34.2 -57.2 Q-34.2 -56.7 -33.75 -56.6 -33.3 -56.5 -33.3 -56.0 L-34.55 -53.2 Q-35.8 -50.45 -35.8 -49.45 L-35.8 -49.1 -35.7 -48.8 Q-35.15 -48.85 -34.7 -49.2 L-33.8 -49.5 Q-33.15 -49.5 -32.95 -49.1 L-32.9 -48.5 -30.65 -50.7 Q-29.2 -52.3 -27.4 -52.4 L-27.6 -52.75 -27.8 -53.6 Q-27.8 -54.35 -27.1 -55.7 -26.35 -57.15 -26.2 -58.1 L-25.6 -58.2 -25.4 -54.9 -24.0 -54.9 -23.7 -54.3 -24.45 -52.6 -24.9 -51.15 Q-24.9 -50.65 -24.0 -50.05 L-23.8 -50.2 Q-23.6 -50.0 -23.65 -49.55 L-23.8 -48.7 -22.65 -48.2 -21.4 -47.9 Q-21.25 -47.9 -18.2 -50.2 L-16.4 -50.1 -16.2 -49.5 -12.45 -49.5 -11.85 -50.9 Q-11.3 -52.2 -10.4 -53.0 -9.7 -53.6 -8.55 -53.25 -8.3 -53.7 -8.2 -54.7 L-8.1 -56.5 -7.2 -56.5 -7.2 -55.5 -7.4 -54.25 Q-7.4 -53.75 -7.0 -53.1 -6.6 -52.5 -6.6 -52.0 -6.6 -51.4 -7.4 -50.2 -8.2 -49.0 -8.2 -48.4 -8.2 -48.05 -7.5 -47.65 -6.45 -47.1 -5.4 -45.4 -5.1 -44.9 -5.2 -44.1 L-5.4 -42.7 Q-5.4 -42.1 -5.0 -41.2 -4.45 -40.0 -3.7 -40.0 -1.8 -40.0 -1.7 -40.7 -1.55 -41.45 -0.5 -41.6 0.85 -41.6 1.2 -42.45 L1.3 -43.8 1.4 -43.95 1.8 -44.3 Q2.85 -43.75 2.7 -42.9 L2.65 -42.65 2.85 -42.6 3.35 -43.05 5.2 -42.5 4.95 -41.35 4.8 -41.1 5.1 -41.1 5.15 -40.4 Q6.1 -40.1 6.4 -39.25 L6.5 -37.4 7.0 -37.0 Q8.6 -37.05 9.7 -37.9 10.6 -38.6 10.6 -39.15 L10.0 -40.25 9.4 -41.05 Q9.4 -41.6 10.1 -42.25 L11.8 -43.3 11.0 -43.3 10.9 -44.5 Q10.9 -45.15 11.05 -45.35 L11.4 -45.5 12.3 -45.4 12.5 -44.65 12.3 -43.6 12.2 -43.45 12.5 -43.6 Q13.0 -44.55 13.0 -45.55 L12.6 -47.2 Q12.2 -48.35 12.2 -48.85 12.2 -50.5 13.6 -52.9 L14.4 -52.9 14.6 -49.9 14.8 -49.2 15.05 -49.7 15.9 -50.0 16.0 -49.4 15.9 -48.8 15.4 -48.5 Q15.8 -48.05 15.8 -47.4 L15.7 -44.65 Q15.7 -43.1 16.3 -42.3 19.4 -41.85 20.0 -42.9 21.15 -44.9 21.9 -45.3 L23.6 -45.3 23.8 -44.7 23.8 -44.55 24.55 -44.4 Q25.85 -44.4 26.9 -47.25 L26.35 -48.45 25.8 -49.5 Q25.8 -50.35 26.95 -51.5 L26.6 -51.6 26.5 -51.7 26.35 -51.8 26.3 -52.45 Q26.3 -53.65 27.35 -54.15 L28.05 -54.45 27.75 -55.8 27.3 -58.2 Q27.3 -58.85 27.45 -59.0 L27.8 -59.1 28.4 -58.85 28.5 -58.0 Q28.5 -57.85 29.05 -57.05 L29.8 -55.6 29.8 -54.8 Q30.25 -55.5 31.5 -55.1 31.5 -54.65 31.8 -54.2 L31.1 -52.9 32.2 -53.1 Q32.75 -53.1 33.45 -52.3 L34.3 -51.2 Q35.75 -51.4 36.55 -52.5 37.25 -53.5 36.9 -54.3 L37.05 -54.4 37.0 -54.95 Q37.0 -55.55 37.15 -55.6 L37.5 -55.7 39.0 -56.0 Q39.3 -56.9 39.3 -59.3 39.05 -60.1 39.75 -60.95 L40.5 -62.15 Q39.3 -63.65 39.3 -64.4 39.3 -67.6 40.8 -68.2 41.6 -67.3 41.3 -65.5 40.95 -63.75 41.8 -62.8 L42.4 -62.6 M56.3 -57.5 Q56.3 -57.0 55.4 -56.1 L54.7 -56.2 Q54.5 -55.8 54.5 -56.8 54.5 -57.8 56.0 -57.8 L56.3 -57.5 M55.4 -60.2 Q55.25 -59.95 54.8 -59.95 54.35 -59.95 54.2 -60.2 54.35 -60.7 55.4 -60.2 M71.3 -67.3 Q71.3 -67.0 70.3 -67.0 L70.0 -67.55 Q69.75 -68.2 68.8 -68.3 L68.45 -68.8 Q68.2 -69.15 68.2 -69.8 68.2 -70.45 68.55 -70.85 L69.1 -71.2 69.4 -70.05 Q69.8 -69.35 71.4 -69.7 L71.4 -67.6 71.3 -67.3 M69.65 -51.05 L70.7 -51.2 71.2 -50.3 70.7 -49.75 Q70.25 -49.4 69.9 -49.4 L69.7 -49.5 69.6 -50.15 69.65 -51.05 M72.1 -53.8 L71.8 -53.6 Q70.9 -53.85 70.9 -54.7 71.05 -55.0 72.0 -55.0 L72.3 -54.7 72.1 -53.8 M20.5 -75.7 L21.5 -75.5 21.2 -74.6 20.7 -74.6 Q20.55 -74.8 20.55 -75.15 19.95 -75.3 19.9 -75.5 L20.2 -75.7 20.5 -75.6 20.5 -75.7 M11.6 -63.6 L11.0 -64.2 Q11.4 -64.8 11.9 -64.8 L12.2 -64.2 Q12.0 -63.6 11.6 -63.6 M13.1 -55.9 L13.5 -55.0 13.15 -54.45 Q12.85 -54.15 12.6 -54.1 L11.85 -54.8 Q11.7 -55.05 11.7 -55.7 L13.1 -55.9 M13.6 -59.8 L13.9 -59.5 13.0 -58.4 12.65 -58.55 Q12.5 -58.7 12.5 -59.35 L12.55 -59.9 12.6 -59.7 13.6 -59.8 M39.0 -68.1 L38.3 -68.05 Q38.1 -68.05 38.1 -68.65 L38.7 -69.2 39.6 -69.8 39.9 -68.9 39.0 -68.1 M25.95 -71.35 L25.4 -71.0 24.0 -71.1 22.7 -72.3 21.8 -73.4 Q21.8 -73.8 22.1 -74.2 L22.6 -74.6 Q23.25 -74.35 23.6 -73.45 L24.0 -72.7 24.8 -73.4 25.0 -73.1 25.9 -74.0 26.05 -72.95 Q26.05 -72.25 26.3 -71.9 L25.95 -71.35 M28.0 -62.35 L27.9 -61.9 27.4 -61.6 26.65 -61.6 Q26.4 -61.65 26.4 -62.3 L26.6 -63.1 27.0 -63.2 27.35 -63.1 27.9 -62.8 28.0 -62.35 M26.0 -55.9 L25.6 -56.5 26.05 -56.75 26.6 -56.6 26.5 -56.0 26.0 -55.9 M29.5 -53.1 L29.5 -52.9 29.55 -52.9 29.5 -53.1 M37.4 -58.2 L37.9 -58.65 38.8 -58.9 39.0 -58.6 38.2 -57.8 Q37.6 -57.9 37.4 -58.2 M5.5 -44.8 L4.6 -44.3 3.7 -44.8 4.35 -45.6 Q4.75 -46.0 5.1 -46.0 5.5 -45.6 5.5 -44.8 M2.7 -46.95 L2.2 -46.6 Q1.7 -46.8 1.7 -46.95 L1.9 -47.7 Q2.4 -47.7 2.6 -47.4 L2.7 -46.95 M-32.1 -75.8 L-31.85 -76.35 -31.3 -76.8 Q-31.2 -76.5 -31.6 -75.3 L-32.0 -75.2 -32.1 -75.8 M-21.7 -67.8 L-21.5 -67.2 Q-22.0 -66.9 -22.5 -66.9 -22.8 -66.35 -22.8 -67.35 L-22.75 -68.05 -22.7 -68.0 -21.7 -67.8 M-21.7 -63.55 Q-21.7 -62.8 -22.5 -62.0 L-24.2 -60.8 -24.85 -60.75 Q-25.1 -60.75 -25.1 -61.35 L-24.05 -63.1 Q-23.0 -64.45 -22.4 -64.6 L-21.9 -64.35 -21.7 -63.55 M-31.5 -73.5 Q-31.7 -73.2 -32.4 -73.2 L-32.5 -73.65 -32.4 -74.3 -31.8 -74.1 -31.65 -73.9 -31.5 -73.5 M-31.2 -67.1 Q-31.3 -66.8 -31.8 -66.6 -32.3 -66.8 -32.3 -66.95 L-32.1 -67.7 Q-31.6 -67.7 -31.2 -67.1 M-33.0 -64.25 Q-32.95 -64.25 -32.6 -64.4 L-31.6 -64.3 Q-31.2 -63.9 -31.2 -63.4 -31.35 -63.0 -32.0 -62.5 L-32.9 -62.5 -33.15 -62.7 -33.2 -63.4 -33.0 -64.25 M-5.9 -63.9 L-6.9 -63.8 -7.1 -64.4 Q-6.75 -64.75 -5.9 -64.4 L-5.9 -63.9 M-19.0 -68.3 Q-19.7 -68.4 -19.7 -69.2 L-18.9 -69.1 -18.8 -68.65 -19.0 -68.3 M-8.6 -59.9 Q-8.6 -60.45 -7.95 -60.85 -7.3 -61.25 -7.4 -61.8 L-7.0 -62.4 -5.4 -61.5 Q-4.7 -60.9 -4.7 -60.4 -4.7 -59.45 -7.2 -58.7 L-8.05 -58.85 -8.2 -59.0 -8.4 -59.2 Q-8.6 -59.3 -8.6 -59.9 M-55.9 -77.45 Q-55.9 -76.15 -57.0 -75.4 L-57.9 -76.35 -58.2 -77.0 -56.1 -77.9 -56.0 -78.05 -55.9 -77.45 M-59.5 -75.25 L-58.7 -74.5 -58.7 -74.3 -60.4 -74.1 -60.6 -75.5 -59.5 -75.25 M-54.0 -79.7 L-53.8 -79.4 -54.6 -78.6 Q-55.2 -78.7 -55.4 -79.0 -54.95 -79.7 -54.0 -79.7 M-64.0 -63.1 Q-64.2 -62.7 -64.2 -63.7 -64.2 -64.35 -63.9 -64.55 L-63.3 -64.7 Q-63.0 -64.25 -63.0 -63.8 -63.4 -63.2 -64.0 -63.1 M-65.4 -57.0 Q-66.45 -57.15 -66.6 -57.4 -65.6 -58.4 -64.5 -58.4 -64.25 -57.7 -65.4 -57.0 M-45.9 -66.05 L-45.2 -66.1 -45.0 -64.9 -45.4 -64.6 -46.0 -64.6 Q-46.2 -64.65 -46.2 -65.3 -46.2 -65.95 -45.9 -66.05 M-42.7 -66.8 L-43.2 -66.7 -43.4 -67.6 Q-42.85 -67.75 -42.6 -67.4 L-42.7 -66.8" fill="#afbfc2" fill-rule="evenodd" stroke="none"/>
    </g>
  </defs>
</svg>
