<?xml version="1.0" encoding="UTF-8" standalone="no"?>
<svg xmlns:ffdec="https://www.free-decompiler.com/flash" xmlns:xlink="http://www.w3.org/1999/xlink" ffdec:objectType="frame" height="98.3px" width="160.1px" xmlns="http://www.w3.org/2000/svg">
  <g transform="matrix(1.0, 0.0, 0.0, 1.0, 79.5, 87.5)">
    <use ffdec:characterId="187" height="54.3" transform="matrix(1.0, 0.0, 0.0, 1.0, -79.4, -74.4)" width="158.8" xlink:href="#shape0"/>
  </g>
  <defs>
    <g id="shape0" transform="matrix(1.0, 0.0, 0.0, 1.0, 79.4, 74.4)">
      <path d="M52.3 -71.1 L52.0 -70.2 51.5 -70.2 Q51.3 -70.5 51.3 -71.3 L52.3 -71.1 M52.7 -68.05 Q52.7 -67.75 52.1 -67.0 L51.2 -66.1 50.0 -66.4 49.9 -66.85 50.6 -68.5 Q50.8 -68.75 52.0 -69.4 L52.45 -69.0 52.7 -68.05 M46.7 -70.7 L46.5 -69.9 45.5 -69.8 45.3 -70.4 45.4 -71.0 46.4 -71.0 46.7 -70.7 M49.1 -68.0 L49.5 -68.4 50.1 -67.8 49.4 -67.0 48.9 -67.2 49.1 -68.0 M44.8 -58.9 L45.0 -58.6 44.7 -57.7 43.9 -57.7 43.8 -57.95 43.8 -57.6 Q43.8 -56.6 43.0 -55.8 L41.1 -56.2 Q40.5 -56.8 40.5 -57.1 L41.0 -58.0 41.5 -57.2 42.05 -58.45 Q42.35 -59.15 43.2 -59.4 L43.6 -58.65 43.7 -58.4 43.8 -59.0 44.8 -58.9 M42.4 -60.75 Q41.95 -60.75 41.8 -61.0 L42.3 -61.5 43.0 -61.0 Q42.85 -60.75 42.4 -60.75 M43.0 -50.7 L42.9 -50.8 42.9 -51.45 44.2 -52.7 45.6 -52.6 46.05 -51.25 Q46.15 -50.65 47.6 -50.6 47.9 -49.4 47.5 -47.0 L47.6 -45.65 Q47.8 -44.85 48.7 -44.4 L49.15 -44.25 50.3 -44.1 Q50.65 -44.1 50.8 -44.6 50.95 -45.15 51.4 -45.4 L52.4 -45.65 Q53.15 -45.85 53.2 -46.0 L53.3 -47.25 53.2 -48.55 53.65 -49.3 Q54.25 -49.9 55.1 -49.9 L55.15 -48.35 Q55.2 -47.3 55.4 -46.6 L56.55 -45.1 57.6 -43.3 57.5 -42.35 55.9 -42.3 55.7 -42.35 Q55.5 -42.3 55.5 -41.7 55.5 -41.3 56.3 -40.05 L56.9 -39.2 56.9 -39.6 57.0 -40.4 57.1 -40.5 57.6 -40.5 58.3 -39.9 58.0 -39.0 57.15 -39.0 58.4 -38.2 59.25 -35.95 Q59.6 -34.55 60.6 -33.7 L62.6 -33.7 62.85 -35.55 Q62.85 -36.65 64.8 -36.9 65.55 -40.2 65.3 -42.3 L65.5 -42.6 66.6 -41.0 Q66.65 -42.1 67.6 -42.1 68.15 -41.25 68.5 -39.9 L69.05 -38.05 70.65 -36.25 71.1 -36.0 72.6 -36.1 73.45 -38.75 Q73.95 -40.1 75.6 -41.0 L75.6 -42.6 77.7 -42.5 77.6 -43.15 77.4 -44.25 77.4 -44.6 76.65 -46.35 Q75.3 -48.7 75.3 -48.95 75.3 -49.85 75.65 -51.5 76.1 -53.4 76.6 -53.9 L77.5 -53.8 77.35 -53.6 Q77.2 -53.5 77.2 -52.9 77.2 -51.8 78.1 -49.8 79.0 -47.65 79.1 -46.0 L79.4 -39.55 79.1 -38.25 78.6 -37.0 78.45 -35.95 Q77.9 -35.1 75.7 -34.8 L75.2 -34.55 75.0 -33.75 Q75.0 -33.25 75.4 -33.05 75.8 -32.9 75.8 -32.4 75.8 -31.5 75.2 -31.0 74.2 -30.2 71.4 -30.1 L70.2 -30.0 70.3 -29.55 69.0 -28.4 Q67.8 -27.7 65.8 -27.7 L60.3 -27.8 59.0 -29.6 58.05 -29.8 58.2 -29.8 58.6 -30.0 57.5 -30.1 Q56.85 -30.75 55.9 -32.5 L54.3 -35.1 53.6 -34.5 49.9 -34.5 Q48.15 -35.25 48.6 -37.8 49.0 -40.15 45.5 -41.0 L45.2 -43.7 Q45.05 -45.25 45.3 -46.4 43.8 -47.3 42.6 -47.3 L41.5 -47.1 40.5 -46.8 Q40.0 -46.65 39.85 -46.1 L39.8 -45.2 Q39.8 -44.1 38.7 -43.6 L35.5 -42.3 34.65 -42.75 34.2 -42.7 33.7 -43.4 Q33.3 -43.85 32.3 -43.8 L31.7 -45.9 31.9 -46.2 32.05 -46.1 31.9 -46.25 31.2 -45.4 30.6 -45.4 30.8 -44.35 31.2 -42.6 31.0 -42.5 31.0 -41.4 30.7 -39.2 31.6 -39.0 31.85 -38.9 31.9 -38.25 Q31.9 -37.0 30.45 -36.0 28.4 -34.55 27.8 -33.7 L25.9 -33.8 25.65 -34.45 Q25.35 -35.0 24.7 -35.2 L23.6 -32.35 Q23.6 -31.75 23.75 -31.65 L23.9 -31.6 24.8 -31.4 25.05 -31.3 25.1 -30.65 Q25.1 -26.4 21.1 -26.9 L19.6 -25.1 18.7 -23.3 Q18.05 -22.15 16.25 -21.15 14.15 -20.1 11.8 -20.1 7.65 -20.1 6.5 -22.05 L6.2 -24.15 5.4 -25.35 4.2 -26.4 3.1 -26.4 1.75 -25.45 0.4 -24.7 -1.3 -24.7 -3.5 -26.75 Q-5.3 -28.5 -5.4 -29.0 L-6.8 -29.2 -7.8 -32.0 -7.9 -32.0 -7.95 -32.35 -8.1 -32.8 -8.05 -32.95 -7.9 -33.1 -7.8 -34.4 Q-7.8 -35.0 -8.05 -35.4 L-8.5 -35.4 Q-9.5 -35.4 -9.5 -37.2 L-11.4 -37.1 -12.0 -36.2 -12.35 -36.2 -12.4 -36.1 -12.45 -36.2 -12.5 -36.2 -12.65 -36.3 -12.65 -36.35 -13.4 -37.0 -16.25 -37.35 -18.4 -37.9 -19.2 -39.4 -20.2 -40.9 -22.1 -41.3 Q-23.45 -39.7 -25.2 -36.2 L-29.4 -35.5 Q-30.65 -34.85 -30.95 -32.65 -31.25 -30.6 -33.0 -29.9 L-36.4 -29.7 Q-38.2 -27.9 -39.0 -27.9 L-41.1 -28.2 -42.5 -28.6 -44.8 -28.8 -46.7 -30.35 Q-47.85 -31.35 -48.2 -32.4 -48.8 -34.35 -48.2 -36.6 L-48.2 -36.9 -49.6 -37.1 -49.8 -40.7 Q-49.9 -42.85 -52.1 -44.3 L-51.85 -44.25 -52.2 -44.5 -53.5 -44.4 Q-54.65 -43.55 -56.0 -41.7 -56.8 -40.6 -58.2 -40.6 L-61.2 -40.7 -61.75 -41.5 Q-62.05 -42.2 -61.9 -43.1 L-62.1 -43.4 -64.1 -43.8 -65.6 -43.7 -65.65 -42.95 -65.5 -41.95 Q-65.5 -40.95 -65.6 -41.6 L-67.4 -41.25 -69.8 -41.0 -72.8 -41.2 -73.3 -41.8 -76.0 -42.0 -76.7 -44.9 Q-77.2 -46.2 -79.2 -47.1 -79.4 -46.7 -79.4 -47.7 L-78.9 -49.5 -78.2 -51.0 -78.0 -51.0 Q-77.45 -51.0 -76.65 -51.7 L-76.5 -51.8 -76.7 -50.9 -76.5 -49.9 -76.3 -49.4 -73.3 -48.8 Q-73.1 -48.4 -73.0 -46.9 -72.65 -45.55 -71.1 -45.4 L-69.7 -45.5 -69.65 -45.75 -69.8 -46.55 -69.35 -47.6 -68.6 -48.2 -66.1 -48.45 Q-64.9 -48.45 -64.2 -49.2 L-62.85 -50.75 -61.0 -52.2 Q-60.55 -51.75 -61.4 -50.7 -61.4 -50.25 -60.0 -50.1 -59.6 -48.95 -60.3 -47.7 L-60.3 -47.4 -57.9 -47.55 Q-57.6 -47.35 -57.5 -46.7 L-56.65 -47.65 Q-56.3 -48.1 -55.8 -48.2 L-52.9 -48.5 Q-52.5 -48.75 -52.15 -50.15 -51.9 -51.2 -50.5 -51.1 -51.8 -53.15 -50.65 -54.2 L-48.6 -55.8 -48.0 -55.7 -47.9 -55.85 -47.8 -55.25 Q-47.8 -54.95 -48.5 -54.05 L-49.2 -52.7 Q-49.2 -52.2 -48.7 -51.75 -48.2 -51.35 -48.2 -50.85 -48.2 -50.1 -49.45 -49.0 -50.7 -47.9 -50.7 -46.2 L-49.2 -46.1 -49.0 -45.5 -47.2 -45.3 -46.3 -43.75 -45.7 -42.0 Q-45.7 -41.35 -45.95 -40.75 L-46.5 -39.7 -46.5 -39.6 Q-44.35 -39.75 -44.15 -39.1 -43.95 -38.5 -43.2 -38.5 -42.4 -39.05 -41.7 -40.8 -41.1 -42.2 -39.6 -42.6 L-39.75 -43.1 -40.0 -44.1 -39.2 -45.25 Q-38.3 -46.3 -38.0 -48.3 -37.2 -47.35 -37.2 -45.75 -37.2 -45.2 -37.35 -44.6 L-37.0 -43.3 -36.6 -41.55 Q-36.6 -41.15 -37.1 -40.45 L-38.2 -38.4 -35.8 -38.3 -32.7 -38.8 -31.85 -40.2 Q-31.3 -41.0 -31.3 -41.5 -31.3 -42.0 -31.75 -42.45 L-32.2 -43.45 Q-32.2 -44.45 -31.8 -44.8 L-30.6 -45.1 Q-30.1 -45.1 -29.75 -46.05 L-29.4 -46.95 -29.8 -46.5 Q-30.2 -46.9 -30.2 -47.75 -30.2 -48.8 -29.3 -48.8 L-29.05 -48.7 -29.0 -48.05 -29.0 -47.65 -28.2 -47.95 Q-27.8 -48.0 -27.8 -47.4 -27.8 -46.9 -28.25 -46.05 L-28.7 -44.7 Q-28.7 -44.15 -28.3 -43.5 L-27.9 -42.7 Q-27.1 -42.9 -26.6 -43.4 -26.2 -43.8 -25.7 -43.8 -25.05 -43.8 -24.8 -43.4 L-24.6 -42.8 -22.5 -43.05 -19.8 -43.6 -19.5 -44.65 Q-19.2 -45.55 -18.6 -45.9 -15.3 -45.8 -15.3 -45.2 L-15.3 -45.05 -14.6 -44.9 Q-13.25 -44.9 -12.5 -47.0 -11.7 -47.0 -11.7 -46.4 -11.45 -46.75 -11.35 -48.85 -11.3 -50.35 -10.0 -50.2 L-9.55 -50.0 Q-9.3 -49.9 -9.3 -49.3 L-9.75 -47.5 -10.2 -45.7 -10.05 -44.65 Q-9.6 -43.75 -8.0 -43.8 L-7.9 -42.45 Q-7.95 -41.8 -6.0 -42.2 -5.7 -42.0 -5.3 -40.55 L-4.9 -38.6 Q-4.9 -38.1 -5.9 -37.3 -6.9 -36.5 -6.9 -36.0 L-6.65 -34.95 -6.25 -34.3 -4.2 -31.9 Q-1.2 -32.15 -1.0 -33.15 -0.7 -34.95 -0.2 -35.4 L1.8 -35.6 2.4 -37.55 3.0 -39.4 4.0 -39.3 4.1 -39.45 4.2 -38.85 3.8 -37.2 3.4 -35.55 Q3.4 -35.05 4.45 -34.2 5.5 -33.35 5.4 -32.0 5.15 -28.65 9.6 -28.5 L10.2 -27.1 11.3 -27.2 Q12.85 -27.85 12.6 -30.05 12.35 -32.15 14.9 -32.8 L14.5 -36.4 Q14.45 -37.2 14.7 -37.9 L14.7 -38.4 14.75 -39.1 Q14.9 -39.7 15.6 -39.9 L15.8 -39.65 15.8 -39.7 16.4 -39.8 16.45 -38.95 16.3 -37.85 Q16.3 -37.05 17.1 -35.8 17.9 -34.55 17.9 -32.3 L18.3 -32.0 Q19.8 -32.5 20.4 -34.1 L20.4 -36.8 Q21.3 -37.7 22.0 -37.8 L22.55 -37.25 Q23.85 -38.15 23.65 -37.55 L24.4 -38.8 25.05 -39.6 25.7 -40.9 26.6 -40.85 27.4 -40.6 28.25 -43.7 Q28.55 -44.55 29.1 -45.1 L28.3 -44.9 28.05 -45.1 28.0 -45.8 Q28.0 -46.7 28.75 -47.05 L29.6 -47.15 29.6 -47.2 Q29.6 -47.8 29.9 -48.25 L30.3 -48.9 31.05 -48.55 31.65 -48.55 Q31.65 -48.9 31.8 -49.05 31.85 -49.05 32.2 -49.2 L33.2 -49.1 Q33.6 -48.7 33.6 -48.2 L32.8 -47.3 32.6 -47.05 33.2 -47.0 Q33.5 -46.7 33.5 -45.8 33.4 -45.55 32.95 -45.45 33.3 -45.1 33.6 -45.1 34.2 -45.1 34.15 -45.4 L34.2 -45.8 35.2 -45.7 Q36.05 -45.9 36.45 -47.35 L36.8 -49.3 39.0 -49.6 Q39.65 -50.5 39.95 -52.45 L40.3 -55.3 40.8 -55.3 41.1 -52.55 Q41.4 -50.9 43.0 -50.7 M54.6 -50.5 L53.9 -50.6 53.7 -51.8 54.7 -51.9 55.0 -51.6 55.1 -51.0 54.6 -50.5 M77.5 -56.5 L77.4 -55.3 76.8 -55.0 75.1 -55.0 Q74.4 -56.55 74.4 -57.55 L74.6 -59.7 75.2 -59.7 Q75.4 -59.7 75.4 -58.9 75.4 -58.15 76.4 -58.3 77.3 -58.45 77.5 -57.7 L77.5 -56.5 M73.7 -60.1 L73.4 -59.9 73.05 -59.9 73.0 -60.55 73.0 -61.2 73.1 -61.3 73.6 -61.3 73.8 -60.7 73.7 -60.1 M25.5 -70.9 L26.0 -70.9 26.3 -69.7 Q26.0 -69.4 25.5 -69.4 25.3 -69.0 25.3 -70.0 L25.4 -70.8 25.5 -70.9 M24.7 -71.1 Q24.55 -70.6 24.0 -70.2 23.1 -70.2 22.9 -70.5 23.6 -71.2 24.7 -71.1 M29.8 -52.6 L30.4 -52.6 31.1 -51.7 30.8 -51.4 29.9 -51.4 29.7 -52.0 29.8 -52.6 M30.5 -49.7 Q30.1 -49.3 29.1 -49.3 L28.3 -49.4 28.1 -49.7 Q29.6 -50.9 30.4 -50.9 L30.5 -51.05 30.6 -50.45 30.5 -49.7 M22.5 -39.75 L22.6 -40.6 23.2 -40.6 Q23.65 -40.15 23.9 -39.4 L23.4 -38.9 22.7 -39.0 Q22.5 -39.1 22.5 -39.75 M16.7 -44.2 L16.7 -42.1 16.6 -41.8 16.0 -41.7 15.1 -41.8 14.95 -41.9 14.9 -42.55 Q14.9 -43.85 15.8 -44.3 L16.7 -44.2 M15.9 -46.5 Q15.6 -46.2 15.1 -46.2 14.9 -45.8 14.9 -46.8 L15.0 -47.6 15.1 -47.7 15.6 -47.7 15.9 -46.5 M13.8 -48.5 Q13.3 -48.7 13.2 -49.0 L13.6 -49.45 14.3 -49.6 14.4 -49.0 13.8 -48.5 M11.8 -39.7 Q12.2 -40.9 12.6 -41.1 L13.5 -41.0 13.7 -39.2 Q14.0 -38.7 13.0 -38.7 12.4 -38.7 12.15 -39.1 L11.8 -39.7 M3.0 -40.3 L2.2 -40.8 Q2.5 -41.7 3.2 -41.7 L3.4 -40.8 3.0 -40.3 M11.0 -31.4 L11.55 -31.8 Q11.95 -32.0 12.2 -31.8 12.2 -31.25 11.8 -31.0 11.2 -31.1 11.0 -31.4 M74.8 -44.2 Q75.1 -43.9 75.1 -43.0 L74.9 -42.75 75.1 -42.7 74.9 -42.1 75.0 -41.8 74.4 -40.6 73.9 -40.6 73.7 -40.7 73.6 -41.35 Q73.6 -41.85 74.05 -42.25 L74.3 -42.45 74.3 -42.6 74.15 -42.7 74.1 -43.35 74.2 -44.2 74.8 -44.2 M66.0 -46.2 L65.5 -46.2 Q65.3 -46.5 65.3 -47.3 L66.3 -47.1 Q66.3 -46.5 66.0 -46.2 M67.2 -43.6 L66.8 -43.0 65.9 -43.0 Q65.7 -42.6 65.7 -43.6 65.7 -44.25 66.05 -44.4 L66.8 -44.5 67.2 -43.6 M58.85 -39.8 L59.4 -39.9 60.4 -39.8 60.65 -39.7 60.7 -39.05 60.6 -38.0 59.8 -37.7 Q58.5 -38.55 58.5 -39.05 58.5 -39.7 58.85 -39.8 M-34.5 -56.0 L-34.2 -55.4 -35.0 -54.6 -35.5 -54.8 -35.4 -56.0 -34.5 -56.0 M-35.9 -52.9 L-35.7 -51.9 Q-35.7 -50.55 -36.1 -50.5 -36.95 -50.35 -37.7 -49.2 L-38.35 -49.7 Q-38.7 -50.05 -38.7 -50.7 L-38.2 -51.45 -37.5 -52.5 -37.55 -53.2 Q-37.6 -53.5 -37.0 -53.5 L-36.1 -53.4 -35.9 -52.9 M-23.8 -61.25 L-24.0 -60.3 -24.4 -59.9 -25.2 -59.9 Q-25.4 -59.5 -25.4 -60.5 L-24.85 -61.25 -24.0 -61.7 -23.9 -61.85 -23.8 -61.25 M-26.2 -53.4 Q-25.5 -54.1 -25.2 -53.7 -25.6 -53.1 -26.0 -53.1 L-26.2 -53.4 M-28.0 -50.2 Q-27.5 -49.7 -27.5 -49.3 L-27.5 -49.1 -28.5 -49.0 -29.0 -50.1 -28.0 -50.2 M-25.2 -49.8 Q-24.9 -49.5 -24.9 -48.6 -25.0 -48.3 -25.7 -48.2 L-25.85 -48.3 -25.9 -48.95 -25.8 -49.8 -25.2 -49.8 M-4.7 -57.5 L-5.8 -57.2 Q-6.5 -57.3 -6.8 -57.6 L-6.1 -58.75 Q-5.8 -58.95 -4.5 -58.3 L-4.7 -57.5 M-7.7 -56.6 L-7.85 -56.7 -7.9 -57.35 -7.8 -58.2 -7.2 -58.2 Q-6.9 -57.9 -6.9 -57.0 -7.0 -56.7 -7.7 -56.6 M-8.3 -49.9 L-8.6 -49.8 -9.6 -50.1 -9.7 -50.55 Q-9.05 -51.5 -8.5 -51.5 L-8.25 -51.3 -8.2 -50.6 -8.3 -49.9 M-61.0 -74.0 Q-60.2 -74.4 -59.7 -74.4 L-59.6 -73.5 -60.2 -73.0 -60.8 -73.1 -61.0 -74.0 M-66.0 -64.6 L-65.9 -63.85 Q-66.05 -63.05 -66.8 -62.2 L-67.7 -62.2 -67.85 -62.3 -67.9 -62.95 Q-67.9 -64.25 -67.0 -64.7 L-66.0 -64.6 M-72.4 -59.65 L-72.3 -59.0 -72.3 -58.45 -72.5 -58.4 -73.5 -58.1 Q-75.1 -57.15 -75.1 -55.55 -75.1 -54.95 -74.75 -54.75 L-74.3 -54.5 -75.8 -53.35 -75.8 -54.0 -76.0 -54.1 -76.8 -54.25 -76.9 -55.3 Q-76.9 -56.95 -75.95 -57.6 -74.15 -58.5 -72.5 -59.6 L-72.4 -59.65 M-73.7 -51.6 L-73.2 -50.8 -73.4 -50.3 -74.0 -50.4 -74.1 -51.6 -73.7 -51.6 M-68.5 -61.5 L-69.4 -59.5 -70.0 -59.5 -70.15 -59.6 -70.2 -60.25 Q-70.2 -60.9 -69.6 -61.25 L-68.5 -61.5 M-47.4 -60.6 Q-47.25 -60.9 -46.4 -60.9 L-46.0 -60.6 Q-46.3 -60.35 -46.75 -60.35 -47.25 -60.35 -47.4 -60.6 M-49.0 -57.6 Q-48.55 -58.5 -47.6 -58.5 L-47.4 -58.2 Q-47.65 -57.45 -48.2 -57.1 -48.7 -57.3 -49.0 -57.6" fill="#afbfc2" fill-rule="evenodd" stroke="none"/>
    </g>
  </defs>
</svg>
