<?xml version="1.0" encoding="UTF-8" standalone="no"?>
<svg xmlns:ffdec="https://www.free-decompiler.com/flash" xmlns:xlink="http://www.w3.org/1999/xlink" ffdec:objectType="frame" height="98.3px" width="160.1px" xmlns="http://www.w3.org/2000/svg">
  <g transform="matrix(1.0, 0.0, 0.0, 1.0, 79.5, 87.5)">
    <use ffdec:characterId="188" height="51.9" transform="matrix(1.0, 0.0, 0.0, 1.0, -79.5, -66.5)" width="160.1" xlink:href="#shape0"/>
  </g>
  <defs>
    <g id="shape0" transform="matrix(1.0, 0.0, 0.0, 1.0, 79.5, 66.5)">
      <path d="M51.6 -65.8 L52.3 -64.9 51.4 -64.1 50.9 -64.1 50.8 -64.75 51.0 -65.65 51.6 -65.8 M49.7 -66.5 L50.8 -66.3 Q50.8 -65.8 50.4 -65.4 L49.9 -65.4 Q49.7 -65.7 49.7 -66.5 M42.6 -53.4 L42.1 -53.6 42.2 -55.0 Q43.45 -55.15 43.9 -54.5 L42.6 -53.4 M43.4 -55.3 Q42.8 -55.55 42.8 -56.4 L44.0 -56.7 44.4 -56.1 43.4 -55.3 M74.5 -53.8 L75.9 -53.5 75.4 -52.9 Q74.7 -53.0 74.5 -53.3 L74.5 -53.8 M77.2 -53.3 L77.5 -52.1 Q77.2 -51.8 76.5 -51.8 76.3 -51.85 76.3 -52.85 L76.35 -53.45 76.4 -53.3 77.2 -53.3 M38.8 -43.8 Q39.1 -43.5 39.1 -42.6 39.0 -42.3 38.3 -42.2 L38.15 -42.3 38.1 -42.95 38.2 -43.8 38.8 -43.8 M40.45 -46.05 Q40.3 -46.2 40.3 -46.9 L40.4 -47.75 Q40.65 -48.2 41.5 -48.0 L41.6 -48.05 41.7 -47.4 41.45 -46.4 41.4 -46.25 42.0 -46.2 Q43.15 -47.75 44.35 -46.5 45.4 -45.45 45.4 -44.45 L45.3 -43.65 45.0 -43.5 Q43.6 -44.2 43.2 -44.6 L42.1 -44.2 41.2 -43.9 40.35 -44.05 40.2 -44.2 40.0 -44.4 Q39.8 -44.5 39.8 -45.1 39.8 -45.6 40.3 -45.95 L40.45 -46.05 M30.6 -46.6 L29.9 -46.5 Q29.6 -46.8 29.6 -48.3 L30.7 -48.4 30.95 -48.45 31.2 -47.8 31.0 -46.95 30.6 -46.6 M34.2 -41.3 L34.8 -41.3 35.15 -40.6 35.3 -39.8 Q35.8 -40.45 36.4 -40.6 L36.7 -39.8 37.0 -40.0 37.75 -40.95 Q38.25 -41.6 38.7 -41.6 L38.6 -41.4 Q38.4 -41.3 38.4 -40.7 38.4 -40.2 38.9 -40.15 39.4 -40.15 39.4 -39.65 39.4 -38.75 38.5 -38.2 L35.8 -36.9 34.7 -37.0 Q34.35 -38.1 34.3 -38.9 L34.2 -39.4 34.2 -41.3 M29.0 -45.0 L29.6 -45.0 30.3 -44.1 30.0 -43.8 29.1 -43.8 28.9 -44.4 29.0 -45.0 M30.3 -40.9 L30.6 -37.9 30.35 -36.85 29.8 -36.1 Q29.8 -35.7 31.4 -35.7 L31.6 -35.5 Q31.8 -35.4 31.8 -34.8 31.8 -34.25 31.4 -33.75 L31.0 -33.0 31.2 -32.25 31.4 -31.2 Q31.4 -30.3 30.55 -29.4 L28.2 -27.3 Q25.85 -27.5 25.1 -28.05 L25.1 -26.7 24.55 -25.95 24.3 -24.9 Q23.6 -22.2 23.2 -21.9 L21.9 -21.6 20.1 -21.2 Q19.4 -20.35 19.05 -18.95 L18.4 -16.7 Q17.1 -16.55 16.55 -16.0 L15.0 -14.6 13.2 -14.7 12.45 -15.5 11.8 -15.4 8.0 -15.5 6.45 -16.8 5.8 -19.2 5.2 -21.0 Q4.45 -22.1 3.0 -21.4 L2.7 -21.25 2.65 -21.2 1.8 -20.6 Q1.2 -20.6 0.8 -21.0 L0.2 -21.6 Q-0.45 -20.8 -1.4 -20.2 L-3.6 -20.3 Q-6.95 -24.4 -6.7 -27.2 L-6.2 -27.5 -5.3 -26.25 -5.3 -25.6 -3.2 -25.4 Q-2.9 -25.1 -2.9 -24.5 L-1.7 -24.0 -0.6 -24.1 0.3 -25.85 0.1 -26.2 0.95 -27.2 Q1.75 -28.15 1.8 -28.6 1.9 -29.95 2.8 -30.1 3.15 -29.15 3.1 -28.35 L3.0 -27.1 4.4 -26.9 4.7 -25.35 Q5.15 -24.7 5.45 -22.7 6.05 -20.8 8.4 -20.6 8.7 -20.3 8.7 -19.1 L8.7 -18.9 10.1 -18.8 11.5 -18.4 13.0 -18.5 15.0 -21.0 14.8 -21.0 14.65 -21.2 Q14.5 -21.3 14.5 -21.9 14.5 -22.5 14.75 -22.65 L15.0 -22.7 15.4 -22.65 Q14.4 -23.35 14.4 -23.9 L14.75 -24.65 15.8 -25.7 15.85 -25.65 15.8 -26.15 15.8 -26.8 15.9 -26.9 16.4 -26.9 16.8 -26.3 16.2 -25.5 15.95 -25.5 16.2 -25.1 16.2 -25.3 16.8 -25.4 17.4 -23.45 Q17.65 -22.05 17.4 -21.5 L17.3 -21.35 Q17.25 -21.15 17.5 -21.1 L18.6 -22.45 19.4 -23.7 Q20.85 -25.4 21.1 -25.2 21.8 -24.75 22.2 -24.9 23.15 -25.75 23.5 -27.65 23.75 -29.0 24.05 -29.35 L23.7 -29.4 23.7 -31.2 24.2 -32.15 24.6 -32.7 26.0 -32.6 26.4 -31.5 27.6 -31.4 Q28.3 -31.4 28.5 -31.85 L28.6 -33.05 28.0 -34.25 27.4 -35.45 28.0 -36.7 28.7 -37.7 28.75 -38.6 28.6 -39.8 Q28.6 -40.75 29.4 -41.0 L30.3 -40.9 M24.2 -35.0 L24.7 -34.45 25.0 -33.6 24.6 -33.0 24.0 -33.15 Q23.8 -33.3 23.8 -34.0 L23.9 -34.85 24.2 -35.0 M23.6 -35.9 L23.4 -36.8 24.3 -36.8 24.6 -36.2 Q24.4 -35.9 23.6 -35.9 M25.0 -29.5 L24.85 -29.4 25.0 -29.4 25.0 -29.5 M3.6 -36.1 L4.4 -35.2 Q4.4 -34.9 4.0 -34.6 L3.2 -34.6 2.9 -35.35 3.1 -36.1 3.6 -36.1 M2.15 -32.25 L2.2 -32.1 2.65 -32.2 3.2 -32.1 3.4 -31.5 2.6 -30.7 2.2 -30.85 2.1 -31.65 2.15 -32.25 M16.7 -32.2 L15.5 -31.8 Q15.3 -31.4 15.3 -32.4 L15.4 -33.3 16.7 -33.1 16.7 -32.2 M14.5 -29.2 Q14.5 -30.4 16.3 -30.3 L16.4 -29.1 16.0 -28.5 14.7 -28.4 Q14.5 -28.2 14.5 -29.2 M78.4 -47.8 Q78.7 -47.5 78.7 -46.6 78.6 -46.3 77.9 -46.2 L77.75 -46.3 77.7 -46.95 77.8 -47.8 78.4 -47.8 M78.15 -44.95 L78.3 -45.3 78.8 -45.4 Q79.6 -45.1 79.95 -44.05 L80.1 -42.2 79.5 -41.6 78.4 -41.6 Q77.95 -42.05 77.9 -42.45 L77.5 -42.5 77.4 -42.65 76.8 -42.8 Q75.95 -44.75 75.8 -47.2 L76.4 -47.3 Q76.95 -46.9 77.05 -45.95 77.1 -45.1 77.8 -44.7 L78.15 -44.95 M78.3 -39.7 L79.2 -39.8 80.05 -37.75 80.6 -35.45 Q80.6 -33.0 79.2 -32.3 78.6 -32.6 78.6 -33.7 L76.9 -33.2 Q76.8 -32.9 77.0 -32.45 77.0 -31.65 76.6 -31.1 76.2 -30.5 75.4 -30.5 73.85 -30.5 73.4 -31.4 L73.3 -32.4 Q73.3 -33.65 74.15 -33.7 75.2 -33.75 75.4 -34.1 75.3 -34.7 75.45 -35.15 75.65 -36.05 77.4 -36.1 78.45 -37.35 78.4 -37.8 L78.1 -38.2 78.25 -39.1 78.3 -39.7 M68.5 -37.6 L68.0 -37.5 67.8 -38.4 Q68.35 -38.55 68.6 -38.2 L68.5 -37.6 M68.45 -34.85 L68.35 -35.1 67.6 -35.1 67.4 -36.0 68.4 -36.2 68.95 -35.6 69.3 -35.4 69.8 -35.0 69.6 -34.4 70.0 -34.5 70.45 -33.7 71.3 -32.6 70.8 -31.4 70.05 -31.4 70.1 -31.2 Q70.5 -29.25 70.5 -27.95 70.5 -26.85 70.2 -26.55 L67.8 -24.7 Q67.65 -24.6 67.25 -24.95 67.05 -25.15 66.1 -23.2 L65.0 -21.5 Q61.7 -20.95 61.05 -23.05 L60.6 -24.9 Q60.35 -26.05 59.8 -26.6 L58.4 -26.8 Q57.65 -27.7 57.4 -29.1 L57.4 -29.4 57.1 -29.4 Q56.35 -29.8 56.15 -30.85 L56.1 -32.7 56.15 -33.05 56.1 -33.15 Q55.4 -34.1 55.4 -34.95 L55.5 -35.9 55.9 -35.9 56.2 -35.55 56.2 -35.9 Q56.35 -36.6 57.0 -36.6 L57.8 -36.5 Q58.4 -36.5 58.2 -35.65 L57.9 -34.4 58.0 -33.3 58.2 -32.9 58.6 -31.75 59.1 -30.9 58.6 -30.1 Q58.7 -28.3 61.6 -27.7 L61.7 -27.0 62.6 -25.9 63.35 -25.75 64.2 -25.5 65.4 -25.6 Q66.05 -26.1 66.4 -27.55 L67.0 -29.4 68.35 -29.75 68.6 -30.3 69.0 -31.5 68.6 -31.3 67.9 -31.3 Q67.7 -31.35 67.7 -32.0 67.7 -32.9 68.3 -33.5 L68.2 -33.9 68.9 -34.1 68.45 -34.85 M69.35 -33.65 L69.4 -34.05 69.25 -33.85 69.35 -33.65 M72.3 -33.5 L71.8 -33.0 71.3 -33.35 71.5 -34.1 Q72.1 -34.1 72.3 -33.5 M54.2 -44.8 L54.6 -44.8 Q55.4 -44.55 55.6 -43.55 L55.5 -42.8 55.5 -42.5 Q54.7 -42.95 54.3 -43.55 L54.0 -44.1 54.2 -44.8 M53.6 -37.7 L54.0 -35.25 54.2 -33.2 Q54.2 -29.05 52.2 -29.0 L50.8 -29.2 50.7 -30.9 50.7 -31.0 49.8 -30.7 48.8 -30.8 47.4 -32.9 47.4 -34.7 Q48.0 -35.3 48.4 -35.3 L48.5 -34.55 50.2 -34.7 50.4 -33.5 50.05 -32.9 50.6 -32.9 51.35 -33.5 Q51.85 -34.5 52.4 -35.1 53.0 -35.75 53.0 -37.7 L53.6 -37.7 M54.35 -38.75 L55.8 -39.9 55.0 -41.4 55.4 -41.8 Q56.3 -41.65 56.55 -41.1 L56.6 -40.2 56.25 -38.85 Q55.9 -38.0 55.9 -37.5 L55.75 -36.7 55.4 -36.6 Q54.2 -37.6 54.2 -38.05 54.2 -38.5 54.35 -38.75 M46.55 -46.9 L46.6 -46.2 46.5 -45.5 46.2 -45.4 Q45.5 -45.5 45.2 -45.8 L45.0 -46.7 46.3 -47.1 46.55 -46.9 M44.8 -49.3 L45.0 -48.85 44.8 -48.1 44.4 -48.0 44.2 -49.2 44.8 -49.3 M44.6 -43.4 Q45.55 -43.3 45.75 -42.75 L46.3 -41.8 45.8 -41.3 44.7 -41.4 44.25 -41.9 Q44.0 -42.25 44.0 -42.9 44.0 -43.5 44.3 -43.5 L44.6 -43.4 M46.9 -37.2 L46.6 -37.0 46.0 -37.1 Q45.8 -37.2 45.8 -37.85 L45.9 -38.7 46.3 -38.7 47.2 -38.5 47.3 -38.65 47.4 -38.05 47.3 -37.3 46.9 -37.2 M48.9 -31.5 L48.9 -31.85 48.9 -32.0 48.8 -32.0 48.9 -31.5 M-36.8 -51.0 Q-35.95 -51.0 -35.6 -50.5 -35.8 -50.2 -36.5 -50.1 L-36.8 -51.0 M-76.1 -56.0 Q-76.0 -55.7 -76.3 -54.8 L-76.8 -54.7 Q-77.0 -54.3 -77.0 -55.3 -77.0 -55.95 -76.6 -56.0 L-76.1 -56.0 M-76.5 -54.1 L-76.0 -54.1 Q-75.7 -53.65 -75.7 -52.9 -76.0 -52.6 -76.5 -52.6 -76.7 -52.2 -76.7 -53.2 L-76.6 -54.0 -76.5 -54.1 M-49.1 -49.2 L-51.5 -49.0 Q-51.5 -50.9 -50.9 -51.2 L-49.1 -49.5 -49.1 -49.2 M-47.0 -39.45 Q-47.0 -38.45 -47.3 -37.95 L-49.0 -36.3 Q-49.8 -36.45 -50.2 -37.0 -49.0 -37.7 -49.0 -38.65 -49.0 -39.15 -49.4 -39.55 -49.8 -39.95 -49.8 -40.45 -49.8 -41.75 -48.4 -41.1 -47.0 -40.45 -47.0 -39.45 M-51.8 -48.0 L-50.9 -48.0 -50.6 -47.4 Q-50.8 -47.1 -51.6 -47.1 L-51.8 -48.0 M-58.9 -39.5 L-58.9 -39.35 -58.2 -39.2 Q-56.45 -39.2 -56.0 -39.95 -55.3 -41.2 -54.4 -41.7 L-54.3 -41.85 Q-54.2 -41.85 -54.2 -41.25 -56.55 -37.0 -59.0 -37.0 L-61.6 -37.1 Q-62.6 -37.6 -62.5 -38.45 L-62.2 -39.65 -62.25 -40.3 -62.6 -40.4 -63.6 -40.7 Q-64.15 -41.75 -64.1 -42.15 -64.05 -42.7 -64.3 -43.4 L-65.45 -42.35 Q-66.3 -41.3 -65.4 -40.6 L-65.6 -40.3 -66.8 -40.3 Q-67.2 -40.15 -67.65 -39.25 -68.15 -38.3 -68.8 -37.9 L-70.7 -37.35 -71.4 -37.0 -72.8 -37.1 -73.0 -37.7 -73.5 -37.6 -74.2 -37.4 -76.0 -37.6 -77.75 -39.55 -77.9 -41.05 -77.85 -42.0 -77.4 -42.7 -76.45 -42.5 -76.7 -43.0 -76.1 -43.55 -75.3 -43.9 -75.3 -42.7 Q-75.4 -42.4 -75.8 -42.2 L-76.1 -42.3 -75.75 -41.8 Q-75.55 -41.15 -76.1 -40.4 L-75.65 -40.25 -73.4 -40.1 Q-70.4 -40.2 -69.1 -40.75 -68.25 -41.1 -67.9 -41.8 L-67.1 -43.6 Q-66.7 -44.05 -65.7 -44.4 -64.6 -44.75 -64.3 -45.0 L-63.0 -46.7 Q-62.25 -45.8 -62.3 -45.4 L-62.5 -44.5 -61.6 -44.2 Q-61.1 -43.25 -61.35 -42.05 -61.25 -41.3 -58.8 -41.0 -58.25 -40.45 -58.9 -39.5 M-50.7 -34.4 L-49.8 -34.9 Q-49.0 -34.2 -48.9 -33.1 -48.85 -31.7 -48.6 -31.3 L-47.2 -31.0 Q-46.1 -28.5 -46.1 -27.2 L-43.8 -27.3 -42.0 -29.1 -42.9 -29.4 -43.1 -30.6 Q-43.1 -31.85 -41.75 -32.9 -40.55 -33.9 -40.8 -35.9 L-40.2 -36.4 Q-38.45 -35.25 -39.7 -30.2 L-39.3 -29.95 -38.2 -29.9 -37.2 -29.8 -36.9 -29.2 -36.7 -28.7 Q-34.2 -29.7 -32.75 -32.05 L-30.6 -35.9 -30.3 -35.75 -29.3 -35.6 Q-28.85 -35.6 -28.0 -36.65 L-27.0 -37.9 -26.3 -37.8 -26.1 -37.05 Q-26.1 -36.4 -26.9 -35.5 L-27.7 -34.35 Q-27.7 -33.55 -28.55 -32.85 L-30.5 -31.5 -30.7 -31.15 -30.9 -30.3 Q-30.9 -29.8 -30.5 -29.75 -30.1 -29.75 -30.1 -29.25 -30.1 -28.85 -31.0 -27.75 -32.05 -26.45 -33.0 -26.1 -34.85 -25.35 -35.65 -24.45 -36.55 -23.5 -37.0 -23.3 L-39.1 -23.6 Q-40.7 -23.6 -42.3 -22.45 L-43.8 -21.3 Q-44.35 -21.3 -45.05 -21.65 L-46.8 -22.3 -46.95 -22.45 Q-48.6 -22.8 -49.05 -23.55 L-49.2 -24.75 -49.1 -25.7 -49.1 -25.75 -50.6 -28.5 -50.2 -29.25 Q-49.8 -29.5 -49.8 -30.0 -49.8 -30.5 -50.3 -31.35 L-50.8 -32.7 -50.7 -34.4 M-48.4 -35.9 L-47.7 -35.1 Q-47.85 -34.6 -48.2 -34.5 -49.1 -34.65 -49.1 -35.2 L-49.0 -35.8 -48.4 -35.9 M-78.3 -47.1 L-79.3 -47.0 -79.5 -47.6 -79.4 -48.2 -78.8 -48.2 Q-78.3 -47.7 -78.3 -47.3 L-78.3 -47.1 M-78.7 -45.2 Q-78.7 -46.5 -78.1 -47.1 L-77.3 -46.2 Q-76.7 -45.65 -77.0 -45.0 L-77.8 -44.5 -78.5 -44.5 Q-78.7 -44.55 -78.7 -45.2 M-11.5 -47.4 Q-10.55 -47.6 -10.1 -46.9 L-10.4 -46.3 Q-11.1 -46.3 -11.5 -46.9 L-11.5 -47.4 M-10.3 -43.8 L-10.4 -43.6 -11.6 -43.5 -11.75 -43.6 -11.8 -44.25 -11.5 -45.15 -10.8 -45.3 Q-10.3 -44.55 -10.3 -43.8 M-19.2 -39.9 L-19.8 -40.5 Q-19.25 -41.3 -18.4 -41.3 L-18.3 -41.45 Q-18.2 -41.45 -18.2 -40.85 -18.2 -39.85 -18.3 -40.4 -18.55 -40.05 -19.2 -39.9 M-20.1 -39.4 Q-18.15 -39.6 -17.55 -38.45 -17.15 -37.75 -17.3 -36.8 L-16.6 -37.0 -15.6 -36.9 -15.4 -36.0 Q-14.4 -36.7 -13.8 -37.8 -13.4 -38.55 -13.0 -38.35 -12.8 -38.25 -12.7 -38.9 L-12.6 -39.3 -12.45 -39.4 -11.8 -39.5 -11.8 -39.4 -11.7 -38.9 -11.3 -38.2 -11.4 -36.7 Q-10.35 -36.5 -10.1 -36.0 -9.1 -36.8 -8.2 -37.9 L-7.35 -37.1 -7.3 -36.0 -7.2 -34.9 -7.3 -34.2 Q-7.6 -33.7 -8.0 -33.6 -8.65 -33.45 -9.4 -32.8 L-9.65 -31.25 Q-9.65 -30.15 -11.2 -29.5 L-13.2 -29.5 Q-14.85 -30.55 -14.6 -32.2 L-15.35 -32.1 -16.6 -31.8 Q-17.8 -31.8 -18.2 -32.9 L-18.8 -35.3 Q-19.5 -37.35 -20.05 -36.8 -20.3 -36.55 -20.3 -38.8 L-20.1 -39.4 M-6.5 -32.3 Q-5.7 -31.1 -5.7 -30.5 -6.3 -29.9 -6.9 -29.8 L-7.3 -30.45 -7.6 -31.45 Q-7.6 -32.1 -7.1 -32.25 L-6.5 -32.3 M-29.0 -42.0 L-29.4 -41.5 Q-30.3 -41.95 -30.4 -42.3 L-29.6 -42.9 -29.0 -42.0 M-28.5 -38.7 L-28.8 -38.2 -29.15 -37.8 -28.4 -36.7 Q-28.55 -36.15 -29.4 -35.9 L-30.5 -36.1 Q-30.8 -35.7 -30.8 -36.7 -30.8 -37.45 -30.15 -37.8 -31.0 -38.7 -31.0 -39.25 -31.0 -40.45 -30.6 -40.6 L-30.05 -40.6 -30.0 -39.9 Q-30.0 -39.2 -29.7 -39.2 -29.05 -39.25 -28.5 -38.7 M-26.3 -39.6 L-26.2 -40.2 Q-25.0 -40.2 -24.2 -39.8 L-24.1 -39.5 -24.6 -38.9 -26.1 -39.0 -26.3 -39.6 M-20.95 -41.5 L-21.6 -41.1 -21.8 -42.3 -20.7 -42.1 -20.95 -41.5 M-38.1 -43.5 L-38.1 -42.6 -39.3 -42.2 Q-39.5 -41.8 -39.5 -42.8 L-39.05 -43.65 Q-38.55 -44.05 -38.1 -43.5 M-36.5 -48.9 Q-37.2 -48.2 -38.1 -47.7 L-38.35 -47.9 -38.4 -48.6 -38.3 -49.4 -36.9 -49.5 -36.5 -48.9 M-39.0 -41.2 L-38.6 -41.4 Q-37.35 -41.3 -37.1 -40.85 L-37.0 -40.0 Q-37.0 -39.35 -37.3 -38.8 L-38.0 -37.9 -39.1 -37.45 -39.8 -37.1 Q-40.6 -37.5 -40.6 -38.5 L-39.95 -39.15 -38.6 -39.5 -38.85 -40.3 -39.0 -41.2" fill="#afbfc2" fill-rule="evenodd" stroke="none"/>
    </g>
  </defs>
</svg>
