<?xml version="1.0" encoding="UTF-8" standalone="no"?>
<svg xmlns:ffdec="https://www.free-decompiler.com/flash" xmlns:xlink="http://www.w3.org/1999/xlink" ffdec:objectType="frame" height="98.3px" width="160.1px" xmlns="http://www.w3.org/2000/svg">
  <g transform="matrix(1.0, 0.0, 0.0, 1.0, 79.5, 87.5)">
    <use ffdec:characterId="180" height="73.0" transform="matrix(1.0, 0.0, 0.0, 1.0, -39.8, -76.8)" width="90.0" xlink:href="#shape0"/>
  </g>
  <defs>
    <g id="shape0" transform="matrix(1.0, 0.0, 0.0, 1.0, 39.8, 76.8)">
      <path d="M49.4 -61.0 L50.2 -60.9 50.2 -58.2 42.9 -41.5 42.8 -41.4 43.4 -41.3 44.15 -41.85 45.2 -42.5 45.3 -42.55 45.4 -41.9 Q45.4 -40.15 42.55 -34.4 L39.2 -28.1 Q34.8 -18.95 32.2 -15.0 L31.8 -14.3 28.4 -8.6 27.5 -8.6 Q27.3 -8.05 27.3 -9.05 L27.95 -10.7 28.6 -12.35 28.5 -16.4 Q26.1 -15.95 25.25 -16.8 24.7 -17.35 24.65 -19.05 24.45 -23.3 21.8 -24.3 L17.0 -24.3 Q10.9 -22.55 7.1 -18.25 4.95 -15.75 3.0 -11.4 L2.4 -11.65 2.3 -11.45 Q1.5 -10.0 1.5 -9.1 1.5 -8.55 1.85 -7.1 1.7 -5.75 -1.0 -5.1 L-1.3 -4.55 -2.1 -3.8 Q-2.9 -5.1 -4.4 -11.3 -5.4 -15.2 -8.2 -15.2 L-9.7 -16.7 Q-11.15 -18.6 -13.4 -19.7 L-15.4 -19.6 Q-18.9 -17.1 -18.9 -15.3 L-19.1 -15.3 Q-19.05 -13.85 -18.2 -9.5 L-20.7 -9.6 -20.9 -9.6 -19.7 -4.5 -20.0 -4.2 Q-28.2 -20.45 -29.4 -24.95 L-30.2 -26.9 -33.4 -35.6 -39.8 -53.0 -39.6 -53.3 -37.35 -50.35 Q-35.75 -47.9 -34.6 -47.1 L-33.1 -47.2 Q-31.15 -50.35 -31.3 -53.05 -31.9 -56.2 -31.9 -58.45 -31.9 -61.0 -31.0 -65.0 -30.0 -69.65 -28.9 -69.6 -27.55 -69.55 -25.3 -65.75 -22.4 -60.85 -21.4 -59.8 L-20.75 -60.5 -20.5 -61.4 -18.8 -61.4 -14.25 -55.25 Q-11.9 -52.0 -7.3 -50.0 -5.35 -50.45 -5.5 -52.1 -5.65 -53.5 -3.7 -53.5 L-1.2 -53.4 0.1 -51.8 1.1 -50.4 Q1.1 -49.9 0.7 -49.65 0.3 -49.45 0.3 -48.95 0.3 -48.2 1.15 -47.45 L2.6 -46.25 3.0 -46.6 4.0 -47.3 4.5 -46.4 5.8 -46.4 Q13.7 -54.4 16.2 -62.3 L16.2 -64.2 Q16.05 -65.65 16.3 -66.4 17.2 -69.4 17.9 -70.3 L20.45 -74.5 Q22.35 -76.6 27.9 -76.8 30.0 -75.3 30.65 -72.6 31.0 -71.15 31.0 -68.55 L31.05 -67.4 31.0 -66.6 Q30.85 -66.0 30.4 -65.95 29.95 -65.85 29.8 -65.3 29.2 -63.05 29.1 -61.7 28.6 -57.5 28.6 -54.8 L28.55 -53.35 Q28.55 -52.6 28.8 -52.1 L29.75 -50.75 Q30.25 -50.15 30.2 -49.3 L31.4 -49.4 32.4 -49.3 32.65 -47.55 Q32.9 -46.3 34.2 -46.3 37.15 -46.3 42.55 -52.55 L49.4 -61.0" fill="#afbfc2" fill-rule="evenodd" stroke="none"/>
    </g>
  </defs>
</svg>
