<?xml version="1.0" encoding="UTF-8" standalone="no"?>
<svg xmlns:ffdec="https://www.free-decompiler.com/flash" xmlns:xlink="http://www.w3.org/1999/xlink" ffdec:objectType="frame" height="98.3px" width="160.1px" xmlns="http://www.w3.org/2000/svg">
  <g transform="matrix(1.0, 0.0, 0.0, 1.0, 79.5, 87.5)">
    <use ffdec:characterId="181" height="73.45" transform="matrix(1.0, 0.0, 0.0, 1.0, -43.8, -83.35)" width="100.8" xlink:href="#shape0"/>
  </g>
  <defs>
    <g id="shape0" transform="matrix(1.0, 0.0, 0.0, 1.0, 43.8, 83.35)">
      <path d="M56.8 -63.1 L57.0 -61.85 Q57.0 -60.2 55.65 -57.45 L53.5 -53.0 51.9 -51.3 49.7 -49.3 Q48.7 -48.15 47.0 -45.1 L42.7 -36.5 Q40.2 -31.4 37.5 -28.2 L37.35 -28.3 37.3 -28.95 37.75 -30.45 38.2 -31.95 Q38.2 -33.25 37.5 -34.45 L36.3 -35.9 36.35 -36.1 36.4 -36.2 35.6 -37.1 Q33.6 -39.2 31.7 -39.2 L29.4 -39.1 27.6 -37.5 24.5 -35.5 22.2 -33.6 Q20.95 -32.3 20.3 -32.2 L20.0 -34.3 15.8 -34.3 Q9.1 -32.5 4.6 -27.8 0.6 -23.7 0.6 -20.15 0.6 -19.65 1.0 -18.8 L1.4 -17.45 0.95 -15.9 1.0 -15.65 -0.4 -12.85 Q-1.2 -11.2 -1.1 -10.1 L-1.4 -9.9 -1.9 -12.25 Q-2.15 -13.7 -3.0 -14.2 -4.85 -13.75 -5.45 -15.5 L-5.7 -17.55 -5.3 -19.5 -4.9 -21.45 -4.9 -21.95 -5.1 -22.3 -6.3 -23.7 -7.7 -25.0 Q-9.1 -26.3 -9.55 -26.0 L-9.8 -25.4 -10.7 -25.55 -11.7 -25.9 Q-13.2 -29.0 -14.85 -31.35 -18.05 -35.9 -22.4 -35.9 L-24.7 -35.7 -24.7 -34.5 -25.9 -34.6 Q-28.9 -34.6 -29.9 -32.8 -30.4 -31.9 -30.3 -30.85 L-29.9 -29.05 -29.5 -27.25 -29.5 -26.7 -29.3 -26.2 Q-29.45 -25.7 -30.2 -25.4 -31.65 -28.15 -33.35 -33.0 L-36.3 -41.2 -40.2 -50.1 -42.5 -55.4 -42.6 -55.6 -43.8 -58.6 -43.7 -60.4 Q-43.5 -61.4 -42.6 -62.2 -41.1 -61.9 -39.5 -61.1 -37.75 -61.1 -37.4 -64.05 -37.4 -65.15 -38.25 -66.65 -39.1 -68.1 -40.1 -68.4 L-40.4 -68.2 Q-41.45 -68.6 -41.7 -70.3 L-41.8 -72.85 Q-41.8 -76.75 -40.35 -78.65 -37.7 -82.3 -29.8 -82.3 -28.45 -81.6 -27.95 -81.05 L-27.2 -79.7 -27.35 -79.55 -27.75 -79.5 -27.2 -79.3 -28.3 -79.0 -28.9 -78.25 -29.1 -77.2 Q-29.1 -75.5 -26.55 -72.9 -24.3 -70.5 -21.95 -69.9 L-20.5 -69.9 Q-20.05 -69.0 -19.2 -68.5 L-17.3 -67.6 -15.25 -66.8 Q-14.1 -66.4 -13.5 -65.8 L-10.5 -66.3 -10.0 -66.4 Q-9.7 -66.55 -9.7 -67.15 -9.7 -68.0 -8.2 -68.9 L-4.15 -68.2 -1.1 -67.3 -1.1 -67.0 -3.1 -66.9 -3.1 -64.8 Q-2.75 -63.95 -1.4 -63.05 L0.9 -61.8 Q9.1 -63.2 9.95 -63.7 10.45 -64.0 10.4 -64.7 L10.2 -66.4 Q10.2 -67.1 10.85 -68.35 11.5 -69.7 12.2 -70.2 14.15 -69.85 17.9 -72.85 21.5 -75.75 21.5 -77.35 L21.3 -78.45 20.6 -79.3 Q23.7 -82.15 25.9 -82.9 28.4 -83.75 32.5 -83.0 37.35 -82.4 39.05 -78.65 39.9 -76.75 39.9 -73.45 39.9 -72.1 39.0 -70.1 38.55 -70.15 38.3 -70.5 L38.1 -71.0 Q37.1 -69.95 36.35 -68.6 35.5 -67.05 35.5 -65.9 35.5 -65.6 36.35 -64.75 L37.9 -63.2 42.6 -63.3 44.7 -65.15 Q45.6 -65.95 46.0 -66.9 L46.25 -66.9 46.2 -67.45 Q46.2 -68.25 48.7 -69.65 51.6 -71.3 54.0 -70.5 56.0 -69.45 55.9 -67.6 L55.4 -64.4 56.4 -64.1 56.8 -63.1 M37.0 -31.4 L36.3 -30.0 35.8 -29.8 34.9 -31.05 Q34.9 -32.45 36.7 -32.0 L37.0 -31.4 M35.8 -25.6 Q34.9 -25.85 34.9 -26.6 35.95 -26.8 36.4 -26.1 36.2 -25.8 35.8 -25.6 M15.7 -27.7 Q15.5 -27.05 14.6 -26.7 L14.05 -26.85 Q13.9 -27.0 13.9 -27.65 13.9 -28.95 15.5 -28.3 L15.7 -27.7 M5.8 -20.8 L4.8 -21.2 5.2 -21.65 6.0 -21.9 6.4 -21.3 Q6.2 -21.0 5.8 -20.8 M-27.3 -29.4 L-27.2 -28.75 Q-27.2 -27.75 -27.3 -28.3 L-27.8 -28.0 Q-28.5 -28.1 -28.8 -28.4 -28.3 -29.2 -27.6 -29.5 L-27.3 -29.4 M-28.9 -22.2 L-28.75 -23.05 -28.2 -23.3 -26.8 -21.8 Q-27.0 -21.25 -28.2 -21.1 L-28.75 -21.35 -28.9 -22.2 M-4.35 -21.0 L-4.45 -20.5 -4.25 -20.8 -4.35 -21.0 M-8.2 -22.6 L-7.6 -22.7 -6.9 -21.8 -7.35 -21.25 Q-7.75 -20.9 -8.1 -20.9 L-8.35 -21.1 -8.4 -21.8 -8.2 -22.6" fill="#afbfc2" fill-rule="evenodd" stroke="none"/>
    </g>
  </defs>
</svg>
