<?xml version="1.0" encoding="UTF-8" standalone="no"?>
<svg xmlns:ffdec="https://www.free-decompiler.com/flash" xmlns:xlink="http://www.w3.org/1999/xlink" ffdec:objectType="frame" height="98.3px" width="160.1px" xmlns="http://www.w3.org/2000/svg">
  <g transform="matrix(1.0, 0.0, 0.0, 1.0, 79.5, 87.5)">
    <use ffdec:characterId="182" height="58.9" transform="matrix(1.0, 0.0, 0.0, 1.0, -46.9, -85.7)" width="107.7" xlink:href="#shape0"/>
  </g>
  <defs>
    <g id="shape0" transform="matrix(1.0, 0.0, 0.0, 1.0, 46.9, 85.7)">
      <path d="M45.9 -79.4 L46.2 -78.4 Q46.2 -77.95 44.8 -75.4 L43.7 -76.4 43.7 -76.8 Q41.7 -76.5 40.95 -75.7 L39.9 -74.3 40.2 -73.7 40.7 -73.2 43.3 -73.1 45.5 -72.8 Q49.4 -72.8 50.55 -73.5 50.95 -73.7 51.6 -75.1 52.35 -76.8 53.9 -77.8 L56.4 -77.8 Q59.95 -76.15 60.3 -72.7 L60.7 -67.9 60.8 -67.8 60.8 -67.15 Q60.8 -65.1 58.55 -60.45 56.2 -55.6 54.6 -55.1 L54.3 -55.3 54.3 -56.1 Q54.3 -56.6 53.85 -56.6 L52.5 -55.8 49.0 -53.5 46.65 -51.05 46.2 -50.6 Q45.85 -49.2 43.0 -48.0 L41.5 -48.1 40.95 -49.75 Q40.45 -51.1 38.9 -51.1 35.55 -51.1 31.85 -49.55 29.1 -48.4 28.5 -47.7 28.05 -47.25 28.3 -45.55 28.45 -44.05 27.0 -43.3 25.1 -43.2 23.05 -42.2 21.25 -41.15 20.7 -41.0 L19.75 -42.6 Q19.3 -43.5 19.3 -44.3 18.1 -44.4 17.5 -45.35 17.0 -46.1 17.1 -46.9 13.6 -47.5 11.1 -46.8 8.35 -46.0 6.3 -43.6 5.85 -43.1 5.45 -41.65 L5.0 -39.7 Q4.1 -36.4 1.8 -36.0 -0.9 -35.5 -1.25 -34.4 -1.75 -32.95 -2.2 -32.7 -2.95 -36.1 -3.9 -37.1 -5.3 -38.55 -7.0 -38.95 -8.2 -39.2 -8.8 -40.8 -9.1 -41.5 -8.9 -43.05 -8.7 -44.65 -8.9 -45.3 -9.3 -46.55 -10.85 -47.45 L-14.3 -48.9 Q-16.0 -49.15 -16.8 -48.3 -17.7 -47.4 -18.2 -47.4 L-21.7 -47.5 -21.9 -47.75 -22.9 -47.8 -24.0 -49.3 -25.1 -50.8 -27.9 -50.8 Q-31.6 -48.95 -31.75 -48.15 -31.9 -47.6 -31.3 -45.8 -31.3 -43.75 -32.1 -42.8 -33.2 -41.5 -33.6 -39.8 -34.5 -40.95 -36.7 -42.6 -38.15 -43.65 -38.3 -45.3 L-38.45 -48.0 Q-38.55 -49.9 -39.1 -51.0 -40.2 -53.3 -42.15 -54.05 -44.15 -54.85 -45.2 -56.7 -46.45 -58.95 -46.7 -59.9 -46.9 -60.5 -46.9 -62.25 L-46.75 -64.9 Q-46.4 -65.8 -44.4 -68.1 L-41.6 -68.4 Q-40.7 -69.6 -40.6 -70.2 L-42.3 -71.35 -43.9 -72.9 Q-44.6 -73.95 -44.6 -75.9 -44.6 -78.25 -44.4 -78.7 L-41.8 -82.2 -41.7 -82.15 -41.15 -82.65 Q-38.4 -84.55 -31.7 -84.0 L-29.9 -82.2 -31.1 -81.8 Q-31.05 -80.6 -29.85 -79.15 -28.8 -77.85 -28.0 -77.7 L-23.3 -77.45 -19.6 -76.4 -19.65 -76.1 -17.8 -75.5 -15.2 -75.6 Q-9.8 -75.6 -7.3 -74.55 L-4.4 -73.3 -3.0 -71.8 -3.8 -71.6 -5.1 -71.6 -5.25 -71.4 -5.4 -70.7 -4.8 -69.7 -4.1 -68.7 -2.4 -68.0 Q-1.2 -67.5 0.3 -67.5 L3.5 -68.05 7.9 -68.7 9.0 -69.4 7.8 -71.35 Q7.8 -72.55 11.95 -73.75 16.6 -75.1 17.6 -76.8 17.9 -77.25 17.9 -78.3 17.9 -79.1 18.9 -80.1 L19.3 -80.4 Q19.3 -81.4 24.3 -83.55 29.35 -85.75 31.8 -85.7 37.75 -85.6 42.0 -83.65 45.7 -81.95 45.7 -80.2 L45.7 -79.6 45.9 -79.4 M52.4 -51.3 L49.85 -48.25 47.2 -44.7 47.0 -44.8 46.9 -45.45 Q46.9 -45.9 47.55 -47.05 48.2 -48.2 48.2 -49.5 48.6 -50.3 50.05 -50.95 51.5 -51.6 52.4 -51.3 M24.3 -40.7 L24.7 -40.1 23.8 -39.5 23.25 -39.5 Q23.1 -39.55 23.1 -40.15 L23.15 -40.85 23.2 -40.8 24.3 -40.7 M20.6 -38.05 L19.1 -38.7 Q20.15 -39.6 21.8 -39.45 23.6 -39.25 23.6 -37.7 23.6 -37.4 22.65 -36.8 L21.4 -36.1 20.9 -36.6 21.0 -37.4 Q21.7 -37.5 20.6 -38.05 M0.8 -28.6 Q0.8 -27.9 0.4 -27.4 -0.05 -26.8 -0.8 -26.8 L-1.7 -26.9 -1.9 -27.0 -2.0 -28.2 Q-2.0 -30.65 0.6 -29.8 L0.7 -29.45 0.8 -28.6 M-20.0 -76.2 L-20.0 -76.3 -20.2 -76.3 -20.0 -76.2 M-8.5 -34.35 L-8.5 -33.2 -7.8 -32.1 -7.65 -31.9 -7.55 -31.9 Q-7.0 -31.8 -6.5 -31.4 L-5.7 -31.6 -5.5 -31.5 -5.5 -31.15 -5.0 -30.8 -4.7 -30.2 Q-4.7 -29.2 -4.8 -29.3 L-5.4 -29.1 -6.6 -29.1 -6.65 -29.15 -7.4 -29.0 Q-7.85 -29.2 -8.3 -29.75 L-8.55 -29.9 -8.8 -30.5 -9.45 -31.9 -10.3 -34.35 -9.85 -35.25 -9.0 -35.7 Q-8.5 -35.05 -8.5 -34.35 M-8.4 -31.8 L-8.6 -31.8 -8.55 -31.7 -8.4 -31.8" fill="#afbfc2" fill-rule="evenodd" stroke="none"/>
    </g>
  </defs>
</svg>
