<?xml version="1.0" encoding="UTF-8" standalone="no"?>
<svg xmlns:ffdec="https://www.free-decompiler.com/flash" xmlns:xlink="http://www.w3.org/1999/xlink" ffdec:objectType="frame" height="98.3px" width="160.1px" xmlns="http://www.w3.org/2000/svg">
  <g transform="matrix(1.0, 0.0, 0.0, 1.0, 79.5, 87.5)">
    <use ffdec:characterId="183" height="58.4" transform="matrix(1.0, 0.0, 0.0, 1.0, -53.0, -87.5)" width="120.5" xlink:href="#shape0"/>
  </g>
  <defs>
    <g id="shape0" transform="matrix(1.0, 0.0, 0.0, 1.0, 53.0, 87.5)">
      <path d="M41.8 -86.3 Q44.35 -86.3 46.7 -83.4 48.6 -81.0 48.6 -79.95 48.6 -78.8 47.65 -77.9 46.45 -76.8 44.4 -77.3 L43.7 -76.4 44.1 -75.8 44.9 -75.7 45.8 -75.5 49.8 -75.6 Q50.4 -75.6 50.4 -76.1 L50.2 -76.8 Q51.55 -77.0 51.7 -77.3 L52.7 -78.65 Q53.4 -79.4 53.95 -79.4 56.75 -79.4 58.75 -78.3 62.9 -77.3 65.3 -74.25 67.75 -71.15 67.5 -67.7 L67.5 -62.9 66.9 -62.85 66.5 -63.2 63.25 -62.4 Q60.3 -61.4 59.0 -60.1 L58.4 -60.05 Q57.55 -59.3 56.7 -59.5 55.45 -58.55 54.3 -58.6 52.15 -57.7 50.8 -56.0 L48.75 -53.55 48.25 -52.25 Q47.6 -50.15 46.4 -49.4 L41.6 -49.4 41.6 -49.3 Q41.95 -49.0 40.95 -49.0 40.4 -49.0 40.2 -49.3 L39.7 -49.95 Q39.15 -50.15 39.15 -50.45 L38.95 -50.5 Q38.6 -52.2 36.3 -52.2 L31.4 -52.05 Q28.4 -51.4 26.1 -49.9 L24.1 -48.05 22.4 -48.7 Q18.7 -50.0 12.8 -50.0 L11.15 -49.95 Q8.4 -50.75 4.9 -49.9 L4.9 -49.7 Q4.9 -49.25 4.35 -48.8 3.7 -48.3 3.0 -48.3 L2.2 -48.4 2.1 -48.5 1.95 -48.7 1.9 -49.4 0.0 -49.4 -3.9 -49.1 -4.3 -48.9 -4.7 -48.3 -3.7 -48.0 -3.1 -47.4 -3.85 -46.45 Q-4.35 -45.9 -5.0 -45.9 -5.45 -45.9 -6.2 -46.8 L-6.75 -47.5 -6.8 -47.5 Q-11.0 -49.75 -15.0 -50.9 -20.4 -52.45 -22.1 -50.25 L-21.6 -50.3 -21.4 -50.35 Q-21.2 -50.3 -21.2 -49.7 -21.2 -48.7 -21.3 -48.8 -21.15 -48.5 -22.15 -48.5 L-22.9 -48.7 -23.2 -49.1 -23.3 -49.35 -25.1 -50.4 -28.6 -50.3 Q-29.35 -50.2 -30.1 -49.4 L-31.0 -48.5 -33.85 -48.55 -34.2 -48.4 Q-39.9 -48.35 -41.6 -50.4 -42.3 -51.25 -42.3 -53.0 -42.3 -55.1 -40.8 -55.8 -39.8 -56.25 -39.6 -57.1 L-39.55 -57.45 Q-39.65 -58.25 -39.9 -58.8 -41.15 -61.4 -42.0 -61.05 -42.9 -60.1 -43.4 -60.1 -46.05 -60.1 -48.0 -63.7 L-49.25 -67.0 -49.4 -67.0 Q-52.25 -67.0 -52.9 -70.0 L-53.0 -73.45 Q-53.0 -74.35 -51.45 -75.25 L-50.9 -75.6 -51.0 -76.2 Q-51.0 -78.05 -48.5 -80.9 -45.9 -83.85 -43.4 -84.6 L-42.75 -84.55 -42.5 -84.5 -41.4 -85.3 -39.8 -85.3 -39.35 -85.15 -38.8 -84.9 -39.7 -84.55 -40.55 -83.8 -41.1 -83.05 Q-41.1 -82.6 -40.6 -82.05 L-39.9 -81.4 -35.0 -80.2 Q-31.15 -80.2 -29.25 -81.15 -27.35 -82.1 -26.2 -82.1 L-19.3 -81.6 -19.0 -81.15 -18.3 -80.6 Q-11.75 -81.8 -10.05 -80.6 L-8.8 -79.35 Q-7.9 -78.5 -6.4 -78.1 L-6.2 -76.9 -7.4 -77.0 Q-8.0 -76.85 -8.0 -75.7 -8.0 -74.6 -7.3 -73.9 L-3.2 -73.7 Q-1.1 -73.6 -0.6 -73.1 L2.35 -73.45 5.0 -74.0 5.7 -75.9 Q6.8 -77.2 10.2 -77.5 10.7 -77.55 13.55 -78.9 L16.8 -80.5 16.9 -80.65 17.0 -80.55 17.8 -81.9 Q18.15 -82.9 19.4 -83.9 20.7 -84.9 22.2 -85.4 L27.0 -87.05 32.0 -87.3 34.55 -85.7 Q37.15 -84.3 38.3 -84.3 L40.6 -84.4 40.5 -85.0 41.8 -86.3 M48.4 -50.3 L48.8 -49.7 48.2 -49.2 Q47.5 -49.3 47.2 -49.6 L47.6 -50.05 48.4 -50.3 M48.8 -51.8 Q49.65 -51.8 50.0 -51.3 49.8 -51.0 49.1 -50.9 48.8 -51.2 48.8 -51.8 M56.7 -59.1 L56.3 -58.5 55.2 -58.5 55.85 -58.9 56.7 -59.1 M51.1 -50.9 Q50.8 -50.5 50.8 -51.5 50.8 -53.0 52.4 -52.6 52.7 -52.3 52.7 -51.4 51.6 -50.9 51.1 -50.9 M25.95 -45.45 L26.0 -45.6 Q26.6 -46.2 27.5 -46.2 L27.7 -45.6 27.45 -45.35 26.65 -45.3 25.95 -45.45 M23.8 -45.4 L24.45 -45.45 24.6 -44.85 24.5 -43.9 22.2 -43.3 Q20.15 -43.45 19.7 -44.4 19.3 -45.15 19.9 -46.1 L19.1 -46.6 Q18.35 -46.95 18.3 -47.1 L19.4 -47.4 21.8 -47.4 22.05 -46.3 Q22.1 -45.45 22.3 -45.0 22.55 -44.75 23.8 -45.4 M21.5 -39.9 Q21.25 -39.15 19.9 -39.0 19.7 -38.6 19.7 -39.6 19.7 -40.25 19.85 -40.3 L20.2 -40.3 20.75 -40.2 21.5 -39.9 M22.5 -38.9 L23.0 -39.35 23.9 -39.6 24.0 -39.3 Q23.8 -38.7 23.4 -38.5 22.7 -38.6 22.5 -38.9 M5.4 -45.2 Q5.4 -44.55 4.95 -44.15 L5.5 -44.3 3.3 -42.5 3.65 -42.1 4.2 -41.4 2.2 -39.1 -1.2 -39.2 Q-1.9 -40.1 -3.2 -40.7 L-5.9 -40.55 -6.2 -40.3 -6.55 -40.45 -6.9 -40.5 -7.05 -40.8 -8.0 -41.3 -8.0 -42.55 -8.5 -42.6 Q-8.7 -42.2 -8.7 -43.2 L-8.5 -44.1 -8.0 -44.7 Q-7.8 -44.7 -7.7 -44.35 L-7.8 -43.8 -7.7 -43.5 -6.0 -43.3 -5.7 -42.7 -4.45 -42.55 -4.2 -42.7 -2.8 -42.6 -1.95 -41.9 Q0.65 -41.9 1.65 -43.3 L2.25 -43.9 Q2.3 -44.4 2.7 -44.5 L3.2 -44.6 4.4 -44.9 4.05 -45.1 Q3.8 -45.2 3.8 -45.8 3.8 -46.4 3.9 -46.3 L4.2 -46.1 4.2 -46.2 5.2 -46.1 5.4 -45.9 5.4 -45.2 M0.5 -30.1 Q0.4 -29.4 -0.6 -29.1 L-1.15 -29.25 -1.3 -30.05 Q-1.3 -31.35 0.3 -30.7 L0.5 -30.1 M-44.6 -70.6 L-44.2 -70.8 -45.8 -70.9 -46.6 -70.2 -46.7 -69.9 -44.6 -70.6 M-44.8 -59.9 L-44.3 -59.0 Q-44.5 -58.7 -45.0 -58.5 -45.6 -58.75 -45.6 -59.6 -45.3 -59.9 -44.8 -59.9 M-11.3 -35.15 Q-11.3 -35.75 -10.95 -35.95 L-10.6 -36.1 -9.7 -35.6 -9.6 -34.7 -10.6 -34.2 -11.15 -34.35 -11.3 -35.15 M-3.7 -31.5 Q-3.85 -31.0 -4.2 -30.9 L-4.8 -30.85 Q-5.0 -30.3 -5.4 -30.1 L-7.7 -30.2 Q-8.8 -31.4 -8.8 -32.0 L-8.5 -32.75 -8.2 -32.8 Q-6.9 -31.85 -6.9 -31.2 L-5.1 -31.2 -5.1 -31.45 -5.05 -32.15 -5.0 -32.1 -4.0 -32.1 -3.7 -31.5 M-32.45 -45.3 L-32.0 -44.9 -34.6 -42.9 -35.7 -42.9 Q-36.3 -43.05 -36.95 -43.95 L-37.6 -45.15 -37.5 -45.8 -37.3 -45.9 Q-36.4 -45.45 -36.0 -44.8 -35.4 -44.8 -34.2 -45.6 L-32.8 -45.5 -32.45 -45.3 M-39.1 -47.4 Q-38.75 -47.3 -39.75 -47.3 L-40.45 -47.45 -40.4 -47.6 -40.0 -48.05 -39.2 -48.2 -38.9 -47.9 -39.1 -47.4 M-35.2 -41.6 L-34.9 -42.05 -34.6 -42.4 -34.05 -42.25 -33.3 -41.9 -33.8 -41.3 -35.2 -41.6" fill="#afbfc2" fill-rule="evenodd" stroke="none"/>
    </g>
  </defs>
</svg>
