<?xml version="1.0" encoding="UTF-8" standalone="no"?>
<svg xmlns:ffdec="https://www.free-decompiler.com/flash" xmlns:xlink="http://www.w3.org/1999/xlink" ffdec:objectType="frame" height="98.3px" width="160.1px" xmlns="http://www.w3.org/2000/svg">
  <g transform="matrix(1.0, 0.0, 0.0, 1.0, 79.5, 87.5)">
    <use ffdec:characterId="184" height="54.4" transform="matrix(1.0, 0.0, 0.0, 1.0, -60.2, -85.4)" width="132.2" xlink:href="#shape0"/>
  </g>
  <defs>
    <g id="shape0" transform="matrix(1.0, 0.0, 0.0, 1.0, 60.2, 85.4)">
      <path d="M66.9 -75.9 Q70.9 -73.0 71.1 -70.8 L71.2 -65.7 71.6 -62.95 72.0 -60.6 Q72.0 -58.2 70.95 -56.55 69.5 -54.3 65.8 -52.6 65.3 -53.1 65.3 -54.0 L63.5 -54.2 Q61.7 -56.0 60.9 -56.0 L60.3 -56.0 59.1 -55.4 58.2 -54.85 Q58.2 -53.75 55.7 -53.1 L50.6 -52.1 49.1 -52.2 47.6 -53.1 47.5 -54.15 47.3 -54.7 47.2 -54.65 47.1 -54.9 Q46.4 -54.9 44.4 -54.05 43.55 -54.0 43.2 -53.5 L42.9 -53.4 41.05 -52.5 40.0 -52.7 39.4 -55.1 Q39.4 -55.75 39.65 -55.95 L40.1 -56.2 39.8 -56.45 39.75 -56.5 39.7 -56.55 39.2 -57.0 39.3 -57.15 Q32.1 -56.65 30.3 -55.4 29.6 -54.9 29.5 -54.05 L29.2 -52.7 27.15 -51.65 Q26.0 -51.0 24.6 -51.0 L21.2 -51.1 21.0 -52.0 18.9 -52.0 Q18.0 -51.85 16.55 -51.1 15.55 -50.55 10.65 -50.5 L8.3 -50.9 8.15 -51.05 3.75 -51.85 4.1 -51.1 3.0 -50.0 Q1.95 -50.0 1.55 -51.55 L1.45 -52.5 -2.5 -53.8 -3.5 -54.4 Q-3.5 -55.2 -2.6 -55.9 -2.9 -55.95 -4.85 -56.9 L-5.6 -57.2 -5.8 -57.1 -7.0 -56.9 Q-8.45 -55.9 -8.35 -55.25 -8.3 -55.0 -9.0 -55.0 L-9.4 -54.9 -8.4 -54.5 -8.15 -53.85 -7.7 -53.0 -6.85 -52.9 Q-6.2 -52.8 -6.2 -52.2 L-6.2 -51.3 Q-6.3 -51.1 -6.6 -51.0 L-7.6 -51.1 -9.35 -52.2 Q-10.45 -52.95 -11.0 -53.8 L-13.1 -54.5 -15.8 -55.2 -17.25 -55.05 -17.7 -54.55 Q-18.75 -53.2 -19.5 -52.95 -20.8 -52.5 -23.7 -53.4 -24.65 -53.55 -26.25 -52.7 -27.7 -51.8 -27.8 -51.8 L-30.15 -51.85 -32.7 -52.1 Q-39.05 -52.8 -41.15 -54.25 -42.7 -55.35 -42.1 -57.3 -42.6 -57.8 -44.0 -57.9 L-44.4 -58.7 -45.85 -60.1 Q-47.45 -59.8 -48.05 -59.2 L-50.2 -57.3 Q-60.2 -58.35 -60.2 -65.0 -60.2 -67.1 -59.8 -68.0 -59.25 -69.15 -58.15 -69.95 -57.3 -70.55 -57.3 -70.85 L-57.95 -71.95 -58.6 -73.0 Q-58.6 -75.3 -56.6 -76.6 L-54.2 -77.95 Q-55.25 -78.1 -55.3 -78.3 L-51.8 -80.6 Q-50.4 -81.65 -47.4 -82.5 L-46.55 -82.4 -45.6 -82.1 Q-46.2 -81.5 -48.4 -80.7 -50.1 -80.1 -50.3 -78.9 L-50.3 -78.6 Q-50.1 -78.4 -49.9 -78.45 L-49.0 -78.5 -47.3 -78.4 Q-46.35 -75.45 -44.7 -73.4 -39.0 -73.8 -37.6 -75.3 -36.9 -76.15 -36.2 -76.1 L-32.2 -76.0 Q-30.95 -76.8 -29.65 -79.1 -28.65 -80.8 -26.2 -81.4 L-25.6 -81.35 -23.4 -81.95 Q-21.7 -82.05 -20.6 -82.6 L-19.6 -82.5 Q-19.5 -82.4 -19.7 -82.15 L-20.0 -81.3 Q-20.0 -80.8 -19.5 -80.85 -19.0 -80.9 -19.0 -80.4 -19.0 -79.8 -19.3 -79.55 L-19.8 -79.2 -18.9 -78.7 -14.65 -79.35 -13.0 -80.2 -12.25 -80.1 -11.4 -79.9 Q-10.2 -80.0 -10.4 -80.3 L-10.6 -80.6 -10.55 -80.85 -9.8 -81.1 Q-9.05 -81.1 -8.05 -80.4 L-6.6 -79.0 -6.8 -78.15 Q-7.1 -77.75 -8.7 -77.6 -8.9 -77.5 -8.95 -77.5 L-9.0 -76.85 Q-9.0 -75.75 -8.05 -74.9 -7.25 -74.15 -5.0 -73.0 L-2.15 -73.35 2.7 -73.9 Q3.95 -74.45 4.6 -75.6 5.4 -76.9 5.0 -78.2 L5.25 -78.35 6.0 -78.5 Q6.65 -78.5 6.65 -78.3 L6.5 -77.9 6.75 -77.75 8.2 -77.6 Q8.2 -78.05 8.6 -78.2 L12.65 -78.55 15.4 -78.8 Q16.35 -79.05 17.05 -79.6 L18.1 -80.6 16.9 -82.1 16.9 -82.7 17.7 -82.75 18.7 -82.4 20.1 -82.5 20.1 -83.4 22.4 -83.4 Q23.4 -82.35 24.25 -82.75 25.15 -83.15 26.7 -81.6 L27.8 -81.7 28.9 -83.15 Q29.55 -83.9 30.6 -83.9 L34.4 -83.8 Q35.7 -82.9 36.3 -82.0 L36.75 -81.8 37.9 -81.6 Q38.7 -81.6 41.7 -82.5 41.7 -83.1 40.9 -84.9 L41.1 -85.4 43.45 -84.6 46.8 -83.4 47.4 -83.4 48.4 -82.65 48.8 -82.25 Q50.9 -81.35 50.9 -78.7 50.9 -78.15 50.1 -77.65 50.15 -77.2 50.5 -77.2 L51.1 -77.1 50.55 -76.65 51.5 -76.5 55.8 -77.0 Q56.75 -77.25 56.9 -77.95 57.1 -78.9 57.4 -79.2 L60.8 -78.7 Q63.6 -78.25 66.9 -75.9 M23.9 -44.7 Q23.65 -43.9 23.0 -43.6 L19.6 -44.4 19.7 -45.5 20.8 -45.6 22.15 -45.2 Q23.15 -44.8 23.9 -44.7 M20.6 -47.0 L19.8 -46.2 19.3 -46.4 19.1 -47.0 Q19.5 -47.6 20.4 -47.3 L20.6 -47.0 M3.0 -43.65 L3.1 -42.85 Q3.1 -41.7 1.8 -41.3 L0.8 -41.1 Q0.0 -41.1 -0.6 -41.7 L2.7 -43.9 3.0 -43.65 M2.6 -44.45 L2.5 -45.25 Q2.5 -45.85 3.05 -46.05 L3.8 -46.2 4.8 -46.1 5.1 -45.5 4.9 -44.7 3.0 -44.3 Q2.7 -44.4 2.6 -44.45 M-1.9 -42.8 L-2.4 -42.4 -2.9 -43.0 -4.75 -43.3 -6.0 -43.6 Q-6.15 -43.9 -6.8 -44.1 L-6.6 -44.4 -2.9 -44.3 Q-2.0 -43.4 -1.9 -42.8 M-11.2 -34.7 L-11.0 -35.5 -10.6 -35.6 -9.7 -35.1 -9.8 -33.9 -10.9 -33.8 -11.05 -34.0 -11.2 -34.7 M-4.4 -31.75 L-4.2 -32.6 -3.75 -32.6 -3.2 -32.5 -3.0 -32.2 -3.6 -31.3 -4.1 -31.3 -4.4 -31.75 M-6.9 -31.5 Q-7.0 -31.2 -7.4 -31.0 -7.9 -31.2 -7.9 -31.7 L-6.9 -31.5 M-33.2 -44.1 L-33.55 -44.3 -33.7 -45.0 -33.65 -45.55 -33.5 -45.6 -32.1 -45.5 -31.9 -44.9 Q-32.3 -44.3 -33.2 -44.1 M-37.5 -45.2 L-36.4 -45.0 -36.1 -44.7 -36.3 -44.2 -37.3 -44.1 Q-37.6 -43.55 -37.6 -44.55 L-37.55 -45.25 -37.5 -45.2" fill="#afbfc2" fill-rule="evenodd" stroke="none"/>
    </g>
  </defs>
</svg>
