<?xml version="1.0" encoding="UTF-8" standalone="no"?>
<svg xmlns:ffdec="https://www.free-decompiler.com/flash" xmlns:xlink="http://www.w3.org/1999/xlink" ffdec:objectType="frame" height="729.7px" width="639.65px" xmlns="http://www.w3.org/2000/svg">
  <g transform="matrix(1.0, 0.0, 0.0, 1.0, 279.05, 601.4)">
    <use ffdec:characterId="844" ffdec:characterName="a_UArmR" height="32.55" transform="matrix(0.3087, -0.9487, 0.9487, 0.3087, -55.0969, -78.5734)" width="43.4" xlink:href="#sprite0"/>
  </g>
  <defs>
    <g id="sprite0" transform="matrix(1.0, 0.0, 0.0, 1.0, 21.35, 16.45)">
      <use ffdec:characterId="843" height="4.65" transform="matrix(7.0, 0.0, 0.0, 7.0, -21.35, -16.45)" width="6.2" xlink:href="#shape0"/>
    </g>
    <g id="shape0" transform="matrix(1.0, 0.0, 0.0, 1.0, 3.05, 2.35)">
      <path d="M2.95 0.55 L3.0 0.5 2.9 0.75 Q2.85 0.85 2.85 0.95 2.55 1.5 2.25 1.75 L1.75 2.0 Q1.2 2.25 0.8 2.3 L-0.05 2.3 -0.9 1.95 -1.5 1.7 Q-2.95 1.1 -2.95 0.55 L-3.0 0.4 Q-3.3 -1.1 -2.0 -2.0 -0.95 -2.75 0.1 -2.0 L0.35 -1.75 0.45 -1.7 0.5 -1.75 0.8 -1.85 1.1 -1.9 Q2.0 -1.9 2.8 -1.5 L3.05 -1.3 Q3.15 -1.15 3.15 -0.9 L3.1 -0.6 3.1 -0.65 3.05 -0.8 2.9 -0.95 2.85 -1.05 2.7 -1.15 2.65 -1.2 Q2.45 -1.3 2.25 -1.35 L2.2 -1.4 1.9 -1.45 1.85 -1.5 1.55 -1.55 1.4 -1.55 1.25 -1.6 1.2 -1.6 Q0.8 -1.6 0.25 -1.35 L0.15 -1.3 0.05 -1.2 -0.15 -1.05 Q-0.45 -0.8 -0.75 -0.4 L-0.8 -0.35 -0.8 -0.55 -0.7 -0.75 -0.55 -1.1 Q-0.45 -1.25 -0.3 -1.35 L-0.25 -1.4 -0.25 -1.45 Q-0.1 -1.55 0.05 -1.6 L-0.1 -1.75 -0.15 -1.75 Q-0.3 -1.9 -0.45 -1.95 -0.6 -2.0 -0.75 -2.05 L-1.3 -2.05 -1.75 -1.95 Q-2.1 -1.75 -2.4 -1.4 -2.65 -1.1 -2.8 -0.7 -2.55 0.2 -1.5 0.45 L-1.75 0.4 Q-2.5 0.45 -2.9 -0.15 -2.85 0.35 -2.4 0.6 L-2.3 0.75 Q-2.0 1.05 -1.6 1.25 -1.1 1.45 -0.65 1.6 0.0 1.85 0.4 1.85 L0.5 1.8 0.35 1.75 0.4 1.75 0.4 1.7 Q0.4 1.55 -0.05 0.95 L-0.4 0.5 -0.35 0.55 -0.2 0.6 -0.1 0.65 0.05 0.75 1.35 1.55 1.35 1.55 Q1.65 1.75 2.0 1.6 L2.35 1.4 2.45 1.3 2.45 1.35 2.5 1.25 2.8 0.85 2.9 0.7 2.95 0.6 2.95 0.55" fill="#111111" fill-rule="evenodd" stroke="none"/>
      <path d="M2.95 0.55 L2.95 0.6 2.9 0.7 2.85 0.7 Q2.6 0.75 2.25 0.75 2.05 0.75 1.8 0.7 L1.05 0.2 2.05 -0.1 2.2 -0.15 2.05 -0.15 Q2.95 -0.25 3.1 0.15 L3.1 0.2 2.95 0.55 M-2.4 -1.4 Q-2.1 -1.75 -1.75 -1.95 L-0.95 -1.95 Q-0.5 -1.85 -0.25 -1.45 L-0.25 -1.4 -0.3 -1.35 Q-0.45 -1.25 -0.55 -1.1 L-0.7 -0.75 -0.75 -0.75 Q-1.45 -0.75 -2.05 -1.15 -2.25 -1.3 -2.4 -1.4 M1.4 -1.55 L1.55 -1.55 1.85 -1.5 1.9 -1.45 2.2 -1.4 Q2.5 -1.2 2.8 -0.85 L2.95 -0.65 2.0 -0.55 Q1.7 -0.55 0.95 -0.35 0.25 -0.1 -0.35 -0.1 L-0.45 -0.1 -0.5 -0.15 Q-0.5 -0.5 -0.1 -0.95 0.45 -1.55 1.4 -1.55 M-0.25 0.95 L-1.1 0.85 -1.55 0.6 Q-1.2 0.45 -0.75 0.55 -0.35 0.65 -0.2 0.85 L-0.2 0.9 -0.25 0.95" fill="#506060" fill-rule="evenodd" stroke="none"/>
      <path d="M2.9 0.7 L2.8 0.85 2.5 1.25 2.45 1.35 2.45 1.3 2.35 1.4 2.0 1.6 Q1.65 1.75 1.35 1.55 L1.35 1.55 0.05 0.75 -0.1 0.65 -0.2 0.6 -0.35 0.55 -0.4 0.5 -0.05 0.95 Q0.4 1.55 0.4 1.7 L0.4 1.75 0.35 1.75 0.5 1.8 0.4 1.85 Q0.0 1.85 -0.65 1.6 -1.1 1.45 -1.6 1.25 -2.0 1.05 -2.3 0.75 L-2.4 0.6 Q-2.85 0.35 -2.9 -0.15 -2.5 0.45 -1.75 0.4 L-1.5 0.45 Q-2.55 0.2 -2.8 -0.7 -2.65 -1.1 -2.4 -1.4 -2.25 -1.3 -2.05 -1.15 -1.45 -0.75 -0.75 -0.75 L-0.7 -0.75 -0.8 -0.55 -0.8 -0.35 -0.75 -0.4 Q-0.45 -0.8 -0.15 -1.05 L0.05 -1.2 0.15 -1.3 0.25 -1.35 Q0.8 -1.6 1.2 -1.6 L1.25 -1.6 1.4 -1.55 Q0.45 -1.55 -0.1 -0.95 -0.5 -0.5 -0.5 -0.15 L-0.45 -0.1 -0.35 -0.1 Q0.25 -0.1 0.95 -0.35 1.7 -0.55 2.0 -0.55 L2.95 -0.65 2.8 -0.85 Q2.5 -1.2 2.2 -1.4 L2.25 -1.35 Q2.45 -1.3 2.65 -1.2 L2.7 -1.15 2.85 -1.05 2.9 -0.95 3.05 -0.8 3.1 -0.65 3.1 -0.6 3.1 0.15 Q2.95 -0.25 2.05 -0.15 L2.2 -0.15 2.05 -0.1 1.05 0.2 1.8 0.7 Q2.05 0.75 2.25 0.75 2.6 0.75 2.85 0.7 L2.9 0.7 M-1.75 -1.95 L-1.3 -2.05 -0.75 -2.05 Q-0.6 -2.0 -0.45 -1.95 -0.3 -1.9 -0.15 -1.75 L-0.1 -1.75 0.05 -1.6 Q-0.1 -1.55 -0.25 -1.45 L-0.25 -1.4 -0.25 -1.45 Q-0.5 -1.85 -0.95 -1.95 L-1.75 -1.95 M-0.25 0.95 L-0.2 0.9 -0.2 0.85 Q-0.35 0.65 -0.75 0.55 -1.2 0.45 -1.55 0.6 L-1.1 0.85 -0.25 0.95" fill="#304040" fill-rule="evenodd" stroke="none"/>
    </g>
  </defs>
</svg>
