<?xml version="1.0" encoding="UTF-8" standalone="no"?>
<svg xmlns:ffdec="https://www.free-decompiler.com/flash" xmlns:xlink="http://www.w3.org/1999/xlink" ffdec:objectType="frame" height="333.5px" width="832.45px" xmlns="http://www.w3.org/2000/svg">
  <g transform="matrix(1.0, 0.0, 0.0, 1.0, 40.5, 41.3)">
    <use ffdec:characterId="33" ffdec:characterName="a_EB_WaveBone_01" height="320.0" transform="matrix(-1.0, 0.0, 0.0, 1.0, 791.95, -27.8)" width="829.9" xlink:href="#sprite0"/>
  </g>
  <defs>
    <g id="sprite0" transform="matrix(1.0, 0.0, 0.0, 1.0, 40.45, 27.8)">
      <use ffdec:characterId="32" height="320.0" transform="matrix(1.0, 0.0, 0.0, 1.0, -40.45, -27.8)" width="829.9" xlink:href="#shape0"/>
    </g>
    <g id="shape0" transform="matrix(1.0, 0.0, 0.0, 1.0, 40.45, 27.8)">
      <path d="M377.4 -27.8 L378.55 -23.65 Q379.35 -20.25 380.5 -18.0 385.05 -15.9 388.75 -12.1 L394.6 -5.7 Q401.7 1.45 416.3 1.95 417.1 1.1 419.3 1.1 423.4 10.7 426.9 13.75 431.7 18.0 441.8 18.0 L456.45 15.9 466.6 14.2 Q470.9 21.1 488.7 31.35 491.7 33.1 499.0 36.8 501.6 37.3 501.75 37.95 L501.55 38.1 516.9 45.8 532.35 53.65 Q541.85 58.4 550.0 61.7 L555.05 63.65 557.05 64.6 Q568.1 66.7 581.6 68.05 L584.35 68.1 588.8 69.25 594.65 71.0 Q603.15 67.8 614.7 64.2 631.7 57.65 642.35 45.25 647.45 46.35 649.25 48.75 650.45 50.35 652.75 55.4 668.2 57.3 675.0 59.2 680.95 60.8 683.1 63.3 683.5 63.7 686.1 68.95 688.35 73.3 693.0 77.3 L700.9 82.65 Q706.8 82.75 709.05 83.6 712.05 84.75 727.85 92.8 L731.2 94.2 Q740.85 90.45 747.0 89.4 L749.55 85.9 Q750.9 83.85 750.9 83.25 755.95 85.85 760.4 88.55 L761.05 88.55 Q762.5 89.35 764.05 90.85 L769.7 94.75 Q782.25 104.0 784.65 111.9 L784.5 112.35 Q786.85 113.8 788.1 115.1 L789.45 117.0 789.25 123.8 788.9 124.35 789.0 137.0 788.95 141.2 788.9 241.55 788.05 290.65 787.2 291.05 784.65 289.4 784.15 288.25 782.6 288.25 782.7 288.8 781.85 292.2 74.8 292.2 -38.25 291.65 -38.85 291.3 -39.05 291.65 -39.65 291.65 -39.65 212.05 Q-40.6 196.75 -40.45 174.5 -40.15 151.45 -40.15 139.05 L-39.65 138.65 -25.25 129.2 -20.95 126.3 Q-9.5 118.55 -3.35 113.3 1.2 112.85 13.5 109.45 L18.65 108.05 Q20.3 108.8 22.5 108.8 35.7 108.8 52.7 105.45 69.35 102.2 84.4 96.75 L85.7 96.3 123.55 87.6 Q155.15 79.95 174.95 72.95 L182.4 71.0 Q199.35 67.25 218.1 58.65 234.25 52.05 249.5 43.9 271.2 32.25 285.1 20.65 L288.85 20.8 Q289.1 22.95 293.6 26.5 299.6 31.2 307.1 31.2 309.1 31.2 311.95 29.75 313.45 29.6 314.0 29.25 314.45 28.95 314.15 28.65 L314.8 28.3 320.65 27.5 320.05 27.25 Q323.6 23.55 328.5 19.3 337.6 12.9 343.8 7.2 L347.2 4.0 349.7 1.95 Q367.95 -13.2 375.75 -27.8 L377.4 -27.8 M486.0 16.95 L486.15 17.75 484.9 16.75 486.0 16.95 M726.6 67.7 L727.6 68.7 726.2 68.2 726.6 67.7 M732.05 118.15 L732.05 118.2 733.35 118.65 732.05 118.15" fill="#435f60" fill-rule="evenodd" stroke="none"/>
      <path d="M567.65 89.25 L563.85 90.15 566.05 90.7 Q580.75 94.6 585.55 96.75 L584.7 97.3 573.15 97.3 Q569.85 96.3 565.8 95.9 L559.65 95.2 Q552.85 93.95 545.3 86.6 L549.55 87.0 543.6 81.25 Q537.65 75.65 531.0 72.0 L531.35 70.45 535.75 70.0 Q539.55 70.0 542.6 71.15 543.65 71.55 548.8 74.2 559.55 79.7 576.8 83.25 577.15 83.85 581.6 85.4 585.95 86.95 586.4 88.0 L585.55 90.0 579.1 89.8 Q572.6 89.45 572.05 88.55 L567.65 89.25 M583.85 94.75 L595.9 93.9 596.8 93.85 595.5 92.5 Q594.15 91.15 594.0 90.0 597.8 89.1 606.8 83.3 L622.3 73.45 Q631.05 68.4 635.45 68.65 639.75 68.9 640.7 74.05 L641.15 73.35 Q643.7 69.95 649.65 73.95 649.15 75.7 647.8 78.05 646.2 80.9 644.05 83.25 L640.95 83.25 Q640.6 83.65 640.25 83.4 639.65 82.9 639.6 80.35 638.2 81.85 635.6 83.4 L635.25 84.5 635.6 84.65 636.15 86.05 633.9 87.0 Q632.05 89.5 628.4 91.55 625.95 92.95 617.9 95.9 L616.8 95.3 613.4 97.85 589.75 98.7 Q589.75 98.4 586.8 97.15 583.85 95.9 583.85 94.75 M613.3 91.4 L606.95 92.8 612.55 91.95 613.3 91.4 M453.35 36.25 Q454.2 37.15 454.2 40.5 454.2 41.15 453.65 41.95 L457.55 41.3 Q456.95 43.45 454.7 46.4 451.6 50.45 446.6 54.0 L443.6 53.8 Q442.65 53.55 442.65 50.05 442.65 48.5 443.6 47.2 L442.4 47.25 Q434.95 47.25 432.35 42.05 431.15 39.7 431.15 36.25 L431.25 32.2 432.0 29.8 432.25 29.8 Q433.7 21.4 443.8 23.9 446.75 24.6 453.1 27.2 458.3 29.3 459.8 29.25 456.85 32.7 452.8 35.6 L453.35 36.25 M375.85 10.05 Q376.55 11.1 376.55 14.9 L370.2 22.4 Q362.9 30.9 359.4 37.1 351.5 36.45 344.15 40.9 336.8 46.4 333.25 48.05 L331.9 47.4 Q330.45 46.5 329.9 45.25 342.85 29.5 350.2 22.8 361.05 13.0 373.5 8.4 L375.85 10.05 M280.95 42.75 Q280.15 45.0 273.5 52.45 L263.5 63.8 Q242.75 67.1 235.2 71.85 L235.1 71.95 234.05 72.8 Q228.8 77.3 224.9 79.6 L224.2 80.05 Q228.1 81.25 229.5 83.25 L228.0 84.95 Q240.65 82.1 243.0 82.1 242.7 83.15 240.7 86.05 L238.2 90.0 210.55 95.25 181.4 100.65 176.55 100.1 Q171.6 99.25 171.25 97.85 174.65 95.1 191.8 88.15 L187.95 86.0 Q185.45 84.65 183.9 84.65 177.5 83.8 169.5 87.1 162.7 90.55 162.25 90.55 151.0 90.55 149.9 88.0 L151.3 85.1 Q152.25 83.6 153.55 82.65 170.3 80.3 187.25 75.65 197.35 70.95 210.2 66.2 L233.7 57.35 253.15 47.4 Q268.15 40.5 274.5 41.9 278.05 41.65 280.95 42.75 M266.9 85.2 Q266.15 85.85 265.35 85.75 263.8 85.65 263.8 82.1 263.8 78.7 265.35 79.2 L266.9 79.85 269.25 80.5 Q271.7 81.45 272.25 82.65 L271.25 83.7 Q269.7 84.85 266.9 85.2 M122.9 96.75 L109.4 101.25 Q108.9 102.4 108.05 102.95 L107.15 103.4 Q109.9 104.55 112.25 104.95 L120.6 104.6 Q126.05 103.45 128.9 103.6 134.4 103.9 141.75 107.4 L139.0 111.0 Q137.3 112.65 133.65 113.8 126.75 116.05 102.05 119.4 L100.35 121.9 Q81.55 122.8 73.65 124.65 L57.35 124.55 55.3 123.45 Q43.05 123.7 34.45 125.75 27.4 127.45 24.15 129.9 L17.4 129.9 15.0 129.5 Q14.3 129.2 14.3 125.7 L14.3 125.4 10.4 126.0 7.3 125.4 Q7.1 126.05 6.9 125.95 6.45 125.85 6.45 122.3 L6.45 121.55 29.55 115.35 Q56.4 107.95 76.75 104.05 92.0 101.2 108.05 95.15 117.55 94.3 122.3 95.3 L122.9 96.75" fill="#819a9f" fill-rule="evenodd" stroke="none"/>
      <path d="M377.4 -27.8 L378.55 -23.65 Q379.35 -20.25 380.5 -18.0 385.05 -15.9 388.75 -12.1 L394.6 -5.7 Q401.7 1.45 416.3 1.95 417.1 1.1 419.3 1.1 423.4 10.7 426.9 13.75 431.7 18.0 441.8 18.0 L456.45 15.9 466.6 14.2 Q470.9 21.1 488.7 31.35 491.7 33.1 499.0 36.8 501.6 37.3 501.75 37.95 L501.55 38.1 516.9 45.8 532.35 53.65 Q541.85 58.4 550.0 61.7 L555.05 63.65 557.05 64.6 Q568.1 66.7 581.6 68.05 L584.35 68.1 588.8 69.25 594.65 71.0 Q603.15 67.8 614.7 64.2 631.7 57.65 642.35 45.25 647.45 46.35 649.25 48.75 650.45 50.35 652.75 55.4 668.2 57.3 675.0 59.2 680.95 60.8 683.1 63.3 683.5 63.7 686.1 68.95 688.35 73.3 693.0 77.3 L700.9 82.65 Q706.8 82.75 709.05 83.6 712.05 84.75 727.85 92.8 L731.2 94.2 Q740.85 90.45 747.0 89.4 L749.55 85.9 Q750.9 83.85 750.9 83.25 755.95 85.85 760.4 88.55 L761.05 88.55 Q762.5 89.35 764.05 90.85 L760.65 91.15 Q754.7 90.35 748.75 91.0 747.3 91.55 744.8 94.55 L739.2 96.55 733.5 98.4 Q720.1 103.0 705.25 110.0 L700.8 109.55 691.55 109.95 Q691.55 106.05 689.7 102.85 687.7 99.45 687.65 98.7 686.4 98.95 685.7 99.5 L685.95 98.7 Q680.8 95.1 677.6 93.4 671.95 90.35 664.85 90.0 663.8 90.9 658.15 91.25 L652.75 91.4 Q652.15 90.6 649.45 84.35 L646.55 77.3 641.5 75.35 635.3 74.5 Q628.9 77.1 604.5 88.35 L587.65 89.0 Q593.55 84.65 597.9 80.65 L595.1 80.7 Q590.95 80.7 580.05 78.75 L578.85 78.55 572.95 77.9 574.55 79.3 574.45 81.15 Q581.65 84.9 583.85 88.0 571.25 87.5 565.55 86.15 561.2 85.15 558.4 82.8 L555.45 80.3 552.15 78.45 547.65 75.25 543.4 73.5 523.65 70.0 Q518.95 62.45 512.45 58.9 507.75 56.3 500.05 55.05 L487.2 52.85 Q479.9 51.0 474.75 46.65 L474.75 47.25 474.35 45.3 Q473.9 44.0 473.9 47.5 L473.95 47.9 Q466.05 38.7 463.5 32.6 444.1 26.75 435.7 30.05 433.05 31.1 431.6 33.1 L430.3 35.15 Q426.05 32.0 421.8 27.15 417.3 22.0 412.85 18.55 L396.55 20.45 394.7 20.75 Q397.45 23.85 398.8 27.25 393.8 27.05 386.3 23.55 L383.0 21.9 382.75 21.9 382.75 21.8 Q376.95 18.65 372.9 14.6 369.55 14.9 365.95 15.8 L365.5 15.9 365.55 16.3 Q349.35 31.75 321.8 51.4 303.4 64.55 284.6 76.35 290.5 68.8 290.5 63.25 L290.45 61.2 Q291.05 59.8 291.05 58.75 291.05 39.45 267.6 45.5 260.05 47.45 250.0 52.1 L239.05 57.35 Q229.6 61.25 219.45 66.3 209.05 71.6 204.15 73.9 187.45 81.8 166.5 86.05 L90.8 101.0 Q50.5 109.15 28.05 115.55 15.1 119.25 5.05 123.15 L-16.05 124.25 -18.1 124.4 Q-8.7 117.9 -3.35 113.3 1.2 112.85 13.5 109.45 L18.65 108.05 Q20.3 108.8 22.5 108.8 35.7 108.8 52.7 105.45 69.35 102.2 84.4 96.75 L85.7 96.3 123.55 87.6 Q155.15 79.95 174.95 72.95 L182.4 71.0 Q199.35 67.25 218.1 58.65 234.25 52.05 249.5 43.9 271.2 32.25 285.1 20.65 L288.85 20.8 Q289.1 22.95 293.6 26.5 299.6 31.2 307.1 31.2 309.1 31.2 311.95 29.75 313.45 29.6 314.0 29.25 314.45 28.95 314.15 28.65 L314.8 28.3 320.65 27.5 320.05 27.25 Q323.6 23.55 328.5 19.3 337.6 12.9 343.8 7.2 L347.2 4.0 349.7 1.95 Q367.95 -13.2 375.75 -27.8 L377.4 -27.8 M486.0 16.95 L486.15 17.75 484.9 16.75 486.0 16.95 M726.6 67.7 L727.6 68.7 726.2 68.2 726.6 67.7" fill="#afbfc2" fill-rule="evenodd" stroke="none"/>
    </g>
  </defs>
</svg>
