<?xml version="1.0" encoding="UTF-8" standalone="no"?>
<svg xmlns:ffdec="https://www.free-decompiler.com/flash" xmlns:xlink="http://www.w3.org/1999/xlink" ffdec:objectType="frame" height="333.5px" width="832.45px" xmlns="http://www.w3.org/2000/svg">
  <g transform="matrix(1.0, 0.0, 0.0, 1.0, 40.5, 41.3)">
    <use ffdec:characterId="39" ffdec:characterName="a_EB_WaveBone_04" height="323.95" transform="matrix(-1.0, 0.0, 0.0, 1.0, 791.95, -31.75)" width="829.35" xlink:href="#sprite0"/>
  </g>
  <defs>
    <g id="sprite0" transform="matrix(1.0, 0.0, 0.0, 1.0, 40.45, 31.75)">
      <use ffdec:characterId="38" height="323.95" transform="matrix(1.0, 0.0, 0.0, 1.0, -40.45, -31.75)" width="829.35" xlink:href="#shape0"/>
    </g>
    <g id="shape0" transform="matrix(1.0, 0.0, 0.0, 1.0, 40.45, 31.75)">
      <path d="M482.6 -30.65 L483.6 -30.4 484.55 -28.65 Q484.55 -27.85 486.2 -26.55 L488.5 -24.45 Q495.15 -25.0 499.1 -26.25 L501.25 -27.0 501.75 -29.8 503.15 -29.8 Q521.95 -4.05 534.05 11.25 537.85 15.9 543.3 19.95 549.7 28.05 559.05 34.45 567.85 40.5 580.25 45.65 L581.8 47.6 Q595.3 55.45 601.2 58.55 613.9 65.2 624.1 68.1 635.65 71.4 648.55 71.4 L652.6 71.05 661.5 71.4 668.85 71.3 677.25 72.55 Q678.05 73.95 680.6 75.35 L738.75 78.55 766.95 80.7 769.6 80.6 788.9 82.55 788.9 241.55 788.05 290.65 787.2 291.05 784.65 289.4 784.15 288.25 782.6 288.25 782.7 288.8 781.85 292.2 74.8 292.2 -38.25 291.65 -38.85 291.3 -39.05 291.65 -39.65 291.65 -39.65 212.05 Q-40.6 196.75 -40.45 174.5 L-40.15 136.85 -40.2 128.8 -34.9 128.8 Q14.5 103.95 54.25 79.2 105.75 47.05 120.35 27.25 L123.4 27.6 123.45 31.75 Q123.45 32.8 128.05 38.1 133.45 44.4 138.9 48.05 L151.9 54.15 158.2 57.2 167.75 56.3 Q182.15 54.5 184.75 51.15 189.2 53.15 195.15 57.1 L194.6 55.95 193.35 55.25 Q192.75 54.55 196.3 54.55 199.9 54.55 207.3 56.25 L221.9 59.9 240.25 59.45 Q258.8 58.8 259.85 57.9 318.1 49.4 343.75 36.7 350.25 33.5 361.15 26.3 370.9 19.85 378.55 16.55 380.0 16.95 380.95 18.85 381.65 20.3 381.65 21.35 402.4 18.9 420.75 11.75 433.65 6.75 448.75 -2.2 L450.85 -3.4 463.5 -15.3 Q476.5 -27.8 479.8 -31.75 481.15 -31.35 482.15 -30.75 L482.6 -30.65" fill="#435f60" fill-rule="evenodd" stroke="none"/>
      <path d="M480.05 -3.9 Q483.05 -3.9 487.9 -5.85 492.8 -7.85 494.7 -7.85 L496.1 -5.9 466.05 17.8 435.35 41.9 Q435.15 42.3 434.95 42.05 434.5 41.45 434.5 37.95 434.5 37.15 441.45 27.7 448.55 18.05 448.85 16.55 L449.4 15.75 Q447.65 15.9 442.0 19.9 436.0 24.15 435.05 24.45 L430.3 24.45 Q431.45 23.2 439.35 17.5 447.55 11.15 451.1 5.9 458.2 3.7 469.05 -0.9 476.05 -3.9 480.05 -3.9 M380.95 43.5 Q378.75 46.9 377.1 50.45 L379.65 50.6 Q383.2 50.6 385.95 48.45 L389.25 45.25 391.85 45.05 Q392.6 45.15 392.6 48.65 392.6 51.3 382.85 60.65 L371.25 71.15 Q367.7 74.4 363.55 75.35 L355.3 75.85 Q341.55 75.5 331.55 79.3 L325.85 78.75 Q320.1 77.9 319.75 76.5 L323.0 73.55 324.45 72.05 Q322.6 70.5 322.0 68.6 320.0 68.4 305.15 71.8 290.9 75.05 283.5 77.3 282.9 78.35 280.7 80.0 L276.45 82.65 279.85 83.85 Q283.3 85.2 283.5 86.05 281.3 86.05 273.3 88.6 263.6 91.75 261.8 94.75 L244.1 94.75 Q222.9 93.7 213.15 90.95 206.15 88.15 200.3 86.65 L203.0 86.75 Q209.6 86.75 213.55 84.85 L214.0 84.9 214.35 84.4 215.25 83.8 216.6 82.65 Q235.2 74.75 244.55 71.35 L248.45 70.0 248.7 70.25 Q250.0 71.6 251.45 72.35 255.85 74.5 268.55 74.5 281.45 74.5 297.0 63.3 L303.05 58.5 307.35 56.15 316.85 50.75 Q320.25 49.35 322.65 47.95 L324.3 47.0 328.15 45.5 333.95 43.5 Q342.35 40.75 351.1 38.9 L356.9 40.5 Q361.15 39.95 365.55 37.25 367.7 35.95 372.8 32.0 377.0 28.7 379.45 27.65 382.9 26.15 386.15 27.2 391.3 25.65 398.25 25.3 L398.8 27.25 Q395.0 28.95 386.55 34.55 L384.55 35.95 Q383.8 39.05 380.95 43.5 M320.3 77.9 L318.3 80.6 Q316.8 82.3 315.8 82.65 L311.75 82.1 Q307.65 81.25 307.1 79.85 L307.65 75.9 Q316.65 75.9 320.3 77.9 M97.35 90.0 Q88.95 95.2 83.25 96.75 77.45 98.1 71.85 97.5 L65.8 96.75 Q59.85 97.25 45.75 100.65 L30.05 104.6 25.3 104.6 Q50.6 87.7 77.15 76.4 105.4 64.4 123.75 63.8 122.9 66.45 121.7 72.8 120.75 78.1 119.5 80.7 106.05 84.6 97.35 90.0 M747.65 83.0 Q749.45 80.65 753.15 79.3 L753.7 79.9 752.6 80.45 747.6 83.1 747.65 83.0" fill="#819a9f" fill-rule="evenodd" stroke="none"/>
      <path d="M483.6 -30.4 L484.55 -28.65 Q484.55 -27.85 486.2 -26.55 L488.5 -24.45 Q495.15 -25.0 499.1 -26.25 L501.25 -27.0 501.75 -29.8 503.15 -29.8 Q521.95 -4.05 534.05 11.25 537.85 15.9 543.3 19.95 549.7 28.05 559.05 34.45 567.85 40.5 580.25 45.65 L581.8 47.6 Q595.3 55.45 601.2 58.55 613.9 65.2 624.1 68.1 635.65 71.4 648.55 71.4 L652.6 71.05 661.5 71.4 668.85 71.3 677.25 72.55 Q678.05 73.95 680.6 75.35 L722.35 77.4 722.5 77.3 724.15 77.5 738.75 78.55 753.4 79.7 Q745.95 82.3 738.75 84.05 721.1 82.85 713.1 84.65 L711.75 85.0 Q704.75 82.95 695.65 82.5 683.65 81.9 675.2 84.45 672.6 85.25 670.7 86.25 666.95 83.8 664.15 84.95 663.1 85.4 662.35 86.4 L642.85 86.15 633.9 86.6 Q611.35 86.6 597.75 75.55 595.25 73.55 588.45 66.65 583.5 61.65 579.9 59.9 L579.4 59.95 Q576.55 56.3 572.0 53.4 570.4 52.35 567.2 50.75 561.8 49.5 553.25 45.7 544.55 41.8 540.55 40.25 540.25 41.1 540.25 42.55 L537.9 41.15 529.9 36.95 Q519.75 31.3 519.75 25.85 519.75 24.2 520.0 22.6 518.95 20.95 518.0 18.75 L516.5 15.35 512.1 13.0 Q509.5 4.55 502.6 -0.55 L502.3 -0.75 501.85 -2.2 498.4 -5.8 496.95 -6.75 494.5 -7.0 491.85 -6.7 490.8 -6.1 Q480.9 -4.75 468.65 2.1 462.95 5.3 458.5 8.65 L457.55 5.9 456.7 5.8 Q447.75 12.6 435.3 20.65 422.25 29.05 390.9 47.25 390.15 48.0 389.35 48.1 387.95 48.2 387.8 45.3 L391.25 40.8 391.55 40.35 Q394.85 38.6 394.85 35.15 L394.8 34.3 394.85 34.0 394.75 33.95 Q394.3 31.7 392.05 31.1 L391.95 31.1 390.5 31.45 Q385.55 31.45 379.6 33.0 368.05 35.95 362.5 40.5 L356.15 45.1 Q354.25 41.9 350.7 41.9 338.3 41.9 322.0 50.9 L307.1 59.9 306.95 60.0 Q303.85 61.45 286.5 65.4 L249.45 73.4 Q245.95 74.15 235.7 79.2 225.05 84.4 218.8 86.05 L218.25 87.35 215.85 87.5 211.5 88.0 196.3 88.0 Q194.45 86.75 188.0 79.3 L180.65 71.3 180.55 70.0 169.0 69.15 Q167.65 70.25 163.5 71.95 159.05 73.7 155.25 74.5 154.25 75.1 153.85 76.2 153.55 77.1 153.55 78.75 147.8 79.35 142.05 80.6 L130.75 82.65 Q125.15 81.8 120.65 78.1 L116.4 73.95 Q117.9 73.6 119.0 72.05 L121.2 68.05 120.65 65.25 Q117.75 65.25 116.35 66.05 115.05 66.75 113.3 69.15 88.95 74.95 71.0 82.25 L62.15 86.15 63.25 86.95 57.55 89.8 58.0 88.1 Q51.5 91.25 43.7 95.35 27.15 104.05 16.35 108.4 2.4 114.05 -15.5 118.85 22.45 99.0 54.25 79.2 105.75 47.05 120.35 27.25 L123.4 27.6 123.45 31.75 Q123.45 32.8 128.05 38.1 133.45 44.4 138.9 48.05 L151.9 54.15 158.2 57.2 167.75 56.3 Q182.15 54.5 184.75 51.15 189.2 53.15 195.15 57.1 L194.6 55.95 193.35 55.25 Q192.75 54.55 196.3 54.55 199.9 54.55 207.3 56.25 L221.9 59.9 240.25 59.45 Q258.8 58.8 259.85 57.9 318.1 49.4 343.75 36.7 350.25 33.5 361.15 26.3 370.9 19.85 378.55 16.55 380.0 16.95 380.95 18.85 381.65 20.3 381.65 21.35 402.4 18.9 420.75 11.75 433.65 6.75 448.75 -2.2 L450.85 -3.4 463.5 -15.3 Q476.5 -27.8 479.8 -31.75 481.15 -31.35 482.15 -30.75 L482.6 -30.65 483.6 -30.4 M646.05 82.5 L645.7 82.95 Q647.45 83.45 649.25 83.0 L646.3 82.65 646.05 82.5" fill="#afbfc2" fill-rule="evenodd" stroke="none"/>
    </g>
  </defs>
</svg>
