<?xml version="1.0" encoding="UTF-8" standalone="no"?>
<svg xmlns:ffdec="https://www.free-decompiler.com/flash" xmlns:xlink="http://www.w3.org/1999/xlink" ffdec:objectType="frame" height="333.5px" width="832.45px" xmlns="http://www.w3.org/2000/svg">
  <g transform="matrix(1.0, 0.0, 0.0, 1.0, 40.5, 41.3)">
    <use ffdec:characterId="41" ffdec:characterName="a_EB_WaveBone_05" height="314.1" transform="matrix(-1.0, 0.0, 0.0, 1.0, 791.95, -21.9)" width="829.45" xlink:href="#sprite0"/>
  </g>
  <defs>
    <g id="sprite0" transform="matrix(1.0, 0.0, 0.0, 1.0, 40.45, 21.9)">
      <use ffdec:characterId="40" height="314.1" transform="matrix(1.0, 0.0, 0.0, 1.0, -40.45, -21.9)" width="829.45" xlink:href="#shape0"/>
    </g>
    <g id="shape0" transform="matrix(1.0, 0.0, 0.0, 1.0, 40.45, 21.9)">
      <path d="M522.25 -19.1 L522.15 -18.75 Q523.4 -16.55 525.25 -13.85 533.75 -5.8 550.45 5.9 579.2 26.1 585.0 30.65 596.25 39.45 616.05 49.35 631.3 65.3 661.15 72.45 684.0 77.9 714.65 77.9 721.95 77.9 730.4 74.95 L739.95 75.35 Q740.8 75.35 751.45 72.4 L755.1 71.4 763.15 70.85 772.85 70.4 Q778.5 71.1 783.5 75.0 L788.3 79.8 Q788.8 98.15 788.4 117.2 L788.4 118.45 Q788.35 125.35 788.75 138.95 L788.9 144.55 Q789.15 155.1 788.9 161.4 788.05 180.1 788.4 216.15 L788.8 247.2 788.05 290.7 787.2 291.05 785.65 290.05 783.8 290.25 782.45 289.85 781.85 292.2 74.8 292.2 -38.25 291.65 -38.85 291.3 -39.05 291.65 -39.65 291.65 -39.65 212.05 Q-40.6 196.75 -40.45 174.5 L-40.15 136.85 -40.15 133.65 -38.35 132.15 Q-33.3 128.55 -27.85 130.9 L-27.6 130.75 -25.25 129.2 -24.5 129.2 -16.25 124.45 Q-11.45 121.3 1.65 110.5 28.85 104.8 45.45 98.55 59.2 93.35 69.05 86.45 71.1 84.95 78.95 78.45 103.95 71.25 127.25 54.5 134.95 48.95 146.1 39.6 157.55 30.05 161.4 27.25 L174.25 17.85 175.0 18.05 Q176.1 18.5 177.05 20.15 179.3 24.05 184.75 24.45 189.05 25.8 194.0 28.95 L203.15 35.2 Q216.0 43.85 230.6 47.25 L256.0 47.65 Q260.05 45.85 263.6 45.35 267.2 44.85 270.55 42.45 L276.45 43.3 Q277.0 44.3 277.65 47.4 278.55 50.55 280.95 52.55 L285.0 53.4 Q289.1 54.4 289.65 55.1 L302.95 54.65 305.2 54.55 Q305.7 53.15 307.1 52.55 L311.3 54.0 315.8 52.55 Q317.7 53.0 320.9 54.65 324.05 56.3 325.1 57.35 375.55 50.9 411.8 34.05 L436.9 22.05 443.6 19.3 459.55 7.3 458.45 10.35 Q464.55 7.95 472.25 6.35 480.55 4.65 486.7 2.95 L488.3 1.55 492.15 1.95 Q500.8 1.95 513.0 -11.6 L518.0 -15.65 518.05 -15.9 518.9 -18.3 518.9 -19.1 Q519.05 -20.95 519.6 -21.55 519.95 -21.9 520.55 -21.9 L522.05 -18.9 522.25 -19.1 M783.0 62.7 L782.0 62.5 782.8 62.2 783.0 62.7" fill="#435f60" fill-rule="evenodd" stroke="none"/>
      <path d="M520.0 10.0 Q517.25 13.85 506.45 20.15 L500.05 23.65 Q495.05 30.1 492.15 35.1 L490.5 37.1 487.75 39.05 487.7 39.05 487.7 39.1 481.05 43.9 Q473.85 43.5 463.55 48.0 458.75 50.05 447.1 56.65 L444.9 57.35 442.4 56.5 445.6 48.5 445.5 46.1 Q445.5 43.45 446.0 42.25 L444.5 41.0 432.35 41.35 430.9 41.3 430.1 41.4 425.45 42.0 Q423.85 46.8 419.7 51.15 417.95 53.0 416.05 54.45 L416.2 55.2 417.65 54.55 418.5 57.35 Q417.5 60.6 409.05 67.25 402.1 72.65 394.3 77.3 392.5 78.4 382.75 80.95 L362.5 86.05 354.95 89.7 353.9 89.7 329.9 90.55 329.2 91.15 Q325.1 91.8 324.55 92.5 L318.85 93.0 Q322.3 90.9 323.2 90.0 325.1 88.2 325.1 84.65 325.1 81.05 322.9 79.8 L319.5 78.75 311.0 78.75 311.1 78.15 311.2 74.55 Q311.45 70.3 318.05 67.2 324.85 65.6 335.15 64.7 L368.7 63.25 Q371.4 60.55 380.1 54.85 385.8 51.1 390.9 48.05 L394.1 48.6 Q397.4 49.4 397.95 50.6 L396.25 54.0 390.9 54.55 Q388.4 55.9 386.65 57.4 L382.2 61.3 378.8 63.8 392.05 62.55 396.0 62.15 Q398.25 60.3 401.3 58.55 406.0 55.85 411.2 54.0 411.75 52.9 411.75 51.15 411.75 47.9 409.75 47.2 407.0 46.35 406.65 45.8 414.1 40.0 416.35 38.85 420.6 36.65 424.95 37.95 L425.15 38.5 435.15 38.25 449.0 36.75 449.0 36.25 452.15 36.3 453.5 36.4 Q453.85 36.15 454.2 36.0 L454.1 36.45 456.25 36.75 456.35 37.0 Q463.45 33.1 471.35 27.6 475.6 25.15 478.35 25.05 481.65 24.9 484.85 27.8 489.7 25.7 495.9 21.15 L496.5 20.7 496.85 20.55 Q499.85 18.15 505.2 15.3 516.4 9.25 519.5 9.25 L520.0 10.0 M246.05 79.85 Q245.3 79.85 241.75 76.75 L237.0 76.75 235.3 74.7 Q233.85 73.55 232.85 71.8 232.35 70.95 230.5 64.75 L236.65 68.9 237.35 69.35 237.35 69.15 238.35 70.0 239.6 70.8 241.95 72.0 242.1 72.1 242.5 71.1 Q243.35 70.0 246.35 69.55 251.8 68.75 283.5 69.15 284.1 69.75 288.55 71.35 292.85 72.9 293.6 73.95 291.4 75.95 288.45 77.2 L278.4 80.7 284.7 86.15 290.5 91.4 Q283.0 93.7 264.0 86.15 254.95 82.55 249.2 79.4 L246.05 79.85 M194.05 61.85 Q189.05 63.05 186.25 64.4 L183.05 66.05 179.75 65.75 179.05 66.2 Q179.35 67.6 179.15 68.6 L175.25 69.05 172.65 71.4 168.6 70.05 Q156.2 72.15 149.55 75.55 139.9 82.75 130.1 90.7 L125.25 94.65 Q116.5 93.5 110.1 97.1 L109.95 96.75 107.6 95.8 Q105.5 94.75 104.8 93.7 96.15 96.5 89.0 100.65 L88.85 100.1 Q81.0 98.85 67.45 100.7 L59.75 101.95 Q75.4 94.25 86.05 87.85 L94.5 86.1 Q108.05 83.85 113.3 86.6 L113.75 86.5 Q119.35 82.9 127.65 78.45 131.1 75.45 136.95 69.35 143.4 62.6 147.3 59.6 153.6 54.85 160.55 53.15 L161.25 53.35 162.25 52.55 171.8 53.15 173.8 56.15 174.35 55.95 174.85 56.0 178.0 57.25 Q183.95 59.05 195.5 59.45 195.1 60.65 194.05 61.85" fill="#819a9f" fill-rule="evenodd" stroke="none"/>
      <path d="M522.15 -18.75 Q523.4 -16.55 525.25 -13.85 533.75 -5.8 550.45 5.9 579.2 26.1 585.0 30.65 596.25 39.45 616.05 49.35 631.3 65.3 661.15 72.45 684.0 77.9 714.65 77.9 721.95 77.9 730.4 74.95 L739.95 75.35 Q740.8 75.35 751.45 72.4 L756.6 70.95 746.9 77.75 Q721.8 81.4 701.95 89.25 699.2 90.35 696.8 91.4 L696.35 91.4 689.5 91.25 689.3 91.4 683.8 90.95 683.05 90.9 682.0 92.8 682.25 94.25 671.05 92.4 657.0 90.55 Q654.0 89.6 648.6 87.35 643.75 85.3 643.2 85.2 634.9 82.95 628.35 78.15 625.15 75.8 623.5 73.95 L621.35 71.85 614.8 70.55 Q614.8 64.35 607.85 56.55 599.9 47.6 588.9 45.25 579.55 43.2 573.0 40.65 564.8 37.5 553.75 31.2 L551.4 31.2 Q545.35 25.85 536.6 25.85 L535.45 26.05 Q529.75 16.9 524.5 10.65 L518.3 9.8 509.15 17.9 Q499.1 21.6 489.3 26.7 485.4 28.75 482.1 30.75 L483.45 26.2 482.7 26.75 Q474.9 32.6 467.05 33.75 L463.95 35.9 Q451.1 44.8 445.75 43.3 L450.75 39.9 439.85 39.9 439.2 40.55 439.0 40.5 420.8 39.9 414.1 44.55 Q404.25 50.7 397.1 52.55 L394.85 48.65 395.1 48.0 Q375.6 56.6 369.8 65.25 L359.85 67.25 347.3 68.6 Q346.8 67.75 336.5 67.1 L326.25 66.65 Q322.45 69.85 319.4 70.8 318.05 71.2 318.05 72.8 L318.05 73.4 318.0 73.4 314.4 74.5 311.9 78.75 298.4 79.3 Q295.7 74.7 292.2 73.4 289.95 72.55 284.3 72.55 L280.0 72.8 Q276.85 72.0 272.45 71.75 258.85 71.05 239.6 75.75 L237.8 76.2 Q238.2 73.75 238.2 70.55 L238.2 70.0 237.35 70.0 Q232.7 70.0 230.7 64.8 229.5 61.7 229.5 58.5 L211.15 57.7 210.55 58.25 Q208.25 60.25 204.15 60.75 203.2 59.1 201.75 57.7 L199.1 57.75 Q194.25 59.9 186.45 59.9 L175.75 59.6 169.3 59.3 166.45 57.65 Q165.85 56.9 165.7 54.55 L165.65 54.55 Q149.2 61.85 140.0 68.45 129.45 76.05 127.65 83.25 126.3 83.5 115.1 87.75 104.3 91.85 99.8 92.5 99.15 91.95 94.0 91.45 87.1 92.5 85.5 93.9 L76.8 93.65 76.75 94.75 76.75 95.3 Q61.3 102.6 36.15 110.25 7.8 118.85 -3.35 123.45 L-3.4 123.55 -15.95 124.25 Q-11.05 120.95 1.65 110.5 28.85 104.8 45.45 98.55 58.5 93.6 68.05 87.15 68.4 86.55 68.9 86.35 L69.25 86.35 78.95 78.45 Q103.95 71.25 127.25 54.5 134.95 48.95 146.1 39.6 157.55 30.05 161.4 27.25 L174.25 17.85 175.0 18.05 Q176.1 18.5 177.05 20.15 179.3 24.05 184.75 24.45 189.05 25.8 194.0 28.95 L203.15 35.2 Q216.0 43.85 230.6 47.25 L256.0 47.65 Q260.05 45.85 263.6 45.35 267.2 44.85 270.55 42.45 L276.45 43.3 Q277.0 44.3 277.65 47.4 278.55 50.55 280.95 52.55 L285.0 53.4 Q289.1 54.4 289.65 55.1 L302.95 54.65 305.2 54.55 Q305.7 53.15 307.1 52.55 L311.3 54.0 315.8 52.55 Q317.7 53.0 320.9 54.65 324.05 56.3 325.1 57.35 375.55 50.9 411.8 34.05 L436.9 22.05 443.6 19.3 459.55 7.3 458.45 10.35 Q464.55 7.95 472.25 6.35 480.55 4.65 486.7 2.95 L488.3 1.55 492.15 1.95 Q500.8 1.95 513.0 -11.6 L518.0 -15.65 518.05 -15.9 518.9 -18.3 518.9 -19.1 Q519.05 -20.95 519.6 -21.55 519.95 -21.9 520.55 -21.9 L522.05 -18.9 522.25 -19.1 522.15 -18.75" fill="#afbfc2" fill-rule="evenodd" stroke="none"/>
    </g>
  </defs>
</svg>
