<?xml version="1.0" encoding="UTF-8" standalone="no"?>
<svg xmlns:ffdec="https://www.free-decompiler.com/flash" xmlns:xlink="http://www.w3.org/1999/xlink" ffdec:objectType="frame" height="333.5px" width="832.45px" xmlns="http://www.w3.org/2000/svg">
  <g transform="matrix(1.0, 0.0, 0.0, 1.0, 40.5, 41.3)">
    <use ffdec:characterId="43" ffdec:characterName="a_EB_WaveBone_06" height="307.35" transform="matrix(-1.0, 0.0, 0.0, 1.0, 791.95, -15.15)" width="830.2" xlink:href="#sprite0"/>
  </g>
  <defs>
    <g id="sprite0" transform="matrix(1.0, 0.0, 0.0, 1.0, 40.45, 15.15)">
      <use ffdec:characterId="42" height="307.35" transform="matrix(1.0, 0.0, 0.0, 1.0, -40.45, -15.15)" width="830.2" xlink:href="#shape0"/>
    </g>
    <g id="shape0" transform="matrix(1.0, 0.0, 0.0, 1.0, 40.45, 15.15)">
      <path d="M231.15 -9.8 Q237.7 -4.9 247.05 3.05 257.4 11.85 263.5 18.0 L275.8 19.05 Q276.1 17.4 277.0 16.85 L279.1 16.6 279.25 16.0 279.9 16.0 Q281.1 19.5 283.15 21.3 L283.15 21.6 Q285.45 26.35 291.6 29.45 301.65 34.55 331.55 40.5 L350.25 41.4 Q369.1 42.45 369.8 43.3 375.65 42.9 381.1 41.4 386.45 39.9 389.25 37.95 390.55 38.3 391.5 40.8 392.3 42.9 392.3 44.7 L433.1 44.7 Q466.55 34.0 492.05 17.85 L511.25 5.25 Q522.35 -1.85 532.4 -6.45 533.8 -7.6 536.0 -10.9 537.95 -13.75 540.25 -15.15 540.7 -14.45 542.25 -13.65 543.1 -12.9 543.45 -11.35 L544.2 -11.55 543.05 -13.2 Q543.65 -14.6 545.05 -14.6 546.0 -11.5 547.65 -8.35 555.5 1.6 569.95 13.9 L581.25 23.25 Q587.35 27.05 594.45 30.85 608.75 38.5 623.2 44.05 626.75 47.45 631.55 50.85 646.65 61.6 671.85 70.9 L683.6 74.95 Q697.1 78.2 710.7 80.75 728.4 84.05 734.9 84.05 L756.35 81.8 768.65 80.1 772.25 81.9 Q781.6 86.5 788.95 88.65 L789.2 103.2 789.75 138.35 Q789.75 144.2 789.15 159.05 L788.9 165.05 788.9 241.55 788.05 290.65 787.2 291.05 784.65 289.4 784.15 288.25 782.6 288.25 782.7 288.8 781.85 292.2 74.8 292.2 -38.25 291.65 -38.85 291.3 -39.05 291.65 -39.65 291.65 -39.65 212.05 Q-40.6 196.75 -40.45 174.5 -40.15 151.35 -40.15 138.9 L-39.5 138.4 Q-39.35 137.15 -38.95 137.15 L-38.5 137.55 -29.5 129.55 Q-22.9 123.55 -18.2 120.45 -11.75 116.25 -2.25 113.15 4.55 109.4 12.2 106.8 L19.45 104.35 20.8 105.45 Q31.3 103.55 39.6 100.85 56.3 93.45 66.55 89.75 L69.65 86.9 Q74.85 83.15 82.65 85.2 L83.4 85.4 Q93.25 79.85 104.6 72.55 115.6 65.4 139.2 53.5 164.35 40.75 171.25 36.55 176.9 33.0 193.0 17.8 204.15 7.3 211.4 2.75 L214.75 -0.9 Q223.65 -9.45 231.15 -9.8" fill="#435f60" fill-rule="evenodd" stroke="none"/>
      <path d="M541.95 10.65 L542.5 10.55 Q543.05 11.1 543.05 14.6 543.05 15.1 520.85 31.85 497.3 49.65 493.85 53.15 L492.6 52.9 492.15 54.0 Q491.7 53.5 491.5 52.6 489.05 51.8 488.5 50.6 L490.55 46.6 Q490.05 45.75 489.15 45.25 491.6 40.25 491.6 38.8 491.6 35.05 490.9 34.1 L488.55 32.6 Q490.6 29.4 493.0 27.8 L497.05 27.9 Q500.8 29.25 503.4 29.25 L512.3 23.35 Q523.55 15.9 535.75 9.8 L541.95 10.65 M488.05 32.75 Q486.8 33.05 485.65 33.55 L486.8 32.6 488.05 32.75 M475.35 43.7 Q473.9 46.75 473.9 49.75 473.9 52.3 475.35 54.55 L465.9 60.7 Q448.15 70.9 446.6 72.0 L440.7 71.4 Q440.5 71.75 440.3 71.4 440.0 70.95 439.9 69.2 429.75 77.1 413.25 82.0 405.25 84.35 392.45 86.85 381.05 89.05 378.55 90.0 L367.3 89.4 367.35 87.4 365.6 87.15 355.2 87.15 Q355.2 86.0 354.75 85.3 353.95 84.2 351.55 83.25 351.55 81.55 363.45 79.55 363.85 78.45 364.75 78.2 L365.1 78.15 366.75 71.25 366.55 70.55 363.9 70.0 363.5 69.45 355.9 67.55 355.05 67.3 354.3 67.9 Q351.25 61.85 347.3 58.5 L326.25 58.5 Q322.2 60.25 320.5 61.85 319.05 63.15 318.3 65.35 323.85 67.55 324.55 69.15 L324.1 72.25 Q323.75 73.8 322.85 74.5 L319.75 73.55 318.3 73.65 316.1 73.95 316.65 75.35 313.6 75.15 313.55 75.35 312.5 75.4 311.5 74.8 Q306.75 74.0 299.1 72.1 L283.5 68.05 Q282.45 66.6 281.85 63.8 281.25 61.15 281.25 58.5 L277.95 57.65 Q274.65 56.5 274.5 55.1 275.6 53.25 282.0 50.05 L286.05 48.15 286.0 46.65 289.4 46.85 Q289.7 46.7 289.95 46.65 L290.05 47.0 291.8 47.6 Q296.05 49.15 296.7 50.6 L300.95 49.95 Q305.1 49.0 304.55 47.8 305.0 47.25 304.6 46.35 304.8 45.8 308.25 45.8 320.9 45.8 333.9 49.9 338.2 51.25 343.7 53.35 L343.65 52.0 Q351.55 50.05 362.05 52.95 372.95 55.9 377.4 61.85 L388.1 63.8 390.95 66.45 Q394.25 69.3 397.95 71.4 405.8 69.55 421.85 64.8 435.45 60.8 440.55 58.7 L441.2 58.2 Q446.65 54.3 451.1 56.5 L449.85 58.6 452.45 58.6 Q456.3 58.2 459.0 55.95 462.9 52.75 469.1 48.9 469.05 47.1 468.25 45.25 468.45 43.05 469.0 42.3 469.35 41.9 469.95 41.9 L472.95 42.8 475.35 43.7 M326.25 53.15 L317.5 54.0 Q328.5 54.0 328.5 53.15 L326.25 53.15 M246.45 33.2 Q245.15 32.1 244.4 31.75 L234.25 33.15 229.5 35.15 Q223.95 44.5 217.45 49.8 213.2 53.25 204.15 57.9 189.95 66.65 182.85 70.3 L178.6 72.25 Q176.8 68.5 174.35 65.25 L163.95 65.25 Q159.85 66.0 156.15 68.85 L154.85 69.0 Q148.8 70.05 143.15 72.55 L142.9 72.5 141.15 74.75 Q136.45 76.55 132.95 78.95 L124.4 86.0 Q119.3 90.25 114.15 92.5 L113.8 92.25 108.95 96.45 Q103.9 104.35 92.8 107.85 L80.95 110.6 Q74.05 112.0 71.4 113.3 L68.45 112.8 Q65.55 112.0 66.05 110.8 L67.2 108.8 Q51.6 109.5 42.25 114.45 L36.85 117.8 Q34.5 119.25 32.9 119.25 L28.25 118.95 27.8 118.65 25.3 118.1 27.0 114.15 Q51.35 100.3 66.85 94.45 88.65 86.3 109.0 86.6 112.65 83.85 116.0 81.8 121.75 76.7 135.2 68.15 140.0 62.6 148.45 60.0 L161.95 52.1 Q187.15 37.55 212.9 23.9 L224.8 24.35 Q236.8 25.0 237.35 25.85 248.7 26.2 250.75 28.55 251.5 29.45 251.8 31.35 L252.55 31.9 Q253.95 33.45 253.95 37.1 253.95 39.95 250.95 43.8 L250.8 44.0 250.85 44.15 247.9 49.15 Q245.15 52.9 241.55 54.0 242.3 50.95 244.15 47.8 L242.95 47.0 Q241.55 45.75 241.55 42.15 241.55 39.8 245.2 34.8 L246.45 33.2" fill="#819a9f" fill-rule="evenodd" stroke="none"/>
      <path d="M231.15 -9.8 Q237.7 -4.9 247.05 3.05 257.4 11.85 263.5 18.0 L275.8 19.05 Q276.1 17.4 277.0 16.85 L279.1 16.6 279.25 16.0 279.9 16.0 Q281.1 19.5 283.15 21.3 L283.15 21.6 Q285.45 26.35 291.6 29.45 301.65 34.55 331.55 40.5 L350.25 41.4 Q369.1 42.45 369.8 43.3 375.65 42.9 381.1 41.4 386.45 39.9 389.25 37.95 390.55 38.3 391.5 40.8 392.3 42.9 392.3 44.7 L433.1 44.7 Q466.55 34.0 492.05 17.85 L511.25 5.25 Q522.35 -1.85 532.4 -6.45 533.8 -7.6 536.0 -10.9 537.95 -13.75 540.25 -15.15 540.7 -14.45 542.25 -13.65 543.1 -12.9 543.45 -11.35 L544.2 -11.55 543.05 -13.2 Q543.65 -14.6 545.05 -14.6 546.0 -11.5 547.65 -8.35 555.5 1.6 569.95 13.9 L581.25 23.25 Q587.35 27.05 594.45 30.85 608.75 38.5 623.2 44.05 626.75 47.45 631.55 50.85 646.65 61.6 671.85 70.9 L683.6 74.95 Q697.1 78.2 710.7 80.75 728.4 84.05 734.9 84.05 L739.85 83.75 741.9 82.65 Q742.7 82.9 743.5 83.4 L748.15 82.85 Q725.55 86.8 691.95 89.05 L689.85 87.05 689.8 87.0 Q688.0 87.45 686.45 88.1 684.9 88.75 683.8 89.55 L677.35 89.9 676.7 90.45 669.85 88.65 657.0 84.65 655.3 83.45 Q654.95 83.25 654.8 82.65 L652.75 82.65 Q651.7 81.85 647.3 79.45 642.85 77.05 639.25 75.35 636.45 66.15 627.0 56.95 612.4 42.75 591.15 42.75 587.3 42.75 585.45 44.05 585.0 44.35 583.75 46.0 L582.8 46.05 582.65 45.55 Q580.4 37.2 576.7 30.6 567.25 13.5 554.85 18.45 L546.2 18.15 541.3 13.25 534.0 13.0 533.25 13.65 Q525.15 14.95 513.0 24.7 507.4 29.2 502.0 34.55 L501.75 31.75 Q501.3 31.75 501.55 31.45 L502.05 30.8 Q502.5 29.8 499.2 29.8 L496.35 30.1 496.2 30.15 Q488.2 36.7 479.15 45.35 L478.75 45.75 Q471.35 45.35 465.6 45.6 L455.25 50.75 Q450.55 53.15 445.3 55.05 447.45 55.8 447.75 56.5 442.55 61.7 427.65 65.35 L417.6 67.75 Q412.95 69.1 411.75 70.55 L410.1 70.4 Q397.35 75.9 394.85 75.9 393.85 75.9 388.1 72.95 L387.65 72.7 387.8 71.4 Q387.1 69.35 386.4 68.3 385.45 66.85 383.9 66.05 L374.6 65.25 371.7 59.8 368.15 54.0 350.7 54.0 Q338.15 58.35 315.85 52.55 L307.85 50.2 307.0 51.0 303.75 54.0 295.3 53.15 292.35 51.95 Q291.05 51.45 291.05 48.05 L289.65 48.75 289.1 51.15 287.55 49.8 280.75 53.2 Q270.85 58.15 265.2 61.3 263.85 62.0 262.55 62.0 259.85 62.0 259.85 58.5 259.85 57.65 261.65 54.7 263.05 52.35 264.8 50.3 L262.8 50.6 261.1 52.6 Q256.4 58.0 241.55 72.55 243.05 66.3 247.45 60.4 249.6 57.6 253.45 53.6 252.55 53.1 252.55 50.05 252.55 49.05 252.9 47.95 249.95 50.35 247.75 52.55 L245.25 51.15 Q246.15 49.0 252.55 42.9 250.2 40.95 248.8 37.4 248.15 35.65 247.8 33.95 241.85 32.2 238.2 25.85 222.5 26.15 211.45 28.3 L209.2 29.95 207.15 31.8 206.1 32.75 201.2 36.9 179.65 47.15 Q155.0 58.55 143.85 65.15 125.6 75.95 115.8 87.9 L112.6 92.2 111.65 91.4 Q92.0 87.9 74.1 97.8 L64.4 97.3 Q56.75 99.75 48.2 104.95 34.6 113.3 33.85 113.65 15.15 123.55 -14.6 122.05 -14.6 122.8 -12.4 124.0 L-12.3 124.05 -16.05 124.25 -23.9 124.7 Q-20.75 122.15 -18.2 120.45 -11.75 116.25 -2.25 113.15 4.55 109.4 12.2 106.8 L19.45 104.35 20.8 105.45 Q31.3 103.55 39.6 100.85 56.3 93.45 66.55 89.75 L69.65 86.9 Q74.85 83.15 82.65 85.2 L83.4 85.4 Q93.25 79.85 104.6 72.55 115.6 65.4 139.2 53.5 164.35 40.75 171.25 36.55 176.9 33.0 193.0 17.8 204.15 7.3 211.4 2.75 L214.75 -0.9 Q223.65 -9.45 231.15 -9.8" fill="#afbfc2" fill-rule="evenodd" stroke="none"/>
    </g>
  </defs>
</svg>
