<?xml version="1.0" encoding="UTF-8" standalone="no"?>
<svg xmlns:ffdec="https://www.free-decompiler.com/flash" xmlns:xlink="http://www.w3.org/1999/xlink" ffdec:objectType="frame" height="333.5px" width="832.45px" xmlns="http://www.w3.org/2000/svg">
  <g transform="matrix(1.0, 0.0, 0.0, 1.0, 40.5, 41.3)">
    <use ffdec:characterId="45" ffdec:characterName="a_EB_WaveBone_07" height="320.0" transform="matrix(-1.0, 0.0, 0.0, 1.0, 791.95, -27.8)" width="832.45" xlink:href="#sprite0"/>
  </g>
  <defs>
    <g id="sprite0" transform="matrix(1.0, 0.0, 0.0, 1.0, 40.45, 27.8)">
      <use ffdec:characterId="44" height="320.0" transform="matrix(1.0, 0.0, 0.0, 1.0, -40.45, -27.8)" width="832.45" xlink:href="#shape0"/>
    </g>
    <g id="shape0" transform="matrix(1.0, 0.0, 0.0, 1.0, 40.45, 27.8)">
      <path d="M295.3 -23.3 L295.85 -23.3 301.55 -14.9 Q306.95 -12.1 311.2 -7.65 L311.6 -7.2 311.6 -7.3 312.45 -9.25 Q315.15 -7.1 319.35 -1.6 323.3 3.65 326.7 6.15 338.0 14.45 367.3 13.75 372.2 31.4 400.7 38.35 L421.0 42.2 Q430.95 43.95 432.8 45.8 L455.6 45.8 Q474.05 42.45 485.1 37.85 491.8 35.0 497.9 30.45 L499.25 29.5 Q499.8 30.7 500.8 31.55 501.8 32.35 504.25 33.15 L513.0 34.0 Q546.3 12.25 556.7 3.7 562.35 -0.95 567.55 -6.1 570.1 -2.95 573.7 0.75 585.5 12.95 604.1 26.85 622.6 40.7 639.8 50.25 658.4 60.55 668.5 61.85 L682.55 61.85 Q684.75 59.8 687.0 56.05 L688.0 57.25 690.15 56.5 Q692.45 59.15 698.2 63.75 706.35 70.2 715.85 75.55 L716.65 76.0 720.8 76.75 Q724.25 78.2 734.6 84.05 L735.9 84.8 Q754.3 91.4 773.15 91.4 777.15 91.4 783.4 92.85 789.35 94.2 791.15 95.3 L792.0 99.25 Q791.65 100.65 790.8 101.55 L790.95 103.3 791.15 111.65 791.0 121.0 Q790.8 125.2 790.2 128.55 790.4 148.9 789.75 168.15 L788.9 168.45 788.9 241.55 788.05 290.65 787.2 291.05 784.65 289.4 784.15 288.25 782.6 288.25 782.7 288.8 781.85 292.2 74.8 292.2 -38.25 291.65 -38.85 291.3 -39.05 291.65 -39.65 291.65 -39.65 212.05 Q-40.6 196.75 -40.45 174.5 L-40.15 136.85 -40.15 135.4 Q-37.95 133.95 -34.75 132.35 -21.15 125.6 -17.4 122.6 -6.9 113.95 -4.75 112.9 -1.0 111.05 5.45 110.35 2.5 109.15 2.5 108.0 33.5 107.05 62.25 98.05 68.95 95.5 76.25 92.35 L85.15 88.5 Q98.5 84.75 118.3 76.3 138.35 67.8 178.0 49.2 189.4 44.1 199.65 37.7 199.7 40.9 200.35 41.05 200.7 41.15 201.05 40.5 L208.4 40.5 Q217.95 35.6 225.35 30.05 245.65 20.0 263.1 4.3 267.35 0.45 278.45 -10.5 L291.4 -22.6 291.95 -23.75 Q293.35 -26.6 295.3 -27.8 295.85 -26.5 295.35 -23.65 L295.3 -23.3" fill="#435f60" fill-rule="evenodd" stroke="none"/>
      <path d="M561.7 24.6 Q559.9 27.9 556.3 33.15 549.45 43.55 548.7 44.15 L547.5 43.95 Q546.3 43.3 544.5 43.3 540.3 43.3 522.55 58.95 506.3 73.25 490.5 90.0 486.55 87.5 484.65 85.7 481.05 82.3 487.65 81.25 L482.05 80.05 476.7 79.85 Q464.7 79.85 454.9 83.55 445.75 87.0 441.55 92.5 L423.25 91.95 421.2 89.85 Q419.45 88.45 419.3 87.15 421.0 84.25 424.4 81.8 L424.4 81.25 Q418.0 79.2 412.3 76.75 L392.5 67.5 Q394.0 67.0 394.0 66.5 399.3 67.9 409.3 71.25 L408.15 70.35 403.15 66.0 Q396.8 63.05 391.2 61.3 391.0 61.95 390.8 61.85 390.35 61.7 390.35 58.2 L390.45 56.8 390.2 56.7 Q377.5 50.9 373.0 49.5 L371.5 51.0 372.15 51.55 Q372.2 50.65 372.35 50.9 L372.65 52.0 373.75 52.0 378.1 56.55 Q381.35 59.7 383.3 63.8 L382.2 65.25 Q379.7 64.4 376.15 61.0 L375.05 59.85 Q371.95 59.3 368.5 58.0 L359.75 49.25 353.9 43.65 Q346.75 36.4 342.55 31.2 343.15 30.45 344.35 29.9 L345.35 29.25 351.55 29.8 Q355.1 34.8 361.5 40.3 L364.8 43.3 Q368.05 41.05 372.0 41.7 L371.0 39.0 373.7 38.75 373.5 38.5 376.0 37.95 Q378.8 39.85 382.45 43.6 385.8 47.0 387.25 47.8 L391.95 49.85 Q395.85 51.3 401.9 52.55 L418.75 53.15 Q422.7 55.15 423.25 56.5 422.6 57.15 418.0 57.8 L409.2 58.5 406.75 58.5 Q412.1 61.65 419.3 65.25 L420.3 67.0 421.7 67.15 433.65 68.6 439.3 67.75 Q443.95 66.7 454.2 66.05 459.15 63.1 463.55 56.55 465.35 54.75 467.3 55.3 469.6 55.9 473.3 59.9 478.85 59.7 482.9 58.2 482.9 61.55 483.6 63.0 L484.3 64.65 Q488.5 64.65 490.5 63.8 L490.85 63.05 Q495.15 60.05 498.15 56.95 L495.25 61.3 Q503.45 58.55 514.15 50.0 521.25 44.35 532.7 33.2 545.05 21.2 548.8 18.05 556.55 11.5 560.25 11.8 L562.5 11.4 Q564.75 11.65 564.75 15.15 564.75 18.85 561.7 24.6 M300.05 5.3 Q298.4 9.5 292.1 18.25 284.95 28.1 281.8 28.65 281.6 29.0 281.4 28.65 280.95 27.95 280.95 24.45 280.95 23.85 282.45 21.4 L281.0 22.75 279.75 23.95 Q276.25 28.35 271.7 32.9 256.3 48.25 235.4 58.5 234.9 59.05 234.4 58.9 234.05 58.8 233.85 58.35 229.35 62.5 226.65 64.65 L218.5 63.8 218.1 64.4 Q217.65 64.25 217.65 60.75 217.65 60.2 218.6 59.05 L215.75 60.75 Q204.35 67.6 198.8 71.4 L192.65 70.0 192.75 69.25 Q192.95 68.4 193.5 68.05 198.05 65.9 222.25 49.0 248.3 30.8 253.4 27.8 252.75 30.2 251.25 32.75 L255.9 29.25 Q260.4 25.1 264.5 18.7 L270.65 9.15 Q274.1 4.55 278.3 2.85 282.5 1.15 288.75 1.65 L290.5 0.55 290.35 1.85 291.35 1.95 295.4 2.8 Q299.55 3.9 300.05 5.3 M181.35 72.65 Q183.05 72.85 188.7 71.4 187.1 73.7 182.7 77.65 L177.2 82.35 176.6 77.9 Q164.35 79.7 152.9 85.9 148.3 89.6 144.8 93.35 L144.5 93.3 144.15 93.9 Q143.5 95.0 142.85 95.3 L124.45 103.35 Q113.65 108.1 108.0 111.35 104.7 111.5 104.0 111.3 103.2 111.05 103.2 107.4 103.2 106.05 105.0 104.1 L101.25 104.6 97.4 104.4 91.4 107.8 Q82.05 109.35 74.15 111.1 64.8 113.2 58.75 115.5 L51.45 113.3 50.9 109.4 Q55.8 107.7 71.05 105.05 83.25 102.9 87.15 100.1 L95.9 93.85 Q102.9 88.85 104.6 88.0 L114.15 88.55 115.75 91.7 116.35 93.8 117.45 93.1 Q120.3 92.0 124.45 91.7 125.35 88.9 133.45 89.7 L137.55 89.25 139.15 87.65 Q138.6 87.35 138.05 87.15 L142.0 81.25 Q147.65 78.15 161.9 67.0 174.8 57.8 180.55 59.3 181.0 60.3 181.55 60.9 181.95 61.75 181.95 65.25 181.95 68.25 180.55 71.6 180.3 72.55 181.35 72.65" fill="#819a9f" fill-rule="evenodd" stroke="none"/>
      <path d="M295.3 -23.3 L295.85 -23.3 301.55 -14.9 Q306.95 -12.1 311.2 -7.65 L311.6 -7.2 311.6 -7.3 312.45 -9.25 Q315.15 -7.1 319.35 -1.6 323.3 3.65 326.7 6.15 338.0 14.45 367.3 13.75 372.2 31.4 400.7 38.35 L421.0 42.2 Q430.95 43.95 432.8 45.8 L455.6 45.8 Q474.05 42.45 485.1 37.85 491.8 35.0 497.9 30.45 L499.25 29.5 Q499.8 30.7 500.8 31.55 501.8 32.35 504.25 33.15 L513.0 34.0 Q546.3 12.25 556.7 3.7 562.35 -0.95 567.55 -6.1 570.1 -2.95 573.7 0.75 585.5 12.95 604.1 26.85 622.6 40.7 639.8 50.25 658.4 60.55 668.5 61.85 L682.55 61.85 Q684.75 59.8 687.0 56.05 L688.0 57.25 690.15 56.5 Q692.45 59.15 698.2 63.75 706.35 70.2 715.85 75.55 L716.65 76.0 720.8 76.75 Q724.25 78.2 734.6 84.05 L735.9 84.8 Q745.2 88.1 754.55 89.8 L741.9 90.55 Q737.4 90.55 723.65 85.5 L708.75 79.85 705.9 81.25 705.8 81.25 Q705.65 81.95 705.65 85.5 705.65 88.85 706.2 90.3 L706.75 91.95 Q705.15 91.05 702.0 88.35 L695.8 83.15 Q686.8 76.15 677.25 73.95 663.5 69.8 656.35 68.3 641.9 65.2 632.85 66.35 L629.05 62.5 Q622.25 55.85 618.75 53.15 L610.85 52.55 Q610.4 52.9 610.8 55.5 611.05 57.35 607.75 57.35 605.35 57.35 596.45 47.1 589.25 38.8 586.15 36.7 L584.75 34.75 Q580.85 29.6 575.15 25.85 L564.75 25.85 Q564.95 22.7 564.25 20.25 563.5 17.6 561.9 16.55 L554.9 16.55 Q547.65 20.85 529.45 36.8 508.2 55.5 495.55 64.65 L498.25 57.65 499.75 53.6 Q488.95 60.4 481.75 63.25 L481.6 63.2 480.9 63.8 471.65 63.8 Q471.35 63.45 467.1 61.6 L464.3 60.2 459.05 61.55 Q458.6 62.75 457.2 64.55 L455.35 66.85 450.3 68.35 Q442.7 70.0 429.15 70.0 415.4 70.0 410.7 66.65 L409.4 65.75 428.2 59.7 426.75 58.2 420.75 59.3 Q414.8 58.35 414.8 56.5 L406.95 55.1 406.2 53.3 397.55 53.05 388.4 52.0 388.2 52.0 Q384.5 48.15 380.05 44.9 368.15 36.2 368.15 50.05 L368.35 53.3 Q363.15 45.9 353.9 37.65 346.25 30.8 339.05 25.75 L338.15 23.9 Q336.5 22.2 335.8 21.05 L325.05 19.2 311.85 17.55 311.35 17.9 Q308.2 20.05 307.1 20.5 L304.55 19.1 307.35 17.0 307.1 16.55 Q298.9 23.9 296.7 24.45 L295.85 23.3 301.25 17.25 Q291.9 26.0 286.3 27.25 L285.15 25.85 Q289.1 22.45 298.0 12.6 296.25 13.9 295.0 15.15 L292.2 13.75 Q295.05 12.4 297.7 10.05 L299.2 8.65 Q297.95 9.5 296.7 9.8 L294.15 8.4 Q294.15 8.0 296.85 5.7 L296.7 5.3 296.75 5.2 285.0 4.55 282.65 3.9 282.6 3.95 271.25 15.85 Q261.25 26.35 254.4 32.2 240.95 43.65 220.15 53.25 L221.3 53.5 202.15 64.45 182.25 75.35 176.6 73.4 Q177.3 73.0 179.8 72.1 181.95 70.7 181.95 67.2 181.95 63.8 180.85 62.85 179.45 62.3 178.85 61.3 165.35 67.55 154.85 75.6 146.35 82.1 137.8 91.4 122.65 92.9 113.55 98.1 112.45 97.15 111.85 95.9 L110.55 92.95 Q109.65 91.35 108.0 90.55 L105.85 90.55 102.3 92.7 100.0 94.55 Q97.3 96.6 92.9 98.7 L91.65 99.5 91.5 99.65 91.4 99.7 89.55 101.0 Q86.6 103.05 83.65 104.5 L83.85 106.5 75.6 108.05 71.4 109.4 70.7 108.95 6.75 120.05 2.3 119.65 1.65 119.25 0.3 119.25 Q-3.55 118.35 -6.75 118.1 L-11.7 119.25 -13.25 119.25 Q-6.45 113.75 -4.75 112.9 -1.0 111.05 5.45 110.35 2.5 109.15 2.5 108.0 33.5 107.05 62.25 98.05 L69.25 95.3 69.35 95.15 Q70.3 94.05 73.1 92.5 L76.55 92.25 85.15 88.5 Q98.5 84.75 118.3 76.3 138.35 67.8 178.0 49.2 189.4 44.1 199.65 37.7 199.7 40.9 200.35 41.05 200.7 41.15 201.05 40.5 L208.4 40.5 Q217.95 35.6 225.35 30.05 245.65 20.0 263.1 4.3 267.35 0.45 278.45 -10.5 L291.4 -22.6 291.95 -23.75 Q293.35 -26.6 295.3 -27.8 295.85 -26.5 295.35 -23.65 L295.3 -23.3" fill="#afbfc2" fill-rule="evenodd" stroke="none"/>
    </g>
  </defs>
</svg>
