<?xml version="1.0" encoding="UTF-8" standalone="no"?>
<svg xmlns:ffdec="https://www.free-decompiler.com/flash" xmlns:xlink="http://www.w3.org/1999/xlink" ffdec:objectType="frame" height="333.5px" width="832.45px" xmlns="http://www.w3.org/2000/svg">
  <g transform="matrix(1.0, 0.0, 0.0, 1.0, 40.5, 41.3)">
    <use ffdec:characterId="47" ffdec:characterName="a_EB_WaveBone_08" height="326.2" transform="matrix(-1.0, 0.0, 0.0, 1.0, 791.95, -34.0)" width="829.35" xlink:href="#sprite0"/>
  </g>
  <defs>
    <g id="sprite0" transform="matrix(1.0, 0.0, 0.0, 1.0, 40.45, 34.0)">
      <use ffdec:characterId="46" height="326.2" transform="matrix(1.0, 0.0, 0.0, 1.0, -40.45, -34.0)" width="829.35" xlink:href="#shape0"/>
    </g>
    <g id="shape0" transform="matrix(1.0, 0.0, 0.0, 1.0, 40.45, 34.0)">
      <path d="M337.75 -33.55 Q338.05 -22.75 347.4 -13.85 359.3 -2.5 380.25 -2.5 L382.05 -2.65 Q383.4 4.0 389.55 11.2 397.35 20.4 407.5 21.7 411.85 24.05 415.85 25.8 L427.5 26.4 432.7 22.85 437.9 19.1 Q438.65 21.8 442.3 26.4 447.95 33.5 457.15 39.4 485.35 57.35 536.3 57.35 549.5 57.35 560.1 53.15 566.3 50.7 570.65 47.25 572.55 45.7 577.3 43.95 582.2 42.15 586.95 41.3 590.2 40.65 594.55 36.9 L602.35 29.25 Q609.8 21.55 614.15 20.5 615.35 17.45 616.2 16.55 622.25 21.9 626.75 30.35 631.85 36.85 646.55 39.9 654.25 54.65 673.1 61.3 L688.85 66.2 Q694.1 67.9 698.2 69.7 705.05 67.75 712.6 63.9 714.85 61.7 717.45 59.9 736.75 74.8 759.05 93.6 779.05 110.5 786.25 118.2 786.7 117.5 787.2 117.25 788.2 117.85 788.9 118.7 L788.9 241.55 788.05 290.65 787.2 291.05 784.65 289.4 784.15 288.25 782.6 288.25 782.7 288.8 781.85 292.2 74.8 292.2 -38.25 291.65 -38.85 291.3 -39.05 291.65 -39.65 291.65 -39.65 212.05 Q-40.6 196.75 -40.45 174.5 -40.15 151.45 -40.15 139.05 L-39.65 138.65 -37.0 136.95 Q-30.7 130.95 -13.75 117.7 11.3 98.1 19.1 93.35 21.6 94.6 23.7 97.35 L27.8 103.5 54.0 103.5 Q79.35 100.35 91.65 93.7 L100.0 88.2 Q104.65 84.8 108.0 83.25 132.75 78.65 150.3 70.15 L164.4 62.85 Q173.0 58.25 180.0 55.4 191.15 50.85 205.4 40.8 217.15 32.55 223.3 26.4 224.9 27.4 225.3 28.8 225.65 30.05 225.0 31.2 254.9 31.2 289.45 6.3 301.1 -2.1 315.7 -15.15 L336.65 -34.0 337.75 -33.55" fill="#435f60" fill-rule="evenodd" stroke="none"/>
      <path d="M331.85 -1.1 L333.0 2.5 Q331.2 5.0 325.3 11.1 L321.65 15.1 Q319.5 20.2 315.75 25.15 311.45 26.45 306.6 28.45 301.4 32.65 294.8 37.2 273.8 51.65 264.25 53.0 L260.9 55.7 255.65 60.35 Q252.65 59.6 251.25 58.05 250.6 57.3 250.55 56.6 250.5 55.95 250.85 55.95 244.2 53.25 234.1 57.25 L221.9 66.5 200.5 82.65 Q199.25 83.35 198.0 83.35 195.45 83.4 195.45 79.85 L196.7 74.05 197.15 69.95 195.45 71.4 Q186.75 78.75 187.8 79.45 L188.6 79.55 167.6 93.65 Q152.15 103.85 138.65 111.0 L138.65 108.55 Q135.95 108.55 127.15 112.4 118.55 116.45 117.55 116.7 L119.5 117.65 Q121.5 118.85 122.05 120.05 L122.05 120.1 121.65 120.3 117.2 121.05 85.75 122.05 84.9 120.65 67.75 120.05 61.85 119.25 Q60.6 117.45 60.05 116.1 59.3 114.2 59.3 111.9 L70.1 112.75 Q82.2 113.45 94.2 112.75 L97.05 113.5 97.5 113.65 Q100.9 109.3 108.1 105.1 117.7 99.45 135.25 93.35 149.05 74.4 168.85 65.8 187.9 57.55 205.0 61.85 L204.15 62.85 205.45 64.05 Q207.05 65.55 207.55 66.65 L207.5 68.1 213.5 64.3 Q217.35 57.05 228.55 49.15 237.2 43.0 253.25 34.6 262.15 29.9 279.2 21.05 292.85 13.6 298.4 8.4 299.9 8.95 300.95 11.6 L302.6 17.15 Q304.55 16.4 313.9 8.4 L320.9 2.55 321.65 0.85 Q323.5 -2.05 325.6 -2.55 328.0 -3.15 331.85 -1.1 M596.75 67.4 L596.95 67.2 610.1 53.65 Q616.8 46.85 619.85 44.7 606.0 64.7 595.3 74.8 582.3 87.1 558.55 100.65 L552.4 101.95 Q550.5 102.05 550.1 100.65 557.3 92.15 558.55 91.4 L559.4 90.0 558.55 88.0 547.0 88.55 Q544.35 93.1 534.1 99.1 522.25 106.0 513.0 106.0 L502.6 105.75 496.4 105.45 Q494.4 102.05 494.4 101.25 L486.0 100.1 Q485.55 99.4 483.0 98.0 480.35 96.55 479.8 95.9 L478.5 95.05 Q477.15 93.9 477.0 92.5 L479.6 91.8 494.4 90.0 Q494.4 88.0 495.25 86.05 491.25 84.05 482.6 80.6 L481.95 80.35 471.2 77.15 Q453.2 71.25 447.75 70.55 L445.55 69.35 444.75 68.6 Q442.6 68.55 438.65 67.55 434.05 66.4 426.65 66.05 L424.55 63.9 Q422.9 62.4 422.4 61.3 L426.9 58.15 Q430.45 56.25 433.65 57.35 431.4 56.4 428.75 52.6 426.35 49.1 426.35 47.8 426.35 44.55 426.6 45.0 427.25 46.05 427.5 45.8 430.1 46.9 431.05 48.6 432.25 50.6 433.35 51.3 438.55 54.7 466.85 58.5 L470.05 60.95 Q472.4 62.65 473.05 63.8 L471.65 68.05 Q470.45 68.05 468.35 67.2 466.05 66.2 465.45 65.25 L455.8 66.25 466.0 70.4 473.5 73.0 Q473.95 71.65 474.75 70.55 L477.35 71.6 478.1 71.4 Q482.2 71.7 486.1 73.9 489.75 75.9 492.45 75.9 L521.4 73.4 Q522.0 72.45 535.5 70.75 L553.2 69.15 Q556.9 69.15 558.0 71.5 L560.25 75.9 Q562.9 74.5 568.8 70.45 L576.25 65.25 Q576.6 69.15 572.4 74.7 L565.55 82.65 564.9 82.8 565.95 84.1 Q571.4 81.15 580.7 75.3 593.05 67.5 597.35 66.05 L596.75 67.4 M409.2 63.25 Q402.45 62.3 393.45 52.35 385.3 43.35 385.3 40.2 385.3 36.75 386.3 36.45 L387.25 36.55 Q392.65 38.6 400.05 47.95 L410.05 61.3 409.2 63.25 M464.75 80.05 Q469.55 83.75 471.65 88.55 470.2 89.5 467.1 88.85 L458.15 86.6 Q451.95 79.3 451.95 77.6 451.95 74.15 452.35 74.4 L453.65 75.35 453.65 74.5 Q460.05 76.45 464.75 80.05 M94.2 116.7 L95.65 116.65 95.75 116.45 94.2 116.7 M698.9 87.15 L697.2 86.0 Q696.35 85.5 696.35 82.1 696.35 78.7 697.2 79.2 L698.05 79.85 707.6 80.7 709.35 84.9 711.25 90.55 706.95 90.25 Q704.45 89.5 698.9 87.15" fill="#819a9f" fill-rule="evenodd" stroke="none"/>
      <path d="M337.75 -33.55 Q338.05 -22.75 347.4 -13.85 359.3 -2.5 380.25 -2.5 L382.05 -2.65 Q383.4 4.0 389.55 11.2 397.35 20.4 407.5 21.7 411.85 24.05 415.85 25.8 L427.5 26.4 432.7 22.85 437.9 19.1 Q438.65 21.8 442.3 26.4 447.95 33.5 457.15 39.4 485.35 57.35 536.3 57.35 549.5 57.35 560.1 53.15 566.3 50.7 570.65 47.25 572.55 45.7 577.3 43.95 582.2 42.15 586.95 41.3 590.2 40.65 594.55 36.9 L602.35 29.25 Q609.8 21.55 614.15 20.5 615.35 17.45 616.2 16.55 622.25 21.9 626.75 30.35 631.85 36.85 646.55 39.9 654.25 54.65 673.1 61.3 L688.85 66.2 Q694.1 67.9 698.2 69.7 705.05 67.75 712.6 63.9 714.85 61.7 717.45 59.9 732.6 71.6 749.65 85.75 L744.05 83.7 Q731.35 79.55 722.5 81.25 L718.05 84.1 Q713.5 87.15 712.95 88.0 L713.35 88.85 711.7 87.35 Q706.45 82.65 705.9 82.65 694.75 79.8 683.75 75.6 675.7 72.55 673.55 72.55 L669.45 72.95 Q655.15 66.65 648.25 61.3 L645.75 61.85 645.6 61.7 645.5 63.75 Q642.15 68.95 635.35 60.1 628.15 48.8 626.6 47.25 L617.9 47.25 Q613.3 50.55 610.5 55.4 607.0 61.35 599.05 68.6 596.9 70.55 583.2 77.1 570.3 83.3 565.0 85.2 L565.55 84.05 571.35 74.85 Q574.5 69.75 576.25 66.05 575.55 64.65 573.05 63.8 L570.65 63.25 Q563.8 67.5 560.65 69.95 L557.75 72.6 557.7 72.55 Q556.15 71.9 545.9 72.25 L538.1 72.5 536.8 73.45 Q531.2 77.3 520.85 77.3 L464.3 71.4 461.5 70.0 Q462.8 68.7 477.35 67.3 L475.55 66.65 Q472.05 65.35 469.95 63.65 L467.1 61.6 Q463.65 60.05 444.9 60.75 443.55 59.85 437.8 54.55 433.55 50.55 431.75 49.5 428.3 46.5 426.65 45.8 L411.75 45.25 404.55 48.0 Q403.25 48.65 403.05 51.0 L387.5 37.0 383.5 32.15 Q366.5 12.3 354.15 11.25 L353.45 9.55 347.15 8.65 342.65 8.0 342.8 8.4 Q342.45 8.75 339.1 10.3 335.7 11.9 334.95 12.65 L330.95 12.0 Q326.95 11.05 326.8 9.8 L328.9 7.35 329.9 5.9 332.05 5.9 331.85 3.35 331.9 2.05 330.75 1.95 Q330.55 2.4 330.35 2.1 330.05 1.75 329.95 0.0 L328.2 0.45 Q322.75 2.05 319.3 6.2 315.9 11.3 313.7 13.8 309.9 18.3 303.75 20.5 303.15 20.3 301.45 17.95 299.8 15.6 298.4 15.15 L271.55 27.85 Q254.1 35.95 248.05 39.9 239.25 45.75 225.8 55.25 L205.0 70.0 Q204.5 70.05 204.85 69.3 205.4 68.15 205.05 67.45 203.7 64.65 190.1 64.65 172.3 64.65 152.25 81.15 149.25 83.6 139.55 92.55 133.85 97.75 132.15 97.85 L131.35 97.85 131.3 98.7 127.85 98.9 122.1 101.0 114.45 103.0 Q113.15 103.65 111.85 104.45 105.65 109.25 102.75 111.05 101.8 112.75 101.25 114.75 L99.65 114.6 99.75 114.8 Q90.25 117.25 55.65 117.25 49.5 117.25 39.8 114.95 L25.85 111.35 18.45 111.35 15.45 107.4 5.05 107.4 Q2.5 110.25 -3.15 113.1 L-13.3 117.9 -15.5 119.05 -13.75 117.7 Q11.3 98.1 19.1 93.35 21.6 94.6 23.7 97.35 L27.8 103.5 54.0 103.5 Q79.35 100.35 91.65 93.7 L100.0 88.2 Q104.65 84.8 108.0 83.25 132.75 78.65 150.3 70.15 L164.4 62.85 Q173.0 58.25 180.0 55.4 191.15 50.85 205.4 40.8 217.15 32.55 223.3 26.4 224.9 27.4 225.3 28.8 225.65 30.05 225.0 31.2 254.9 31.2 289.45 6.3 301.1 -2.1 315.7 -15.15 L336.65 -34.0 337.75 -33.55 M430.3 61.85 L431.0 62.55 Q431.0 63.25 427.5 63.25 L423.2 62.8 422.7 61.3 420.25 60.35 Q417.8 59.15 417.65 57.9 417.8 56.05 418.35 55.45 418.7 55.1 419.3 55.1 424.05 56.75 426.2 58.25 L430.3 61.85" fill="#afbfc2" fill-rule="evenodd" stroke="none"/>
    </g>
  </defs>
</svg>
