<?xml version="1.0" encoding="UTF-8" standalone="no"?>
<svg xmlns:ffdec="https://www.free-decompiler.com/flash" xmlns:xlink="http://www.w3.org/1999/xlink" ffdec:objectType="frame" height="333.5px" width="832.45px" xmlns="http://www.w3.org/2000/svg">
  <g transform="matrix(1.0, 0.0, 0.0, 1.0, 40.5, 41.3)">
    <use ffdec:characterId="35" ffdec:characterName="a_EB_WaveBone_02" height="333.5" transform="matrix(-1.0, 0.0, 0.0, 1.0, 791.95, -41.3)" width="829.35" xlink:href="#sprite0"/>
  </g>
  <defs>
    <g id="sprite0" transform="matrix(1.0, 0.0, 0.0, 1.0, 40.45, 41.3)">
      <use ffdec:characterId="34" height="333.5" transform="matrix(1.0, 0.0, 0.0, 1.0, -40.45, -41.3)" width="829.35" xlink:href="#shape0"/>
    </g>
    <g id="shape0" transform="matrix(1.0, 0.0, 0.0, 1.0, 40.45, 41.3)">
      <path d="M397.95 -23.6 L414.45 -39.2 414.0 -39.9 Q414.55 -41.3 415.65 -41.3 L417.0 -39.05 417.9 -39.35 418.75 -36.25 418.75 -36.2 420.0 -34.15 Q425.15 -26.3 430.9 -19.85 449.2 0.55 467.7 0.55 472.25 0.55 473.3 -1.5 475.1 -5.0 476.4 -5.9 L490.55 6.9 Q501.3 17.1 507.2 22.15 529.05 40.95 547.85 47.25 L550.2 48.2 550.25 48.25 550.65 47.25 560.15 53.15 Q567.35 57.95 573.0 60.85 581.1 65.05 590.95 68.25 L590.9 68.05 593.1 67.35 Q596.35 69.0 600.35 70.25 616.45 75.2 666.25 77.9 666.8 78.85 687.4 80.55 L712.1 82.1 733.65 81.9 764.85 80.5 Q776.75 82.75 784.1 87.75 L787.4 90.45 788.9 91.85 788.9 241.55 788.05 290.65 787.2 291.05 784.65 289.4 784.15 288.25 782.6 288.25 782.7 288.8 781.85 292.2 74.8 292.2 -38.25 291.65 -38.85 291.3 -39.05 291.65 -39.65 291.65 -39.65 212.05 Q-40.6 196.75 -40.45 174.5 L-40.15 137.1 Q-35.65 129.75 -21.0 111.7 -2.9 89.4 19.1 64.65 L25.0 70.55 Q30.2 75.9 30.9 77.3 41.2 79.45 43.7 81.5 45.15 82.65 45.8 84.75 49.45 88.7 93.35 93.9 L93.7 95.0 97.7 94.9 Q116.6 94.9 139.5 93.9 179.25 84.1 210.6 73.9 231.65 59.4 271.45 39.05 L308.45 20.1 Q327.95 9.8 338.6 2.5 L348.75 14.0 Q365.65 3.65 373.75 -2.5 381.55 -8.45 397.95 -23.6 M414.7 -38.8 L414.05 -37.75 415.05 -38.25 414.7 -38.8" fill="#435f60" fill-rule="evenodd" stroke="none"/>
      <path d="M407.45 -0.05 Q404.65 4.3 402.8 8.3 L405.8 7.85 406.4 7.7 Q406.85 8.15 406.95 10.65 L408.15 10.55 412.85 10.65 414.0 12.65 410.0 16.9 406.65 19.95 400.8 18.75 391.15 25.8 378.25 34.75 377.75 35.25 377.65 35.15 Q372.25 38.9 371.8 39.35 369.15 40.0 366.15 41.55 363.25 43.1 362.25 43.3 367.95 36.55 373.4 30.8 370.15 27.25 368.15 27.25 367.75 27.25 360.35 30.9 353.0 34.55 352.4 34.55 351.15 35.25 349.85 35.25 L348.45 34.9 345.5 37.1 Q343.95 38.35 342.55 39.5 341.05 45.15 325.25 57.4 310.15 69.15 307.1 69.15 L305.6 69.15 305.15 69.65 Q301.1 74.3 296.85 77.65 296.35 77.4 295.9 76.6 L296.7 75.35 296.6 75.0 300.05 72.5 Q306.25 67.0 306.25 58.2 306.25 54.6 304.85 53.4 L301.75 52.0 Q293.45 55.25 277.4 68.25 263.45 79.55 255.25 89.8 L255.9 90.55 255.3 92.15 Q265.05 85.85 269.15 84.65 268.95 86.55 267.25 88.9 261.15 93.95 255.35 97.8 237.2 109.65 216.8 112.95 L216.8 112.75 Q216.8 112.25 223.45 108.95 L224.55 107.3 216.8 108.0 212.8 107.5 210.65 107.75 Q200.6 111.35 188.4 111.35 184.35 111.35 181.2 109.8 178.25 108.35 178.0 106.55 171.65 108.25 164.55 111.7 L151.3 118.1 150.95 120.65 142.85 122.05 Q141.7 123.0 133.9 123.85 L122.05 124.55 Q113.5 124.55 107.7 120.6 L103.7 118.05 103.3 117.9 103.5 117.45 96.2 115.1 82.65 110.8 Q82.55 110.15 80.9 108.4 79.3 106.75 79.3 106.0 L81.8 104.6 94.65 105.9 100.95 106.55 Q121.15 106.55 126.85 103.5 128.45 102.65 130.4 100.5 L130.85 100.05 Q131.15 97.65 132.8 97.0 L136.1 95.9 170.9 94.15 170.55 94.45 Q167.95 94.8 166.2 95.3 166.0 94.6 165.8 94.6 165.5 94.6 165.4 96.4 L160.55 96.75 150.75 97.3 Q150.75 97.9 151.35 98.5 L149.25 98.45 144.25 98.7 Q144.25 102.8 145.65 106.0 L153.55 104.05 163.1 102.05 Q162.9 101.6 161.6 101.1 L165.5 100.9 Q165.6 101.75 165.8 101.8 166.0 101.9 166.2 101.25 L168.3 101.45 Q168.55 102.4 169.05 103.05 L170.15 104.6 171.4 105.05 176.9 105.45 Q179.45 105.45 182.85 104.05 L184.75 104.05 Q190.55 100.95 205.25 93.65 217.1 87.1 217.1 83.25 L217.1 83.2 Q218.25 81.4 218.25 79.85 218.25 76.95 216.9 75.55 231.55 65.1 252.8 55.3 273.3 45.85 313.55 31.85 L313.55 31.5 Q313.55 27.95 316.0 26.75 317.3 26.15 319.5 25.85 L327.7 26.2 Q324.75 27.7 320.75 31.35 315.8 35.9 310.2 42.9 305.4 48.9 305.4 49.5 305.4 52.85 306.1 54.3 L306.8 55.95 Q310.5 54.3 316.9 51.7 L313.95 57.45 315.0 57.35 Q319.9 57.35 327.8 49.65 329.55 47.9 331.25 46.5 L332.1 44.5 Q333.7 43.2 334.55 41.75 L335.45 39.75 Q337.7 37.25 341.05 34.55 343.0 33.0 347.4 29.85 347.65 28.0 348.35 27.5 349.0 27.05 350.7 26.4 L353.85 24.95 354.35 24.45 354.7 24.5 Q357.4 22.9 360.05 20.65 L367.65 14.45 Q372.35 11.35 379.75 9.85 L380.8 7.85 Q383.7 6.75 396.25 0.45 407.3 -5.1 410.6 -5.9 410.2 -4.4 407.45 -0.05 M576.3 80.9 Q576.4 80.6 577.65 79.85 L587.25 80.7 592.55 82.65 Q595.8 87.55 599.6 89.8 603.95 92.45 606.35 95.3 L606.05 98.7 603.8 99.25 Q586.25 95.9 580.6 92.8 L580.1 92.5 576.8 92.5 Q576.0 91.4 571.5 90.0 567.7 86.2 564.9 81.8 562.5 78.0 558.55 74.5 L558.8 72.55 572.3 79.75 576.15 81.95 576.3 80.9 M611.4 95.9 Q613.05 95.3 618.25 95.95 L627.8 96.9 625.5 96.05 Q621.8 94.55 621.25 93.35 622.05 91.25 621.9 89.8 621.8 89.05 622.0 89.05 L625.1 89.5 Q628.85 89.75 634.75 89.4 L635.35 88.6 Q636.15 87.7 637.0 87.15 663.25 84.05 670.6 87.6 671.75 88.1 675.6 91.2 678.6 93.6 682.85 94.75 L687.9 94.15 Q693.25 93.4 694.65 92.5 L702.0 94.75 702.55 96.75 Q701.45 98.2 698.7 99.8 694.95 102.05 691.3 102.05 L678.8 101.5 Q670.45 100.9 669.9 100.1 L657.95 98.9 656.85 98.85 Q659.35 99.25 661.35 100.05 663.8 101.05 664.0 102.05 L661.85 103.3 Q659.75 104.05 656.15 104.05 L645.35 103.6 Q638.7 103.0 637.55 102.05 L613.4 101.25 Q613.4 100.5 612.7 98.9 L611.4 95.9 M493.55 35.15 L492.35 37.65 Q491.6 38.7 490.5 39.05 L481.75 39.05 Q480.0 38.2 479.35 36.7 478.65 35.05 478.65 31.05 L478.45 30.8 Q477.25 29.2 477.25 28.1 477.25 24.1 477.9 22.35 478.5 20.85 480.05 19.95 L482.1 22.1 Q485.85 24.5 488.3 28.55 491.15 33.25 493.55 35.15 M243.2 100.35 L243.05 100.5 243.35 100.3 243.2 100.35 M24.6 86.95 Q23.3 90.5 23.3 93.35 23.3 96.45 27.9 100.5 26.45 101.1 25.15 101.95 20.8 104.8 20.0 108.5 10.15 111.55 -0.5 119.05 -1.85 118.3 -4.35 117.75 L-6.85 117.3 Q-13.6 120.3 -23.95 127.5 L-29.4 129.75 -29.5 125.4 Q-29.5 121.3 -2.75 102.1 21.65 84.55 25.0 83.25 25.55 84.2 24.6 86.95 M768.75 80.4 L753.9 93.55 Q742.15 97.75 733.2 102.05 L723.05 101.25 Q722.85 101.9 722.65 101.8 722.25 101.65 722.25 98.15 722.25 94.75 722.85 94.85 L724.5 95.3 Q732.25 93.2 752.4 85.2 761.7 81.85 768.75 80.4" fill="#819a9f" fill-rule="evenodd" stroke="none"/>
      <path d="M397.95 -23.6 L414.45 -39.2 414.0 -39.9 Q414.55 -41.3 415.65 -41.3 L417.0 -39.05 417.9 -39.35 418.75 -36.25 418.75 -36.2 420.0 -34.15 Q425.15 -26.3 430.9 -19.85 449.2 0.55 467.7 0.55 472.25 0.55 473.3 -1.5 475.1 -5.0 476.4 -5.9 L490.55 6.9 Q501.3 17.1 507.2 22.15 529.05 40.95 547.85 47.25 L550.2 48.2 550.25 48.25 550.65 47.25 560.15 53.15 Q567.35 57.95 573.0 60.85 581.1 65.05 590.95 68.25 L590.9 68.05 593.1 67.35 Q596.35 69.0 600.35 70.25 614.35 74.55 653.9 77.15 656.5 74.7 658.9 73.95 665.6 71.85 674.75 79.4 L687.4 80.55 712.1 82.1 733.65 81.9 764.85 80.5 Q770.75 81.6 775.55 83.4 748.8 90.0 734.5 95.75 L730.45 97.45 711.65 100.4 Q709.1 98.05 706.75 97.3 689.75 97.2 676.95 97.85 L669.35 90.55 665.75 90.3 664.85 89.4 657.65 89.75 653.6 89.45 652.4 90.25 651.2 90.4 650.8 90.55 Q645.35 92.45 637.15 93.05 L629.1 95.15 629.35 93.95 629.55 93.35 628.3 93.35 613.75 91.9 606.3 90.85 Q609.05 89.2 610.45 87.85 620.2 87.35 626.85 86.15 L625.3 85.45 624.1 85.2 616.2 84.65 Q613.4 84.65 611.5 85.3 L610.3 83.6 609.15 82.65 603.9 83.0 Q590.15 80.9 579.8 83.8 L578.3 84.25 572.2 78.9 570.95 77.55 564.15 75.35 Q561.5 68.6 550.8 64.05 L532.45 57.35 Q531.25 58.2 530.2 59.35 528.85 60.85 528.05 62.4 L524.15 63.7 522.45 60.85 515.8 52.55 Q505.95 49.9 497.5 41.0 L490.55 33.3 Q486.3 28.7 482.6 25.85 477.8 26.9 477.8 30.65 477.8 32.75 481.2 38.5 L478.65 39.35 460.95 25.45 Q448.45 16.05 441.55 13.2 L441.55 13.75 Q440.45 12.9 440.2 12.8 439.85 12.6 439.85 16.0 439.85 18.65 444.2 24.3 449.35 30.9 450.25 33.15 L448.55 34.0 Q442.8 30.65 437.75 29.3 L430.45 28.15 Q426.8 27.7 424.5 26.4 421.3 24.6 417.65 19.95 L410.6 19.15 410.55 19.05 Q409.8 17.5 408.35 16.55 L404.1 16.55 Q400.75 0.2 361.4 24.25 347.65 32.65 331.55 44.8 L331.5 44.9 332.95 44.7 Q330.3 49.85 323.85 54.65 314.15 61.85 313.25 62.7 L308.75 61.85 315.5 52.15 Q320.5 44.7 320.3 43.3 321.7 44.3 326.0 44.75 L326.75 44.85 327.6 44.7 327.6 44.9 330.2 44.95 Q331.5 43.55 332.2 42.05 L333.8 39.35 332.85 40.05 333.0 38.25 Q333.0 34.6 331.35 32.45 330.65 31.55 328.2 29.8 L319.5 29.8 Q314.05 32.6 283.8 46.05 L242.4 64.65 Q239.45 65.95 226.85 73.6 215.35 80.55 213.15 82.1 204.7 89.5 197.35 93.1 184.95 99.2 174.35 95.9 138.8 97.6 126.8 105.9 121.1 109.85 119.15 110.45 114.1 112.0 102.9 110.8 100.65 112.2 99.7 113.4 94.5 112.55 88.8 111.1 80.55 109.0 73.75 106.1 67.35 103.35 65.25 101.25 L48.65 100.65 Q45.1 100.65 42.85 101.65 L41.3 102.65 Q39.2 99.1 32.7 96.8 L25.55 94.75 Q26.05 93.05 25.3 90.8 24.45 88.2 22.5 87.45 L-3.95 106.25 Q-18.85 117.15 -28.2 124.95 L-31.6 125.15 -21.0 111.7 Q-2.9 89.4 19.1 64.65 L25.0 70.55 Q30.2 75.9 30.9 77.3 41.2 79.45 43.7 81.5 45.15 82.65 45.8 84.75 49.45 88.7 93.35 93.9 L93.7 95.0 97.7 94.9 Q116.6 94.9 139.5 93.9 179.25 84.1 210.6 73.9 231.65 59.4 271.45 39.05 L308.45 20.1 Q327.95 9.8 338.6 2.5 L348.75 14.0 Q365.65 3.65 373.75 -2.5 381.55 -8.45 397.95 -23.6 M414.7 -38.8 L414.05 -37.75 415.05 -38.25 414.7 -38.8 M317.7 53.75 L316.65 55.1 316.35 55.95 318.5 54.55 317.7 53.75" fill="#afbfc2" fill-rule="evenodd" stroke="none"/>
    </g>
  </defs>
</svg>
