<?xml version="1.0" encoding="UTF-8" standalone="no"?>
<svg xmlns:ffdec="https://www.free-decompiler.com/flash" xmlns:xlink="http://www.w3.org/1999/xlink" ffdec:objectType="frame" height="333.5px" width="832.45px" xmlns="http://www.w3.org/2000/svg">
  <g transform="matrix(1.0, 0.0, 0.0, 1.0, 40.5, 41.3)">
    <use ffdec:characterId="37" ffdec:characterName="a_EB_WaveBone_03" height="327.35" transform="matrix(-1.0, 0.0, 0.0, 1.0, 791.95, -35.15)" width="829.35" xlink:href="#sprite0"/>
  </g>
  <defs>
    <g id="sprite0" transform="matrix(1.0, 0.0, 0.0, 1.0, 40.45, 35.15)">
      <use ffdec:characterId="36" height="327.35" transform="matrix(1.0, 0.0, 0.0, 1.0, -40.45, -35.15)" width="829.35" xlink:href="#shape0"/>
    </g>
    <g id="shape0" transform="matrix(1.0, 0.0, 0.0, 1.0, 40.45, 35.15)">
      <path d="M443.1 -34.2 Q449.2 -26.0 464.8 -11.95 483.1 4.5 488.25 4.5 491.55 4.5 493.35 2.25 L494.4 1.05 494.4 0.8 Q494.4 -2.55 495.0 -2.35 L495.55 -1.95 Q513.85 25.4 560.0 45.7 569.45 49.9 593.5 59.05 602.8 62.55 608.65 65.2 L613.6 65.75 621.2 66.8 623.75 69.55 Q632.0 76.75 652.15 79.3 L652.7 79.6 Q660.5 81.25 663.15 81.25 L668.1 81.0 672.65 82.15 Q679.75 84.05 682.55 84.05 L715.65 83.05 Q727.15 82.05 735.65 79.3 L742.2 76.8 744.6 76.75 Q772.95 76.5 782.7 87.45 785.9 91.1 788.9 100.75 L788.9 241.55 788.05 290.65 787.2 291.05 784.65 289.4 784.15 288.25 782.6 288.25 782.7 288.8 781.85 292.2 74.8 292.2 -38.25 291.65 -38.85 291.3 -39.05 291.65 -39.65 291.65 -39.65 212.05 Q-40.6 196.75 -40.45 174.5 L-40.15 136.85 -40.15 136.45 Q-35.55 133.85 -29.95 130.3 -18.95 124.1 -9.4 116.0 2.75 106.95 16.65 95.5 L23.85 89.45 Q35.25 81.9 47.6 69.4 67.25 49.65 70.0 47.25 71.05 48.15 70.7 49.7 70.35 51.4 70.95 52.15 73.4 55.1 94.5 57.9 94.9 59.45 95.15 62.3 95.9 64.75 99.45 66.45 108.85 70.85 147.9 74.5 L160.7 74.25 160.85 74.5 Q164.75 75.4 166.7 76.45 L167.9 77.3 Q176.05 77.9 190.95 77.9 212.9 77.9 235.35 70.85 258.0 59.7 294.65 42.6 340.35 20.3 359.95 5.05 L360.85 6.6 Q362.4 8.85 364.95 10.35 L364.75 11.25 365.3 11.45 366.45 12.65 369.7 12.2 371.8 12.65 372.35 11.8 Q385.55 9.6 397.15 5.45 403.45 3.2 410.95 -0.3 427.1 -14.3 442.6 -34.85 L442.8 -34.55 443.8 -35.15 443.1 -34.2" fill="#435f60" fill-rule="evenodd" stroke="none"/>
      <path d="M733.5 90.0 Q732.35 92.65 729.6 95.9 727.2 98.75 726.15 99.25 L719.4 98.7 Q719.2 99.35 719.0 99.25 718.55 99.15 718.55 95.6 718.55 90.8 721.95 89.15 724.35 88.0 730.4 88.0 L733.5 90.0 M696.3 98.95 Q683.0 102.1 678.9 104.05 L668.05 104.8 Q657.05 105.7 656.15 106.55 L650.25 106.0 Q650.05 106.45 649.85 106.15 649.4 105.6 649.4 102.05 649.4 94.9 672.35 93.85 678.65 93.55 692.0 93.35 L709.0 91.95 Q705.45 96.8 696.3 98.95 M593.4 88.0 Q594.15 86.3 597.0 84.0 594.15 82.4 590.6 81.8 L588.2 81.25 Q586.4 80.75 586.4 77.3 586.4 73.9 586.8 74.25 L588.05 75.35 588.05 74.5 609.15 74.5 615.6 77.2 Q619.65 79.0 621.8 79.3 621.3 81.35 616.2 83.8 L615.95 83.95 620.4 88.55 619.55 89.35 Q618.3 90.2 616.2 90.55 L605.1 90.05 Q593.95 89.25 593.4 88.0 M625.85 96.35 Q627.1 98.1 627.45 99.25 L626.6 100.65 621.25 101.25 619.1 100.4 Q616.85 99.25 616.5 97.85 621.55 93.9 624.05 93.9 L625.85 96.35 M492.15 17.15 L498.35 18.0 500.05 21.9 Q499.7 24.6 498.35 26.5 497.35 27.9 495.55 29.25 494.75 28.8 492.1 26.75 489.8 25.0 487.4 23.9 487.2 24.55 487.0 24.45 486.55 24.3 486.55 20.8 486.55 17.25 487.0 17.3 487.2 17.3 487.4 18.0 492.15 18.0 492.15 17.15 M335.5 43.85 Q333.45 45.3 330.25 49.1 327.3 52.6 326.25 53.15 326.75 54.35 329.2 55.3 L331.55 55.95 333.0 55.1 Q334.05 53.1 334.65 49.8 L335.5 43.85 M445.4 3.2 Q439.7 4.7 434.85 10.5 L433.15 12.8 Q421.8 19.3 414.65 23.5 393.3 36.15 376.55 50.6 L373.15 53.15 Q380.8 44.3 380.8 38.5 380.8 35.0 379.8 33.5 371.75 38.4 361.25 45.45 L347.8 54.3 Q341.1 61.8 330.2 70.25 L313.2 82.65 Q302.25 90.35 298.4 93.35 L295.2 92.7 Q291.9 91.75 291.35 90.55 L300.1 81.35 Q290.15 85.9 282.0 87.9 280.65 89.55 279.65 91.3 284.15 89.65 286.55 90.0 L287.15 91.4 Q283.85 93.45 279.55 97.3 L275.4 97.05 Q271.2 96.55 270.8 95.3 275.1 93.05 278.4 91.75 276.05 91.1 273.9 89.4 L274.0 89.25 270.55 89.4 256.55 89.15 254.8 90.0 252.2 89.75 Q245.4 92.3 237.8 94.15 L243.8 93.9 246.1 94.8 Q248.4 95.85 248.6 96.75 246.75 98.0 245.05 100.2 L242.3 103.35 Q240.45 104.8 236.8 105.6 L237.3 106.1 233.45 106.7 205.85 111.9 205.3 112.0 Q198.15 109.45 191.9 108.3 176.35 105.4 163.8 109.95 159.55 107.3 155.8 104.05 L150.7 100.8 151.05 99.3 153.0 99.75 154.55 99.45 Q157.3 100.65 160.55 100.65 L171.6 100.2 Q178.55 99.65 179.7 98.7 L189.3 98.15 204.15 96.75 220.2 84.1 Q225.9 79.7 231.2 76.6 231.35 78.35 231.85 78.45 232.2 78.55 232.55 77.9 L233.45 78.25 Q233.45 80.3 233.65 80.7 L234.55 82.1 234.25 82.7 Q234.65 83.25 238.2 83.25 240.95 83.25 246.6 80.65 L249.45 80.7 Q259.25 80.7 270.95 70.65 276.75 65.7 280.95 60.1 L298.4 56.5 Q308.85 47.05 328.4 36.45 L338.5 31.15 344.2 30.05 Q341.7 32.7 341.7 36.8 341.7 40.35 342.15 40.45 342.35 40.55 342.55 39.9 L347.3 40.5 347.75 40.15 Q344.0 45.2 338.6 49.2 L338.05 49.75 341.1 48.55 Q342.75 47.8 343.65 47.8 L343.85 47.95 Q349.1 43.85 356.55 39.25 375.7 27.4 389.5 22.5 L390.65 24.05 Q411.65 8.4 441.55 2.5 L444.75 3.05 445.4 3.2 M354.45 28.0 L354.35 27.85 354.55 27.8 354.45 28.0 M361.7 61.5 L361.95 61.75 361.55 62.1 361.7 61.5 M224.95 96.95 L226.5 96.5 225.15 96.75 224.95 96.95 M112.5 86.05 L111.9 82.95 Q113.3 81.25 113.3 80.7 119.9 81.05 124.35 82.05 L133.0 84.05 134.25 85.2 144.8 84.65 150.15 85.9 154.4 86.05 Q153.85 86.8 152.15 89.9 L150.8 92.25 149.85 90.65 146.5 88.55 Q135.95 87.45 131.0 88.6 L130.15 88.4 Q125.3 87.25 119.2 86.55 L112.5 86.05 M52.55 79.85 L53.05 80.2 Q62.5 78.35 72.0 78.75 L72.05 79.05 73.65 79.3 73.95 80.7 69.05 83.3 Q66.2 84.7 63.0 85.75 L61.8 86.4 64.05 87.7 65.0 87.65 66.05 87.15 67.1 87.6 77.05 87.15 77.4 88.2 77.6 88.0 78.2 87.85 Q78.75 88.4 78.75 91.95 78.75 95.55 77.7 96.25 77.0 96.8 73.95 97.85 62.85 101.9 52.25 107.7 38.65 108.7 25.25 114.4 L23.45 115.2 Q22.05 113.35 18.75 113.3 L18.5 112.55 Q14.25 111.75 4.75 115.3 -2.15 117.8 -9.55 121.75 L-10.3 121.5 Q-11.3 121.0 -11.5 119.25 8.2 101.1 20.2 93.6 32.6 85.9 45.15 82.2 45.9 81.7 46.95 81.25 L48.2 81.35 52.35 80.35 52.55 79.85 M46.4 90.5 L45.55 91.95 Q46.25 93.25 46.55 94.75 50.25 94.55 52.3 93.5 L53.55 92.6 53.25 91.35 52.8 90.65 47.0 90.0 46.95 90.05 46.4 90.5 M13.5 108.0 L15.95 107.55 14.3 107.5 13.5 108.0" fill="#819a9f" fill-rule="evenodd" stroke="none"/>
      <path d="M443.1 -34.2 Q449.2 -26.0 464.8 -11.95 483.1 4.5 488.25 4.5 491.55 4.5 493.35 2.25 L494.4 1.05 494.4 0.8 Q494.4 -2.55 495.0 -2.35 L495.55 -1.95 Q513.85 25.4 560.0 45.7 569.45 49.9 593.5 59.05 602.8 62.55 608.65 65.2 L613.6 65.75 621.2 66.8 623.75 69.55 626.6 71.65 Q631.3 72.5 632.3 74.55 640.05 77.75 652.15 79.3 L652.7 79.6 Q660.5 81.25 663.15 81.25 L668.1 81.0 672.65 82.15 Q679.75 84.05 682.55 84.05 L715.65 83.05 Q727.15 82.05 735.65 79.3 L742.2 76.8 744.6 76.75 757.35 77.3 756.3 77.6 Q751.75 79.05 745.7 83.15 739.35 87.5 734.05 89.4 725.15 92.7 710.4 93.9 709.5 94.8 686.8 95.85 L671.85 96.5 666.15 98.1 Q652.1 101.95 645.75 102.65 L641.95 101.85 Q639.55 98.7 633.6 94.4 L632.95 93.95 Q634.85 94.5 638.65 96.85 639.0 95.9 639.9 95.05 L639.75 94.6 639.65 93.55 Q637.7 92.15 635.45 89.7 L632.45 86.05 630.5 84.85 Q627.45 79.7 626.6 79.3 L612.3 78.65 611.2 77.75 607.5 77.5 606.7 78.35 603.8 77.9 Q590.9 80.5 581.1 78.15 571.9 74.8 567.8 73.95 561.55 67.7 558.6 63.75 556.65 61.15 552.35 54.0 L546.85 53.05 546.3 53.4 541.85 56.15 545.3 61.3 Q541.8 59.6 537.15 56.3 L536.5 56.15 535.9 55.45 Q529.35 50.65 520.7 42.95 512.25 35.45 506.5 29.0 L501.35 25.65 Q499.05 24.35 496.95 23.5 L495.7 22.6 Q493.9 21.65 491.65 22.0 L487.65 21.9 486.9 23.95 485.5 24.85 Q489.0 28.5 491.3 31.75 484.1 30.6 474.5 21.55 L467.1 14.25 Q463.35 10.6 460.9 8.8 L460.25 8.45 460.2 8.4 446.2 9.0 444.5 9.1 Q440.85 7.3 436.2 7.3 L430.8 9.4 Q396.85 22.15 372.4 33.85 L357.75 42.7 Q344.6 50.55 340.3 52.55 L337.15 52.05 336.1 51.75 Q343.05 45.75 347.6 40.1 350.3 36.7 351.65 34.0 355.85 30.1 358.15 26.65 L353.3 27.65 Q349.85 28.15 347.2 29.2 L345.25 30.1 341.6 31.75 Q337.6 33.85 333.7 37.3 L326.8 43.85 323.6 46.3 322.85 45.8 Q320.15 45.5 316.1 48.1 L314.7 49.1 314.15 49.2 Q313.7 49.65 313.5 50.25 L312.25 51.9 300.4 56.7 296.2 58.5 284.3 61.85 267.6 66.85 Q252.1 71.65 246.05 73.95 233.9 78.65 220.8 87.05 209.05 94.55 205.0 99.25 L205.45 99.6 Q204.6 99.8 203.9 100.15 201.3 101.3 195.45 102.05 194.05 103.5 156.65 104.05 L149.7 99.8 Q146.3 97.5 148.2 97.85 L151.0 94.65 Q153.2 91.95 153.55 90.55 L147.6 88.3 Q146.3 87.55 145.65 86.05 117.15 86.05 108.55 86.55 101.0 87.05 100.1 88.55 L103.05 89.5 101.25 89.4 Q100.3 90.35 93.2 92.1 85.8 93.9 81.8 93.9 L75.2 93.65 72.8 93.35 70.6 90.15 70.45 90.2 61.0 93.35 Q57.9 92.5 56.5 90.55 L59.3 87.45 61.0 85.2 69.75 85.2 70.6 85.65 72.0 82.1 64.4 81.25 64.4 82.1 Q60.35 82.5 52.5 84.8 45.5 86.85 41.6 88.55 35.15 91.35 27.6 95.15 20.85 98.55 15.75 100.65 12.75 101.75 0.3 108.6 L16.65 95.5 23.85 89.45 Q35.25 81.9 47.6 69.4 67.25 49.65 70.0 47.25 71.05 48.15 70.7 49.7 70.35 51.4 70.95 52.15 73.4 55.1 94.5 57.9 94.9 59.45 95.15 62.3 95.9 64.75 99.45 66.45 108.85 70.85 147.9 74.5 L160.7 74.25 160.85 74.5 Q164.75 75.4 166.7 76.45 L167.9 77.3 Q176.05 77.9 190.95 77.9 212.9 77.9 235.35 70.85 258.0 59.7 294.65 42.6 340.35 20.3 359.95 5.05 L360.85 6.6 Q362.4 8.85 364.95 10.35 L364.75 11.25 365.3 11.45 366.45 12.65 369.7 12.2 371.8 12.65 372.35 11.8 Q385.55 9.6 397.15 5.45 403.45 3.2 410.95 -0.3 427.1 -14.3 442.6 -34.85 L442.8 -34.55 443.8 -35.15 443.1 -34.2 M53.15 92.5 Q52.35 95.45 50.6 96.75 49.1 96.75 47.5 95.8 45.85 94.75 45.25 93.35 45.9 91.85 47.6 91.0 49.4 90.15 51.45 90.55 L53.15 92.5" fill="#afbfc2" fill-rule="evenodd" stroke="none"/>
    </g>
  </defs>
</svg>
