<?xml version="1.0" encoding="UTF-8" standalone="no"?>
<svg xmlns:ffdec="https://www.free-decompiler.com/flash" xmlns:xlink="http://www.w3.org/1999/xlink" ffdec:objectType="frame" height="290.55px" width="212.45px" xmlns="http://www.w3.org/2000/svg">
  <g transform="matrix(1.0, 0.0, 0.0, 1.0, -299.25, -46.85)">
    <use ffdec:characterId="7" height="60.8" transform="matrix(-0.5138, 1.5723, -1.5723, -0.5138, 483.11, 78.0896)" width="158.6" xlink:href="#shape0"/>
  </g>
  <defs>
    <g id="shape0" transform="matrix(1.0, 0.0, 0.0, 1.0, 2.7, 44.25)">
      <path d="M3.15 -3.5 L3.55 -3.55 Q5.1 -3.2 5.75 -4.15 L6.05 -4.4 6.5 -4.7 6.7 -4.85 7.0 -4.95 7.15 -5.1 7.5 -5.3 8.3 -5.4 8.65 -5.4 9.25 -5.25 9.55 -5.35 9.95 -5.4 10.3 -5.25 10.7 -5.05 10.85 -5.2 11.2 -5.55 11.7 -6.0 11.8 -6.05 11.9 -6.1 12.1 -6.15 12.25 -6.25 12.3 -6.4 13.05 -6.6 13.8 -6.85 13.95 -6.85 14.45 -7.55 14.85 -8.0 15.15 -8.1 15.6 -8.25 15.7 -8.25 16.1 -8.55 16.6 -9.0 16.75 -9.2 16.95 -9.55 17.05 -9.65 17.1 -9.95 17.25 -10.1 17.55 -10.2 17.95 -10.35 18.15 -10.4 18.45 -10.3 18.95 -10.05 19.15 -9.8 19.45 -9.5 19.7 -9.45 19.8 -9.5 20.1 -9.6 20.25 -9.75 20.35 -9.9 20.45 -10.05 21.25 -10.8 22.15 -11.75 22.45 -12.3 22.75 -12.8 23.3 -13.05 24.1 -13.2 24.25 -13.2 24.35 -13.1 24.55 -12.85 24.7 -12.65 24.9 -12.65 25.05 -12.65 25.35 -12.65 25.6 -12.7 26.0 -13.1 26.15 -13.25 26.3 -13.3 26.45 -13.35 26.55 -13.5 26.75 -13.65 26.95 -13.7 27.1 -13.7 27.25 -13.65 27.45 -13.6 28.1 -12.6 28.4 -12.65 28.8 -12.8 29.1 -12.9 30.15 -13.75 31.15 -14.6 31.3 -14.6 31.6 -14.75 31.85 -15.0 32.25 -15.1 32.8 -15.25 33.0 -15.3 33.05 -15.3 35.8 -15.75 35.7 -15.55 35.6 -15.5 35.3 -15.4 35.0 -15.3 34.85 -15.2 34.85 -15.1 Q31.35 -14.9 30.3 -12.5 L29.65 -12.05 28.8 -11.8 27.75 -11.45 27.65 -11.4 27.2 -11.85 26.85 -12.5 26.65 -12.2 26.3 -11.9 26.15 -11.85 25.9 -11.7 25.4 -11.6 25.25 -11.55 25.15 -11.55 24.95 -11.55 24.75 -11.6 24.65 -11.55 24.5 -11.55 24.35 -11.55 24.15 -11.65 23.7 -12.05 23.55 -12.0 23.45 -11.8 23.3 -11.6 23.2 -11.55 23.1 -11.45 23.0 -11.2 22.9 -11.0 22.05 -10.05 21.15 -9.35 21.05 -9.15 20.95 -9.0 20.85 -8.85 20.3 -8.55 19.7 -8.4 19.55 -8.35 19.0 -8.55 18.5 -8.9 18.3 -9.15 18.15 -9.3 17.9 -9.05 17.5 -8.65 17.45 -8.45 17.35 -8.3 17.2 -8.1 16.95 -7.9 16.85 -7.75 16.65 -7.7 16.55 -7.65 16.3 -7.4 15.95 -7.3 15.55 -7.15 15.45 -7.1 15.35 -7.0 15.25 -6.85 15.15 -6.6 15.0 -6.45 14.8 -6.25 14.65 -6.1 13.9 -5.9 13.2 -5.65 13.1 -5.6 12.95 -5.5 12.8 -5.35 12.65 -5.25 12.55 -5.25 12.4 -5.15 11.8 -4.6 11.6 -4.4 11.65 -4.15 11.65 -3.85 11.95 -3.7 12.1 -3.55 12.25 -3.4 Q13.95 -2.65 15.45 -2.95 L15.85 -3.0 16.4 -2.85 16.5 -2.85 16.65 -2.8 16.85 -2.65 17.15 -2.5 17.15 -2.45 17.6 -2.1 17.7 -1.85 17.8 -1.85 18.45 -1.8 18.6 -1.75 18.75 -1.65 18.9 -1.6 19.0 -1.5 19.3 -2.0 19.5 -2.2 19.65 -2.4 20.1 -2.6 Q21.75 -2.7 22.2 -3.85 L22.5 -4.3 22.7 -4.4 22.9 -4.5 23.35 -4.65 23.3 -4.65 23.8 -4.95 23.85 -5.0 24.2 -5.3 24.45 -5.35 27.0 -6.15 27.3 -6.2 27.75 -6.2 28.1 -6.45 28.35 -6.6 28.5 -6.6 28.55 -6.7 28.6 -6.7 28.75 -6.8 29.0 -7.0 29.8 -7.2 30.15 -7.5 30.35 -7.6 30.65 -7.65 30.8 -7.75 30.95 -7.9 31.2 -8.05 31.4 -8.1 31.85 -8.4 32.1 -8.5 33.05 -8.8 33.1 -8.85 33.35 -9.2 33.6 -9.35 34.0 -9.65 34.2 -9.8 34.75 -9.95 35.15 -10.0 35.7 -9.85 36.1 -9.9 36.5 -9.8 36.85 -9.55 37.75 -8.15 37.8 -8.1 37.95 -8.0 38.05 -7.85 38.1 -7.85 38.35 -8.05 38.6 -8.2 39.95 -8.55 40.2 -8.65 40.7 -8.65 41.45 -8.8 41.75 -8.85 41.9 -8.85 41.95 -8.8 42.25 -8.8 42.6 -8.7 42.75 -8.65 42.8 -8.6 43.2 -8.3 43.25 -8.25 43.4 -8.15 44.1 -7.95 44.2 -8.0 44.5 -8.05 44.7 -8.05 44.75 -8.0 44.4 -10.75 44.5 -11.3 44.65 -11.45 44.7 -11.55 44.8 -11.65 44.85 -11.7 45.15 -11.95 45.45 -12.1 45.75 -12.3 45.8 -12.3 46.05 -12.5 46.15 -12.5 46.3 -12.55 46.3 -12.6 46.6 -12.8 45.6 -15.15 45.6 -15.4 45.6 -15.6 45.7 -15.8 46.25 -16.15 47.1 -16.35 47.25 -16.4 47.4 -16.35 47.55 -16.4 47.7 -16.5 47.8 -16.55 48.05 -16.85 48.2 -16.95 48.35 -16.95 48.45 -17.1 48.6 -17.3 48.65 -17.5 48.7 -17.85 48.5 -18.45 48.35 -18.7 48.2 -18.95 48.0 -19.0 47.85 -19.1 47.65 -19.1 47.55 -19.2 47.4 -19.3 47.0 -20.2 47.0 -20.5 47.5 -22.95 49.5 -24.0 49.45 -23.7 49.2 -23.4 48.9 -22.95 48.75 -22.9 48.6 -22.85 48.45 -22.75 48.35 -22.75 48.15 -22.4 47.95 -22.05 47.9 -21.9 47.9 -21.7 47.85 -21.35 48.4 -20.0 49.45 -19.1 49.55 -18.85 49.75 -18.05 49.75 -17.75 49.75 -17.65 49.75 -17.35 49.45 -16.9 47.2 -15.35 47.15 -15.3 47.0 -15.3 47.05 -15.15 46.95 -14.9 47.0 -14.85 47.1 -14.85 47.65 -13.0 48.05 -13.05 48.45 -13.05 48.8 -12.8 48.9 -12.65 49.0 -12.65 49.05 -12.45 49.2 -12.4 49.35 -12.15 49.6 -11.7 49.7 -11.65 50.0 -11.0 52.55 -8.75 53.4 -8.5 55.35 -8.25 55.7 -8.1 56.65 -7.35 56.9 -7.1 57.05 -6.75 57.1 -6.55 57.05 -6.5 57.15 -6.55 Q58.55 -6.45 59.65 -7.2 L59.8 -7.35 59.95 -7.4 60.5 -8.05 60.55 -9.25 60.6 -9.55 60.75 -9.9 60.9 -10.2 61.05 -10.3 61.05 -10.35 61.2 -10.5 61.3 -10.5 61.5 -10.7 61.75 -10.85 61.95 -10.85 62.0 -10.9 62.1 -10.85 62.25 -10.9 62.65 -11.25 62.85 -11.3 63.2 -11.45 63.8 -11.6 65.4 -14.45 65.4 -14.5 65.55 -14.7 65.95 -15.0 66.4 -15.0 67.1 -15.0 67.1 -15.55 67.2 -15.9 67.4 -16.15 67.6 -16.4 67.75 -16.55 68.05 -16.65 68.5 -16.9 68.7 -17.05 68.9 -17.1 69.25 -17.1 69.4 -17.1 69.45 -17.05 69.7 -17.05 70.15 -16.8 70.35 -16.35 70.95 -17.25 71.25 -17.65 71.75 -17.75 72.0 -17.8 72.05 -17.8 72.2 -17.9 72.3 -17.85 72.45 -17.9 72.6 -17.9 72.8 -17.95 73.0 -18.0 73.4 -18.0 Q73.8 -17.95 74.1 -18.2 L74.25 -18.5 74.65 -18.85 74.7 -18.85 75.0 -18.9 75.15 -18.85 75.25 -18.85 75.75 -19.0 76.5 -19.2 76.9 -19.3 77.3 -19.25 77.65 -19.25 77.65 -19.6 77.85 -19.9 78.3 -20.35 78.25 -20.5 78.25 -20.85 77.7 -22.7 77.45 -23.0 77.5 -23.45 77.55 -23.65 77.65 -23.85 77.85 -24.1 78.0 -24.25 78.15 -24.3 78.3 -24.4 78.35 -24.8 78.85 -25.05 78.9 -25.35 78.65 -26.15 78.65 -26.4 78.75 -26.6 78.75 -26.7 78.8 -26.9 Q79.35 -27.4 79.1 -28.05 L79.15 -28.15 79.25 -28.25 79.3 -28.5 79.45 -28.9 79.5 -29.1 79.6 -29.3 79.85 -29.5 80.1 -29.75 80.2 -29.85 80.35 -29.9 80.5 -29.95 80.75 -30.15 80.9 -30.25 81.0 -30.3 81.45 -30.4 81.9 -30.55 82.1 -30.6 82.2 -30.6 82.35 -30.75 82.45 -30.85 82.55 -31.0 82.75 -31.0 82.85 -31.05 83.0 -31.15 83.1 -31.3 83.3 -31.35 83.4 -31.4 83.85 -31.55 84.2 -31.7 84.35 -31.85 84.45 -32.05 84.15 -33.0 84.2 -33.25 84.3 -33.5 84.4 -33.65 84.65 -33.85 84.9 -34.15 85.0 -34.2 85.5 -34.3 85.55 -34.4 88.55 -34.25 88.55 -34.2 88.5 -34.15 88.35 -34.0 88.0 -33.7 87.7 -33.3 87.6 -33.3 87.45 -33.3 87.3 -33.2 87.15 -33.25 86.75 -33.4 86.4 -33.55 86.25 -33.5 85.95 -33.4 85.7 -33.3 85.4 -33.15 85.3 -32.95 85.4 -32.85 85.55 -32.6 85.65 -32.2 85.7 -31.9 85.6 -31.7 85.5 -31.5 85.4 -31.35 85.25 -31.15 85.15 -31.1 84.85 -30.8 84.75 -30.8 84.55 -30.75 84.3 -30.7 84.2 -30.6 84.0 -30.55 83.9 -30.45 83.75 -30.3 83.65 -30.2 Q82.55 -30.0 81.65 -29.4 L81.55 -29.35 81.4 -29.35 81.25 -29.2 81.2 -29.15 81.15 -29.05 81.0 -29.05 80.85 -29.0 80.7 -28.95 80.6 -28.75 80.5 -28.6 80.45 -28.5 80.35 -28.3 80.35 -28.25 80.45 -28.3 80.45 -28.2 80.3 -28.05 80.1 -27.7 80.0 -27.3 79.9 -26.6 79.6 -25.1 79.5 -25.05 79.45 -25.05 79.45 -24.9 79.45 -24.5 79.25 -24.1 79.2 -23.95 79.05 -23.8 78.95 -23.6 78.8 -23.5 78.65 -23.45 78.55 -23.3 78.75 -22.95 79.05 -22.0 79.35 -22.0 79.9 -21.75 80.45 -22.45 80.9 -22.8 Q83.25 -23.2 84.0 -25.05 L84.35 -25.45 84.4 -25.45 84.6 -25.55 85.15 -25.75 85.55 -25.75 85.7 -25.75 86.05 -25.85 86.2 -25.95 86.9 -26.15 87.25 -26.2 87.3 -27.2 87.35 -27.4 87.7 -27.75 88.2 -28.2 88.95 -28.45 89.55 -28.55 90.05 -27.25 89.75 -27.55 89.5 -27.5 88.9 -27.35 88.75 -27.3 88.6 -27.25 88.55 -27.1 88.4 -27.0 88.4 -25.95 88.5 -25.9 89.0 -25.6 89.15 -25.15 89.05 -24.75 88.95 -24.55 88.95 -24.5 89.35 -24.35 90.85 -23.0 91.1 -22.95 91.5 -23.15 91.9 -23.3 92.3 -23.25 92.65 -22.9 93.45 -21.35 93.5 -21.0 93.45 -20.7 93.35 -20.35 92.9 -19.95 92.7 -19.95 92.4 -19.85 91.9 -19.85 91.75 -19.8 92.8 -18.35 92.95 -18.25 93.1 -18.15 93.25 -18.15 93.4 -18.2 93.8 -18.7 94.75 -18.1 94.5 -17.85 93.95 -17.3 93.8 -17.2 93.55 -17.15 93.2 -17.05 92.95 -16.95 92.75 -17.05 92.6 -17.2 92.45 -17.45 92.25 -17.5 92.05 -17.6 91.85 -17.7 91.3 -18.75 90.7 -19.5 90.55 -19.45 90.05 -19.45 Q89.85 -19.45 89.7 -19.6 L89.4 -19.7 89.0 -19.9 Q88.85 -20.0 88.85 -20.3 L88.6 -21.2 88.4 -21.45 Q87.9 -22.1 87.05 -21.75 L86.6 -21.65 Q86.35 -21.7 86.2 -21.85 L86.1 -21.9 86.1 -22.0 85.95 -22.05 86.1 -22.25 85.55 -22.05 85.85 -22.0 85.6 -21.7 85.3 -21.45 85.0 -21.35 84.95 -21.35 84.15 -21.05 83.95 -20.9 83.6 -20.65 Q82.2 -20.3 81.65 -19.4 L81.6 -19.3 81.55 -19.35 Q81.25 -18.8 81.2 -18.05 L81.0 -17.65 80.7 -17.35 80.55 -17.35 82.15 -15.55 82.3 -15.4 82.5 -15.4 82.65 -15.25 82.85 -15.2 83.15 -15.25 83.6 -15.4 83.85 -15.45 84.0 -15.45 84.35 -15.45 84.55 -15.4 85.0 -15.15 85.65 -13.3 85.6 -13.35 85.45 -13.4 85.25 -13.5 85.1 -13.6 85.0 -13.65 84.9 -13.8 84.75 -14.05 84.5 -14.2 84.15 -14.45 83.5 -14.35 82.95 -14.15 82.8 -14.15 82.6 -14.2 82.4 -14.3 82.25 -14.45 82.05 -14.45 81.9 -14.45 81.7 -14.55 81.55 -14.7 79.8 -16.65 79.6 -16.7 79.45 -16.8 77.85 -16.05 77.55 -15.95 77.2 -16.05 Q76.3 -16.4 75.9 -15.6 L75.6 -15.3 75.15 -14.6 75.05 -14.4 74.75 -14.15 74.55 -14.1 74.5 -14.05 74.35 -13.95 73.8 -13.95 Q72.2 -14.5 71.25 -13.05 L70.8 -12.7 70.7 -12.7 70.55 -12.65 70.4 -12.65 70.25 -12.65 70.05 -12.2 69.55 -11.85 69.3 -11.85 69.0 -11.75 68.7 -11.7 68.35 -11.7 67.9 -11.45 67.75 -11.4 67.45 -11.5 67.4 -11.55 67.2 -11.2 Q66.7 -10.2 66.5 -9.0 L66.25 -8.45 66.0 -8.25 65.85 -8.1 65.55 -8.0 65.2 -7.85 64.85 -7.8 64.6 -7.85 64.6 -7.8 64.35 -7.6 64.15 -7.4 63.75 -7.25 63.75 -6.65 63.75 -6.15 63.7 -6.0 63.5 -5.75 63.2 -5.45 63.2 -5.4 63.1 -4.95 63.1 -4.85 63.3 -4.65 63.65 -4.3 64.2 -2.85 64.5 -2.6 64.95 -2.2 65.05 -2.15 65.45 -2.15 65.75 -2.1 65.9 -2.2 66.0 -2.2 66.2 -2.1 66.4 -2.05 66.5 -2.1 66.65 -2.2 66.8 -2.2 66.95 -2.15 67.35 -2.05 67.5 -1.95 67.7 -1.8 67.9 -1.65 68.15 -1.6 68.45 -1.4 68.7 -1.35 68.85 -1.25 69.05 -1.2 69.15 -1.15 69.3 -1.1 69.45 -1.2 69.6 -1.25 70.0 -1.5 70.5 -1.85 70.65 -1.95 70.7 -2.1 70.85 -2.3 71.1 -2.5 71.55 -2.75 71.65 -2.85 72.2 -3.05 72.95 -3.25 73.1 -3.3 74.9 -3.15 76.55 -2.7 76.65 -2.6 76.75 -2.45 77.1 -2.2 77.25 -2.25 77.3 -2.35 77.45 -2.5 77.6 -2.6 77.7 -2.6 77.95 -2.65 78.0 -2.75 78.1 -2.9 78.35 -3.2 78.5 -3.2 78.65 -3.3 78.75 -3.4 78.9 -3.4 79.05 -3.45 79.2 -3.6 79.35 -3.75 79.9 -3.85 80.6 -4.1 80.75 -4.15 80.9 -4.25 81.05 -4.35 81.15 -4.45 81.25 -4.55 81.4 -4.7 81.45 -4.85 82.6 -5.9 83.7 -6.9 84.45 -7.15 85.35 -7.4 85.45 -7.45 85.6 -7.45 85.8 -7.45 85.95 -7.45 86.1 -7.45 86.4 -7.5 86.85 -7.65 87.1 -7.75 87.4 -7.95 87.75 -8.3 87.9 -8.35 88.9 -8.7 90.1 -9.05 92.85 -9.05 92.8 -8.85 92.75 -8.65 91.9 -8.3 90.9 -8.0 90.75 -8.0 90.55 -8.0 90.4 -8.05 90.25 -8.0 90.1 -8.05 89.55 -7.85 88.65 -7.6 88.5 -7.5 88.3 -7.25 88.05 -7.05 87.9 -6.95 87.15 -6.7 86.3 -6.45 86.15 -6.4 86.0 -6.4 85.85 -6.45 85.7 -6.45 85.55 -6.45 85.1 -6.3 84.5 -6.1 84.2 -6.05 83.35 -5.2 82.45 -4.4 82.35 -4.25 82.3 -4.0 82.2 -3.85 81.95 -3.65 81.75 -3.55 81.45 -3.4 Q79.6 -3.3 78.25 -1.75 L77.1 -1.2 76.95 -1.1 76.7 -1.05 76.55 -1.1 76.3 -1.25 76.15 -1.3 75.9 -1.55 75.75 -1.8 75.05 -2.05 Q73.85 -3.2 73.2 -2.25 L73.05 -2.25 72.75 -2.2 72.5 -2.1 72.2 -1.95 71.95 -1.8 71.65 -1.65 71.55 -1.55 71.45 -1.35 71.35 -1.2 70.95 -0.95 70.5 -0.45 70.35 -0.4 71.4 2.8 Q71.1 3.3 71.5 4.0 71.6 4.4 72.0 4.35 L72.35 4.35 72.4 4.4 72.6 4.45 73.25 4.65 73.8 4.8 73.95 4.75 74.1 4.7 74.25 4.75 74.4 4.75 74.55 4.75 74.7 4.7 74.85 4.65 74.95 4.65 75.2 4.65 75.35 4.7 75.65 4.9 76.1 5.1 76.2 5.1 76.45 5.2 76.6 5.3 77.9 7.5 78.15 7.6 79.35 8.55 79.75 8.75 79.9 8.75 80.05 8.8 80.25 8.9 80.4 9.1 80.4 9.2 77.55 8.5 76.85 7.7 76.7 7.45 75.8 6.05 75.65 5.95 75.25 5.75 75.05 5.7 74.9 5.75 74.75 5.75 74.65 5.8 74.5 5.8 74.3 5.8 74.1 5.8 73.95 5.8 73.8 5.8 73.7 5.85 73.55 5.9 73.4 5.9 73.0 5.75 72.5 5.6 72.35 5.5 71.9 5.25 71.75 5.2 71.5 4.95 70.7 4.15 70.4 3.15 Q70.65 2.1 69.6 0.65 L69.4 -0.1 69.0 0.0 68.85 0.0 68.7 -0.15 68.55 -0.15 68.2 -0.4 67.95 -0.55 67.75 -0.55 Q66.15 -1.95 64.85 -1.2 L64.75 -1.2 63.9 -1.75 63.3 -2.3 62.75 -3.7 62.5 -4.0 62.25 -4.1 62.1 -4.15 61.95 -4.1 61.8 -4.1 60.35 -3.4 59.9 -3.3 59.8 -3.3 59.75 -3.4 58.8 -3.5 58.75 -3.45 58.25 -3.55 57.95 -3.4 57.7 -3.4 57.4 -3.4 57.3 -3.4 56.5 -3.45 56.4 -3.45 56.1 -3.5 55.75 -3.6 55.1 -4.1 54.95 -4.15 54.35 -4.7 53.6 -5.0 53.55 -5.05 48.6 -7.4 48.65 -7.1 48.6 -6.75 48.6 -6.65 48.4 -6.35 48.05 -6.15 Q46.7 -5.8 45.85 -4.7 L45.45 -4.4 45.15 -4.35 44.95 -4.3 44.65 -4.3 44.6 -4.35 Q44.5 -4.3 44.5 -4.4 L44.4 -4.3 44.15 -4.3 43.8 -4.25 Q43.7 -4.3 43.55 -4.4 L43.3 -4.5 42.45 -4.55 42.15 -4.65 41.75 -4.8 41.75 -4.75 41.3 -5.05 40.75 -4.9 40.4 -4.85 40.2 -4.85 39.95 -4.75 39.65 -4.8 Q38.75 -4.85 37.95 -3.95 L37.65 -3.65 37.2 -3.65 36.8 -3.8 34.85 -5.65 34.65 -5.8 34.35 -5.8 Q34.1 -5.8 33.95 -5.95 L33.55 -6.2 Q31.55 -5.5 30.45 -4.2 L30.15 -4.0 26.05 -2.7 26.0 -2.35 25.8 -1.95 25.55 -1.75 25.5 -1.75 25.35 -1.65 25.25 -1.6 25.1 -1.5 24.95 -1.35 24.45 -1.25 24.0 -0.9 23.8 -0.85 21.9 0.0 21.9 0.25 21.95 0.55 21.85 0.95 21.6 1.4 21.35 1.65 21.1 1.75 20.85 1.9 21.7 3.0 21.8 3.0 22.1 3.05 22.6 3.3 22.7 3.4 22.75 3.95 22.6 4.1 22.55 4.25 22.55 4.3 22.55 4.65 22.6 4.85 22.75 4.85 22.9 4.85 23.15 4.95 23.3 5.1 23.55 5.35 23.7 5.35 23.85 5.4 24.05 5.5 24.2 5.7 24.2 5.9 24.4 5.95 24.5 6.05 24.55 6.2 24.7 6.6 24.65 6.9 24.6 7.15 24.0 8.1 23.5 8.7 23.45 8.75 23.85 9.65 23.95 9.65 24.3 9.65 24.7 9.8 24.8 9.85 24.95 10.05 24.9 10.6 24.9 10.75 24.9 11.0 24.95 11.1 25.05 11.25 25.1 11.4 25.1 11.7 25.05 11.95 25.2 12.0 25.45 12.05 26.0 12.25 26.15 12.3 26.35 12.5 26.6 12.5 27.1 12.55 27.9 12.75 28.05 12.85 28.75 13.3 29.05 13.65 29.35 13.85 31.3 15.45 31.45 15.45 31.65 15.45 31.8 15.6 32.2 15.8 32.5 15.95 32.55 16.0 32.8 16.25 32.9 16.35 32.95 16.55 30.3 15.9 28.25 14.35 28.15 14.2 28.0 14.05 27.65 13.75 27.45 13.75 27.3 13.75 27.2 13.65 27.0 13.6 26.8 13.6 26.7 13.55 26.55 13.6 26.35 13.65 26.2 13.6 26.0 13.5 25.8 13.4 25.6 13.15 25.45 13.1 24.8 13.05 23.95 12.95 23.9 12.85 23.85 12.65 23.7 12.45 23.8 12.2 23.85 12.0 23.95 11.75 23.9 11.6 23.6 10.85 23.4 10.8 23.2 10.75 23.05 10.65 22.85 10.6 22.7 10.35 22.65 10.3 22.3 8.95 22.35 8.7 22.55 8.3 22.6 8.1 22.7 7.95 22.95 7.7 23.35 7.4 23.4 7.2 23.55 7.0 23.55 6.9 23.5 6.7 23.45 6.55 23.4 6.45 23.25 6.45 23.05 6.35 22.85 6.3 22.75 6.1 22.55 5.9 22.35 5.85 22.2 5.8 22.05 5.8 21.9 5.75 21.55 5.55 21.5 5.5 21.35 4.85 21.45 4.25 21.35 4.0 21.15 3.9 20.95 3.75 20.75 3.7 19.85 2.5 19.45 2.65 18.85 2.75 18.75 2.75 18.6 2.7 18.55 2.75 17.9 2.65 17.65 2.55 17.05 2.25 17.0 2.2 16.75 2.1 16.5 1.8 16.4 1.55 16.25 1.45 14.85 0.1 13.45 0.15 13.15 0.15 12.85 0.0 12.65 -0.05 12.65 0.0 12.3 -0.1 12.1 -0.2 9.2 -1.55 8.15 -1.5 7.9 -1.25 7.65 -1.2 7.0 -0.95 5.8 -0.1 Q5.55 0.1 5.3 0.1 L4.95 0.1 4.9 0.05 4.0 0.1 3.8 0.15 3.6 0.25 Q2.4 0.95 3.0 3.65 L3.0 3.95 0.65 4.45 Q-0.65 4.65 -1.65 5.1 L-1.95 4.7 -2.65 2.8 -2.65 2.35 -2.45 2.05 -2.15 1.8 -1.15 1.5 -0.85 1.45 -0.7 1.45 -0.65 1.45 -0.45 1.45 -0.1 1.35 0.15 1.35 0.15 0.55 Q1.1 -0.85 0.95 -2.8 L1.25 -3.0 3.15 -3.5 M18.75 -0.95 L18.7 -0.9 18.9 -1.0 19.6 -0.8 19.15 -1.2 19.15 -1.3 19.0 -1.5 18.75 -0.95 18.75 -1.0 18.7 -0.95 18.75 -0.95 M27.7 -6.1 L27.95 -6.15 27.8 -6.15 27.7 -6.1 M70.25 -15.9 L70.85 -16.0 70.35 -16.3 70.25 -15.9" fill="#ffffff" fill-rule="evenodd" stroke="none"/>
      <path d="M155.9 -39.9 L155.9 -39.6 155.8 -40.05 155.9 -39.9 M140.5 -44.25 L140.5 -44.2 140.4 -44.1 140.5 -44.25" fill="#000000" fill-rule="evenodd" stroke="none"/>
    </g>
  </defs>
</svg>
