<?xml version="1.0" encoding="UTF-8" standalone="no"?>
<svg xmlns:ffdec="https://www.free-decompiler.com/flash" xmlns:xlink="http://www.w3.org/1999/xlink" ffdec:objectType="frame" height="290.55px" width="212.45px" xmlns="http://www.w3.org/2000/svg">
  <g transform="matrix(1.0, 0.0, 0.0, 1.0, -299.25, -46.85)">
    <use ffdec:characterId="16" height="71.1" transform="matrix(-0.5138, 1.5723, -1.5723, -0.5138, 490.2829, 88.0902)" width="154.2" xlink:href="#shape0"/>
  </g>
  <defs>
    <g id="shape0" transform="matrix(1.0, 0.0, 0.0, 1.0, -1.7, 50.25)">
      <path d="M8.25 -4.1 L8.5 -4.15 8.25 -3.65 8.15 -3.05 7.8 -2.7 8.0 -2.6 7.95 -2.4 7.9 -2.3 8.15 -1.5 8.5 -1.1 8.95 0.25 9.05 0.65 Q5.25 1.35 1.9 2.5 L1.8 2.4 1.75 2.45 1.7 1.95 1.75 1.5 1.8 1.05 2.25 0.35 Q6.2 0.95 6.0 -5.75 L6.15 -7.75 Q10.15 -6.0 13.95 -9.2 16.1 -8.55 16.8 -10.15 L20.8 -10.3 21.1 -10.15 26.25 -9.9 26.25 -10.1 25.85 -10.5 26.3 -10.4 26.85 -10.3 27.5 -11.1 Q31.3 -12.35 33.15 -16.7 L33.5 -17.0 34.15 -17.3 35.4 -17.45 35.95 -17.35 36.45 -17.05 35.95 -16.7 36.0 -16.7 Q39.4 -15.8 42.05 -16.6 L42.8 -16.35 Q42.85 -16.05 43.05 -15.8 43.15 -15.6 43.55 -15.45 L46.9 -15.3 47.1 -15.3 47.75 -14.9 48.05 -14.7 48.75 -15.25 49.2 -15.4 49.7 -15.6 50.3 -15.8 50.65 -15.4 Q56.5 -17.05 58.65 -20.95 L60.6 -21.75 61.55 -18.55 Q62.55 -17.7 64.15 -17.4 L65.85 -17.35 65.7 -17.25 Q65.85 -17.05 66.15 -17.05 L73.95 -17.8 75.25 -17.9 Q76.55 -17.9 77.8 -18.65 76.45 -22.05 78.1 -24.3 82.35 -27.1 84.0 -31.5 87.3 -32.1 89.8 -34.05 91.55 -34.15 92.35 -35.25 L92.6 -35.2 92.9 -35.2 93.15 -35.15 93.65 -34.4 93.7 -34.4 Q94.0 -33.85 94.4 -33.6 L94.25 -33.55 94.6 -33.25 98.6 -31.65 Q98.5 -30.6 98.65 -29.6 99.45 -28.9 100.65 -28.4 L101.75 -28.2 Q103.2 -27.0 104.85 -26.45 106.3 -25.45 108.1 -25.85 L108.15 -26.05 108.85 -26.25 Q112.15 -26.15 115.3 -27.05 117.25 -26.15 118.85 -26.65 L118.85 -26.6 118.9 -26.65 118.9 -26.6 Q119.8 -26.05 120.25 -26.25 L120.65 -26.2 121.2 -25.65 120.95 -25.3 121.15 -25.1 122.55 -24.95 Q124.65 -24.35 125.2 -26.75 L124.65 -27.4 124.7 -27.4 124.9 -27.6 125.05 -27.95 125.2 -28.35 Q128.2 -32.1 129.8 -36.95 L130.2 -37.35 130.2 -38.2 130.3 -38.8 130.25 -38.8 Q132.55 -40.5 133.2 -43.5 134.55 -44.5 135.2 -45.75 L138.05 -47.2 Q140.3 -46.4 141.85 -48.6 L141.75 -48.8 140.75 -49.2 Q141.6 -49.65 142.4 -50.25 L142.55 -50.1 Q144.15 -47.1 147.0 -46.6 L147.5 -45.5 147.25 -45.15 147.4 -45.05 Q149.0 -45.05 150.3 -45.55 L150.9 -43.0 Q148.45 -42.75 146.25 -41.95 145.85 -43.45 143.9 -44.85 L143.65 -44.85 142.8 -44.9 Q142.65 -45.0 142.55 -45.05 L142.3 -45.15 142.05 -45.15 141.75 -45.2 141.45 -45.35 141.15 -45.45 140.9 -45.45 140.7 -45.15 140.65 -45.15 Q137.5 -44.9 136.65 -42.85 L136.55 -43.9 136.4 -43.8 Q133.95 -40.75 132.55 -37.3 128.95 -33.05 127.7 -27.35 L127.45 -27.0 127.7 -26.9 127.3 -26.6 Q127.1 -25.7 127.65 -24.6 124.9 -23.85 122.6 -22.55 L122.5 -22.55 122.2 -22.55 121.6 -22.75 120.7 -23.25 120.4 -23.4 119.95 -23.25 Q118.6 -24.25 117.4 -24.3 L117.8 -24.5 117.5 -24.7 Q111.75 -24.9 106.85 -23.25 L102.65 -24.45 Q100.95 -27.2 98.35 -27.1 L97.8 -27.45 97.3 -27.85 Q96.25 -30.75 92.45 -31.7 L92.3 -31.4 92.15 -31.0 92.1 -31.0 91.65 -31.8 91.35 -31.85 Q89.1 -32.2 88.3 -30.95 L88.0 -31.15 87.8 -31.1 Q86.9 -30.6 86.45 -29.8 84.15 -28.25 83.5 -25.65 L83.2 -25.35 82.6 -24.7 81.95 -23.8 Q79.35 -22.7 80.2 -19.0 L80.25 -19.0 80.85 -17.35 Q75.6 -16.85 71.15 -15.45 L68.15 -15.05 68.0 -15.1 Q63.9 -16.2 61.05 -15.0 L60.9 -15.45 Q60.85 -16.65 59.4 -18.25 L59.25 -18.2 58.75 -17.2 58.6 -17.15 58.35 -17.05 56.45 -15.2 55.4 -14.3 Q52.55 -15.05 50.45 -13.45 48.9 -13.1 47.8 -12.1 L46.3 -11.6 Q44.05 -14.3 40.9 -13.75 L38.6 -13.8 Q37.15 -15.3 35.6 -13.95 35.0 -15.7 33.8 -13.25 32.85 -12.7 31.8 -11.15 L30.7 -10.2 Q30.0 -10.1 29.35 -9.45 L27.35 -9.0 24.15 -8.15 Q20.35 -9.9 18.05 -8.5 L18.0 -8.5 17.7 -8.65 16.85 -7.5 Q12.55 -7.75 8.25 -4.1 M8.65 -4.2 L9.65 -4.4 9.4 -4.25 8.65 -4.2 M29.9 -18.75 L29.6 -18.6 29.8 -18.85 29.9 -18.75 M22.2 -11.0 L22.15 -10.85 21.7 -10.8 22.2 -11.0 M82.2 -44.5 L82.2 -44.25 82.0 -44.05 82.2 -44.5 M119.75 -13.5 L119.6 -13.5 119.8 -13.7 119.9 -13.75 119.75 -13.5 M130.2 4.4 L130.55 4.2 130.7 4.3 129.95 4.45 130.2 4.4 M130.15 -38.8 L130.0 -38.6 129.95 -38.65 130.15 -38.8 M155.9 -39.6 L155.8 -40.05 155.9 -39.9 155.9 -39.6 M113.2 -9.65 L113.1 -9.7 113.4 -9.75 113.2 -9.65 M107.15 -10.2 L107.1 -10.2 107.05 -10.25 107.15 -10.2 M105.4 -11.3 L105.35 -11.35 105.4 -11.4 105.4 -11.3 M58.45 20.8 L58.45 20.85 58.15 20.8 58.45 20.8" fill="#fff3f0" fill-rule="evenodd" stroke="none"/>
    </g>
  </defs>
</svg>
