<?xml version="1.0" encoding="UTF-8" standalone="no"?>
<svg xmlns:ffdec="https://www.free-decompiler.com/flash" xmlns:xlink="http://www.w3.org/1999/xlink" ffdec:objectType="frame" height="290.55px" width="212.45px" xmlns="http://www.w3.org/2000/svg">
  <g transform="matrix(1.0, 0.0, 0.0, 1.0, -299.25, -46.85)">
    <use ffdec:characterId="17" height="67.95" transform="matrix(-0.5138, 1.5723, -1.5723, -0.5138, 485.356, 86.3932)" width="147.35" xlink:href="#shape0"/>
  </g>
  <defs>
    <g id="shape0" transform="matrix(1.0, 0.0, 0.0, 1.0, -1.65, 47.1)">
      <path d="M1.75 2.15 L1.65 2.1 1.65 2.05 1.75 2.05 3.45 1.35 5.05 0.8 5.3 0.8 5.55 0.85 5.85 0.85 Q6.45 0.6 6.5 -0.8 5.5 -2.5 6.25 -4.3 L7.7 -5.95 Q8.15 -6.4 8.85 -6.5 L9.05 -6.5 9.05 -6.35 8.95 -6.2 Q8.1 -5.9 7.45 -5.2 L6.6 -4.1 6.35 -3.35 6.25 -3.0 6.95 -0.85 6.45 1.15 6.45 1.35 5.85 1.3 5.55 1.25 Q5.35 1.1 5.05 1.1 L3.2 1.65 Q2.45 1.8 2.3 2.35 L2.25 2.45 2.25 2.4 1.85 2.25 1.75 2.15 M16.4 -9.5 L16.6 -9.6 17.1 -9.75 17.3 -9.8 17.55 -9.8 18.1 -9.8 18.35 -9.85 18.8 -9.95 19.3 -9.9 19.6 -9.95 20.05 -10.1 20.55 -10.3 20.55 -10.45 20.7 -10.5 20.95 -10.4 22.1 -10.75 22.3 -10.7 Q21.9 -10.35 21.3 -10.15 L21.4 -10.1 22.05 -9.6 22.75 -9.1 23.5 -9.25 23.95 -9.4 24.4 -9.6 24.6 -9.65 24.8 -9.5 25.25 -8.85 26.05 -9.55 26.85 -10.15 27.4 -10.65 27.65 -10.7 27.9 -10.8 28.1 -10.85 28.35 -10.85 28.2 -10.6 28.0 -10.5 27.8 -10.4 27.55 -10.35 26.9 -9.9 26.35 -9.4 Q26.0 -9.2 25.8 -8.8 L25.55 -8.7 25.35 -8.55 25.1 -8.5 24.95 -8.5 24.8 -8.6 24.45 -9.25 23.75 -9.05 23.3 -8.85 22.85 -8.7 21.5 -9.65 20.9 -10.0 19.45 -9.55 19.2 -9.55 18.9 -9.6 18.7 -9.65 18.45 -9.55 18.2 -9.45 17.95 -9.45 17.7 -9.45 17.4 -9.55 17.2 -9.4 16.7 -9.25 16.5 -9.2 16.3 -9.05 16.15 -8.75 15.95 -8.65 15.7 -8.6 15.5 -8.55 15.1 -8.1 14.75 -7.6 14.05 -7.35 13.4 -7.1 13.2 -7.05 12.65 -7.0 12.2 -6.8 12.1 -6.85 12.15 -7.2 12.3 -7.4 12.5 -7.45 13.0 -7.45 13.3 -7.4 13.5 -7.45 13.95 -7.65 14.2 -7.75 14.35 -7.85 14.6 -8.15 14.75 -8.3 15.15 -8.7 15.35 -8.85 15.6 -8.9 15.8 -9.0 16.0 -9.2 16.05 -9.25 16.15 -9.4 16.4 -9.5 M33.75 -16.0 L34.15 -16.3 34.3 -16.3 34.45 -16.25 34.75 -15.85 35.15 -16.2 35.6 -16.45 36.45 -16.4 36.9 -16.25 37.05 -16.25 37.2 -16.2 37.5 -15.8 37.75 -15.85 38.0 -15.8 38.6 -15.6 38.85 -15.55 39.0 -15.6 39.15 -15.55 39.4 -15.25 39.6 -15.45 39.8 -15.55 40.35 -15.55 40.8 -15.6 41.7 -15.2 41.9 -15.1 41.55 -14.85 41.35 -14.75 41.2 -14.75 41.05 -14.85 40.75 -15.25 40.5 -15.2 40.3 -15.15 40.0 -15.25 39.8 -15.15 39.55 -14.95 39.4 -14.75 Q39.1 -15.0 38.75 -15.2 L38.45 -15.3 38.15 -15.3 37.95 -15.25 37.6 -15.4 37.4 -15.4 37.25 -15.4 37.1 -15.5 36.8 -15.85 36.6 -15.8 36.4 -15.75 35.95 -16.15 35.75 -16.15 35.4 -15.9 34.95 -15.55 34.55 -15.55 34.05 -15.85 Q33.45 -15.4 33.2 -14.65 L32.75 -13.8 32.5 -14.3 32.45 -14.6 32.2 -14.1 32.0 -13.8 32.0 -13.2 31.7 -12.75 31.55 -12.3 30.6 -11.45 Q30.2 -11.05 29.8 -11.3 L29.75 -11.3 30.55 -12.0 31.15 -12.5 32.25 -14.75 32.55 -15.05 Q32.8 -15.1 32.95 -15.25 L33.35 -15.7 33.75 -16.0 M29.9 -18.75 L29.6 -18.6 29.8 -18.85 29.9 -18.75 M22.15 -10.85 L21.7 -10.8 22.2 -11.0 22.15 -10.85 M57.55 -19.35 L57.35 -19.3 56.45 -18.25 56.3 -17.95 55.8 -17.0 55.5 -16.65 55.1 -16.15 54.85 -16.1 54.65 -16.0 54.4 -15.95 54.2 -15.8 53.8 -15.45 53.6 -15.3 52.9 -15.05 52.0 -14.75 51.75 -14.75 51.25 -14.75 51.0 -14.75 50.35 -14.45 49.6 -14.15 49.6 -14.2 49.7 -14.55 50.15 -14.8 50.8 -15.05 51.0 -15.1 51.3 -15.1 51.8 -15.1 52.05 -15.15 52.5 -15.3 53.0 -15.45 53.2 -15.5 53.4 -15.7 53.8 -15.95 54.0 -16.15 54.25 -16.2 54.45 -16.3 54.7 -16.4 55.05 -16.75 55.6 -17.35 55.85 -17.8 56.05 -18.3 56.4 -18.9 56.6 -19.1 56.95 -19.5 57.4 -19.6 57.85 -19.8 57.9 -19.85 58.1 -19.85 58.3 -19.95 58.8 -19.85 59.0 -19.85 59.15 -19.75 59.8 -19.15 60.25 -19.15 61.05 -19.25 61.3 -19.4 61.4 -19.5 62.1 -19.95 Q63.0 -19.0 63.2 -17.65 L63.2 -16.25 Q62.7 -16.95 62.75 -17.8 L62.75 -18.05 62.1 -19.6 61.95 -19.45 61.7 -19.25 61.55 -19.05 61.4 -19.0 61.3 -18.95 61.05 -18.9 60.85 -18.85 60.65 -18.8 60.05 -18.85 59.8 -18.8 58.75 -19.4 58.55 -19.55 58.05 -19.45 57.55 -19.35 M80.15 -23.65 L80.05 -23.1 79.9 -22.9 79.7 -22.65 79.65 -22.15 79.6 -21.6 80.05 -20.3 80.2 -19.15 80.05 -18.4 79.85 -18.4 79.3 -18.45 79.05 -18.4 78.9 -18.4 78.4 -18.75 78.2 -18.75 77.95 -18.7 77.7 -18.6 77.4 -18.75 77.15 -18.75 74.45 -17.75 74.0 -17.6 71.4 -16.95 71.45 -17.3 71.6 -17.35 72.7 -17.55 74.65 -18.15 77.1 -19.1 77.65 -19.1 78.4 -19.1 78.65 -19.0 79.0 -18.75 79.25 -18.8 79.5 -18.85 79.1 -21.35 79.4 -22.2 79.5 -23.0 Q80.05 -23.55 79.9 -24.3 L80.0 -24.5 80.6 -25.05 81.45 -25.6 81.85 -25.75 82.35 -25.9 82.55 -26.0 82.75 -26.15 83.0 -26.3 84.3 -29.0 84.75 -30.1 Q84.85 -28.55 83.9 -27.1 L83.35 -26.2 83.2 -26.0 82.95 -25.8 82.5 -25.65 82.1 -25.45 81.85 -25.4 81.65 -25.25 81.25 -24.95 81.0 -24.8 80.8 -24.7 80.6 -24.6 80.4 -24.4 80.15 -23.65 M101.7 -28.05 L101.8 -27.6 101.9 -27.3 102.15 -27.3 102.75 -27.15 103.05 -26.95 103.5 -26.35 103.85 -26.15 105.1 -26.2 105.2 -26.25 106.6 -26.25 107.05 -26.4 107.55 -26.55 107.75 -26.65 Q108.15 -26.3 107.45 -26.2 L106.85 -25.9 106.45 -25.8 105.4 -25.6 103.85 -25.65 102.9 -26.3 102.5 -26.75 102.0 -26.85 101.4 -27.0 101.25 -27.3 101.1 -27.95 100.8 -28.1 100.6 -28.2 100.45 -28.35 100.2 -28.6 100.15 -28.65 99.9 -28.75 99.75 -28.85 99.7 -28.9 98.55 -30.75 98.2 -31.3 98.0 -31.25 97.5 -31.1 97.3 -31.0 96.9 -30.7 96.45 -30.5 96.25 -30.45 Q96.0 -30.5 95.9 -30.65 L94.6 -33.1 94.05 -32.5 93.75 -31.85 93.5 -31.8 93.3 -31.7 93.05 -31.65 92.8 -31.65 92.65 -31.65 92.55 -31.65 92.55 -31.7 91.1 -33.65 90.9 -33.55 90.65 -33.45 90.4 -33.4 89.85 -32.95 89.7 -32.85 89.1 -32.25 89.05 -32.25 88.85 -32.15 88.85 -32.05 88.6 -31.75 88.55 -31.8 88.4 -31.85 88.35 -32.25 88.55 -32.4 88.75 -32.5 89.0 -32.55 89.4 -32.95 89.95 -33.55 90.4 -33.7 90.85 -33.85 91.1 -33.95 91.3 -33.9 91.7 -33.65 Q92.05 -32.1 93.1 -32.0 L93.5 -32.25 93.85 -32.8 94.05 -33.05 94.4 -33.4 94.45 -33.4 94.65 -33.5 94.85 -33.15 96.35 -30.8 96.8 -31.1 97.15 -31.4 97.4 -31.55 97.85 -31.7 98.15 -31.8 98.3 -31.8 98.55 -31.85 100.15 -29.1 100.4 -29.2 100.6 -29.2 101.15 -28.55 101.6 -28.2 101.7 -28.05 M118.15 -24.95 L118.7 -24.9 118.95 -24.8 119.65 -24.3 120.0 -24.25 120.4 -24.35 120.65 -24.3 121.25 -24.05 121.5 -23.85 122.05 -23.25 122.75 -23.45 123.7 -23.8 124.6 -24.1 124.8 -24.2 125.05 -24.2 125.6 -24.1 126.3 -24.35 126.75 -24.5 127.45 -24.75 127.5 -24.9 127.55 -25.05 127.8 -25.95 127.75 -26.35 127.45 -26.75 127.3 -26.6 127.4 -26.85 127.35 -26.95 127.1 -27.15 126.45 -29.35 126.6 -29.7 126.85 -30.3 127.05 -30.6 127.7 -31.05 128.5 -31.7 129.2 -32.5 129.45 -32.55 129.5 -32.6 129.65 -32.6 129.9 -32.8 130.25 -33.05 130.45 -33.15 130.95 -33.3 131.05 -33.3 130.85 -32.95 130.6 -32.8 Q129.9 -32.5 129.45 -31.95 L129.05 -31.55 128.0 -30.7 127.6 -30.5 127.4 -30.25 127.1 -29.7 127.0 -29.5 127.75 -27.45 128.2 -26.5 128.2 -26.0 127.95 -25.25 127.7 -24.5 127.0 -24.25 126.3 -24.0 125.6 -23.8 125.4 -23.75 125.2 -23.8 124.9 -23.85 124.15 -23.6 123.5 -23.4 122.6 -23.1 122.35 -22.9 122.05 -22.6 122.0 -22.55 121.8 -22.3 121.65 -22.05 121.5 -22.15 121.6 -22.7 121.6 -22.8 121.35 -23.3 120.75 -23.95 120.5 -23.95 120.0 -23.85 Q119.85 -23.85 119.75 -23.95 L119.0 -24.45 118.45 -24.55 117.9 -24.6 117.4 -24.8 117.35 -25.5 117.4 -25.65 117.5 -25.5 117.9 -24.95 118.15 -24.95 M147.9 -43.65 L148.35 -43.7 148.6 -43.75 148.8 -43.8 149.0 -43.75 148.9 -43.55 148.65 -43.5 Q148.6 -43.4 148.45 -43.4 L148.25 -43.35 147.7 -43.35 147.2 -43.35 146.65 -43.35 146.4 -43.55 146.05 -43.7 145.75 -43.8 145.3 -44.2 145.15 -44.45 144.2 -46.55 143.7 -46.45 143.25 -46.3 143.0 -46.2 142.9 -46.2 142.8 -46.25 142.5 -46.4 142.3 -46.3 141.9 -45.9 141.5 -45.7 141.35 -45.6 140.75 -46.75 140.6 -46.4 140.4 -46.05 Q139.85 -45.7 139.1 -45.5 L137.75 -45.05 136.9 -44.75 136.75 -44.9 136.45 -45.2 136.2 -45.35 135.85 -45.5 135.6 -45.55 135.4 -45.4 134.85 -44.05 134.7 -43.0 134.45 -42.4 134.2 -41.45 133.65 -40.9 132.8 -40.35 132.5 -40.4 132.5 -40.8 132.55 -41.05 132.55 -41.5 132.95 -41.9 133.3 -42.4 133.3 -42.05 133.1 -41.4 132.95 -41.2 132.85 -40.75 132.95 -40.8 133.2 -40.95 133.35 -41.15 133.55 -41.35 Q134.3 -43.0 134.7 -44.85 L134.75 -45.15 135.3 -45.95 135.7 -46.0 136.2 -45.85 137.1 -45.15 138.2 -45.55 139.65 -46.0 140.2 -46.3 140.2 -46.4 140.35 -46.85 140.5 -47.0 140.65 -47.1 141.0 -46.95 141.7 -46.05 142.0 -46.45 142.35 -46.95 142.6 -46.9 142.95 -46.7 143.25 -46.65 143.5 -46.7 143.7 -46.8 143.95 -46.85 144.2 -46.85 Q145.65 -46.45 145.6 -44.5 L146.0 -44.25 146.1 -44.25 146.25 -44.1 146.55 -43.8 147.1 -43.7 147.9 -43.65 M58.45 20.8 L58.45 20.85 58.15 20.8 58.45 20.8" fill="#fff3f0" fill-rule="evenodd" stroke="none"/>
      <path d="M2.25 2.4 L1.9 2.5 1.8 2.4 1.75 2.45 1.75 2.15 1.85 2.25 2.25 2.4 M8.65 -4.2 L9.65 -4.4 9.4 -4.25 8.65 -4.2 M20.05 -10.1 L19.6 -9.95 19.3 -9.9 18.8 -9.95 18.35 -9.85 18.1 -9.8 17.55 -9.8 17.3 -9.8 17.1 -9.75 16.6 -9.6 16.4 -9.5 16.8 -10.15 Q18.5 -9.8 20.05 -10.1" fill="#ff0000" fill-rule="evenodd" stroke="none"/>
    </g>
  </defs>
</svg>
