<?xml version="1.0" encoding="UTF-8" standalone="no"?>
<svg xmlns:ffdec="https://www.free-decompiler.com/flash" xmlns:xlink="http://www.w3.org/1999/xlink" ffdec:objectType="frame" height="290.55px" width="212.45px" xmlns="http://www.w3.org/2000/svg">
  <g transform="matrix(1.0, 0.0, 0.0, 1.0, -299.25, -46.85)">
    <use ffdec:characterId="9" height="84.45" transform="matrix(-0.5138, 1.5723, -1.5723, -0.5138, 511.7094, 93.6128)" width="155.05" xlink:href="#shape0"/>
  </g>
  <defs>
    <g id="shape0" transform="matrix(1.0, 0.0, 0.0, 1.0, -0.85, 63.6)">
      <path d="M19.85 -12.55 L20.45 -12.65 21.0 -12.4 21.65 -12.05 21.8 -12.4 22.45 -12.9 23.15 -13.7 23.4 -13.75 23.6 -13.8 23.8 -13.95 24.0 -14.15 24.15 -14.35 25.3 -14.75 26.5 -15.15 26.7 -15.25 27.4 -16.3 28.1 -17.1 28.55 -17.25 29.25 -17.5 29.5 -17.55 30.05 -18.05 30.85 -18.85 31.0 -19.15 31.3 -19.65 31.45 -19.9 31.65 -20.35 31.8 -20.6 32.2 -20.8 32.9 -21.05 33.1 -21.1 33.65 -20.95 34.45 -20.55 34.85 -20.2 35.4 -19.7 35.65 -19.7 35.85 -19.75 36.35 -19.9 36.5 -20.15 36.7 -20.4 36.8 -20.65 38.2 -21.9 39.5 -23.5 39.9 -24.4 40.4 -25.25 41.25 -25.65 42.45 -25.95 42.7 -25.95 42.85 -25.85 43.15 -25.45 43.5 -25.05 43.8 -25.05 44.0 -25.05 44.55 -25.1 44.95 -25.3 45.5 -25.9 45.7 -26.15 45.9 -26.25 46.15 -26.3 46.35 -26.55 46.8 -26.8 47.0 -26.95 47.2 -26.9 47.45 -26.9 47.8 -26.8 48.9 -25.25 49.35 -25.4 50.05 -25.65 50.5 -25.8 52.05 -27.15 53.65 -28.55 53.85 -28.65 54.3 -28.95 54.7 -29.25 55.35 -29.5 56.3 -29.8 56.5 -29.9 56.6 -29.9 61.0 -30.7 60.85 -30.45 60.6 -30.3 60.2 -30.15 59.7 -30.0 59.55 -29.85 59.45 -29.65 Q53.9 -29.1 52.4 -25.3 L51.4 -24.45 50.0 -23.95 48.45 -23.4 48.2 -23.35 47.5 -23.95 46.95 -24.95 46.6 -24.6 46.0 -24.0 45.85 -23.85 45.35 -23.7 44.65 -23.45 44.4 -23.4 44.2 -23.35 43.9 -23.35 43.65 -23.45 43.45 -23.3 43.2 -23.3 42.9 -23.3 42.6 -23.5 41.85 -24.1 41.7 -23.95 41.55 -23.65 41.4 -23.35 41.2 -23.2 41.0 -23.0 40.85 -22.7 40.7 -22.4 39.4 -20.85 38.05 -19.6 37.9 -19.35 37.75 -19.05 37.6 -18.75 36.75 -18.3 35.8 -18.05 35.6 -18.0 34.7 -18.2 33.8 -18.7 33.45 -19.1 33.2 -19.4 32.85 -18.9 32.3 -18.25 32.15 -18.0 32.0 -17.65 31.8 -17.4 31.45 -17.05 31.25 -16.8 31.05 -16.7 30.85 -16.55 30.45 -16.2 30.0 -16.05 29.3 -15.8 29.1 -15.75 28.95 -15.5 28.75 -15.3 28.6 -14.9 28.45 -14.65 28.1 -14.25 27.9 -13.95 26.75 -13.6 25.6 -13.2 25.4 -13.1 25.25 -12.95 25.0 -12.7 24.8 -12.55 24.55 -12.5 24.35 -12.4 23.45 -11.45 23.1 -11.05 23.25 -10.7 23.3 -10.25 23.75 -10.1 24.0 -9.8 24.2 -9.6 Q27.0 -8.5 29.45 -9.1 L30.0 -9.1 30.9 -9.0 31.0 -8.95 31.3 -8.9 31.7 -8.7 32.0 -8.4 32.1 -8.35 32.75 -7.75 33.0 -7.45 33.25 -7.45 34.15 -7.45 34.55 -7.35 Q34.7 -7.25 34.8 -7.2 L34.95 -7.05 35.1 -6.9 35.55 -7.75 35.8 -8.1 36.1 -8.4 Q36.4 -8.75 36.85 -8.8 39.4 -9.2 40.0 -10.95 40.1 -11.4 40.5 -11.65 L40.9 -11.9 41.2 -12.05 41.8 -12.25 41.85 -12.25 42.45 -12.8 42.55 -12.85 43.15 -13.35 43.5 -13.5 47.6 -14.95 48.0 -15.0 48.75 -15.05 49.3 -15.45 49.65 -15.65 49.85 -15.7 50.0 -15.85 50.1 -15.9 50.25 -16.1 50.7 -16.35 51.9 -16.75 52.5 -17.25 52.9 -17.45 53.3 -17.6 53.45 -17.75 53.55 -17.8 53.7 -17.95 54.15 -18.2 55.1 -18.75 55.4 -18.95 57.05 -19.55 57.15 -19.6 57.35 -19.85 57.35 -19.95 57.5 -20.15 57.8 -20.5 58.4 -20.9 58.75 -21.1 59.7 -21.45 60.25 -21.5 61.85 -21.45 62.45 -21.35 62.95 -20.95 64.5 -18.85 64.6 -18.75 64.9 -18.55 65.05 -18.3 65.15 -18.35 65.5 -18.65 65.95 -18.9 67.95 -19.6 68.4 -19.7 69.2 -19.7 70.4 -20.1 70.85 -20.15 71.1 -20.15 71.25 -20.15 71.65 -20.1 72.15 -19.95 72.45 -19.85 72.6 -19.8 73.2 -19.35 73.35 -19.3 73.55 -19.15 74.65 -18.9 74.85 -19.0 75.35 -19.05 75.6 -19.05 75.65 -19.0 74.9 -23.3 Q74.8 -23.8 75.1 -24.2 L75.25 -24.45 75.4 -24.65 75.6 -24.85 75.65 -24.9 76.0 -25.3 76.55 -25.55 77.0 -25.85 77.1 -25.9 77.5 -26.2 77.6 -26.25 77.85 -26.35 78.3 -26.75 76.6 -30.45 76.55 -30.75 76.6 -31.2 76.7 -31.5 77.55 -32.0 78.9 -32.4 79.1 -32.5 79.35 -32.5 79.65 -32.5 79.8 -32.65 80.05 -32.85 80.35 -33.3 80.6 -33.35 80.85 -33.45 81.0 -33.75 81.15 -34.05 81.3 -34.35 81.4 -34.85 81.05 -35.85 80.75 -36.25 80.45 -36.6 80.15 -36.75 79.85 -36.8 79.6 -36.75 79.35 -36.95 79.2 -37.1 78.55 -38.6 78.45 -39.0 79.1 -43.0 82.2 -44.8 82.2 -44.75 82.2 -44.25 81.85 -43.8 81.3 -43.05 81.15 -42.95 80.9 -42.85 80.7 -42.75 80.45 -42.7 80.15 -42.15 79.8 -41.55 79.8 -41.35 79.75 -40.95 79.8 -40.4 80.75 -38.4 82.45 -36.9 82.65 -36.6 83.1 -35.35 83.05 -34.9 83.05 -34.7 82.95 -34.15 82.65 -33.5 79.15 -30.8 79.05 -30.75 78.9 -30.75 78.9 -30.45 78.75 -30.2 78.9 -30.05 79.05 -30.05 80.0 -27.15 80.6 -27.3 81.25 -27.25 81.8 -26.95 82.0 -26.7 82.1 -26.65 82.3 -26.35 82.45 -26.3 82.8 -25.9 83.3 -25.2 83.35 -25.1 83.85 -24.1 88.15 -20.7 89.4 -20.4 92.5 -20.05 93.1 -19.85 94.75 -18.75 95.15 -18.35 95.3 -17.8 95.4 -17.45 95.45 -17.4 Q97.85 -17.35 99.45 -18.7 L99.7 -18.9 99.95 -19.05 100.8 -20.1 100.7 -22.0 100.8 -22.45 101.05 -23.1 101.3 -23.45 101.5 -23.7 101.6 -23.8 101.8 -23.95 101.85 -24.0 102.25 -24.35 102.6 -24.5 102.8 -24.6 102.9 -24.65 103.15 -24.7 103.3 -24.75 103.35 -24.75 103.75 -25.05 103.75 -25.1 104.0 -25.3 104.35 -25.45 104.8 -25.6 104.85 -25.6 105.75 -25.9 108.1 -30.5 108.2 -30.7 108.4 -31.0 108.95 -31.45 109.65 -31.5 110.8 -31.55 110.75 -32.4 110.9 -33.0 111.2 -33.45 111.5 -33.8 111.6 -33.9 111.75 -34.05 112.2 -34.3 112.9 -34.75 113.25 -34.95 113.6 -35.0 114.05 -35.1 114.3 -35.1 114.45 -35.05 114.85 -35.0 115.55 -34.6 115.85 -33.9 116.8 -35.4 117.35 -36.05 118.05 -36.2 118.45 -36.35 118.5 -36.35 118.75 -36.45 118.9 -36.5 119.1 -36.55 119.4 -36.6 119.8 -36.6 120.0 -36.7 120.65 -36.8 Q121.3 -36.65 121.75 -37.05 L121.9 -37.6 122.6 -38.15 122.7 -38.2 123.15 -38.25 123.55 -38.25 124.4 -38.45 Q125.05 -38.45 125.6 -38.8 L126.15 -39.05 126.75 -39.0 127.3 -38.95 127.3 -39.0 127.35 -39.55 127.65 -40.05 128.3 -40.8 128.25 -41.05 128.2 -41.55 127.15 -44.6 126.85 -44.9 126.8 -45.7 126.9 -46.05 127.05 -46.4 127.4 -46.75 127.65 -47.0 127.8 -47.1 128.0 -47.25 128.1 -47.9 128.95 -48.35 128.95 -48.85 128.9 -48.85 128.5 -50.05 128.55 -50.45 128.6 -50.8 128.55 -50.9 128.75 -51.3 Q129.5 -52.05 129.05 -53.15 L129.15 -53.25 129.3 -53.45 129.35 -53.8 129.5 -54.45 129.6 -54.85 129.8 -55.1 130.15 -55.5 130.55 -55.9 130.75 -56.0 130.95 -56.1 131.15 -56.2 131.6 -56.5 131.8 -56.75 132.0 -56.8 132.75 -57.0 133.45 -57.25 133.65 -57.35 133.85 -57.45 134.05 -57.65 134.2 -57.85 134.45 -58.0 134.65 -58.05 134.9 -58.15 135.1 -58.3 135.3 -58.5 135.5 -58.7 135.75 -58.75 136.35 -59.0 137.0 -59.3 137.2 -59.5 137.3 -59.8 136.9 -61.35 136.9 -61.75 137.0 -62.15 137.2 -62.4 137.5 -62.75 137.9 -63.2 138.15 -63.3 138.85 -63.5 138.95 -63.6 143.8 -63.6 143.75 -63.55 143.7 -63.4 143.45 -63.2 142.95 -62.75 142.45 -62.1 142.25 -62.0 142.0 -61.95 141.8 -61.85 141.55 -61.85 140.9 -62.1 140.35 -62.35 140.1 -62.3 139.65 -62.1 139.2 -61.95 138.75 -61.65 138.7 -61.35 138.8 -61.15 139.1 -60.75 139.3 -60.15 139.3 -59.65 139.15 -59.35 139.0 -59.05 138.85 -58.75 138.7 -58.5 138.5 -58.35 138.1 -57.95 137.9 -57.85 137.65 -57.75 137.2 -57.6 137.0 -57.5 136.75 -57.4 136.55 -57.2 136.4 -57.0 136.2 -56.9 Q134.45 -56.45 133.05 -55.5 L132.8 -55.4 132.65 -55.2 132.5 -55.0 132.4 -54.95 132.3 -54.85 132.05 -54.8 131.8 -54.7 131.6 -54.65 131.45 -54.4 131.3 -54.1 131.3 -53.95 131.0 -53.6 131.1 -53.6 131.25 -53.6 131.2 -53.5 131.1 -53.2 130.75 -52.6 130.45 -52.0 130.4 -50.85 130.05 -48.45 129.85 -48.4 129.8 -48.35 129.85 -48.05 129.9 -47.5 129.6 -46.9 129.45 -46.65 129.3 -46.3 129.1 -46.0 128.95 -45.85 128.75 -45.7 128.5 -45.55 128.85 -45.0 129.45 -43.4 129.9 -43.5 130.7 -43.15 130.75 -43.1 131.55 -44.3 Q131.85 -44.7 132.35 -44.85 136.0 -45.7 137.1 -48.6 137.2 -49.05 137.6 -49.3 L137.75 -49.35 138.0 -49.45 138.9 -49.8 139.5 -49.85 139.75 -49.85 140.2 -50.1 140.5 -50.25 141.65 -50.55 142.25 -50.65 142.2 -52.25 142.25 -52.65 142.8 -53.2 143.6 -53.95 144.75 -54.35 145.6 -54.65 146.6 -52.6 146.55 -52.65 146.15 -53.05 145.65 -52.9 144.75 -52.65 144.5 -52.6 144.35 -52.4 144.1 -52.2 143.95 -52.05 144.0 -50.3 144.25 -50.3 144.95 -49.9 145.3 -49.2 145.1 -48.4 144.95 -48.15 144.9 -48.1 145.6 -47.8 147.0 -46.7 147.1 -46.7 147.95 -45.9 148.1 -45.85 148.45 -45.75 149.15 -46.15 149.8 -46.4 150.45 -46.25 Q150.8 -46.1 151.0 -45.75 L152.35 -43.4 152.5 -42.85 152.45 -42.3 152.25 -41.8 151.55 -41.1 151.3 -41.05 150.8 -40.9 149.9 -40.85 149.75 -40.75 151.5 -38.6 151.7 -38.4 152.05 -38.25 152.3 -38.25 152.5 -38.35 153.15 -39.25 154.55 -38.3 154.25 -37.8 153.4 -36.95 153.2 -36.8 152.75 -36.65 152.25 -36.5 151.8 -36.35 Q151.7 -36.4 151.55 -36.5 L151.3 -36.65 151.0 -36.95 150.7 -37.15 150.4 -37.3 150.1 -37.45 149.15 -39.1 148.05 -40.25 147.8 -40.2 147.05 -40.1 146.55 -40.35 146.05 -40.45 Q145.7 -40.5 145.45 -40.75 L145.1 -41.4 144.65 -42.8 144.25 -43.15 Q143.45 -44.2 142.1 -43.55 L141.35 -43.4 Q141.05 -43.5 140.75 -43.7 L140.55 -43.9 140.6 -43.9 140.25 -44.1 140.35 -44.05 140.4 -44.1 140.5 -44.25 140.5 -44.2 140.6 -44.3 139.65 -43.95 139.85 -43.95 140.2 -43.9 139.85 -43.4 139.3 -43.0 138.9 -42.85 138.85 -42.8 137.95 -42.4 137.9 -42.4 137.5 -42.25 137.3 -42.0 Q137.05 -41.75 136.7 -41.65 134.5 -41.0 133.65 -39.5 L133.8 -39.55 133.65 -39.35 133.6 -39.45 Q133.1 -38.55 133.1 -37.35 L132.85 -36.7 132.3 -36.2 132.1 -36.1 134.75 -33.45 135.0 -33.2 135.3 -33.15 135.55 -33.05 135.85 -32.9 136.35 -33.05 137.05 -33.25 137.5 -33.35 137.7 -33.45 138.25 -33.4 138.55 -33.35 139.3 -32.95 140.45 -30.05 140.35 -30.05 140.1 -30.2 139.7 -30.3 139.55 -30.45 139.4 -30.55 139.25 -30.85 138.95 -31.2 138.6 -31.4 137.95 -31.8 137.05 -31.6 136.1 -31.25 135.85 -31.15 135.55 -31.3 135.25 -31.5 135.0 -31.65 134.7 -31.6 134.4 -31.7 134.15 -31.75 133.85 -31.95 130.95 -35.05 130.7 -35.15 130.35 -35.3 127.85 -34.0 127.35 -33.75 126.8 -33.85 Q125.4 -34.3 124.75 -33.15 L124.35 -32.65 123.65 -31.4 123.6 -31.3 123.45 -31.1 123.0 -30.7 122.8 -30.55 122.65 -30.5 122.4 -30.4 121.45 -30.35 Q119.0 -31.15 117.55 -28.7 117.3 -28.3 116.85 -28.15 L116.7 -28.1 116.5 -28.05 116.25 -28.0 115.95 -28.0 115.7 -27.35 Q115.4 -26.9 114.85 -26.8 L114.55 -26.7 Q114.35 -26.55 114.1 -26.5 L113.6 -26.45 113.05 -26.4 112.4 -25.95 112.0 -25.95 111.6 -26.0 111.45 -26.05 111.25 -25.6 Q110.5 -23.95 110.3 -21.9 110.3 -21.45 109.9 -21.1 L109.5 -20.8 109.5 -20.7 109.25 -20.55 108.85 -20.3 108.2 -20.1 107.75 -20.0 107.35 -20.0 107.3 -19.95 107.0 -19.6 106.6 -19.25 105.95 -19.0 106.05 -18.15 106.05 -17.35 105.95 -17.05 105.6 -16.6 105.2 -16.15 105.25 -16.1 105.2 -15.25 105.1 -15.15 105.5 -14.8 106.0 -14.3 107.0 -12.1 107.45 -11.7 108.15 -11.1 108.4 -11.05 108.95 -11.0 109.45 -11.0 109.7 -11.05 109.9 -11.15 110.2 -11.05 110.5 -11.0 110.7 -11.05 110.95 -11.15 111.2 -11.15 111.45 -11.1 112.0 -11.0 112.3 -10.85 Q112.5 -10.75 112.65 -10.7 L113.0 -10.35 113.25 -10.3 113.9 -10.05 114.2 -9.85 114.45 -9.8 114.8 -9.75 114.9 -9.65 115.0 -9.65 115.2 -9.6 115.4 -9.75 115.65 -9.8 116.3 -10.2 117.1 -10.9 117.3 -11.05 117.4 -11.3 117.6 -11.6 118.0 -11.95 118.6 -12.4 118.85 -12.55 119.75 -12.85 120.9 -13.25 121.1 -13.35 124.0 -13.15 126.65 -12.55 126.75 -12.45 127.0 -12.25 127.5 -11.85 127.7 -11.95 127.95 -12.1 128.15 -12.3 128.35 -12.5 128.55 -12.55 128.8 -12.65 128.95 -12.8 129.15 -13.05 129.5 -13.45 129.75 -13.65 129.9 -13.7 130.15 -13.8 130.35 -13.9 130.55 -14.05 130.75 -14.2 131.0 -14.45 131.9 -14.7 133.05 -15.1 133.25 -15.15 133.45 -15.3 133.65 -15.45 133.9 -15.65 134.05 -15.8 134.2 -16.05 134.4 -16.4 136.0 -18.1 137.85 -19.8 138.95 -20.15 140.35 -20.65 140.6 -20.7 140.8 -20.75 141.05 -20.75 141.35 -20.7 141.6 -20.7 142.05 -20.9 142.7 -21.1 143.15 -21.25 143.55 -21.6 144.15 -22.15 144.35 -22.35 145.95 -22.9 147.85 -23.6 152.25 -23.75 152.2 -23.4 152.1 -23.1 150.75 -22.55 149.15 -22.05 148.9 -21.95 148.65 -21.95 148.4 -21.9 148.2 -21.9 147.9 -21.9 147.0 -21.6 145.6 -21.1 145.4 -21.05 145.05 -20.65 144.65 -20.3 144.4 -20.05 143.3 -19.65 141.95 -19.15 141.7 -19.1 141.5 -19.1 141.2 -19.1 140.95 -19.1 140.7 -19.1 140.05 -18.9 139.1 -18.55 138.6 -18.35 137.3 -16.95 135.95 -15.7 135.8 -15.45 135.7 -15.0 135.55 -14.7 135.15 -14.45 134.9 -14.3 134.45 -14.05 Q131.45 -13.7 129.45 -11.25 L127.55 -10.2 127.4 -10.15 126.95 -10.0 126.7 -10.05 126.35 -10.2 126.05 -10.35 125.75 -10.75 125.45 -11.15 124.25 -11.45 Q122.3 -13.25 121.25 -11.7 L121.2 -11.7 120.7 -11.55 120.25 -11.35 119.8 -11.25 119.4 -10.9 119.0 -10.6 118.75 -10.45 118.65 -10.15 118.5 -9.8 117.8 -9.45 117.1 -8.6 116.95 -8.55 118.85 -3.5 Q118.35 -2.7 119.05 -1.55 119.25 -1.0 119.9 -1.0 L120.5 -1.0 120.8 -0.85 121.95 -0.65 122.7 -0.5 122.95 -0.55 123.2 -0.65 123.45 -0.6 123.7 -0.55 124.0 -0.6 124.2 -0.65 124.45 -0.75 124.65 -0.8 124.9 -0.8 125.2 -0.75 125.8 -0.45 126.4 -0.15 126.7 -0.15 126.95 -0.1 127.15 0.1 129.5 3.55 129.8 3.7 131.85 5.15 132.5 5.45 132.75 5.45 133.0 5.5 133.3 5.65 133.6 5.95 133.6 6.05 129.0 5.2 127.8 3.95 127.45 3.55 126.05 1.35 125.75 1.2 125.1 0.95 124.8 0.9 124.6 0.9 124.35 0.95 124.1 1.05 123.9 1.1 123.6 1.05 123.35 1.05 123.1 1.05 122.85 1.15 122.65 1.2 122.4 1.3 122.2 1.25 121.5 1.0 120.7 0.85 120.4 0.7 119.8 0.45 119.5 0.25 119.05 -0.05 117.8 -1.3 117.75 -1.3 117.25 -2.85 Q117.6 -4.6 115.85 -6.75 L115.45 -8.05 114.85 -7.85 114.6 -7.8 114.35 -8.0 114.05 -8.05 Q113.8 -8.2 113.5 -8.4 L113.1 -8.65 112.8 -8.7 Q110.2 -10.7 108.1 -9.45 L107.9 -9.4 106.6 -10.2 105.55 -11.15 104.55 -13.3 104.1 -13.75 103.85 -13.9 103.55 -13.95 103.35 -13.9 103.15 -13.8 100.8 -12.65 100.1 -12.55 99.9 -12.55 98.35 -12.7 98.25 -12.7 97.45 -12.7 96.95 -12.5 96.6 -12.5 96.1 -12.45 96.0 -12.45 94.7 -12.5 94.55 -12.55 94.0 -12.6 93.55 -12.7 92.4 -13.4 92.25 -13.5 91.15 -14.35 90.0 -14.75 89.85 -14.85 81.85 -18.25 81.95 -17.85 81.95 -17.25 81.95 -17.15 81.6 -16.55 Q81.4 -16.35 81.0 -16.25 78.9 -15.6 77.6 -13.8 77.4 -13.45 77.0 -13.35 L76.6 -13.2 76.2 -13.1 75.95 -13.15 75.8 -13.1 75.6 -13.15 75.5 -13.15 75.35 -13.1 74.95 -13.05 74.45 -13.05 74.05 -13.1 73.6 -13.2 72.75 -13.3 72.3 -13.25 71.75 -13.4 71.2 -13.65 71.15 -13.65 70.35 -14.05 69.5 -13.75 69.0 -13.7 68.75 -13.75 68.7 -13.75 68.3 -13.5 67.75 -13.5 Q66.4 -13.6 65.2 -12.0 L64.65 -11.6 63.95 -11.55 Q63.55 -11.6 63.25 -11.85 L60.35 -14.45 60.1 -14.6 59.8 -14.9 59.2 -14.85 Q58.9 -14.9 58.7 -15.05 L58.0 -15.45 Q54.9 -14.1 53.2 -12.0 L52.65 -11.6 Q49.45 -10.35 46.25 -9.4 L46.2 -8.75 45.9 -8.15 Q45.7 -7.95 45.5 -7.85 L45.4 -7.75 45.2 -7.55 45.15 -7.5 44.9 -7.4 44.6 -7.15 43.8 -6.9 43.05 -6.4 42.8 -6.3 39.8 -4.8 39.85 -4.3 39.95 -3.85 39.8 -3.35 39.5 -2.6 39.1 -2.15 39.0 -2.1 38.65 -1.9 38.3 -1.7 39.7 0.0 39.8 0.0 40.35 0.0 41.15 0.4 41.3 0.65 41.45 1.45 41.3 1.75 41.15 1.9 41.15 2.05 41.2 2.55 41.25 2.85 41.5 2.85 41.75 2.9 42.05 3.0 42.4 3.2 42.8 3.6 43.0 3.6 43.35 3.65 43.55 3.85 43.9 4.15 43.85 4.45 44.2 4.55 44.3 4.65 44.5 4.95 44.7 5.5 44.75 6.05 44.6 6.3 43.6 8.0 42.95 9.0 42.85 9.1 43.5 10.45 43.7 10.45 44.25 10.45 44.95 10.65 45.1 10.75 45.2 11.05 45.3 11.8 45.2 12.15 45.3 12.45 45.4 12.7 45.6 12.95 45.7 13.25 45.65 13.7 45.55 14.0 45.75 14.05 46.3 14.25 47.15 14.35 47.4 14.5 47.75 14.75 48.05 14.8 48.85 14.85 50.15 15.1 50.45 15.25 51.5 15.95 52.05 16.5 52.6 16.8 55.8 19.2 56.05 19.25 56.35 19.25 56.6 19.4 57.25 19.7 57.75 19.95 57.85 20.05 58.15 20.35 58.4 20.55 58.45 20.8 58.45 20.85 54.25 20.0 50.8 17.65 50.7 17.5 50.4 17.2 49.85 16.7 49.65 16.7 49.35 16.7 49.05 16.6 48.75 16.5 48.55 16.5 48.25 16.5 48.05 16.55 47.8 16.7 47.55 16.55 47.25 16.45 46.95 16.3 46.55 15.95 46.3 15.85 45.2 15.8 43.95 15.65 43.9 15.5 43.7 15.25 43.55 14.9 43.65 14.55 43.7 14.15 43.85 13.85 43.8 13.55 43.15 12.35 42.95 12.35 42.65 12.25 42.35 12.1 42.0 11.95 41.75 11.55 41.7 11.6 41.0 9.5 41.05 9.05 41.3 8.35 41.45 8.05 41.6 7.85 42.0 7.45 42.55 6.85 42.7 6.55 42.85 6.25 42.9 6.05 42.85 5.85 42.7 5.55 42.7 5.4 42.6 5.4 42.4 5.35 42.05 5.25 41.75 5.1 41.55 4.95 41.25 4.65 40.95 4.45 40.65 4.45 40.4 4.45 40.1 4.3 39.65 4.1 39.5 3.95 39.3 2.95 39.4 1.95 39.15 1.65 38.9 1.5 38.55 1.35 38.3 1.2 36.65 -0.7 36.15 -0.4 35.2 -0.25 34.7 -0.25 34.45 -0.3 34.45 -0.25 33.65 -0.3 33.15 -0.45 32.85 -0.6 32.8 -0.65 32.2 -0.95 32.15 -0.95 31.8 -1.15 31.35 -1.55 31.15 -1.85 30.85 -2.1 28.6 -4.15 26.4 -4.0 25.9 -4.0 25.5 -4.2 25.1 -4.3 24.55 -4.35 Q24.35 -4.35 24.15 -4.5 L19.5 -6.4 17.9 -6.3 17.4 -5.9 17.05 -5.75 16.0 -5.4 14.25 -3.95 Q13.9 -3.6 13.4 -3.55 L12.8 -3.55 11.4 -3.45 11.05 -3.4 10.75 -3.2 Q8.85 -2.05 9.9 2.2 L9.8 3.0 9.25 3.6 8.95 3.75 8.7 3.9 6.9 4.5 6.45 4.55 6.2 4.55 6.05 4.55 5.85 4.55 5.0 4.85 4.55 4.9 4.25 4.85 4.15 4.85 3.95 4.85 3.8 4.95 2.8 4.85 2.15 4.2 0.95 1.3 0.85 0.6 1.15 0.0 Q1.35 -0.3 1.7 -0.4 L3.3 -0.95 3.7 -1.0 3.9 -1.0 4.0 -1.0 4.25 -1.0 4.3 -0.95 4.95 -1.2 5.25 -1.25 5.2 -6.1 5.4 -6.85 5.55 -7.1 5.65 -7.2 5.8 -7.45 5.9 -7.55 6.35 -7.95 6.8 -8.2 9.8 -9.25 10.45 -9.25 Q12.8 -8.85 13.9 -10.35 L14.25 -10.75 15.0 -11.3 15.4 -11.5 15.8 -11.6 16.05 -12.0 16.6 -12.25 17.85 -12.55 18.35 -12.55 19.4 -12.4 19.85 -12.55 M35.1 -6.9 L34.75 -6.1 34.7 -6.05 35.05 -6.2 34.95 -6.2 35.2 -6.25 35.05 -6.2 36.1 -5.9 35.35 -6.65 35.1 -6.9 M48.65 -15.0 L48.75 -15.0 48.65 -14.9 49.05 -15.0 48.75 -15.05 48.65 -15.0 M115.75 -33.2 L116.7 -33.4 115.85 -33.9 115.85 -33.85 115.75 -33.2 M155.8 -40.05 L155.9 -39.9 155.9 -39.6 155.8 -40.05" fill="#ffffff" fill-rule="evenodd" stroke="none"/>
    </g>
  </defs>
</svg>
