<?xml version="1.0" encoding="UTF-8" standalone="no"?>
<svg xmlns:ffdec="https://www.free-decompiler.com/flash" xmlns:xlink="http://www.w3.org/1999/xlink" ffdec:objectType="frame" height="290.55px" width="212.45px" xmlns="http://www.w3.org/2000/svg">
  <g transform="matrix(1.0, 0.0, 0.0, 1.0, -299.25, -46.85)">
    <use ffdec:characterId="10" height="84.45" transform="matrix(-0.5138, 1.5723, -1.5723, -0.5138, 511.0672, 95.5781)" width="153.8" xlink:href="#shape0"/>
  </g>
  <defs>
    <g id="shape0" transform="matrix(1.0, 0.0, 0.0, 1.0, -2.1, 63.6)">
      <path d="M6.65 -6.45 L6.85 -6.65 7.2 -7.0 8.35 -7.4 10.2 -8.0 Q13.5 -7.4 14.95 -9.65 L15.0 -9.7 15.15 -9.85 15.4 -10.0 15.8 -10.3 16.0 -10.35 16.25 -10.45 16.7 -10.6 16.8 -10.65 16.8 -10.7 16.85 -11.0 18.1 -11.3 19.45 -11.05 20.1 -11.3 20.25 -11.35 21.05 -11.6 21.25 -11.7 21.45 -11.8 21.65 -12.05 21.8 -12.4 22.45 -12.9 23.15 -13.7 23.4 -13.75 23.6 -13.8 23.8 -13.95 24.0 -14.15 24.15 -14.35 25.3 -14.75 26.5 -15.15 26.7 -15.25 27.4 -16.3 28.1 -17.1 28.55 -17.25 29.25 -17.5 29.5 -17.55 30.05 -18.05 30.85 -18.85 31.0 -19.15 31.3 -19.65 31.45 -19.9 31.65 -20.35 31.8 -20.6 32.2 -20.8 32.9 -21.05 33.1 -21.1 33.65 -20.95 34.45 -20.55 34.85 -20.2 35.4 -19.7 35.65 -19.7 35.85 -19.75 36.35 -19.9 36.5 -20.15 36.55 -20.2 Q38.25 -21.6 39.3 -23.3 L39.5 -23.5 39.9 -24.4 40.4 -25.25 41.25 -25.65 42.45 -25.95 42.7 -25.95 42.85 -25.85 43.15 -25.45 43.5 -25.05 43.8 -25.05 44.0 -25.05 44.55 -25.1 44.95 -25.3 45.5 -25.9 45.7 -26.15 45.9 -26.25 46.15 -26.3 46.35 -26.55 46.8 -26.8 47.0 -26.95 47.2 -26.9 47.3 -26.9 43.05 -23.3 42.9 -23.3 42.6 -23.5 41.85 -24.1 41.7 -23.95 41.55 -23.65 41.4 -23.35 41.2 -23.2 41.0 -23.0 40.85 -22.7 40.7 -22.4 39.4 -20.85 38.05 -19.6 37.9 -19.35 37.75 -19.05 37.6 -18.75 36.75 -18.3 35.8 -18.05 35.6 -18.0 34.7 -18.2 33.8 -18.7 33.45 -19.1 33.2 -19.4 32.85 -18.9 32.3 -18.25 32.15 -18.0 32.0 -17.65 31.8 -17.4 31.45 -17.05 31.25 -16.8 31.05 -16.7 30.85 -16.55 30.45 -16.2 30.0 -16.05 29.3 -15.8 29.1 -15.75 28.95 -15.5 28.75 -15.3 28.6 -14.9 28.55 -14.85 Q24.4 -14.15 22.5 -10.4 L22.15 -10.3 22.0 -10.25 22.45 -10.1 22.2 -9.3 Q22.35 -9.1 22.55 -9.1 L23.05 -9.05 23.0 -8.95 23.6 -8.45 Q26.95 -7.15 29.75 -7.85 L30.7 -7.7 30.9 -7.65 31.25 -7.4 31.85 -6.85 31.95 -6.65 32.2 -6.45 Q32.85 -5.95 33.65 -6.25 L34.05 -6.1 34.2 -6.05 34.35 -5.8 35.2 -5.0 35.45 -5.05 35.65 -5.2 35.8 -5.4 35.95 -5.7 36.75 -7.2 37.05 -7.55 Q40.45 -8.0 41.25 -10.6 L41.6 -10.85 41.85 -10.9 42.05 -11.0 42.25 -11.05 42.5 -11.15 42.7 -11.3 43.3 -11.85 43.95 -12.3 45.5 -12.85 47.8 -13.65 48.0 -13.75 48.25 -13.75 48.55 -13.75 49.05 -13.75 49.25 -13.85 49.45 -13.95 49.9 -14.3 50.1 -14.45 50.3 -14.5 50.5 -14.6 50.7 -14.75 50.95 -15.0 51.1 -15.15 51.35 -15.2 51.8 -15.4 52.5 -15.6 52.65 -15.75 52.9 -15.95 53.3 -16.2 53.5 -16.25 53.75 -16.4 53.95 -16.45 54.15 -16.65 54.4 -16.8 54.55 -16.95 54.8 -17.1 55.0 -17.15 55.25 -17.3 55.45 -17.45 55.8 -17.75 56.3 -17.9 57.2 -18.2 57.65 -18.4 57.85 -18.55 58.1 -18.7 58.25 -18.95 58.4 -19.25 58.6 -19.45 58.8 -19.6 58.95 -19.75 59.2 -19.95 59.4 -20.0 59.65 -20.05 59.85 -20.15 60.1 -20.25 60.35 -20.2 61.15 -20.15 61.9 -20.2 63.55 -17.9 63.85 -17.7 64.15 -17.4 64.75 -16.4 65.15 -16.7 65.95 -17.35 66.3 -17.7 66.8 -17.85 67.7 -18.2 68.4 -18.4 68.65 -18.4 68.9 -18.45 69.45 -18.45 69.6 -18.55 70.1 -18.7 70.8 -18.9 71.05 -18.9 71.35 -18.85 71.6 -18.85 71.9 -18.7 72.5 -18.3 72.9 -18.0 73.4 -17.85 74.55 -17.65 74.85 -17.6 75.05 -17.7 75.25 -17.75 75.5 -17.75 75.8 -17.7 76.0 -17.85 76.2 -18.0 76.4 -18.2 76.65 -18.25 76.9 -18.3 77.05 -18.5 76.2 -23.5 76.35 -23.8 76.55 -24.0 76.9 -24.35 77.15 -24.5 77.4 -24.55 77.55 -24.7 77.8 -24.85 78.25 -25.15 78.4 -25.25 78.65 -25.3 78.9 -25.3 79.3 -25.3 78.9 -25.6 78.75 -25.65 76.6 -30.45 76.55 -30.75 76.6 -31.2 76.7 -31.5 77.55 -32.0 78.9 -32.4 79.1 -32.5 79.35 -32.5 79.65 -32.5 79.8 -32.65 80.05 -32.85 80.35 -33.3 80.6 -33.35 80.85 -33.45 81.0 -33.75 81.15 -34.05 81.3 -34.35 81.4 -34.85 81.05 -35.85 80.75 -36.25 80.45 -36.6 80.15 -36.75 79.85 -36.8 79.6 -36.75 79.35 -36.95 79.2 -37.1 78.55 -38.6 78.45 -39.0 79.1 -43.0 79.65 -43.35 79.65 -43.25 Q78.4 -41.6 78.95 -39.35 80.7 -36.65 83.1 -35.15 L83.05 -34.9 83.05 -34.7 82.95 -34.15 82.65 -33.5 79.15 -30.8 79.05 -30.75 78.9 -30.75 78.9 -30.45 78.75 -30.2 78.9 -30.05 79.05 -30.05 80.1 -26.75 80.85 -26.05 81.1 -25.8 81.4 -25.45 81.4 -25.4 81.75 -25.2 82.2 -24.55 82.85 -23.25 86.75 -20.15 87.45 -19.6 87.75 -19.5 88.6 -19.25 89.1 -19.15 92.4 -18.8 94.05 -17.65 94.4 -16.5 94.5 -16.4 94.65 -16.4 94.5 -16.2 94.6 -16.25 Q98.05 -15.8 100.3 -17.8 L100.8 -18.05 102.0 -19.6 102.1 -19.85 102.0 -22.05 102.25 -22.65 102.45 -22.85 102.65 -23.0 103.05 -23.35 103.25 -23.4 103.45 -23.5 103.75 -23.5 103.9 -23.6 104.15 -23.8 104.55 -24.1 104.8 -24.25 105.2 -24.4 106.1 -24.7 106.6 -24.8 109.2 -30.0 109.4 -30.25 Q110.75 -30.05 111.95 -30.55 L112.1 -32.5 112.15 -32.5 112.5 -32.95 112.65 -33.15 Q113.2 -33.35 113.75 -33.7 L113.75 -33.75 113.95 -33.85 114.2 -33.8 114.6 -33.75 114.45 -33.45 114.65 -33.2 116.15 -32.25 Q117.4 -33.6 117.95 -34.95 L118.2 -34.9 118.9 -35.15 119.15 -35.25 119.3 -35.3 119.9 -35.3 120.15 -35.25 120.35 -35.3 120.5 -35.5 Q122.3 -35.25 123.15 -36.8 L123.05 -36.95 123.1 -36.95 123.4 -36.95 123.6 -36.95 123.9 -36.9 124.15 -37.05 124.35 -37.2 Q125.55 -37.15 126.35 -37.85 127.85 -37.35 129.35 -38.1 L129.25 -38.45 128.55 -39.0 128.55 -39.2 128.5 -39.55 128.25 -41.05 128.2 -41.55 127.15 -44.6 126.85 -44.9 126.8 -45.7 126.9 -46.05 127.05 -46.4 127.4 -46.75 127.65 -47.0 127.8 -47.1 128.0 -47.25 128.1 -47.9 128.95 -48.35 128.95 -48.85 128.9 -48.85 128.5 -50.05 128.55 -50.45 128.6 -50.8 128.55 -50.9 128.75 -51.3 Q129.5 -52.05 129.05 -53.15 L129.15 -53.25 129.3 -53.45 129.35 -53.8 129.5 -54.45 129.6 -54.85 129.8 -55.1 130.15 -55.5 130.55 -55.9 130.75 -56.0 130.95 -56.1 131.15 -56.2 131.6 -56.5 131.8 -56.75 132.0 -56.8 132.75 -57.0 133.45 -57.25 133.65 -57.35 133.85 -57.45 134.05 -57.65 134.2 -57.85 134.45 -58.0 134.65 -58.05 134.9 -58.15 135.1 -58.3 135.3 -58.5 135.5 -58.7 135.75 -58.75 136.35 -59.0 137.0 -59.3 137.2 -59.5 137.3 -59.8 137.0 -60.8 Q138.75 -61.4 137.3 -62.55 L137.5 -62.75 137.9 -63.2 138.15 -63.3 138.85 -63.5 138.95 -63.6 143.8 -63.6 143.75 -63.55 143.7 -63.4 143.45 -63.2 142.95 -62.75 142.45 -62.1 142.25 -62.0 142.0 -61.95 141.8 -61.85 141.55 -61.85 140.9 -62.1 140.35 -62.35 140.1 -62.3 139.65 -62.1 139.2 -61.95 138.75 -61.65 138.7 -61.35 138.8 -61.15 139.1 -60.75 139.3 -60.15 139.3 -59.65 139.15 -59.35 139.0 -59.05 138.9 -58.85 Q134.75 -57.95 132.45 -55.55 L131.55 -55.4 130.95 -54.95 130.9 -54.7 130.45 -54.9 130.3 -54.8 Q129.4 -53.6 130.35 -52.3 129.5 -50.0 129.55 -46.9 L129.45 -46.65 129.3 -46.3 129.1 -46.0 128.95 -45.85 128.75 -45.7 128.5 -45.55 128.85 -45.0 129.8 -42.3 129.8 -42.15 130.2 -39.95 130.45 -40.25 132.6 -43.6 Q137.0 -44.6 138.3 -48.25 L138.4 -48.3 138.6 -48.4 138.85 -48.5 139.1 -48.55 139.3 -48.6 140.0 -48.5 140.05 -48.5 140.9 -49.05 142.0 -49.35 142.05 -49.4 142.2 -49.45 142.2 -52.25 142.25 -52.65 142.8 -53.2 143.6 -53.95 144.75 -54.35 145.6 -54.65 146.6 -52.6 146.55 -52.65 146.15 -53.05 145.65 -52.9 144.75 -52.65 144.5 -52.6 144.35 -52.4 144.1 -52.2 143.95 -52.05 144.05 -49.05 144.0 -49.05 143.85 -48.8 143.5 -48.35 143.3 -48.15 142.5 -47.9 144.0 -46.95 144.25 -46.85 144.55 -46.85 144.8 -46.8 146.2 -45.7 147.3 -44.75 147.55 -44.7 147.9 -44.6 147.95 -44.6 148.6 -44.45 149.85 -45.15 151.25 -42.8 151.05 -42.3 150.8 -42.2 150.45 -42.05 149.05 -41.6 151.5 -38.6 151.7 -38.4 152.05 -38.25 152.3 -38.25 152.5 -38.35 153.15 -39.25 154.55 -38.3 154.25 -37.8 153.4 -36.95 153.2 -36.8 152.75 -36.65 152.25 -36.5 151.8 -36.35 Q151.7 -36.4 151.55 -36.5 L151.3 -36.65 151.0 -36.95 150.7 -37.15 150.4 -37.3 150.1 -37.45 149.15 -39.1 147.35 -41.0 147.35 -41.35 147.35 -41.45 146.35 -41.7 Q145.9 -43.55 145.35 -43.9 143.95 -45.85 141.55 -44.7 L141.35 -44.85 141.05 -45.1 140.8 -45.15 140.5 -45.15 140.0 -45.2 139.7 -45.2 139.55 -45.05 139.15 -44.6 138.8 -44.15 138.4 -43.95 137.45 -43.6 136.8 -43.35 136.35 -42.85 Q131.95 -41.55 131.8 -37.35 L131.8 -36.9 131.6 -36.65 131.25 -36.25 131.4 -36.0 Q132.55 -34.1 134.0 -33.65 134.0 -33.0 134.3 -32.25 L134.9 -31.6 134.7 -31.6 134.4 -31.7 134.15 -31.75 133.85 -31.95 130.95 -35.05 130.7 -35.15 130.35 -35.3 130.1 -35.7 130.05 -35.7 129.5 -35.5 127.7 -34.85 127.65 -34.85 127.25 -35.05 Q124.7 -35.95 123.6 -33.65 L123.5 -33.65 123.2 -33.2 122.5 -32.0 122.35 -31.8 122.15 -31.65 121.9 -31.55 Q118.4 -32.7 116.4 -29.35 L116.3 -29.3 116.1 -29.3 115.75 -29.35 115.5 -29.5 115.2 -29.65 114.9 -29.95 114.55 -30.25 114.4 -30.2 114.3 -30.0 114.65 -28.05 113.8 -27.7 Q112.65 -27.85 112.05 -27.2 L111.65 -27.35 111.5 -27.5 111.15 -26.9 110.85 -27.4 110.65 -27.25 Q109.35 -25.0 109.0 -22.05 L108.65 -21.65 108.45 -21.5 108.25 -21.45 107.75 -21.25 107.0 -21.25 106.75 -21.25 106.55 -21.1 106.2 -20.55 106.0 -20.4 105.8 -20.3 104.95 -20.25 104.85 -20.05 Q104.45 -18.9 104.8 -17.75 L104.75 -17.5 104.35 -17.1 103.6 -16.25 103.25 -15.8 103.05 -15.65 102.95 -15.6 103.1 -15.5 103.35 -15.55 103.6 -15.65 103.8 -15.7 104.0 -15.75 104.1 -15.75 104.3 -15.65 104.65 -15.5 104.85 -15.4 104.95 -15.3 105.5 -14.8 106.0 -14.3 107.0 -12.1 107.45 -11.7 108.15 -11.1 108.4 -11.05 108.95 -11.0 109.45 -11.0 109.7 -11.05 109.9 -11.15 110.2 -11.05 110.5 -11.0 110.7 -11.05 110.95 -11.15 111.2 -11.15 111.45 -11.1 112.0 -11.0 112.3 -10.85 Q112.5 -10.75 112.65 -10.7 L113.0 -10.35 113.25 -10.3 113.9 -10.05 114.2 -9.85 114.45 -9.8 114.8 -9.75 114.9 -9.65 115.0 -9.65 115.2 -9.6 115.4 -9.75 115.65 -9.8 116.3 -10.2 117.1 -10.9 117.3 -11.05 117.4 -11.3 117.6 -11.6 118.0 -11.95 118.1 -12.0 Q119.4 -12.45 120.5 -13.15 L120.9 -13.25 121.1 -13.35 124.0 -13.15 126.4 -12.65 Q126.4 -12.1 126.55 -11.55 L126.7 -11.45 Q127.95 -11.8 128.35 -12.5 L128.55 -12.55 128.8 -12.65 128.95 -12.8 129.15 -13.05 129.5 -13.45 129.75 -13.65 129.9 -13.7 130.15 -13.8 130.35 -13.9 130.55 -14.05 130.75 -14.2 131.0 -14.45 131.9 -14.7 133.05 -15.1 133.25 -15.15 133.45 -15.3 133.65 -15.45 133.9 -15.65 134.05 -15.8 134.2 -16.05 134.4 -16.4 136.0 -18.1 136.2 -18.25 140.1 -20.15 Q142.7 -20.0 144.35 -21.7 L144.6 -21.9 150.3 -23.7 152.25 -23.75 152.2 -23.4 152.1 -23.1 150.75 -22.55 150.6 -22.5 Q147.7 -22.85 145.9 -21.2 L145.6 -21.1 145.4 -21.05 145.05 -20.65 144.65 -20.3 144.4 -20.05 143.3 -19.65 141.95 -19.15 141.7 -19.1 141.5 -19.1 141.2 -19.1 140.95 -19.1 140.7 -19.1 140.05 -18.9 139.1 -18.55 138.6 -18.35 137.3 -16.95 135.95 -15.7 135.8 -15.45 135.7 -15.0 135.55 -14.7 135.15 -14.45 134.9 -14.3 134.45 -14.05 Q131.45 -13.7 129.45 -11.25 L127.55 -10.2 127.4 -10.15 126.95 -10.0 126.7 -10.05 126.35 -10.2 126.05 -10.35 125.75 -10.75 125.45 -11.15 124.25 -11.45 Q122.3 -13.25 121.25 -11.7 L121.2 -11.7 120.7 -11.55 120.25 -11.35 119.8 -11.25 119.4 -10.9 119.0 -10.6 118.75 -10.45 118.65 -10.15 118.5 -9.8 117.8 -9.45 117.1 -8.6 116.95 -8.55 116.55 -8.6 116.45 -8.35 Q115.75 -6.65 117.2 -4.95 117.8 -4.15 118.75 -3.7 L118.85 -3.5 Q118.35 -2.7 119.05 -1.55 119.2 -1.15 119.6 -1.1 121.85 0.4 124.05 1.0 L123.95 1.05 123.9 1.1 123.6 1.05 123.35 1.05 123.1 1.05 122.85 1.15 122.65 1.2 122.4 1.3 122.2 1.25 121.5 1.0 120.7 0.85 120.4 0.7 119.8 0.45 119.5 0.25 119.05 -0.05 117.8 -1.3 117.75 -1.3 117.25 -2.85 Q117.6 -4.6 115.85 -6.75 L115.45 -8.05 114.85 -7.85 114.6 -7.8 114.35 -8.0 114.05 -8.05 Q113.8 -8.2 113.5 -8.4 L113.1 -8.65 112.8 -8.7 Q110.2 -10.7 108.1 -9.45 L107.9 -9.4 106.6 -10.2 105.55 -11.15 104.55 -13.3 104.1 -13.75 103.85 -13.9 103.55 -13.95 103.35 -13.9 103.1 -13.8 102.8 -13.8 102.35 -13.9 101.75 -14.0 101.5 -13.95 101.3 -13.85 101.05 -13.75 100.8 -13.7 100.25 -13.75 100.05 -13.8 98.7 -13.95 98.45 -13.95 98.35 -14.05 98.2 -13.95 98.0 -13.95 97.75 -13.95 97.2 -13.95 97.0 -13.9 96.75 -13.8 96.55 -13.75 96.05 -13.7 94.75 -13.75 94.2 -13.8 93.0 -14.5 91.85 -15.45 91.55 -15.6 91.0 -15.8 90.4 -15.95 82.0 -19.6 80.5 -21.05 79.65 -22.0 80.7 -17.6 80.7 -17.5 Q78.1 -16.7 76.55 -14.5 L76.35 -14.45 76.15 -14.4 75.95 -14.35 75.65 -14.4 75.4 -14.45 75.2 -14.35 74.95 -14.3 74.7 -14.3 74.4 -14.3 73.85 -14.45 72.8 -14.6 72.3 -14.55 71.75 -14.8 70.45 -15.4 70.2 -15.35 69.75 -15.2 69.1 -14.95 68.85 -15.0 68.55 -15.0 68.3 -15.0 67.9 -14.75 Q65.9 -15.05 64.15 -12.8 L61.15 -15.45 60.9 -15.65 Q60.55 -16.05 60.1 -16.15 L59.4 -16.1 58.0 -16.85 57.8 -16.75 Q54.15 -15.25 52.2 -12.8 48.75 -11.4 45.35 -10.45 44.9 -10.05 44.95 -9.45 L44.9 -8.95 44.75 -8.9 44.55 -8.65 44.35 -8.55 44.2 -8.4 43.95 -8.3 43.7 -8.2 43.5 -8.15 43.25 -8.05 42.3 -7.45 Q40.6 -6.75 38.75 -5.65 L38.65 -5.35 Q38.4 -4.6 38.65 -3.9 L38.3 -3.15 38.25 -3.15 38.05 -3.05 37.7 -2.7 37.6 -2.6 39.7 0.0 39.8 0.0 40.35 0.0 41.15 0.4 41.3 0.65 41.45 1.45 41.3 1.75 41.15 1.9 41.15 2.05 41.2 2.55 41.2 2.6 Q40.65 2.85 40.2 3.2 L40.4 3.45 44.55 5.15 44.7 5.5 44.75 5.75 Q42.1 6.6 42.05 9.6 L42.1 9.6 Q43.1 11.95 45.25 11.6 L45.3 11.8 45.2 12.15 45.3 12.45 45.4 12.7 45.6 12.95 45.7 13.25 45.65 13.7 45.55 14.0 45.75 14.05 46.3 14.25 47.15 14.35 47.4 14.5 47.75 14.75 48.05 14.8 48.85 14.85 50.15 15.1 50.45 15.25 51.3 15.8 Q48.1 15.4 45.15 15.75 L43.95 15.65 43.9 15.5 43.7 15.25 43.55 14.9 43.65 14.55 43.7 14.15 43.85 13.85 43.8 13.55 43.15 12.35 42.95 12.35 42.65 12.25 42.35 12.1 42.0 11.95 41.75 11.55 41.7 11.6 41.0 9.5 41.05 9.05 41.3 8.35 41.45 8.05 41.6 7.85 42.0 7.45 42.55 6.85 42.7 6.55 42.85 6.25 42.9 6.05 42.85 5.85 42.7 5.55 42.7 5.4 42.6 5.4 42.4 5.35 42.05 5.25 41.75 5.1 41.55 4.95 41.25 4.65 40.95 4.45 40.65 4.45 40.4 4.45 40.1 4.3 39.65 4.1 39.5 3.95 39.3 2.95 39.4 1.95 39.15 1.65 38.9 1.5 38.55 1.35 38.3 1.2 36.25 -1.25 35.65 -1.4 35.5 -1.45 35.1 -1.55 35.0 -1.5 34.75 -1.55 34.5 -1.55 34.0 -1.55 33.75 -1.55 33.4 -1.75 32.8 -2.05 32.5 -2.2 32.1 -2.9 31.85 -3.0 29.05 -5.4 28.8 -5.4 26.2 -5.25 26.05 -5.4 25.8 -5.45 25.25 -5.5 24.75 -5.55 24.1 -5.9 22.9 -6.5 19.75 -7.65 17.4 -7.55 17.2 -7.4 17.05 -7.2 16.65 -6.9 16.4 -6.8 16.15 -6.75 15.7 -6.6 15.45 -6.5 14.85 -6.1 13.65 -5.1 13.4 -4.85 12.8 -4.85 11.05 -4.65 10.2 -4.7 10.2 -4.3 Q7.3 -2.9 8.65 2.55 L8.3 2.7 6.95 3.15 6.5 3.3 6.25 3.3 5.95 3.25 5.75 3.2 5.5 3.3 5.25 3.4 4.8 3.55 4.6 3.65 4.3 3.6 4.05 3.55 3.75 3.55 3.55 3.6 3.35 3.7 2.1 0.8 2.25 0.7 2.75 0.55 3.45 0.35 3.7 0.25 3.9 0.25 4.15 0.25 4.45 0.3 4.7 0.25 4.95 0.15 5.15 0.1 5.4 0.0 5.6 0.0 5.9 0.0 6.35 0.0 6.6 -0.1 6.5 -6.15 6.65 -6.45 M82.2 -44.25 L82.0 -44.05 82.2 -44.5 82.2 -44.25 M155.9 -39.9 L155.9 -39.6 155.8 -40.05 155.9 -39.9 M133.65 -39.35 L133.6 -39.5 133.8 -39.55 133.65 -39.35 M130.2 4.4 L130.55 4.2 130.7 4.3 129.95 4.45 130.2 4.4 M58.45 20.8 L58.45 20.85 58.15 20.8 58.45 20.8" fill="#fff3f0" fill-rule="evenodd" stroke="none"/>
    </g>
  </defs>
</svg>
