<?xml version="1.0" encoding="UTF-8" standalone="no"?>
<svg xmlns:ffdec="https://www.free-decompiler.com/flash" xmlns:xlink="http://www.w3.org/1999/xlink" ffdec:objectType="frame" height="290.55px" width="212.45px" xmlns="http://www.w3.org/2000/svg">
  <g transform="matrix(1.0, 0.0, 0.0, 1.0, -299.25, -46.85)">
    <use ffdec:characterId="14" height="76.05" transform="matrix(-0.5138, 1.5723, -1.5723, -0.5138, 498.0656, 90.6334)" width="154.2" xlink:href="#shape0"/>
  </g>
  <defs>
    <g id="shape0" transform="matrix(1.0, 0.0, 0.0, 1.0, -1.7, 55.2)">
      <path d="M18.3 -12.85 L18.85 -12.7 19.75 -12.25 21.3 -11.55 21.8 -11.65 22.75 -11.85 23.55 -11.75 24.15 -11.25 25.25 -10.55 25.8 -10.5 26.3 -10.4 26.85 -10.3 27.55 -11.25 Q27.95 -12.15 28.85 -12.7 L29.05 -12.8 29.3 -12.85 31.4 -14.95 32.95 -16.5 33.5 -17.0 34.15 -17.3 35.4 -17.45 35.95 -17.35 Q36.75 -16.8 37.65 -16.7 L39.8 -16.5 40.05 -16.55 40.25 -16.65 40.5 -16.75 40.75 -16.8 41.75 -16.7 43.55 -15.95 43.85 -15.95 44.1 -15.95 44.3 -15.9 44.9 -15.85 45.2 -15.7 45.5 -15.45 45.85 -15.25 46.1 -15.3 46.3 -15.35 46.55 -15.35 47.1 -15.3 47.75 -14.9 48.05 -14.7 48.75 -15.25 49.2 -15.4 49.7 -15.6 50.35 -15.8 53.15 -17.9 55.55 -19.95 Q59.1 -21.0 62.1 -22.35 L62.15 -22.35 62.4 -22.2 Q63.05 -21.5 63.25 -20.5 L63.35 -19.55 63.6 -18.95 64.2 -18.3 64.75 -17.6 65.2 -17.8 65.85 -18.1 66.55 -18.35 66.95 -18.35 67.55 -18.35 69.05 -18.35 69.6 -18.35 69.9 -18.2 70.25 -18.0 70.5 -17.95 70.8 -17.9 71.05 -17.9 71.25 -18.0 71.5 -18.05 71.75 -18.05 72.0 -18.05 72.25 -18.1 72.3 -18.05 76.0 -18.15 Q76.35 -18.9 76.2 -19.55 L76.3 -19.6 76.55 -19.8 76.85 -21.9 77.05 -24.85 77.05 -25.05 77.35 -26.05 77.45 -26.15 77.5 -26.2 77.4 -26.35 77.35 -26.35 77.65 -27.75 78.8 -28.1 78.4 -27.1 Q78.6 -26.75 79.05 -26.7 81.3 -27.7 82.25 -29.65 L82.75 -30.7 83.25 -31.2 83.4 -31.35 Q87.5 -32.0 90.5 -34.6 L90.4 -34.7 91.85 -35.15 92.05 -35.2 92.3 -35.25 92.6 -35.2 92.9 -35.2 93.15 -35.15 93.65 -34.4 93.7 -34.4 Q94.0 -33.85 94.4 -33.6 L94.25 -33.55 94.6 -33.25 Q97.35 -32.0 100.1 -31.1 L100.4 -30.7 100.85 -30.75 100.95 -30.8 101.85 -30.55 Q102.2 -29.45 103.3 -28.25 L103.3 -28.3 103.45 -28.05 103.35 -28.0 103.45 -28.0 Q105.25 -25.3 108.1 -25.85 L108.15 -26.05 109.65 -26.55 110.1 -26.7 110.35 -26.75 110.65 -26.7 110.9 -26.7 111.4 -26.8 111.85 -26.9 112.6 -26.9 112.8 -27.0 113.05 -27.1 113.35 -27.1 113.6 -27.1 113.85 -27.0 114.05 -27.1 114.3 -27.15 114.5 -27.25 114.85 -27.25 Q117.1 -26.1 118.85 -26.65 L118.85 -26.6 118.9 -26.65 118.9 -26.6 Q119.8 -26.05 120.25 -26.25 121.75 -26.0 122.85 -27.0 L122.9 -27.0 123.1 -26.85 123.55 -27.0 124.0 -27.15 124.7 -27.4 124.9 -27.6 125.05 -27.95 125.3 -28.6 Q125.1 -30.45 126.1 -32.1 L127.05 -33.45 127.05 -34.0 127.1 -34.4 127.15 -34.85 127.3 -35.15 127.5 -35.4 127.7 -35.65 127.85 -35.8 127.95 -35.85 128.15 -36.4 128.4 -37.3 128.5 -37.6 128.7 -37.8 128.9 -38.05 129.05 -38.2 129.25 -38.5 129.5 -39.05 129.5 -39.1 129.6 -39.25 129.45 -39.15 129.25 -39.1 129.0 -39.15 128.7 -39.4 128.65 -39.3 Q128.25 -42.8 126.85 -45.9 L126.9 -46.05 127.05 -46.3 Q128.25 -47.0 128.7 -48.25 L128.8 -48.25 129.25 -48.5 129.45 -48.5 129.2 -47.95 129.25 -47.9 128.65 -46.75 128.7 -46.65 128.3 -45.6 128.5 -45.45 129.1 -45.3 Q128.55 -43.2 129.55 -41.05 129.75 -40.6 130.15 -40.65 L130.15 -40.75 130.2 -41.2 130.25 -41.5 130.25 -41.75 Q135.0 -43.8 135.7 -47.3 L135.8 -47.35 136.05 -47.4 136.2 -47.5 Q139.3 -48.25 141.85 -49.85 L142.0 -50.15 142.2 -50.2 142.2 -50.75 142.45 -50.8 142.2 -51.45 142.15 -51.75 Q142.6 -52.5 142.7 -53.2 L142.9 -53.6 143.1 -53.85 143.25 -53.95 143.5 -54.1 143.95 -54.15 144.2 -54.25 144.35 -54.2 144.65 -54.4 145.5 -54.8 145.75 -54.85 146.0 -54.85 146.3 -54.85 146.55 -54.8 147.0 -54.95 147.95 -55.2 148.2 -55.2 148.45 -55.05 148.55 -54.95 148.75 -54.7 148.65 -54.15 148.65 -54.1 Q146.75 -53.55 145.35 -52.35 L144.8 -52.2 144.55 -52.2 Q144.35 -51.9 144.3 -51.25 L144.15 -51.1 144.2 -51.1 144.3 -51.1 144.35 -50.5 144.4 -50.0 144.25 -49.75 144.0 -49.3 144.05 -49.05 144.0 -49.05 143.85 -49.05 143.75 -48.8 143.5 -48.7 Q144.9 -46.95 147.0 -46.6 L147.5 -45.5 147.25 -45.15 147.4 -45.05 Q149.0 -45.05 150.3 -45.55 150.55 -43.85 151.25 -42.1 L151.15 -42.1 149.0 -41.2 Q147.45 -40.6 146.0 -40.8 L145.75 -40.8 145.45 -40.95 145.15 -41.15 144.8 -41.3 Q143.75 -42.7 143.3 -44.45 L142.95 -44.7 142.55 -45.05 142.3 -45.15 142.05 -45.15 141.75 -45.2 141.45 -45.35 141.15 -45.45 140.9 -45.45 140.7 -45.15 140.65 -45.15 Q137.4 -44.9 136.55 -42.6 L136.15 -42.15 136.15 -41.7 136.0 -41.3 135.85 -40.95 135.75 -40.65 135.55 -40.5 135.3 -40.35 135.1 -40.2 134.85 -40.1 134.65 -40.05 134.45 -39.95 Q134.05 -39.65 134.0 -39.1 133.9 -38.35 133.45 -37.65 L133.3 -37.45 133.2 -37.35 133.3 -38.0 133.1 -37.95 Q129.05 -33.45 127.7 -27.35 L127.45 -27.0 127.7 -26.9 127.3 -26.6 Q127.0 -25.5 127.85 -24.2 L127.4 -23.85 125.25 -23.35 125.05 -23.3 124.35 -23.1 123.2 -22.7 122.75 -22.55 122.5 -22.55 122.2 -22.55 121.6 -22.75 120.7 -23.25 120.4 -23.4 119.7 -23.15 118.3 -22.7 117.65 -22.45 117.4 -22.45 117.15 -22.45 116.2 -22.75 114.85 -23.15 114.6 -23.1 114.4 -23.0 114.2 -23.05 Q110.15 -24.35 107.05 -22.75 L106.05 -23.0 102.8 -24.15 Q101.5 -26.4 99.7 -26.9 L100.55 -24.8 100.85 -24.75 101.7 -24.7 102.35 -24.45 102.45 -24.35 102.9 -23.3 Q101.95 -21.45 102.8 -18.75 L103.3 -18.25 Q103.45 -16.85 104.4 -15.25 L105.9 -13.85 105.4 -11.3 105.25 -11.4 104.9 -11.8 104.65 -12.65 104.65 -13.1 104.5 -13.35 104.45 -13.45 104.2 -13.9 103.35 -15.25 103.3 -15.4 101.5 -20.65 101.5 -21.05 101.55 -22.05 101.1 -22.95 100.95 -22.9 100.7 -23.0 100.65 -23.05 Q99.85 -24.75 98.75 -24.65 L97.9 -27.1 97.95 -27.35 97.8 -27.45 Q97.05 -28.0 96.6 -28.85 L94.1 -30.15 92.1 -31.0 91.65 -31.8 91.35 -31.85 Q89.1 -32.2 88.3 -30.95 L88.0 -31.15 87.8 -31.1 Q86.9 -30.6 86.45 -29.8 84.15 -28.25 83.5 -25.65 L83.2 -25.35 82.6 -24.7 81.95 -23.8 Q79.35 -22.7 80.2 -19.0 L80.25 -19.0 Q80.55 -17.45 81.4 -16.7 L81.3 -16.55 Q77.95 -16.2 74.8 -15.25 L74.75 -15.25 73.35 -15.25 73.6 -15.4 73.45 -15.5 68.15 -15.05 68.0 -15.1 Q63.9 -16.2 61.05 -15.0 L60.9 -15.45 Q60.85 -16.65 59.4 -18.25 L59.25 -18.2 58.75 -17.2 58.6 -17.15 58.35 -17.05 56.45 -15.2 55.4 -14.3 Q52.55 -15.05 50.45 -13.45 48.9 -13.1 47.8 -12.1 L46.25 -11.6 44.95 -11.15 44.9 -11.15 44.35 -11.25 Q41.05 -14.65 38.6 -13.8 37.15 -15.3 35.6 -13.95 35.0 -15.7 33.8 -13.25 32.55 -12.55 31.25 -10.15 28.95 -10.5 27.65 -6.05 L26.2 -7.0 Q20.95 -10.25 18.05 -8.5 L18.0 -8.5 17.7 -8.65 16.8 -7.45 16.6 -7.2 15.15 -5.8 15.05 -5.8 Q11.85 -6.15 9.4 -4.25 L8.5 -4.15 8.25 -3.65 8.15 -3.05 7.8 -2.7 8.0 -2.6 7.95 -2.4 7.9 -2.3 8.15 -1.5 8.5 -1.1 8.95 0.25 9.1 1.25 8.95 1.55 8.85 1.8 8.8 1.9 8.7 2.05 8.65 2.2 8.45 2.35 8.25 2.5 8.05 2.65 7.6 2.8 7.15 3.0 6.45 3.2 6.2 3.2 5.95 3.2 5.65 3.15 5.25 3.3 Q4.85 3.4 4.55 3.55 L3.6 3.75 3.0 3.6 2.45 3.3 2.2 3.1 2.0 2.8 1.8 2.4 1.75 2.45 1.7 1.95 1.75 1.5 1.8 1.05 2.25 0.35 Q6.8 1.0 5.85 -7.85 10.65 -5.55 15.2 -10.4 16.3 -11.55 15.3 -11.95 L16.3 -12.7 16.95 -12.95 17.45 -12.95 18.3 -12.85 M29.6 -18.6 L29.8 -18.85 29.9 -18.75 29.6 -18.6 M82.2 -44.25 L82.0 -44.05 82.2 -44.5 82.2 -44.25 M119.8 -13.7 L119.9 -13.75 119.75 -13.5 119.6 -13.5 119.8 -13.7 M130.7 4.3 L129.95 4.45 130.2 4.4 130.55 4.2 130.7 4.3 M155.9 -39.9 L155.9 -39.6 155.8 -40.05 155.9 -39.9 M113.2 -9.65 L113.1 -9.7 113.4 -9.75 113.2 -9.65 M107.15 -10.2 L107.1 -10.2 107.05 -10.25 107.15 -10.2 M58.45 20.85 L58.15 20.8 58.45 20.8 58.45 20.85" fill="#fff3f0" fill-rule="evenodd" stroke="none"/>
    </g>
  </defs>
</svg>
