<?xml version="1.0" encoding="UTF-8" standalone="no"?>
<svg xmlns:ffdec="https://www.free-decompiler.com/flash" xmlns:xlink="http://www.w3.org/1999/xlink" ffdec:objectType="frame" height="54.65px" width="130.4px" xmlns="http://www.w3.org/2000/svg">
  <g transform="matrix(1.0, 0.0, 0.0, 1.0, 68.3, 39.45)">
    <use ffdec:characterId="172" height="39.7" transform="matrix(1.0, 0.0, 0.0, 1.0, -35.2, -24.5)" width="67.2" xlink:href="#shape0"/>
  </g>
  <defs>
    <g id="shape0" transform="matrix(1.0, 0.0, 0.0, 1.0, 35.2, 24.5)">
      <path d="M1.0 -11.4 L7.6 -11.5 Q9.85 -11.5 11.8 -10.65 13.4 -9.95 14.4 -8.9 15.2 -8.1 15.3 -7.1 L15.6 -6.2 16.1 -5.3 17.7 -4.4 18.7 -4.3 21.35 -5.35 Q23.95 -6.3 25.35 -6.3 28.45 -6.3 29.8 -5.6 30.9 -5.0 30.9 -3.8 L30.75 -2.45 Q30.45 -1.7 29.0 -1.1 L32.0 -0.5 31.65 0.0 31.95 0.05 31.8 0.1 31.8 0.3 30.3 1.5 28.4 2.7 28.25 3.6 Q28.25 4.4 27.2 5.0 L23.35 7.0 19.25 8.5 19.0 8.9 Q17.75 9.05 15.35 10.55 14.4 11.1 13.65 11.25 L12.35 11.7 10.3 12.3 Q9.6 12.7 8.25 13.6 6.85 14.45 4.9 14.9 L0.0 15.2 -1.85 14.85 -4.7 14.4 Q-5.3 15.0 -8.2 15.0 L-18.6 7.7 Q-19.1 7.7 -19.3 8.2 -19.5 8.7 -20.0 8.7 -21.15 8.7 -25.9 3.05 L-32.4 -5.0 Q-31.05 -5.1 -29.5 -3.65 L-27.3 -1.4 -27.2 -1.5 Q-27.95 -2.25 -28.3 -3.2 L-28.5 -3.75 -29.05 -4.7 -33.3 -11.9 -32.7 -11.45 -33.3 -12.35 Q-35.2 -15.25 -35.2 -17.15 -35.2 -18.6 -34.6 -19.7 L-31.9 -20.0 -31.7 -20.9 -32.25 -22.7 Q-32.35 -23.75 -31.4 -24.5 -27.4 -24.1 -24.95 -22.4 -22.45 -20.3 -20.4 -19.3 L-20.7 -19.9 -20.6 -20.5 Q-18.7 -19.55 -17.0 -17.05 L-15.3 -14.3 Q-14.4 -13.65 -13.5 -12.2 -12.4 -10.45 -12.4 -10.0 L-12.6 -8.95 -12.7 -8.2 Q-12.5 -7.35 -11.95 -7.0 -11.1 -6.95 -10.65 -6.6 L-10.6 -6.7 -6.95 -6.65 -5.3 -6.5 Q-4.65 -6.95 -4.55 -7.5 -4.45 -7.9 -4.0 -7.9 -3.35 -7.9 -1.5 -9.3 L1.0 -11.4" fill="#afbfc2" fill-rule="evenodd" stroke="none"/>
    </g>
  </defs>
</svg>
