<?xml version="1.0" encoding="UTF-8" standalone="no"?>
<svg xmlns:ffdec="https://www.free-decompiler.com/flash" xmlns:xlink="http://www.w3.org/1999/xlink" ffdec:objectType="frame" height="54.65px" width="130.4px" xmlns="http://www.w3.org/2000/svg">
  <g transform="matrix(1.0, 0.0, 0.0, 1.0, 68.3, 39.45)">
    <use ffdec:characterId="173" height="45.8" transform="matrix(1.0, 0.0, 0.0, 1.0, -49.7, -31.5)" width="95.8" xlink:href="#shape0"/>
  </g>
  <defs>
    <g id="shape0" transform="matrix(1.0, 0.0, 0.0, 1.0, 49.7, 31.5)">
      <path d="M-27.0 -11.1 L-26.5 -9.35 Q-26.0 -8.15 -26.0 -7.65 L-26.3 -7.0 -25.85 -6.65 -25.75 -6.35 -25.1 -6.15 -25.4 -6.5 -22.4 -6.4 -18.15 -5.95 -18.4 -6.65 Q-18.5 -7.55 -18.7 -7.7 L-20.1 -8.55 Q-20.45 -8.65 -20.8 -9.1 -23.65 -12.9 -25.5 -12.9 -26.7 -12.9 -27.0 -11.1 M-44.55 -24.0 L-44.6 -23.95 -44.5 -23.95 -44.55 -24.0 M15.6 -15.9 Q16.8 -15.9 18.3 -14.6 19.7 -13.4 19.7 -12.8 19.7 -12.4 19.2 -12.0 19.0 -11.5 20.1 -10.4 22.0 -8.5 27.9 -8.4 28.45 -8.95 31.05 -9.4 L35.9 -10.0 44.0 -10.3 45.3 -10.05 45.9 -9.8 46.05 -9.55 46.1 -8.75 Q46.1 -7.8 45.4 -7.4 L42.6 -5.8 43.45 -4.95 Q44.0 -4.4 44.0 -3.85 44.0 -1.4 36.8 0.7 34.8 1.3 33.3 2.4 31.8 3.5 29.6 4.2 L29.4 4.1 29.0 4.4 Q26.4 5.4 22.25 7.75 18.25 10.05 16.0 10.8 L15.8 10.6 16.5 9.7 15.5 9.8 Q13.95 10.25 11.4 11.9 9.5 13.05 6.1 13.2 L4.5 13.45 Q4.45 14.15 4.3 13.8 L3.2 13.9 -0.7 14.0 -4.8 14.3 Q-6.85 14.3 -10.65 11.6 -14.45 8.9 -15.8 8.9 -16.3 8.9 -16.3 9.35 -16.3 9.8 -16.8 9.8 -27.1 3.6 -27.1 2.05 -27.1 1.55 -27.5 1.25 -27.9 0.9 -27.9 0.4 -27.9 -0.3 -28.95 -1.1 L-31.8 -3.1 -34.65 -5.3 Q-36.6 -6.6 -38.4 -6.6 -39.05 -6.6 -39.25 -6.2 L-40.3 -6.9 -40.4 -6.9 -40.6 -7.15 -40.9 -7.5 -40.8 -7.55 -43.05 -11.35 -45.4 -15.8 -48.2 -20.45 Q-49.7 -22.8 -49.7 -24.95 L-49.3 -26.6 Q-48.9 -27.75 -48.9 -28.4 -49.7 -31.65 -44.8 -31.5 -41.15 -31.4 -34.9 -29.25 L-29.3 -27.1 -27.1 -28.5 Q-26.2 -28.5 -24.5 -26.7 L-22.2 -24.3 -22.35 -24.15 -22.0 -23.8 Q-22.2 -23.5 -23.1 -23.3 -22.35 -22.55 -20.55 -20.0 L-18.9 -17.45 -17.6 -15.4 -16.0 -12.7 -13.55 -9.9 Q-12.0 -7.9 -12.0 -6.85 L-12.0 -6.6 -11.45 -6.55 -11.4 -6.55 -10.35 -7.25 -9.4 -8.9 -7.6 -9.1 -4.0 -9.5 -2.5 -9.05 0.3 -8.0 2.35 -9.85 3.65 -10.75 Q4.25 -11.7 5.0 -12.1 6.05 -12.65 6.55 -13.85 7.15 -15.15 7.8 -15.7 L15.6 -15.9" fill="#afbfc2" fill-rule="evenodd" stroke="none"/>
    </g>
  </defs>
</svg>
