<?xml version="1.0" encoding="UTF-8" standalone="no"?>
<svg xmlns:ffdec="https://www.free-decompiler.com/flash" xmlns:xlink="http://www.w3.org/1999/xlink" ffdec:objectType="frame" height="54.65px" width="130.4px" xmlns="http://www.w3.org/2000/svg">
  <g transform="matrix(1.0, 0.0, 0.0, 1.0, 68.3, 39.45)">
    <use ffdec:characterId="175" height="44.6" transform="matrix(1.0, 0.0, 0.0, 1.0, -63.6, -38.4)" width="123.1" xlink:href="#shape0"/>
  </g>
  <defs>
    <g id="shape0" transform="matrix(1.0, 0.0, 0.0, 1.0, 63.6, 38.4)">
      <path d="M-36.9 -19.1 L-36.6 -19.4 -35.6 -19.4 -35.5 -18.8 -35.7 -18.2 -36.6 -18.2 Q-36.9 -18.5 -36.9 -19.1 M-39.0 -19.9 L-38.0 -20.0 -37.7 -20.05 Q-37.4 -20.0 -37.4 -19.4 -37.4 -18.7 -37.75 -18.55 L-38.8 -18.4 -39.3 -18.7 Q-39.4 -18.15 -39.4 -19.15 L-39.3 -19.8 -39.0 -19.9 M-29.9 -13.6 L-30.1 -13.0 -31.1 -13.3 -31.3 -13.9 -31.0 -14.2 -30.0 -14.2 -29.9 -13.6 M-33.3 -25.5 L-32.35 -25.1 -30.9 -24.3 Q-31.05 -23.8 -32.0 -23.8 -33.0 -24.3 -33.3 -25.5 M-34.4 -29.4 L-34.3 -28.8 -34.5 -28.2 -35.4 -28.2 Q-35.7 -28.5 -35.7 -29.1 L-35.4 -29.4 -34.4 -29.4 M-35.0 -32.8 L-34.9 -31.7 -35.0 -30.85 -35.3 -30.5 Q-36.45 -30.7 -36.7 -31.95 L-36.5 -32.7 -35.0 -32.8 M-45.6 -34.1 L-46.1 -34.6 Q-45.75 -35.1 -44.7 -35.1 -44.7 -34.25 -45.6 -34.1 M-47.9 -34.4 L-46.75 -34.4 Q-46.35 -34.3 -46.2 -33.65 L-46.3 -33.2 -46.8 -33.0 Q-48.2 -33.35 -47.9 -34.4 M-43.5 -32.5 Q-43.7 -32.2 -44.4 -32.1 L-44.9 -32.7 -43.5 -33.0 -43.5 -32.5 M-42.0 -31.4 L-41.8 -32.1 -41.2 -32.2 -41.0 -32.0 -40.7 -31.7 Q-37.3 -31.0 -36.5 -28.6 L-36.6 -28.0 -37.0 -28.1 Q-37.5 -28.6 -37.5 -29.0 -42.0 -29.35 -42.0 -31.4 M55.3 -12.45 Q54.7 -13.65 54.7 -14.6 54.7 -15.35 55.6 -15.9 L58.4 -16.5 Q59.5 -15.25 59.5 -14.5 59.5 -14.0 59.1 -13.9 58.7 -13.8 58.7 -13.3 58.7 -12.15 59.3 -10.75 59.45 -9.55 57.4 -7.9 L56.5 -7.55 55.6 -7.4 54.6 -7.65 54.2 -7.9 52.9 -7.25 50.4 -7.4 54.2 -9.25 Q55.9 -10.15 55.9 -11.15 L55.3 -12.45 M19.55 -15.9 L19.3 -16.0 17.6 -16.1 16.4 -15.8 16.1 -16.0 16.3 -16.6 Q17.8 -18.1 18.8 -18.1 L20.0 -17.6 Q20.7 -17.1 21.2 -17.1 21.8 -17.1 21.75 -17.35 21.7 -17.65 21.8 -17.7 L24.4 -18.2 27.4 -16.1 Q28.5 -15.15 28.5 -14.15 L28.45 -13.5 28.3 -13.4 26.9 -13.2 Q26.85 -13.1 26.8 -13.15 L26.8 -12.55 27.0 -11.6 27.0 -12.1 Q27.95 -12.15 28.4 -11.3 L29.1 -9.9 Q29.8 -9.15 31.2 -8.4 32.1 -7.95 32.1 -7.25 L32.2 -5.75 Q32.9 -5.05 36.8 -4.3 L37.8 -5.7 40.4 -5.8 41.2 -5.65 42.2 -6.3 41.6 -7.2 Q40.0 -7.45 40.0 -8.2 L41.05 -8.5 42.0 -8.6 Q43.85 -7.7 44.8 -7.4 L44.7 -7.1 Q46.5 -6.3 47.6 -6.3 48.1 -6.3 48.4 -6.6 48.7 -6.95 49.2 -7.0 L49.6 -6.7 49.55 -6.0 49.9 -5.7 49.0 -5.1 Q49.6 -4.6 49.1 -3.75 L48.2 -2.7 42.8 -1.8 42.7 -2.25 Q42.7 -2.6 42.1 -2.6 40.5 -2.6 39.95 -0.35 L39.65 1.0 39.8 1.15 39.9 1.3 Q39.95 1.8 39.45 2.45 L39.4 2.9 39.05 3.0 38.2 3.7 37.2 3.9 33.6 3.9 32.7 3.25 32.4 2.5 Q29.05 2.45 27.95 1.7 L26.4 0.5 24.0 0.5 Q23.0 1.5 22.6 2.65 L22.1 4.25 Q21.4 5.6 16.5 6.0 L16.3 6.2 9.0 6.2 8.1 4.25 Q6.75 3.2 1.3 3.2 -2.65 3.2 -4.6 4.65 -6.6 6.1 -10.8 6.1 L-13.45 5.75 Q-16.25 5.25 -17.8 4.5 L-20.4 3.4 Q-21.65 2.85 -22.1 2.5 L-25.3 -0.85 Q-27.65 -2.9 -31.8 -2.9 L-34.9 -2.4 Q-37.65 -2.35 -37.95 -4.1 L-39.2 -4.1 -42.6 -5.85 Q-45.15 -7.1 -46.0 -8.0 -50.0 -13.1 -50.0 -13.7 -49.5 -14.9 -49.5 -15.5 -49.6 -16.5 -52.4 -17.6 -52.9 -17.8 -53.85 -18.35 -54.5 -18.75 -55.1 -18.8 L-56.45 -18.55 Q-57.3 -18.4 -58.1 -18.9 -59.9 -20.0 -61.45 -21.85 -63.6 -24.4 -63.6 -26.7 L-62.85 -29.85 -61.8 -33.3 Q-60.1 -33.4 -59.65 -34.85 -59.5 -36.45 -59.1 -36.8 -58.7 -37.4 -56.8 -37.95 L-54.2 -38.4 -54.9 -38.05 -53.4 -38.1 Q-48.9 -38.1 -48.9 -36.55 -48.9 -36.05 -48.55 -35.7 -48.2 -35.4 -48.2 -34.9 L-48.3 -34.2 -48.8 -34.1 Q-49.55 -34.3 -50.5 -34.9 L-53.4 -35.4 Q-54.6 -34.65 -56.8 -33.9 -57.4 -33.75 -57.4 -32.15 -57.4 -30.4 -56.35 -29.15 -54.8 -27.35 -50.9 -26.1 -49.7 -27.5 -49.0 -26.35 -48.35 -24.5 -47.7 -23.9 L-43.85 -22.65 Q-42.2 -22.1 -41.4 -21.35 L-41.3 -21.95 -41.0 -22.3 -39.7 -21.5 Q-38.85 -20.85 -39.0 -20.0 L-39.3 -19.8 -40.0 -19.6 -40.7 -20.1 -40.7 -19.9 Q-40.7 -18.9 -41.2 -19.4 L-45.1 -19.6 -45.1 -17.9 Q-44.45 -15.9 -43.25 -15.4 L-41.2 -14.5 Q-40.5 -13.9 -39.85 -12.5 -39.45 -11.6 -38.0 -11.1 L-35.3 -10.9 Q-35.3 -11.65 -34.5 -12.85 -33.55 -14.3 -32.4 -14.3 L-31.8 -14.15 -31.9 -14.0 -32.3 -13.65 Q-32.7 -13.4 -32.7 -12.8 -32.7 -12.25 -32.1 -11.4 L-31.2 -10.4 -27.8 -9.7 Q-27.4 -7.95 -25.55 -6.4 -22.55 -3.9 -17.2 -3.9 L-15.3 -3.55 -13.4 -3.2 Q-11.65 -3.2 -9.8 -4.5 L-7.8 -6.1 -0.8 -7.0 Q-0.1 -7.0 0.8 -6.2 1.6 -5.45 1.6 -5.0 L1.3 -2.7 5.6 -2.5 Q7.25 -3.95 7.45 -4.95 7.65 -5.7 9.0 -6.5 10.3 -7.3 14.95 -7.9 18.5 -8.35 18.5 -9.75 L18.05 -11.25 Q17.6 -12.25 17.6 -12.75 17.6 -13.1 18.6 -13.85 19.6 -14.65 19.6 -15.25 L19.55 -15.9 M14.3 -15.5 L15.0 -15.65 Q15.3 -15.65 15.3 -15.05 15.3 -14.05 15.1 -14.6 L14.2 -14.6 13.9 -14.9 14.3 -15.5" fill="#afbfc2" fill-rule="evenodd" stroke="none"/>
    </g>
  </defs>
</svg>
