<?xml version="1.0" encoding="UTF-8" standalone="no"?>
<svg xmlns:ffdec="https://www.free-decompiler.com/flash" xmlns:xlink="http://www.w3.org/1999/xlink" ffdec:objectType="frame" height="54.65px" width="130.4px" xmlns="http://www.w3.org/2000/svg">
  <g transform="matrix(1.0, 0.0, 0.0, 1.0, 68.3, 39.45)">
    <use ffdec:characterId="176" height="48.15" transform="matrix(1.0, 0.0, 0.0, 1.0, -65.8, -39.45)" width="127.3" xlink:href="#shape0"/>
  </g>
  <defs>
    <g id="shape0" transform="matrix(1.0, 0.0, 0.0, 1.0, 65.8, 39.45)">
      <path d="M-1.5 -7.2 L-1.4 -6.55 -1.5 -5.9 -1.7 -5.8 Q-2.05 -5.8 -2.45 -6.15 L-2.9 -6.7 -2.6 -7.0 -1.6 -7.1 -1.5 -7.2 M-18.4 -2.3 L-18.9 -3.1 Q-18.25 -3.5 -17.7 -2.7 L-18.4 -2.3 M-34.0 -9.4 L-34.0 -9.45 -34.5 -9.45 -34.0 -9.4 M-34.1 -12.8 L-33.2 -12.8 -33.4 -11.9 Q-33.8 -11.9 -34.2 -12.5 L-34.1 -12.8 M-39.1 -19.5 L-39.1 -20.0 -37.9 -20.3 -37.9 -19.7 -37.8 -19.55 -38.45 -19.4 -39.1 -19.5 M-46.6 -21.65 L-46.85 -21.65 -46.95 -21.55 -45.6 -21.6 -46.6 -21.65 M-48.8 -22.95 L-48.65 -23.0 -48.8 -23.0 -48.8 -22.95 M-41.1 -20.6 L-40.9 -21.5 -40.1 -21.45 Q-39.5 -21.3 -39.5 -20.65 -39.5 -20.05 -39.7 -20.05 L-40.4 -20.1 -41.1 -20.6 M-41.2 -28.5 L-41.7 -29.1 -40.3 -29.4 -40.3 -28.9 Q-40.5 -28.6 -41.2 -28.5 M-43.65 -31.85 L-43.4 -32.2 Q-41.9 -32.6 -41.9 -30.25 -41.9 -29.65 -42.0 -29.6 L-42.2 -29.5 -43.4 -29.8 -43.65 -30.15 -43.7 -31.0 -43.65 -31.85 M-55.2 -39.4 Q-54.8 -39.55 -53.2 -38.5 L-51.6 -37.35 -51.65 -36.6 Q-51.4 -36.0 -49.7 -35.9 -49.8 -35.6 -50.8 -35.5 L-52.5 -36.0 -54.3 -36.5 -57.4 -36.2 Q-59.7 -35.95 -61.2 -36.2 L-60.7 -37.05 -60.2 -37.7 Q-58.2 -38.1 -56.9 -38.95 -56.0 -39.55 -55.2 -39.4 M56.1 -8.4 Q56.1 -7.4 55.9 -7.8 L55.0 -7.8 Q54.45 -8.2 54.3 -8.7 L55.05 -9.0 55.6 -9.1 55.95 -9.1 56.1 -8.4 M57.5 -14.15 Q57.1 -14.6 57.1 -15.15 57.1 -15.75 57.35 -15.95 L57.8 -16.2 59.6 -16.3 60.2 -15.35 60.8 -14.6 Q60.2 -13.7 59.6 -13.5 L61.1 -13.4 61.3 -12.65 61.5 -11.6 61.0 -9.2 Q59.5 -9.15 59.05 -8.6 L58.6 -7.9 57.2 -7.8 56.8 -8.1 56.8 -9.0 57.85 -9.9 58.8 -10.6 57.85 -11.35 Q57.6 -11.5 57.6 -12.0 57.6 -12.6 57.75 -13.0 L57.9 -13.5 57.5 -14.15 M55.2 -14.6 Q54.2 -14.6 54.6 -14.9 L54.95 -15.25 55.2 -15.4 Q55.9 -15.25 56.0 -15.0 L55.9 -14.7 55.2 -14.6 M39.1 -8.1 L39.1 -8.7 39.4 -9.0 40.4 -8.7 41.2 -8.0 41.1 -7.85 40.25 -7.7 39.4 -7.8 39.1 -8.1 M21.0 -1.3 L21.3 -1.2 23.6 -1.1 23.6 -1.3 23.45 -2.15 23.3 -2.7 Q20.9 -2.9 20.9 -1.95 L21.0 -1.3 M22.25 -17.4 L22.8 -17.5 Q23.15 -17.4 23.5 -16.3 L22.8 -15.8 21.5 -17.1 22.25 -17.4 M9.3 -5.8 L9.1 -6.3 9.4 -6.6 10.2 -6.45 10.6 -6.0 10.65 -5.85 9.95 -5.7 Q8.95 -5.7 9.3 -5.8 M19.1 -13.2 Q19.1 -13.85 19.3 -13.9 L20.0 -13.9 Q22.1 -12.85 23.6 -12.3 24.1 -12.8 24.6 -13.8 25.9 -13.9 26.7 -14.7 L25.7 -15.65 25.6 -15.7 25.2 -15.85 25.1 -16.65 25.15 -17.3 Q25.25 -17.25 25.4 -17.4 L26.4 -17.5 27.0 -17.0 27.3 -16.4 28.6 -16.1 Q29.3 -15.1 29.65 -15.2 L30.5 -15.1 31.6 -13.9 32.1 -12.4 31.5 -10.95 30.7 -9.4 30.5 -9.35 30.5 -9.2 32.2 -8.9 32.7 -8.3 32.8 -7.4 Q32.8 -6.5 32.2 -5.9 L31.2 -5.7 29.5 -5.6 29.4 -4.1 Q29.4 -3.5 31.8 -2.8 L33.2 -3.0 Q34.1 -2.55 34.7 -1.7 L35.2 -0.7 35.05 0.0 36.65 0.75 Q37.55 1.2 38.7 1.3 L39.6 0.7 39.4 -0.6 40.9 -0.6 40.8 -0.95 40.9 -1.5 40.25 -2.05 Q40.0 -2.45 40.0 -3.1 L40.1 -3.8 40.2 -3.8 41.6 -4.1 42.4 -3.45 Q43.1 -2.9 43.6 -2.9 44.2 -2.9 44.45 -3.3 L44.8 -3.9 44.3 -4.3 Q44.0 -4.65 44.0 -5.25 44.0 -5.85 44.45 -5.95 L45.1 -6.1 44.05 -6.7 43.6 -6.8 43.6 -7.05 43.1 -7.5 44.05 -7.8 44.8 -7.9 45.45 -7.5 49.35 -7.35 Q50.4 -6.2 50.4 -3.9 L50.15 -2.85 49.0 -1.5 46.8 -1.4 Q46.5 -1.5 46.5 -1.7 L45.85 -1.95 45.2 -2.0 Q44.6 -1.4 44.05 -0.25 43.5 0.85 43.5 1.3 43.5 2.2 44.25 3.45 44.5 4.4 42.2 5.3 L40.0 5.5 39.8 6.1 36.8 6.2 36.1 5.6 34.45 5.25 32.2 5.0 31.5 3.9 Q30.9 3.05 30.0 2.9 L27.7 2.8 Q26.7 2.8 26.5 3.2 26.3 3.45 25.85 5.0 L25.1 7.0 Q23.3 7.25 22.2 8.1 21.4 8.7 16.8 8.7 L15.65 8.4 14.4 7.9 13.2 6.1 11.8 5.8 11.45 5.2 11.0 4.6 7.65 4.1 5.4 3.8 3.9 5.1 1.3 5.3 0.1 6.7 -0.9 7.9 -4.0 8.0 -5.15 7.2 -6.4 7.4 -8.8 4.9 -9.4 4.5 Q-10.5 3.7 -12.1 3.7 L-14.25 4.0 Q-14.05 4.35 -14.2 4.8 L-15.2 4.9 -15.25 4.9 -15.4 4.9 -15.5 4.75 -19.65 2.95 Q-21.8 1.9 -22.5 0.6 -23.3 -1.0 -24.9 -1.4 -26.05 -1.7 -27.2 -2.35 -27.9 -2.75 -28.25 -3.15 L-33.1 -3.6 Q-33.7 -3.6 -34.25 -3.25 L-35.2 -2.8 -37.6 -2.8 Q-38.55 -3.1 -40.2 -4.35 L-41.7 -5.5 Q-44.8 -5.5 -46.1 -6.2 L-49.6 -8.3 -51.15 -10.35 Q-52.5 -12.4 -52.5 -12.8 -52.5 -13.25 -51.7 -13.85 -50.85 -14.5 -50.1 -14.5 -50.4 -15.4 -50.1 -16.15 L-49.7 -16.9 Q-49.7 -17.45 -51.0 -18.4 -52.7 -19.6 -55.1 -19.6 L-57.05 -19.3 -58.1 -18.6 -59.4 -18.6 Q-61.7 -19.7 -63.35 -21.4 -65.8 -23.85 -65.8 -26.65 L-65.55 -28.15 -64.2 -30.1 Q-65.85 -31.25 -64.2 -33.7 -62.6 -36.1 -60.7 -34.65 L-60.2 -34.8 Q-59.9 -34.5 -59.9 -33.7 L-61.5 -32.8 -60.8 -31.3 -60.2 -29.8 -60.25 -29.1 -60.5 -28.9 -61.5 -28.7 -61.75 -28.75 -61.8 -28.2 Q-61.8 -27.1 -60.7 -26.4 -59.2 -25.35 -55.2 -24.7 L-54.55 -23.7 -54.4 -23.45 -51.7 -23.35 -49.15 -23.15 -49.3 -23.9 -48.3 -24.1 -48.5 -23.0 -47.9 -23.0 -47.9 -22.5 -48.05 -22.35 -48.0 -22.35 -46.4 -22.6 -46.4 -22.45 -45.6 -22.6 Q-44.95 -22.6 -44.45 -22.2 L-44.0 -21.6 -41.65 -21.05 Q-41.1 -20.9 -41.1 -20.25 -41.1 -19.25 -41.3 -19.8 L-47.15 -20.15 Q-48.6 -20.2 -48.6 -19.1 -48.6 -18.35 -46.5 -16.85 -44.4 -15.35 -44.4 -14.1 L-44.8 -12.8 Q-44.85 -11.9 -43.0 -11.1 L-39.6 -10.5 -39.15 -10.4 -38.4 -10.6 -38.4 -10.85 -38.3 -11.45 -38.2 -11.3 -36.0 -11.0 -35.85 -11.2 Q-35.5 -11.75 -34.8 -11.9 L-34.55 -12.0 Q-34.3 -12.05 -34.3 -11.45 -34.3 -10.95 -33.95 -10.75 L-33.65 -10.35 -33.0 -11.0 Q-32.2 -11.55 -31.6 -11.5 L-31.45 -11.4 -31.7 -12.3 -30.7 -12.5 Q-30.7 -11.7 -30.9 -11.4 L-31.35 -11.4 -31.1 -11.3 Q-31.15 -9.4 -30.55 -8.45 -29.8 -7.2 -27.3 -5.9 -25.95 -5.25 -21.2 -4.0 -19.85 -3.65 -19.65 -2.8 -19.4 -1.8 -18.4 -1.4 L-16.5 -1.3 -13.95 -1.55 -7.6 -1.8 -7.4 -2.5 -8.4 -2.7 -8.5 -3.0 -7.4 -4.1 -6.8 -4.0 -6.8 -3.8 -6.7 -3.9 -6.5 -5.4 -5.6 -5.5 -5.35 -5.45 Q-5.1 -5.3 -5.1 -4.7 L-5.35 -3.9 -3.6 -4.0 -2.0 -3.9 -1.55 -4.8 Q-1.2 -5.35 -0.1 -5.4 L0.1 -4.5 -0.9 -2.65 -0.95 -2.5 -0.8 -2.05 Q-0.4 -1.2 0.4 -1.0 L1.2 -0.9 Q2.65 -1.85 4.4 -1.9 4.7 -1.55 5.3 -1.45 L9.85 -1.55 10.2 -2.05 10.6 -2.9 10.7 -2.9 10.85 -3.2 Q11.2 -3.9 13.4 -4.5 L13.2 -4.8 11.7 -6.0 11.5 -6.3 14.6 -6.7 18.7 -6.3 18.8 -5.4 Q18.85 -4.85 19.2 -4.5 L21.1 -4.4 22.35 -5.6 22.7 -6.4 22.3 -7.6 Q21.9 -8.3 21.9 -8.8 21.9 -9.4 22.25 -9.8 L22.7 -10.3 20.15 -11.9 Q19.1 -12.55 19.1 -13.2" fill="#afbfc2" fill-rule="evenodd" stroke="none"/>
    </g>
  </defs>
</svg>
