<?xml version="1.0" encoding="UTF-8" standalone="no"?>
<svg xmlns:ffdec="https://www.free-decompiler.com/flash" xmlns:xlink="http://www.w3.org/1999/xlink" ffdec:objectType="frame" height="54.65px" width="130.4px" xmlns="http://www.w3.org/2000/svg">
  <g transform="matrix(1.0, 0.0, 0.0, 1.0, 68.3, 39.45)">
    <use ffdec:characterId="177" height="48.8" transform="matrix(1.0, 0.0, 0.0, 1.0, -68.3, -38.1)" width="130.4" xlink:href="#shape0"/>
  </g>
  <defs>
    <g id="shape0" transform="matrix(1.0, 0.0, 0.0, 1.0, 68.3, 38.1)">
      <path d="M-2.7 -2.4 L-2.8 -3.0 Q-2.55 -3.35 -2.0 -3.2 L-2.2 -2.3 -2.7 -2.4 M-9.3 -2.3 L-8.75 -2.6 -8.55 -2.65 -8.05 -2.2 -7.1 -1.45 Q-7.1 -0.45 -7.3 -1.0 L-8.8 -0.9 -9.2 -1.1 -9.3 -2.3 M-6.2 -3.1 Q-6.8 -3.2 -7.2 -3.8 L-7.0 -4.1 -6.0 -4.0 -6.2 -3.1 M-34.0 -8.4 L-34.2 -7.5 -36.0 -6.9 -36.2 -7.4 -34.95 -8.1 -34.0 -8.4 M-34.8 -9.7 L-34.75 -9.9 -34.7 -9.35 Q-34.7 -8.75 -34.85 -8.7 L-35.0 -8.6 -35.8 -8.6 -36.1 -9.5 -35.8 -9.8 -34.8 -9.7 M-32.6 -9.5 L-32.1 -9.3 -32.6 -8.7 Q-33.3 -8.8 -33.4 -9.1 L-32.6 -9.5 M-54.7 -23.05 Q-54.7 -22.05 -54.9 -22.6 L-55.8 -22.6 Q-56.1 -22.9 -56.1 -23.5 L-55.1 -23.65 Q-54.7 -23.65 -54.7 -23.05 M-44.3 -21.8 L-44.3 -21.3 Q-44.5 -21.0 -45.2 -20.9 -45.55 -21.0 -45.7 -21.5 L-44.3 -21.8 M-42.5 -20.2 Q-43.85 -20.5 -44.0 -21.0 L-43.8 -21.3 -42.4 -21.4 -42.3 -20.65 Q-42.3 -19.65 -42.5 -20.2 M-62.5 -33.4 L-63.0 -33.4 Q-63.3 -33.7 -63.3 -34.3 L-62.3 -34.5 Q-62.3 -33.7 -62.5 -33.4 M-45.1 -31.7 L-45.3 -31.2 -44.7 -31.1 -44.6 -30.3 Q-44.6 -30.0 -44.9 -29.7 -45.85 -29.8 -46.15 -30.3 L-46.4 -31.0 -45.95 -31.15 -46.1 -31.5 -45.1 -31.7 M-55.6 -38.1 L-55.6 -37.3 Q-56.35 -36.35 -57.25 -36.3 L-60.0 -36.1 Q-61.2 -36.4 -61.3 -37.0 -60.8 -37.6 -60.8 -37.9 L-57.45 -37.95 -55.6 -38.1 M-55.2 -37.8 L-55.0 -38.1 -54.0 -38.0 -54.2 -37.1 Q-54.8 -37.2 -55.2 -37.8 M-52.6 -37.4 L-51.8 -37.25 -51.4 -36.8 -51.35 -36.65 -52.05 -36.5 -52.7 -36.6 -52.9 -37.1 -52.6 -37.4 M1.8 1.7 Q1.5 1.25 1.5 0.5 L2.1 0.7 Q2.65 0.9 2.7 1.1 L2.2 1.7 1.8 1.7 M17.5 4.8 L17.4 4.6 17.4 4.8 17.5 4.8 M17.7 1.7 L17.4 1.25 17.4 1.8 17.7 1.7 M50.7 -7.1 L51.7 -7.3 Q51.7 -6.8 51.2 -6.6 50.8 -6.8 50.7 -7.1 M45.9 -3.1 L46.2 -3.4 47.3 -3.2 47.3 -3.55 47.5 -5.7 50.25 -6.05 52.3 -6.3 52.3 -3.6 51.3 -2.35 50.4 -1.1 48.4 -1.1 47.95 -1.35 47.2 -1.1 45.9 -1.6 45.7 -2.35 45.9 -3.1 M46.2 -6.7 L47.0 -6.4 Q47.0 -5.55 46.4 -5.3 L45.8 -5.8 Q45.8 -6.3 46.2 -6.7 M57.0 -14.6 L57.8 -14.45 58.2 -14.0 58.25 -13.85 57.55 -13.7 Q56.55 -13.7 56.9 -13.8 L56.7 -14.3 57.0 -14.6 M59.1 -15.5 L59.4 -15.7 Q61.4 -15.3 61.4 -14.3 L61.3 -13.4 60.55 -13.3 61.25 -12.45 Q62.1 -11.2 62.1 -10.45 L61.85 -9.15 61.5 -8.2 59.3 -7.95 58.0 -7.7 Q57.0 -7.7 57.5 -8.2 57.6 -7.5 57.6 -8.5 57.6 -9.15 58.45 -9.25 L59.6 -9.3 59.85 -9.4 59.6 -9.5 59.4 -10.1 59.5 -10.4 60.95 -10.5 60.7 -11.5 Q58.95 -11.6 58.85 -12.35 L59.1 -13.8 59.7 -13.85 59.5 -14.05 Q59.0 -14.5 59.0 -14.8 L59.1 -15.5 M26.3 -1.5 L27.3 -1.7 27.4 -0.95 Q27.4 0.05 27.1 -0.5 26.4 -0.6 26.2 -0.9 L26.3 -1.5 M23.4 -4.2 L22.0 -3.1 21.5 -3.3 21.3 -3.8 21.6 -4.7 Q23.0 -4.85 23.4 -4.2 M24.6 -3.5 L24.6 -3.9 Q26.1 -6.75 26.8 -3.9 26.2 -3.3 25.25 -3.3 24.65 -3.3 24.6 -3.5 M22.5 -11.7 Q22.5 -11.2 22.0 -11.0 21.5 -11.2 21.5 -11.5 L22.5 -11.7 M30.9 -13.4 L30.9 -12.9 Q30.7 -12.6 29.6 -12.5 29.2 -12.7 29.1 -13.0 29.55 -13.65 30.9 -13.4 M30.8 -12.5 L31.6 -12.6 32.1 -12.35 32.35 -11.9 Q33.2 -11.75 33.5 -11.05 L33.6 -9.3 33.4 -7.5 31.25 -6.9 Q30.25 -6.65 29.6 -6.1 L27.6 -6.1 Q27.15 -6.25 26.75 -6.65 L25.9 -7.4 24.2 -7.4 Q23.9 -7.55 22.3 -10.4 22.3 -11.0 22.45 -11.05 L22.6 -11.0 23.2 -11.1 24.25 -10.45 25.3 -9.2 26.4 -9.2 27.0 -10.1 28.85 -10.1 29.0 -10.2 29.7 -10.2 31.0 -10.4 30.8 -12.5 M16.2 -2.3 Q17.0 -2.3 17.5 -1.6 17.3 -1.3 16.8 -1.1 16.1 -1.3 15.8 -1.7 L16.2 -2.3 M16.9 -0.7 L17.6 -0.7 Q18.25 -0.35 18.65 0.55 L19.9 2.4 20.05 2.05 Q20.35 1.65 20.8 1.6 L21.25 1.65 Q21.7 1.8 21.7 2.4 L21.7 2.45 22.0 2.4 Q23.1 2.65 23.25 3.2 23.4 3.7 24.4 3.7 26.0 3.7 26.4 3.3 26.0 2.5 25.95 1.85 25.85 0.5 27.6 0.5 29.05 0.5 29.2 0.1 L28.9 -0.75 Q28.8 -1.2 29.0 -1.4 30.15 -1.5 30.9 -2.0 L30.7 -2.2 29.45 -3.3 28.3 -4.3 Q29.55 -4.7 32.85 -3.25 36.2 -1.8 36.2 -0.6 36.2 0.0 35.3 0.65 L33.7 1.7 Q34.0 2.0 35.8 2.3 L36.6 3.15 37.2 3.6 38.4 3.6 38.5 3.3 Q38.75 3.0 39.7 2.5 39.7 1.9 40.2 1.4 L42.1 1.4 42.05 2.0 Q42.05 2.35 42.5 2.4 L42.8 2.1 Q42.8 2.05 43.05 1.9 L43.3 1.2 Q42.2 -0.4 42.2 -0.85 L42.2 -1.5 42.3 -1.6 43.6 -1.7 Q44.2 -1.2 44.3 -1.2 L44.55 0.15 44.6 0.6 45.4 1.0 44.7 1.9 45.65 2.8 45.7 3.85 45.6 5.0 45.1 5.8 43.6 5.9 Q42.75 6.75 41.3 7.25 L38.6 7.7 37.9 6.5 35.8 6.3 34.2 6.6 33.1 5.55 32.3 4.35 32.1 3.45 31.8 3.1 Q31.4 3.5 28.9 4.0 L28.9 4.3 Q29.5 5.55 28.55 6.8 L27.1 9.0 25.3 9.3 25.1 10.2 22.15 10.55 20.4 10.7 Q18.85 10.7 17.75 10.1 16.35 9.3 15.0 9.0 L14.75 7.95 14.4 6.9 Q12.65 6.75 12.75 6.2 12.85 5.45 12.4 5.3 L11.2 5.2 Q10.5 5.55 10.35 6.1 L8.45 6.3 6.5 6.2 4.6 6.3 Q4.6 8.0 3.9 8.7 L2.2 8.9 1.9 9.5 -1.2 9.6 -2.75 8.35 -3.25 7.7 Q-3.65 7.75 -4.15 8.15 -4.95 8.85 -6.4 9.0 -9.35 7.5 -10.2 6.6 L-10.8 5.35 Q-11.35 4.3 -12.1 4.3 L-14.8 4.8 Q-14.75 5.9 -15.15 6.35 L-15.8 6.9 -17.6 7.0 Q-18.45 6.45 -21.25 6.2 -23.55 5.95 -25.2 3.9 -25.75 3.2 -25.5 1.65 L-25.5 1.6 -25.8 1.7 -26.85 0.85 -28.6 0.5 -28.8 0.2 Q-28.7 0.0 -27.95 -0.1 L-27.65 -0.15 -28.4 -1.2 Q-30.25 -1.45 -31.35 -2.05 L-32.4 -2.8 -35.5 -2.9 Q-36.75 -1.65 -40.35 -2.1 L-46.4 -3.4 -47.9 -4.8 Q-51.25 -5.2 -52.3 -7.1 -52.8 -8.05 -52.8 -10.2 -53.9 -8.95 -54.4 -9.95 L-54.7 -11.25 -54.35 -12.4 -53.8 -13.3 Q-52.3 -12.75 -51.4 -14.6 L-52.15 -15.1 -52.7 -15.75 -52.5 -16.55 -52.4 -16.8 Q-53.4 -16.95 -54.1 -17.85 L-55.0 -18.9 -57.5 -19.2 Q-57.5 -19.5 -58.55 -19.7 L-59.6 -19.8 -59.5 -19.7 Q-59.25 -19.1 -59.8 -18.3 L-62.0 -18.2 -63.55 -18.65 -65.8 -19.1 Q-66.3 -19.3 -67.1 -20.75 -67.9 -22.15 -67.9 -22.7 L-67.6 -23.75 Q-67.35 -24.2 -67.5 -24.5 L-68.0 -25.25 -68.3 -26.3 -68.1 -27.5 -67.7 -28.4 Q-66.65 -28.25 -65.1 -29.3 L-67.2 -32.6 Q-65.9 -33.15 -65.45 -33.55 L-64.4 -34.5 -64.4 -34.4 -64.2 -34.65 Q-64.1 -34.8 -64.1 -34.2 L-64.15 -34.05 -63.7 -33.7 -64.8 -32.2 Q-64.8 -31.45 -64.0 -30.5 -63.2 -29.5 -63.2 -28.65 -63.2 -28.15 -63.7 -27.65 L-64.2 -26.7 Q-64.2 -26.05 -63.45 -24.95 L-63.4 -25.0 -62.3 -25.1 -62.2 -24.3 Q-62.2 -24.05 -62.45 -23.75 L-62.25 -23.7 -60.9 -23.8 Q-59.8 -23.75 -59.8 -22.9 L-59.9 -22.2 -60.2 -22.1 -59.4 -22.0 -58.05 -22.25 -56.4 -22.6 -55.9 -21.7 Q-55.7 -21.1 -54.4 -21.1 L-51.6 -21.5 -51.0 -21.95 -50.15 -22.15 -50.2 -22.3 -49.8 -22.9 -49.15 -22.75 -48.3 -22.9 -48.4 -22.5 -48.0 -22.2 -48.1 -21.95 -47.2 -21.8 Q-46.8 -21.6 -46.8 -21.0 -47.0 -20.7 -50.0 -20.5 L-51.6 -19.2 Q-51.05 -18.35 -49.0 -17.45 -47.2 -16.7 -47.2 -16.1 -47.2 -15.1 -47.4 -15.5 L-48.8 -15.3 Q-48.8 -13.95 -49.4 -12.8 L-50.0 -11.25 Q-50.0 -10.05 -48.55 -9.25 -46.7 -8.3 -43.0 -8.5 -42.05 -7.1 -40.8 -7.1 -40.35 -7.1 -38.85 -7.65 L-37.2 -8.2 Q-36.6 -8.2 -36.5 -7.9 L-36.4 -7.4 -36.8 -7.1 Q-36.1 -7.05 -35.4 -6.1 L-36.7 -5.25 Q-35.85 -4.8 -34.9 -4.8 L-33.15 -5.1 -31.4 -5.3 Q-30.95 -4.55 -29.05 -4.0 L-26.4 -3.5 -25.45 -3.65 -25.2 -3.8 -24.4 -3.0 -24.9 -2.6 -25.2 -2.3 -22.45 -0.35 Q-20.95 0.75 -19.2 1.6 L-17.5 1.6 -17.0 0.7 -13.8 0.7 -12.8 1.6 -10.9 1.7 -9.8 0.8 -6.5 0.5 -5.8 -0.4 Q-5.55 -0.9 -4.8 -1.0 L-4.5 -0.7 -4.4 -0.8 -4.4 -1.4 -3.75 -1.7 -3.2 -1.8 -3.0 -1.9 Q-2.8 -1.9 -2.8 -1.3 -2.8 -0.3 -3.0 -0.7 L-3.8 -0.6 -4.45 -0.65 Q-4.0 -0.05 -4.0 0.95 -4.0 1.45 -4.4 1.45 -4.8 1.4 -4.8 1.9 L-4.8 2.55 -5.3 2.65 -5.2 2.9 -4.3 3.45 -3.1 3.8 -2.6 3.7 -1.4 3.7 -1.05 3.25 0.0 2.6 0.2 2.3 2.0 2.3 2.0 3.2 4.0 3.3 4.75 2.65 Q5.1 2.3 5.7 2.3 L6.55 2.4 7.7 2.6 9.2 0.7 9.9 1.3 Q9.9 2.5 10.3 2.9 L11.9 3.3 14.5 3.3 14.7 2.4 14.7 2.3 Q14.7 1.5 15.35 1.1 L17.2 0.95 16.7 0.0 Q16.7 -0.65 16.9 -0.7 M13.9 -3.8 L14.6 -4.7 15.3 -4.6 Q15.6 -4.45 15.6 -3.8 15.6 -2.8 15.4 -3.3 L14.0 -3.5 13.9 -3.8 M20.1 -10.75 Q19.9 -10.95 19.9 -11.6 19.9 -12.2 20.05 -12.25 L20.2 -12.2 21.2 -12.2 21.25 -11.35 Q21.3 -10.9 21.5 -10.7 21.4 -10.4 20.7 -10.4 L20.1 -10.75 M8.6 -0.1 L9.5 -0.3 9.2 0.4 8.6 -0.1" fill="#afbfc2" fill-rule="evenodd" stroke="none"/>
    </g>
  </defs>
</svg>
