<?xml version="1.0" encoding="UTF-8" standalone="no"?>
<svg xmlns:ffdec="https://www.free-decompiler.com/flash" xmlns:xlink="http://www.w3.org/1999/xlink" ffdec:objectType="frame" height="201.95px" width="77.2px" xmlns="http://www.w3.org/2000/svg">
  <g transform="matrix(1.0, 0.0, 0.0, 1.0, 39.35, 4.95)">
    <use ffdec:characterId="2610" height="11.95" transform="matrix(0.0, -7.0, 5.1281, 0.0, -31.3906, 190.7)" width="27.25" xlink:href="#shape0"/>
    <use ffdec:characterId="651" height="1.25" transform="matrix(0.0, -1.4933, 17.2306, 0.0, -23.5383, 51.9087)" width="19.7" xlink:href="#shape1"/>
    <use ffdec:characterId="651" height="1.25" transform="matrix(0.0, -1.5999, 18.4611, 0.0, -17.1764, 182.9592)" width="19.7" xlink:href="#shape1"/>
  </g>
  <defs>
    <g id="shape0" transform="matrix(1.0, 0.0, 0.0, 1.0, 13.75, 5.0)">
      <path d="M1.95 -3.1 Q1.4 -2.65 0.5 -2.55 L0.35 -2.55 0.15 -2.5 -1.35 -2.0 Q-2.3 -1.7 -2.8 -1.5 -3.3 -1.3 -5.75 0.25 L-7.6 1.35 -7.75 1.55 Q-8.6 2.5 -10.95 2.5 -11.4 2.5 -11.5 2.3 -12.3 2.1 -13.0 1.2 -13.75 0.15 -13.75 -0.5 -13.75 -2.2 -12.2 -3.05 -10.4 -4.05 -5.6 -4.65 L-5.6 -4.7 -3.3 -4.7 -1.45 -4.9 Q2.05 -5.2 2.35 -4.2 2.4 -4.1 2.4 -4.0 2.4 -3.55 1.95 -3.1 M5.45 -3.55 Q6.4 -4.9 9.15 -4.7 11.2 -4.4 12.2 -3.3 12.55 -2.95 12.9 -2.2 L13.1 -2.05 Q13.5 -1.75 13.5 -1.4 13.5 -0.55 12.95 0.7 12.25 2.2 11.05 3.5 7.8 6.95 2.4 6.95 0.2 6.95 -0.7 6.4 -1.25 6.1 -1.25 5.65 -1.25 5.35 -0.15 4.75 1.35 4.0 2.2 3.5 4.85 1.9 5.45 0.2 5.3 -0.1 5.2 -0.6 5.05 -1.15 5.0 -1.65 5.0 -2.9 5.45 -3.55 M0.0 -4.35 L0.0 -4.35" fill="#59a5ff" fill-opacity="0.5019608" fill-rule="evenodd" stroke="none"/>
      <path d="M5.2 -1.55 Q5.2 -2.45 5.7 -3.2 6.5 -4.35 8.25 -4.5 11.0 -4.5 12.3 -3.2 13.1 -2.35 13.1 -1.25 13.1 -0.15 12.45 1.0 11.75 2.2 10.5 3.2 9.65 3.95 7.65 4.95 7.05 5.25 5.5 5.8 3.65 6.4 3.65 6.15 2.4 6.15 1.75 5.95 1.0 5.7 1.0 5.15 1.0 4.95 1.8 4.5 2.9 3.85 3.55 3.45 6.05 1.8 6.05 0.0 6.05 -0.3 5.95 -0.45 L5.75 -0.35 Q5.7 -0.4 5.45 -0.9 5.2 -1.4 5.2 -1.55 M-11.65 -2.85 Q-9.75 -3.85 -6.05 -4.3 -3.9 -4.4 -2.55 -3.95 -1.35 -3.6 -1.35 -3.15 -1.35 -3.0 -3.05 -2.15 -5.15 -1.1 -6.0 -0.45 -6.95 0.3 -7.6 1.3 -7.8 1.65 -8.35 2.1 -9.25 2.75 -10.15 2.75 -11.9 2.75 -12.8 1.1 -13.4 0.1 -13.4 -0.8 -13.4 -1.95 -11.65 -2.85" fill="#8cc1ff" fill-opacity="0.7529412" fill-rule="evenodd" stroke="none"/>
      <path d="M11.5 -3.05 Q12.65 -2.05 12.65 -0.75 12.65 0.4 11.85 1.45 10.5 3.25 7.6 3.25 6.65 3.25 6.35 2.85 6.25 2.75 6.25 2.6 L6.25 2.5 Q6.25 2.25 6.7 1.75 7.15 1.25 7.15 1.05 7.15 0.95 6.9 0.65 L6.3 0.0 Q5.45 -0.95 5.45 -1.95 5.45 -3.3 6.6 -3.9 7.6 -4.4 9.05 -4.15 10.5 -3.9 11.5 -3.05 M-12.15 -1.9 Q-11.85 -2.15 -11.5 -2.3 -9.9 -3.25 -8.05 -3.2 -6.5 -3.4 -5.9 -2.85 -5.55 -2.55 -5.55 -2.0 -5.55 -1.4 -6.1 -0.9 L-7.45 0.35 -7.75 0.9 Q-8.0 1.35 -8.2 1.6 -8.8 2.3 -9.9 2.45 L-10.7 2.55 Q-11.95 2.55 -12.55 1.3 -13.15 0.45 -13.15 -0.45 -13.15 -1.05 -12.4 -1.7 L-12.15 -1.9" fill="#bfdcff" fill-opacity="0.7529412" fill-rule="evenodd" stroke="none"/>
    </g>
    <g id="shape1" transform="matrix(1.0, 0.0, 0.0, 1.0, 9.85, 1.25)">
      <path d="M6.95 -0.2 L0.0 0.0 -6.95 -0.2 Q-9.85 -0.35 -9.85 -0.65 -9.85 -0.9 -6.95 -1.05 L0.0 -1.25 6.95 -1.05 Q9.85 -0.9 9.85 -0.65 9.85 -0.35 6.95 -0.2" fill="#ffffff" fill-rule="evenodd" stroke="none"/>
    </g>
  </defs>
</svg>
