<?xml version="1.0" encoding="UTF-8" standalone="no"?>
<svg xmlns:ffdec="https://www.free-decompiler.com/flash" xmlns:xlink="http://www.w3.org/1999/xlink" ffdec:objectType="frame" height="201.95px" width="77.2px" xmlns="http://www.w3.org/2000/svg">
  <g transform="matrix(1.0, 0.0, 0.0, 1.0, 39.35, 4.95)">
    <use ffdec:characterId="2602" height="12.2" transform="matrix(0.0, -7.0, 5.1281, 0.0, -36.2624, 197.0)" width="28.85" xlink:href="#shape0"/>
    <use ffdec:characterId="651" height="1.25" transform="matrix(0.0, -2.1459, 24.7611, 0.0, -7.8013, 155.2872)" width="19.7" xlink:href="#shape1"/>
    <use ffdec:characterId="651" height="1.25" transform="matrix(0.0, -1.2799, 14.7687, 0.0, -29.2609, 78.3574)" width="19.7" xlink:href="#shape1"/>
  </g>
  <defs>
    <g id="shape0" transform="matrix(1.0, 0.0, 0.0, 1.0, 14.65, 5.95)">
      <path d="M5.1 -5.95 Q9.55 -5.95 12.05 -4.6 14.2 -3.4 14.2 -1.7 14.2 -0.95 13.55 0.2 12.8 1.5 11.7 2.65 8.8 5.6 5.4 5.6 4.4 5.6 3.95 5.35 3.5 5.1 3.5 4.6 3.5 4.35 3.95 3.95 L4.9 3.2 Q6.3 2.1 6.3 1.05 6.3 0.7 5.5 0.5 L3.75 0.1 Q2.05 -0.3 1.5 -1.0 1.25 -1.2 1.1 -1.45 0.9 -1.8 0.9 -2.35 0.9 -3.8 1.35 -4.45 2.05 -5.35 4.1 -5.75 4.6 -5.95 5.1 -5.95 M-12.75 -3.2 Q-11.15 -4.35 -8.6 -4.85 -6.25 -5.3 -4.45 -5.0 -2.55 -4.7 -2.55 -3.75 -2.55 -3.1 -3.05 -2.7 -3.35 -2.5 -4.15 -2.15 -4.95 -1.85 -5.25 -1.6 -5.6 -1.35 -5.7 -0.95 -5.25 -0.9 -4.6 -0.7 -3.25 -0.25 -3.0 0.2 -2.35 1.15 -2.25 1.5 -2.1 1.8 -2.1 2.6 -2.1 4.05 -2.7 4.8 -3.75 6.25 -6.75 6.25 -8.0 6.25 -9.1 5.9 -9.75 5.75 -10.05 5.55 -12.4 5.1 -13.7 2.9 -14.5 1.5 -14.65 -0.05 -14.65 -1.9 -12.75 -3.2" fill="#59a5ff" fill-opacity="0.5019608" fill-rule="evenodd" stroke="none"/>
      <path d="M2.25 -0.7 Q1.25 -1.1 1.25 -2.2 L1.2 -3.2 Q1.25 -3.85 1.6 -4.25 2.5 -5.4 5.95 -5.4 10.1 -5.4 11.95 -3.95 13.3 -2.9 13.3 -1.25 13.3 -0.85 13.05 -0.15 12.7 0.8 12.2 1.6 10.75 3.85 8.4 3.85 7.3 3.85 6.9 3.5 6.65 3.35 6.65 3.0 6.65 2.7 7.2 2.05 7.7 1.45 7.7 1.1 7.7 0.15 6.7 -0.15 6.15 -0.3 4.45 -0.35 2.9 -0.45 2.25 -0.7 M-6.8 -1.1 Q-6.8 -0.8 -6.05 -0.65 L-4.5 -0.45 Q-2.2 0.0 -2.2 2.05 L-2.2 3.05 Q-2.25 3.85 -2.5 4.45 -3.25 6.2 -5.8 6.2 -7.45 6.2 -9.45 5.3 -11.25 4.5 -12.0 3.7 -13.05 2.5 -13.45 1.75 -13.85 1.0 -13.85 0.2 -13.85 -1.15 -12.5 -2.3 -10.85 -3.65 -7.95 -4.0 -6.5 -4.1 -5.75 -3.55 -5.2 -3.15 -5.2 -2.65 -5.2 -2.2 -6.0 -1.75 -6.8 -1.3 -6.8 -1.1" fill="#8cc1ff" fill-opacity="0.7529412" fill-rule="evenodd" stroke="none"/>
      <path d="M5.4 -5.05 Q7.95 -4.7 9.05 -3.6 9.85 -2.8 9.85 -1.65 9.85 -1.25 9.8 -1.1 9.65 -0.8 9.2 -0.8 L9.15 -0.8 Q9.1 -0.75 9.05 -0.75 8.9 -0.75 8.45 -0.95 L8.35 -1.0 7.35 -1.1 6.3 -0.9 4.65 -0.65 4.15 -0.6 3.9 -0.65 3.75 -0.65 Q3.85 -0.65 3.8 -0.6 3.75 -0.55 3.75 -0.65 3.75 -0.5 3.4 -0.6 3.1 -0.7 2.65 -1.0 1.6 -1.8 1.6 -2.65 1.6 -3.55 2.2 -4.2 2.9 -4.95 4.35 -5.0 L5.4 -5.05 M-8.1 -0.95 Q-6.85 -0.65 -6.0 -0.6 -5.65 -0.6 -4.7 -0.35 L-3.7 -0.1 Q-3.05 0.1 -3.0 0.4 -2.95 0.7 -2.85 0.95 -2.75 1.15 -2.55 1.95 -2.35 2.85 -2.35 3.15 -2.35 3.8 -3.25 4.8 -4.3 6.0 -5.7 6.0 -6.4 6.0 -8.2 5.05 -9.9 4.15 -10.6 3.5 -12.45 1.85 -12.45 0.35 -12.45 -0.25 -12.0 -0.9 -11.3 -1.85 -10.05 -1.55 L-8.1 -0.95" fill="#bfdcff" fill-opacity="0.7529412" fill-rule="evenodd" stroke="none"/>
    </g>
    <g id="shape1" transform="matrix(1.0, 0.0, 0.0, 1.0, 9.85, 1.25)">
      <path d="M6.95 -0.2 L0.0 0.0 -6.95 -0.2 Q-9.85 -0.35 -9.85 -0.65 -9.85 -0.9 -6.95 -1.05 L0.0 -1.25 6.95 -1.05 Q9.85 -0.9 9.85 -0.65 9.85 -0.35 6.95 -0.2" fill="#ffffff" fill-rule="evenodd" stroke="none"/>
    </g>
  </defs>
</svg>
