<?xml version="1.0" encoding="UTF-8" standalone="no"?>
<svg xmlns:ffdec="https://www.free-decompiler.com/flash" xmlns:xlink="http://www.w3.org/1999/xlink" ffdec:objectType="frame" height="201.95px" width="77.2px" xmlns="http://www.w3.org/2000/svg">
  <g transform="matrix(1.0, 0.0, 0.0, 1.0, 39.35, 4.95)">
    <use ffdec:characterId="2611" height="13.3" transform="matrix(0.0, -7.0, 5.1281, 0.0, -38.3136, 181.6)" width="25.35" xlink:href="#shape0"/>
    <use ffdec:characterId="651" height="1.25" transform="matrix(0.0, -2.4189, 27.9111, 0.0, -7.2389, 139.1259)" width="19.7" xlink:href="#shape1"/>
    <use ffdec:characterId="651" height="1.25" transform="matrix(0.0, -1.1732, 13.5382, 0.0, -29.6728, 92.3565)" width="19.7" xlink:href="#shape1"/>
  </g>
  <defs>
    <g id="shape0" transform="matrix(1.0, 0.0, 0.0, 1.0, 12.45, 6.35)">
      <path d="M1.45 -5.95 Q3.55 -6.55 6.1 -6.25 9.0 -5.95 10.75 -4.65 12.9 -3.15 12.9 -0.65 12.9 -0.25 12.8 0.15 L12.1 1.5 Q11.35 2.75 10.0 3.55 9.15 4.05 8.0 4.45 7.75 4.3 7.55 4.1 7.2 3.7 7.2 3.45 7.2 3.0 7.65 1.9 8.1 0.8 8.1 0.25 8.1 -0.2 5.8 -0.15 L2.4 0.0 Q0.35 0.0 -0.6 -1.35 -1.25 -2.2 -1.25 -3.05 -1.25 -5.25 0.45 -5.6 0.9 -5.8 1.45 -5.95 M0.6 3.95 Q0.6 5.05 -0.3 5.85 -1.6 6.95 -4.55 6.95 -8.65 6.95 -10.9 4.15 -11.7 3.15 -12.1 1.95 -12.45 0.95 -12.45 0.25 -12.45 -0.85 -11.55 -2.0 -10.75 -2.95 -9.55 -3.6 -8.35 -4.25 -7.5 -4.25 -6.6 -4.2 -6.6 -3.4 -6.6 -3.25 -6.7 -2.8 L-6.85 -2.25 Q-6.85 -1.85 -6.1 -1.55 -5.6 -1.35 -4.3 -1.05 -1.4 -0.3 -0.75 0.3 -0.25 0.75 0.2 2.15 0.6 3.35 0.6 3.95" fill="#59a5ff" fill-opacity="0.5019608" fill-rule="evenodd" stroke="none"/>
      <path d="M3.05 -0.55 L1.5 -0.6 Q0.4 -0.65 -0.25 -1.3 -0.8 -1.8 -0.8 -2.3 -0.8 -3.15 -0.75 -3.45 -0.6 -4.25 -0.05 -4.75 1.55 -6.2 6.6 -5.5 9.6 -4.65 10.85 -3.45 11.85 -2.5 11.85 -1.05 11.85 -0.25 11.6 0.35 11.15 1.55 9.9 1.55 9.3 1.55 9.15 1.15 9.1 1.05 9.05 0.3 9.05 -0.25 8.75 -0.55 8.35 -0.95 7.3 -0.95 L6.0 -0.8 3.15 -0.55 3.05 -0.55 M1.2 1.9 Q1.4 2.4 1.4 2.6 L1.2 3.4 Q1.0 4.2 1.0 4.4 1.0 5.05 0.15 5.8 -1.0 6.85 -2.9 6.8 L-4.55 6.8 Q-7.8 6.55 -9.95 4.45 -10.8 3.6 -11.3 2.7 -11.75 1.85 -11.75 1.2 -11.75 0.35 -11.4 -0.4 -11.05 -1.25 -10.3 -2.05 -9.8 -2.6 -9.2 -2.45 -8.75 -2.3 -8.45 -1.8 -8.25 -1.45 -7.25 -1.05 -6.25 -0.65 -5.6 -0.65 L-4.15 -0.75 -3.4 -0.85 -2.25 -0.95 Q-0.6 -0.95 0.55 0.7 0.95 1.25 1.2 1.9" fill="#8cc1ff" fill-opacity="0.7529412" fill-rule="evenodd" stroke="none"/>
      <path d="M1.9 -5.25 Q4.85 -5.3 6.55 -4.3 7.95 -3.45 7.95 -2.4 7.95 -1.6 5.9 -1.7 L5.55 -1.7 Q4.6 -1.55 3.85 -1.35 2.55 -1.05 1.5 -1.05 0.55 -1.05 -0.05 -1.95 -0.35 -2.45 -0.4 -2.95 -0.4 -3.75 0.25 -4.5 0.85 -5.15 1.75 -5.2 L1.9 -5.25 M0.25 5.1 Q-0.8 6.65 -3.1 6.65 -6.3 6.65 -8.4 4.1 -9.1 3.25 -9.6 2.3 -9.95 1.55 -9.95 1.3 -9.95 0.7 -9.7 0.4 -9.25 -0.15 -7.85 -0.15 L-6.35 -0.3 Q-5.25 -0.5 -3.75 -0.6 -2.05 -0.75 -1.5 -0.45 L-1.1 -0.2 Q-0.85 0.05 -0.6 0.15 0.05 0.7 0.5 1.6 0.9 2.4 0.9 3.1 0.9 4.15 0.25 5.1" fill="#bfdcff" fill-opacity="0.7529412" fill-rule="evenodd" stroke="none"/>
    </g>
    <g id="shape1" transform="matrix(1.0, 0.0, 0.0, 1.0, 9.85, 1.25)">
      <path d="M6.95 -0.2 L0.0 0.0 -6.95 -0.2 Q-9.85 -0.35 -9.85 -0.65 -9.85 -0.9 -6.95 -1.05 L0.0 -1.25 6.95 -1.05 Q9.85 -0.9 9.85 -0.65 9.85 -0.35 6.95 -0.2" fill="#ffffff" fill-rule="evenodd" stroke="none"/>
    </g>
  </defs>
</svg>
