<?xml version="1.0" encoding="UTF-8" standalone="no"?>
<svg xmlns:ffdec="https://www.free-decompiler.com/flash" xmlns:xlink="http://www.w3.org/1999/xlink" ffdec:objectType="frame" height="201.95px" width="77.2px" xmlns="http://www.w3.org/2000/svg">
  <g transform="matrix(1.0, 0.0, 0.0, 1.0, 39.35, 4.95)">
    <use ffdec:characterId="2612" height="14.5" transform="matrix(0.0, -7.0, 5.1281, 0.0, -39.3392, 172.15)" width="21.15" xlink:href="#shape0"/>
    <use ffdec:characterId="651" height="1.25" transform="matrix(0.0, -2.4189, 27.9111, 0.0, -6.4889, 100.6259)" width="19.7" xlink:href="#shape1"/>
    <use ffdec:characterId="651" height="1.25" transform="matrix(0.0, -1.1666, 13.4613, 0.0, -29.9766, 122.7413)" width="19.7" xlink:href="#shape1"/>
  </g>
  <defs>
    <g id="shape0" transform="matrix(1.0, 0.0, 0.0, 1.0, 11.1, 6.55)">
      <path d="M4.55 -2.2 L5.0 -2.25 4.7 -2.45 4.6 -2.35 4.55 -2.2 M10.05 -1.75 Q10.05 -1.35 10.0 -1.25 9.85 -0.95 9.2 -0.95 L6.3 -1.25 4.15 -1.15 Q5.35 -0.7 6.1 0.2 6.65 0.75 6.9 1.45 7.1 1.95 7.1 2.25 L7.1 3.6 Q7.05 4.6 6.8 5.35 6.05 7.5 3.25 7.95 L-0.75 7.95 Q-5.3 6.85 -8.2 4.9 -11.1 3.0 -11.1 1.2 -11.1 0.6 -10.95 -0.65 -10.8 -2.0 -10.65 -2.15 -9.9 -3.0 -9.55 -2.9 -9.35 -2.85 -9.05 -2.1 -8.65 -1.25 -8.2 -0.85 -7.45 -0.2 -6.15 -0.2 L-3.95 -0.4 Q-4.75 -0.75 -5.3 -1.4 -6.1 -2.35 -6.1 -3.25 -6.1 -4.4 -5.0 -5.35 -3.5 -6.55 -0.8 -6.55 3.1 -6.55 6.5 -5.15 10.05 -3.65 10.05 -1.75" fill="#59a5ff" fill-opacity="0.5019608" fill-rule="evenodd" stroke="none"/>
      <path d="M2.3 -1.65 Q1.5 -1.4 0.65 -1.15 -1.05 -0.65 -2.2 -0.65 -4.15 -0.65 -5.05 -1.75 -5.55 -2.4 -5.55 -3.0 -5.55 -3.95 -5.1 -4.35 -4.4 -5.1 -2.1 -5.6 L-0.6 -5.6 Q3.5 -5.4 5.65 -4.35 7.4 -3.55 7.4 -2.5 7.4 -2.3 5.55 -2.1 3.1 -1.85 2.3 -1.65 M6.15 5.4 Q4.85 7.65 1.4 7.65 -0.2 7.65 -2.15 7.05 -4.0 6.5 -5.65 5.5 -7.35 4.55 -8.3 3.45 -9.35 2.25 -9.35 1.15 -9.35 0.85 -9.25 0.55 -9.05 0.1 -8.6 0.1 -8.45 0.1 -8.35 0.15 L-8.1 0.3 Q-7.6 0.55 -6.25 0.55 -4.1 0.55 -2.2 -0.15 0.25 -1.0 2.0 -1.25 4.6 -1.1 5.9 0.35 6.85 1.4 6.85 2.7 6.85 4.25 6.15 5.4" fill="#8cc1ff" fill-opacity="0.7529412" fill-rule="evenodd" stroke="none"/>
      <path d="M0.2 -1.65 Q-1.2 -1.35 -2.6 -1.15 -3.85 -1.15 -4.35 -2.15 -4.6 -2.65 -4.6 -3.2 -4.6 -3.8 -3.95 -4.45 -3.15 -5.25 -2.0 -5.3 0.1 -5.55 1.7 -4.55 2.25 -4.2 2.65 -3.75 2.95 -3.4 2.95 -3.15 2.95 -2.3 0.2 -1.65 M-1.7 0.15 L0.8 -0.45 Q3.75 -1.25 5.3 0.45 5.8 1.0 6.1 1.85 6.3 2.45 6.3 2.8 6.3 3.15 6.2 3.75 6.1 4.35 6.1 4.6 6.1 4.8 5.75 5.25 5.4 5.7 4.9 6.1 3.5 7.25 2.1 7.25 -0.15 7.25 -2.75 5.65 -3.95 4.95 -4.65 4.15 -5.4 3.35 -5.4 2.7 -5.4 1.4 -3.65 0.75 -3.0 0.5 -1.7 0.15" fill="#bfdcff" fill-opacity="0.7529412" fill-rule="evenodd" stroke="none"/>
    </g>
    <g id="shape1" transform="matrix(1.0, 0.0, 0.0, 1.0, 9.85, 1.25)">
      <path d="M6.95 -0.2 L0.0 0.0 -6.95 -0.2 Q-9.85 -0.35 -9.85 -0.65 -9.85 -0.9 -6.95 -1.05 L0.0 -1.25 6.95 -1.05 Q9.85 -0.9 9.85 -0.65 9.85 -0.35 6.95 -0.2" fill="#ffffff" fill-rule="evenodd" stroke="none"/>
    </g>
  </defs>
</svg>
