<?xml version="1.0" encoding="UTF-8" standalone="no"?>
<svg xmlns:ffdec="https://www.free-decompiler.com/flash" xmlns:xlink="http://www.w3.org/1999/xlink" ffdec:objectType="frame" height="201.95px" width="77.2px" xmlns="http://www.w3.org/2000/svg">
  <g transform="matrix(1.0, 0.0, 0.0, 1.0, 39.35, 4.95)">
    <use ffdec:characterId="2605" height="13.25" transform="matrix(0.0, -7.0, 5.1281, 0.0, -35.4931, 183.7)" width="26.4" xlink:href="#shape0"/>
    <use ffdec:characterId="651" height="1.25" transform="matrix(0.0, -1.5999, 18.4611, 0.0, -17.1764, 40.9092)" width="19.7" xlink:href="#shape1"/>
    <use ffdec:characterId="651" height="1.25" transform="matrix(0.0, -1.4666, 16.923, 0.0, -23.7538, 169.7461)" width="19.7" xlink:href="#shape1"/>
  </g>
  <defs>
    <g id="shape0" transform="matrix(1.0, 0.0, 0.0, 1.0, 12.75, 5.8)">
      <path d="M3.0 -3.65 Q3.0 -3.0 -2.85 -0.3 -5.05 0.75 -7.05 1.5 -9.0 2.3 -9.35 2.3 -11.3 2.3 -12.2 0.6 -12.65 -0.2 -12.75 -1.1 -12.75 -3.5 -10.25 -4.75 -8.2 -5.75 -4.85 -5.8 -1.95 -5.8 0.55 -5.15 3.0 -4.45 3.0 -3.65 M13.65 -0.5 Q13.65 0.25 13.25 1.35 12.7 2.8 11.6 4.0 8.45 7.45 1.9 7.45 -0.5 7.45 -2.65 6.1 -3.45 5.6 -4.0 5.05 -4.45 4.55 -4.45 4.35 -4.45 2.95 -0.55 1.4 L2.55 0.25 Q4.3 -0.4 4.95 -0.75 10.4 -3.85 12.4 -3.25 13.15 -3.05 13.45 -2.2 13.65 -1.6 13.65 -0.5" fill="#59a5ff" fill-opacity="0.5019608" fill-rule="evenodd" stroke="none"/>
      <path d="M0.0 -2.45 Q-0.3 -2.25 -1.0 -2.1 L-2.45 -1.75 Q-3.4 -1.45 -4.2 -1.05 -5.2 -0.4 -6.15 0.15 -8.0 1.2 -8.85 1.2 -10.4 1.2 -11.25 0.2 -11.8 -0.55 -11.8 -1.15 -11.8 -2.3 -11.3 -3.15 -10.6 -4.35 -8.8 -4.8 -4.6 -5.9 -1.85 -5.05 -0.8 -4.7 -0.2 -4.15 0.35 -3.65 0.35 -3.15 0.35 -2.7 0.0 -2.45 M12.9 -2.1 Q13.25 -1.55 13.25 -0.8 13.25 1.5 11.1 3.45 8.55 5.7 3.7 6.75 L1.6 6.75 Q0.25 6.5 -0.75 5.5 -1.6 4.65 -1.6 3.95 -1.6 3.5 -1.3 3.25 -1.05 3.05 -0.45 2.9 L0.8 2.5 Q1.7 2.2 2.4 1.8 3.3 1.35 4.2 0.6 L5.8 -0.65 Q9.55 -3.3 11.65 -2.9 12.45 -2.7 12.9 -2.1" fill="#8cc1ff" fill-opacity="0.7529412" fill-rule="evenodd" stroke="none"/>
      <path d="M6.05 -0.2 Q7.9 -1.65 9.5 -2.45 10.7 -2.7 11.6 -2.3 12.3 -2.05 12.7 -1.5 13.05 -1.0 13.05 -0.5 13.05 0.75 11.8 1.95 10.45 3.3 8.3 3.75 L5.6 3.75 Q4.35 3.3 4.05 3.05 3.75 2.85 3.75 2.3 3.75 1.7 4.25 0.95 L4.6 0.8 Q5.1 0.55 6.05 -0.2 M4.4 1.4 Q4.5 1.3 4.45 1.25 L4.4 1.4 M-10.15 -3.7 Q-9.15 -4.5 -7.6 -4.6 -6.2 -4.7 -5.1 -4.2 -3.95 -3.7 -3.95 -2.8 -3.95 -2.25 -4.65 -1.75 L-5.95 -0.85 -6.8 0.05 Q-7.85 0.95 -8.65 0.95 -9.95 0.95 -10.7 0.05 -11.3 -0.65 -11.3 -1.2 -11.3 -2.75 -10.15 -3.7" fill="#bfdcff" fill-opacity="0.7529412" fill-rule="evenodd" stroke="none"/>
    </g>
    <g id="shape1" transform="matrix(1.0, 0.0, 0.0, 1.0, 9.85, 1.25)">
      <path d="M6.95 -0.2 L0.0 0.0 -6.95 -0.2 Q-9.85 -0.35 -9.85 -0.65 -9.85 -0.9 -6.95 -1.05 L0.0 -1.25 6.95 -1.05 Q9.85 -0.9 9.85 -0.65 9.85 -0.35 6.95 -0.2" fill="#ffffff" fill-rule="evenodd" stroke="none"/>
    </g>
  </defs>
</svg>
