<?xml version="1.0" encoding="UTF-8" standalone="no"?>
<svg xmlns:ffdec="https://www.free-decompiler.com/flash" xmlns:xlink="http://www.w3.org/1999/xlink" ffdec:objectType="frame" height="201.95px" width="77.2px" xmlns="http://www.w3.org/2000/svg">
  <g transform="matrix(1.0, 0.0, 0.0, 1.0, 39.35, 4.95)">
    <use ffdec:characterId="2607" height="11.2" transform="matrix(0.0, -7.0, 5.1281, 0.0, -32.4163, 192.8)" width="27.75" xlink:href="#shape0"/>
    <use ffdec:characterId="651" height="1.25" transform="matrix(0.0, -1.3866, 15.9996, 0.0, -27.3996, 64.6078)" width="19.7" xlink:href="#shape1"/>
    <use ffdec:characterId="651" height="1.25" transform="matrix(0.0, -1.8729, 21.6111, 0.0, -10.7139, 170.5482)" width="19.7" xlink:href="#shape1"/>
  </g>
  <defs>
    <g id="shape0" transform="matrix(1.0, 0.0, 0.0, 1.0, 14.05, 5.2)">
      <path d="M4.15 -3.9 Q5.85 -5.95 10.35 -4.8 12.0 -4.4 12.85 -3.35 13.7 -2.35 13.7 -0.85 13.7 -0.25 13.0 0.85 12.2 2.1 10.95 3.15 7.65 6.0 3.8 6.0 2.7 6.0 2.15 5.6 1.85 5.3 1.85 5.05 1.85 4.55 2.35 4.0 2.65 3.7 3.5 3.0 4.35 2.3 4.65 1.9 5.2 1.3 5.2 0.65 5.2 0.35 4.8 0.0 4.05 0.0 3.6 -0.55 3.3 -1.0 3.3 -1.3 3.3 -2.9 4.15 -3.9 M-1.1 -4.0 Q-1.1 -3.5 -2.3 -2.9 -2.9 -2.55 -3.6 -2.3 -3.85 -2.2 -4.95 -1.25 L-5.65 -0.7 -5.2 -0.05 Q-4.7 0.75 -4.7 1.35 -4.7 2.35 -5.4 3.55 -6.45 5.25 -8.25 5.25 -9.05 5.25 -9.2 5.0 -11.55 4.95 -12.95 3.05 -13.5 2.3 -13.8 1.5 -14.05 0.8 -14.05 0.35 -14.05 -1.7 -12.85 -2.75 -11.1 -4.4 -6.2 -5.05 -3.2 -5.25 -1.9 -4.8 -1.1 -4.5 -1.1 -4.0" fill="#59a5ff" fill-opacity="0.5019608" fill-rule="evenodd" stroke="none"/>
      <path d="M4.35 -0.75 Q3.1 -1.5 3.1 -2.55 3.1 -3.3 3.75 -4.0 4.75 -5.0 6.65 -5.05 L8.25 -5.0 Q10.95 -4.75 12.15 -3.5 13.0 -2.6 13.0 -1.4 13.0 1.1 9.7 3.35 8.5 4.15 7.15 4.7 5.95 5.2 5.4 5.2 4.35 5.2 4.0 4.75 3.85 4.5 3.85 4.2 3.85 3.75 4.75 2.55 5.65 1.3 5.65 0.45 5.65 0.1 5.25 -0.25 5.1 -0.35 4.35 -0.75 M-6.1 -0.85 L-5.65 -0.4 Q-5.0 0.3 -5.0 1.0 -5.0 1.95 -5.35 3.05 -6.0 5.0 -7.35 5.0 -9.75 5.0 -11.8 3.5 -13.7 2.05 -13.7 0.5 -13.7 -1.15 -12.5 -2.25 -10.8 -3.8 -6.8 -4.35 -4.7 -4.35 -4.05 -3.95 -3.65 -3.7 -3.65 -3.25 -3.65 -2.75 -5.0 -2.0 -6.35 -1.3 -6.35 -1.2 -6.35 -1.05 -6.1 -0.85" fill="#8cc1ff" fill-opacity="0.7529412" fill-rule="evenodd" stroke="none"/>
      <path d="M3.6 -2.8 Q3.75 -3.2 4.15 -3.6 5.05 -4.45 6.8 -4.65 9.15 -4.7 10.4 -3.7 11.35 -3.0 11.35 -2.05 10.6 0.95 9.25 0.95 9.05 0.95 8.9 0.75 L8.85 0.65 8.8 0.6 8.6 0.3 Q8.1 -0.3 6.45 -0.3 5.05 -0.3 4.3 -0.75 3.8 -1.05 3.6 -1.55 3.45 -1.9 3.45 -2.25 3.45 -2.45 3.6 -2.8 M-9.05 -2.85 Q-7.7 -2.75 -7.7 -2.2 -7.7 -1.95 -8.25 -1.6 L-8.5 -1.5 Q-8.5 -1.3 -8.4 -1.25 L-8.05 -1.25 Q-7.3 -1.25 -6.7 -1.0 -6.5 -0.9 -6.2 -0.55 L-5.75 -0.05 Q-5.5 0.25 -5.35 0.9 -5.2 1.45 -5.2 1.9 -6.05 4.65 -7.75 4.65 -8.6 4.65 -10.1 3.95 -11.6 3.25 -12.1 2.65 -12.5 2.15 -12.8 1.45 -13.1 0.75 -13.1 0.2 -13.1 -0.7 -12.5 -1.4 -11.8 -2.25 -10.4 -2.6 -10.3 -2.7 -10.0 -2.75 L-9.05 -2.85" fill="#bfdcff" fill-opacity="0.7529412" fill-rule="evenodd" stroke="none"/>
    </g>
    <g id="shape1" transform="matrix(1.0, 0.0, 0.0, 1.0, 9.85, 1.25)">
      <path d="M6.95 -0.2 L0.0 0.0 -6.95 -0.2 Q-9.85 -0.35 -9.85 -0.65 -9.85 -0.9 -6.95 -1.05 L0.0 -1.25 6.95 -1.05 Q9.85 -0.9 9.85 -0.65 9.85 -0.35 6.95 -0.2" fill="#ffffff" fill-rule="evenodd" stroke="none"/>
    </g>
  </defs>
</svg>
