<?xml version="1.0" encoding="UTF-8" standalone="no"?>
<svg xmlns:ffdec="https://www.free-decompiler.com/flash" xmlns:xlink="http://www.w3.org/1999/xlink" ffdec:objectType="frame" height="201.95px" width="77.2px" xmlns="http://www.w3.org/2000/svg">
  <g transform="matrix(1.0, 0.0, 0.0, 1.0, 39.35, 4.95)">
    <use ffdec:characterId="2603" height="14.8" transform="matrix(0.0, -7.0, 5.1281, 0.0, -38.0572, 177.75)" width="23.45" xlink:href="#shape0"/>
    <use ffdec:characterId="651" height="1.25" transform="matrix(0.0, -1.0666, 12.3078, 0.0, -29.4847, 106.4561)" width="19.7" xlink:href="#shape1"/>
    <use ffdec:characterId="651" height="1.25" transform="matrix(0.0, -2.6919, 31.0611, 0.0, -8.1764, 122.6652)" width="19.7" xlink:href="#shape1"/>
  </g>
  <defs>
    <g id="shape0" transform="matrix(1.0, 0.0, 0.0, 1.0, 11.9, 6.3)">
      <path d="M4.45 -5.85 Q5.25 -5.85 6.8 -5.9 9.3 -5.9 10.65 -3.85 11.1 -3.15 11.35 -2.35 11.55 -1.75 11.55 -1.45 11.55 -0.85 11.15 -0.3 10.65 0.4 10.0 0.4 L8.35 -0.15 Q6.6 -0.65 6.2 -0.75 L2.55 -0.75 Q3.3 -0.35 3.8 0.2 4.55 1.05 4.55 2.6 4.55 2.9 4.35 3.75 4.15 4.85 3.8 5.75 2.8 8.5 1.25 8.5 -4.95 8.5 -8.7 5.65 -10.25 4.45 -11.1 2.95 -11.9 1.6 -11.9 0.35 -11.9 -1.05 -11.35 -2.05 -10.5 -3.7 -8.5 -3.7 -7.75 -3.7 -7.6 -3.3 -7.55 -3.1 -7.65 -2.45 -7.7 -1.85 -7.5 -1.55 -7.2 -1.2 -6.2 -1.2 L-3.8 -1.35 -2.95 -1.45 -3.15 -1.7 Q-3.7 -2.4 -3.7 -3.0 -3.7 -4.05 -3.0 -5.0 -1.9 -6.6 0.6 -6.25 3.05 -5.9 4.45 -5.85" fill="#59a5ff" fill-opacity="0.5019608" fill-rule="evenodd" stroke="none"/>
      <path d="M1.4 -1.05 Q2.8 -0.7 3.65 0.35 4.55 1.5 4.55 2.85 4.55 6.85 0.3 8.0 L-1.7 8.0 Q-4.35 7.15 -6.3 6.2 -8.75 5.05 -9.2 4.15 -9.45 3.85 -9.85 3.2 L-10.3 2.3 -10.55 1.95 Q-11.0 1.25 -11.0 0.5 -11.0 0.1 -10.85 -0.25 -10.65 -0.85 -10.15 -0.85 -10.0 -0.85 -9.9 -0.75 L-9.55 -0.55 Q-8.95 -0.2 -7.85 -0.2 -6.8 -0.2 -4.05 -0.7 L-1.25 -1.25 -1.15 -1.25 Q-1.85 -1.55 -2.25 -2.1 -2.7 -2.7 -2.7 -3.6 -2.7 -5.2 -0.85 -5.65 0.8 -6.05 3.3 -5.5 5.7 -4.95 7.45 -3.9 9.35 -2.8 9.35 -1.7 9.35 -1.45 9.3 -1.35 9.15 -1.1 8.7 -1.1 L7.85 -1.4 Q7.0 -1.65 6.35 -1.65 L3.25 -1.3 1.4 -1.05 M-0.05 7.5 L0.05 7.45 -0.4 7.4 -0.05 7.5" fill="#8cc1ff" fill-opacity="0.7529412" fill-rule="evenodd" stroke="none"/>
      <path d="M1.75 -1.8 L0.9 -1.55 Q0.4 -1.35 -0.65 -1.35 -1.3 -1.35 -1.7 -1.95 L-1.75 -2.0 Q-1.95 -2.25 -2.0 -2.5 -2.2 -3.0 -2.2 -3.3 -2.2 -4.45 -1.0 -4.9 0.05 -5.35 1.7 -5.2 3.25 -5.1 4.4 -4.6 5.6 -4.05 5.6 -3.4 5.6 -2.9 5.0 -2.55 L4.95 -2.45 4.7 -2.4 Q3.8 -2.0 2.3 -1.95 L1.75 -1.8 M-0.25 -0.8 Q2.65 -0.65 3.65 1.15 4.15 2.1 4.15 3.9 4.15 4.2 3.95 4.75 3.65 5.4 3.2 5.95 1.9 7.5 -0.05 7.5 -3.25 7.5 -5.65 5.35 -6.5 4.55 -7.05 3.65 -7.55 2.85 -7.55 2.35 -7.55 1.65 -7.15 1.2 -6.75 0.8 -5.8 0.5 -5.1 0.25 -3.55 -0.1 L-0.25 -0.8" fill="#bfdcff" fill-opacity="0.7529412" fill-rule="evenodd" stroke="none"/>
    </g>
    <g id="shape1" transform="matrix(1.0, 0.0, 0.0, 1.0, 9.85, 1.25)">
      <path d="M6.95 -0.2 L0.0 0.0 -6.95 -0.2 Q-9.85 -0.35 -9.85 -0.65 -9.85 -0.9 -6.95 -1.05 L0.0 -1.25 6.95 -1.05 Q9.85 -0.9 9.85 -0.65 9.85 -0.35 6.95 -0.2" fill="#ffffff" fill-rule="evenodd" stroke="none"/>
    </g>
  </defs>
</svg>
