<?xml version="1.0" encoding="UTF-8" standalone="no"?>
<svg xmlns:ffdec="https://www.free-decompiler.com/flash" xmlns:xlink="http://www.w3.org/1999/xlink" ffdec:objectType="frame" height="201.95px" width="77.2px" xmlns="http://www.w3.org/2000/svg">
  <g transform="matrix(1.0, 0.0, 0.0, 1.0, 39.35, 4.95)">
    <use ffdec:characterId="2613" height="14.05" transform="matrix(0.0, -7.0, 5.1281, 0.0, -37.0316, 166.9)" width="20.25" xlink:href="#shape0"/>
    <use ffdec:characterId="651" height="1.25" transform="matrix(0.0, -1.2666, 14.6154, 0.0, -29.4192, 138.9262)" width="19.7" xlink:href="#shape1"/>
    <use ffdec:characterId="651" height="1.25" transform="matrix(0.0, -2.1459, 24.7611, 0.0, -6.7513, 78.7872)" width="19.7" xlink:href="#shape1"/>
  </g>
  <defs>
    <g id="shape0" transform="matrix(1.0, 0.0, 0.0, 1.0, 10.35, 6.1)">
      <path d="M3.25 -1.5 L2.1 -1.45 Q0.8 -1.1 -0.6 -0.75 -3.45 -0.05 -5.1 -0.05 -7.3 -0.05 -8.1 -1.6 -8.45 -2.4 -8.4 -3.2 -8.4 -4.05 -8.2 -4.55 -8.0 -5.1 -7.35 -5.45 -6.1 -6.1 -2.05 -6.1 0.55 -6.1 4.15 -4.95 7.25 -3.95 7.75 -3.15 8.05 -3.1 8.2 -3.0 8.3 -2.9 8.3 -2.55 8.3 -2.15 7.8 -1.8 7.45 -1.6 7.0 -1.5 8.35 -1.1 9.15 0.0 9.9 1.0 9.9 2.05 9.9 2.7 9.6 3.55 9.25 4.55 8.65 5.4 6.95 7.7 3.85 7.95 L0.1 7.95 Q-4.85 7.05 -7.45 5.2 -8.3 4.6 -8.85 3.9 -9.4 3.75 -9.9 2.4 -10.2 1.65 -10.35 0.9 -10.35 -0.45 -9.3 -0.05 -8.95 0.1 -8.6 0.4 -8.15 0.45 -7.45 0.75 -6.55 1.15 -5.45 1.15 -3.8 1.15 -0.05 -0.3 1.85 -1.05 2.65 -1.3 L3.25 -1.5 M7.95 -2.45 L7.8 -2.65 7.7 -2.35 7.95 -2.45" fill="#59a5ff" fill-opacity="0.5019608" fill-rule="evenodd" stroke="none"/>
      <path d="M3.8 -4.25 Q4.25 -3.9 4.25 -3.45 4.25 -3.0 4.0 -2.75 3.75 -2.6 3.2 -2.45 L1.95 -2.25 Q1.0 -2.05 0.2 -1.75 L-2.3 -0.9 Q-3.75 -0.45 -4.85 -0.45 -6.55 -0.45 -7.45 -1.9 -7.75 -2.35 -7.95 -2.9 -8.05 -3.3 -8.05 -3.45 -8.05 -4.2 -7.35 -4.65 -6.55 -5.15 -4.8 -5.4 L-4.15 -5.45 -4.0 -5.5 -3.65 -5.6 -3.6 -5.5 -0.75 -5.4 Q1.45 -5.4 2.8 -4.9 3.1 -4.8 3.95 -4.25 L3.8 -4.25 M4.85 -1.05 Q7.4 -1.45 8.8 0.45 9.3 1.1 9.55 1.9 9.8 2.55 9.8 2.9 9.8 3.45 9.25 4.15 8.7 4.95 7.75 5.65 5.2 7.45 1.5 7.45 -1.25 7.45 -4.25 6.0 -7.35 4.5 -7.35 2.95 -7.35 2.5 -7.25 2.25 -7.0 1.75 -6.15 1.75 L-4.95 1.85 Q-3.8 1.85 -1.95 1.25 -1.4 1.05 0.25 0.4 L2.3 -0.5 Q3.35 -0.85 4.85 -1.05 M9.2 2.75 L9.2 2.95 Q9.3 2.9 9.2 2.75" fill="#8cc1ff" fill-opacity="0.7529412" fill-rule="evenodd" stroke="none"/>
      <path d="M3.8 -0.45 L4.15 -0.55 5.25 -0.65 Q6.85 -0.65 7.95 0.45 8.9 1.45 8.9 2.4 8.9 3.5 8.25 4.6 7.1 6.5 4.5 6.5 L3.8 6.45 Q1.5 6.65 -0.45 5.4 -1.2 4.95 -1.65 4.35 -2.1 3.8 -2.1 3.4 -2.1 1.7 0.85 0.6 1.35 0.4 2.9 -0.05 3.75 -0.3 3.8 -0.45 M4.75 6.3 L5.0 6.25 5.15 6.25 Q4.8 6.25 4.8 6.3 L4.75 6.3 M0.0 1.3 L-0.2 1.4 -0.2 1.45 0.25 1.25 Q0.15 1.25 0.0 1.3 M-7.5 -2.85 Q-7.5 -3.65 -6.65 -4.4 -5.4 -5.4 -3.05 -5.25 0.5 -3.55 0.5 -3.15 0.5 -2.45 -1.05 -1.65 -2.75 -0.8 -5.0 -0.8 -6.15 -0.8 -6.95 -1.75 -7.5 -2.45 -7.5 -2.85 M-0.25 1.45 L-0.45 1.55 -0.35 1.55 -0.25 1.45 M-0.55 1.65 L-0.6 1.7 -0.55 1.65" fill="#bfdcff" fill-opacity="0.7529412" fill-rule="evenodd" stroke="none"/>
    </g>
    <g id="shape1" transform="matrix(1.0, 0.0, 0.0, 1.0, 9.85, 1.25)">
      <path d="M6.95 -0.2 L0.0 0.0 -6.95 -0.2 Q-9.85 -0.35 -9.85 -0.65 -9.85 -0.9 -6.95 -1.05 L0.0 -1.25 6.95 -1.05 Q9.85 -0.9 9.85 -0.65 9.85 -0.35 6.95 -0.2" fill="#ffffff" fill-rule="evenodd" stroke="none"/>
    </g>
  </defs>
</svg>
