<?xml version="1.0" encoding="UTF-8" standalone="no"?>
<svg xmlns:ffdec="https://www.free-decompiler.com/flash" xmlns:xlink="http://www.w3.org/1999/xlink" ffdec:objectType="frame" height="201.95px" width="77.2px" xmlns="http://www.w3.org/2000/svg">
  <g transform="matrix(1.0, 0.0, 0.0, 1.0, 39.35, 4.95)">
    <use ffdec:characterId="2604" height="13.9" transform="matrix(0.0, -7.0, 5.1281, 0.0, -35.7495, 167.25)" width="22.55" xlink:href="#shape0"/>
    <use ffdec:characterId="651" height="1.25" transform="matrix(0.0, -1.3666, 15.7689, 0.0, -27.4612, 154.7611)" width="19.7" xlink:href="#shape1"/>
    <use ffdec:characterId="651" height="1.25" transform="matrix(0.0, -1.8729, 21.6111, 0.0, -9.8139, 57.9982)" width="19.7" xlink:href="#shape1"/>
  </g>
  <defs>
    <g id="shape0" transform="matrix(1.0, 0.0, 0.0, 1.0, 10.4, 5.85)">
      <path d="M4.75 -2.5 Q4.4 -2.25 3.5 -2.05 L1.7 -1.75 Q0.4 -1.5 -0.55 -1.2 -0.75 -1.1 -1.4 -0.75 -2.2 -0.3 -2.75 -0.05 -4.75 0.85 -7.1 0.85 -9.05 0.85 -9.95 -0.8 -10.4 -1.6 -10.4 -2.45 -10.4 -5.15 -6.9 -5.7 L-4.45 -5.8 -3.35 -5.8 -3.35 -5.85 Q-0.1 -5.85 2.65 -4.9 3.8 -4.5 4.5 -4.05 5.2 -3.65 5.2 -3.35 5.2 -2.8 4.75 -2.5 M1.3 -4.15 L0.75 -4.1 1.0 -4.1 1.3 -4.15 M10.8 -1.45 Q11.5 -0.75 11.85 0.35 12.15 1.15 12.15 1.75 12.15 2.55 11.6 3.5 11.0 4.65 9.85 5.6 6.9 8.05 1.8 8.05 -2.85 8.05 -5.55 6.25 -6.55 5.6 -7.1 4.8 -7.55 4.15 -7.55 3.6 -7.55 2.55 -6.3 2.0 -5.4 1.6 -3.2 1.2 -0.1 0.65 0.8 0.45 3.25 -0.15 4.85 -1.1 8.75 -3.4 10.8 -1.45" fill="#59a5ff" fill-opacity="0.5019608" fill-rule="evenodd" stroke="none"/>
      <path d="M1.9 -3.1 Q1.9 -2.7 1.4 -2.6 L-0.55 -2.2 Q-1.15 -2.05 -1.7 -1.75 L-2.7 -1.3 Q-3.65 -0.85 -4.5 -0.45 -6.2 0.25 -6.9 0.25 -9.0 0.25 -9.7 -1.05 -10.1 -1.7 -10.05 -2.45 -10.05 -3.45 -9.3 -4.15 -8.3 -5.15 -5.9 -5.35 L-3.25 -5.35 Q-0.7 -5.15 0.65 -4.45 1.9 -3.85 1.9 -3.1 M10.3 -1.2 Q11.0 -0.7 11.4 0.2 11.7 0.9 11.7 1.45 11.7 2.25 11.2 3.15 10.6 4.15 9.5 5.0 6.65 7.15 1.55 7.15 -0.2 7.15 -2.3 6.1 -4.55 5.0 -4.55 3.9 -4.55 3.2 -3.9 2.7 -2.8 1.9 -0.05 1.7 1.15 1.65 2.95 0.7 3.8 0.25 5.1 -0.55 8.35 -2.65 10.3 -1.2" fill="#8cc1ff" fill-opacity="0.7529412" fill-rule="evenodd" stroke="none"/>
      <path d="M10.45 -0.05 Q11.05 0.85 11.05 1.8 11.05 2.9 10.2 3.75 8.9 5.0 5.9 5.15 L4.15 5.15 Q2.55 5.1 1.85 4.3 1.35 3.75 1.35 3.05 1.35 2.5 1.5 2.2 1.65 1.95 2.05 1.7 2.3 1.6 2.95 1.25 3.6 0.95 4.15 0.5 5.75 -0.65 6.05 -0.8 6.9 -1.3 8.1 -1.3 9.6 -1.3 10.45 -0.05 M-8.95 -0.95 Q-9.5 -1.5 -9.5 -2.15 -9.5 -3.8 -8.25 -4.45 -7.25 -5.0 -5.6 -4.85 -4.2 -4.7 -2.95 -4.1 -1.75 -3.5 -1.75 -3.0 -1.75 -2.45 -2.15 -2.1 -2.55 -1.8 -3.65 -1.4 L-4.85 -0.75 Q-6.0 -0.15 -6.65 -0.15 -8.2 -0.15 -8.95 -0.95" fill="#bfdcff" fill-opacity="0.7529412" fill-rule="evenodd" stroke="none"/>
    </g>
    <g id="shape1" transform="matrix(1.0, 0.0, 0.0, 1.0, 9.85, 1.25)">
      <path d="M6.95 -0.2 L0.0 0.0 -6.95 -0.2 Q-9.85 -0.35 -9.85 -0.65 -9.85 -0.9 -6.95 -1.05 L0.0 -1.25 6.95 -1.05 Q9.85 -0.9 9.85 -0.65 9.85 -0.35 6.95 -0.2" fill="#ffffff" fill-rule="evenodd" stroke="none"/>
    </g>
  </defs>
</svg>
