<?xml version="1.0" encoding="UTF-8" standalone="no"?>
<svg xmlns:ffdec="https://www.free-decompiler.com/flash" xmlns:xlink="http://www.w3.org/1999/xlink" ffdec:objectType="frame" height="112.45px" width="88.05px" xmlns="http://www.w3.org/2000/svg">
  <g transform="matrix(1.0, 0.0, 0.0, 1.0, 48.4, 4.15)">
    <use ffdec:characterId="1395" height="13.45" transform="matrix(6.8061, 0.0, 0.0, 7.0, -45.396, 2.35)" width="5.8" xlink:href="#shape0"/>
    <use ffdec:characterId="1395" height="13.45" transform="matrix(5.7579, 0.0, 0.0, 5.525, 6.2295, 11.3663)" width="5.8" xlink:href="#shape0"/>
  </g>
  <defs>
    <g id="shape0" transform="matrix(1.0, 0.0, 0.0, 1.0, 2.6, 0.35)">
      <path d="M0.45 0.0 L0.55 -0.05 Q1.25 0.3 1.6 1.1 1.9 1.9 1.95 2.75 L2.0 3.05 Q2.0 3.8 1.75 4.4 1.9 3.8 1.75 3.1 1.65 2.6 1.45 2.15 L1.15 1.5 1.2 1.55 0.95 1.25 Q0.6 0.7 0.4 0.05 0.4 0.0 0.45 0.0 M0.15 0.25 L0.15 0.25 M0.2 4.55 L0.0 5.55 -0.05 5.55 -0.05 5.45 Q-0.05 4.85 -0.35 4.25 L-0.45 4.1 Q-0.65 3.9 -0.85 3.75 -1.3 3.05 -1.1 2.25 -0.95 1.4 -0.45 0.8 L-0.4 0.8 -0.4 0.75 -0.25 0.65 -0.15 0.65 Q-0.1 0.7 -0.1 0.75 L-0.15 0.9 -0.15 0.95 -0.1 0.95 Q-0.15 1.45 -0.1 1.9 L0.1 3.1 0.2 4.55 M1.35 2.9 L1.45 2.8 Q1.5 2.8 1.5 2.85 L1.55 2.9 1.65 3.4 Q1.8 4.25 1.45 4.95 L1.0 5.45 0.8 5.65 0.85 5.55 0.6 5.7 Q0.5 5.75 0.4 5.9 0.2 6.1 0.1 6.5 L0.05 6.55 0.05 6.35 Q0.15 5.6 0.55 5.0 L0.55 5.05 Q1.0 4.55 1.2 3.8 1.3 3.35 1.35 2.9 M0.35 1.1 L0.45 1.1 Q0.85 1.45 1.05 1.95 L1.25 2.35 Q1.25 3.25 0.95 4.05 L0.7 4.65 Q0.4 5.0 0.2 5.4 0.35 4.85 0.4 4.25 L0.3 3.1 0.2 2.55 0.05 2.05 0.0 1.8 Q0.0 1.6 0.05 1.4 0.15 1.1 0.35 1.1 M0.35 0.35 L0.7 1.1 Q0.5 0.9 0.15 0.95 L0.15 1.0 0.0 1.3 Q0.0 0.9 0.1 0.55 L0.15 0.3 0.2 0.25 0.25 0.25 Q0.3 0.25 0.35 0.3 L0.35 0.35 M0.05 7.65 L0.05 7.55 Q0.15 8.2 0.7 8.45 L1.0 8.3 1.0 8.35 Q0.8 9.1 0.2 9.55 0.15 9.6 0.05 9.6 L-0.1 9.6 -0.35 9.5 Q-0.5 9.45 -0.55 9.3 L-0.65 9.05 -0.75 8.75 -0.8 8.35 Q-0.85 7.95 -0.75 7.6 L-0.75 7.45 Q-0.65 7.15 -0.5 6.9 L-0.2 6.4 -0.1 6.3 -0.1 6.3 Q-0.2 6.95 0.05 7.65 M1.65 11.6 L1.75 11.65 Q2.55 11.95 3.05 11.35 L3.0 11.75 2.85 12.2 2.1 12.35 2.05 12.3 Q1.9 12.15 1.7 12.15 L1.7 12.1 Q1.65 12.0 1.65 11.85 L1.65 11.6 M-0.15 -0.1 Q0.0 0.0 0.0 0.15 L0.0 0.25 -0.05 0.35 Q-0.15 0.35 -0.3 0.5 -1.05 1.2 -1.25 2.25 -1.4 2.9 -1.15 3.4 L-1.15 3.55 -1.25 3.6 -1.3 3.55 Q-1.5 3.1 -1.65 2.6 -1.85 1.8 -1.5 1.0 -1.4 0.7 -1.2 0.45 -1.05 0.15 -0.75 0.05 -0.45 -0.1 -0.15 -0.1 M-1.2 12.55 L-1.35 12.5 Q-1.5 12.5 -1.6 12.4 L-2.3 12.45 Q-2.35 12.4 -2.4 12.35 -2.5 12.0 -2.45 11.7 L-2.2 11.4 Q-2.15 11.4 -2.15 11.3 -2.2 10.9 -1.95 10.65 -2.0 11.05 -2.0 11.5 -1.95 11.85 -1.55 11.75 L-1.1 11.7 Q-0.75 11.65 -0.6 11.95 -0.45 12.15 -0.35 12.4 L-0.4 12.4 -0.45 12.5 -0.4 12.55 -0.4 12.65 -0.6 12.9 -0.6 12.85 Q-0.7 12.6 -0.95 12.65 L-1.2 12.55" fill="url(#gradient0)" fill-rule="evenodd" stroke="none"/>
      <path d="M0.05 -0.35 L0.45 -0.25 Q1.7 0.3 2.0 1.7 2.1 2.2 2.15 2.75 L2.15 2.85 Q2.3 4.4 1.2 5.45 L0.75 5.75 Q0.55 5.9 0.4 6.15 0.3 6.35 0.2 6.6 L0.15 6.85 Q0.15 7.35 0.25 7.8 0.4 8.25 0.8 8.3 0.9 8.3 0.95 8.2 L1.2 7.95 1.2 8.1 Q1.15 8.6 0.85 9.05 0.65 9.45 0.25 9.65 L0.0 9.75 -0.15 9.75 -0.4 9.65 Q-0.55 9.6 -0.6 9.5 L-0.7 9.4 -0.8 9.1 -0.9 8.75 Q-1.0 8.2 -0.9 7.65 L-0.9 7.6 Q-0.85 7.3 -0.75 7.0 L-0.45 6.45 -0.35 6.25 -0.3 6.1 Q-0.15 5.5 -0.3 4.85 -0.35 4.4 -0.65 4.15 L-0.65 4.1 -0.75 4.05 Q-0.9 3.9 -1.1 3.8 L-1.2 3.8 -1.4 3.7 Q-1.8 2.9 -1.85 2.05 -1.95 1.1 -1.4 0.4 -1.25 0.15 -1.0 0.0 -0.85 -0.1 -0.7 -0.15 L-0.25 -0.3 -0.05 -0.3 0.05 -0.35 M0.45 0.0 Q0.4 0.0 0.4 0.05 0.6 0.7 0.95 1.25 L1.2 1.55 1.15 1.5 1.45 2.15 Q1.65 2.6 1.75 3.1 1.9 3.8 1.75 4.4 2.0 3.8 2.0 3.05 L1.95 2.75 Q1.9 1.9 1.6 1.1 1.25 0.3 0.55 -0.05 L0.45 0.0 M0.15 0.25 L0.15 0.25 M0.35 0.35 L0.35 0.3 Q0.3 0.25 0.25 0.25 L0.2 0.25 0.15 0.3 0.1 0.55 Q0.0 0.9 0.0 1.3 L0.15 1.0 0.15 0.95 Q0.5 0.9 0.7 1.1 L0.35 0.35 M0.35 1.1 Q0.15 1.1 0.05 1.4 0.0 1.6 0.0 1.8 L0.05 2.05 0.2 2.55 0.3 3.1 0.4 4.25 Q0.35 4.85 0.2 5.4 0.4 5.0 0.7 4.65 L0.95 4.05 Q1.25 3.25 1.25 2.35 L1.05 1.95 Q0.85 1.45 0.45 1.1 L0.35 1.1 M1.35 2.9 Q1.3 3.35 1.2 3.8 1.0 4.55 0.55 5.05 L0.55 5.0 Q0.15 5.6 0.05 6.35 L0.05 6.55 0.1 6.5 Q0.2 6.1 0.4 5.9 0.5 5.75 0.6 5.7 L0.85 5.55 0.8 5.65 1.0 5.45 1.45 4.95 Q1.8 4.25 1.65 3.4 L1.55 2.9 1.5 2.85 Q1.5 2.8 1.45 2.8 L1.35 2.9 M0.2 4.55 L0.1 3.1 -0.1 1.9 Q-0.15 1.45 -0.1 0.95 L-0.15 0.95 -0.15 0.9 -0.1 0.75 Q-0.1 0.7 -0.15 0.65 L-0.25 0.65 -0.4 0.75 -0.4 0.8 -0.45 0.8 Q-0.95 1.4 -1.1 2.25 -1.3 3.05 -0.85 3.75 -0.65 3.9 -0.45 4.1 L-0.35 4.25 Q-0.05 4.85 -0.05 5.45 L-0.05 5.55 0.0 5.55 0.2 4.55 M0.05 7.65 Q-0.2 6.95 -0.1 6.3 L-0.1 6.3 -0.2 6.4 -0.5 6.9 Q-0.65 7.15 -0.75 7.45 L-0.75 7.6 Q-0.85 7.95 -0.8 8.35 L-0.75 8.75 -0.65 9.05 -0.55 9.3 Q-0.5 9.45 -0.35 9.5 L-0.1 9.6 0.05 9.6 Q0.15 9.6 0.2 9.55 0.8 9.1 1.0 8.35 L1.0 8.3 0.7 8.45 Q0.15 8.2 0.05 7.55 L0.05 7.65 M-0.15 -0.1 Q-0.45 -0.1 -0.75 0.05 -1.05 0.15 -1.2 0.45 -1.4 0.7 -1.5 1.0 -1.85 1.8 -1.65 2.6 -1.5 3.1 -1.3 3.55 L-1.25 3.6 -1.15 3.55 -1.15 3.4 Q-1.4 2.9 -1.25 2.25 -1.05 1.2 -0.3 0.5 -0.15 0.35 -0.05 0.35 L0.0 0.25 0.0 0.15 Q0.0 0.0 -0.15 -0.1" fill="#ff0000" fill-rule="evenodd" stroke="none"/>
      <path d="M3.05 11.0 L3.2 11.05 Q3.2 11.65 2.9 12.2 2.8 12.3 2.65 12.35 L2.3 12.4 2.25 12.5 2.05 12.55 2.0 12.5 1.95 12.4 1.9 12.4 1.6 12.35 Q1.5 12.05 1.5 11.7 L1.55 11.45 1.6 11.4 Q2.05 11.6 2.55 11.6 2.9 11.4 3.05 11.05 L3.05 11.0 M1.65 11.6 L1.65 11.85 Q1.65 12.0 1.7 12.1 L1.7 12.15 Q1.9 12.15 2.05 12.3 L2.1 12.35 2.85 12.2 3.0 11.75 3.05 11.35 Q2.55 11.95 1.75 11.65 L1.65 11.6 M-1.8 10.55 Q-1.8 10.6 -1.85 10.65 L-1.85 11.6 -0.8 11.6 Q-0.65 11.65 -0.5 11.8 -0.3 12.1 -0.2 12.45 L-0.25 12.5 -0.25 12.55 -0.3 12.6 Q-0.35 12.8 -0.5 13.0 L-0.6 13.1 -0.65 13.05 -0.7 12.85 -0.75 12.85 -0.85 12.8 -0.85 12.85 Q-1.25 12.65 -1.75 12.6 L-2.0 12.65 Q-2.5 12.7 -2.55 12.2 L-2.55 11.8 -2.6 11.85 -2.6 11.7 -2.3 11.4 Q-2.2 11.2 -2.25 10.95 L-2.25 10.85 Q-2.1 10.65 -1.9 10.55 L-1.9 10.5 -1.85 10.45 -1.85 10.5 -1.8 10.55 M-1.2 12.55 L-0.95 12.65 Q-0.7 12.6 -0.6 12.85 L-0.6 12.9 -0.4 12.65 -0.4 12.55 -0.45 12.5 -0.4 12.4 -0.35 12.4 Q-0.45 12.15 -0.6 11.95 -0.75 11.65 -1.1 11.7 L-1.55 11.75 Q-1.95 11.85 -2.0 11.5 -2.0 11.05 -1.95 10.65 -2.2 10.9 -2.15 11.3 -2.15 11.4 -2.2 11.4 L-2.45 11.7 Q-2.5 12.0 -2.4 12.35 -2.35 12.4 -2.3 12.45 L-1.6 12.4 Q-1.5 12.5 -1.35 12.5 L-1.2 12.55" fill="#cc0000" fill-rule="evenodd" stroke="none"/>
    </g>
    <radialGradient cx="0" cy="0" gradientTransform="matrix(-0.0159, 0.0, 0.0, -0.012, 0.0, 0.75)" gradientUnits="userSpaceOnUse" id="gradient0" r="819.2" spreadMethod="pad">
      <stop offset="0.0" stop-color="#ffff00"/>
      <stop offset="1.0" stop-color="#ff6600"/>
    </radialGradient>
  </defs>
</svg>
