<?xml version="1.0" encoding="UTF-8" standalone="no"?>
<svg xmlns:ffdec="https://www.free-decompiler.com/flash" xmlns:xlink="http://www.w3.org/1999/xlink" ffdec:objectType="frame" height="112.45px" width="88.05px" xmlns="http://www.w3.org/2000/svg">
  <g transform="matrix(1.0, 0.0, 0.0, 1.0, 48.4, 4.15)">
    <use ffdec:characterId="1396" height="15.5" transform="matrix(7.0, 0.0, 0.0, 7.0, -45.95, -4.05)" width="5.1" xlink:href="#shape0"/>
    <use ffdec:characterId="1396" height="15.5" transform="matrix(5.5858, 0.0, 0.0, 5.1703, 11.0319, 11.2467)" width="5.1" xlink:href="#shape0"/>
  </g>
  <defs>
    <g id="shape0" transform="matrix(1.0, 0.0, 0.0, 1.0, 2.25, 0.9)">
      <path d="M0.6 -0.05 L0.8 0.1 Q0.95 0.2 1.05 0.4 L1.25 0.8 1.3 1.0 Q1.4 1.3 1.35 1.6 1.35 1.8 1.35 1.95 L1.35 2.65 1.05 2.2 1.05 2.1 Q0.9 1.85 0.85 1.55 0.8 1.15 0.8 0.7 L0.75 0.35 0.55 0.0 0.55 -0.05 0.6 0.0 0.6 -0.05 M-0.2 7.25 Q0.0 6.45 -0.15 5.65 -0.2 5.45 -0.3 5.25 L-0.35 5.15 Q-0.8 4.15 -0.9 3.05 L-0.9 2.2 Q-0.8 1.7 -0.6 1.2 L-0.55 1.2 -0.5 1.1 -0.45 1.05 -0.4 1.05 -0.35 1.1 -0.3 1.2 -0.3 1.3 -0.25 1.3 -0.25 1.25 -0.2 1.6 0.1 2.8 Q0.35 3.55 0.3 4.3 L0.2 5.6 Q0.1 6.45 -0.2 7.25 L-0.2 7.25 M1.55 2.1 L1.6 2.1 Q2.0 2.8 2.05 3.65 2.1 4.5 1.8 5.25 1.85 4.85 1.85 4.45 1.8 3.9 1.7 3.35 L1.6 3.2 1.6 2.95 1.5 2.55 1.5 2.5 1.45 2.15 1.5 2.1 Q1.5 2.05 1.55 2.1 M1.25 3.05 L1.25 2.95 1.35 2.95 Q1.7 3.85 1.75 4.85 1.75 5.3 1.6 5.65 L1.6 5.7 Q1.2 6.45 0.45 6.8 L1.0 6.0 Q1.35 5.4 1.35 5.0 L1.35 3.75 1.25 3.05 M0.6 1.55 L0.75 1.85 0.85 2.15 Q0.95 2.45 1.0 2.75 L1.2 3.75 1.2 4.0 Q1.3 5.1 0.85 6.0 0.65 6.4 0.3 6.8 L0.2 6.85 0.15 6.85 0.2 6.5 0.2 6.4 0.25 6.35 0.25 6.15 0.35 5.6 Q0.5 4.85 0.45 4.1 0.4 3.4 0.25 2.75 L0.2 2.6 Q-0.1 1.6 -0.25 0.55 L-0.3 0.3 -0.25 0.2 Q-0.2 0.15 -0.15 0.2 L-0.1 0.25 0.2 0.7 Q0.45 1.1 0.6 1.55 M0.7 1.1 L0.65 1.1 Q0.35 0.4 -0.2 -0.1 L-0.15 -0.2 Q0.0 -0.2 0.1 -0.15 0.65 0.15 0.7 0.75 L0.7 1.1 M-0.25 10.65 Q-0.4 10.55 -0.6 10.5 L-1.0 10.55 -1.05 10.15 Q-1.15 9.5 -1.0 8.95 L-0.85 8.8 -0.8 8.9 -0.75 9.25 -0.65 9.45 Q-0.4 9.85 0.05 10.05 L0.3 10.15 0.35 10.15 0.5 10.05 Q0.9 9.9 1.2 9.6 L1.25 9.55 Q1.1 10.1 0.85 10.55 0.55 11.1 0.1 11.2 L-0.05 11.2 Q-0.15 11.0 -0.2 10.7 L-0.25 10.65 -0.25 10.65 M2.7 13.7 L2.75 13.75 2.8 13.9 2.75 13.95 2.65 13.9 Q2.45 13.75 2.25 13.95 L2.1 13.95 Q2.35 13.65 2.7 13.7 M-0.5 -0.1 Q-0.4 0.0 -0.45 0.35 L-0.65 1.0 -0.65 1.1 -0.95 1.35 Q-1.45 1.7 -1.8 2.2 L-1.65 1.7 -1.65 1.8 -1.45 1.2 Q-1.35 0.8 -1.1 0.5 L-0.5 -0.1 M-0.95 1.9 Q-1.1 2.35 -1.05 2.9 L-1.0 3.5 Q-0.9 4.3 -0.55 5.0 -0.9 4.75 -1.3 4.9 L-1.4 4.75 Q-1.85 3.8 -1.85 2.75 L-1.85 2.55 Q-1.55 2.1 -1.15 1.7 L-0.95 1.7 -0.95 1.9 M-0.8 8.75 L-0.8 8.8 -0.85 8.8 -0.8 8.75 M-0.95 8.8 L-0.95 8.8 M-2.0 14.25 L-2.05 14.0 Q-1.9 14.1 -1.65 14.1 L-1.3 13.9 -1.35 13.95 Q-1.5 14.35 -1.85 14.4 -2.0 14.35 -2.0 14.25" fill="url(#gradient0)" fill-rule="evenodd" stroke="none"/>
      <path d="M0.6 -0.05 L0.6 0.0 0.55 -0.05 0.55 0.0 0.75 0.35 0.8 0.7 Q0.8 1.15 0.85 1.55 0.9 1.85 1.05 2.1 L1.05 2.2 1.35 2.65 1.35 1.95 Q1.35 1.8 1.35 1.6 1.4 1.3 1.3 1.0 L1.25 0.8 1.05 0.4 Q0.95 0.2 0.8 0.1 L0.6 -0.05 M-0.35 7.3 Q-0.2 6.65 -0.25 5.95 -0.35 5.4 -0.7 5.1 -0.85 5.0 -1.0 5.05 L-1.25 5.05 -1.3 4.95 -1.3 5.05 -1.4 4.95 Q-1.8 4.35 -1.95 3.7 L-2.05 3.1 -2.05 2.5 -1.95 2.0 Q-1.85 1.6 -1.65 1.2 L-1.5 0.8 -1.3 0.45 -0.95 0.1 -0.65 -0.15 -0.6 -0.2 -0.55 -0.2 -0.55 -0.25 -0.25 -0.4 -0.15 -0.4 Q0.8 -0.45 1.3 0.4 1.4 0.6 1.45 0.8 1.5 1.1 1.5 1.4 L1.5 1.75 Q1.65 1.85 1.75 2.05 2.25 2.85 2.25 3.8 L2.2 4.6 Q1.95 5.85 1.0 6.6 0.85 6.75 0.6 6.85 L0.35 6.95 0.3 7.05 0.2 7.15 -0.2 7.25 -0.35 7.3 M-0.2 7.25 Q0.1 6.45 0.2 5.6 L0.3 4.3 Q0.35 3.55 0.1 2.8 L-0.2 1.6 -0.25 1.25 -0.25 1.3 -0.3 1.3 -0.3 1.2 -0.35 1.1 -0.4 1.05 -0.45 1.05 -0.5 1.1 -0.55 1.2 -0.6 1.2 Q-0.8 1.7 -0.9 2.2 L-0.9 3.05 Q-0.8 4.15 -0.35 5.15 L-0.3 5.25 Q-0.2 5.45 -0.15 5.65 0.0 6.45 -0.2 7.25 M-0.2 11.25 L-0.15 11.25 -0.2 11.25 M-0.65 7.85 L-0.55 7.75 -0.6 7.9 -0.65 7.85 M0.7 1.1 L0.7 0.75 Q0.65 0.15 0.1 -0.15 0.0 -0.2 -0.15 -0.2 L-0.2 -0.1 Q0.35 0.4 0.65 1.1 L0.7 1.1 M0.6 1.55 Q0.45 1.1 0.2 0.7 L-0.1 0.25 -0.15 0.2 Q-0.2 0.15 -0.25 0.2 L-0.3 0.3 -0.25 0.55 Q-0.1 1.6 0.2 2.6 L0.25 2.75 Q0.4 3.4 0.45 4.1 0.5 4.85 0.35 5.6 L0.25 6.15 0.25 6.35 0.2 6.4 0.2 6.5 0.15 6.85 0.2 6.85 0.3 6.8 Q0.65 6.4 0.85 6.0 1.3 5.1 1.2 4.0 L1.2 3.75 1.0 2.75 Q0.95 2.45 0.85 2.15 L0.75 1.85 0.6 1.55 M1.25 3.05 L1.35 3.75 1.35 5.0 Q1.35 5.4 1.0 6.0 L0.45 6.8 Q1.2 6.45 1.6 5.7 L1.6 5.65 Q1.75 5.3 1.75 4.85 1.7 3.85 1.35 2.95 L1.25 2.95 1.25 3.05 M1.55 2.1 Q1.5 2.05 1.5 2.1 L1.45 2.15 1.5 2.5 1.5 2.55 1.6 2.95 1.6 3.2 1.7 3.35 Q1.8 3.9 1.85 4.45 1.85 4.85 1.8 5.25 2.1 4.5 2.05 3.65 2.0 2.8 1.6 2.1 L1.55 2.1 M-0.25 10.65 L-0.25 10.65 M-0.5 -0.1 L-1.1 0.5 Q-1.35 0.8 -1.45 1.2 L-1.65 1.8 -1.65 1.7 -1.8 2.2 Q-1.45 1.7 -0.95 1.35 L-0.65 1.1 -0.65 1.0 -0.45 0.35 Q-0.4 0.0 -0.5 -0.1 M-0.95 1.9 L-0.95 1.7 -1.15 1.7 Q-1.55 2.1 -1.85 2.55 L-1.85 2.75 Q-1.85 3.8 -1.4 4.75 L-1.3 4.9 Q-0.9 4.75 -0.55 5.0 -0.9 4.3 -1.0 3.5 L-1.05 2.9 Q-1.1 2.35 -0.95 1.9" fill="#ff0000" fill-rule="evenodd" stroke="none"/>
      <path d="M-0.35 7.3 L-0.2 7.25 0.2 7.15 0.05 7.3 Q-0.2 7.55 -0.45 7.85 -0.6 8.15 -0.65 8.5 L-0.65 9.05 Q-0.45 9.5 -0.05 9.85 L0.1 9.9 Q0.55 10.1 0.95 9.7 L1.1 9.5 1.15 9.5 1.15 9.55 1.3 9.35 1.35 9.25 1.4 9.35 1.4 9.4 Q1.3 10.05 1.0 10.6 0.65 11.2 0.05 11.35 L-0.05 11.35 -0.1 11.3 -0.15 11.3 -0.2 11.25 -0.15 11.25 Q-0.25 11.05 -0.3 10.85 L-0.3 10.8 Q-0.6 10.6 -1.0 10.65 L-1.0 10.7 -1.1 10.7 -1.15 10.65 Q-1.35 9.65 -1.05 8.7 L-0.95 8.45 -0.7 8.1 -0.65 7.85 -0.6 7.9 -0.45 7.6 -0.35 7.3 M-0.25 10.65 L-0.2 10.7 Q-0.15 11.0 -0.05 11.2 L0.1 11.2 Q0.55 11.1 0.85 10.55 1.1 10.1 1.25 9.55 L1.2 9.6 Q0.9 9.9 0.5 10.05 L0.35 10.15 0.3 10.15 0.05 10.05 Q-0.4 9.85 -0.65 9.45 L-0.75 9.25 -0.8 8.9 -0.85 8.8 -1.0 8.95 Q-1.15 9.5 -1.05 10.15 L-1.0 10.55 -0.6 10.5 Q-0.4 10.55 -0.25 10.65 M2.7 13.7 Q2.35 13.65 2.1 13.95 L2.25 13.95 Q2.45 13.75 2.65 13.9 L2.75 13.95 2.8 13.9 2.75 13.75 2.7 13.7 M2.8 13.8 L2.85 14.05 2.8 14.1 Q2.65 14.1 2.55 14.0 L2.05 14.05 2.0 14.0 2.0 13.9 2.25 13.65 2.4 13.55 2.7 13.55 Q2.8 13.65 2.8 13.7 L2.8 13.8 M-0.2 7.25 L-0.2 7.25 M-0.95 8.8 L-0.95 8.8 M-0.8 8.75 L-0.85 8.8 -0.8 8.8 -0.8 8.75 M-2.15 13.35 L-2.15 13.4 -2.1 13.4 -2.05 13.45 -2.05 13.7 Q-1.95 13.85 -1.85 13.95 -1.6 14.05 -1.45 13.9 L-1.35 13.8 -1.25 13.75 -1.2 13.7 -1.15 13.7 -1.15 13.75 -1.1 13.75 Q-1.3 14.25 -1.7 14.55 L-1.7 14.6 -1.75 14.6 Q-2.2 14.5 -2.2 14.05 L-2.2 13.75 Q-2.25 13.6 -2.25 13.4 L-2.25 13.35 -2.15 13.35 M-2.0 14.25 Q-2.0 14.35 -1.85 14.4 -1.5 14.35 -1.35 13.95 L-1.3 13.9 -1.65 14.1 Q-1.9 14.1 -2.05 14.0 L-2.0 14.25" fill="#cc0000" fill-rule="evenodd" stroke="none"/>
    </g>
    <radialGradient cx="0" cy="0" gradientTransform="matrix(-0.0159, 0.0, 0.0, -0.0123, 0.0, 0.75)" gradientUnits="userSpaceOnUse" id="gradient0" r="819.2" spreadMethod="pad">
      <stop offset="0.0" stop-color="#ffff00"/>
      <stop offset="1.0" stop-color="#ff6600"/>
    </radialGradient>
  </defs>
</svg>
