<?xml version="1.0" encoding="UTF-8" standalone="no"?>
<svg xmlns:ffdec="https://www.free-decompiler.com/flash" xmlns:xlink="http://www.w3.org/1999/xlink" ffdec:objectType="frame" height="112.45px" width="88.05px" xmlns="http://www.w3.org/2000/svg">
  <g transform="matrix(1.0, 0.0, 0.0, 1.0, 48.4, 4.15)">
    <use ffdec:characterId="1386" height="14.25" transform="matrix(5.5576, 0.0, 0.0, 5.1666, 6.8666, 14.1667)" width="4.75" xlink:href="#shape0"/>
    <use ffdec:characterId="1386" height="14.25" transform="matrix(7.0, 0.0, 0.0, 7.0, -48.05, -1.85)" width="4.75" xlink:href="#shape0"/>
  </g>
  <defs>
    <g id="shape0" transform="matrix(1.0, 0.0, 0.0, 1.0, 2.75, 0.5)">
      <path d="M0.05 -0.4 L0.1 -0.4 0.4 -0.2 0.75 -0.2 Q1.35 0.1 1.45 0.8 1.55 1.25 1.5 1.65 L1.45 1.95 1.35 2.3 1.35 2.35 1.3 2.4 1.25 2.5 1.2 2.85 Q1.1 3.45 1.35 4.1 1.5 4.35 1.7 4.6 L1.7 4.75 1.8 4.95 Q2.1 5.7 1.95 6.45 1.8 7.35 1.2 7.85 L0.95 8.1 Q0.55 8.35 0.2 8.65 L-0.3 9.05 -0.25 9.0 -0.2 8.85 Q0.3 8.2 0.45 7.35 0.5 7.0 0.4 6.7 L0.3 6.5 Q0.25 6.5 0.25 6.45 L0.15 6.35 -0.6 5.8 -0.55 5.9 Q-0.5 6.1 -0.5 6.3 -0.55 6.6 -0.75 6.85 -1.05 7.25 -1.55 7.25 L-1.75 7.25 Q-2.5 7.05 -2.7 6.2 -2.75 5.75 -2.75 5.35 L-2.7 5.2 -2.65 5.2 -2.6 5.25 -2.6 5.3 -2.5 5.4 -2.35 5.4 -2.3 5.35 Q-1.85 4.9 -1.85 4.2 -1.8 3.6 -2.0 3.0 -2.15 2.75 -2.2 2.5 L-2.25 2.5 -2.25 2.05 -2.2 1.4 Q-2.1 0.95 -1.75 0.45 -1.35 -0.05 -1.0 -0.2 L-0.8 -0.2 -0.7 -0.35 Q-0.6 -0.45 -0.5 -0.45 L-0.05 -0.45 0.05 -0.4 M0.0 -0.1 Q-0.15 -0.4 -0.45 -0.35 L-0.5 -0.3 Q-0.85 0.0 -1.05 0.4 -1.2 0.75 -1.3 1.1 L-1.4 1.75 -1.4 1.8 Q-1.45 1.95 -1.4 2.1 -1.35 2.45 -1.1 2.7 -0.95 2.9 -0.9 3.2 L-0.9 3.25 Q-0.9 3.3 -0.8 3.3 L-0.75 3.25 -0.55 3.1 -0.35 2.9 Q0.0 2.55 0.1 2.0 0.35 0.95 0.05 0.0 L0.0 -0.15 0.0 -0.1 M0.55 0.25 L0.35 0.1 0.25 0.05 Q0.4 0.45 0.4 1.0 L0.35 1.5 Q0.3 2.05 0.1 2.45 0.05 2.55 0.05 2.65 L0.0 2.7 0.0 2.75 Q-0.05 3.0 0.0 3.2 0.05 3.0 0.2 2.75 L0.5 2.3 Q1.1 1.35 0.6 0.35 L0.6 0.3 0.55 0.25 M1.0 0.2 Q0.95 0.1 0.8 0.1 L0.65 0.1 Q1.0 0.6 0.95 1.4 0.9 1.9 0.6 2.3 L0.15 2.95 0.15 3.25 0.25 3.2 Q0.5 2.85 0.95 2.7 L1.2 2.4 1.2 2.35 Q1.45 1.55 1.3 0.7 1.2 0.4 1.0 0.2 M0.7 2.95 Q0.3 3.05 0.25 3.5 L0.35 3.6 0.5 3.65 Q1.0 3.85 1.3 4.2 1.05 3.65 1.05 3.1 L1.0 2.95 1.0 2.9 0.95 2.85 0.7 2.95 M0.1 3.45 L0.1 3.45 M0.05 3.55 L0.05 3.5 -0.05 3.35 -0.1 3.25 Q-0.1 3.2 -0.2 3.15 L-0.3 3.15 -0.5 3.3 Q-0.65 3.95 -0.2 4.5 -0.05 4.7 0.15 4.85 0.65 5.2 0.9 5.75 1.05 6.05 1.0 6.4 1.1 6.85 1.0 7.3 0.9 7.75 0.7 8.1 L0.95 7.9 Q1.2 7.7 1.4 7.45 1.75 6.85 1.85 6.1 1.95 5.0 1.15 4.25 L0.5 3.75 0.45 3.75 Q0.2 3.7 0.1 3.55 L0.1 3.6 0.05 3.55 M0.6 5.5 Q0.45 5.2 0.15 5.05 -0.55 4.6 -0.6 3.85 -0.6 3.6 -0.6 3.4 L-1.0 3.95 -1.15 4.4 -1.15 4.45 Q-1.3 5.05 -0.8 5.5 L0.0 6.05 -0.05 6.0 Q0.45 6.2 0.55 6.85 0.65 7.2 0.55 7.6 0.4 8.25 0.0 8.7 L0.45 8.3 Q0.8 7.9 0.85 7.35 L0.9 6.85 Q0.95 6.1 0.6 5.5 M0.45 13.7 L0.45 13.75 0.45 13.7 M-1.0 0.05 L-1.05 0.05 -1.4 0.2 -1.45 0.3 Q-1.75 0.7 -1.95 1.15 L-2.05 1.4 Q-2.3 2.05 -2.05 2.65 L-1.9 2.9 -1.85 3.0 -1.6 3.25 Q-1.2 3.6 -1.1 3.9 L-1.0 3.7 -1.0 3.25 -1.05 3.1 Q-1.35 2.7 -1.5 2.2 L-1.55 1.85 -1.55 1.7 Q-1.55 1.4 -1.45 1.1 -1.35 0.7 -1.1 0.3 L-1.0 0.05 M-1.75 3.5 Q-1.65 3.9 -1.7 4.35 -1.75 4.7 -1.9 5.05 L-2.05 5.3 -2.1 5.35 -2.05 5.35 Q-1.65 5.25 -1.45 4.75 -1.4 4.55 -1.3 4.45 L-1.2 4.1 Q-1.2 3.85 -1.35 3.6 L-1.35 3.65 -1.4 3.55 -1.6 3.45 -1.65 3.45 Q-1.7 3.4 -1.75 3.5 M-0.1 3.1 L-0.1 3.1 M-0.65 3.2 L-0.65 3.2 M-1.3 5.1 Q-1.35 4.95 -1.35 4.8 -1.55 5.3 -2.15 5.5 L-2.2 5.55 Q-2.45 5.6 -2.65 5.45 -2.65 6.25 -2.2 6.85 -1.95 7.15 -1.6 7.15 -1.2 7.1 -0.85 6.85 L-0.8 6.7 Q-0.65 6.4 -0.65 6.1 L-0.7 5.85 Q-0.75 5.75 -0.8 5.7 L-0.85 5.6 Q-1.15 5.4 -1.3 5.1" fill="#ff0000" fill-rule="evenodd" stroke="none"/>
      <path d="M0.0 -0.1 L0.0 -0.15 0.05 0.0 Q0.35 0.95 0.1 2.0 0.0 2.55 -0.35 2.9 L-0.55 3.1 -0.75 3.25 -0.8 3.3 Q-0.9 3.3 -0.9 3.25 L-0.9 3.2 Q-0.95 2.9 -1.1 2.7 -1.35 2.45 -1.4 2.1 -1.45 1.95 -1.4 1.8 L-1.4 1.75 -1.3 1.1 Q-1.2 0.75 -1.05 0.4 -0.85 0.0 -0.5 -0.3 L-0.45 -0.35 Q-0.15 -0.4 0.0 -0.1 M1.0 0.2 Q1.2 0.4 1.3 0.7 1.45 1.55 1.2 2.35 L1.2 2.4 0.95 2.7 Q0.5 2.85 0.25 3.2 L0.15 3.25 0.15 2.95 0.6 2.3 Q0.9 1.9 0.95 1.4 1.0 0.6 0.65 0.1 L0.8 0.1 Q0.95 0.1 1.0 0.2 M0.55 0.25 L0.6 0.3 0.6 0.35 Q1.1 1.35 0.5 2.3 L0.2 2.75 Q0.05 3.0 0.0 3.2 -0.05 3.0 0.0 2.75 L0.0 2.7 0.05 2.65 Q0.05 2.55 0.1 2.45 0.3 2.05 0.35 1.5 L0.4 1.0 Q0.4 0.45 0.25 0.05 L0.35 0.1 0.55 0.25 M0.7 2.95 L0.95 2.85 1.0 2.9 1.0 2.95 1.05 3.1 Q1.05 3.65 1.3 4.2 1.0 3.85 0.5 3.65 L0.35 3.6 0.25 3.5 Q0.3 3.05 0.7 2.95 M0.1 3.45 L0.1 3.45 M0.6 5.5 Q0.95 6.1 0.9 6.85 L0.85 7.35 Q0.8 7.9 0.45 8.3 L0.0 8.7 Q0.4 8.25 0.55 7.6 0.65 7.2 0.55 6.85 0.45 6.2 -0.05 6.0 L0.0 6.05 -0.8 5.5 Q-1.3 5.05 -1.15 4.45 L-1.15 4.4 -1.0 3.95 -0.6 3.4 Q-0.6 3.6 -0.6 3.85 -0.55 4.6 0.15 5.05 0.45 5.2 0.6 5.5 M0.05 3.55 L0.1 3.6 0.1 3.55 Q0.2 3.7 0.45 3.75 L0.5 3.75 1.15 4.25 Q1.95 5.0 1.85 6.1 1.75 6.85 1.4 7.45 1.2 7.7 0.95 7.9 L0.7 8.1 Q0.9 7.75 1.0 7.3 1.1 6.85 1.0 6.4 1.05 6.05 0.9 5.75 0.65 5.2 0.15 4.85 -0.05 4.7 -0.2 4.5 -0.65 3.95 -0.5 3.3 L-0.3 3.15 -0.2 3.15 Q-0.1 3.2 -0.1 3.25 L-0.05 3.35 0.05 3.5 0.05 3.55 M0.3 12.8 L0.3 12.75 Q0.75 12.85 1.05 12.55 L1.05 12.7 Q1.0 13.45 0.3 13.6 L0.2 13.55 Q0.1 13.4 -0.1 13.3 -0.15 13.25 -0.25 13.2 L-0.4 13.2 -0.45 13.25 Q-0.65 13.3 -0.85 13.15 L-0.95 13.0 -1.1 12.8 -1.1 12.7 Q-1.15 12.55 -1.1 12.4 L-0.95 11.95 Q-0.85 12.5 -0.25 12.65 L-0.3 12.75 -0.2 12.7 Q-0.05 12.85 0.15 12.85 L0.3 12.8 M-0.1 3.1 L-0.1 3.1 M-1.75 3.5 Q-1.7 3.4 -1.65 3.45 L-1.6 3.45 -1.4 3.55 -1.35 3.65 -1.35 3.6 Q-1.2 3.85 -1.2 4.1 L-1.3 4.45 Q-1.4 4.55 -1.45 4.75 -1.65 5.25 -2.05 5.35 L-2.1 5.35 -2.05 5.3 -1.9 5.05 Q-1.75 4.7 -1.7 4.35 -1.65 3.9 -1.75 3.5 M-1.0 0.05 L-1.1 0.3 Q-1.35 0.7 -1.45 1.1 -1.55 1.4 -1.55 1.7 L-1.55 1.85 -1.5 2.2 Q-1.35 2.7 -1.05 3.1 L-1.0 3.25 -1.0 3.7 -1.1 3.9 Q-1.2 3.6 -1.6 3.25 L-1.85 3.0 -1.9 2.9 -2.05 2.65 Q-2.3 2.05 -2.05 1.4 L-1.95 1.15 Q-1.75 0.7 -1.45 0.3 L-1.4 0.2 -1.05 0.05 -1.0 0.05 M-0.65 3.2 L-0.65 3.2 M-1.3 5.1 Q-1.15 5.4 -0.85 5.6 L-0.8 5.7 Q-0.75 5.75 -0.7 5.85 L-0.65 6.1 Q-0.65 6.4 -0.8 6.7 L-0.85 6.85 Q-1.2 7.1 -1.6 7.15 -1.95 7.15 -2.2 6.85 -2.65 6.25 -2.65 5.45 -2.45 5.6 -2.2 5.55 L-2.15 5.5 Q-1.55 5.3 -1.35 4.8 -1.35 4.95 -1.3 5.1" fill="url(#gradient0)" fill-rule="evenodd" stroke="none"/>
      <path d="M-0.85 11.7 Q-0.85 12.15 -0.4 12.4 L-0.25 12.5 -0.15 12.5 -0.05 12.6 -0.1 12.6 0.0 12.7 0.1 12.7 0.15 12.65 0.2 12.65 Q0.6 12.65 0.95 12.55 L1.1 12.45 1.1 12.4 1.2 12.35 Q1.25 12.85 1.0 13.3 0.8 13.65 0.45 13.7 L0.45 13.75 0.2 13.75 Q-0.05 13.6 -0.25 13.4 L-0.3 13.35 -0.4 13.4 Q-1.0 13.45 -1.2 12.9 L-1.25 12.7 Q-1.35 12.4 -1.15 12.05 L-1.1 11.85 -0.85 11.7 M0.3 12.8 L0.15 12.85 Q-0.05 12.85 -0.2 12.7 L-0.3 12.75 -0.25 12.65 Q-0.85 12.5 -0.95 11.95 L-1.1 12.4 Q-1.15 12.55 -1.1 12.7 L-1.1 12.8 -0.95 13.0 -0.85 13.15 Q-0.65 13.3 -0.45 13.25 L-0.4 13.2 -0.25 13.2 Q-0.15 13.25 -0.1 13.3 0.1 13.4 0.2 13.55 L0.3 13.6 Q1.0 13.45 1.05 12.7 L1.05 12.55 Q0.75 12.85 0.3 12.75 L0.3 12.8" fill="#cc0000" fill-rule="evenodd" stroke="none"/>
    </g>
    <radialGradient cx="0" cy="0" gradientTransform="matrix(-0.0159, 0.0, 0.0, -0.0123, 0.0, 0.75)" gradientUnits="userSpaceOnUse" id="gradient0" r="819.2" spreadMethod="pad">
      <stop offset="0.0" stop-color="#ffff00"/>
      <stop offset="1.0" stop-color="#ff6600"/>
    </radialGradient>
  </defs>
</svg>
