<?xml version="1.0" encoding="UTF-8" standalone="no"?>
<svg xmlns:ffdec="https://www.free-decompiler.com/flash" xmlns:xlink="http://www.w3.org/1999/xlink" ffdec:objectType="frame" height="112.45px" width="88.05px" xmlns="http://www.w3.org/2000/svg">
  <g transform="matrix(1.0, 0.0, 0.0, 1.0, 48.4, 4.15)">
    <use ffdec:characterId="1387" height="15.9" transform="matrix(5.4927, 0.0, 0.0, 5.1582, 0.6241, 15.7209)" width="5.45" xlink:href="#shape0"/>
    <use ffdec:characterId="1387" height="15.9" transform="matrix(7.0, 0.0, 0.0, 7.0, -48.4, -3.0)" width="5.45" xlink:href="#shape0"/>
  </g>
  <defs>
    <g id="shape0" transform="matrix(1.0, 0.0, 0.0, 1.0, 3.3, 0.5)">
      <path d="M0.25 -0.5 L0.3 -0.5 0.5 -0.4 Q0.6 -0.35 0.65 -0.25 L0.75 -0.15 Q1.0 -0.05 1.25 0.1 L1.25 0.05 Q1.9 0.5 1.95 1.3 2.0 1.9 1.75 2.35 L1.45 2.65 1.45 2.7 1.3 2.8 1.25 2.9 Q0.7 3.85 1.15 4.8 1.3 5.1 1.55 5.35 L1.6 5.4 Q1.85 5.55 2.0 5.75 2.2 6.1 2.15 6.6 L2.05 7.1 Q1.85 7.75 1.5 8.3 L1.5 8.35 1.45 8.45 1.35 8.55 1.2 8.75 Q1.15 8.85 1.0 8.9 L0.75 8.95 0.7 8.95 0.5 8.85 Q0.0 8.65 -0.5 8.8 L-0.35 8.7 Q-0.25 8.65 -0.15 8.6 L-0.1 8.6 Q0.35 8.45 0.6 7.9 0.75 7.5 0.6 7.1 0.5 6.75 0.25 6.6 -0.2 6.55 -0.65 6.7 L-1.15 6.95 -1.2 7.05 Q-1.0 7.35 -0.65 7.4 L-0.4 7.4 Q-0.55 7.75 -0.8 8.0 -0.95 8.25 -1.2 8.35 -1.4 8.45 -1.7 8.5 -1.95 8.5 -2.2 8.35 L-2.7 8.0 Q-3.05 7.65 -3.25 7.15 L-3.3 6.95 -3.25 6.6 -3.1 6.3 -3.05 6.3 -3.05 6.35 -3.0 6.35 -3.0 6.4 Q-2.95 6.45 -2.95 6.5 L-2.8 6.6 Q-2.5 6.7 -2.2 6.5 -1.65 6.1 -1.55 5.4 -1.5 5.15 -1.55 4.95 -1.6 4.5 -1.8 4.2 L-1.9 4.1 -2.2 3.5 Q-2.35 3.1 -2.35 2.65 L-2.35 2.3 Q-2.3 1.35 -1.85 0.5 L-1.75 0.35 Q-1.55 0.05 -1.3 -0.1 -1.05 -0.3 -0.7 -0.45 L-0.5 -0.45 -0.45 -0.5 Q-0.15 -0.6 0.05 -0.4 L0.1 -0.45 0.15 -0.45 0.25 -0.5 M0.05 -0.05 Q0.05 0.25 0.1 0.6 0.2 0.9 0.35 1.15 0.5 1.4 0.55 1.75 0.65 2.1 0.6 2.4 L0.55 2.85 0.45 3.15 0.45 3.1 0.35 3.45 0.65 3.15 1.15 2.7 1.25 2.65 Q1.45 2.55 1.6 2.35 L1.65 2.3 1.65 2.25 Q2.05 1.2 1.4 0.4 L1.1 0.1 1.0 0.15 Q1.15 0.4 1.25 0.7 1.3 1.05 1.2 1.4 1.2 0.4 0.5 -0.2 L0.4 -0.25 0.3 -0.25 0.2 -0.2 Q0.1 -0.15 0.05 -0.05 M0.05 0.85 Q-0.1 0.45 -0.1 0.05 L-0.2 -0.05 -0.3 -0.1 -0.4 0.0 -0.5 0.05 -0.6 0.2 Q-0.8 0.45 -0.95 0.75 L-1.1 1.0 -1.15 1.2 -1.15 1.25 -1.05 1.25 -0.9 1.2 -0.55 1.25 -0.15 1.6 Q-0.6 1.2 -1.1 1.45 -1.25 1.55 -1.25 1.65 L-1.3 1.7 Q-1.4 2.2 -1.3 2.75 -1.2 3.45 -0.85 4.1 -0.35 4.8 -0.45 5.7 L-0.4 5.8 -0.35 5.75 -0.25 5.55 -0.25 4.7 -0.2 4.7 Q-0.2 4.3 -0.05 3.95 L0.2 3.45 Q0.35 3.15 0.4 2.85 L0.45 2.65 0.45 2.05 Q0.45 1.75 0.3 1.5 L0.05 0.85 M0.55 3.4 L0.15 3.85 Q0.05 3.95 0.05 4.15 L0.0 4.35 0.15 4.6 Q0.4 5.0 0.9 5.1 1.05 5.1 1.2 5.2 L1.2 5.2 1.35 5.25 1.2 5.15 Q0.8 4.5 0.85 3.8 L0.9 3.35 0.9 3.25 0.85 3.25 Q0.75 3.2 0.7 3.25 L0.55 3.4 M0.05 4.7 L0.0 4.65 Q-0.1 4.65 -0.1 4.75 L-0.1 4.9 Q0.0 5.3 -0.15 5.75 L-0.3 6.1 -0.55 6.35 -0.6 6.45 -0.65 6.45 -0.75 6.55 -0.75 6.6 -0.7 6.6 -0.55 6.55 -0.15 6.4 0.15 6.4 Q0.5 6.45 0.85 6.6 L1.15 6.9 Q1.35 7.2 1.45 7.55 L1.5 7.7 1.55 7.75 Q1.65 7.75 1.65 7.65 L1.95 6.8 Q2.15 6.2 1.75 5.75 1.55 5.5 1.3 5.4 L1.0 5.3 0.9 5.3 Q0.45 5.15 0.1 4.75 L0.05 4.7 M0.6 6.75 Q0.95 7.35 0.7 8.0 0.5 8.45 0.15 8.6 0.4 8.65 0.7 8.85 L0.75 8.85 0.95 8.8 1.05 8.8 1.35 8.35 1.4 8.25 Q1.4 7.65 1.1 7.1 0.9 6.75 0.5 6.6 L0.6 6.75 M-1.05 13.6 L-1.0 13.6 -1.05 13.6 M-1.3 0.0 Q-1.5 0.2 -1.7 0.45 -1.9 0.85 -2.05 1.25 -2.2 1.9 -2.25 2.55 -2.25 3.5 -1.6 4.15 -1.25 4.5 -0.9 4.9 -0.6 5.3 -0.6 5.7 L-0.55 5.7 -0.55 5.5 Q-0.55 5.0 -0.75 4.5 -1.2 3.85 -1.4 3.1 -1.55 2.65 -1.5 2.15 L-1.5 1.9 -1.4 1.6 -1.25 1.05 -1.15 0.9 Q-1.05 0.55 -0.85 0.3 L-0.6 0.0 -0.4 -0.2 -0.4 -0.3 -0.65 -0.3 -0.7 -0.25 Q-1.25 0.25 -1.55 0.85 -1.4 0.3 -1.05 -0.05 L-1.2 -0.05 -1.3 0.0 M-3.05 6.5 L-3.1 6.5 Q-3.3 7.15 -2.8 7.65 L-2.6 7.85 -1.9 8.4 -1.45 8.3 -1.2 8.15 -1.05 8.05 Q-0.85 7.9 -0.75 7.75 L-0.6 7.45 Q-1.0 7.45 -1.25 7.1 L-1.25 6.85 Q-1.6 7.0 -1.95 7.0 -2.5 7.0 -2.9 6.65 L-3.05 6.5 M-1.4 4.65 L-1.4 4.7 -1.45 4.7 Q-1.35 5.1 -1.4 5.5 -1.5 5.85 -1.7 6.15 -1.95 6.6 -2.4 6.7 L-2.4 6.8 -2.25 6.85 -1.9 6.9 Q-1.3 6.8 -0.85 6.45 L-0.75 6.3 -0.7 6.2 Q-0.6 5.4 -1.2 4.75 L-1.3 4.65 -1.4 4.65" fill="#ff0000" fill-rule="evenodd" stroke="none"/>
      <path d="M0.6 6.75 L0.5 6.6 Q0.9 6.75 1.1 7.1 1.4 7.65 1.4 8.25 L1.35 8.35 1.05 8.8 0.95 8.8 0.75 8.85 0.7 8.85 Q0.4 8.65 0.15 8.6 0.5 8.45 0.7 8.0 0.95 7.35 0.6 6.75 M0.05 4.7 L0.1 4.75 Q0.45 5.15 0.9 5.3 L1.0 5.3 1.3 5.4 Q1.55 5.5 1.75 5.75 2.15 6.2 1.95 6.8 L1.65 7.65 Q1.65 7.75 1.55 7.75 L1.5 7.7 1.45 7.55 Q1.35 7.2 1.15 6.9 L0.85 6.6 Q0.5 6.45 0.15 6.4 L-0.15 6.4 -0.55 6.55 -0.7 6.6 -0.75 6.6 -0.75 6.55 -0.65 6.45 -0.6 6.45 -0.55 6.35 -0.3 6.1 -0.15 5.75 Q0.0 5.3 -0.1 4.9 L-0.1 4.75 Q-0.1 4.65 0.0 4.65 L0.05 4.7 M0.55 3.4 L0.7 3.25 Q0.75 3.2 0.85 3.25 L0.9 3.25 0.9 3.35 0.85 3.8 Q0.8 4.5 1.2 5.15 L1.35 5.25 1.2 5.2 1.2 5.2 Q1.05 5.1 0.9 5.1 0.4 5.0 0.15 4.6 L0.0 4.35 0.05 4.15 Q0.05 3.95 0.15 3.85 L0.55 3.4 M0.05 0.85 L0.3 1.5 Q0.45 1.75 0.45 2.05 L0.45 2.65 0.4 2.85 Q0.35 3.15 0.2 3.45 L-0.05 3.95 Q-0.2 4.3 -0.2 4.7 L-0.25 4.7 -0.25 5.55 -0.35 5.75 -0.4 5.8 -0.45 5.7 Q-0.35 4.8 -0.85 4.1 -1.2 3.45 -1.3 2.75 -1.4 2.2 -1.3 1.7 L-1.25 1.65 Q-1.25 1.55 -1.1 1.45 -0.6 1.2 -0.15 1.6 L-0.55 1.25 -0.9 1.2 -1.05 1.25 -1.15 1.25 -1.15 1.2 -1.1 1.0 -0.95 0.75 Q-0.8 0.45 -0.6 0.2 L-0.5 0.05 -0.4 0.0 -0.3 -0.1 -0.2 -0.05 -0.1 0.05 Q-0.1 0.45 0.05 0.85 M0.05 -0.05 Q0.1 -0.15 0.2 -0.2 L0.3 -0.25 0.4 -0.25 0.5 -0.2 Q1.2 0.4 1.2 1.4 1.3 1.05 1.25 0.7 1.15 0.4 1.0 0.15 L1.1 0.1 1.4 0.4 Q2.05 1.2 1.65 2.25 L1.65 2.3 1.6 2.35 Q1.45 2.55 1.25 2.65 L1.15 2.7 0.65 3.15 0.35 3.45 0.45 3.1 0.45 3.15 0.55 2.85 0.6 2.4 Q0.65 2.1 0.55 1.75 0.5 1.4 0.35 1.15 0.2 0.9 0.1 0.6 0.05 0.25 0.05 -0.05 M0.55 14.05 L0.6 14.15 Q0.75 14.45 0.75 14.85 L0.75 15.0 0.65 14.85 Q0.55 14.6 0.25 14.5 L-0.45 14.45 -0.6 14.45 -0.8 14.35 Q-1.05 14.1 -1.0 13.85 L-0.85 14.1 -0.75 14.05 -0.8 14.0 -0.35 14.0 Q0.15 13.75 0.55 14.05 M-3.05 6.5 L-2.9 6.65 Q-2.5 7.0 -1.95 7.0 -1.6 7.0 -1.25 6.85 L-1.25 7.1 Q-1.0 7.45 -0.6 7.45 L-0.75 7.75 Q-0.85 7.9 -1.05 8.05 L-1.2 8.15 -1.45 8.3 -1.9 8.4 -2.6 7.85 -2.8 7.65 Q-3.3 7.15 -3.1 6.5 L-3.05 6.5 M-1.3 0.0 L-1.2 -0.05 -1.05 -0.05 Q-1.4 0.3 -1.55 0.85 -1.25 0.25 -0.7 -0.25 L-0.65 -0.3 -0.4 -0.3 -0.4 -0.2 -0.6 0.0 -0.85 0.3 Q-1.05 0.55 -1.15 0.9 L-1.25 1.05 -1.4 1.6 -1.5 1.9 -1.5 2.15 Q-1.55 2.65 -1.4 3.1 -1.2 3.85 -0.75 4.5 -0.55 5.0 -0.55 5.5 L-0.55 5.7 -0.6 5.7 Q-0.6 5.3 -0.9 4.9 -1.25 4.5 -1.6 4.15 -2.25 3.5 -2.25 2.55 -2.2 1.9 -2.05 1.25 -1.9 0.85 -1.7 0.45 -1.5 0.2 -1.3 0.0 M-1.4 4.65 L-1.3 4.65 -1.2 4.75 Q-0.6 5.4 -0.7 6.2 L-0.75 6.3 -0.85 6.45 Q-1.3 6.8 -1.9 6.9 L-2.25 6.85 -2.4 6.8 -2.4 6.7 Q-1.95 6.6 -1.7 6.15 -1.5 5.85 -1.4 5.5 -1.35 5.1 -1.45 4.7 L-1.4 4.7 -1.4 4.65" fill="url(#gradient0)" fill-rule="evenodd" stroke="none"/>
      <path d="M0.55 14.05 Q0.15 13.75 -0.35 14.0 L-0.8 14.0 -0.75 14.05 -0.85 14.1 -1.0 13.85 Q-1.05 14.1 -0.8 14.35 L-0.6 14.45 -0.45 14.45 0.25 14.5 Q0.55 14.6 0.65 14.85 L0.75 15.0 0.75 14.85 Q0.75 14.45 0.6 14.15 L0.55 14.05 M-1.0 13.6 L-0.9 13.35 -0.9 13.3 -0.8 13.3 -0.9 13.5 -0.85 13.5 -0.9 13.55 -0.85 13.9 0.3 13.75 Q0.5 13.75 0.65 13.9 0.95 14.25 0.9 14.75 L0.85 14.8 0.85 15.1 0.75 15.15 Q0.75 15.25 0.7 15.4 0.65 15.1 0.5 14.9 0.4 14.7 0.2 14.6 -0.05 14.5 -0.3 14.55 L-0.45 14.6 -0.65 14.6 Q-1.0 14.5 -1.15 14.15 L-1.2 14.15 Q-1.2 13.95 -1.15 13.75 L-1.05 13.6 -1.0 13.6" fill="#cc0000" fill-rule="evenodd" stroke="none"/>
    </g>
    <radialGradient cx="0" cy="0" gradientTransform="matrix(-0.016, 0.0, 0.0, -0.0123, 0.0, 0.75)" gradientUnits="userSpaceOnUse" id="gradient0" r="819.2" spreadMethod="pad">
      <stop offset="0.0" stop-color="#ffff00"/>
      <stop offset="1.0" stop-color="#ff6600"/>
    </radialGradient>
  </defs>
</svg>
