<?xml version="1.0" encoding="UTF-8" standalone="no"?>
<svg xmlns:ffdec="https://www.free-decompiler.com/flash" xmlns:xlink="http://www.w3.org/1999/xlink" ffdec:objectType="frame" height="112.45px" width="88.05px" xmlns="http://www.w3.org/2000/svg">
  <g transform="matrix(1.0, 0.0, 0.0, 1.0, 48.4, 4.15)">
    <use ffdec:characterId="1390" height="14.0" transform="matrix(5.2033, 0.0, 0.0, 5.1194, -15.8614, 20.3082)" width="6.05" xlink:href="#shape0"/>
    <use ffdec:characterId="1390" height="14.0" transform="matrix(7.0, 0.0, 0.0, 7.0, -33.35, -4.15)" width="6.05" xlink:href="#shape0"/>
  </g>
  <defs>
    <g id="shape0" transform="matrix(1.0, 0.0, 0.0, 1.0, 3.5, 0.35)">
      <path d="M1.8 3.55 L1.85 3.55 Q2.25 4.0 2.35 4.5 2.15 5.35 1.65 5.95 1.45 6.2 1.15 6.35 L0.85 6.55 0.8 6.55 0.55 6.65 0.75 6.45 0.7 6.45 Q1.25 5.75 1.25 4.9 L1.25 4.4 Q1.25 4.2 1.3 4.05 L1.5 3.65 1.6 3.6 1.8 3.55 M1.05 2.3 L1.1 2.25 1.15 2.15 1.25 2.05 1.45 1.9 1.55 1.9 1.6 2.0 1.6 1.95 1.85 2.55 1.95 2.75 2.0 2.8 Q2.3 3.3 2.4 3.8 L2.4 4.15 Q2.35 4.0 2.25 3.8 2.1 3.4 1.7 3.4 1.6 3.4 1.55 3.45 1.35 3.65 1.25 3.85 L1.15 3.95 1.0 3.9 0.85 3.6 Q0.8 3.45 0.8 3.3 L0.8 3.15 Q0.85 2.7 1.05 2.3 M0.0 1.55 L0.05 1.65 Q0.2 1.9 0.3 2.25 L0.3 2.6 Q0.25 3.05 0.15 3.45 L-0.05 3.9 -0.1 3.95 -0.15 3.95 -0.15 3.8 -0.1 3.4 -0.15 3.35 -0.15 3.15 Q-0.15 3.0 -0.25 2.8 L-0.25 2.55 Q-0.3 2.4 -0.4 2.25 -0.55 2.0 -0.95 2.1 L-1.05 2.1 Q-1.25 2.25 -1.45 2.5 L-1.45 2.15 Q-1.45 2.0 -1.5 1.8 L-1.6 1.6 -1.65 1.25 -1.65 1.1 Q-1.65 0.9 -1.55 0.75 -1.35 0.35 -1.05 0.1 L-0.65 0.05 Q-1.05 0.5 -1.15 1.05 -1.15 1.3 -1.05 1.55 L-1.0 1.05 Q-0.95 0.65 -0.7 0.35 L-0.6 0.2 -0.55 0.2 -0.25 -0.05 -0.2 -0.1 -0.1 -0.05 -0.1 0.2 -0.15 0.2 -0.15 0.4 -0.2 0.55 Q-0.15 0.85 -0.1 1.1 L0.0 1.55 M0.1 -0.05 L0.5 -0.15 Q1.15 -0.25 1.55 0.25 1.6 0.35 1.65 0.5 1.75 0.8 1.7 1.1 L1.65 1.25 1.55 1.45 1.45 1.6 1.4 1.7 Q1.15 1.85 1.0 2.1 0.85 2.35 0.75 2.6 0.7 2.9 0.7 3.15 0.65 3.5 0.8 3.8 L1.05 4.4 1.1 4.7 Q1.15 5.7 0.6 6.45 L0.25 6.65 -0.7 7.05 -0.45 7.0 Q-0.8 7.2 -1.0 7.5 L-1.0 7.35 Q-1.1 7.0 -1.1 6.65 L-1.15 6.6 Q-1.15 5.9 -0.85 5.25 L-0.75 5.15 -0.55 4.85 Q0.2 4.1 0.4 3.05 0.5 2.6 0.4 2.25 L0.1 1.45 Q0.0 1.15 -0.05 0.85 L-0.05 0.3 0.1 -0.05 M1.4 12.45 Q1.4 12.75 1.3 13.0 1.2 13.25 0.95 13.4 0.7 13.5 0.4 13.45 L0.3 13.3 Q0.05 12.9 -0.3 13.0 -0.35 13.1 -0.45 13.0 -0.6 12.8 -0.65 12.5 -0.7 12.3 -0.7 12.05 -0.3 12.7 0.45 12.7 L1.1 12.6 1.4 12.45 M-0.15 4.0 L-0.15 4.0 M-2.1 3.6 Q-1.85 3.45 -1.55 3.55 -1.45 3.55 -1.4 3.65 L-1.35 3.75 Q-1.2 4.25 -1.4 4.7 L-1.55 5.15 -1.65 5.35 -1.7 5.6 -1.7 5.95 Q-1.55 6.7 -1.15 7.5 L-1.1 7.8 -1.15 7.9 -1.1 8.0 Q-1.1 8.45 -1.25 8.85 -1.25 8.4 -1.4 8.0 -1.5 7.7 -1.65 7.4 L-2.0 6.85 Q-2.35 6.4 -2.5 5.9 L-2.6 5.2 -2.65 4.6 Q-2.6 4.35 -2.5 4.1 L-2.3 3.75 -2.1 3.6 M-1.5 2.7 L-1.5 2.65 -1.45 2.6 Q-1.1 2.2 -0.65 2.25 L-0.45 2.55 -0.35 2.8 -0.3 3.1 Q-0.25 3.3 -0.3 3.55 L-0.3 3.9 Q-0.5 4.5 -0.8 5.05 L-0.85 5.1 -0.9 5.2 -0.95 5.2 -1.05 5.4 -1.0 5.4 -1.1 5.65 Q-1.25 6.2 -1.25 6.8 L-1.25 6.9 -1.3 6.85 Q-1.45 6.6 -1.5 6.4 L-1.55 6.4 -1.6 6.2 Q-1.65 5.8 -1.55 5.4 -1.35 5.05 -1.25 4.7 -1.15 4.35 -1.15 4.0 L-1.2 3.7 Q-1.25 3.55 -1.4 3.45 -1.5 3.35 -1.6 3.35 L-1.75 3.35 Q-1.85 3.35 -1.85 3.3 L-1.8 3.3 -1.8 3.25 -1.7 3.05 -1.75 3.05 -1.6 2.9 -1.45 2.65 -1.5 2.7 M-0.25 4.35 L-0.3 4.4 -0.3 4.35 -0.25 4.35 M-1.25 6.95 L-1.2 6.95 -1.2 7.0 -1.25 6.95 M-2.3 11.3 L-2.3 11.35 Q-2.35 11.55 -2.45 11.7 L-2.45 11.75 Q-2.8 11.75 -3.05 11.55 -3.2 11.45 -3.25 11.25 L-3.35 10.8 -3.25 10.9 Q-3.1 11.1 -2.85 11.15 L-2.3 11.3" fill="url(#gradient0)" fill-rule="evenodd" stroke="none"/>
      <path d="M0.25 -0.35 Q0.35 -0.35 0.4 -0.3 1.0 -0.45 1.55 0.0 L1.75 0.25 1.85 0.5 Q1.9 0.7 1.9 0.95 L1.9 0.9 1.8 1.25 1.7 1.65 1.7 1.85 1.75 1.9 1.75 1.95 1.8 2.15 2.15 2.75 Q2.45 3.1 2.55 3.6 L2.55 4.15 2.5 4.7 Q2.3 5.35 1.85 5.95 L1.75 6.05 1.4 6.35 1.0 6.6 0.85 6.7 0.6 6.75 Q0.15 6.85 -0.3 7.05 -0.75 7.25 -0.95 7.7 L-0.95 7.75 Q-0.85 8.45 -1.2 9.05 L-1.3 9.15 -1.35 9.1 -1.3 9.05 Q-1.4 8.4 -1.65 7.8 L-1.65 7.75 -1.85 7.35 -2.15 6.85 -2.5 6.3 Q-2.7 5.9 -2.75 5.5 -2.75 5.25 -2.8 4.95 -2.85 4.65 -2.75 4.35 L-2.7 4.1 Q-2.6 3.85 -2.45 3.65 -2.1 3.2 -1.7 2.85 -1.6 2.65 -1.55 2.45 L-1.55 2.25 Q-1.55 2.15 -1.6 2.05 L-1.75 1.45 -1.75 1.25 Q-1.75 0.95 -1.7 0.65 -1.65 0.5 -1.55 0.4 -1.15 -0.15 -0.5 -0.25 L-0.45 -0.25 -0.35 -0.2 Q-0.1 -0.35 0.15 -0.35 L0.25 -0.35 M0.1 -0.05 L-0.05 0.3 -0.05 0.85 Q0.0 1.15 0.1 1.45 L0.4 2.25 Q0.5 2.6 0.4 3.05 0.2 4.1 -0.55 4.85 L-0.75 5.15 -0.85 5.25 Q-1.15 5.9 -1.15 6.6 L-1.1 6.65 Q-1.1 7.0 -1.0 7.35 L-1.0 7.5 Q-0.8 7.2 -0.45 7.0 L-0.7 7.05 0.25 6.65 0.6 6.45 Q1.15 5.7 1.1 4.7 L1.05 4.4 0.8 3.8 Q0.65 3.5 0.7 3.15 0.7 2.9 0.75 2.6 0.85 2.35 1.0 2.1 1.15 1.85 1.4 1.7 L1.45 1.6 1.55 1.45 1.65 1.25 1.7 1.1 Q1.75 0.8 1.65 0.5 1.6 0.35 1.55 0.25 1.15 -0.25 0.5 -0.15 L0.1 -0.05 M0.0 1.55 L-0.1 1.1 Q-0.15 0.85 -0.2 0.55 L-0.15 0.4 -0.15 0.2 -0.1 0.2 -0.1 -0.05 -0.2 -0.1 -0.25 -0.05 -0.55 0.2 -0.6 0.2 -0.7 0.35 Q-0.95 0.65 -1.0 1.05 L-1.05 1.55 Q-1.15 1.3 -1.15 1.05 -1.05 0.5 -0.65 0.05 L-1.05 0.1 Q-1.35 0.35 -1.55 0.75 -1.65 0.9 -1.65 1.1 L-1.65 1.25 -1.6 1.6 -1.5 1.8 Q-1.45 2.0 -1.45 2.15 L-1.45 2.5 Q-1.25 2.25 -1.05 2.1 L-0.95 2.1 Q-0.55 2.0 -0.4 2.25 -0.3 2.4 -0.25 2.55 L-0.25 2.8 Q-0.15 3.0 -0.15 3.15 L-0.15 3.35 -0.1 3.4 -0.15 3.8 -0.15 3.95 -0.1 3.95 -0.05 3.9 0.15 3.45 Q0.25 3.05 0.3 2.6 L0.3 2.25 Q0.2 1.9 0.05 1.65 L0.0 1.55 M1.05 2.3 Q0.85 2.7 0.8 3.15 L0.8 3.3 Q0.8 3.45 0.85 3.6 L1.0 3.9 1.15 3.95 1.25 3.85 Q1.35 3.65 1.55 3.45 1.6 3.4 1.7 3.4 2.1 3.4 2.25 3.8 2.35 4.0 2.4 4.15 L2.4 3.8 Q2.3 3.3 2.0 2.8 L1.95 2.75 1.85 2.55 1.6 1.95 1.6 2.0 1.55 1.9 1.45 1.9 1.25 2.05 1.15 2.15 1.1 2.25 1.05 2.3 M1.8 3.55 L1.6 3.6 1.5 3.65 1.3 4.05 Q1.25 4.2 1.25 4.4 L1.25 4.9 Q1.25 5.75 0.7 6.45 L0.75 6.45 0.55 6.65 0.8 6.55 0.85 6.55 1.15 6.35 Q1.45 6.2 1.65 5.95 2.15 5.35 2.35 4.5 2.25 4.0 1.85 3.55 L1.8 3.55 M-1.5 2.7 L-1.45 2.65 -1.6 2.9 -1.75 3.05 -1.7 3.05 -1.8 3.25 -1.8 3.3 -1.85 3.3 Q-1.85 3.35 -1.75 3.35 L-1.6 3.35 Q-1.5 3.35 -1.4 3.45 -1.25 3.55 -1.2 3.7 L-1.15 4.0 Q-1.15 4.35 -1.25 4.7 -1.35 5.05 -1.55 5.4 -1.65 5.8 -1.6 6.2 L-1.55 6.4 -1.5 6.4 Q-1.45 6.6 -1.3 6.85 L-1.25 6.9 -1.25 6.8 Q-1.25 6.2 -1.1 5.65 L-1.0 5.4 -1.05 5.4 -0.95 5.2 -0.9 5.2 -0.85 5.1 -0.8 5.05 Q-0.5 4.5 -0.3 3.9 L-0.3 3.55 Q-0.25 3.3 -0.3 3.1 L-0.35 2.8 -0.45 2.55 -0.65 2.25 Q-1.1 2.2 -1.45 2.6 L-1.5 2.65 -1.5 2.7 M-2.1 3.6 L-2.3 3.75 -2.5 4.1 Q-2.6 4.35 -2.65 4.6 L-2.6 5.2 -2.5 5.9 Q-2.35 6.4 -2.0 6.85 L-1.65 7.4 Q-1.5 7.7 -1.4 8.0 -1.25 8.4 -1.25 8.85 -1.1 8.45 -1.1 8.0 L-1.15 7.9 -1.1 7.8 -1.15 7.5 Q-1.55 6.7 -1.7 5.95 L-1.7 5.6 -1.65 5.35 -1.55 5.15 -1.4 4.7 Q-1.2 4.25 -1.35 3.75 L-1.4 3.65 Q-1.45 3.55 -1.55 3.55 -1.85 3.45 -2.1 3.6 M-0.15 4.0 L-0.15 4.0 M-0.25 4.35 L-0.3 4.35 -0.3 4.4 -0.25 4.35 M-1.25 6.95 L-1.2 7.0 -1.2 6.95 -1.25 6.95 M-3.45 10.6 L-3.5 10.55 -3.45 10.55 -3.45 10.6 M-3.35 10.55 L-3.35 10.6 -3.35 10.55" fill="#ff0000" fill-rule="evenodd" stroke="none"/>
      <path d="M1.4 12.3 L1.55 12.25 Q1.5 12.35 1.55 12.45 1.55 12.65 1.5 12.85 1.35 13.4 0.8 13.65 L0.45 13.6 0.3 13.55 0.25 13.55 0.1 13.4 0.2 13.4 0.15 13.35 -0.15 13.1 -0.2 13.1 Q-0.6 13.25 -0.75 12.8 -0.9 12.2 -0.7 11.65 L-0.6 11.7 -0.65 11.75 -0.6 11.75 -0.6 11.8 -0.65 11.8 -0.65 11.85 Q-0.5 12.35 0.0 12.5 0.75 12.65 1.4 12.3 M1.4 12.45 L1.1 12.6 0.45 12.7 Q-0.3 12.7 -0.7 12.05 -0.7 12.3 -0.65 12.5 -0.6 12.8 -0.45 13.0 -0.35 13.1 -0.3 13.0 0.05 12.9 0.3 13.3 L0.4 13.45 Q0.7 13.5 0.95 13.4 1.2 13.25 1.3 13.0 1.4 12.75 1.4 12.45 M-2.3 11.3 L-2.85 11.15 Q-3.1 11.1 -3.25 10.9 L-3.35 10.8 -3.25 11.25 Q-3.2 11.45 -3.05 11.55 -2.8 11.75 -2.45 11.75 L-2.45 11.7 Q-2.35 11.55 -2.3 11.35 L-2.3 11.3 M-3.35 10.6 L-3.1 10.85 -2.85 11.0 -2.3 11.15 Q-2.2 11.2 -2.2 11.25 -2.2 11.55 -2.35 11.75 L-2.45 11.9 -2.55 11.9 -2.55 11.85 -2.9 11.8 Q-3.4 11.55 -3.45 11.0 -3.5 10.8 -3.45 10.6 L-3.45 10.55 -3.35 10.55 -3.35 10.6" fill="#cc0000" fill-rule="evenodd" stroke="none"/>
    </g>
    <radialGradient cx="0" cy="0" gradientTransform="matrix(-0.0162, 0.0, 0.0, -0.0123, 0.0, 0.75)" gradientUnits="userSpaceOnUse" id="gradient0" r="819.2" spreadMethod="pad">
      <stop offset="0.0" stop-color="#ffff00"/>
      <stop offset="1.0" stop-color="#ff6600"/>
    </radialGradient>
  </defs>
</svg>
