<?xml version="1.0" encoding="UTF-8" standalone="no"?>
<svg xmlns:ffdec="https://www.free-decompiler.com/flash" xmlns:xlink="http://www.w3.org/1999/xlink" ffdec:objectType="frame" height="112.45px" width="88.05px" xmlns="http://www.w3.org/2000/svg">
  <g transform="matrix(1.0, 0.0, 0.0, 1.0, 48.4, 4.15)">
    <use ffdec:characterId="1391" height="15.2" transform="matrix(5.094, 0.0, 0.0, 5.1044, -20.9103, 19.9082)" width="5.65" xlink:href="#shape0"/>
    <use ffdec:characterId="1391" height="15.2" transform="matrix(7.0, 0.0, 0.0, 7.0, -25.55, -3.95)" width="5.65" xlink:href="#shape0"/>
  </g>
  <defs>
    <g id="shape0" transform="matrix(1.0, 0.0, 0.0, 1.0, 3.3, 0.4)">
      <path d="M0.4 7.1 Q0.85 7.0 1.15 6.7 1.4 6.4 1.75 6.3 L1.75 6.35 Q1.9 6.65 1.9 6.9 L1.75 7.1 Q1.35 7.55 0.8 7.7 L-0.4 7.75 -0.8 7.6 -0.9 7.35 -0.9 6.95 -0.85 6.95 -0.75 6.85 Q-0.5 7.05 -0.15 7.1 0.15 7.15 0.4 7.1 M0.0 4.9 L0.3 5.15 0.45 5.5 0.55 5.7 Q0.65 6.0 0.6 6.35 0.55 6.7 0.25 6.95 -0.2 7.0 -0.6 6.85 L-0.6 6.8 -0.7 6.75 -0.8 6.75 -0.85 6.7 -0.9 6.6 Q-0.85 6.45 -0.75 6.35 L-0.8 6.35 -0.7 6.2 -0.65 6.2 -0.4 5.75 -0.35 5.65 Q-0.3 5.5 -0.3 5.35 -0.25 4.95 -0.35 4.6 L-0.2 4.7 0.0 4.9 M1.9 4.8 Q2.15 5.2 2.2 5.6 2.25 6.2 2.0 6.7 L2.0 6.55 Q2.0 6.45 1.95 6.35 1.65 6.0 1.3 6.35 L0.9 6.7 0.8 6.75 0.75 6.75 Q0.7 6.7 0.7 6.65 L0.7 6.6 0.75 6.35 0.75 6.15 Q0.8 5.85 0.7 5.55 L0.7 5.4 Q0.9 5.55 1.1 5.6 L1.15 5.6 1.3 5.65 1.6 5.45 Q1.8 5.15 1.9 4.8 M0.9 3.25 Q0.95 3.55 1.05 3.85 L1.1 3.95 Q1.35 4.25 1.6 4.45 L1.7 4.55 Q1.75 4.65 1.75 4.8 L1.75 4.95 Q1.65 5.3 1.35 5.5 0.9 5.45 0.7 5.0 0.55 4.65 0.55 4.35 0.55 4.1 0.65 3.85 L0.8 3.3 0.8 3.35 0.9 3.25 M0.9 0.45 L0.95 0.2 0.9 0.05 0.85 -0.05 1.05 0.0 Q1.35 0.2 1.35 0.65 1.4 1.3 0.85 1.6 L-0.2 2.2 -0.45 2.4 -0.45 2.35 -0.35 2.15 Q-0.2 1.85 0.1 1.65 L0.05 1.65 0.35 1.4 0.55 1.25 0.85 0.75 0.9 0.45 M1.65 0.9 L1.65 0.95 1.7 1.25 Q1.65 1.55 1.5 1.85 L1.2 2.25 1.1 2.4 Q0.65 3.05 0.5 3.85 L0.35 4.5 0.35 4.65 0.5 5.2 0.35 5.0 0.05 4.75 -0.2 4.5 -0.6 3.9 -0.7 3.4 Q-0.6 2.85 -0.3 2.45 L-0.15 2.3 Q0.25 2.05 0.7 1.85 1.3 1.55 1.45 0.9 L1.45 0.45 Q1.55 0.6 1.6 0.75 L1.65 0.8 1.65 0.9 M0.05 -0.15 L0.15 -0.2 Q0.65 -0.35 0.75 0.15 L0.8 0.4 0.8 0.45 0.7 0.75 0.6 1.0 0.35 1.25 -0.3 1.8 -0.25 1.8 -0.55 2.15 -0.7 2.6 Q-0.85 3.1 -0.8 3.55 -1.15 2.9 -1.35 2.25 L-1.35 2.15 -1.45 1.6 Q-1.5 1.45 -1.5 1.3 L-1.45 1.15 Q-1.35 0.6 -0.95 0.25 -0.8 0.1 -0.55 0.05 L-0.55 0.1 Q-0.9 0.4 -0.9 0.85 -0.65 0.15 0.05 -0.15 M0.05 14.0 Q0.35 13.9 0.5 13.95 0.65 14.05 0.65 14.15 L0.65 14.4 0.6 14.35 Q0.35 14.2 0.05 14.25 -0.1 14.3 -0.25 14.35 L-0.4 14.5 -0.5 14.45 -0.3 14.3 -0.25 14.25 -0.05 14.1 Q0.0 14.05 0.05 14.0 M-2.25 7.5 Q-2.35 7.05 -2.25 6.7 L-2.15 6.3 Q-1.9 5.85 -1.4 6.0 -1.15 6.35 -1.2 6.75 L-1.2 6.9 -1.35 7.3 Q-1.45 7.7 -1.3 8.05 -1.1 8.6 -0.7 8.9 L-0.55 9.0 Q-0.55 9.15 -0.55 9.25 -0.55 9.4 -0.65 9.55 -0.85 9.8 -1.2 9.9 -1.05 9.8 -0.95 9.65 L-0.95 9.4 Q-0.9 9.1 -1.05 8.85 -1.15 8.7 -1.25 8.6 L-1.5 8.35 Q-1.85 8.1 -2.05 7.75 L-2.25 7.5 M-2.1 4.2 Q-1.95 4.05 -1.75 4.0 L-1.6 4.0 Q-1.25 4.15 -1.1 4.45 -0.7 5.25 -0.8 6.15 L-1.1 6.65 Q-1.1 6.4 -1.15 6.1 -1.25 5.9 -1.4 5.85 L-1.75 5.85 Q-2.2 6.0 -2.3 6.45 L-2.4 6.8 -2.45 6.9 -2.5 6.9 -2.55 6.8 -2.6 6.6 Q-2.7 6.15 -2.7 5.65 -2.7 5.2 -2.5 4.8 L-2.1 4.2 M-0.65 5.6 L-0.65 5.6 M-1.15 3.15 L-1.1 3.2 -0.7 3.95 -0.6 4.25 Q-0.55 4.4 -0.5 4.6 -0.4 5.05 -0.45 5.4 L-0.5 5.45 -0.6 5.6 -0.65 5.2 -0.7 5.2 Q-0.75 4.8 -0.9 4.45 -1.05 4.15 -1.35 4.0 -1.5 3.9 -1.7 3.9 -1.6 3.75 -1.55 3.65 L-1.4 3.25 Q-1.4 3.05 -1.25 3.0 L-1.2 3.0 -1.15 3.15 M-3.1 12.55 Q-3.1 12.5 -3.15 12.45 L-3.15 12.3 -3.1 12.35 Q-3.0 12.45 -2.85 12.4 L-2.7 12.25 -2.6 12.25 -2.6 12.35 -2.65 12.4 -2.9 12.6 -3.1 12.55" fill="url(#gradient0)" fill-rule="evenodd" stroke="none"/>
      <path d="M0.65 -0.3 L0.7 -0.35 Q1.05 -0.35 1.25 -0.05 L1.3 0.0 1.5 0.25 Q1.9 0.85 1.75 1.55 L1.65 1.8 1.5 2.1 1.25 2.45 1.2 2.45 Q1.1 2.8 1.1 3.15 1.1 3.65 1.35 4.05 L1.55 4.25 1.8 4.45 1.9 4.6 1.95 4.6 1.9 4.65 2.1 4.95 Q2.35 5.4 2.35 5.85 2.4 6.5 2.0 7.0 L1.85 7.15 Q1.2 7.95 0.1 7.95 -0.2 7.95 -0.45 7.85 L-0.85 7.7 -0.95 7.6 -1.0 7.4 Q-1.05 7.2 -1.0 7.0 -1.1 7.1 -1.15 7.3 -1.3 7.8 -1.05 8.25 -0.9 8.55 -0.7 8.75 L-0.5 8.95 Q-0.4 9.0 -0.4 9.05 -0.4 9.2 -0.4 9.35 L-0.5 9.55 Q-0.7 9.9 -1.15 10.0 L-1.3 9.95 -1.35 9.9 -1.3 9.9 -1.25 9.85 Q-1.0 9.6 -1.1 9.15 -1.15 8.9 -1.3 8.75 L-1.95 8.1 -2.2 7.8 -2.6 7.1 -2.75 6.8 Q-2.85 6.3 -2.85 5.8 L-2.85 5.75 Q-2.85 5.3 -2.65 4.85 L-2.5 4.55 -2.2 4.15 -1.7 3.65 -1.65 3.55 Q-1.45 3.05 -1.45 2.5 L-1.65 1.3 -1.6 1.15 -1.6 1.2 Q-1.5 0.45 -0.9 0.0 -0.65 -0.2 -0.4 -0.25 L0.15 -0.4 0.55 -0.4 0.65 -0.3 M0.05 -0.15 Q-0.65 0.15 -0.9 0.85 -0.9 0.4 -0.55 0.1 L-0.55 0.05 Q-0.8 0.1 -0.95 0.25 -1.35 0.6 -1.45 1.15 L-1.5 1.3 Q-1.5 1.45 -1.45 1.6 L-1.35 2.15 -1.35 2.25 Q-1.15 2.9 -0.8 3.55 -0.85 3.1 -0.7 2.6 L-0.55 2.15 -0.25 1.8 -0.3 1.8 0.35 1.25 0.6 1.0 0.7 0.75 0.8 0.45 0.8 0.4 0.75 0.15 Q0.65 -0.35 0.15 -0.2 L0.05 -0.15 M1.65 0.9 L1.65 0.8 1.6 0.75 Q1.55 0.6 1.45 0.45 L1.45 0.9 Q1.3 1.55 0.7 1.85 0.25 2.05 -0.15 2.3 L-0.3 2.45 Q-0.6 2.85 -0.7 3.4 L-0.6 3.9 -0.2 4.5 0.05 4.75 0.35 5.0 0.5 5.2 0.35 4.65 0.35 4.5 0.5 3.85 Q0.65 3.05 1.1 2.4 L1.2 2.25 1.5 1.85 Q1.65 1.55 1.7 1.25 L1.65 0.95 1.65 0.9 M0.9 0.45 L0.85 0.75 0.55 1.25 0.35 1.4 0.05 1.65 0.1 1.65 Q-0.2 1.85 -0.35 2.15 L-0.45 2.35 -0.45 2.4 -0.2 2.2 0.85 1.6 Q1.4 1.3 1.35 0.65 1.35 0.2 1.05 0.0 L0.85 -0.05 0.9 0.05 0.95 0.2 0.9 0.45 M0.9 3.25 L0.8 3.35 0.8 3.3 0.65 3.85 Q0.55 4.1 0.55 4.35 0.55 4.65 0.7 5.0 0.9 5.45 1.35 5.5 1.65 5.3 1.75 4.95 L1.75 4.8 Q1.75 4.65 1.7 4.55 L1.6 4.45 Q1.35 4.25 1.1 3.95 L1.05 3.85 Q0.95 3.55 0.9 3.25 M1.9 4.8 Q1.8 5.15 1.6 5.45 L1.3 5.65 1.15 5.6 1.1 5.6 Q0.9 5.55 0.7 5.4 L0.7 5.55 Q0.8 5.85 0.75 6.15 L0.75 6.35 0.7 6.6 0.7 6.65 Q0.7 6.7 0.75 6.75 L0.8 6.75 0.9 6.7 1.3 6.35 Q1.65 6.0 1.95 6.35 2.0 6.45 2.0 6.55 L2.0 6.7 Q2.25 6.2 2.2 5.6 2.15 5.2 1.9 4.8 M0.0 4.9 L-0.2 4.7 -0.35 4.6 Q-0.25 4.95 -0.3 5.35 -0.3 5.5 -0.35 5.65 L-0.4 5.75 -0.65 6.2 -0.7 6.2 -0.8 6.35 -0.75 6.35 Q-0.85 6.45 -0.9 6.6 L-0.85 6.7 -0.8 6.75 -0.7 6.75 -0.6 6.8 -0.6 6.85 Q-0.2 7.0 0.25 6.95 0.55 6.7 0.6 6.35 0.65 6.0 0.55 5.7 L0.45 5.5 0.3 5.15 0.0 4.9 M0.4 7.1 Q0.15 7.15 -0.15 7.1 -0.5 7.05 -0.75 6.85 L-0.85 6.95 -0.9 6.95 -0.9 7.35 -0.8 7.6 -0.4 7.75 0.8 7.7 Q1.35 7.55 1.75 7.1 L1.9 6.9 Q1.9 6.65 1.75 6.35 L1.75 6.3 Q1.4 6.4 1.15 6.7 0.85 7.0 0.4 7.1 M0.65 14.75 L0.65 14.75 M-1.15 3.15 L-1.2 3.0 -1.25 3.0 Q-1.4 3.05 -1.4 3.25 L-1.55 3.65 Q-1.6 3.75 -1.7 3.9 -1.5 3.9 -1.35 4.0 -1.05 4.15 -0.9 4.45 -0.75 4.8 -0.7 5.2 L-0.65 5.2 -0.6 5.6 -0.5 5.45 -0.45 5.4 Q-0.4 5.05 -0.5 4.6 -0.55 4.4 -0.6 4.25 L-0.7 3.95 -1.1 3.2 -1.15 3.15 M-0.65 5.6 L-0.65 5.6 M-2.1 4.2 L-2.5 4.8 Q-2.7 5.2 -2.7 5.65 -2.7 6.15 -2.6 6.6 L-2.55 6.8 -2.5 6.9 -2.45 6.9 -2.4 6.8 -2.3 6.45 Q-2.2 6.0 -1.75 5.85 L-1.4 5.85 Q-1.25 5.9 -1.15 6.1 -1.1 6.4 -1.1 6.65 L-0.8 6.15 Q-0.7 5.25 -1.1 4.45 -1.25 4.15 -1.6 4.0 L-1.75 4.0 Q-1.95 4.05 -2.1 4.2 M-2.25 7.5 L-2.05 7.75 Q-1.85 8.1 -1.5 8.35 L-1.25 8.6 Q-1.15 8.7 -1.05 8.85 -0.9 9.1 -0.95 9.4 L-0.95 9.65 Q-1.05 9.8 -1.2 9.9 -0.85 9.8 -0.65 9.55 -0.55 9.4 -0.55 9.25 -0.55 9.15 -0.55 9.0 L-0.7 8.9 Q-1.1 8.6 -1.3 8.05 -1.45 7.7 -1.35 7.3 L-1.2 6.9 -1.2 6.75 Q-1.15 6.35 -1.4 6.0 -1.9 5.85 -2.15 6.3 L-2.25 6.7 Q-2.35 7.05 -2.25 7.5 M-2.5 12.45 L-2.5 12.45" fill="#ff0000" fill-rule="evenodd" stroke="none"/>
      <path d="M0.05 14.0 Q0.0 14.05 -0.05 14.1 L-0.25 14.25 -0.3 14.3 -0.5 14.45 -0.4 14.5 -0.25 14.35 Q-0.1 14.3 0.05 14.25 0.35 14.2 0.6 14.35 L0.65 14.4 0.65 14.15 Q0.65 14.05 0.5 13.95 0.35 13.9 0.05 14.0 M0.65 14.75 L0.6 14.45 Q0.35 14.25 0.05 14.35 L-0.05 14.4 Q-0.25 14.5 -0.4 14.65 L-0.75 14.45 -0.75 14.4 Q-0.7 14.3 -0.6 14.35 L-0.55 14.35 -0.05 13.95 0.05 13.9 0.3 13.85 Q0.75 13.75 0.8 14.2 0.8 14.4 0.75 14.6 L0.7 14.65 0.65 14.75 M-2.5 12.45 L-2.9 12.7 -2.9 12.75 -3.2 12.7 -3.25 12.5 -3.25 12.25 -3.3 12.2 -3.3 12.05 -3.25 12.05 -3.1 12.15 -3.0 12.3 -2.85 12.25 -2.75 12.15 -2.55 12.15 -2.45 12.25 Q-2.4 12.3 -2.4 12.35 L-2.5 12.45 M-3.1 12.55 L-2.9 12.6 -2.65 12.4 -2.6 12.35 -2.6 12.25 -2.7 12.25 -2.85 12.4 Q-3.0 12.45 -3.1 12.35 L-3.15 12.3 -3.15 12.45 Q-3.1 12.5 -3.1 12.55" fill="#cc0000" fill-rule="evenodd" stroke="none"/>
    </g>
    <radialGradient cx="0" cy="0" gradientTransform="matrix(-0.0163, 0.0, 0.0, -0.0122, 0.0, 0.75)" gradientUnits="userSpaceOnUse" id="gradient0" r="819.2" spreadMethod="pad">
      <stop offset="0.0" stop-color="#ffff00"/>
      <stop offset="1.0" stop-color="#ff6600"/>
    </radialGradient>
  </defs>
</svg>
