<?xml version="1.0" encoding="UTF-8" standalone="no"?>
<svg xmlns:ffdec="https://www.free-decompiler.com/flash" xmlns:xlink="http://www.w3.org/1999/xlink" ffdec:objectType="frame" height="112.45px" width="88.05px" xmlns="http://www.w3.org/2000/svg">
  <g transform="matrix(1.0, 0.0, 0.0, 1.0, 48.4, 4.15)">
    <use ffdec:characterId="1392" height="10.8" transform="matrix(5.5457, 0.0, 0.0, 5.7614, -25.396, 16.5955)" width="5.7" xlink:href="#shape0"/>
    <use ffdec:characterId="1392" height="10.8" transform="matrix(6.8774, 0.0, 0.0, 7.0, -14.0251, -1.9)" width="5.7" xlink:href="#shape0"/>
  </g>
  <defs>
    <g id="shape0" transform="matrix(1.0, 0.0, 0.0, 1.0, 2.65, 0.4)">
      <path d="M1.0 2.85 L1.0 3.0 0.95 3.0 Q0.75 3.9 0.9 4.8 1.05 5.75 1.8 6.35 1.85 6.5 1.8 6.7 L1.75 6.7 1.75 6.75 1.6 6.85 1.5 6.85 1.05 6.7 Q0.8 6.55 0.6 6.3 0.05 5.45 0.25 4.4 0.35 3.75 0.6 3.2 L0.9 2.9 1.0 2.85 1.0 2.8 1.05 2.8 1.0 2.85 M0.1 3.15 L0.1 3.15 M0.1 3.2 L0.1 3.2 M0.15 3.35 L0.55 3.1 0.5 3.15 0.45 3.25 0.35 3.4 0.4 3.4 0.25 3.8 Q-0.15 4.75 0.15 5.75 L0.2 5.95 0.25 6.1 Q0.25 6.25 0.25 6.35 L0.2 6.35 Q-0.25 6.05 -0.55 5.65 L-0.7 5.4 -0.95 4.55 Q-0.8 3.9 -0.25 3.55 L0.1 3.35 0.15 3.35 M1.1 0.15 Q1.15 0.2 1.2 0.2 L1.3 0.35 1.3 0.4 1.35 0.4 1.35 0.35 Q1.45 0.5 1.45 0.65 1.55 1.1 1.4 1.6 L1.35 1.7 1.35 1.75 1.15 2.2 1.15 2.25 Q1.0 2.45 0.8 2.65 L0.35 3.0 0.4 2.75 0.8 2.15 Q1.0 1.75 1.05 1.3 L1.05 1.4 1.15 1.05 1.1 1.05 1.15 0.7 1.1 0.3 1.1 0.15 M0.15 -0.25 L0.2 -0.25 Q0.35 -0.25 0.45 -0.15 L0.4 -0.2 0.4 -0.25 0.5 -0.15 Q0.95 0.1 1.0 0.65 1.0 1.3 0.75 1.9 0.4 2.8 -0.3 3.4 L-0.5 3.5 -0.5 3.55 Q-1.0 3.95 -1.1 4.45 L-1.35 5.8 Q-1.45 6.55 -1.45 7.5 -1.7 7.15 -1.9 6.75 -2.05 6.25 -2.0 5.75 L-1.9 5.2 Q-1.75 5.0 -1.65 4.75 -1.5 4.5 -1.4 4.15 -1.2 3.6 -1.25 3.05 -1.2 2.6 -1.3 2.25 L-1.5 1.6 -1.55 1.35 -1.55 0.9 Q-1.45 0.3 -1.0 -0.05 L-0.8 -0.15 Q-0.35 -0.3 0.15 -0.25 M0.25 6.7 L0.15 6.6 Q0.05 6.45 -0.1 6.35 L-0.2 6.2 Q0.0 6.4 0.35 6.55 L0.8 6.75 Q1.05 6.9 1.4 6.95 L1.65 6.95 1.8 6.9 1.95 6.8 Q2.15 6.65 2.25 6.4 L2.3 6.35 2.3 6.3 2.25 6.35 2.3 6.2 Q2.35 6.0 2.3 5.8 3.0 6.4 2.85 7.35 2.75 7.8 2.55 8.15 L2.4 8.4 2.15 8.65 2.05 8.7 1.75 8.8 1.45 8.85 1.2 8.8 0.95 8.7 Q0.8 8.65 0.7 8.6 L0.5 8.45 0.25 8.2 Q-0.2 7.8 -0.25 7.3 L-0.15 7.3 0.05 7.2 0.2 7.05 0.2 6.95 0.25 6.7 M-2.2 5.6 L-2.2 5.8 Q-2.2 6.2 -2.1 6.6 -1.9 7.2 -1.5 7.7 L-1.25 7.95 Q-1.15 8.05 -1.0 8.15 L-0.95 8.2 -0.75 8.3 Q-0.5 8.5 -0.35 8.9 -0.15 9.35 -0.25 9.8 -0.25 9.95 -0.35 10.05 -0.45 10.2 -0.55 10.2 L-0.5 10.05 Q-0.35 9.5 -0.75 9.1 L-1.4 8.75 -1.9 8.25 Q-2.35 7.7 -2.4 7.0 -2.5 6.35 -2.3 5.7 L-2.25 5.7 -2.2 5.6 M-0.9 5.3 L-0.85 5.4 Q-0.6 5.85 -0.35 6.25 L-0.6 6.3 -0.7 6.35 Q-0.9 6.45 -1.05 6.6 L-1.2 6.65 -1.2 6.6 -1.25 6.3 -1.1 5.25 -1.05 5.2 Q-1.05 5.1 -0.95 5.15 L-0.9 5.2 -0.9 5.3" fill="url(#gradient0)" fill-rule="evenodd" stroke="none"/>
      <path d="M0.15 -0.4 Q0.2 -0.35 0.3 -0.35 L0.55 -0.3 Q0.95 -0.25 1.25 0.05 L1.3 0.15 1.35 0.1 Q1.55 0.3 1.6 0.55 L1.65 0.65 Q1.75 1.5 1.3 2.25 1.15 2.9 1.0 3.6 0.85 4.65 1.3 5.6 1.5 5.9 1.7 6.15 L2.0 6.35 2.1 6.35 Q2.2 6.15 2.1 5.85 2.05 5.6 1.85 5.45 L2.1 5.45 2.1 5.5 Q2.75 5.8 2.95 6.5 3.1 7.0 3.0 7.45 2.95 7.85 2.75 8.15 L2.6 8.4 2.4 8.65 2.15 8.85 1.9 8.95 1.6 9.0 1.3 9.0 0.8 8.8 0.5 8.65 Q0.2 8.4 -0.05 8.1 -0.35 7.7 -0.35 7.2 L-0.25 7.2 -0.15 7.25 0.05 7.05 0.1 6.8 Q0.05 6.6 -0.1 6.45 -0.2 6.4 -0.3 6.4 L-0.4 6.45 Q-0.55 6.4 -0.7 6.5 -1.4 7.0 -1.25 7.75 L-1.0 8.0 Q-0.55 8.15 -0.3 8.6 -0.1 8.95 -0.05 9.35 -0.05 9.75 -0.2 10.1 L-0.35 10.25 Q-0.6 10.4 -0.8 10.4 L-0.8 10.35 -0.7 10.25 Q-0.5 9.8 -0.75 9.35 -0.9 9.15 -1.15 9.05 -1.5 8.9 -1.75 8.65 L-1.85 8.6 Q-2.5 7.95 -2.6 7.0 -2.8 5.95 -2.15 5.15 L-1.95 4.95 -1.8 4.75 -1.75 4.7 -1.45 3.7 Q-1.35 3.3 -1.4 2.9 -1.4 2.55 -1.45 2.25 L-1.65 1.6 Q-1.75 1.25 -1.7 0.9 -1.6 0.5 -1.35 0.15 L-1.2 -0.05 Q-0.8 -0.3 -0.3 -0.4 -0.1 -0.4 0.15 -0.4 M0.15 -0.25 Q-0.35 -0.3 -0.8 -0.15 L-1.0 -0.05 Q-1.45 0.3 -1.55 0.9 L-1.55 1.35 -1.5 1.6 -1.3 2.25 Q-1.2 2.6 -1.25 3.05 -1.2 3.6 -1.4 4.15 -1.5 4.5 -1.65 4.75 -1.75 5.0 -1.9 5.2 L-2.0 5.75 Q-2.05 6.25 -1.9 6.75 -1.7 7.15 -1.45 7.5 -1.45 6.55 -1.35 5.8 L-1.1 4.45 Q-1.0 3.95 -0.5 3.55 L-0.5 3.5 -0.3 3.4 Q0.4 2.8 0.75 1.9 1.0 1.3 1.0 0.65 0.95 0.1 0.5 -0.15 L0.4 -0.25 0.4 -0.2 0.45 -0.15 Q0.35 -0.25 0.2 -0.25 L0.15 -0.25 M1.1 0.15 L1.1 0.3 1.15 0.7 1.1 1.05 1.15 1.05 1.05 1.4 1.05 1.3 Q1.0 1.75 0.8 2.15 L0.4 2.75 0.35 3.0 0.8 2.65 Q1.0 2.45 1.15 2.25 L1.15 2.2 1.35 1.75 1.35 1.7 1.4 1.6 Q1.55 1.1 1.45 0.65 1.45 0.5 1.35 0.35 L1.35 0.4 1.3 0.4 1.3 0.35 1.2 0.2 Q1.15 0.2 1.1 0.15 M0.15 3.35 L0.1 3.35 -0.25 3.55 Q-0.8 3.9 -0.95 4.55 L-0.7 5.4 -0.55 5.65 Q-0.25 6.05 0.2 6.35 L0.25 6.35 Q0.25 6.25 0.25 6.1 L0.2 5.95 0.15 5.75 Q-0.15 4.75 0.25 3.8 L0.4 3.4 0.35 3.4 0.45 3.25 0.5 3.15 0.55 3.1 0.15 3.35 M0.1 3.2 L0.1 3.2 M0.1 3.15 L0.1 3.15 M1.0 2.85 L1.05 2.8 1.0 2.8 1.0 2.85 0.9 2.9 0.6 3.2 Q0.35 3.75 0.25 4.4 0.05 5.45 0.6 6.3 0.8 6.55 1.05 6.7 L1.5 6.85 1.6 6.85 1.75 6.75 1.75 6.7 1.8 6.7 Q1.85 6.5 1.8 6.35 1.05 5.75 0.9 4.8 0.75 3.9 0.95 3.0 L1.0 3.0 1.0 2.85 M0.25 6.7 L0.2 6.95 0.2 7.05 0.05 7.2 -0.15 7.3 -0.25 7.3 Q-0.2 7.8 0.25 8.2 L0.5 8.45 0.7 8.6 Q0.8 8.65 0.95 8.7 L1.2 8.8 1.45 8.85 1.75 8.8 2.05 8.7 2.15 8.65 2.4 8.4 2.55 8.15 Q2.75 7.8 2.85 7.35 3.0 6.4 2.3 5.8 2.35 6.0 2.3 6.2 L2.25 6.35 2.3 6.3 2.3 6.35 2.25 6.4 Q2.15 6.65 1.95 6.8 L1.8 6.9 1.65 6.95 1.4 6.95 Q1.05 6.9 0.8 6.75 L0.35 6.55 Q0.0 6.4 -0.2 6.2 L-0.1 6.35 Q0.05 6.45 0.15 6.6 L0.25 6.7 M-0.9 5.3 L-0.9 5.2 -0.95 5.15 Q-1.05 5.1 -1.05 5.2 L-1.1 5.25 -1.25 6.3 -1.2 6.6 -1.2 6.65 -1.05 6.6 Q-0.9 6.45 -0.7 6.35 L-0.6 6.3 -0.35 6.25 Q-0.6 5.85 -0.85 5.4 L-0.9 5.3 M-2.2 5.6 L-2.25 5.7 -2.3 5.7 Q-2.5 6.35 -2.4 7.0 -2.35 7.7 -1.9 8.25 L-1.4 8.75 -0.75 9.1 Q-0.35 9.5 -0.5 10.05 L-0.55 10.2 Q-0.45 10.2 -0.35 10.05 -0.25 9.95 -0.25 9.8 -0.15 9.35 -0.35 8.9 -0.5 8.5 -0.75 8.3 L-0.95 8.2 -1.0 8.15 Q-1.15 8.05 -1.25 7.95 L-1.5 7.7 Q-1.9 7.2 -2.1 6.6 -2.2 6.2 -2.2 5.8 L-2.2 5.6" fill="#ff0000" fill-rule="evenodd" stroke="none"/>
    </g>
    <radialGradient cx="0" cy="0" gradientTransform="matrix(-0.0159, 0.0, 0.0, -0.0116, 0.0, 0.7)" gradientUnits="userSpaceOnUse" id="gradient0" r="819.2" spreadMethod="pad">
      <stop offset="0.0" stop-color="#ffff00"/>
      <stop offset="1.0" stop-color="#ff6600"/>
    </radialGradient>
  </defs>
</svg>
