<?xml version="1.0" encoding="UTF-8" standalone="no"?>
<svg xmlns:ffdec="https://www.free-decompiler.com/flash" xmlns:xlink="http://www.w3.org/1999/xlink" ffdec:objectType="frame" height="112.45px" width="88.05px" xmlns="http://www.w3.org/2000/svg">
  <g transform="matrix(1.0, 0.0, 0.0, 1.0, 48.4, 4.15)">
    <use ffdec:characterId="1393" height="11.1" transform="matrix(6.0063, 0.0, 0.0, 6.3969, -32.3661, 12.9706)" width="6.65" xlink:href="#shape0"/>
    <use ffdec:characterId="1393" height="11.1" transform="matrix(6.4682, 0.0, 0.0, 6.6311, -5.7939, 3.1738)" width="6.65" xlink:href="#shape0"/>
  </g>
  <defs>
    <g id="shape0" transform="matrix(1.0, 0.0, 0.0, 1.0, 2.55, 0.2)">
      <path d="M1.2 5.7 L1.15 5.85 Q0.9 6.55 0.95 7.3 0.95 8.1 1.35 8.75 L1.5 8.8 2.1 8.75 Q2.35 8.65 2.5 8.55 L2.75 8.25 2.75 8.2 Q2.8 8.05 2.9 7.9 L3.0 7.85 Q3.6 7.7 4.05 8.2 L4.1 8.25 4.0 8.3 Q3.7 8.2 3.4 8.2 3.35 8.2 3.25 8.3 L3.15 8.4 3.15 8.45 Q3.3 8.85 3.3 9.25 L3.35 9.25 3.25 9.6 3.2 9.65 Q3.05 9.85 2.75 10.0 2.45 10.1 2.15 10.1 1.5 10.15 1.05 9.8 0.15 9.3 -0.2 8.3 L-0.3 8.0 -0.3 7.7 -0.25 7.6 -0.15 7.5 -0.1 7.5 Q0.1 7.3 0.15 7.0 0.15 6.5 -0.3 6.4 L-0.5 6.35 Q-0.85 6.45 -1.0 6.65 L-1.1 6.85 -1.1 6.9 -1.15 7.1 Q-1.35 7.85 -0.95 8.35 L-0.75 8.55 Q-0.4 8.9 0.05 9.15 0.25 9.25 0.35 9.4 0.6 10.05 0.15 10.55 L-0.2 10.8 -0.3 10.85 -0.35 10.85 -0.55 10.9 -1.0 10.9 -0.55 10.8 -0.45 10.75 Q0.0 10.35 -0.2 9.75 L-0.3 9.55 Q-0.5 9.2 -0.9 9.15 L-1.35 9.0 -1.4 9.0 -1.65 8.8 -1.8 8.7 Q-2.15 8.4 -2.35 8.05 -2.6 7.65 -2.5 7.15 -2.25 6.45 -1.7 6.0 -1.2 5.5 -1.0 4.8 -0.85 4.3 -0.85 3.85 -0.85 3.65 -0.85 3.45 -1.15 3.05 -1.3 2.6 L-1.3 2.55 -1.35 2.45 -1.4 2.25 Q-1.8 1.7 -1.65 1.0 L-1.6 0.8 Q-1.45 0.15 -0.85 -0.1 L-0.5 -0.2 -0.1 -0.15 0.25 -0.15 Q0.65 -0.1 1.05 0.2 L1.3 0.5 1.55 0.95 Q1.7 1.25 1.7 1.55 1.7 1.85 1.6 2.1 L1.55 2.2 1.6 2.15 1.05 3.0 Q0.75 3.55 1.0 4.2 L1.0 4.45 1.15 5.0 1.2 5.7 1.2 5.7 M-0.05 0.05 L-0.1 0.05 -0.1 0.0 Q-0.3 0.1 -0.5 0.25 -0.9 0.5 -1.1 0.9 -1.35 1.35 -1.3 1.9 L-1.15 2.35 -1.0 2.5 -1.05 2.3 -1.1 2.15 Q-1.1 2.0 -1.05 1.8 L-0.9 1.55 -0.85 1.5 -0.55 1.25 Q-0.3 1.05 -0.1 0.8 L-0.05 0.6 Q0.0 0.3 -0.05 0.05 M-0.6 0.1 L-0.6 0.05 -0.65 0.0 -0.85 0.05 Q-1.15 0.2 -1.35 0.55 L-1.45 0.7 -1.45 0.8 Q-1.7 1.45 -1.4 2.05 L-1.35 2.1 -1.45 1.8 -1.45 1.35 Q-1.4 1.2 -1.35 1.05 -1.1 0.6 -0.7 0.2 L-0.6 0.1 M-0.55 1.45 Q-0.75 1.6 -0.9 1.85 L-0.95 2.0 Q-1.0 2.2 -0.95 2.4 L-0.9 2.6 0.4 3.55 0.6 3.75 0.7 3.75 0.7 3.65 0.75 3.55 Q0.75 3.35 0.85 3.15 0.95 2.9 1.1 2.7 L1.35 2.35 Q1.5 2.05 1.55 1.8 1.65 1.45 1.5 1.15 1.4 0.9 1.25 0.65 L0.9 0.3 0.85 0.3 Q1.2 0.8 1.1 1.45 L1.0 1.6 0.95 1.6 Q1.1 0.9 0.7 0.35 L0.5 0.15 0.2 0.15 0.15 0.25 Q0.15 0.55 0.05 0.8 L-0.1 1.0 -0.55 1.45 M-1.1 2.55 L-1.15 2.5 -1.2 2.5 -1.2 2.6 -0.7 3.55 -0.65 3.6 Q-0.2 3.95 -0.05 4.5 L0.0 4.6 Q0.1 4.9 0.05 5.15 0.1 5.95 0.3 6.75 L0.35 6.85 Q0.45 6.65 0.6 6.5 0.9 6.2 1.0 5.75 1.05 5.35 1.0 5.0 L0.8 4.35 0.75 4.2 Q0.6 3.9 0.35 3.7 L0.0 3.45 -0.2 3.35 -0.8 2.8 -0.95 2.7 -0.95 2.65 -1.1 2.55 M-1.25 2.5 L-1.25 2.5 M-0.65 3.9 L-0.7 3.95 Q-0.8 4.95 -1.35 5.75 L-1.3 5.75 -1.0 5.65 -0.75 5.65 -0.65 5.7 -0.6 5.8 -0.6 6.0 -0.65 6.05 -0.6 6.05 -0.6 6.1 Q-0.5 6.1 -0.4 6.0 -0.15 5.65 -0.1 5.15 -0.1 4.85 -0.15 4.6 -0.25 4.2 -0.5 3.95 -0.55 3.9 -0.6 3.9 L-0.65 3.9 M-0.75 5.85 L-0.8 5.75 Q-1.1 5.75 -1.35 5.9 -1.9 6.35 -2.25 7.0 -2.45 7.4 -2.3 7.85 -2.1 8.35 -1.6 8.7 L-1.4 8.85 Q-1.6 8.2 -1.55 7.5 -1.5 7.2 -1.4 6.9 -1.25 6.6 -1.0 6.45 L-0.95 6.35 -0.9 6.35 Q-0.8 6.15 -0.75 5.9 L-0.75 5.85 M-0.35 6.2 L-0.2 6.2 -0.05 6.3 0.0 6.2 0.0 6.1 -0.05 5.6 Q-0.15 5.95 -0.35 6.2 M-0.75 6.25 L-0.75 6.25 M-0.2 7.65 Q-0.1 8.4 0.35 9.0 L0.5 9.2 Q1.3 10.2 2.55 9.9 3.05 9.8 3.2 9.35 3.2 8.95 3.05 8.55 L3.05 8.4 3.1 8.4 3.1 8.35 Q3.3 8.0 3.75 8.1 3.35 7.95 3.1 8.0 3.0 8.0 2.95 8.1 L2.85 8.25 2.85 8.35 2.8 8.35 Q2.75 8.55 2.5 8.65 2.25 8.85 1.95 8.9 L1.7 8.95 1.2 8.85 1.0 8.7 Q0.55 8.45 0.3 7.95 L0.3 7.9 0.15 7.65 0.05 7.55 -0.05 7.6 -0.1 7.6 -0.1 7.65 -0.2 7.65 M-1.4 7.65 L-1.4 7.8 -1.45 7.8 Q-1.45 8.35 -1.25 8.9 L-1.1 8.95 -1.0 8.95 Q-0.4 9.0 -0.1 9.6 0.25 10.25 -0.3 10.75 L-0.25 10.7 -0.15 10.65 Q0.45 10.15 0.25 9.5 L0.15 9.45 -0.85 8.7 -0.8 8.75 -1.05 8.45 Q-1.2 8.25 -1.35 7.9 L-1.4 7.65 M0.45 6.95 Q0.15 7.4 0.4 7.85 0.5 8.05 0.6 8.25 0.8 8.45 1.0 8.6 L1.05 8.6 1.1 8.55 1.05 8.5 1.05 8.45 Q0.8 7.95 0.8 7.4 L0.8 6.95 0.75 6.7 0.7 6.7 0.6 6.8 0.55 6.8 0.45 6.95" fill="#ff0000" fill-rule="evenodd" stroke="none"/>
      <path d="M1.2 5.7 L1.2 5.7 M-1.25 2.5 L-1.25 2.5 M-1.1 2.55 L-0.95 2.65 -0.95 2.7 -0.8 2.8 -0.2 3.35 0.0 3.45 0.35 3.7 Q0.6 3.9 0.75 4.2 L0.8 4.35 1.0 5.0 Q1.05 5.35 1.0 5.75 0.9 6.2 0.6 6.5 0.45 6.65 0.35 6.85 L0.3 6.75 Q0.1 5.95 0.05 5.15 0.1 4.9 0.0 4.6 L-0.05 4.5 Q-0.2 3.95 -0.65 3.6 L-0.7 3.55 -1.2 2.6 -1.2 2.5 -1.15 2.5 -1.1 2.55 M-0.55 1.45 L-0.1 1.0 0.05 0.8 Q0.15 0.55 0.15 0.25 L0.2 0.15 0.5 0.15 0.7 0.35 Q1.1 0.9 0.95 1.6 L1.0 1.6 1.1 1.45 Q1.2 0.8 0.85 0.3 L0.9 0.3 1.25 0.65 Q1.4 0.9 1.5 1.15 1.65 1.45 1.55 1.8 1.5 2.05 1.35 2.35 L1.1 2.7 Q0.95 2.9 0.85 3.15 0.75 3.35 0.75 3.55 L0.7 3.65 0.7 3.75 0.6 3.75 0.4 3.55 -0.9 2.6 -0.95 2.4 Q-1.0 2.2 -0.95 2.0 L-0.9 1.85 Q-0.75 1.6 -0.55 1.45 M-0.6 0.1 L-0.7 0.2 Q-1.1 0.6 -1.35 1.05 -1.4 1.2 -1.45 1.35 L-1.45 1.8 -1.35 2.1 -1.4 2.05 Q-1.7 1.45 -1.45 0.8 L-1.45 0.7 -1.35 0.55 Q-1.15 0.2 -0.85 0.05 L-0.65 0.0 -0.6 0.05 -0.6 0.1 M-0.05 0.05 Q0.0 0.3 -0.05 0.6 L-0.1 0.8 Q-0.3 1.05 -0.55 1.25 L-0.85 1.5 -0.9 1.55 -1.05 1.8 Q-1.1 2.0 -1.1 2.15 L-1.05 2.3 -1.0 2.5 -1.15 2.35 -1.3 1.9 Q-1.35 1.35 -1.1 0.9 -0.9 0.5 -0.5 0.25 -0.3 0.1 -0.1 0.0 L-0.1 0.05 -0.05 0.05 M-0.65 3.9 L-0.6 3.9 Q-0.55 3.9 -0.5 3.95 -0.25 4.2 -0.15 4.6 -0.1 4.85 -0.1 5.15 -0.15 5.65 -0.4 6.0 -0.5 6.1 -0.6 6.1 L-0.6 6.05 -0.65 6.05 -0.6 6.0 -0.6 5.8 -0.65 5.7 -0.75 5.65 -1.0 5.65 -1.3 5.75 -1.35 5.75 Q-0.8 4.95 -0.7 3.95 L-0.65 3.9 M-0.75 5.85 L-0.75 5.9 Q-0.8 6.15 -0.9 6.35 L-0.95 6.35 -1.0 6.45 Q-1.25 6.6 -1.4 6.9 -1.5 7.2 -1.55 7.5 -1.6 8.2 -1.4 8.85 L-1.6 8.7 Q-2.1 8.35 -2.3 7.85 -2.45 7.4 -2.25 7.0 -1.9 6.35 -1.35 5.9 -1.1 5.75 -0.8 5.75 L-0.75 5.85 M-0.75 6.25 L-0.75 6.25 M-0.35 6.2 Q-0.15 5.95 -0.05 5.6 L0.0 6.1 0.0 6.2 -0.05 6.3 -0.2 6.2 -0.35 6.2 M0.45 6.95 L0.55 6.8 0.6 6.8 0.7 6.7 0.75 6.7 0.8 6.95 0.8 7.4 Q0.8 7.95 1.05 8.45 L1.05 8.5 1.1 8.55 1.05 8.6 1.0 8.6 Q0.8 8.45 0.6 8.25 0.5 8.05 0.4 7.85 0.15 7.4 0.45 6.95 M-1.4 7.65 L-1.35 7.9 Q-1.2 8.25 -1.05 8.45 L-0.8 8.75 -0.85 8.7 0.15 9.45 0.25 9.5 Q0.45 10.15 -0.15 10.65 L-0.25 10.7 -0.3 10.75 Q0.25 10.25 -0.1 9.6 -0.4 9.0 -1.0 8.95 L-1.1 8.95 -1.25 8.9 Q-1.45 8.35 -1.45 7.8 L-1.4 7.8 -1.4 7.65 M-0.2 7.65 L-0.1 7.65 -0.1 7.6 -0.05 7.6 0.05 7.55 0.15 7.65 0.3 7.9 0.3 7.95 Q0.55 8.45 1.0 8.7 L1.2 8.85 1.7 8.95 1.95 8.9 Q2.25 8.85 2.5 8.65 2.75 8.55 2.8 8.35 L2.85 8.35 2.85 8.25 2.95 8.1 Q3.0 8.0 3.1 8.0 3.35 7.95 3.75 8.1 3.3 8.0 3.1 8.35 L3.1 8.4 3.05 8.4 3.05 8.55 Q3.2 8.95 3.2 9.35 3.05 9.8 2.55 9.9 1.3 10.2 0.5 9.2 L0.35 9.0 Q-0.1 8.4 -0.2 7.65" fill="url(#gradient0)" fill-rule="evenodd" stroke="none"/>
    </g>
    <radialGradient cx="0" cy="0" gradientTransform="matrix(-0.0159, 0.0, 0.0, -0.0114, 0.0, 0.7)" gradientUnits="userSpaceOnUse" id="gradient0" r="819.2" spreadMethod="pad">
      <stop offset="0.0" stop-color="#ffff00"/>
      <stop offset="1.0" stop-color="#ff6600"/>
    </radialGradient>
  </defs>
</svg>
