<?xml version="1.0" encoding="UTF-8" standalone="no"?>
<svg xmlns:ffdec="https://www.free-decompiler.com/flash" xmlns:xlink="http://www.w3.org/1999/xlink" ffdec:objectType="frame" height="198.35px" width="668.5px" xmlns="http://www.w3.org/2000/svg">
  <g transform="matrix(1.0, 0.0, 0.0, 1.0, 4.3, 0.2)">
    <use ffdec:characterId="20" ffdec:characterName="a_EB_Cloud2Base" height="185.3" transform="matrix(1.0, 0.0, 0.0, 1.0, 2.6, 6.15)" width="658.55" xlink:href="#sprite0"/>
    <use ffdec:characterId="22" ffdec:characterName="a_EB_Cloud2Flicker" height="198.35" transform="matrix(1.0, 0.0, 0.0, 1.0, -4.3, -0.2)" width="668.5" xlink:href="#sprite1"/>
  </g>
  <defs>
    <g id="sprite0" transform="matrix(1.0, 0.0, 0.0, 1.0, 5.25, 0.85)">
      <use ffdec:characterId="19" height="198.35" transform="matrix(0.7484, 0.0, 0.0, 0.9342, -5.2338, -0.8441)" width="880.0" xlink:href="#shape0"/>
    </g>
    <g id="shape0" transform="matrix(1.0, 0.0, 0.0, 1.0, 2.25, 0.85)">
      <path d="M872.65 5.2 Q875.45 9.35 877.75 22.0 877.75 27.95 875.7 35.45 872.85 45.9 867.0 54.25 853.45 73.55 827.5 77.35 827.15 83.2 825.65 90.0 822.8 102.35 816.85 112.15 799.8 140.35 762.0 140.35 741.9 140.35 719.25 129.6 710.2 125.35 704.4 120.8 680.55 136.35 648.85 136.35 631.6 136.35 616.35 123.35 L611.6 118.85 Q607.0 120.7 603.25 121.65 602.4 124.8 600.35 129.05 596.35 137.45 589.75 144.65 571.55 164.5 544.25 164.5 528.65 164.5 521.75 160.75 L520.0 161.9 510.15 168.25 Q493.8 177.5 475.6 177.5 444.85 177.5 424.75 164.0 420.85 161.4 417.8 158.6 415.65 162.95 413.0 167.0 392.95 197.5 351.0 197.5 325.8 197.5 307.35 186.25 L304.95 184.7 289.85 185.75 Q254.7 185.75 239.25 162.55 234.1 154.85 231.75 145.35 230.25 139.3 230.25 135.0 L230.45 129.35 Q224.3 127.3 219.6 123.9 203.55 134.35 185.75 134.35 168.95 134.35 160.0 129.35 152.5 131.6 148.6 131.6 115.65 131.6 110.75 104.7 105.55 101.4 101.7 95.85 99.35 92.5 96.45 86.35 94.45 82.05 93.5 82.0 74.6 81.05 58.95 75.4 43.55 69.85 39.5 62.75 36.85 58.2 21.55 49.05 6.9 40.3 4.75 35.0 L-1.65 19.35 Q-2.25 17.15 -2.25 6.85 -2.25 5.35 -0.95 3.25 0.45 0.95 2.25 -0.1 4.9 -1.6 7.05 0.0 L847.45 0.0 853.95 -0.6 Q861.4 -0.85 867.05 0.45 873.0 1.8 873.0 4.1 L872.65 5.2" fill="#140525" fill-rule="evenodd" stroke="none"/>
    </g>
    <g id="sprite1" transform="matrix(1.0, 0.0, 0.0, 1.0, -37.75, -66.8)">
      <use ffdec:characterId="21" height="198.35" transform="matrix(1.0, 0.0, 0.0, 1.0, 37.75, 66.8)" width="668.5" xlink:href="#shape1"/>
    </g>
    <g id="shape1" transform="matrix(1.0, 0.0, 0.0, 1.0, -37.75, -66.8)">
      <path d="M656.0 91.9 L656.2 91.55 Q656.4 91.5 656.4 93.0 656.4 99.6 646.65 110.0 L639.55 117.4 Q636.05 121.35 635.4 123.7 633.4 130.6 626.15 139.5 621.35 145.3 615.7 150.3 L615.0 151.0 613.55 152.15 613.0 152.6 608.85 155.8 Q607.75 156.6 604.95 157.25 L602.0 158.25 Q600.25 158.7 598.8 159.75 598.4 160.15 598.15 160.7 596.15 165.2 594.0 168.7 590.2 174.85 586.05 180.85 L591.45 185.6 Q602.2 193.7 617.65 193.7 631.5 193.7 640.15 187.8 645.75 183.15 649.85 175.9 652.45 170.65 654.5 163.35 L657.45 152.15 657.65 151.45 657.65 151.25 Q650.55 149.65 647.25 148.25 643.3 146.35 641.45 143.35 642.9 140.35 648.7 140.45 656.0 140.6 657.65 139.75 662.35 137.2 665.25 136.95 669.8 132.9 676.75 132.9 684.95 132.9 689.5 125.1 693.1 118.95 695.0 106.55 L697.5 84.65 Q699.0 72.2 701.4 66.8 702.2 69.4 704.25 83.5 706.25 97.65 706.25 101.15 706.25 112.95 700.6 122.7 696.35 129.9 688.05 137.05 678.8 144.35 675.25 147.5 669.2 152.8 668.75 157.05 667.2 171.95 657.65 186.1 649.7 197.85 638.9 203.9 632.95 207.85 626.0 210.5 L607.25 210.5 Q601.4 209.9 593.15 205.6 L591.2 205.6 Q590.35 205.6 584.75 201.5 579.2 197.35 575.6 197.35 L570.5 196.9 569.8 196.85 566.85 198.7 Q551.65 207.7 534.55 207.7 521.7 207.7 512.8 199.95 L506.8 194.65 Q503.65 192.2 500.55 192.2 L499.2 192.45 Q498.5 196.3 496.65 200.8 493.4 209.0 487.75 215.9 473.3 233.6 452.55 233.6 442.1 233.6 436.75 229.25 L436.7 229.25 Q433.45 234.4 427.8 238.75 414.4 249.15 396.95 249.15 392.05 249.15 387.4 248.2 372.15 248.15 365.15 239.45 362.0 236.85 359.6 233.85 L359.4 233.5 358.45 233.25 355.7 238.25 Q351.75 244.3 345.3 249.9 331.35 262.15 318.2 263.15 311.8 265.15 305.15 265.15 293.15 265.15 272.2 256.2 267.95 257.65 260.75 257.65 230.15 257.65 218.0 227.05 212.95 214.35 211.85 199.45 209.85 196.15 208.0 194.45 206.25 192.85 203.85 192.05 201.65 195.45 196.55 199.05 187.1 205.55 176.9 205.55 L169.25 204.7 Q167.9 204.3 165.3 202.8 160.4 200.0 149.85 200.0 145.45 200.0 141.75 198.65 132.1 196.75 128.1 189.7 127.2 188.15 124.5 181.35 122.45 176.25 120.1 173.75 116.75 170.35 115.65 165.65 115.1 163.6 114.85 158.2 114.6 154.15 113.5 152.6 111.9 150.5 107.4 150.5 L107.15 150.45 Q101.8 153.65 94.6 153.65 92.05 153.65 89.2 152.2 76.7 151.65 71.4 142.8 70.25 140.85 68.3 135.85 66.9 132.35 65.7 131.7 55.95 126.65 52.05 123.6 47.25 119.9 46.6 116.35 43.75 112.3 41.15 103.8 37.75 92.65 37.75 87.15 37.75 78.45 41.85 73.2 43.45 71.15 44.6 71.5 45.9 71.8 45.9 74.9 L44.15 79.85 Q42.95 82.55 42.55 85.05 L43.2 88.45 Q44.55 95.25 46.3 97.25 47.8 99.05 49.15 101.65 L51.2 105.8 Q53.9 110.65 59.8 113.0 68.9 116.65 70.9 117.7 77.35 121.05 77.65 124.4 78.0 128.55 79.85 132.3 L80.1 132.65 80.9 133.4 Q84.75 136.3 87.65 136.3 L93.7 135.1 99.8 133.9 Q102.5 133.9 104.25 135.0 102.85 131.8 101.7 130.75 98.4 127.65 93.25 118.35 88.15 109.25 88.15 106.8 88.15 104.7 89.05 101.85 L89.9 99.6 Q89.75 100.0 89.75 101.15 89.75 105.2 93.1 110.7 96.95 116.95 101.5 117.35 111.0 118.4 113.9 123.05 L116.2 128.15 Q117.6 131.5 119.35 134.1 120.5 135.05 121.8 135.7 L124.2 136.8 128.9 137.5 Q135.9 137.5 136.4 135.25 L136.9 133.8 136.7 133.35 Q134.6 129.55 133.15 124.95 132.15 121.7 132.15 121.05 L132.15 119.35 132.7 119.35 136.5 124.9 Q138.7 127.8 141.35 129.55 148.1 133.9 163.9 134.35 L164.05 135.15 164.25 137.35 Q164.25 140.3 160.8 142.9 157.5 145.4 154.0 145.4 148.65 145.4 144.3 142.4 L144.5 146.25 144.6 147.1 144.65 147.3 Q146.3 151.6 150.9 156.8 L152.95 158.05 Q161.45 162.15 168.6 162.15 L171.1 161.8 174.35 160.3 176.9 159.1 177.4 158.7 182.85 154.85 183.3 155.35 184.55 154.35 185.65 154.6 Q186.1 154.8 186.1 156.3 186.1 159.8 180.35 163.7 L176.45 168.55 Q169.35 176.2 161.65 176.2 147.5 176.2 140.35 165.25 137.95 161.75 136.7 157.45 L136.05 155.0 Q134.7 152.2 134.6 149.3 133.6 149.65 130.5 151.75 128.9 152.85 126.55 153.1 L126.5 153.4 Q126.5 160.05 132.1 166.3 138.2 173.05 146.05 173.05 144.25 175.2 139.45 177.35 134.9 179.4 132.5 179.4 L130.95 179.3 132.55 182.65 Q137.15 190.75 143.6 190.75 L154.65 190.3 156.3 189.55 159.95 187.6 Q160.55 187.6 161.15 188.0 L164.45 187.6 Q165.4 187.6 169.5 189.25 173.6 190.75 177.25 190.75 185.35 190.75 192.0 185.1 L196.15 181.3 Q190.1 173.35 190.1 161.15 190.1 159.35 190.4 158.35 190.75 157.3 191.5 156.75 193.7 160.3 197.9 165.25 203.3 171.7 206.5 173.3 217.35 178.9 228.4 178.75 L231.0 178.85 241.2 177.65 Q241.2 177.85 241.45 177.5 241.75 177.5 241.75 179.05 241.75 183.65 236.9 187.35 L233.9 189.35 232.7 190.65 Q231.0 194.4 228.35 194.4 L226.95 194.4 223.35 195.1 224.7 205.7 Q225.55 213.65 226.45 217.1 227.7 221.75 232.65 227.7 235.05 230.55 237.85 233.1 246.55 239.1 258.45 240.5 255.6 235.3 254.55 229.05 250.6 226.1 247.1 221.8 243.95 217.7 242.95 214.55 240.05 212.7 237.75 209.55 236.4 207.75 235.5 206.05 234.05 204.05 233.4 201.95 L233.95 202.05 233.75 200.7 Q235.05 200.95 239.55 202.95 244.45 204.85 248.65 204.85 L252.8 204.75 253.45 204.6 253.9 204.65 259.5 203.65 Q261.35 203.15 265.95 201.2 L266.95 201.45 Q267.3 201.65 267.3 203.15 267.3 206.6 263.55 211.3 L261.15 213.8 262.25 216.55 265.15 225.7 266.95 231.2 Q275.75 241.85 289.35 241.85 295.9 241.85 301.15 240.15 L308.6 234.8 303.75 228.15 Q301.55 224.8 301.55 223.5 301.55 221.8 301.9 220.95 302.3 220.25 303.1 220.05 303.7 221.95 305.25 223.45 L305.85 223.4 Q311.7 223.4 317.35 225.0 323.0 226.55 331.95 226.55 339.05 226.55 345.3 219.85 L346.05 219.05 344.1 217.85 Q342.9 216.9 340.8 214.4 338.6 211.75 336.65 210.1 L336.85 208.7 Q337.05 208.25 338.2 208.25 L343.2 209.15 348.1 210.1 Q354.05 210.1 362.1 207.25 L368.4 204.8 368.75 204.5 376.7 197.05 Q378.4 195.2 381.0 194.85 382.0 193.9 383.4 193.9 385.25 193.9 390.35 195.35 L395.95 196.8 Q399.05 196.8 401.85 195.25 L401.65 195.1 403.05 194.5 Q404.7 193.35 406.2 191.65 L409.0 188.05 Q410.2 186.4 410.5 186.4 411.4 186.4 414.75 187.5 L419.0 188.6 Q420.75 188.6 430.1 186.4 428.05 190.75 421.5 193.25 417.05 194.95 414.65 197.1 L418.0 199.35 Q424.15 203.75 427.25 205.3 433.0 208.25 438.6 208.25 443.8 208.25 452.3 201.1 L458.2 196.15 461.0 194.35 Q462.65 192.2 463.3 192.2 464.5 192.2 466.25 193.7 L468.5 196.35 476.7 196.35 Q481.1 194.5 486.2 189.65 L493.45 182.2 Q496.75 178.95 498.05 179.65 L498.2 179.75 Q501.45 176.2 505.4 176.2 508.25 176.2 510.4 178.3 L514.6 182.9 Q521.4 189.55 537.0 189.55 548.25 189.55 557.55 186.65 L563.8 183.0 Q575.3 175.55 580.45 168.2 L581.05 167.35 Q572.3 173.05 557.8 173.05 550.6 173.05 545.4 170.55 542.35 169.05 537.55 164.95 532.75 160.9 529.5 159.35 524.25 156.75 516.85 156.75 509.2 156.75 506.8 153.9 505.35 150.65 503.65 149.75 L504.05 148.3 Q504.9 148.25 505.65 148.9 L507.15 150.4 Q509.7 152.65 514.8 152.65 L532.5 146.85 Q537.35 146.85 539.75 149.45 540.95 150.65 542.9 155.1 544.65 159.05 546.95 160.8 550.45 163.35 557.15 163.35 572.1 163.35 578.75 151.2 582.85 143.75 582.85 135.1 582.85 128.85 584.05 126.75 584.95 125.15 587.75 124.8 L594.2 123.6 Q598.95 122.05 603.7 117.6 L604.7 117.85 Q605.05 118.05 605.05 119.6 605.05 122.75 601.75 129.5 597.85 137.3 593.8 138.15 593.85 142.3 593.4 145.9 L593.9 145.65 Q597.25 144.15 604.3 144.15 611.65 144.15 619.1 131.55 624.6 122.4 627.55 112.3 628.75 108.05 629.7 107.0 632.1 104.0 639.2 102.6 643.55 101.7 649.1 96.75 654.45 92.0 656.0 91.9 M487.55 196.55 Q486.05 196.9 485.2 197.8 L483.45 199.35 Q480.25 201.45 468.15 202.15 464.6 207.65 462.25 210.7 459.65 214.05 457.4 215.4 455.15 217.7 452.65 219.3 L453.15 219.3 Q465.25 219.3 475.75 211.4 484.4 204.85 487.35 197.3 L487.55 196.55 M352.8 186.6 Q358.05 182.95 361.95 176.8 L364.7 172.5 362.7 170.2 Q359.3 165.9 354.5 156.55 L354.7 156.3 354.85 156.05 357.7 158.85 Q360.6 161.7 363.35 163.8 372.2 170.65 379.95 170.65 L387.1 169.8 394.2 168.95 Q396.55 168.95 403.9 165.5 L410.95 162.15 Q412.65 162.15 412.25 162.4 L412.75 163.1 Q411.4 168.1 404.55 173.7 395.1 181.3 382.05 181.3 374.5 181.3 367.8 175.5 L366.4 179.1 Q363.95 184.7 360.1 189.85 350.5 202.55 340.45 202.65 L337.55 204.65 Q328.2 210.6 312.45 210.6 300.05 210.6 282.95 190.65 276.05 182.45 271.45 174.4 266.85 166.2 266.85 161.9 266.85 161.05 261.95 156.4 256.15 150.85 254.15 148.1 260.55 150.15 265.0 154.7 269.75 159.55 269.75 164.7 269.75 169.85 273.45 175.7 277.35 182.0 284.35 187.1 301.6 199.75 328.5 199.75 332.2 199.75 337.05 198.15 338.9 196.35 342.05 194.05 L352.8 186.6 M425.3 220.2 Q420.95 217.85 416.9 212.85 L410.1 203.65 410.0 203.5 Q407.85 206.0 404.95 207.75 400.4 210.6 395.95 210.6 L392.95 210.2 391.05 210.35 Q388.05 210.35 385.95 209.2 383.0 212.95 376.5 216.15 369.6 219.6 364.1 220.6 L371.8 226.0 Q385.55 234.6 396.4 234.8 401.7 233.8 408.25 231.7 418.25 228.45 420.2 227.05 421.5 226.2 424.65 222.25 L426.1 220.55 425.3 220.2 M337.6 240.6 L347.75 228.65 348.95 227.6 350.35 225.6 Q349.0 225.7 345.9 227.95 L339.0 233.05 Q328.8 240.4 322.6 240.4 319.25 240.4 316.35 239.35 L314.2 241.75 311.35 247.8 Q315.2 250.35 320.5 250.35 325.2 250.35 334.05 243.45 L337.6 240.6 M224.9 131.0 L227.1 131.35 229.25 131.95 229.55 133.4 Q227.25 135.8 221.25 139.7 212.85 145.15 207.8 145.15 198.1 145.15 188.85 136.0 180.0 127.25 179.2 118.4 L179.9 118.15 Q182.4 121.2 184.25 124.45 L186.5 128.4 Q188.45 130.75 197.05 130.75 L204.5 131.85 211.95 132.9 218.45 131.95 224.9 131.0 M300.65 259.25 L301.2 259.25 300.95 259.05 300.65 259.25" fill="#1a052c" fill-rule="evenodd" stroke="none"/>
    </g>
  </defs>
</svg>
