<?xml version="1.0" encoding="UTF-8" standalone="no"?>
<svg xmlns:ffdec="https://www.free-decompiler.com/flash" xmlns:xlink="http://www.w3.org/1999/xlink" ffdec:objectType="frame" height="198.35px" width="668.5px" xmlns="http://www.w3.org/2000/svg">
  <g transform="matrix(1.0, 0.0, 0.0, 1.0, 4.3, 0.2)">
    <use ffdec:characterId="20" ffdec:characterName="a_EB_Cloud2Base" height="185.3" transform="matrix(1.0, 0.0, 0.0, 1.0, 2.6, 6.15)" width="658.55" xlink:href="#sprite0"/>
  </g>
  <defs>
    <g id="sprite0" transform="matrix(1.0, 0.0, 0.0, 1.0, 5.25, 0.85)">
      <use ffdec:characterId="19" height="198.35" transform="matrix(0.7484, 0.0, 0.0, 0.9342, -5.2338, -0.8441)" width="880.0" xlink:href="#shape0"/>
    </g>
    <g id="shape0" transform="matrix(1.0, 0.0, 0.0, 1.0, 2.25, 0.85)">
      <path d="M872.65 5.2 Q875.45 9.35 877.75 22.0 877.75 27.95 875.7 35.45 872.85 45.9 867.0 54.25 853.45 73.55 827.5 77.35 827.15 83.2 825.65 90.0 822.8 102.35 816.85 112.15 799.8 140.35 762.0 140.35 741.9 140.35 719.25 129.6 710.2 125.35 704.4 120.8 680.55 136.35 648.85 136.35 631.6 136.35 616.35 123.35 L611.6 118.85 Q607.0 120.7 603.25 121.65 602.4 124.8 600.35 129.05 596.35 137.45 589.75 144.65 571.55 164.5 544.25 164.5 528.65 164.5 521.75 160.75 L520.0 161.9 510.15 168.25 Q493.8 177.5 475.6 177.5 444.85 177.5 424.75 164.0 420.85 161.4 417.8 158.6 415.65 162.95 413.0 167.0 392.95 197.5 351.0 197.5 325.8 197.5 307.35 186.25 L304.95 184.7 289.85 185.75 Q254.7 185.75 239.25 162.55 234.1 154.85 231.75 145.35 230.25 139.3 230.25 135.0 L230.45 129.35 Q224.3 127.3 219.6 123.9 203.55 134.35 185.75 134.35 168.95 134.35 160.0 129.35 152.5 131.6 148.6 131.6 115.65 131.6 110.75 104.7 105.55 101.4 101.7 95.85 99.35 92.5 96.45 86.35 94.45 82.05 93.5 82.0 74.6 81.05 58.95 75.4 43.55 69.85 39.5 62.75 36.85 58.2 21.55 49.05 6.9 40.3 4.75 35.0 L-1.65 19.35 Q-2.25 17.15 -2.25 6.85 -2.25 5.35 -0.95 3.25 0.45 0.95 2.25 -0.1 4.9 -1.6 7.05 0.0 L847.45 0.0 853.95 -0.6 Q861.4 -0.85 867.05 0.45 873.0 1.8 873.0 4.1 L872.65 5.2" fill="#140525" fill-rule="evenodd" stroke="none"/>
    </g>
  </defs>
</svg>
