<?xml version="1.0" encoding="UTF-8" standalone="no"?>
<svg xmlns:ffdec="https://www.free-decompiler.com/flash" xmlns:xlink="http://www.w3.org/1999/xlink" ffdec:objectType="frame" height="146.1px" width="102.8px" xmlns="http://www.w3.org/2000/svg">
  <g transform="matrix(1.0, 0.0, 0.0, 1.0, 14.25, 122.8)">
    <use ffdec:characterId="71" height="106.75" transform="matrix(1.0, 0.0, 0.0, 1.0, -14.25, -83.45)" width="72.75" xlink:href="#shape0"/>
  </g>
  <defs>
    <g id="shape0" transform="matrix(1.0, 0.0, 0.0, 1.0, 14.25, 83.45)">
      <path d="M43.3 -72.25 L42.75 -72.2 Q42.5 -72.5 42.5 -73.25 43.2 -73.55 43.5 -73.0 L43.3 -72.25 M41.55 -69.2 L38.5 -63.8 38.15 -63.15 31.0 -47.25 Q31.3 -47.35 31.6 -47.0 L32.0 -46.5 33.4 -47.6 Q34.05 -48.35 35.05 -48.25 L35.2 -48.4 35.3 -47.6 Q35.3 -46.45 30.8 -38.25 L25.3 -28.0 27.2 -29.5 Q28.45 -30.35 30.05 -30.75 30.4 -30.35 29.8 -29.25 L29.8 -29.0 Q30.25 -29.1 30.9 -29.6 L31.75 -30.25 33.05 -30.25 33.2 -28.65 Q36.15 -31.75 38.6 -33.4 L58.25 -53.45 58.4 -53.5 58.5 -52.65 Q58.5 -50.45 45.1 -32.6 L31.6 -15.1 Q28.45 -10.0 22.75 -3.4 L13.9 6.35 12.35 8.15 4.0 18.05 Q3.75 18.85 3.75 17.6 3.75 16.95 5.05 15.15 L2.05 17.5 1.85 17.3 1.8 16.5 Q1.8 15.65 2.15 15.1 L3.0 14.05 2.8 13.8 Q2.15 14.15 1.9 14.9 1.6 15.65 1.0 16.0 0.4 15.85 0.2 15.55 L0.0 14.35 Q0.0 13.55 1.25 10.0 2.5 6.5 2.5 5.65 L2.5 5.0 1.15 5.7 -13.25 23.3 -13.45 23.2 -13.5 22.35 Q-11.0 12.75 -11.0 11.85 -11.0 11.15 -11.25 10.9 L-11.5 10.55 Q-12.3 11.25 -13.0 14.3 L-13.75 14.4 Q-13.95 14.4 -13.95 13.6 -13.1 4.9 -12.8 0.35 L-13.75 4.5 -14.25 4.55 Q-9.5 -22.6 -7.25 -32.95 L-6.75 -32.95 -5.55 -30.15 Q-4.9 -29.05 -5.2 -27.7 L-5.15 -27.45 -5.0 -27.2 -4.25 -31.0 -3.45 -35.25 -3.05 -35.5 -2.45 -35.75 -2.2 -34.7 Q0.35 -45.45 4.05 -58.2 L2.5 -48.0 1.8 -43.75 2.55 -46.8 5.5 -59.2 8.25 -71.5 9.75 -78.05 Q10.85 -82.15 12.25 -83.45 L12.45 -83.1 12.5 -82.15 10.2 -69.75 Q7.7 -57.3 7.3 -54.2 L7.3 -53.95 7.75 -54.2 8.75 -54.45 9.1 -52.85 9.3 -51.25 9.0 -49.4 8.55 -47.7 8.6 -46.4 8.8 -44.65 Q8.8 -39.6 7.0 -26.7 L7.0 -26.45 9.5 -29.45 10.5 -26.95 Q11.3 -25.25 11.3 -24.2 L12.75 -26.2 14.5 -28.45 14.75 -28.1 14.8 -27.15 Q14.8 -25.75 14.4 -24.0 L16.45 -26.7 17.55 -28.75 18.2 -29.85 20.75 -34.7 27.75 -46.7 34.5 -58.9 Q37.0 -63.25 39.0 -66.05 L41.55 -69.7 40.95 -68.55 41.55 -69.2 M55.85 -54.55 Q55.75 -54.6 55.75 -55.4 55.75 -56.2 56.2 -56.25 L57.25 -56.2 57.75 -55.45 Q57.45 -54.85 56.5 -54.45 L55.85 -54.55 M10.05 -60.45 L10.7 -60.2 11.05 -59.7 10.5 -59.0 Q9.8 -59.25 9.8 -59.5 L10.05 -60.45 M34.65 -63.6 L35.5 -63.5 Q35.5 -62.9 35.0 -62.5 34.25 -62.7 34.0 -63.0 L34.65 -63.6 M37.0 -49.75 Q36.05 -49.95 35.75 -50.25 35.9 -50.85 36.4 -51.4 L37.0 -51.95 Q37.7 -51.65 37.8 -50.95 37.75 -50.25 37.0 -49.75 M34.05 -48.75 L34.0 -48.2 33.05 -48.0 Q32.8 -48.45 32.8 -49.5 L33.35 -49.55 34.0 -49.25 34.05 -48.75 M21.8 -38.25 L21.05 -36.95 20.75 -36.95 Q20.55 -36.4 20.55 -37.65 20.55 -38.45 20.95 -38.65 L21.55 -38.75 21.8 -38.25 M33.75 -33.7 L34.25 -32.5 33.5 -31.95 32.8 -32.2 32.75 -32.9 Q32.75 -33.7 33.0 -33.75 L33.75 -33.7 M11.75 -32.2 L12.3 -31.0 12.0 -30.25 10.7 -30.2 Q10.55 -30.25 10.55 -31.0 L10.65 -31.8 10.8 -32.2 11.75 -32.2 M-5.75 -37.5 L-5.45 -37.2 Q-5.45 -36.45 -5.75 -36.0 L-6.95 -35.95 Q-7.25 -35.4 -7.25 -36.65 L-7.2 -37.7 -5.75 -37.5 M-7.15 -35.55 L-7.0 -35.5 -6.65 -35.55 -5.75 -35.5 -5.45 -35.2 Q-5.5 -34.85 -5.95 -34.45 -6.45 -34.0 -6.95 -34.0 -7.2 -33.6 -7.2 -34.85 L-7.15 -35.55" fill="#afbfc2" fill-rule="evenodd" stroke="none"/>
    </g>
  </defs>
</svg>
