<?xml version="1.0" encoding="UTF-8" standalone="no"?>
<svg xmlns:ffdec="https://www.free-decompiler.com/flash" xmlns:xlink="http://www.w3.org/1999/xlink" ffdec:objectType="frame" height="146.1px" width="102.8px" xmlns="http://www.w3.org/2000/svg">
  <g transform="matrix(1.0, 0.0, 0.0, 1.0, 14.25, 122.8)">
    <use ffdec:characterId="77" height="90.55" transform="matrix(1.0, 0.0, 0.0, 1.0, -10.2, -104.5)" width="98.75" xlink:href="#shape0"/>
  </g>
  <defs>
    <g id="shape0" transform="matrix(1.0, 0.0, 0.0, 1.0, 10.2, 104.5)">
      <path d="M10.05 -99.75 L11.05 -99.55 13.05 -99.25 13.2 -99.4 13.3 -98.6 13.25 -97.85 13.05 -97.75 11.75 -97.75 Q11.55 -98.0 10.25 -98.25 L10.1 -99.15 10.05 -99.75 M18.25 -101.25 Q17.7 -101.25 17.5 -101.5 L17.55 -101.95 Q18.75 -101.95 19.0 -101.5 L18.25 -101.25 M18.3 -100.4 Q19.25 -100.6 19.8 -100.0 21.65 -101.8 21.3 -102.3 20.5 -102.55 20.5 -103.0 L22.0 -104.5 Q23.65 -103.0 24.5 -101.5 L24.4 -101.35 Q24.8 -100.95 24.8 -100.25 24.8 -99.6 23.7 -98.2 L22.05 -96.25 20.15 -96.3 19.0 -96.2 Q17.75 -96.4 17.55 -97.1 17.4 -97.6 17.8 -98.2 L17.55 -98.5 16.65 -98.35 15.75 -98.2 14.8 -98.3 14.75 -98.45 15.75 -99.05 14.75 -98.95 14.75 -100.0 15.75 -99.95 18.3 -100.4 M44.5 -80.75 L46.25 -78.45 Q46.25 -78.1 44.5 -74.7 43.25 -74.45 43.0 -74.2 L41.8 -74.25 Q41.65 -74.65 41.65 -75.35 L41.55 -76.5 43.2 -77.0 Q44.4 -77.45 44.55 -78.45 L44.5 -80.7 44.5 -80.75 M42.8 -81.95 L44.05 -81.7 43.8 -80.95 43.5 -80.7 Q42.8 -81.05 42.8 -81.95 M49.8 -75.45 L50.8 -76.25 Q51.3 -76.55 51.5 -76.0 L51.3 -75.25 50.05 -75.0 49.8 -75.45 M52.5 -74.75 Q53.1 -73.6 54.45 -71.95 55.0 -71.25 55.0 -69.75 55.0 -68.95 53.9 -67.75 L52.5 -66.5 49.45 -67.15 48.8 -67.25 48.45 -66.8 49.25 -66.45 Q50.65 -65.45 50.5 -64.2 L49.75 -61.95 50.25 -61.3 Q50.7 -61.0 51.5 -61.0 53.15 -61.0 53.6 -59.85 L54.5 -57.75 56.8 -57.75 57.0 -58.5 Q57.2 -58.95 58.0 -58.95 58.65 -58.95 58.7 -58.45 58.8 -57.95 59.4 -57.95 L60.4 -58.0 60.2 -60.25 59.9 -62.75 59.95 -63.0 60.4 -63.5 61.65 -62.0 61.8 -61.25 62.65 -60.7 63.4 -60.95 65.0 -59.8 66.4 -58.7 Q67.25 -58.7 68.65 -59.5 L70.9 -60.95 71.2 -60.7 72.4 -60.5 Q73.05 -60.5 73.8 -61.4 L74.4 -62.5 73.5 -65.75 Q72.55 -68.25 72.55 -69.2 L74.35 -67.95 Q74.9 -67.2 75.3 -67.2 76.0 -67.2 76.5 -67.65 L76.95 -68.05 76.65 -68.5 76.65 -68.7 77.3 -68.25 77.65 -68.45 78.05 -67.7 78.05 -67.65 Q78.8 -66.9 78.8 -66.25 78.8 -65.0 77.15 -64.5 77.15 -62.5 79.0 -61.4 80.8 -60.25 80.8 -58.15 80.8 -57.35 79.7 -56.2 78.25 -54.65 77.55 -53.25 77.15 -52.7 75.9 -52.7 L73.15 -52.75 73.05 -53.95 71.55 -53.8 70.15 -53.45 68.55 -50.75 68.4 -50.75 67.55 -49.95 Q66.3 -49.0 66.3 -47.9 66.3 -45.95 67.3 -45.7 L68.85 -45.75 Q70.5 -45.75 71.8 -42.1 71.8 -40.05 68.85 -36.0 66.05 -32.2 65.4 -32.2 64.8 -32.2 64.4 -32.8 64.05 -33.45 63.4 -33.45 60.85 -33.45 60.3 -31.6 60.05 -30.7 60.3 -29.65 60.3 -27.45 59.15 -25.9 58.15 -24.5 55.0 -22.2 L50.7 -23.2 Q49.4 -23.4 48.55 -23.95 L48.5 -23.95 44.95 -26.35 Q42.55 -27.95 42.55 -29.2 L42.55 -29.5 42.55 -29.55 42.5 -30.65 42.65 -31.85 41.05 -32.7 41.05 -33.25 41.2 -33.35 42.1 -33.45 43.35 -33.1 43.75 -33.45 43.95 -33.15 44.0 -32.7 Q44.75 -32.25 45.0 -32.25 L45.7 -32.9 Q46.0 -33.35 46.0 -34.15 L45.25 -37.35 44.3 -40.45 Q42.9 -40.4 41.65 -41.5 40.6 -42.35 40.5 -42.95 L38.5 -42.5 Q37.9 -42.6 37.25 -43.2 36.65 -43.75 36.0 -43.75 34.0 -43.75 34.0 -41.75 34.0 -40.75 34.65 -40.1 35.3 -39.4 35.3 -38.9 35.3 -37.4 34.65 -36.85 34.25 -36.5 33.0 -36.2 L31.25 -36.25 30.7 -36.85 30.0 -36.95 Q29.35 -36.95 28.7 -36.3 L28.0 -35.5 Q23.9 -35.8 22.85 -36.75 L22.05 -38.45 20.75 -38.75 Q19.75 -39.25 19.55 -39.7 L19.55 -41.75 20.8 -41.5 Q21.15 -41.3 21.1 -42.05 L21.0 -43.15 21.75 -45.0 Q22.5 -46.5 22.5 -47.25 22.5 -49.9 19.8 -50.75 L19.75 -49.75 Q20.35 -49.7 19.1 -49.7 18.8 -49.7 17.65 -51.05 L16.0 -53.0 14.55 -51.25 11.25 -51.25 Q9.1 -52.1 8.3 -52.8 L7.35 -53.95 7.15 -53.25 6.0 -53.75 5.5 -50.2 Q5.2 -48.0 4.75 -46.7 2.75 -46.25 1.5 -45.35 L1.0 -44.5 0.6 -44.5 Q0.0 -43.8 0.0 -42.95 0.0 -42.25 0.15 -42.15 L0.25 -41.75 1.55 -41.75 1.7 -41.95 1.8 -41.25 Q1.8 -40.7 0.6 -39.3 L-1.0 -37.7 -2.75 -37.75 -2.9 -38.65 -2.95 -39.2 -3.5 -39.2 -6.75 -39.25 Q-7.9 -40.8 -7.8 -41.3 -7.45 -41.8 -7.45 -42.45 L-8.1 -43.7 Q-8.75 -44.75 -8.75 -45.45 -8.75 -46.05 -8.35 -46.35 -7.95 -46.6 -7.95 -47.25 L-7.85 -47.95 -7.75 -47.75 -6.45 -47.75 Q-6.25 -47.45 -6.7 -47.0 -6.2 -46.65 -6.2 -46.0 L-4.95 -46.2 -4.45 -46.75 -2.95 -47.7 -2.7 -48.1 Q-2.45 -48.45 -2.45 -49.2 -2.45 -49.65 -4.45 -53.9 L-3.9 -54.8 -3.0 -55.95 -2.0 -54.7 Q-1.1 -55.6 -0.75 -57.45 L0.0 -60.7 -1.5 -60.5 -3.4 -62.7 Q-4.45 -64.0 -4.45 -64.95 -4.45 -65.55 -3.95 -65.85 -3.5 -66.1 -3.5 -66.75 -3.5 -67.55 -3.8 -67.8 L-4.45 -67.95 -4.25 -68.25 Q-3.05 -68.3 -2.2 -67.15 -1.45 -66.2 -1.5 -65.5 L1.0 -65.75 1.85 -66.95 2.0 -68.5 2.45 -68.25 3.5 -68.0 Q5.1 -68.0 4.95 -69.5 L4.5 -71.5 Q4.5 -72.4 5.6 -73.4 6.95 -74.65 9.05 -74.7 L9.0 -75.0 7.5 -75.35 5.25 -75.75 Q5.05 -76.2 5.05 -77.7 5.05 -79.05 5.4 -79.45 6.5 -80.65 10.55 -79.7 L13.0 -81.95 Q16.8 -82.0 16.85 -83.3 L16.65 -84.45 Q16.55 -85.1 17.0 -85.45 L18.0 -84.1 18.3 -82.7 18.85 -82.6 19.25 -83.05 20.05 -83.4 20.05 -84.25 20.55 -84.25 Q21.85 -82.6 22.7 -81.85 L23.35 -81.55 Q24.0 -81.1 24.0 -79.5 24.0 -78.25 22.15 -75.8 L19.5 -72.7 17.75 -72.75 Q17.2 -72.75 16.2 -73.3 15.0 -73.9 16.05 -74.45 L14.7 -74.1 14.0 -73.8 13.3 -72.75 Q15.15 -71.4 15.6 -68.7 16.05 -65.9 17.25 -64.95 L18.55 -65.0 Q18.55 -66.7 19.0 -67.25 L20.05 -66.0 21.5 -65.95 Q22.65 -65.8 23.55 -64.95 24.35 -64.2 24.3 -63.5 L27.0 -65.95 27.35 -65.3 27.5 -64.1 Q27.5 -63.35 27.05 -62.95 26.55 -62.55 25.25 -62.45 L24.85 -61.9 24.75 -60.75 Q24.75 -59.3 26.0 -59.45 L28.5 -59.95 30.35 -59.55 Q31.3 -59.2 31.3 -59.0 31.8 -59.35 32.15 -60.15 32.5 -60.85 32.5 -61.45 L31.25 -61.75 30.6 -63.7 29.5 -65.5 29.75 -65.95 Q30.9 -65.5 31.7 -64.7 32.2 -64.2 33.3 -64.2 L36.5 -64.7 Q37.05 -65.85 36.8 -66.5 L36.6 -66.95 35.55 -67.0 34.8 -68.05 Q34.5 -68.7 34.5 -69.5 34.5 -70.25 35.05 -70.9 L35.75 -71.95 36.55 -71.55 Q37.15 -71.2 37.5 -71.2 L37.75 -73.75 38.35 -73.85 38.3 -73.0 Q38.3 -72.3 38.7 -72.3 L40.05 -72.25 40.6 -70.55 Q41.0 -69.0 41.5 -68.5 42.0 -68.6 44.4 -70.0 L47.25 -71.75 51.0 -71.95 52.25 -72.0 52.25 -74.7 52.5 -74.75 M42.5 -73.15 L42.5 -72.45 42.3 -72.45 42.0 -72.2 41.55 -72.2 41.5 -73.0 41.55 -73.95 42.25 -73.95 42.4 -74.0 42.5 -73.15 M43.3 -62.9 L43.0 -63.1 Q42.65 -61.9 41.35 -61.9 L40.8 -62.0 40.75 -61.75 40.8 -60.0 41.7 -59.75 43.5 -59.5 44.85 -61.3 45.2 -61.5 Q45.6 -61.85 45.6 -62.45 45.6 -63.55 44.3 -63.35 43.6 -63.25 43.3 -62.9 M70.65 -71.95 L70.9 -71.2 Q70.8 -70.75 69.8 -70.7 69.4 -71.45 69.4 -71.95 L70.65 -71.95 M15.3 -94.25 L14.75 -94.2 Q14.5 -94.5 14.5 -95.25 15.2 -95.55 15.5 -95.0 L15.3 -94.25 M14.05 -89.3 L14.0 -90.15 Q14.0 -90.9 16.0 -93.5 L16.8 -92.65 17.3 -91.75 17.35 -91.2 17.1 -91.4 17.1 -91.3 17.1 -90.9 17.25 -89.75 17.05 -89.45 16.4 -89.45 16.0 -89.0 14.25 -89.2 14.05 -89.3 M8.5 -85.95 L10.05 -85.75 Q10.5 -85.2 10.0 -84.7 11.05 -84.7 11.05 -85.0 L11.55 -85.2 Q11.4 -84.15 11.0 -83.9 L10.0 -83.7 8.3 -83.75 8.2 -84.15 Q8.05 -84.4 8.05 -85.15 8.05 -85.9 8.3 -85.95 L8.5 -85.95 M17.5 -80.95 L16.9 -80.15 16.25 -79.45 16.25 -79.0 17.5 -78.95 17.65 -80.05 17.5 -81.0 17.5 -80.95 M40.05 -36.35 Q40.05 -37.15 40.2 -37.3 L40.5 -37.45 Q41.85 -37.3 41.95 -36.6 42.1 -35.7 42.55 -35.45 L42.25 -34.7 40.75 -34.7 40.3 -35.15 Q40.05 -35.55 40.05 -36.35 M33.05 -26.75 L33.3 -26.0 33.0 -25.7 32.25 -25.6 Q32.05 -25.6 32.05 -26.4 32.05 -27.2 32.35 -27.1 L33.05 -26.75 M37.8 -27.95 L37.5 -27.25 Q37.15 -27.45 37.1 -27.75 L37.0 -29.0 37.05 -29.85 37.05 -29.75 37.55 -29.75 38.0 -29.0 37.85 -28.35 37.8 -27.95 M40.0 -25.75 L41.3 -26.25 41.0 -27.0 41.05 -27.45 Q42.2 -27.1 42.55 -26.75 43.0 -26.4 43.0 -25.5 43.0 -24.25 41.5 -23.0 40.05 -23.2 39.8 -23.45 L38.65 -23.35 Q38.25 -23.3 38.25 -22.5 38.25 -20.85 39.8 -20.25 L41.5 -20.0 Q42.3 -20.0 42.5 -20.5 L42.75 -21.25 44.0 -21.25 44.15 -21.2 44.3 -20.4 Q44.3 -19.6 43.9 -19.3 L43.3 -19.0 44.55 -18.75 44.7 -18.95 44.8 -18.25 Q44.8 -17.6 44.3 -17.0 L43.5 -16.2 Q39.25 -16.45 38.8 -17.15 38.3 -17.95 35.75 -18.25 L34.25 -20.45 Q33.3 -21.45 30.8 -21.2 L30.65 -21.5 Q30.5 -21.75 30.5 -22.5 30.5 -23.25 31.05 -23.85 L32.25 -24.95 33.5 -23.85 33.5 -23.2 35.0 -23.25 Q36.0 -23.9 36.6 -24.7 L37.5 -25.5 40.0 -25.75 M30.5 -13.95 L29.55 -13.95 Q29.3 -14.05 29.3 -14.85 L29.35 -15.55 Q29.45 -15.4 29.5 -15.5 L29.85 -15.55 30.75 -15.45 31.05 -14.7 Q31.0 -14.05 30.5 -13.95 M61.55 -38.1 L61.6 -38.25 61.6 -38.2 62.05 -39.45 Q62.05 -40.45 59.85 -40.6 57.65 -40.75 57.1 -41.5 L57.0 -41.45 Q55.75 -40.4 55.3 -38.75 54.95 -37.7 53.65 -36.15 52.5 -34.75 52.5 -34.15 L52.55 -33.5 54.3 -33.3 56.3 -33.0 Q59.0 -33.9 60.55 -36.4 L60.8 -36.8 61.45 -38.05 61.55 -38.1 M66.05 -25.2 Q66.05 -24.45 65.65 -24.0 L65.05 -24.0 Q64.8 -24.45 64.8 -25.45 L66.05 -25.2 M42.3 -22.25 Q42.3 -21.7 42.0 -21.5 41.25 -21.75 41.05 -22.2 L42.3 -22.25 M77.15 -24.2 Q76.9 -24.5 76.9 -25.25 77.5 -25.5 78.15 -24.7 78.05 -24.25 77.15 -24.2 M77.05 -21.0 Q76.8 -21.45 76.8 -22.95 L77.65 -23.0 78.0 -22.3 78.15 -21.5 Q77.9 -21.2 77.05 -21.0 M73.3 -23.25 L72.65 -23.2 Q72.4 -23.5 72.4 -24.25 73.1 -24.55 73.4 -24.0 L73.3 -23.25 M73.05 -20.2 L73.15 -19.45 73.05 -18.95 72.15 -18.75 71.15 -18.85 71.05 -19.0 Q70.8 -18.4 70.8 -19.65 70.8 -20.4 71.2 -20.55 L71.9 -20.7 73.05 -20.2 M75.3 -20.95 L76.55 -20.7 Q76.55 -20.25 75.9 -20.0 75.3 -20.25 75.3 -20.95 M70.9 -21.0 Q70.3 -21.25 70.3 -21.95 L71.55 -21.7 70.9 -21.0 M67.55 -21.75 L67.75 -21.05 67.55 -20.25 67.15 -20.25 67.05 -21.75 67.55 -21.75 M67.9 -22.0 Q66.9 -22.25 66.9 -23.7 67.1 -24.0 68.15 -23.95 L68.4 -23.4 68.3 -22.45 67.9 -22.0 M69.8 -20.0 L68.55 -19.95 68.3 -20.75 70.05 -20.7 69.8 -20.0 M63.15 -21.45 Q63.6 -22.0 65.65 -22.0 L66.05 -21.7 65.45 -20.9 Q64.9 -20.5 64.4 -20.45 63.55 -20.75 63.15 -21.45 M87.9 -72.0 Q87.3 -72.25 87.3 -72.95 L88.55 -72.7 87.9 -72.0 M84.05 -70.0 Q83.8 -69.4 83.8 -70.65 83.8 -71.35 85.1 -71.8 86.4 -72.3 87.15 -71.45 86.95 -70.6 85.9 -69.95 L84.05 -70.0 M81.15 -70.2 Q80.9 -70.5 80.9 -71.25 L82.15 -71.45 82.4 -70.7 81.9 -70.0 81.15 -70.2 M-4.0 -69.45 Q-4.7 -69.7 -4.75 -70.0 -5.5 -70.85 -4.8 -70.75 L-3.25 -70.45 Q-3.25 -69.8 -4.0 -69.45 M-4.5 -60.5 Q-5.2 -60.75 -5.2 -61.45 L-3.95 -61.2 Q-4.0 -60.75 -4.5 -60.5 M-2.95 -58.2 L-3.15 -57.4 -3.5 -56.95 -3.7 -56.9 -4.0 -56.7 -4.45 -56.7 -4.5 -56.95 Q-4.7 -57.1 -4.7 -57.85 L-4.65 -58.55 -4.5 -58.5 -4.15 -58.55 -3.25 -58.5 -2.95 -58.2 M-8.45 -49.7 Q-8.5 -49.35 -8.95 -48.95 -9.45 -48.5 -9.95 -48.5 -10.2 -48.1 -10.2 -49.35 L-10.15 -50.05 -10.0 -50.0 -9.65 -50.05 -8.75 -50.0 -8.45 -49.7" fill="#afbfc2" fill-rule="evenodd" stroke="none"/>
    </g>
  </defs>
</svg>
