<?xml version="1.0" encoding="UTF-8" standalone="no"?>
<svg xmlns:ffdec="https://www.free-decompiler.com/flash" xmlns:xlink="http://www.w3.org/1999/xlink" ffdec:objectType="frame" height="146.1px" width="102.8px" xmlns="http://www.w3.org/2000/svg">
  <g transform="matrix(1.0, 0.0, 0.0, 1.0, 14.25, 122.8)">
    <use ffdec:characterId="78" height="86.55" transform="matrix(1.0, 0.0, 0.0, 1.0, -9.9, -101.05)" width="97.65" xlink:href="#shape0"/>
  </g>
  <defs>
    <g id="shape0" transform="matrix(1.0, 0.0, 0.0, 1.0, 9.9, 101.05)">
      <path d="M23.25 -100.4 L22.75 -100.6 22.65 -100.75 23.2 -101.05 23.6 -101.0 23.25 -100.4 M25.4 -99.5 L26.0 -98.45 Q26.0 -96.8 24.6 -95.4 23.65 -94.5 20.75 -92.6 L20.1 -92.65 Q19.9 -92.85 19.85 -93.25 L19.75 -93.25 18.9 -94.05 18.75 -94.0 18.0 -94.0 Q17.0 -95.5 17.15 -95.9 L17.5 -96.1 18.25 -95.15 19.5 -95.25 Q20.0 -95.55 20.7 -96.7 21.3 -97.55 22.5 -98.0 23.4 -98.3 23.9 -99.0 L24.5 -100.25 25.4 -99.5 M46.9 -76.0 L46.75 -75.85 Q46.4 -76.05 46.4 -76.35 46.55 -76.6 47.0 -76.35 L46.9 -76.0 M46.1 -75.25 L46.25 -75.1 46.25 -74.65 45.6 -73.5 44.75 -72.75 Q43.65 -72.75 43.5 -73.0 L44.8 -74.4 46.1 -75.25 M56.25 -69.85 Q57.25 -69.05 57.25 -68.0 57.25 -65.65 54.75 -65.25 L54.0 -65.25 53.5 -66.0 Q51.9 -65.9 50.75 -65.1 49.75 -64.45 49.75 -63.75 49.75 -63.15 49.25 -62.4 48.75 -61.65 48.75 -61.25 48.75 -60.8 49.5 -60.55 L51.0 -59.9 51.6 -60.0 Q51.4 -60.15 51.4 -60.9 L51.75 -61.1 Q52.25 -60.85 52.3 -60.1 52.35 -59.5 53.35 -59.25 L53.6 -58.95 53.75 -58.4 Q53.75 -58.0 53.55 -57.9 L53.25 -57.75 52.0 -57.65 51.5 -56.55 51.0 -55.1 Q51.0 -54.4 51.8 -53.5 52.55 -52.65 53.15 -52.65 53.85 -52.65 54.2 -52.95 L54.75 -53.35 55.6 -53.25 56.0 -52.75 57.25 -52.75 Q57.75 -53.1 57.75 -53.95 L57.75 -55.15 58.1 -55.25 58.45 -54.25 Q58.7 -53.55 59.25 -53.35 60.6 -52.85 60.7 -52.3 60.8 -51.55 61.0 -51.4 L61.6 -51.25 Q62.9 -51.85 62.9 -52.3 L62.65 -53.25 62.9 -53.95 63.15 -54.7 62.9 -55.65 62.65 -56.75 63.0 -57.1 63.55 -55.45 Q63.85 -54.45 65.0 -54.85 L65.85 -54.85 66.25 -54.45 67.75 -54.75 Q68.5 -55.25 68.7 -56.2 L69.0 -57.5 69.8 -58.05 Q70.35 -58.3 70.35 -58.75 L70.15 -59.95 70.25 -60.75 Q70.85 -60.65 71.1 -59.4 71.35 -58.05 73.25 -57.65 73.5 -57.0 73.25 -56.35 73.45 -56.15 74.1 -56.1 L74.9 -55.9 76.75 -55.9 78.35 -57.35 Q79.0 -57.85 79.0 -58.55 L78.8 -59.15 78.0 -60.6 78.7 -60.35 78.75 -60.35 78.9 -60.2 79.25 -59.85 80.0 -58.85 81.0 -58.9 81.1 -59.5 Q82.25 -58.9 83.05 -57.6 83.75 -56.4 83.75 -55.45 L83.1 -54.25 83.25 -52.7 82.95 -50.9 Q82.35 -49.25 81.0 -49.25 80.6 -49.25 80.5 -49.45 L80.5 -49.75 79.5 -49.65 77.9 -48.25 Q76.4 -47.0 75.75 -47.0 75.2 -47.0 74.7 -47.8 L74.25 -48.75 Q73.6 -48.85 73.5 -49.0 71.2 -48.85 70.15 -47.25 69.5 -46.25 69.5 -44.95 L69.6 -43.75 70.5 -42.65 Q71.6 -41.7 71.85 -42.1 72.05 -42.4 72.65 -41.65 L73.65 -39.5 74.15 -37.45 Q74.15 -35.6 66.75 -27.25 L65.75 -27.35 65.75 -27.75 62.3 -25.75 Q62.0 -25.4 62.0 -23.9 62.0 -22.35 61.2 -20.25 60.05 -17.35 58.25 -17.35 L57.5 -17.05 56.25 -16.5 55.7 -16.9 55.65 -17.1 Q53.35 -17.4 52.1 -18.0 L52.0 -18.0 Q51.0 -18.0 49.7 -18.8 48.7 -19.45 48.5 -19.75 L46.85 -19.9 45.6 -20.1 Q44.9 -20.4 44.8 -20.95 L44.75 -21.8 44.8 -22.6 46.0 -23.65 45.7 -23.75 45.35 -24.2 Q45.1 -24.35 45.0 -24.65 L45.0 -25.25 45.05 -25.7 45.25 -25.75 45.65 -25.15 46.5 -25.15 Q46.75 -25.45 47.1 -25.55 L48.5 -25.9 48.85 -26.25 48.25 -27.0 Q48.4 -27.45 48.7 -27.4 L48.65 -27.75 48.0 -27.75 Q46.45 -27.75 46.2 -29.95 L46.25 -32.85 Q46.25 -34.0 45.0 -35.5 43.05 -37.75 42.45 -37.65 41.9 -37.1 41.25 -37.1 40.7 -37.1 40.1 -37.8 L38.65 -39.25 37.45 -39.2 36.45 -38.75 36.05 -37.9 36.0 -37.0 36.1 -36.05 Q36.3 -35.6 37.35 -35.25 L37.45 -35.3 37.5 -34.95 Q37.5 -34.4 36.5 -32.4 L35.6 -31.4 33.75 -30.4 33.1 -30.4 32.75 -31.0 32.5 -31.5 Q31.85 -31.65 31.75 -31.75 L30.65 -31.75 Q30.5 -31.6 30.15 -31.5 L30.35 -31.35 30.5 -30.9 30.4 -30.5 30.25 -30.35 28.45 -30.5 27.5 -30.1 26.1 -30.15 26.0 -30.5 23.1 -30.65 22.3 -31.2 Q21.75 -31.7 21.75 -32.5 L21.4 -33.3 20.65 -34.0 20.25 -34.0 Q19.2 -34.45 19.5 -35.15 L20.0 -36.3 19.65 -37.3 Q19.25 -38.0 19.25 -38.5 L19.35 -38.75 20.05 -37.65 Q20.3 -37.0 20.9 -37.0 L21.4 -37.25 23.25 -37.65 23.35 -38.25 Q22.65 -38.9 22.25 -39.5 L22.25 -40.65 22.5 -40.55 23.0 -40.4 Q23.35 -40.4 23.9 -40.8 L24.5 -41.5 Q24.15 -42.4 24.15 -43.0 L24.45 -43.8 24.75 -44.6 Q24.75 -45.5 24.15 -46.5 23.45 -47.65 22.35 -48.0 22.2 -47.75 22.3 -47.05 22.25 -46.4 21.25 -46.0 L17.85 -46.6 17.6 -47.5 17.0 -48.4 15.85 -48.35 15.25 -48.15 14.75 -47.35 Q14.05 -46.75 12.55 -46.75 L11.25 -47.0 10.0 -47.25 8.15 -49.15 7.35 -49.1 Q6.85 -48.95 6.6 -48.55 L6.3 -48.15 6.2 -48.0 6.1 -47.65 6.1 -47.6 6.05 -47.5 6.0 -47.15 6.2 -46.5 6.4 -45.75 5.9 -43.8 5.25 -42.35 3.9 -42.25 Q3.7 -42.25 3.4 -41.05 L3.15 -39.75 3.25 -38.75 5.15 -38.35 5.25 -37.1 4.95 -35.15 Q4.4 -33.5 3.25 -33.5 2.85 -33.5 2.75 -33.65 L2.75 -34.0 2.1 -34.0 1.65 -33.4 Q1.25 -33.1 0.25 -33.0 -0.5 -32.25 -1.25 -32.25 L-3.5 -32.35 Q-4.5 -33.05 -4.65 -34.05 -4.9 -35.3 -5.25 -35.75 L-5.75 -35.5 -6.65 -35.6 Q-7.0 -35.9 -7.15 -36.65 L-7.25 -37.45 Q-7.25 -38.6 -6.85 -39.45 -6.5 -40.3 -6.5 -41.2 L-6.6 -41.85 -6.9 -42.25 -7.2 -42.7 -7.25 -42.75 -7.2 -42.75 -7.35 -43.35 -7.2 -44.0 -7.0 -44.5 -6.65 -44.5 -6.1 -42.1 Q-6.0 -41.8 -4.85 -41.5 -4.85 -40.85 -4.4 -40.35 -3.55 -40.75 -3.35 -41.55 L-3.25 -43.0 -2.5 -43.85 Q-1.75 -44.4 -1.75 -45.1 -1.75 -45.5 -1.9 -45.65 L-2.25 -46.0 -3.15 -46.1 Q-3.4 -46.65 -3.3 -48.05 -3.2 -49.35 -3.75 -50.0 L-3.75 -52.25 -3.4 -52.25 -3.0 -50.0 Q-2.9 -49.45 -2.5 -49.2 -2.15 -48.95 -1.0 -48.6 L-0.65 -49.35 -0.8 -49.4 -0.85 -49.85 -0.6 -50.35 Q-0.35 -50.5 -0.35 -50.85 L-0.6 -51.35 -0.85 -51.9 -0.55 -53.15 -0.25 -54.4 Q-0.25 -54.75 -0.5 -54.95 L-0.75 -55.15 0.0 -56.05 Q0.0 -56.7 -0.35 -57.55 L-1.0 -59.0 -1.9 -59.15 Q-2.85 -60.2 -3.1 -61.35 L-3.25 -63.25 -3.1 -64.65 -3.5 -65.1 -3.5 -65.65 -3.15 -65.8 -3.15 -65.85 -3.05 -65.85 -3.0 -65.9 Q-2.55 -65.55 -2.6 -64.8 L-2.4 -63.9 -2.1 -63.65 -1.0 -63.65 -0.9 -64.25 -0.15 -64.25 0.55 -62.85 Q1.15 -61.9 2.35 -61.9 3.05 -61.9 3.1 -63.95 L3.0 -66.35 3.5 -66.5 3.9 -65.8 4.0 -65.15 5.5 -65.1 Q6.95 -65.1 7.0 -66.15 L6.75 -67.45 Q6.75 -68.15 7.4 -68.7 L8.0 -69.6 7.65 -70.85 Q7.25 -71.6 7.25 -72.35 L7.3 -73.3 Q7.55 -74.05 8.5 -73.85 8.5 -74.4 7.9 -74.9 L6.25 -74.0 4.85 -74.1 Q4.25 -75.05 4.25 -75.9 4.25 -76.3 4.75 -77.5 L5.35 -77.05 5.85 -76.75 7.5 -77.0 8.6 -77.0 Q8.95 -76.35 8.9 -75.6 9.05 -75.0 10.5 -74.35 L12.5 -74.4 Q13.55 -74.95 13.7 -75.45 L13.65 -76.25 13.85 -76.9 14.15 -77.4 14.05 -77.65 Q13.9 -77.9 13.9 -78.25 L13.9 -78.65 14.0 -78.75 14.25 -78.85 14.85 -78.75 Q15.0 -78.6 14.75 -78.25 L15.05 -77.3 15.75 -76.0 16.55 -76.15 17.25 -76.35 18.0 -75.9 18.6 -75.5 Q19.8 -75.5 20.25 -77.1 L19.85 -77.75 Q19.4 -78.3 19.4 -78.6 L19.9 -79.5 20.4 -80.45 20.15 -81.35 19.9 -82.25 19.9 -82.65 20.0 -82.75 21.1 -82.0 Q21.8 -81.15 21.75 -80.35 L23.1 -80.25 23.1 -80.9 Q23.1 -81.4 23.6 -81.5 L24.15 -80.8 Q24.6 -80.3 25.6 -80.0 26.05 -79.6 26.0 -78.55 25.95 -77.45 26.5 -76.85 L26.45 -76.6 26.65 -75.45 Q26.65 -74.15 25.7 -73.3 24.7 -72.3 23.25 -72.5 L22.15 -72.5 Q20.75 -70.5 19.5 -70.1 L17.85 -70.3 16.75 -70.5 Q15.95 -70.5 14.8 -68.5 L13.75 -66.5 14.15 -65.8 Q14.6 -65.2 15.1 -65.25 L15.35 -64.15 Q15.45 -63.2 15.75 -62.75 L16.85 -61.7 Q17.85 -60.85 18.0 -60.85 18.9 -60.85 19.05 -61.9 L19.25 -63.25 19.7 -62.85 19.75 -62.85 20.45 -61.65 20.75 -60.8 20.5 -60.25 Q20.25 -60.05 20.25 -59.7 20.25 -59.4 20.4 -59.25 L21.15 -58.6 21.15 -58.45 22.1 -58.5 Q22.75 -57.65 22.75 -57.0 L23.0 -56.65 24.35 -56.9 Q24.0 -57.7 24.85 -59.0 L25.3 -60.15 25.75 -61.0 26.0 -59.4 26.85 -59.75 27.6 -59.5 Q27.75 -59.1 27.5 -58.2 27.5 -57.95 27.85 -57.65 L28.5 -56.85 28.85 -56.75 29.35 -56.5 29.1 -56.35 28.95 -56.35 Q29.45 -55.85 29.45 -54.85 29.5 -53.85 31.0 -53.85 L32.25 -53.9 Q34.5 -55.0 34.5 -58.5 L34.4 -59.2 32.85 -59.6 32.3 -60.25 31.75 -60.9 31.75 -62.25 32.35 -62.5 Q32.95 -60.95 36.75 -60.0 37.7 -60.0 38.45 -61.65 L39.25 -63.75 39.25 -63.9 38.5 -64.0 37.9 -67.4 38.25 -67.6 39.25 -66.1 39.85 -65.7 40.5 -65.15 41.15 -65.25 42.0 -66.05 44.25 -66.85 Q44.75 -66.7 44.75 -66.1 46.15 -66.0 48.45 -67.0 L50.5 -68.0 51.15 -69.2 Q51.55 -70.1 52.25 -70.6 52.75 -71.0 52.45 -72.05 52.15 -72.95 52.85 -73.1 L54.3 -71.3 56.0 -70.05 56.25 -69.85 M42.5 -73.5 Q42.15 -73.65 42.15 -74.0 L42.75 -73.85 42.5 -73.5 M47.0 -59.6 L46.95 -60.25 Q46.75 -60.75 46.0 -61.0 L43.05 -59.0 Q41.5 -58.15 41.5 -57.15 41.5 -56.65 42.25 -55.75 L43.25 -54.85 Q45.55 -54.85 46.5 -57.15 L47.0 -59.6 M73.0 -66.35 Q72.6 -67.4 73.7 -67.4 74.75 -67.35 74.4 -66.1 74.6 -65.85 74.0 -65.85 73.4 -65.85 73.0 -66.35 M77.75 -65.0 L77.35 -65.15 Q77.25 -65.2 77.25 -65.6 L77.35 -66.25 77.75 -66.25 Q78.25 -66.05 78.35 -65.75 78.35 -65.45 77.75 -65.0 M16.45 -96.7 L16.0 -97.35 17.0 -97.65 17.5 -96.9 Q17.1 -96.3 16.75 -96.25 L16.45 -96.7 M19.45 -94.45 L19.4 -94.5 19.4 -94.45 19.45 -94.45 M10.5 -98.0 Q10.1 -98.1 10.0 -98.25 L10.45 -98.55 11.1 -98.5 10.5 -98.0 M11.75 -96.75 L11.5 -97.25 Q11.9 -97.85 13.0 -97.85 L13.0 -97.65 13.25 -97.25 12.85 -96.75 11.75 -96.75 M14.5 -87.4 Q14.5 -87.95 15.5 -88.6 16.65 -89.3 17.0 -90.5 L17.35 -90.5 17.65 -90.2 17.75 -89.6 17.5 -88.8 17.25 -87.95 Q17.25 -87.1 16.0 -86.25 L15.1 -86.35 14.75 -86.75 Q14.5 -87.0 14.5 -87.4 M13.85 -87.5 L13.5 -87.5 Q14.3 -88.3 14.25 -87.75 L13.85 -87.5 M9.8 -83.0 L11.25 -82.75 10.1 -81.85 9.5 -81.75 8.55 -82.6 Q8.0 -83.3 8.0 -83.75 8.0 -84.15 8.15 -84.3 L8.5 -84.4 8.5 -83.95 Q8.5 -83.35 9.8 -83.0 M5.65 -79.25 L5.75 -79.75 6.1 -79.6 6.25 -79.35 6.0 -79.0 5.65 -79.25 M17.1 -82.1 Q17.1 -83.2 17.5 -83.75 L18.5 -82.95 18.35 -82.1 17.25 -81.75 Q17.1 -81.45 17.1 -82.1 M15.8 -81.0 Q15.2 -80.1 14.9 -80.3 14.5 -80.55 13.75 -79.15 L13.5 -79.25 13.8 -79.9 13.6 -80.0 Q13.5 -80.0 13.5 -80.4 13.5 -80.95 14.35 -81.35 15.25 -81.75 15.35 -82.35 L15.5 -82.35 15.8 -81.3 16.0 -81.35 15.85 -81.05 15.85 -81.0 15.8 -81.0 M11.0 -83.9 Q11.35 -84.05 11.5 -83.75 L11.4 -83.4 11.1 -83.35 11.0 -83.9 M37.85 -69.5 L37.5 -69.25 37.15 -69.35 37.1 -69.7 Q37.1 -70.1 37.6 -70.1 L37.85 -69.5 M35.5 -66.75 Q34.9 -66.75 34.9 -67.15 L35.75 -67.1 Q35.75 -66.75 35.5 -66.75 M40.25 -23.15 L40.75 -23.0 40.65 -22.65 40.35 -22.6 40.25 -23.15 M37.6 -20.35 L37.8 -20.25 37.85 -19.9 37.8 -19.55 38.45 -19.6 38.75 -19.35 Q40.0 -19.35 40.7 -20.4 L41.25 -21.5 42.05 -20.95 42.65 -20.1 Q42.65 -19.15 41.75 -18.4 L40.25 -18.55 40.0 -18.75 38.4 -18.5 37.95 -18.1 37.5 -17.5 38.25 -16.9 Q38.65 -16.65 38.75 -16.65 L40.95 -16.85 43.25 -17.25 43.7 -17.9 44.25 -18.5 Q44.65 -17.7 44.65 -16.6 44.65 -16.25 43.25 -15.1 L41.5 -14.75 Q41.0 -14.85 41.0 -15.25 40.05 -15.4 39.3 -14.95 L38.5 -14.5 36.85 -14.6 Q35.75 -15.5 35.75 -15.95 35.0 -16.7 35.0 -17.2 L35.0 -17.5 35.25 -17.6 35.5 -17.35 36.5 -18.35 36.6 -18.3 36.7 -18.55 36.65 -18.85 36.85 -19.5 Q37.15 -20.2 37.6 -20.35 M37.15 -21.5 L37.85 -21.5 38.0 -21.25 37.5 -20.75 37.15 -20.9 37.15 -21.5 M32.65 -19.75 L34.25 -19.85 34.45 -20.2 34.75 -20.5 35.15 -20.4 35.25 -19.9 Q35.25 -19.05 34.6 -17.85 34.35 -17.5 33.75 -17.5 L32.5 -17.6 Q32.15 -17.6 32.05 -18.0 L32.0 -18.75 31.35 -19.35 Q31.0 -19.4 31.0 -19.6 31.0 -20.5 31.5 -21.0 L31.75 -20.15 31.75 -20.1 Q31.85 -20.25 32.25 -20.25 L32.7 -20.05 32.65 -19.75 M62.1 -38.1 L61.25 -38.85 60.65 -38.75 Q59.65 -37.85 59.65 -36.5 L59.4 -34.4 Q59.4 -33.8 58.05 -32.65 56.55 -31.4 55.4 -31.85 55.2 -30.6 56.05 -29.6 57.05 -28.4 59.1 -28.75 L59.25 -28.15 Q59.95 -28.5 60.9 -29.8 62.15 -31.05 64.75 -31.4 66.25 -32.75 66.25 -34.4 66.25 -35.55 65.7 -36.45 64.95 -37.6 63.5 -37.6 62.65 -37.55 62.1 -38.1 M44.85 -31.5 Q45.8 -30.3 45.25 -29.75 45.4 -29.5 46.1 -29.25 45.8 -28.85 45.15 -28.75 L44.5 -27.85 43.85 -27.9 43.45 -30.0 43.25 -32.1 43.25 -32.25 43.75 -31.55 44.85 -31.5 M78.25 -20.9 L78.85 -21.0 79.0 -20.75 78.35 -20.35 78.25 -20.9 M77.85 -18.95 Q77.85 -19.35 78.35 -19.35 L78.6 -18.75 78.25 -18.5 77.9 -18.6 77.85 -18.95 M73.0 -19.25 L73.0 -19.5 73.75 -19.25 73.35 -19.15 73.0 -19.25 M73.5 -16.5 L73.0 -16.85 73.75 -17.5 74.25 -17.0 73.5 -16.5 M71.35 -17.5 L72.1 -17.25 Q72.0 -17.0 71.5 -17.0 71.35 -17.15 71.35 -17.5 M64.0 -18.85 L63.85 -18.25 63.5 -18.25 63.4 -19.0 64.0 -18.85 M64.65 -16.5 L65.25 -16.35 65.0 -16.0 Q64.65 -16.15 64.65 -16.5 M66.4 -17.6 Q66.6 -17.9 67.25 -17.6 L66.75 -17.1 Q66.4 -17.3 66.4 -17.6 M70.5 -17.9 Q70.1 -18.05 70.1 -18.5 70.5 -18.75 70.85 -18.25 L70.5 -17.9 M87.25 -68.5 L86.75 -68.85 Q86.75 -69.35 87.25 -69.5 L87.75 -68.85 87.25 -68.5 M82.5 -68.75 Q81.9 -68.75 81.9 -69.15 L82.75 -69.1 82.5 -68.75 M83.75 -69.4 L84.25 -69.25 84.15 -68.9 83.85 -68.85 83.75 -69.4 M85.15 -67.9 L86.0 -67.75 85.25 -67.5 85.15 -67.9 M-3.4 -68.6 L-2.9 -68.0 -3.25 -67.65 Q-3.9 -67.8 -3.9 -68.1 L-3.85 -68.6 -3.4 -68.6 M-4.0 -53.75 L-3.25 -53.6 -3.35 -53.0 Q-3.5 -52.85 -4.0 -52.75 L-4.1 -52.85 -4.1 -53.25 -4.1 -53.65 -4.0 -53.75 M-2.85 -50.9 Q-2.6 -51.15 -2.1 -50.9 L-2.1 -50.6 -2.75 -50.5 -2.85 -50.9 M-8.25 -49.1 Q-8.25 -48.75 -8.5 -48.75 -9.1 -48.75 -9.1 -49.15 L-8.25 -49.1 M-9.9 -47.65 L-9.15 -48.35 -8.9 -47.6 -9.25 -47.4 -9.9 -47.65 M-6.5 -45.1 L-7.25 -45.0 -7.4 -45.1 -7.4 -45.5 -7.3 -46.05 -7.0 -46.15 Q-6.5 -45.95 -6.5 -45.25 L-6.5 -45.1" fill="#afbfc2" fill-rule="evenodd" stroke="none"/>
    </g>
  </defs>
</svg>
