<?xml version="1.0" encoding="UTF-8" standalone="no"?>
<svg xmlns:ffdec="https://www.free-decompiler.com/flash" xmlns:xlink="http://www.w3.org/1999/xlink" ffdec:objectType="frame" height="146.1px" width="102.8px" xmlns="http://www.w3.org/2000/svg">
  <g transform="matrix(1.0, 0.0, 0.0, 1.0, 14.25, 122.8)">
    <use ffdec:characterId="79" height="86.75" transform="matrix(1.0, 0.0, 0.0, 1.0, -6.5, -98.25)" width="92.25" xlink:href="#shape0"/>
  </g>
  <defs>
    <g id="shape0" transform="matrix(1.0, 0.0, 0.0, 1.0, 6.5, 98.25)">
      <path d="M57.6 -68.5 L57.75 -67.75 57.6 -67.5 57.1 -67.5 57.25 -68.5 57.6 -68.5 M56.0 -68.85 L55.65 -68.9 Q55.5 -68.95 55.5 -69.35 L55.5 -69.75 55.85 -69.75 56.25 -69.15 56.0 -68.85 M55.5 -67.45 Q55.5 -67.85 55.65 -67.9 L55.75 -68.0 56.1 -67.85 56.25 -68.0 57.4 -66.65 Q57.8 -65.8 59.0 -65.9 L59.15 -65.5 Q59.3 -65.3 58.95 -65.25 L59.0 -65.05 59.15 -64.25 Q59.15 -63.85 58.55 -62.8 L57.5 -61.35 56.5 -61.5 53.9 -61.5 53.25 -60.75 52.45 -60.85 50.85 -59.75 Q49.6 -58.5 49.6 -57.55 49.6 -57.0 50.25 -56.5 L51.25 -55.35 51.6 -55.15 52.4 -55.0 53.75 -55.1 54.0 -55.45 54.0 -55.85 53.95 -55.9 54.35 -56.0 Q55.3 -56.0 56.65 -54.15 56.65 -53.45 56.15 -52.5 L55.5 -50.85 55.3 -50.75 55.05 -50.45 53.85 -50.5 Q53.25 -50.5 53.25 -48.5 L53.15 -48.35 Q53.35 -48.25 52.9 -48.25 L52.9 -47.75 53.25 -47.6 53.85 -47.5 55.5 -48.0 57.1 -47.3 58.6 -46.5 59.35 -46.5 Q59.7 -47.35 59.65 -47.9 L59.5 -48.7 59.5 -49.15 59.55 -49.25 59.75 -49.4 60.25 -48.0 Q60.4 -47.5 61.25 -47.5 61.6 -47.5 61.9 -46.3 62.2 -44.95 63.25 -44.5 L64.35 -44.9 65.25 -45.25 Q65.05 -45.95 65.25 -46.3 L65.75 -47.1 65.85 -47.95 65.75 -48.9 65.85 -49.75 66.45 -48.6 67.35 -49.0 67.55 -49.2 67.25 -49.25 67.15 -49.7 67.35 -50.2 67.75 -50.35 68.15 -50.35 68.25 -49.95 68.25 -49.65 Q69.5 -49.35 69.85 -50.4 L70.0 -51.75 Q70.0 -52.2 70.35 -52.45 L71.5 -53.4 Q72.0 -54.0 72.0 -55.25 L72.35 -55.25 72.7 -53.65 Q72.95 -52.7 73.75 -52.1 L74.6 -52.0 75.45 -50.1 Q75.85 -49.0 78.75 -49.0 80.6 -49.0 81.45 -51.3 L81.8 -52.35 81.4 -52.35 Q81.25 -52.3 81.25 -52.95 81.25 -53.35 81.4 -53.45 L81.85 -53.5 82.0 -53.35 82.0 -53.9 82.35 -54.0 Q82.7 -53.3 82.55 -51.5 82.75 -50.0 84.85 -49.75 L84.95 -49.55 85.0 -50.25 85.35 -50.25 85.5 -48.5 85.75 -47.95 Q85.75 -46.95 85.1 -46.35 L83.5 -44.85 82.35 -44.65 82.2 -44.95 81.6 -45.15 80.85 -45.35 80.25 -46.0 Q77.3 -45.95 76.65 -43.7 L76.75 -43.65 76.85 -43.25 76.6 -43.25 76.55 -43.35 76.45 -42.95 76.45 -42.9 76.5 -41.95 76.45 -41.0 75.95 -40.5 Q75.4 -39.85 74.25 -39.85 73.9 -39.85 73.65 -40.3 L73.6 -40.4 72.0 -40.1 71.7 -39.85 71.65 -39.75 71.75 -39.25 Q71.8 -38.85 72.15 -38.4 72.75 -37.6 72.75 -36.9 L72.55 -35.4 Q72.6 -34.3 73.75 -34.1 L74.75 -34.15 75.7 -34.8 76.1 -35.75 Q77.0 -35.05 77.0 -34.5 L76.65 -33.45 76.25 -32.35 76.25 -31.6 77.35 -31.75 77.5 -30.75 Q77.5 -29.6 76.85 -28.7 L74.75 -26.25 73.1 -23.55 Q72.2 -22.15 71.0 -22.35 L70.35 -22.4 69.25 -23.5 68.5 -23.4 68.1 -23.5 68.5 -23.8 68.1 -23.9 67.25 -24.65 67.35 -25.25 67.85 -25.05 68.0 -24.85 69.0 -24.9 69.05 -24.9 68.75 -25.1 Q70.75 -26.5 70.75 -27.25 L70.25 -27.9 Q69.75 -28.45 69.75 -29.35 70.1 -30.1 70.0 -31.25 L69.2 -33.0 Q68.2 -34.25 66.75 -34.25 65.7 -34.25 65.2 -33.8 64.65 -33.25 63.15 -33.0 63.0 -32.85 62.65 -32.75 L62.9 -32.6 63.15 -32.05 Q63.15 -31.35 62.15 -29.6 61.2 -27.85 60.75 -27.6 60.05 -27.2 59.35 -25.55 58.65 -24.1 58.65 -23.4 58.65 -22.15 58.85 -21.85 59.25 -21.25 61.5 -19.9 L61.85 -19.0 Q62.55 -19.5 62.5 -20.75 62.5 -22.15 63.0 -22.75 L63.25 -21.5 Q63.5 -20.6 63.85 -20.1 L64.8 -18.75 65.15 -17.7 Q65.15 -16.75 64.6 -16.15 63.8 -15.25 63.4 -14.25 L62.35 -12.7 Q61.3 -11.5 60.5 -11.5 L58.6 -11.6 58.35 -12.55 58.25 -12.5 53.6 -12.6 53.4 -12.9 53.1 -12.95 53.35 -12.95 Q52.45 -14.25 51.5 -14.25 L49.6 -14.25 49.85 -13.75 48.25 -13.75 Q47.95 -13.8 47.9 -13.6 47.8 -13.35 47.5 -13.35 45.8 -13.35 45.0 -15.05 L44.5 -16.8 Q44.5 -17.25 44.8 -17.55 L45.25 -18.25 45.1 -19.05 Q45.0 -19.6 45.35 -19.6 L45.4 -19.7 45.5 -19.9 45.85 -20.0 46.0 -18.65 46.25 -18.5 Q46.4 -18.35 46.75 -18.35 L47.7 -18.45 49.25 -18.6 49.8 -19.35 50.25 -20.45 Q50.25 -22.4 48.35 -22.4 L47.4 -23.4 Q47.25 -23.65 47.25 -24.0 47.25 -25.2 48.25 -26.15 L48.0 -26.75 47.1 -26.85 47.0 -27.95 Q47.0 -28.9 47.25 -29.15 L47.5 -28.4 Q48.8 -29.05 49.1 -29.7 L49.25 -31.25 Q49.1 -31.3 48.95 -31.5 48.7 -31.9 48.75 -32.9 L49.0 -34.8 Q49.0 -36.2 48.65 -36.85 L47.4 -38.3 46.5 -38.85 45.7 -38.35 Q45.1 -37.9 44.65 -38.0 L43.9 -35.0 Q43.5 -33.25 42.5 -33.25 42.15 -33.25 41.95 -33.55 L41.45 -33.9 Q40.95 -33.9 40.7 -33.5 L40.35 -33.0 39.5 -31.65 40.0 -30.45 Q40.0 -28.55 37.25 -27.0 L36.3 -27.1 35.9 -27.25 Q35.3 -27.25 35.05 -26.9 L34.75 -26.5 Q33.95 -26.4 33.65 -26.75 L32.75 -27.5 27.4 -26.65 27.2 -26.3 26.5 -25.75 25.25 -25.75 23.25 -26.0 Q22.65 -26.7 22.65 -27.35 22.25 -27.35 21.7 -27.7 L20.25 -28.25 19.45 -29.6 19.4 -30.95 19.45 -31.8 Q19.65 -32.7 20.25 -33.0 20.0 -33.2 20.0 -33.8 L20.15 -34.6 20.35 -35.25 20.6 -35.25 Q21.0 -35.25 20.9 -34.7 L20.75 -33.75 21.65 -33.2 Q22.15 -32.85 22.5 -32.85 22.85 -32.85 23.0 -33.3 L23.75 -33.35 24.15 -33.4 24.75 -33.6 24.75 -35.25 24.1 -35.35 Q23.5 -35.8 23.5 -36.25 23.5 -36.9 24.35 -37.5 L24.5 -37.1 25.25 -36.85 26.25 -36.9 26.65 -37.25 Q25.95 -37.7 26.3 -38.2 L26.35 -38.25 26.25 -38.45 26.15 -39.5 26.4 -40.45 26.65 -41.45 Q26.65 -41.8 25.25 -43.35 24.75 -43.5 24.65 -43.65 L24.0 -43.6 22.8 -42.5 21.55 -41.5 19.85 -41.6 19.5 -42.0 18.6 -42.1 17.9 -42.85 17.4 -43.75 16.15 -43.65 15.8 -43.35 15.5 -42.75 Q15.25 -43.1 14.6 -43.1 L13.75 -42.9 13.25 -42.6 Q11.4 -43.0 10.4 -43.45 L10.35 -43.35 10.1 -43.35 10.15 -44.35 9.5 -46.0 8.5 -47.25 Q7.8 -47.25 6.85 -46.2 L5.9 -45.0 6.0 -44.75 6.75 -44.65 Q6.8 -44.55 6.85 -44.6 L6.85 -44.2 6.0 -42.45 Q5.1 -40.95 5.1 -40.0 L5.35 -38.5 6.0 -39.25 6.1 -39.65 6.25 -39.75 7.6 -37.7 Q7.6 -37.05 6.95 -36.3 L5.85 -34.85 5.2 -33.35 4.6 -31.85 Q4.6 -31.45 4.75 -31.25 L5.0 -31.0 5.3 -30.75 Q5.4 -30.6 5.75 -30.6 L6.3 -30.7 6.6 -31.1 Q7.6 -29.95 7.6 -28.65 7.6 -27.75 6.75 -26.4 6.45 -26.45 6.3 -26.65 L5.85 -26.85 4.85 -26.0 Q3.85 -25.15 2.25 -25.15 L0.15 -25.4 0.05 -25.6 -0.4 -25.6 -2.35 -27.9 -3.0 -27.0 -4.25 -27.1 -5.2 -28.35 -5.25 -29.45 -6.5 -32.9 Q-6.5 -34.7 -5.25 -36.5 -4.85 -35.9 -4.9 -35.2 L-5.0 -34.25 -4.95 -34.15 -4.5 -34.1 Q-4.1 -34.1 -4.1 -34.3 L-4.0 -34.6 -3.0 -34.25 -2.25 -35.15 Q-1.8 -35.6 -1.85 -36.15 L-2.0 -38.1 -1.5 -39.3 -0.75 -40.1 -0.65 -39.95 -0.6 -40.05 -0.4 -40.2 -0.25 -41.25 -1.15 -41.4 -1.25 -42.05 -1.1 -42.7 -1.25 -42.85 Q0.6 -43.4 1.55 -45.5 2.25 -47.0 2.25 -48.6 L1.75 -49.85 Q1.25 -50.8 1.25 -51.2 L1.5 -52.25 1.75 -53.3 0.8 -54.5 -0.5 -53.75 -1.1 -53.9 -1.9 -54.1 Q-2.3 -54.7 -2.15 -55.55 -1.95 -56.5 -2.1 -56.75 -3.35 -57.4 -3.65 -58.05 L-3.75 -59.2 -3.35 -61.2 Q-2.9 -62.85 -2.65 -63.0 -2.5 -62.6 -2.75 -61.75 -2.75 -59.25 -1.5 -59.25 L-0.4 -59.25 0.35 -57.95 Q0.9 -57.1 1.75 -57.1 2.65 -57.1 3.4 -58.05 L3.6 -58.25 4.1 -59.05 4.75 -60.0 4.85 -61.65 5.0 -61.75 Q5.4 -61.1 5.4 -60.35 L5.5 -60.15 Q5.55 -60.0 5.9 -60.0 6.4 -60.0 7.25 -60.65 L8.25 -61.75 8.5 -62.7 Q8.7 -63.3 9.6 -63.65 L9.6 -65.85 8.85 -66.0 Q8.5 -66.5 8.5 -67.3 L8.8 -68.0 8.9 -68.2 8.9 -68.35 Q8.9 -69.0 9.45 -69.45 L9.6 -70.25 Q9.6 -71.15 8.75 -71.85 L6.9 -71.75 6.25 -70.85 5.6 -70.9 4.55 -71.6 Q4.0 -72.0 4.0 -72.45 4.0 -72.7 4.55 -73.35 L5.5 -74.25 5.65 -74.1 5.65 -73.6 Q5.65 -72.95 6.15 -72.8 L8.15 -72.75 Q9.0 -72.75 9.75 -73.25 L11.25 -73.0 Q11.45 -72.65 11.0 -71.6 L11.9 -71.0 13.25 -71.4 13.4 -70.65 13.5 -70.6 Q13.7 -70.6 13.85 -70.9 L15.35 -71.25 15.65 -71.45 Q15.85 -71.55 15.85 -71.95 L15.6 -72.4 Q15.35 -72.55 15.35 -72.85 15.35 -73.2 15.7 -73.95 L16.1 -75.4 16.25 -75.5 16.8 -74.6 16.75 -74.9 17.1 -75.0 17.4 -74.4 17.1 -74.15 16.95 -74.35 17.1 -73.85 Q17.55 -72.5 18.35 -72.25 L19.25 -72.4 20.0 -72.35 20.15 -71.25 Q20.95 -71.7 21.15 -71.55 L21.4 -71.35 Q22.1 -71.35 22.2 -72.05 L22.25 -73.1 Q22.7 -73.6 22.75 -74.0 L22.65 -74.45 22.5 -75.0 23.0 -75.15 Q24.0 -72.75 24.85 -72.75 26.25 -72.75 26.25 -73.7 L26.0 -74.3 25.75 -74.95 26.25 -75.9 26.75 -76.85 26.5 -77.35 26.35 -77.45 26.4 -77.1 26.35 -76.5 26.1 -76.5 Q25.75 -77.25 25.75 -77.6 L26.0 -77.65 26.3 -77.55 Q25.95 -77.85 25.75 -78.35 L26.25 -78.95 25.6 -78.85 25.45 -78.9 25.4 -79.35 Q25.4 -79.75 25.75 -79.75 L26.35 -79.75 26.5 -79.6 26.35 -79.0 26.3 -78.95 Q26.85 -78.65 27.25 -77.6 L27.65 -76.1 Q27.9 -75.55 29.1 -74.6 L29.4 -73.2 29.15 -72.3 28.9 -71.4 29.4 -70.7 29.9 -69.6 Q29.9 -68.85 29.4 -67.85 28.8 -66.3 28.0 -66.0 L26.85 -66.1 26.15 -67.0 Q23.25 -66.9 22.65 -66.4 L22.0 -65.75 20.6 -65.85 19.75 -66.75 Q17.85 -66.85 17.6 -67.25 16.65 -67.0 16.1 -66.4 L15.8 -65.85 16.0 -65.85 15.75 -65.6 15.85 -65.25 15.35 -65.15 15.35 -65.2 14.75 -64.5 Q14.75 -63.5 14.35 -63.1 L14.0 -63.65 13.15 -63.65 Q12.75 -63.5 12.2 -62.6 11.65 -61.8 11.65 -61.4 11.65 -60.4 12.35 -59.9 L13.45 -59.4 Q14.4 -59.0 14.6 -59.0 L15.5 -57.95 Q16.45 -57.1 17.5 -57.1 L18.5 -57.15 Q19.15 -57.75 19.45 -58.95 L19.85 -60.75 Q20.5 -60.35 20.5 -59.7 L20.2 -58.4 19.85 -57.15 Q19.85 -56.75 20.0 -56.5 L20.35 -56.0 Q21.0 -55.85 21.1 -55.5 L21.35 -55.7 Q21.4 -55.9 21.75 -55.9 L22.75 -55.65 22.75 -54.8 22.75 -53.75 22.9 -53.75 22.85 -53.8 23.0 -53.75 23.75 -53.85 24.2 -53.75 24.35 -53.5 Q25.6 -53.55 26.05 -54.9 L26.5 -56.75 26.65 -55.6 27.15 -54.6 27.6 -53.75 27.15 -53.05 26.65 -52.55 Q26.65 -51.9 27.35 -51.3 L29.5 -51.25 30.6 -51.25 30.75 -50.65 Q30.75 -51.0 31.0 -51.15 L31.3 -50.75 31.45 -50.6 31.75 -50.6 31.75 -50.4 Q33.45 -50.4 34.25 -51.9 34.75 -52.85 34.75 -53.7 L34.5 -54.3 Q34.25 -54.65 34.25 -54.95 L34.5 -55.55 34.75 -56.1 Q34.75 -56.65 34.0 -57.4 33.25 -58.1 33.25 -58.6 L33.3 -59.1 33.5 -59.25 33.9 -59.05 34.0 -58.85 35.35 -58.75 35.5 -57.6 36.0 -57.35 37.0 -57.4 39.0 -59.35 Q40.0 -60.5 39.9 -60.75 39.6 -60.9 39.6 -61.3 39.6 -62.2 40.45 -62.4 41.45 -62.6 41.6 -63.6 42.45 -63.2 42.25 -62.75 L41.85 -61.7 Q41.85 -61.4 42.15 -61.2 L42.4 -60.7 Q42.4 -59.55 41.4 -58.9 40.4 -58.25 40.4 -57.45 L40.65 -56.8 40.9 -56.15 Q40.9 -55.7 39.9 -55.0 L40.9 -53.65 41.85 -53.3 42.75 -53.1 43.75 -53.15 Q48.1 -56.8 48.1 -57.85 L47.65 -59.4 46.85 -61.25 46.25 -60.85 45.6 -60.9 Q44.5 -62.0 44.5 -62.45 44.5 -62.8 44.65 -62.85 L45.0 -62.85 Q44.8 -63.3 44.45 -63.35 L43.6 -63.5 45.0 -64.9 45.75 -64.85 46.15 -63.75 46.5 -64.0 48.25 -63.9 Q48.65 -63.5 48.65 -62.75 L48.9 -63.3 Q48.9 -63.5 49.5 -63.5 50.2 -63.5 50.2 -63.1 50.25 -62.75 51.15 -62.75 53.15 -62.75 54.0 -64.25 L54.25 -64.65 Q54.3 -65.2 54.85 -65.55 L56.3 -66.05 56.45 -66.3 56.5 -66.85 56.35 -66.85 55.6 -67.1 Q55.5 -66.85 55.5 -67.45 M47.25 -74.25 L47.6 -74.25 47.75 -73.5 Q47.6 -73.25 47.25 -73.25 L47.15 -73.7 47.25 -74.25 M46.55 -72.45 L46.5 -72.9 47.0 -72.85 47.1 -72.6 47.35 -72.25 46.75 -71.85 46.25 -72.15 46.55 -72.45 M46.1 -71.85 L45.75 -71.65 45.35 -71.75 45.6 -72.0 46.1 -71.85 M43.35 -65.35 L43.25 -65.5 Q43.65 -66.1 44.25 -66.1 44.25 -65.3 43.35 -65.35 M44.0 -65.25 L44.75 -65.15 44.85 -65.0 44.5 -64.6 Q44.0 -64.65 44.0 -65.0 L44.0 -65.25 M52.75 -56.5 L52.65 -57.25 53.25 -57.1 53.1 -56.5 52.75 -56.5 M59.35 -51.85 L59.25 -51.75 Q59.0 -51.9 59.0 -52.35 L59.4 -52.25 59.35 -51.85 M58.5 -49.6 L59.1 -49.0 58.35 -49.25 58.35 -49.6 58.5 -49.6 M59.3 -50.45 L59.5 -50.5 59.9 -50.0 59.75 -49.75 Q59.25 -49.4 59.25 -50.0 L59.3 -50.45 M60.5 -50.15 L60.8 -50.05 61.25 -49.75 60.9 -48.65 60.6 -48.6 Q60.25 -49.1 60.25 -49.5 L60.25 -50.15 60.5 -50.15 M73.65 -65.4 L73.35 -65.35 73.25 -65.9 73.75 -65.75 73.65 -65.4 M74.25 -65.6 L74.85 -65.5 75.0 -65.15 74.85 -64.75 74.25 -64.75 74.1 -65.25 74.25 -65.6 M78.5 -63.5 Q78.35 -63.1 78.35 -63.75 L78.4 -64.25 78.85 -64.25 79.15 -63.75 Q79.0 -63.5 78.5 -63.5 M78.75 -65.0 Q78.15 -65.0 78.15 -65.4 L79.0 -65.35 Q79.0 -65.0 78.75 -65.0 M65.1 -53.85 L65.0 -54.4 Q65.35 -54.55 65.5 -54.25 L65.4 -53.9 65.1 -53.85 M64.9 -51.4 L65.0 -51.5 65.6 -51.5 65.75 -51.35 65.5 -50.6 65.0 -50.5 64.9 -50.6 64.9 -51.0 64.9 -51.4 M80.95 -56.3 L81.25 -56.4 81.75 -56.35 81.8 -56.4 81.85 -56.0 81.75 -55.4 81.65 -55.25 81.0 -55.25 80.85 -55.35 80.85 -55.75 80.95 -56.3 M72.0 -56.6 L72.0 -56.25 71.9 -56.25 71.75 -56.1 71.55 -56.15 71.5 -56.5 71.5 -57.0 71.95 -57.0 72.0 -56.6 M27.0 -97.5 L26.5 -98.0 26.5 -98.25 27.25 -98.0 27.0 -97.5 M26.25 -96.9 L26.85 -97.0 27.0 -96.75 27.25 -96.7 27.25 -96.75 27.3 -96.7 27.75 -96.5 27.65 -96.45 27.9 -96.2 28.25 -95.7 Q28.25 -94.95 26.5 -92.1 25.75 -92.7 25.75 -93.0 L24.75 -92.85 25.4 -93.65 26.5 -94.65 Q27.2 -95.15 27.2 -95.75 L27.25 -96.4 27.0 -96.5 27.0 -96.75 26.35 -96.15 26.25 -96.9 M24.35 -93.5 L24.5 -93.25 23.85 -92.85 23.75 -93.4 24.35 -93.5 M22.85 -91.65 L22.75 -91.95 Q23.1 -92.55 23.4 -92.25 L23.25 -91.65 22.85 -91.65 M23.9 -90.3 L22.5 -88.9 21.6 -88.9 21.5 -89.5 20.6 -89.65 Q20.3 -89.95 20.3 -90.3 L19.5 -90.9 Q18.85 -91.1 18.75 -91.25 L19.25 -91.85 18.85 -91.8 18.75 -92.2 Q18.75 -92.6 19.05 -92.65 L19.5 -92.65 19.55 -92.5 20.1 -92.5 20.25 -92.1 20.25 -91.95 Q20.8 -91.8 21.5 -91.1 L22.75 -91.15 23.8 -91.95 24.25 -92.5 24.55 -92.5 24.65 -92.05 Q24.65 -90.9 23.9 -90.3 M22.35 -92.25 L22.75 -92.1 22.5 -91.6 22.1 -91.6 21.85 -92.0 22.35 -92.25 M22.35 -74.85 L22.6 -74.5 22.25 -74.15 Q21.75 -74.25 21.6 -74.4 L21.85 -74.7 22.35 -74.85 M22.65 -76.4 L23.0 -76.4 23.1 -75.85 Q23.0 -75.65 22.6 -75.6 22.5 -75.35 22.5 -75.95 22.5 -76.35 22.65 -76.4 M18.65 -93.0 L18.5 -92.6 Q18.1 -92.65 18.0 -92.85 L18.65 -93.0 M18.6 -93.25 L18.35 -93.15 18.25 -93.9 18.6 -94.0 18.75 -93.7 18.6 -93.25 M19.45 -92.0 L19.4 -92.0 19.25 -91.85 19.45 -91.95 19.45 -92.0 M18.5 -86.9 L18.65 -86.5 18.5 -86.35 18.1 -86.4 18.0 -86.7 Q18.15 -87.05 18.5 -86.9 M19.4 -86.7 L19.15 -86.0 18.85 -85.3 18.5 -84.35 Q18.05 -83.6 17.5 -83.6 17.15 -83.6 16.85 -83.9 L16.5 -84.1 Q15.6 -84.15 15.45 -84.4 L15.25 -85.1 15.35 -85.4 15.45 -85.3 15.9 -85.1 16.65 -85.3 17.35 -85.5 Q18.25 -85.5 19.25 -87.35 L19.4 -86.7 M18.75 -88.5 L19.25 -88.0 18.75 -87.35 18.55 -87.5 18.5 -87.95 Q18.5 -88.35 18.65 -88.45 L18.75 -88.5 M8.85 -80.85 Q8.75 -80.6 8.75 -81.2 8.75 -81.6 9.15 -81.65 L9.75 -81.65 9.75 -81.9 10.25 -81.9 10.4 -81.5 9.85 -81.15 9.8 -81.35 9.25 -80.75 8.85 -80.85 M10.05 -80.2 L9.6 -80.25 9.5 -80.75 10.95 -80.6 11.8 -80.8 11.75 -80.95 Q11.9 -81.3 12.25 -81.15 L12.4 -80.75 12.25 -80.6 12.0 -80.6 11.85 -80.1 10.1 -80.1 10.05 -80.2 M17.0 -86.1 L16.75 -85.6 Q16.5 -85.75 16.5 -86.25 L17.0 -86.1 M16.25 -85.85 L16.0 -85.5 Q15.65 -85.65 15.65 -86.0 L16.25 -85.85 M16.5 -76.0 L16.4 -76.0 16.25 -75.85 Q15.75 -76.45 15.75 -76.9 L16.0 -77.0 16.35 -76.85 16.5 -76.35 16.5 -76.0 M15.5 -74.5 Q15.15 -74.65 15.15 -75.0 L15.85 -74.85 15.5 -74.5 M20.15 -62.1 L21.0 -61.85 Q21.0 -61.25 20.25 -61.25 L20.1 -61.6 20.15 -62.1 M25.75 -73.85 Q25.35 -73.9 25.25 -74.1 L25.9 -74.25 25.75 -73.85 M26.25 -57.0 L25.9 -57.1 25.85 -57.45 Q25.85 -57.85 26.35 -57.85 L26.6 -57.25 26.25 -57.0 M25.25 -54.5 Q25.1 -54.25 24.5 -54.25 L24.4 -54.65 Q24.95 -54.95 25.25 -54.5 M29.15 -53.1 L29.6 -53.1 30.1 -52.5 29.75 -52.15 Q29.1 -52.3 29.1 -52.6 L29.15 -53.1 M33.0 -60.25 L32.9 -61.0 33.85 -61.0 34.0 -60.75 33.65 -60.25 33.0 -60.25 M33.5 -59.35 L32.9 -59.35 Q32.75 -59.2 32.75 -59.85 L32.75 -60.1 33.0 -60.15 33.6 -59.65 33.5 -59.35 M32.25 -60.75 L31.9 -60.9 32.2 -61.25 32.75 -61.25 32.25 -60.75 M20.65 -37.75 Q20.65 -37.1 20.5 -37.5 20.0 -37.6 20.0 -38.15 L20.35 -38.25 20.55 -38.15 20.65 -37.75 M20.6 -36.25 L20.25 -36.25 20.15 -36.6 20.25 -37.25 21.0 -37.0 20.6 -36.25 M37.5 -18.75 Q38.3 -19.55 38.25 -19.0 L37.85 -18.75 37.5 -18.75 M33.75 -17.5 L34.35 -17.5 34.65 -17.0 34.5 -16.75 Q33.7 -16.95 33.5 -17.25 L33.75 -17.5 M33.75 -18.0 L33.5 -17.5 Q32.9 -17.65 32.9 -18.25 L33.6 -18.25 33.75 -18.0 M33.1 -16.25 L32.45 -17.0 32.25 -17.0 32.25 -17.4 32.5 -17.4 33.5 -16.8 Q34.0 -16.45 34.25 -16.5 35.15 -16.6 35.75 -17.0 L36.05 -17.0 36.15 -16.65 Q36.15 -16.1 34.75 -15.0 L33.35 -15.1 Q33.0 -15.1 33.05 -15.55 L33.1 -16.25 M32.0 -17.75 Q31.4 -17.75 31.4 -18.15 L32.25 -18.1 Q32.25 -17.75 32.0 -17.75 M38.4 -17.35 Q38.4 -17.75 38.75 -17.75 L39.25 -17.75 39.6 -17.5 39.0 -17.0 38.5 -16.95 38.4 -17.35 M36.75 -17.75 L37.35 -17.75 37.5 -17.4 37.35 -17.0 36.75 -17.0 36.65 -17.45 36.75 -17.75 M36.25 -13.25 L36.15 -13.85 36.55 -14.8 Q37.05 -15.65 37.6 -15.75 L37.65 -15.15 Q37.65 -14.35 39.0 -13.75 40.1 -13.25 41.0 -13.25 L42.55 -13.5 Q43.85 -13.75 44.5 -14.1 L44.7 -13.85 44.75 -13.25 44.45 -12.2 Q44.05 -11.5 43.5 -11.5 43.25 -11.5 42.75 -11.9 L42.25 -12.4 Q39.1 -12.7 38.5 -12.35 L37.35 -12.7 36.25 -13.25 M65.15 -49.0 Q65.15 -48.35 65.0 -48.75 64.5 -48.85 64.5 -49.4 L64.85 -49.5 65.05 -49.4 65.15 -49.0 M64.5 -25.6 L65.1 -26.1 66.25 -26.0 66.25 -27.0 66.85 -27.0 67.0 -26.2 66.85 -25.55 65.75 -24.85 64.95 -23.85 Q64.5 -23.1 64.25 -23.1 L63.8 -23.15 63.75 -23.25 Q63.1 -23.4 63.0 -23.6 63.65 -24.3 64.1 -26.4 L64.4 -26.05 64.5 -25.6 M46.6 -32.25 L47.35 -32.0 Q47.25 -31.75 46.75 -31.75 46.6 -31.9 46.6 -32.25 M42.6 -19.4 L42.65 -19.4 43.0 -19.4 43.4 -18.2 43.35 -17.5 42.35 -17.35 40.0 -17.6 Q41.1 -18.25 41.9 -18.25 L42.5 -18.35 42.6 -18.5 42.5 -19.0 42.6 -19.4 M43.25 -19.5 Q42.65 -19.65 42.65 -20.15 L43.5 -20.1 43.25 -19.5 M45.0 -21.25 Q45.0 -21.6 45.5 -21.6 L45.75 -21.25 45.5 -21.0 Q45.1 -21.1 45.0 -21.25 M84.75 -54.25 L84.65 -53.9 84.35 -53.85 84.25 -54.4 84.75 -54.25 M84.75 -52.25 L84.75 -52.75 85.5 -52.5 85.0 -51.85 84.8 -51.9 84.75 -52.25 M-5.5 -38.0 L-4.9 -38.0 -4.75 -37.85 Q-4.75 -37.5 -4.9 -37.25 L-5.4 -37.25 -5.5 -37.35 -5.6 -37.75 -5.55 -38.1 -5.5 -38.0 M-5.4 -38.85 L-5.5 -39.4 Q-5.15 -39.55 -5.0 -39.25 L-5.1 -38.9 -5.4 -38.85 M-4.35 -38.75 L-3.65 -38.6 -4.0 -38.25 Q-4.35 -38.4 -4.35 -38.75 M-4.5 -36.25 L-3.75 -36.0 -4.15 -35.9 -4.5 -36.0 -4.5 -36.25" fill="#afbfc2" fill-rule="evenodd" stroke="none"/>
    </g>
  </defs>
</svg>
