<?xml version="1.0" encoding="UTF-8" standalone="no"?>
<svg xmlns:ffdec="https://www.free-decompiler.com/flash" xmlns:xlink="http://www.w3.org/1999/xlink" ffdec:objectType="frame" height="146.1px" width="102.8px" xmlns="http://www.w3.org/2000/svg">
  <g transform="matrix(1.0, 0.0, 0.0, 1.0, 14.25, 122.8)">
    <use ffdec:characterId="80" height="84.85" transform="matrix(1.0, 0.0, 0.0, 1.0, -8.0, -93.6)" width="94.9" xlink:href="#shape0"/>
  </g>
  <defs>
    <g id="shape0" transform="matrix(1.0, 0.0, 0.0, 1.0, 8.0, 93.6)">
      <path d="M58.0 -65.75 L58.6 -65.75 58.5 -64.85 58.0 -64.75 57.9 -65.2 58.0 -65.75 M59.0 -64.5 L59.85 -64.5 60.25 -63.15 59.95 -61.4 Q59.6 -60.2 59.0 -60.0 58.1 -60.0 58.1 -60.35 L57.25 -60.15 55.25 -59.9 54.35 -59.75 Q54.0 -59.75 53.9 -59.9 L53.75 -60.25 52.1 -60.25 49.8 -58.9 49.0 -59.1 48.25 -59.5 48.0 -58.5 46.5 -58.6 Q45.9 -58.6 45.9 -59.15 L46.0 -59.9 45.55 -60.45 45.25 -60.95 Q45.25 -61.4 46.1 -62.5 46.8 -62.2 46.95 -61.6 L47.0 -60.85 51.75 -61.75 52.6 -61.75 52.75 -61.35 53.6 -61.05 Q53.95 -60.85 54.25 -60.85 55.7 -60.85 56.0 -61.6 56.4 -62.6 56.75 -62.75 58.45 -62.6 58.85 -63.25 L59.0 -64.5 M45.65 -63.5 L46.35 -63.35 46.1 -62.75 45.75 -62.75 45.65 -63.5 M47.8 -56.4 L48.0 -56.5 48.65 -55.5 49.05 -55.35 49.35 -54.9 49.35 -54.75 Q49.5 -54.6 48.85 -54.6 48.35 -54.6 48.0 -55.15 L47.75 -55.95 47.8 -56.4 M49.0 -56.75 L48.9 -56.4 48.6 -56.35 48.5 -56.9 Q48.85 -57.05 49.0 -56.75 M43.55 -60.05 L43.65 -59.6 43.4 -58.4 Q43.05 -57.55 42.65 -57.4 L43.1 -56.9 43.25 -56.25 Q43.25 -54.85 42.35 -54.8 L41.1 -55.0 40.5 -54.65 40.2 -54.35 Q39.55 -53.55 38.25 -52.5 L38.2 -52.15 38.85 -52.25 Q39.0 -51.85 38.75 -50.7 38.75 -50.1 39.25 -49.4 L41.4 -49.2 41.35 -49.25 41.45 -49.2 41.85 -49.15 43.15 -48.95 Q44.95 -49.25 46.15 -50.35 46.95 -51.05 47.25 -51.9 47.6 -52.8 49.15 -53.1 50.25 -53.3 49.75 -54.4 L50.0 -54.4 50.65 -52.65 50.4 -51.9 50.15 -51.15 50.25 -49.75 50.5 -49.6 Q51.75 -49.75 52.3 -50.25 L53.0 -51.0 Q55.35 -50.95 55.85 -51.65 L56.25 -52.75 56.75 -51.25 57.2 -50.5 57.5 -49.75 Q57.5 -49.05 56.7 -48.2 55.9 -47.3 55.9 -46.8 55.9 -46.25 54.75 -45.35 L54.1 -45.4 53.5 -46.25 52.8 -46.05 52.25 -45.6 50.85 -45.65 Q50.5 -46.0 50.5 -46.5 L49.7 -45.75 Q49.0 -45.0 49.0 -44.6 49.0 -43.6 50.5 -42.4 L52.75 -42.6 53.35 -42.5 Q53.75 -42.15 53.75 -41.4 L55.0 -41.3 55.5 -41.1 Q57.2 -41.15 58.0 -41.7 L59.25 -42.65 Q60.5 -43.2 59.85 -44.25 L61.0 -44.75 61.5 -42.85 62.35 -42.75 Q62.75 -42.2 62.75 -41.1 L62.75 -41.0 63.5 -40.85 65.25 -41.65 Q66.5 -42.3 66.5 -42.65 L66.25 -43.1 66.0 -43.25 66.9 -43.95 Q67.65 -44.5 67.75 -45.0 L68.35 -45.0 68.25 -44.25 Q68.25 -43.45 70.0 -43.15 70.85 -43.15 71.25 -44.05 L71.5 -45.15 Q71.5 -46.0 72.5 -46.65 73.5 -47.3 73.5 -48.35 L73.25 -48.95 72.75 -49.75 Q72.9 -49.75 73.25 -50.0 L73.35 -50.6 73.5 -50.6 73.5 -50.85 73.5 -51.25 73.85 -51.25 73.95 -51.3 74.0 -50.95 73.9 -50.65 Q73.75 -50.5 73.6 -50.5 L73.6 -50.45 73.95 -49.15 74.5 -47.75 74.85 -47.35 Q75.25 -46.95 75.5 -46.9 76.2 -46.7 77.0 -46.1 77.55 -46.1 77.5 -46.4 77.45 -46.75 77.85 -46.75 L79.1 -46.5 79.65 -44.75 78.55 -43.7 Q77.65 -42.75 77.65 -42.25 77.65 -42.0 78.4 -40.5 78.4 -39.9 77.9 -39.3 L76.75 -37.85 75.75 -37.5 75.1 -37.6 74.6 -38.75 74.0 -40.25 73.35 -40.25 72.0 -37.95 71.15 -36.1 Q71.15 -34.4 71.65 -33.85 L72.75 -32.65 Q73.3 -32.15 74.35 -32.0 L74.5 -30.85 74.5 -30.75 74.95 -30.65 Q75.85 -30.65 75.9 -31.4 L75.75 -32.5 Q75.75 -33.25 76.75 -34.25 76.9 -33.85 76.65 -32.95 76.65 -32.25 77.0 -31.4 L77.45 -31.5 77.75 -31.75 Q78.5 -30.8 78.75 -29.35 L79.05 -28.2 79.25 -27.2 Q79.25 -26.75 78.85 -26.35 77.05 -25.65 76.65 -24.55 76.4 -23.95 76.25 -22.5 L75.15 -20.75 Q74.05 -19.6 72.75 -19.0 L71.1 -19.1 70.25 -19.25 Q69.25 -20.75 69.15 -21.15 L69.75 -21.6 70.25 -21.3 Q70.4 -21.1 70.75 -21.1 71.7 -21.1 72.2 -22.3 L72.75 -23.75 73.5 -24.25 73.75 -24.85 74.0 -26.1 73.25 -27.05 Q72.55 -27.8 72.5 -29.9 72.5 -30.4 71.7 -31.7 70.8 -33.05 70.75 -33.5 L69.75 -33.25 Q69.3 -33.25 69.15 -33.4 L68.1 -34.1 67.75 -35.25 65.5 -35.15 63.95 -34.15 62.85 -33.1 63.2 -31.5 63.5 -29.9 Q63.5 -28.5 61.75 -26.85 60.0 -25.2 60.0 -22.25 60.0 -20.85 60.25 -20.5 L60.85 -19.7 61.25 -18.9 61.3 -17.45 Q61.55 -16.35 62.5 -15.75 L64.1 -15.5 Q64.75 -16.45 64.75 -17.65 L64.7 -18.75 65.5 -19.5 65.8 -18.35 66.0 -17.3 65.9 -16.7 66.0 -15.65 66.6 -15.5 Q66.7 -15.4 66.75 -15.45 L66.75 -15.05 Q66.75 -14.4 66.2 -13.85 L64.25 -12.6 64.0 -11.4 Q64.0 -10.8 63.35 -10.3 62.65 -9.75 61.5 -9.75 L60.35 -9.85 Q59.75 -10.3 59.75 -10.6 L57.15 -10.4 56.5 -10.25 55.25 -10.25 54.4 -11.4 Q52.2 -11.15 51.35 -10.25 50.85 -9.8 50.75 -8.85 L49.85 -8.75 48.0 -8.75 Q47.1 -9.2 46.9 -9.95 L46.65 -11.0 Q46.0 -12.3 46.0 -13.1 L46.25 -15.75 46.75 -16.15 Q47.05 -15.55 47.05 -14.1 47.2 -12.8 48.5 -12.15 50.2 -12.5 50.45 -13.45 L51.0 -15.0 52.25 -16.3 52.5 -17.6 52.0 -19.25 51.35 -19.35 Q50.95 -20.4 51.15 -21.0 L50.95 -21.3 50.45 -21.4 50.05 -21.1 Q49.95 -20.85 49.6 -20.85 48.7 -20.85 48.25 -22.2 L47.9 -23.6 Q47.9 -24.5 48.05 -24.7 L49.35 -25.75 49.75 -24.15 50.75 -24.25 Q51.7 -25.8 52.9 -26.65 53.5 -27.1 53.5 -28.3 52.5 -30.7 52.4 -31.25 L51.5 -31.25 Q50.9 -31.55 50.9 -32.35 L50.95 -32.7 50.85 -33.25 50.85 -34.15 50.25 -34.65 Q49.75 -34.75 49.5 -35.0 L48.65 -35.0 46.65 -33.4 46.85 -32.4 Q46.75 -31.85 45.1 -31.75 44.45 -31.15 43.95 -30.2 43.4 -29.25 43.4 -28.6 L43.7 -27.6 44.0 -26.65 Q44.0 -26.05 43.0 -25.15 41.8 -24.1 40.4 -24.15 L39.0 -21.0 38.0 -20.75 36.1 -20.85 35.25 -22.15 Q34.7 -23.0 33.75 -23.25 29.5 -23.05 28.1 -22.25 L27.25 -21.0 26.6 -21.1 25.85 -20.35 23.0 -20.25 Q22.8 -21.3 23.15 -22.5 L22.5 -22.5 Q20.95 -22.5 20.25 -23.5 L20.05 -24.15 19.35 -24.65 19.25 -25.75 19.5 -26.8 19.6 -27.0 19.5 -27.65 19.4 -28.2 19.35 -28.25 Q19.4 -28.9 19.85 -29.3 L21.1 -29.6 Q21.2 -30.75 21.6 -32.0 L21.85 -32.0 21.9 -31.05 Q22.25 -30.85 22.25 -30.25 L22.0 -30.0 21.75 -30.0 Q21.75 -29.75 21.9 -29.5 L21.5 -29.25 21.5 -29.2 21.15 -28.55 21.1 -28.5 21.05 -28.4 21.0 -28.1 21.0 -28.3 20.75 -27.8 20.9 -27.7 20.95 -27.8 20.95 -27.7 21.1 -27.6 20.9 -27.3 20.95 -27.1 21.85 -25.75 Q22.05 -25.65 21.75 -25.6 22.2 -25.25 23.0 -25.25 23.55 -25.25 24.0 -25.6 L24.6 -25.5 Q25.15 -25.55 25.4 -26.3 L25.6 -27.25 26.75 -27.4 27.5 -28.35 27.25 -28.9 26.5 -29.1 Q25.75 -30.2 25.75 -30.45 25.75 -31.2 26.25 -33.0 L26.75 -32.2 Q26.95 -31.7 27.75 -31.6 28.35 -31.55 28.25 -32.15 L29.65 -31.25 30.5 -31.35 30.85 -31.55 31.0 -32.1 31.0 -32.25 30.7 -32.45 30.5 -32.7 Q30.35 -33.0 30.35 -33.4 L31.15 -35.25 31.1 -35.25 31.3 -37.2 Q31.35 -38.35 30.5 -39.15 L28.75 -39.15 28.75 -38.4 28.5 -38.25 26.75 -38.25 Q26.0 -38.65 26.0 -38.95 L26.0 -39.7 25.6 -39.6 25.5 -41.1 25.4 -41.25 Q23.25 -41.35 23.05 -40.75 23.2 -39.95 22.75 -39.65 L20.7 -39.25 20.0 -38.85 19.1 -38.9 19.0 -39.4 19.0 -39.5 17.75 -39.5 17.1 -39.65 Q16.8 -40.3 16.85 -40.75 L17.0 -41.65 14.9 -41.65 14.0 -41.0 11.35 -41.15 Q10.55 -42.0 9.85 -42.25 9.5 -43.3 9.5 -44.5 L9.55 -45.4 Q9.3 -46.1 7.85 -46.1 7.65 -46.85 8.0 -47.4 L7.85 -47.6 7.5 -47.15 6.75 -46.0 Q7.0 -45.25 6.75 -44.35 L7.35 -44.25 7.5 -43.25 Q7.5 -42.25 7.2 -41.9 6.55 -41.15 4.1 -40.25 L3.25 -39.2 3.15 -38.25 Q3.15 -37.2 3.75 -36.35 L4.85 -36.25 Q5.25 -36.25 5.15 -35.7 L5.0 -34.9 Q5.05 -34.5 5.35 -34.2 5.6 -34.0 5.75 -34.0 7.05 -34.0 7.0 -34.8 L6.75 -35.75 Q7.65 -36.6 7.5 -37.0 L7.5 -38.35 7.75 -38.4 8.65 -36.7 9.15 -35.0 8.7 -33.7 8.25 -32.6 Q8.25 -32.3 8.9 -31.55 8.9 -30.05 8.25 -29.6 L6.9 -30.65 6.3 -31.35 5.55 -30.3 Q5.3 -30.0 4.65 -30.0 5.0 -30.0 4.95 -29.4 L4.9 -28.5 6.0 -28.4 6.15 -27.85 6.35 -27.65 7.0 -27.5 7.65 -27.7 8.0 -28.0 8.2 -28.1 8.35 -27.75 Q8.35 -27.1 8.0 -26.6 7.95 -26.4 8.25 -25.65 L8.0 -24.65 Q7.6 -24.0 6.75 -23.75 L6.1 -23.85 6.0 -24.25 Q6.1 -24.5 5.5 -24.5 4.7 -24.5 4.6 -24.0 L4.35 -23.5 4.2 -23.15 3.85 -23.0 2.0 -22.85 Q1.05 -23.1 0.75 -23.5 0.6 -23.7 0.6 -23.95 L0.65 -24.4 0.5 -24.75 -0.25 -24.75 Q-0.65 -25.05 -0.65 -25.9 -0.7 -26.95 -0.9 -27.35 L-2.15 -27.25 -2.75 -26.35 -3.65 -26.4 -3.75 -27.0 -4.05 -26.8 Q-4.15 -26.6 -4.5 -26.6 -5.2 -26.6 -6.0 -27.55 L-6.45 -28.15 -6.5 -28.15 Q-7.35 -28.15 -7.75 -29.3 L-8.0 -30.55 -7.75 -31.35 -7.75 -31.5 -7.65 -31.5 -6.75 -32.1 -6.65 -31.95 -6.6 -31.5 -7.1 -30.95 -6.85 -30.55 -6.5 -30.6 -5.9 -30.05 -5.85 -30.25 -5.75 -30.25 -5.25 -30.5 -5.2 -30.9 -5.1 -30.5 Q-4.85 -29.9 -4.0 -29.5 L-3.25 -29.4 Q-3.1 -29.3 -3.25 -29.25 L-2.75 -29.35 -1.45 -30.8 Q-1.0 -31.45 -0.65 -32.5 L-0.25 -32.5 -0.25 -33.6 -0.2 -34.45 -0.4 -35.15 Q-1.35 -36.25 -1.75 -36.05 L-2.1 -35.65 Q-2.65 -35.65 -3.0 -37.0 L-3.25 -38.4 Q-3.25 -38.8 -2.45 -39.45 -1.55 -40.2 -1.4 -40.65 L-1.0 -40.65 Q-0.75 -40.4 -1.25 -39.75 L-0.5 -39.65 Q-0.4 -39.5 -0.6 -38.9 L-0.25 -38.5 1.1 -39.25 2.0 -40.15 Q3.0 -41.8 3.0 -42.4 L2.75 -42.8 Q2.5 -42.95 2.5 -43.25 2.5 -43.65 3.5 -44.85 4.5 -46.0 4.75 -46.0 5.15 -46.0 5.2 -45.8 L5.15 -45.5 Q6.15 -45.85 6.9 -47.2 L7.35 -47.9 6.9 -48.0 6.3 -47.7 5.75 -47.15 4.85 -47.15 4.75 -47.5 Q1.75 -47.8 1.85 -49.25 2.05 -51.0 1.5 -51.25 L0.75 -51.2 0.25 -51.0 Q-2.0 -51.0 -2.0 -53.0 -2.0 -54.25 -1.25 -54.4 L-1.75 -55.15 -1.8 -55.4 -1.95 -55.4 -2.45 -55.6 -3.15 -55.9 -3.45 -56.3 -3.5 -56.95 -3.05 -58.15 -2.5 -59.1 Q-2.35 -58.15 -2.35 -56.25 L-1.85 -56.05 -2.25 -56.75 -2.15 -56.9 -0.25 -55.5 -0.05 -54.5 Q-0.1 -53.8 0.6 -53.6 L1.75 -53.6 Q2.35 -53.85 2.8 -54.6 L5.25 -54.85 Q5.9 -55.5 5.95 -56.55 6.05 -57.65 6.5 -58.25 L7.4 -56.8 7.25 -56.25 6.9 -55.85 6.9 -54.75 7.0 -54.6 7.5 -54.5 Q8.05 -54.5 9.0 -55.45 L10.25 -57.0 Q10.25 -57.35 9.6 -57.4 L9.65 -57.6 9.75 -58.15 9.15 -58.95 8.5 -59.9 Q8.5 -60.3 9.2 -61.0 L10.1 -61.9 12.0 -63.9 11.85 -64.0 11.25 -63.5 9.6 -63.65 Q8.0 -65.85 8.0 -66.25 8.0 -66.6 8.45 -67.15 L9.0 -68.0 9.0 -68.25 8.5 -68.1 7.35 -68.15 Q7.0 -68.5 7.0 -69.1 L7.5 -69.5 8.0 -68.75 9.25 -69.0 9.85 -69.0 Q10.3 -68.8 10.5 -67.75 10.7 -66.8 11.65 -66.5 L14.5 -66.6 Q14.55 -67.3 15.05 -67.6 L16.1 -68.5 17.75 -68.75 18.75 -68.75 18.65 -69.1 18.75 -69.5 19.6 -69.35 Q19.3 -68.75 18.9 -68.75 L19.1 -68.75 19.5 -68.15 21.25 -68.15 21.25 -68.5 22.9 -69.25 Q23.6 -69.75 23.5 -70.65 L23.5 -70.75 24.1 -70.05 24.5 -69.1 26.35 -69.0 26.85 -68.1 Q27.5 -67.5 28.85 -68.25 L28.95 -68.3 29.0 -67.95 28.75 -67.45 28.4 -67.35 28.7 -67.2 29.5 -67.1 Q30.15 -67.1 30.5 -68.65 L30.25 -69.2 30.0 -69.6 30.1 -70.0 31.0 -68.95 31.4 -67.85 32.0 -67.65 32.1 -67.75 32.15 -67.4 31.95 -67.15 Q31.75 -66.9 31.65 -66.05 L31.8 -65.95 31.9 -65.5 Q31.9 -64.65 31.35 -63.8 L29.95 -62.55 Q29.5 -61.9 28.6 -61.65 28.5 -61.45 28.5 -62.05 L28.55 -62.4 27.0 -62.5 Q26.25 -62.85 26.35 -63.35 L26.6 -64.25 26.6 -64.35 24.75 -65.25 22.15 -65.0 Q21.0 -64.65 21.0 -63.75 L20.25 -63.0 Q19.1 -62.9 18.5 -62.5 L16.65 -62.9 14.75 -63.35 Q14.5 -63.75 14.5 -64.85 14.35 -64.85 14.25 -65.0 13.0 -65.05 12.35 -64.55 12.8 -64.3 13.1 -64.25 13.5 -63.7 13.5 -63.1 13.6 -62.35 12.5 -62.0 L11.9 -61.95 11.75 -62.1 Q10.6 -62.1 10.0 -60.9 L9.6 -59.65 Q9.6 -59.0 9.95 -58.5 10.35 -57.9 11.0 -58.25 L11.6 -57.6 11.75 -57.75 12.35 -57.15 12.9 -56.25 12.9 -55.1 12.65 -55.05 Q12.5 -55.1 12.5 -55.25 11.85 -54.9 11.7 -54.45 L11.6 -53.45 Q11.6 -52.25 12.65 -51.35 13.8 -50.3 15.95 -50.3 L15.75 -50.5 17.65 -50.65 17.85 -52.25 Q18.95 -52.3 19.15 -53.0 L19.25 -54.15 19.6 -54.25 19.9 -53.35 19.55 -52.4 19.15 -51.2 19.4 -50.25 19.65 -49.5 20.25 -49.4 Q20.4 -49.0 20.15 -48.3 20.15 -47.9 20.9 -47.3 21.65 -46.75 22.0 -46.75 L22.55 -46.9 23.25 -47.1 23.6 -47.75 23.5 -47.95 24.15 -48.2 Q24.85 -48.3 25.0 -49.25 L25.35 -50.9 25.5 -50.9 25.6 -49.6 26.5 -49.4 26.65 -48.2 26.15 -47.75 Q25.6 -47.3 25.6 -46.95 25.6 -45.8 26.85 -45.45 28.45 -45.05 28.65 -44.75 L30.0 -44.85 30.25 -46.65 31.0 -46.75 Q31.45 -46.75 32.1 -46.1 L33.5 -46.1 34.75 -46.35 34.9 -46.7 35.25 -47.25 36.0 -47.5 36.6 -48.4 37.0 -49.5 36.1 -49.6 36.0 -50.15 36.4 -51.1 36.75 -51.95 36.3 -52.95 35.75 -53.9 35.75 -54.15 35.35 -54.15 34.35 -54.65 34.0 -54.9 Q33.75 -55.15 33.75 -55.5 33.75 -55.85 34.05 -56.15 L34.65 -56.75 Q34.0 -56.9 33.85 -57.15 L33.75 -57.6 33.85 -58.1 Q34.05 -58.35 34.15 -58.1 L35.0 -57.15 35.3 -57.1 35.4 -56.7 35.15 -56.3 34.9 -55.95 Q34.9 -55.65 35.3 -55.25 L35.35 -55.4 35.9 -55.0 36.1 -55.0 36.25 -54.75 37.4 -53.9 39.0 -55.0 39.75 -55.65 Q39.6 -56.45 39.85 -57.0 L41.0 -56.85 Q41.45 -56.85 41.75 -58.15 L42.25 -60.5 43.25 -60.15 43.55 -60.05 M41.75 -60.5 L41.4 -60.6 41.35 -60.95 Q41.35 -61.35 41.85 -61.35 L42.1 -60.75 41.75 -60.5 M72.75 -52.75 L72.4 -53.0 72.5 -53.5 72.85 -53.35 73.0 -53.1 72.75 -52.75 M72.1 -51.1 L72.0 -51.65 72.6 -51.75 72.75 -51.5 Q72.4 -51.15 72.1 -51.1 M74.5 -50.0 L74.7 -50.0 75.25 -49.85 Q75.25 -49.5 74.85 -49.1 L74.6 -49.1 74.4 -49.7 74.5 -50.0 M29.35 -93.0 Q29.0 -93.05 28.9 -93.25 L28.9 -93.6 Q29.55 -93.6 29.75 -93.25 L29.5 -93.0 29.35 -93.0 29.5 -92.85 29.5 -92.4 Q29.5 -91.35 28.5 -91.0 L27.65 -91.2 26.85 -91.15 26.75 -91.5 27.6 -91.85 Q28.05 -92.05 28.15 -92.25 L28.25 -92.75 28.75 -93.0 29.35 -93.0 M25.1 -90.25 L24.7 -90.2 Q24.3 -90.2 24.25 -90.35 L24.75 -90.5 Q24.95 -90.35 25.1 -90.25 M21.85 -88.25 L20.6 -88.6 Q20.5 -88.35 20.5 -88.95 L20.5 -89.35 Q20.8 -89.4 21.0 -89.1 L23.25 -89.0 23.8 -89.05 23.6 -89.1 23.1 -89.5 Q24.0 -90.25 24.6 -89.65 24.95 -90.25 25.35 -90.25 L25.45 -90.25 25.5 -89.85 Q25.5 -89.15 24.85 -88.6 L24.15 -87.95 Q24.15 -87.45 23.0 -87.1 L22.55 -87.15 22.5 -87.25 21.85 -87.4 Q21.6 -87.85 22.0 -88.2 L21.85 -88.25 M20.75 -89.6 L21.0 -89.85 21.6 -89.5 21.5 -89.35 Q20.85 -89.4 20.75 -89.6 M27.25 -91.85 Q26.85 -91.9 26.75 -92.1 L27.75 -92.35 27.25 -91.85 M28.25 -75.0 Q27.85 -75.1 27.75 -75.25 L28.6 -75.75 28.75 -75.5 28.25 -75.0 M20.65 -84.95 L20.0 -84.0 Q19.45 -83.45 19.6 -82.6 L19.0 -82.35 18.1 -82.4 17.5 -82.75 17.0 -83.6 17.0 -83.9 18.25 -83.95 Q19.15 -84.0 19.6 -84.4 L20.05 -85.0 20.5 -85.65 20.65 -84.95 M18.8 -84.85 Q19.15 -84.95 18.75 -84.5 L18.5 -84.25 Q18.1 -84.35 18.0 -84.5 L18.8 -84.85 M15.85 -83.6 L15.75 -83.75 15.75 -84.25 16.75 -84.35 15.85 -83.6 M12.1 -79.85 L12.0 -80.0 Q12.5 -80.6 13.0 -80.4 L13.1 -80.25 Q12.7 -79.85 12.1 -79.85 M11.05 -80.1 L11.6 -80.15 11.75 -80.1 Q11.75 -79.5 11.25 -79.5 10.85 -79.6 10.75 -79.75 L11.05 -80.1 M17.6 -72.6 L17.35 -72.0 17.0 -72.0 16.9 -72.75 17.6 -72.6 M17.0 -68.85 Q16.6 -68.9 16.5 -69.1 L17.15 -69.25 17.0 -68.85 M17.5 -71.1 L18.1 -71.0 18.75 -70.25 18.6 -69.75 18.6 -69.5 Q18.6 -69.25 18.0 -69.25 17.8 -69.25 17.35 -69.65 L16.9 -70.2 Q16.9 -70.85 17.5 -71.1 M10.35 -69.15 L10.25 -69.35 Q10.65 -69.75 11.6 -69.75 L11.0 -69.0 10.35 -69.15 M5.35 -71.35 L5.0 -71.75 Q5.2 -72.25 5.9 -71.9 L6.25 -71.5 6.1 -71.35 5.35 -71.35 M5.75 -72.4 L5.0 -72.35 4.75 -73.0 5.35 -73.0 5.75 -72.6 5.75 -72.4 M7.15 -72.1 L7.25 -71.75 7.0 -71.5 Q6.35 -71.6 6.25 -71.75 L6.35 -72.0 7.15 -72.1 M20.0 -57.6 L20.85 -57.05 21.0 -55.95 20.7 -55.35 Q20.25 -54.95 19.35 -54.85 19.25 -54.6 19.25 -55.2 19.25 -55.95 19.95 -56.3 20.45 -56.6 20.0 -57.6 M29.15 -73.25 Q30.15 -72.9 30.15 -72.4 L30.0 -71.85 29.7 -71.7 29.85 -71.5 29.5 -71.25 28.85 -71.35 28.9 -71.5 29.0 -72.0 28.5 -73.6 Q28.5 -74.0 28.8 -74.0 L29.35 -74.0 Q29.5 -73.75 29.15 -73.25 M23.5 -73.4 L23.75 -73.4 24.0 -72.85 23.6 -72.6 Q23.5 -72.35 23.5 -72.95 L23.5 -73.4 M24.4 -71.4 L24.1 -71.35 24.0 -71.9 24.5 -71.75 24.4 -71.4 M24.6 -70.1 L24.35 -70.15 Q24.25 -70.2 24.25 -70.6 L24.25 -70.85 25.25 -71.0 25.5 -70.4 25.25 -70.0 24.6 -70.1 M20.25 -58.75 Q20.1 -58.8 19.9 -58.9 L20.4 -59.6 21.0 -59.85 20.25 -58.75 M25.95 -53.35 L26.25 -53.5 26.45 -53.15 26.5 -52.6 26.25 -52.25 25.85 -52.35 25.75 -52.4 25.75 -52.8 25.95 -53.35 M27.35 -54.0 L27.45 -54.05 27.5 -53.7 27.5 -53.2 27.35 -53.1 27.1 -53.1 26.9 -54.0 27.35 -54.0 M26.35 -34.5 L26.65 -34.0 26.65 -33.85 26.0 -33.75 25.75 -34.5 26.35 -34.5 M22.0 -35.5 Q21.4 -35.5 21.4 -35.9 L22.25 -35.85 Q22.25 -35.5 22.0 -35.5 M22.75 -32.85 L22.1 -32.6 21.75 -33.0 21.65 -33.6 Q21.65 -34.35 22.25 -34.35 L22.65 -33.95 22.75 -33.3 22.75 -32.85 M80.05 -47.65 L80.75 -48.25 82.5 -48.25 82.5 -49.5 82.85 -49.5 83.3 -48.35 83.15 -47.8 83.2 -47.35 83.4 -47.25 84.15 -47.0 85.5 -47.0 85.8 -47.7 85.75 -47.95 85.75 -48.25 86.5 -48.5 86.9 -47.1 Q86.9 -46.15 86.5 -45.65 85.75 -44.8 85.5 -45.05 L85.25 -45.5 84.15 -44.7 83.0 -43.75 80.35 -44.1 80.45 -44.65 80.65 -45.4 80.2 -46.3 79.75 -47.05 80.05 -47.65 M68.25 -48.6 L68.0 -48.25 Q67.4 -48.25 67.4 -48.65 L68.25 -48.6 M67.75 -46.4 L68.35 -46.0 68.0 -45.25 67.5 -45.35 Q67.35 -45.35 67.35 -46.0 L67.55 -46.4 67.75 -46.4 M66.4 -44.75 Q66.4 -45.35 67.1 -45.5 67.3 -45.0 66.75 -44.25 L66.45 -44.35 66.4 -44.75 M61.1 -46.75 L60.75 -46.75 60.65 -47.5 61.25 -47.35 61.1 -46.75 M62.0 -46.5 L61.6 -46.4 Q61.35 -46.4 61.25 -46.5 L61.25 -46.75 62.0 -46.5 M62.35 -45.25 L62.5 -44.85 Q62.5 -44.5 62.25 -44.5 61.6 -44.85 61.5 -45.25 L62.35 -45.25 M76.75 -35.35 L76.65 -35.0 76.0 -35.0 75.9 -35.35 76.0 -35.6 76.75 -35.35 M75.5 -33.5 Q74.9 -33.5 74.9 -33.9 L75.75 -33.85 75.5 -33.5 M60.45 -45.5 L61.0 -45.35 Q61.0 -44.75 60.25 -44.75 L60.15 -45.2 60.25 -45.5 60.45 -45.5 M43.95 -39.0 L44.0 -38.0 43.7 -37.05 42.75 -36.25 42.75 -35.9 42.65 -35.75 Q42.65 -35.6 43.0 -35.6 43.55 -35.6 44.0 -35.95 44.55 -36.5 45.0 -36.65 45.0 -37.15 45.65 -37.7 L46.25 -38.35 45.95 -39.3 Q45.55 -40.05 44.9 -39.9 44.05 -39.7 43.95 -39.0 M69.75 -22.0 Q69.15 -22.0 69.15 -22.4 L70.0 -22.35 69.75 -22.0 M67.5 -24.65 L67.75 -24.75 Q68.75 -24.0 68.75 -23.6 68.75 -22.75 68.0 -22.5 67.1 -22.55 66.7 -22.2 L66.0 -21.65 Q65.5 -21.65 65.5 -22.25 65.5 -22.5 66.65 -23.0 67.75 -23.45 67.5 -24.65 M64.6 -21.5 L64.85 -20.9 64.6 -20.5 64.0 -20.5 Q63.9 -20.3 63.9 -20.95 63.9 -21.5 64.6 -21.5 M82.85 -51.4 L82.5 -51.5 82.5 -51.75 83.25 -51.5 82.85 -51.4 M81.5 -49.0 L81.75 -49.05 82.25 -48.85 82.0 -48.5 81.5 -49.0 M-2.25 -59.25 L-2.6 -59.35 -2.65 -59.7 Q-2.65 -60.1 -2.15 -60.1 L-1.9 -59.5 -2.25 -59.25 M-5.75 -34.5 L-6.15 -34.4 -6.5 -34.5 Q-6.0 -35.25 -5.75 -34.5 M-7.25 -32.5 L-7.35 -32.95 -7.1 -33.4 -6.25 -33.25 -6.4 -32.75 -6.65 -32.5 -7.25 -32.5" fill="#afbfc2" fill-rule="evenodd" stroke="none"/>
    </g>
  </defs>
</svg>
