<?xml version="1.0" encoding="UTF-8" standalone="no"?>
<svg xmlns:ffdec="https://www.free-decompiler.com/flash" xmlns:xlink="http://www.w3.org/1999/xlink" ffdec:objectType="frame" height="146.1px" width="102.8px" xmlns="http://www.w3.org/2000/svg">
  <g transform="matrix(1.0, 0.0, 0.0, 1.0, 14.25, 122.8)">
    <use ffdec:characterId="81" height="83.35" transform="matrix(1.0, 0.0, 0.0, 1.0, -7.0, -87.35)" width="89.25" xlink:href="#shape0"/>
  </g>
  <defs>
    <g id="shape0" transform="matrix(1.0, 0.0, 0.0, 1.0, 7.0, 87.35)">
      <path d="M47.6 -56.4 L48.6 -55.75 49.5 -56.5 50.1 -56.05 50.5 -55.5 51.2 -55.95 52.0 -56.25 52.15 -56.1 52.15 -56.45 Q52.15 -56.8 52.45 -57.05 L53.35 -57.25 53.6 -56.35 53.5 -56.0 53.35 -55.8 52.85 -55.75 52.35 -55.85 52.2 -55.95 51.65 -55.45 51.1 -54.75 49.25 -54.75 Q48.85 -54.85 48.3 -55.35 L47.5 -56.25 47.6 -56.4 M47.45 -57.25 L48.0 -57.1 47.9 -56.6 47.25 -56.5 47.15 -56.95 47.25 -57.25 47.45 -57.25 M44.7 -53.6 L45.6 -53.75 45.7 -53.8 45.75 -53.45 45.5 -52.75 45.1 -52.1 44.85 -52.1 44.65 -52.95 44.7 -53.6 M42.3 -51.05 L42.75 -51.0 42.5 -50.5 Q42.1 -50.6 42.0 -50.75 L42.3 -51.05 M44.6 -50.85 L43.9 -50.75 43.7 -50.4 43.5 -49.85 42.45 -48.95 Q41.65 -48.65 40.5 -49.25 L40.3 -48.85 39.75 -48.35 38.6 -48.4 Q38.4 -48.5 38.35 -48.55 L38.25 -49.05 38.5 -49.8 38.85 -50.4 39.5 -49.85 Q41.75 -49.95 42.95 -50.7 44.15 -51.5 44.85 -51.5 L45.0 -51.25 Q45.0 -50.9 44.6 -50.85 M55.85 -56.65 L55.35 -57.15 56.15 -57.0 Q56.8 -57.0 59.35 -57.75 L59.9 -57.75 60.15 -58.15 Q60.15 -58.5 60.45 -58.6 L60.75 -58.6 60.75 -58.25 Q60.75 -57.95 61.05 -57.9 L61.35 -57.55 Q61.35 -56.75 61.0 -56.5 L59.85 -56.25 Q59.1 -56.25 58.85 -57.0 L57.75 -56.75 57.25 -56.6 55.85 -56.65 M57.25 -57.25 Q56.65 -57.25 56.65 -57.65 L57.5 -57.6 Q57.5 -57.25 57.25 -57.25 M62.0 -59.15 L62.1 -59.0 Q62.0 -58.7 61.5 -58.5 L61.15 -58.5 61.1 -58.9 61.15 -59.3 61.15 -59.25 62.0 -59.15 M31.25 -86.85 L31.15 -86.5 31.0 -86.35 Q30.65 -86.55 30.65 -86.85 30.8 -87.1 31.25 -86.85 M29.15 -87.35 L29.75 -87.35 29.6 -86.75 Q29.25 -86.75 29.15 -87.0 L29.15 -87.35 M28.15 -85.35 L27.5 -85.25 27.4 -86.0 27.85 -86.0 28.15 -85.5 28.15 -85.35 M26.6 -84.75 L26.7 -84.8 26.75 -84.45 Q26.75 -83.55 25.35 -83.0 L24.9 -83.05 24.85 -83.15 24.25 -83.75 24.35 -83.9 25.75 -84.15 26.1 -84.65 26.6 -84.75 M23.8 -84.4 L23.9 -84.0 Q23.9 -83.35 23.75 -83.75 23.25 -83.85 23.25 -84.4 L23.6 -84.5 23.8 -84.4 M21.4 -81.1 L21.75 -81.4 21.9 -81.3 22.0 -81.0 Q22.0 -80.85 21.5 -80.75 L21.4 -81.1 M20.65 -80.25 L21.35 -80.25 21.5 -79.85 21.4 -79.65 20.75 -79.5 20.65 -80.25 M20.25 -79.45 L19.8 -79.35 18.85 -79.5 Q18.75 -79.35 18.75 -79.95 18.75 -80.35 18.9 -80.35 L19.0 -80.25 19.6 -80.25 Q19.8 -79.95 20.25 -79.85 L20.25 -79.45 M11.85 -63.65 L11.6 -63.25 11.0 -63.25 10.9 -63.7 11.0 -64.0 11.6 -64.0 11.85 -63.65 M10.4 -64.0 L10.25 -63.9 9.75 -64.25 Q9.75 -64.4 10.25 -64.4 L10.4 -64.0 M11.0 -62.75 L11.45 -62.15 11.45 -61.9 11.75 -61.85 Q11.75 -61.55 11.45 -61.4 L11.75 -61.15 12.25 -61.1 13.75 -61.25 14.7 -60.85 14.75 -60.65 16.25 -60.65 16.5 -61.0 16.1 -61.05 16.0 -61.45 Q16.0 -61.85 16.95 -62.7 L18.0 -63.5 19.25 -63.4 19.4 -63.0 19.3 -62.9 19.65 -62.85 Q20.15 -62.85 20.9 -63.35 20.5 -63.75 20.5 -64.1 L20.75 -64.25 21.45 -63.4 22.15 -62.25 21.25 -61.25 21.4 -60.5 Q23.25 -60.6 23.9 -61.6 24.65 -62.7 25.75 -62.9 L25.25 -64.0 25.5 -64.0 26.85 -63.75 27.35 -63.3 27.75 -62.6 28.75 -62.5 Q29.6 -62.15 29.5 -61.4 L29.4 -60.0 30.5 -59.85 30.85 -60.0 31.4 -60.5 31.5 -61.45 31.95 -61.95 32.75 -62.65 Q33.15 -62.1 33.15 -61.05 L33.15 -59.75 Q33.0 -58.85 32.5 -58.4 L31.6 -58.25 31.1 -57.75 30.5 -57.15 29.35 -57.25 Q28.9 -58.15 28.1 -58.25 L28.35 -58.5 28.6 -59.15 28.15 -59.85 27.5 -60.6 26.85 -60.85 25.85 -60.75 24.65 -60.1 23.75 -59.35 22.0 -58.1 17.35 -58.15 16.5 -59.25 14.6 -59.25 14.25 -58.65 13.7 -58.5 Q13.15 -58.35 13.15 -58.1 L12.75 -57.9 11.85 -57.9 Q10.6 -59.15 10.6 -59.75 L10.65 -60.8 Q10.5 -61.4 9.6 -61.15 9.5 -60.95 9.5 -61.55 L9.65 -61.75 9.75 -62.15 10.2 -62.15 11.0 -62.75 M20.15 -65.35 L19.75 -65.25 19.25 -65.2 19.15 -65.6 Q19.15 -66.0 19.35 -66.0 L19.85 -66.0 20.15 -65.5 20.15 -65.35 M7.75 -53.75 L8.05 -54.15 8.5 -54.4 8.25 -53.5 Q7.85 -53.6 7.75 -53.75 M8.25 -52.85 Q8.65 -52.55 8.65 -51.95 L8.6 -51.05 7.35 -50.15 6.5 -51.1 6.6 -51.65 7.5 -51.85 7.95 -52.35 8.1 -52.85 8.25 -52.85 M10.0 -50.95 L10.25 -51.5 Q10.25 -52.4 10.5 -52.5 L11.9 -53.35 Q12.55 -53.85 12.25 -54.5 L13.0 -54.5 13.0 -52.6 12.5 -51.65 12.25 -51.2 Q12.25 -50.95 12.6 -50.5 L12.9 -49.95 Q12.9 -49.55 12.4 -49.1 11.95 -48.7 11.5 -48.65 11.5 -48.15 12.3 -47.2 13.0 -46.45 12.6 -45.6 13.75 -44.75 13.75 -44.0 L13.65 -43.4 13.25 -43.15 13.5 -42.6 Q17.0 -42.75 17.0 -43.65 L16.75 -44.0 16.7 -44.0 Q16.5 -44.05 16.5 -44.35 16.5 -44.7 16.65 -44.65 L16.7 -44.6 17.2 -45.55 18.6 -47.0 19.55 -48.15 20.35 -49.25 20.45 -49.25 20.5 -48.85 20.15 -47.9 19.75 -46.85 19.9 -46.25 Q18.9 -45.25 18.9 -44.8 18.9 -44.5 19.2 -44.1 L19.5 -43.4 Q19.5 -42.85 18.95 -42.0 L18.1 -40.6 Q18.2 -40.15 18.75 -39.85 L21.1 -39.75 21.4 -39.15 Q23.3 -39.45 23.2 -41.05 23.15 -42.2 24.25 -42.5 L24.25 -42.65 25.1 -43.9 25.9 -44.1 26.0 -44.65 26.35 -44.75 26.9 -43.75 27.0 -43.55 26.7 -43.25 26.55 -42.9 26.35 -43.1 26.25 -43.0 26.0 -42.45 26.4 -41.85 26.75 -41.15 Q26.75 -40.5 26.25 -40.1 26.5 -39.75 27.0 -39.75 27.4 -39.75 27.35 -39.95 L27.25 -40.25 27.35 -40.25 27.25 -40.35 27.3 -40.4 27.65 -40.25 28.1 -40.25 29.1 -38.75 29.75 -39.55 30.75 -40.35 31.5 -40.25 32.1 -40.9 32.55 -41.3 32.5 -42.0 33.5 -42.75 33.9 -41.55 Q34.0 -41.0 35.0 -41.0 L35.75 -41.25 36.15 -41.4 36.15 -41.3 36.6 -41.25 Q38.3 -41.25 38.35 -42.55 L38.5 -44.5 39.25 -44.65 39.6 -46.75 40.1 -46.75 40.0 -44.7 Q40.0 -43.9 40.75 -43.55 41.5 -43.2 41.5 -42.65 L41.25 -42.1 41.0 -41.75 Q41.65 -41.1 42.0 -41.1 L42.75 -41.3 Q43.4 -41.55 43.65 -41.75 44.0 -42.1 45.75 -42.1 47.45 -42.1 48.05 -43.8 48.55 -45.1 48.25 -46.0 L49.3 -46.85 Q49.85 -47.25 49.85 -47.7 L50.05 -48.05 50.25 -48.0 50.65 -47.75 50.35 -47.05 50.15 -46.25 50.35 -45.65 50.5 -44.9 50.35 -44.45 50.0 -44.35 50.0 -43.1 50.9 -43.15 51.5 -44.0 Q52.95 -43.95 53.1 -43.35 L55.1 -43.25 55.5 -42.65 56.25 -42.65 Q56.8 -42.75 57.05 -43.35 L57.25 -44.0 57.45 -44.3 58.35 -44.85 Q59.15 -45.35 58.9 -46.0 58.5 -46.7 58.5 -47.1 L58.5 -47.5 58.6 -47.65 59.3 -46.9 59.65 -45.75 59.6 -45.65 59.7 -44.85 59.9 -43.8 Q59.9 -43.0 58.75 -42.3 L56.5 -40.85 55.6 -40.9 54.75 -41.5 53.0 -41.75 Q51.45 -41.75 51.1 -40.5 50.8 -39.25 50.25 -39.25 L49.7 -39.3 49.3 -38.95 48.75 -38.4 49.25 -37.7 49.75 -36.9 50.65 -36.9 52.0 -38.1 52.1 -38.2 52.15 -37.95 Q53.0 -37.55 53.2 -36.45 53.4 -35.4 56.5 -34.9 56.95 -34.65 56.9 -34.05 56.85 -33.5 57.65 -33.25 59.05 -33.25 59.65 -33.9 L60.25 -34.75 Q61.0 -34.95 61.0 -35.5 60.6 -36.1 60.75 -36.4 L61.75 -38.2 62.0 -40.15 62.5 -40.4 62.9 -38.95 Q63.0 -37.95 63.25 -37.5 L64.35 -35.4 64.4 -34.4 Q64.4 -33.85 65.75 -33.25 67.35 -33.3 68.0 -34.0 68.6 -34.6 68.0 -35.15 69.0 -35.75 69.2 -36.2 L69.25 -37.25 Q69.25 -37.95 68.65 -39.25 68.65 -39.65 69.0 -39.85 L69.75 -38.75 Q70.1 -38.05 70.5 -37.85 L70.65 -37.25 71.75 -37.35 72.0 -36.25 Q72.55 -36.2 73.4 -36.75 74.35 -37.3 75.25 -37.35 L75.3 -38.85 75.5 -40.35 75.8 -41.85 76.0 -43.0 Q76.45 -42.8 76.5 -41.9 L76.4 -40.65 Q76.4 -40.35 76.85 -39.9 77.3 -39.5 77.65 -39.5 L78.35 -40.05 Q79.05 -40.55 79.4 -40.35 L80.25 -40.4 80.25 -41.0 80.6 -41.15 81.85 -41.0 81.5 -40.6 81.15 -40.05 Q81.15 -39.75 81.4 -39.7 L81.65 -39.4 80.9 -37.85 79.85 -36.6 79.5 -37.0 Q76.45 -37.0 75.4 -36.45 74.8 -35.85 74.25 -35.75 71.85 -35.25 71.85 -34.1 71.85 -33.75 72.2 -33.35 L72.5 -32.6 71.85 -30.75 71.6 -30.65 71.1 -31.5 70.75 -32.25 69.75 -32.05 69.0 -31.85 66.25 -32.35 66.15 -32.35 65.15 -32.15 64.65 -31.25 64.25 -30.5 Q62.75 -29.45 62.75 -29.2 62.75 -28.8 63.5 -26.1 L64.05 -26.3 64.75 -26.5 Q65.5 -26.5 65.65 -24.45 L65.6 -23.3 64.5 -22.1 Q64.2 -21.85 64.2 -20.95 64.15 -20.25 63.1 -19.85 L62.25 -20.0 62.0 -20.25 61.25 -20.25 Q60.45 -19.8 60.3 -19.35 L60.25 -18.45 Q60.25 -17.7 60.75 -16.7 L61.25 -15.45 Q61.25 -14.75 60.25 -14.4 60.25 -13.85 60.75 -13.15 L63.0 -13.35 63.85 -13.25 64.0 -12.75 65.0 -12.6 Q66.45 -13.05 66.35 -13.5 66.0 -14.0 66.0 -14.25 66.0 -14.65 66.55 -14.9 L66.75 -15.0 66.75 -15.35 67.0 -15.4 67.1 -15.1 67.25 -15.15 67.4 -15.0 67.25 -14.65 67.3 -14.35 Q67.45 -13.5 68.0 -13.5 68.3 -13.5 68.6 -13.75 L69.1 -14.0 69.5 -13.15 69.75 -12.25 68.85 -10.6 68.1 -10.75 67.65 -10.9 Q66.75 -10.9 66.75 -9.25 L66.5 -7.5 Q66.4 -6.65 65.85 -5.85 65.15 -4.85 64.5 -5.5 63.5 -5.65 62.8 -5.2 L62.0 -4.75 59.1 -4.85 58.0 -6.15 57.15 -6.4 55.5 -6.2 53.75 -5.85 53.45 -5.2 53.5 -5.1 Q53.5 -4.65 53.1 -4.3 52.7 -4.0 52.0 -4.0 L50.8 -4.1 49.0 -4.0 47.55 -5.4 Q46.4 -6.5 46.4 -7.0 L46.85 -7.3 Q47.25 -7.5 47.15 -8.15 46.9 -8.55 46.9 -9.2 L47.0 -10.0 47.85 -10.1 47.75 -9.25 Q47.75 -8.55 48.85 -7.9 L51.0 -6.6 53.75 -7.0 53.25 -7.35 53.95 -8.05 Q54.45 -8.5 55.0 -8.35 L54.75 -9.0 Q54.6 -9.4 55.25 -9.75 L56.65 -9.85 57.45 -10.1 58.25 -10.1 Q58.9 -9.95 58.9 -10.6 L58.3 -12.55 57.35 -14.15 56.5 -13.85 56.15 -13.2 Q55.9 -12.6 55.5 -12.5 L54.75 -13.0 53.35 -13.35 53.4 -13.95 53.5 -14.75 53.25 -15.5 53.0 -16.0 52.5 -15.75 50.35 -16.1 Q50.0 -16.5 50.0 -17.4 L49.35 -17.6 49.25 -18.35 Q49.25 -19.0 49.75 -20.0 L50.25 -20.0 50.15 -19.05 50.35 -18.5 50.75 -18.25 51.85 -18.25 Q52.1 -18.25 52.5 -18.75 L53.25 -18.6 54.0 -18.65 54.15 -19.0 54.1 -19.35 54.4 -20.0 54.75 -20.6 54.9 -20.3 55.9 -20.9 Q55.6 -22.7 55.75 -23.75 55.25 -23.85 55.15 -24.0 54.65 -23.95 54.0 -23.5 L52.85 -23.6 52.55 -24.15 51.65 -25.1 Q51.25 -25.5 51.25 -26.6 L51.65 -28.1 52.0 -29.35 51.55 -30.35 51.0 -31.25 49.75 -31.6 49.55 -31.65 48.7 -30.95 48.25 -30.35 Q47.9 -30.05 47.25 -29.85 L45.65 -29.5 44.75 -28.0 46.25 -23.4 Q46.25 -20.25 44.1 -20.25 L43.4 -19.9 43.4 -19.75 43.1 -19.25 42.65 -18.65 Q42.5 -18.25 42.5 -17.65 42.5 -16.9 41.0 -16.4 L39.0 -16.0 36.6 -16.1 36.0 -17.2 Q35.75 -17.75 34.75 -18.15 L32.75 -18.15 Q31.55 -18.05 30.75 -16.25 30.25 -15.25 30.25 -14.45 30.25 -13.1 28.5 -12.25 L24.6 -12.35 Q23.6 -12.7 23.55 -14.1 23.55 -15.6 23.35 -15.75 L21.35 -17.45 Q20.75 -18.05 20.75 -19.0 L20.75 -21.6 21.25 -22.0 Q21.4 -21.75 21.15 -21.05 21.15 -19.85 22.1 -19.7 L23.4 -19.25 Q24.15 -18.0 25.0 -17.7 25.75 -17.45 25.9 -17.1 L26.75 -17.1 27.55 -17.4 28.65 -18.25 28.4 -18.5 Q28.25 -18.65 28.25 -19.05 28.25 -19.55 28.85 -20.05 L29.85 -21.0 30.2 -21.2 30.5 -22.0 30.5 -22.85 30.75 -23.9 31.0 -25.0 31.1 -25.65 Q32.0 -25.1 32.3 -23.9 32.7 -22.5 33.25 -21.9 L34.95 -22.3 Q35.45 -22.3 35.25 -23.0 L35.6 -23.5 36.75 -23.65 Q37.75 -25.35 37.75 -25.9 37.75 -26.4 37.15 -26.75 36.5 -27.2 35.35 -27.1 35.15 -27.8 35.5 -28.6 L35.15 -29.0 34.0 -28.75 33.25 -28.85 Q32.15 -29.55 31.85 -30.15 L31.75 -31.2 Q31.75 -32.15 32.25 -32.7 L33.35 -33.5 33.5 -32.5 33.65 -32.25 34.1 -32.7 34.75 -33.15 34.5 -34.5 34.9 -35.7 35.25 -37.1 35.2 -37.9 34.25 -39.15 32.25 -39.15 31.9 -39.0 Q31.75 -38.9 31.75 -38.5 L31.75 -38.45 32.5 -39.0 33.35 -38.75 33.25 -38.6 32.6 -38.5 31.75 -37.2 Q31.75 -36.9 32.0 -36.8 L32.25 -36.45 Q32.25 -35.9 31.5 -34.85 31.2 -34.85 30.85 -34.5 30.4 -34.05 30.0 -34.0 L28.95 -34.1 28.0 -34.25 27.5 -35.2 26.65 -36.15 25.75 -36.1 24.5 -34.65 Q23.4 -33.5 22.25 -33.5 L19.75 -33.6 19.1 -33.85 Q18.6 -34.4 18.35 -35.55 18.15 -36.55 17.25 -37.25 L15.65 -37.25 14.65 -37.0 14.1 -36.15 13.75 -36.5 12.1 -36.65 10.9 -37.7 Q10.35 -38.2 10.3 -38.85 L10.25 -38.85 10.05 -40.8 9.25 -41.0 9.15 -41.25 Q9.0 -41.6 9.0 -42.1 L8.85 -42.5 8.6 -42.9 8.65 -43.8 8.75 -44.75 8.55 -45.15 7.4 -46.0 7.15 -46.0 6.85 -45.75 Q6.35 -45.35 5.75 -45.25 L3.25 -45.25 2.65 -46.65 Q2.4 -47.45 2.6 -47.75 L2.55 -47.85 1.6 -47.9 1.5 -48.0 1.35 -48.0 0.75 -47.35 -0.65 -47.4 Q-1.3 -48.05 -1.15 -48.5 L-1.65 -48.75 -1.9 -49.6 -2.65 -49.75 -2.65 -50.85 -2.0 -51.15 -1.25 -51.35 Q-1.25 -52.0 -1.65 -52.25 L-1.5 -52.4 -0.9 -52.35 -0.85 -52.0 Q-0.4 -51.95 -0.25 -51.75 -0.85 -50.9 -0.85 -50.4 -0.85 -50.0 -0.65 -49.9 L-0.35 -49.75 0.5 -49.65 1.5 -48.45 2.75 -48.4 2.8 -48.35 3.0 -48.35 3.6 -49.0 Q3.9 -49.35 4.5 -49.4 L4.55 -49.3 4.5 -48.85 4.5 -48.5 4.65 -48.5 5.25 -48.4 5.4 -47.65 5.6 -47.5 6.75 -47.65 Q7.05 -48.5 7.5 -48.75 L8.25 -48.65 8.0 -47.9 7.9 -47.75 9.25 -47.85 10.05 -48.85 10.35 -49.35 10.15 -49.55 Q9.75 -49.95 9.75 -50.25 L10.0 -50.95 M20.0 -50.5 L21.0 -50.25 20.85 -49.95 Q20.75 -49.75 20.35 -49.75 L19.85 -49.85 Q19.75 -49.6 19.75 -50.2 19.75 -50.6 19.9 -50.6 L20.0 -50.5 M32.0 -63.75 Q32.4 -64.3 32.6 -64.0 L32.35 -63.6 Q32.1 -63.6 32.0 -63.75 M30.65 -67.25 Q31.3 -67.9 32.0 -67.85 L30.85 -66.9 30.65 -67.25 M22.1 -53.5 L22.2 -53.55 22.25 -53.2 22.15 -52.75 21.1 -52.4 21.0 -52.7 Q21.3 -53.35 22.1 -53.5 M35.15 -52.75 L35.6 -52.75 35.85 -52.65 36.0 -52.25 Q36.0 -51.85 35.8 -51.7 L35.5 -51.5 Q36.05 -51.5 36.5 -51.05 37.05 -50.6 37.5 -50.5 L37.1 -50.0 36.25 -50.0 Q35.0 -51.05 35.0 -51.5 L35.15 -52.75 M35.25 -53.85 L35.6 -54.0 35.7 -54.0 35.75 -53.6 35.75 -53.25 35.65 -53.25 35.5 -53.1 35.0 -53.6 35.25 -53.85 M37.75 -50.65 L38.35 -50.75 38.5 -50.35 38.25 -50.0 37.85 -50.1 37.75 -50.65 M26.75 -48.25 L27.05 -48.55 27.5 -48.5 27.25 -48.0 Q26.85 -48.1 26.75 -48.25 M26.5 -45.55 Q26.5 -46.4 27.0 -46.6 L27.75 -45.1 27.25 -44.5 Q26.65 -44.65 26.55 -44.95 L26.5 -45.55 M22.4 -26.2 Q22.4 -27.05 22.75 -27.25 L23.2 -26.9 23.5 -26.4 Q23.5 -25.75 23.35 -25.85 L23.0 -25.5 22.5 -25.7 22.4 -26.2 M22.1 -25.5 L22.2 -25.55 22.25 -25.2 22.1 -24.6 21.85 -24.35 21.6 -24.35 21.5 -24.4 21.5 -24.8 Q21.5 -25.5 22.1 -25.5 M28.05 -28.05 L28.0 -27.6 Q28.0 -27.2 28.25 -27.05 L28.6 -26.85 27.6 -27.05 27.5 -27.55 Q27.5 -27.95 27.65 -28.05 L28.0 -28.15 28.05 -28.05 M28.0 -29.9 L27.35 -30.15 27.6 -30.45 28.1 -30.6 28.4 -30.25 Q28.25 -30.0 28.0 -29.9 M30.3 -28.35 L30.65 -27.8 30.0 -26.5 29.5 -26.6 Q29.15 -27.45 29.15 -28.1 L29.25 -28.6 29.5 -28.75 30.3 -28.35 M30.0 -26.25 L30.6 -26.25 30.75 -25.85 30.35 -25.6 Q30.0 -25.85 30.0 -26.25 M3.25 -37.9 Q3.0 -38.0 3.0 -38.35 3.0 -38.75 3.6 -39.3 4.45 -40.05 5.75 -39.6 7.25 -39.65 6.9 -41.3 6.5 -42.8 8.0 -42.65 L7.8 -42.2 Q7.65 -42.0 7.65 -41.6 7.65 -41.3 7.9 -41.1 L8.1 -40.6 9.0 -39.5 8.75 -39.25 Q8.5 -39.3 8.5 -39.0 8.5 -38.65 8.8 -38.6 L9.1 -38.25 8.6 -37.35 7.85 -36.75 Q7.55 -36.75 7.55 -37.0 L7.25 -37.25 4.75 -35.35 3.85 -35.4 3.35 -36.05 3.0 -36.7 3.25 -37.1 3.5 -37.5 3.25 -37.9 M9.5 -34.5 Q9.0 -34.15 9.0 -34.75 L9.25 -35.1 9.75 -35.1 Q9.75 -34.5 9.5 -34.5 M10.1 -34.0 L10.7 -32.55 11.0 -31.35 11.25 -30.65 11.5 -30.0 11.25 -28.95 Q11.0 -28.25 10.75 -28.25 10.35 -28.25 10.3 -28.45 L10.25 -28.75 9.85 -28.0 Q9.55 -27.5 9.0 -27.5 L8.4 -27.7 7.5 -28.1 6.75 -28.7 6.25 -29.5 5.4 -29.4 4.95 -28.7 4.65 -28.1 5.0 -27.5 5.5 -26.75 5.5 -25.65 5.65 -25.7 5.75 -25.25 Q5.75 -24.95 5.45 -24.8 L5.15 -24.35 5.5 -23.9 5.9 -23.15 6.0 -22.45 Q6.1 -22.1 6.5 -22.1 L8.0 -22.1 9.0 -22.6 9.2 -22.5 9.25 -22.05 8.75 -20.75 Q8.25 -19.9 7.85 -19.75 L6.75 -19.75 6.65 -20.35 Q5.1 -19.25 4.85 -19.25 3.9 -19.25 3.75 -19.5 L1.35 -19.6 0.75 -20.05 0.5 -20.75 0.5 -23.4 1.5 -24.6 1.25 -25.2 0.65 -25.75 -0.8 -24.55 -1.65 -23.5 -2.35 -23.2 -2.75 -23.0 -6.15 -23.35 Q-6.5 -23.75 -6.5 -24.5 -6.5 -24.9 -6.75 -25.05 L-7.0 -25.5 -7.0 -27.0 -6.5 -27.25 -6.2 -26.5 -6.35 -26.1 -6.05 -25.8 Q-5.8 -25.6 -5.65 -25.65 L-4.75 -26.0 -4.0 -25.9 Q-3.7 -25.6 -4.0 -25.35 L-3.1 -25.0 -2.25 -25.1 -1.4 -25.9 -0.5 -26.85 0.35 -27.55 1.4 -28.15 Q1.8 -28.4 2.15 -29.7 L2.5 -31.6 2.25 -32.5 1.9 -33.25 1.35 -33.15 1.25 -33.0 0.85 -33.0 0.75 -32.45 Q0.6 -32.1 0.25 -32.1 -0.75 -32.1 -1.4 -32.65 -2.0 -33.15 -2.0 -33.8 L-1.25 -35.1 -1.45 -35.6 -1.75 -35.85 -0.75 -36.75 -0.15 -36.5 -0.85 -35.6 -0.55 -35.35 -0.25 -34.9 0.1 -34.95 0.1 -35.0 0.35 -34.95 0.55 -34.85 0.6 -34.75 1.5 -34.85 1.6 -35.15 2.6 -34.4 2.75 -34.25 3.4 -33.5 3.85 -32.85 5.75 -32.75 5.85 -30.65 7.5 -30.4 Q9.15 -30.95 9.4 -31.65 L9.4 -32.95 9.5 -33.75 9.6 -33.85 10.1 -34.0 M8.65 -23.6 L9.1 -24.05 9.5 -23.85 9.35 -23.25 8.75 -23.25 8.65 -23.6 M21.5 -23.5 Q22.45 -23.5 23.25 -21.9 L23.05 -21.3 22.75 -21.0 21.85 -21.1 22.0 -22.6 21.5 -23.15 21.5 -23.5 M75.3 -25.9 L75.5 -27.0 Q74.55 -27.1 74.15 -28.0 L73.75 -29.4 75.3 -29.35 Q76.65 -29.25 76.65 -28.3 76.65 -27.7 76.15 -27.35 L77.4 -26.15 79.25 -25.85 79.6 -25.8 79.5 -26.25 79.75 -26.55 80.1 -27.4 80.25 -27.5 80.65 -26.5 Q80.9 -25.9 82.0 -25.65 L82.25 -23.2 81.6 -22.1 Q80.95 -21.5 80.25 -21.25 L79.8 -21.9 79.75 -22.25 Q78.3 -22.05 78.4 -20.95 L78.75 -19.4 78.2 -18.1 77.15 -16.65 Q76.8 -16.25 75.0 -15.5 L72.75 -14.5 71.6 -14.6 71.25 -15.0 71.25 -16.25 73.5 -16.15 74.45 -16.9 Q75.25 -17.55 75.25 -18.0 75.25 -18.3 75.0 -18.2 74.75 -18.1 74.75 -18.45 74.75 -18.7 75.3 -19.2 75.95 -19.8 76.5 -19.65 77.35 -20.3 77.35 -22.1 L77.2 -22.85 77.0 -23.6 77.0 -24.3 76.5 -24.75 75.85 -24.85 Q75.2 -25.05 75.3 -25.9 M80.25 -28.0 L79.3 -27.75 78.4 -28.15 78.4 -28.75 79.0 -28.65 80.25 -28.35 80.25 -28.0 M79.0 -29.75 L78.35 -29.35 78.25 -29.9 78.85 -30.0 79.0 -29.75 M45.75 -36.0 Q45.5 -35.3 45.6 -35.0 L45.75 -34.45 Q45.75 -33.75 45.0 -33.25 44.25 -32.75 44.25 -32.35 44.25 -31.95 44.75 -31.25 45.25 -30.6 45.5 -30.6 46.25 -30.6 47.4 -31.75 L47.35 -32.15 47.25 -32.75 47.75 -33.5 48.25 -34.2 48.0 -35.2 47.75 -36.15 45.75 -36.0 M50.1 -21.5 L50.25 -21.1 50.0 -20.75 49.6 -20.85 49.5 -21.4 50.1 -21.5 M70.8 -19.0 L70.85 -18.65 70.75 -18.15 70.5 -18.0 69.75 -18.4 69.6 -18.6 69.7 -19.1 70.0 -19.15 70.6 -19.1 70.8 -19.0 M69.5 -18.0 Q68.75 -18.0 68.6 -18.25 L69.0 -18.6 69.75 -18.35 69.65 -18.0 69.5 -18.0 M67.35 -17.15 L67.0 -17.25 67.0 -17.65 67.75 -17.25 67.35 -17.15 M-2.5 -55.9 L-2.35 -55.5 -2.5 -55.35 -2.9 -55.4 -3.0 -55.7 Q-2.85 -56.05 -2.5 -55.9 M-2.35 -54.75 L-1.85 -53.75 -1.85 -53.6 -2.25 -53.5 -2.9 -53.65 -3.1 -53.9 -3.25 -54.5 Q-3.25 -55.4 -2.0 -55.1 -1.85 -54.95 -2.35 -54.75 M-0.3 -38.0 L0.25 -37.85 Q0.25 -37.4 -0.5 -37.25 L-0.6 -37.7 -0.5 -38.0 -0.3 -38.0 M-6.25 -28.1 Q-6.65 -28.15 -6.75 -28.35 L-6.1 -28.5 Q-6.1 -28.15 -6.25 -28.1" fill="#afbfc2" fill-rule="evenodd" stroke="none"/>
    </g>
  </defs>
</svg>
