<?xml version="1.0" encoding="UTF-8" standalone="no"?>
<svg xmlns:ffdec="https://www.free-decompiler.com/flash" xmlns:xlink="http://www.w3.org/1999/xlink" ffdec:objectType="frame" height="146.1px" width="102.8px" xmlns="http://www.w3.org/2000/svg">
  <g transform="matrix(1.0, 0.0, 0.0, 1.0, 14.25, 122.8)">
    <use ffdec:characterId="82" height="60.7" transform="matrix(1.0, 0.0, 0.0, 1.0, -7.8, -60.1)" width="90.0" xlink:href="#shape0"/>
  </g>
  <defs>
    <g id="shape0" transform="matrix(1.0, 0.0, 0.0, 1.0, 7.8, 60.1)">
      <path d="M47.5 -50.35 L47.55 -50.8 48.3 -50.8 48.55 -50.2 48.0 -49.9 47.6 -49.95 Q47.5 -50.0 47.5 -50.35 M50.6 -50.75 L50.9 -50.7 51.0 -50.35 Q51.0 -49.7 50.0 -49.7 49.45 -49.8 49.35 -49.95 L50.6 -50.75 M51.95 -51.3 Q51.7 -51.35 51.65 -51.45 L52.0 -51.55 52.3 -51.35 51.95 -51.3 M59.5 -51.25 L58.9 -51.25 58.8 -51.7 59.25 -51.7 59.6 -51.4 59.5 -51.25 M60.4 -51.5 Q60.15 -51.65 60.15 -52.05 60.25 -52.3 60.65 -52.05 L60.4 -51.5 M9.95 -56.25 Q9.95 -55.75 10.35 -55.65 L11.0 -55.6 12.1 -55.55 12.2 -55.1 13.6 -55.1 14.6 -55.8 14.9 -55.85 15.0 -55.55 Q15.0 -55.1 14.55 -54.8 L13.2 -53.85 Q12.7 -53.9 12.6 -54.2 L11.6 -53.25 10.7 -53.3 Q10.4 -53.3 10.35 -53.75 L10.25 -54.35 9.7 -55.2 9.85 -55.35 9.65 -55.8 9.4 -56.3 9.65 -56.7 10.05 -56.85 9.95 -56.25 M17.0 -59.4 Q17.1 -59.65 17.6 -59.4 L17.3 -59.3 17.0 -59.4 M17.1 -58.0 L17.15 -57.7 16.55 -56.95 16.7 -56.45 17.0 -56.1 18.1 -55.75 18.7 -55.6 Q19.7 -55.6 19.65 -56.3 19.45 -57.15 19.6 -57.35 21.1 -58.55 21.5 -58.55 L21.55 -58.6 21.6 -58.25 Q21.6 -57.9 20.6 -56.45 21.6 -56.35 21.6 -55.4 L21.3 -54.95 21.0 -54.25 21.7 -54.35 21.75 -54.4 21.8 -54.05 Q21.8 -53.15 21.0 -53.0 L20.0 -53.15 19.55 -53.3 18.95 -53.1 18.4 -52.8 17.9 -52.85 16.8 -53.6 Q16.45 -53.75 16.45 -54.2 L16.65 -54.8 16.85 -55.3 Q16.65 -55.6 15.9 -55.7 L15.85 -56.25 Q15.85 -57.5 17.05 -57.9 L17.1 -58.0 M17.2 -58.6 L17.8 -58.4 17.3 -58.05 17.0 -58.35 17.2 -58.6 M10.7 -57.05 L10.0 -57.2 10.2 -57.4 10.8 -57.2 10.7 -57.05 M11.8 -57.4 Q11.7 -57.25 11.3 -57.25 L11.2 -57.7 11.65 -57.7 11.8 -57.4 M14.55 -56.6 L14.6 -57.0 14.9 -57.0 15.3 -56.4 14.65 -56.2 14.55 -56.6 M26.25 -59.15 L27.05 -58.55 26.6 -58.35 Q26.15 -58.4 26.15 -58.7 L26.2 -59.1 26.25 -59.15 M27.35 -57.8 L27.2 -58.1 27.4 -58.2 Q28.15 -57.8 28.15 -57.4 L28.0 -56.9 28.6 -55.95 28.15 -54.5 29.1 -53.95 29.05 -53.9 29.2 -53.75 29.6 -53.35 Q30.0 -53.35 30.45 -53.8 30.85 -54.25 31.1 -54.15 L31.15 -54.25 31.2 -53.95 30.7 -52.65 29.6 -52.4 28.9 -52.45 Q28.65 -53.15 28.8 -53.35 L28.1 -53.55 28.2 -53.8 27.7 -53.9 Q27.45 -54.05 27.35 -54.85 27.3 -55.6 26.4 -56.0 L26.8 -56.55 Q26.7 -56.6 26.7 -56.8 L26.4 -56.95 25.2 -56.65 25.0 -56.3 24.3 -55.45 23.0 -55.6 Q24.8 -58.0 25.8 -58.0 L26.35 -57.85 27.0 -57.45 27.4 -57.5 27.35 -57.8 M21.75 -59.8 Q21.65 -59.55 21.05 -59.55 L20.7 -59.6 20.7 -60.0 21.75 -59.95 21.75 -59.8 M31.6 -55.8 L31.55 -55.5 31.05 -55.4 30.95 -55.55 31.25 -55.95 31.6 -55.8 M32.45 -55.75 L32.45 -55.45 32.25 -55.0 31.6 -54.45 31.3 -54.55 Q31.55 -55.5 32.3 -55.8 L32.45 -55.75 M32.3 -58.2 L32.5 -57.95 Q32.3 -57.65 31.9 -57.65 L31.8 -58.1 32.3 -58.2 M38.2 -47.55 L37.65 -47.6 37.55 -48.15 38.5 -47.95 38.6 -47.8 38.2 -47.55 M35.9 -46.55 L35.6 -46.45 Q35.25 -46.5 35.25 -46.9 L35.45 -46.9 35.9 -46.55 M36.2 -48.2 L36.7 -48.35 36.9 -48.2 36.5 -48.1 36.2 -48.2 M36.2 -45.15 L35.6 -45.8 35.65 -45.95 36.55 -45.7 36.55 -45.4 36.2 -45.15 M38.4 -45.35 L38.9 -45.4 39.15 -44.95 39.15 -44.85 38.5 -44.8 Q38.35 -44.7 38.35 -45.2 L38.4 -45.45 38.4 -45.35 M39.2 -44.45 Q39.6 -44.4 39.8 -44.1 L39.85 -43.95 39.4 -43.7 39.0 -43.7 38.9 -44.0 Q38.9 -44.3 39.05 -44.4 L39.2 -44.45 M40.15 -44.8 L40.65 -44.8 40.95 -44.95 41.4 -44.9 41.45 -44.75 41.45 -44.55 40.8 -44.35 Q40.25 -44.4 40.15 -44.55 L40.15 -44.8 M39.5 -40.35 L39.55 -40.0 39.35 -39.7 39.15 -39.4 39.35 -39.3 39.7 -38.75 39.6 -38.65 38.9 -38.7 Q38.65 -39.2 38.65 -39.7 L38.95 -40.05 39.45 -40.3 39.5 -40.35 M40.05 -42.1 L40.1 -41.95 39.7 -41.65 39.6 -42.1 40.05 -42.1 M40.4 -37.4 Q40.4 -36.95 40.8 -36.5 L41.2 -35.9 40.9 -35.15 40.6 -34.35 Q40.6 -34.05 41.45 -33.05 L42.45 -32.05 Q43.05 -32.05 43.8 -33.05 L45.0 -34.2 Q46.9 -33.3 47.4 -35.05 L47.95 -37.55 Q47.35 -37.75 47.35 -38.4 L47.95 -39.95 Q48.55 -41.05 48.9 -41.2 L49.0 -41.25 49.05 -40.9 48.65 -40.0 48.2 -38.8 Q48.2 -38.7 48.55 -38.65 48.8 -38.45 48.45 -37.75 L48.8 -37.8 49.3 -37.75 49.4 -37.0 Q49.4 -36.6 48.85 -35.95 L48.55 -35.4 49.0 -35.6 49.3 -35.35 48.9 -35.1 Q48.6 -34.95 48.65 -34.7 L49.0 -34.05 48.65 -32.95 Q48.25 -32.3 47.6 -32.0 L46.9 -32.05 Q46.6 -32.35 46.6 -32.75 L45.8 -32.7 44.8 -31.95 44.35 -31.2 44.3 -30.45 44.1 -29.55 43.5 -28.95 42.8 -28.1 Q42.75 -27.25 42.4 -26.75 L41.95 -25.65 41.25 -24.55 Q39.55 -23.45 40.5 -22.65 L40.0 -21.85 39.45 -21.3 38.5 -21.3 Q38.25 -21.55 38.25 -21.75 L37.5 -21.75 37.0 -21.4 36.6 -21.2 35.7 -21.25 34.45 -22.15 34.4 -23.2 32.65 -24.2 Q31.65 -24.65 31.65 -25.15 L32.05 -26.3 32.5 -26.35 32.45 -25.75 33.2 -25.05 35.3 -24.95 35.6 -24.5 37.2 -24.5 38.0 -24.7 Q38.4 -24.9 38.6 -25.4 L39.2 -26.0 40.25 -25.75 40.4 -25.75 40.55 -26.0 40.85 -26.7 40.6 -28.2 40.25 -29.35 39.6 -29.8 39.05 -30.0 38.6 -29.85 38.15 -29.75 38.25 -29.6 38.35 -29.15 38.3 -28.85 38.2 -28.85 37.2 -28.45 36.5 -28.55 35.8 -28.65 Q34.85 -28.55 34.85 -29.55 L35.1 -31.4 36.35 -32.85 Q36.35 -33.9 35.85 -34.4 35.0 -34.55 34.95 -34.9 35.1 -35.55 34.8 -35.95 L35.1 -36.15 35.65 -35.55 36.15 -34.85 37.1 -34.75 37.5 -33.65 Q37.7 -33.2 38.35 -33.2 38.95 -33.2 39.1 -33.5 L39.6 -33.95 39.4 -34.7 39.6 -35.15 39.8 -35.6 39.6 -36.0 39.4 -36.45 40.1 -38.75 Q40.4 -38.45 40.4 -37.4 M25.0 -38.0 L24.6 -37.55 24.25 -37.55 24.15 -37.9 Q24.15 -38.3 24.6 -38.55 L25.0 -38.0 M25.8 -40.0 L26.3 -40.25 Q26.6 -40.35 26.45 -39.95 L26.2 -39.8 Q25.9 -39.85 25.8 -40.0 M28.75 -31.8 L29.8 -31.8 Q30.8 -32.05 31.0 -32.8 31.25 -33.75 31.6 -34.0 L32.1 -33.95 Q32.5 -34.05 32.55 -34.5 L32.7 -35.15 33.1 -35.15 33.2 -34.65 32.75 -33.8 32.3 -33.2 32.25 -32.95 32.45 -32.6 32.65 -32.15 32.4 -31.55 Q32.15 -31.25 31.9 -31.25 L31.75 -31.25 31.5 -31.05 Q31.15 -30.75 31.15 -30.35 31.15 -29.95 30.7 -29.7 L29.8 -29.05 29.05 -29.2 27.5 -29.3 Q27.15 -29.8 27.15 -30.35 L26.9 -30.9 26.65 -31.25 Q24.5 -30.85 24.25 -30.35 24.1 -30.05 24.35 -29.4 24.35 -28.85 23.0 -28.1 21.8 -27.45 21.4 -27.45 20.9 -27.45 20.8 -27.8 L20.8 -28.4 19.5 -28.7 Q19.25 -28.95 19.25 -29.4 L18.7 -29.5 Q18.25 -29.7 18.25 -30.3 L18.3 -30.95 18.8 -31.65 18.65 -31.95 18.05 -32.25 17.9 -32.25 Q17.75 -32.35 17.7 -32.4 L17.6 -32.8 17.9 -33.65 18.4 -34.35 18.55 -33.45 19.3 -33.55 19.55 -32.2 Q19.6 -31.35 19.9 -30.85 L20.45 -30.85 20.55 -31.15 20.95 -31.3 21.35 -31.1 21.4 -30.85 22.2 -30.9 23.75 -33.1 23.85 -34.65 24.35 -35.05 24.85 -35.5 25.0 -36.15 25.8 -34.4 Q26.35 -33.15 26.0 -32.35 L26.75 -31.8 27.25 -31.85 27.4 -32.3 28.0 -32.55 Q28.9 -32.55 28.75 -31.8 M24.35 -36.95 L25.25 -37.25 25.25 -36.95 25.1 -36.8 24.35 -36.95 M21.6 -32.0 Q21.3 -32.05 21.2 -32.2 L21.7 -32.45 Q22.0 -32.55 21.85 -32.15 L21.6 -32.0 M32.95 -28.7 L32.7 -28.65 Q32.55 -28.85 32.55 -29.4 L33.05 -29.45 33.15 -29.25 32.95 -28.7 M32.7 -28.15 L32.7 -27.75 32.85 -27.5 Q32.55 -27.2 32.05 -27.2 L31.85 -27.8 31.9 -28.1 32.7 -28.15 M11.65 -46.55 L11.55 -45.95 Q11.55 -45.25 11.85 -45.1 L12.15 -44.9 Q12.15 -44.65 11.95 -44.6 L11.75 -44.35 11.95 -43.9 12.15 -43.45 11.85 -42.8 11.2 -42.45 Q10.65 -42.15 10.2 -42.6 9.7 -42.6 8.8 -41.9 L8.65 -41.95 8.65 -42.3 Q8.65 -42.65 9.2 -43.3 9.9 -44.1 10.8 -43.7 10.8 -44.3 11.05 -44.55 L10.4 -45.2 Q10.4 -45.55 10.9 -46.15 11.35 -46.75 11.25 -47.3 L11.45 -47.3 11.65 -46.55 M11.95 -48.75 L12.45 -48.65 12.5 -48.35 Q12.4 -48.2 12.05 -48.15 11.9 -47.9 11.9 -48.4 L11.95 -48.75 M10.3 -40.85 L9.95 -41.6 10.4 -41.85 10.9 -41.75 11.0 -41.45 10.95 -41.05 10.3 -40.85 M10.9 -40.35 L10.85 -39.45 Q10.85 -39.4 11.2 -39.2 L11.55 -38.8 10.95 -37.4 11.0 -36.65 Q11.15 -36.3 11.8 -35.8 L12.65 -35.85 Q12.65 -36.25 13.0 -36.55 L13.6 -36.75 14.25 -36.7 14.35 -36.25 Q14.75 -36.15 15.25 -36.55 15.8 -37.0 16.45 -37.05 L16.4 -37.65 16.6 -38.15 16.8 -38.55 Q16.65 -38.8 16.65 -39.3 16.65 -39.65 17.1 -40.05 17.55 -40.5 18.1 -40.35 L17.75 -39.6 17.55 -38.8 Q17.55 -38.25 18.15 -36.9 L18.0 -36.65 17.35 -36.55 Q17.05 -36.25 17.1 -35.85 L17.15 -35.2 Q17.15 -34.6 16.5 -34.0 L15.2 -32.85 14.05 -33.05 Q13.3 -33.15 13.05 -33.75 L12.5 -33.6 12.0 -33.5 10.9 -33.55 Q10.6 -33.55 10.5 -34.0 L10.3 -34.6 9.3 -35.5 Q9.3 -36.05 10.25 -37.3 L9.45 -38.25 9.25 -38.65 Q9.25 -39.6 10.45 -40.35 L10.9 -40.35 M17.75 -40.95 L17.7 -41.3 Q17.7 -42.15 18.2 -42.45 L19.0 -42.2 Q18.4 -41.05 17.9 -40.85 L17.75 -40.95 M8.2 -47.45 L7.95 -47.45 7.85 -47.8 7.9 -48.1 8.45 -48.05 8.55 -47.75 8.2 -47.45 M0.0 -43.55 L0.15 -43.4 0.0 -43.25 -2.3 -43.7 -2.6 -44.45 -2.55 -44.9 -3.15 -45.95 -2.85 -46.5 -2.4 -47.0 -1.95 -46.9 -1.9 -46.7 Q-2.35 -46.45 -2.35 -45.75 -2.35 -45.1 -1.75 -44.75 -1.3 -44.45 -0.95 -44.5 L-0.65 -43.8 0.0 -43.55 M0.15 -43.4 L0.15 -43.45 Q0.15 -43.85 0.65 -43.85 L0.85 -43.4 0.6 -43.15 0.25 -43.2 Q0.15 -42.95 0.15 -43.4 M1.35 -42.9 L2.4 -43.5 2.55 -43.0 3.05 -42.85 3.5 -42.15 4.1 -41.95 7.3 -42.4 7.65 -42.85 7.75 -41.8 Q7.9 -41.2 6.7 -41.15 L6.75 -40.95 6.2 -40.2 5.6 -39.85 3.7 -39.9 2.8 -41.15 1.25 -41.25 Q0.85 -41.65 0.85 -42.0 0.85 -42.5 1.35 -42.9 M8.85 -35.1 L9.05 -34.75 9.15 -34.3 8.8 -32.5 8.35 -31.9 7.8 -31.65 7.3 -31.7 7.45 -32.3 7.25 -32.6 6.75 -32.55 Q6.15 -32.1 6.15 -31.65 L5.6 -31.75 4.85 -31.6 4.2 -31.2 2.65 -31.45 Q2.0 -32.1 2.0 -32.65 L2.65 -33.85 2.0 -34.4 3.3 -35.35 3.55 -34.8 4.05 -34.7 4.55 -34.0 5.15 -33.75 Q5.3 -33.6 5.55 -33.6 6.3 -33.6 7.05 -34.35 L7.65 -35.25 Q7.65 -36.15 6.7 -36.3 L6.65 -36.55 7.0 -37.05 7.65 -37.3 7.55 -36.7 Q7.55 -36.45 8.1 -35.8 L8.85 -35.1 M2.95 -35.7 L3.0 -36.25 3.6 -36.15 3.65 -36.0 3.2 -35.6 2.95 -35.7 M2.1 -29.95 Q3.5 -29.25 3.5 -28.45 L3.2 -27.25 Q3.2 -27.0 3.75 -26.6 4.3 -26.25 4.3 -25.75 L4.55 -25.1 4.75 -24.5 Q4.75 -23.65 3.8 -23.1 L3.8 -23.85 3.9 -24.7 Q3.9 -25.55 2.9 -25.5 L2.5 -26.0 2.3 -26.05 2.5 -27.25 Q2.5 -27.9 1.75 -28.55 1.15 -28.6 0.95 -28.8 L0.6 -28.95 Q-0.05 -28.95 -0.2 -28.45 L-0.2 -27.95 -0.35 -27.7 -0.8 -27.4 -1.9 -27.45 -2.45 -28.35 -2.6 -28.85 -3.25 -29.6 -3.6 -30.05 Q-3.6 -30.85 -2.8 -31.4 -2.2 -31.8 -1.65 -31.85 L-1.4 -32.0 -1.1 -31.75 -2.0 -30.5 -1.45 -29.9 -0.2 -29.7 0.0 -30.0 2.1 -29.95 M5.2 -25.6 Q4.9 -25.65 4.8 -25.8 L5.3 -26.05 Q5.6 -26.15 5.45 -25.75 L5.2 -25.6 M5.9 -25.8 L6.25 -25.25 6.0 -24.95 5.65 -24.95 Q5.55 -25.0 5.55 -25.3 L5.65 -25.7 5.9 -25.8 M6.6 -24.95 L7.55 -24.0 8.45 -24.25 8.75 -24.7 9.2 -25.15 10.05 -25.1 Q10.55 -25.4 10.6 -26.0 L10.65 -26.95 10.9 -26.95 11.2 -26.5 11.15 -25.75 11.5 -25.15 11.75 -24.7 Q11.75 -23.6 11.05 -23.5 L10.2 -23.6 9.6 -23.05 8.6 -22.85 7.9 -22.9 Q7.6 -23.2 7.1 -23.3 L7.05 -24.2 6.6 -24.05 6.3 -24.05 6.2 -24.4 Q6.2 -24.7 6.35 -24.8 L6.6 -24.95 M19.85 -34.65 Q19.7 -34.2 19.25 -34.2 L19.15 -34.5 19.2 -34.8 19.7 -34.8 19.85 -34.65 M10.25 -28.2 L10.15 -28.6 10.8 -28.4 10.25 -28.2 M3.0 -24.4 L2.75 -24.6 2.85 -24.95 Q3.15 -24.95 3.25 -24.65 L3.0 -24.4 M3.4 -23.95 L3.4 -23.05 Q3.2 -22.45 2.35 -21.95 1.65 -21.55 1.1 -21.45 1.0 -21.25 1.0 -21.75 1.0 -22.2 1.5 -22.6 2.0 -23.0 2.55 -23.05 L3.0 -24.0 3.4 -23.95 M3.7 -21.75 Q2.5 -20.7 3.2 -19.95 2.0 -19.05 2.0 -18.55 2.0 -18.35 2.35 -18.05 2.75 -17.7 3.3 -17.55 L4.15 -16.5 4.4 -16.35 5.0 -16.25 5.8 -16.85 Q6.75 -17.35 7.6 -16.85 L8.2 -16.9 8.4 -17.0 8.7 -17.5 8.85 -17.5 9.0 -17.2 8.5 -16.45 8.5 -16.3 8.1 -15.7 Q7.65 -15.35 7.2 -15.25 L5.65 -14.7 4.8 -14.4 3.5 -14.45 2.65 -14.95 Q2.25 -15.2 2.4 -15.75 L0.7 -16.05 0.4 -16.3 0.2 -16.8 0.5 -17.5 1.05 -18.5 Q1.35 -19.15 1.1 -19.8 L1.4 -19.95 1.3 -19.95 Q1.45 -20.45 2.6 -20.85 2.45 -20.9 2.45 -21.4 2.45 -21.7 2.8 -21.9 L3.7 -21.75 M1.75 -23.65 L1.8 -23.95 Q2.15 -23.95 2.3 -23.75 L1.85 -23.4 Q1.75 -23.15 1.75 -23.65 M0.65 -22.65 L0.7 -22.35 0.3 -22.25 0.2 -22.7 0.65 -22.65 M0.5 -21.5 Q0.5 -21.05 -0.7 -20.2 L-2.05 -19.2 Q-1.85 -18.6 -2.65 -18.1 L-4.2 -17.4 -5.35 -17.45 -5.85 -18.25 Q-6.2 -18.6 -7.7 -18.85 L-7.8 -19.75 -7.65 -20.65 -7.55 -20.85 -7.7 -21.45 -7.4 -21.55 -7.15 -21.3 -6.95 -21.45 -7.15 -20.5 -7.15 -20.2 -7.0 -20.25 -6.3 -20.15 Q-6.15 -19.95 -6.15 -19.4 -6.0 -19.0 -5.45 -19.0 L-4.65 -19.15 -3.75 -19.25 -3.15 -20.05 Q-2.9 -20.45 -2.4 -20.55 -1.25 -20.75 -0.25 -21.2 L0.45 -21.85 0.5 -21.5 M9.0 -18.15 Q8.7 -18.25 8.6 -18.4 L8.95 -18.7 9.25 -18.35 9.0 -18.15 M40.1 -20.85 L40.3 -20.25 40.0 -20.1 Q39.45 -20.15 39.3 -20.3 39.6 -20.85 40.1 -20.85 M39.1 -20.15 L38.6 -19.7 Q38.25 -19.75 38.1 -19.9 38.35 -20.3 38.9 -20.45 L39.1 -20.15 M40.15 -18.95 Q41.4 -18.95 41.5 -19.8 L41.35 -20.7 41.55 -21.45 Q41.8 -21.75 42.8 -22.1 L43.2 -23.0 43.2 -23.25 43.1 -23.05 42.9 -23.05 42.8 -23.1 42.75 -23.45 43.0 -23.9 43.4 -24.55 43.5 -24.85 44.1 -25.35 44.15 -25.45 44.2 -25.15 44.0 -24.3 43.8 -23.5 44.1 -22.65 44.4 -21.9 Q44.4 -21.05 43.8 -19.9 43.05 -18.45 42.0 -18.7 41.75 -18.5 41.55 -17.55 41.4 -16.9 40.2 -16.6 L39.7 -16.65 Q39.0 -17.35 39.0 -18.0 39.0 -18.95 39.6 -19.4 L39.75 -19.1 Q39.85 -18.95 40.15 -18.95 M32.05 -20.35 L32.15 -19.9 31.4 -18.8 30.9 -19.5 31.2 -20.05 31.85 -20.7 32.05 -20.35 M31.1 -21.0 L30.85 -21.0 30.75 -21.55 31.3 -21.45 31.1 -21.0 M34.4 -15.9 Q34.55 -15.75 34.15 -15.75 33.8 -15.75 33.6 -16.0 L32.7 -15.95 Q32.2 -15.75 31.65 -14.85 31.1 -13.9 30.8 -13.7 30.65 -13.85 30.9 -14.55 L30.3 -14.7 Q30.05 -15.0 30.05 -15.55 30.05 -16.1 30.4 -16.35 31.55 -16.55 31.55 -17.15 31.4 -17.85 31.6 -18.2 L31.9 -18.15 31.95 -17.8 Q31.95 -17.3 32.05 -17.65 L32.4 -18.05 32.6 -17.0 32.85 -16.85 34.1 -16.95 34.4 -15.9 M31.4 -12.75 L31.4 -11.4 30.35 -10.35 30.6 -10.25 30.8 -9.85 Q30.8 -8.65 28.4 -8.15 L27.25 -8.55 24.8 -8.15 23.45 -8.9 Q23.0 -9.25 23.0 -9.7 L23.3 -10.2 23.6 -10.65 23.45 -11.1 23.2 -11.4 23.3 -11.7 Q23.65 -11.65 23.85 -11.4 L24.45 -10.85 25.4 -11.0 26.3 -10.95 26.65 -10.5 Q26.8 -10.3 27.0 -10.2 28.9 -10.25 30.05 -11.45 L31.0 -12.8 31.4 -12.75 M37.45 -17.7 L37.6 -17.4 37.0 -16.8 Q36.5 -16.85 36.4 -17.0 L37.45 -17.7 M37.2 -14.05 L39.3 -13.95 39.65 -13.35 Q41.15 -13.85 41.9 -14.85 L42.7 -16.7 Q42.9 -17.25 43.25 -17.4 43.9 -17.65 44.35 -18.0 L44.9 -18.95 44.9 -19.75 44.95 -20.15 45.5 -20.4 Q46.2 -19.7 46.3 -18.55 46.3 -17.65 45.8 -16.6 45.15 -15.1 43.95 -15.3 L43.6 -15.1 43.85 -13.9 Q43.85 -13.1 42.8 -12.6 L41.85 -11.45 Q40.8 -10.35 39.6 -10.35 L38.5 -10.45 Q38.0 -10.95 38.0 -11.5 L36.45 -11.6 35.85 -12.15 35.55 -12.65 36.15 -13.65 35.95 -14.05 35.6 -14.15 36.1 -14.75 Q36.5 -14.75 37.2 -14.05 M39.25 -15.35 Q39.25 -15.95 40.05 -15.65 L40.15 -15.05 39.6 -14.85 39.35 -14.95 39.25 -15.35 M22.95 -21.9 L22.7 -21.85 22.6 -22.3 23.0 -22.2 22.95 -21.9 M21.85 -21.8 L21.75 -22.55 22.3 -22.45 22.3 -22.0 Q22.2 -21.85 21.85 -21.8 M22.7 -19.05 L22.4 -18.95 22.05 -19.0 21.95 -19.15 21.95 -19.4 22.7 -19.25 22.7 -19.05 M21.9 -18.35 L22.25 -17.8 22.2 -17.5 22.0 -17.35 21.45 -17.4 Q21.35 -17.2 21.35 -17.7 21.35 -18.15 21.9 -18.35 M20.55 -12.85 Q20.4 -13.0 20.4 -13.4 L20.7 -14.0 20.65 -15.05 20.85 -15.1 Q21.25 -15.05 21.85 -13.95 22.45 -12.9 23.8 -12.6 L23.7 -12.45 22.5 -12.45 Q20.95 -12.4 20.55 -12.85 M22.4 -18.4 Q22.7 -18.8 23.1 -18.6 L22.8 -18.2 Q22.5 -18.25 22.4 -18.4 M29.55 -12.9 L29.65 -12.55 29.0 -11.1 28.45 -11.2 Q28.3 -11.25 28.3 -11.6 28.3 -12.15 29.45 -12.85 L29.55 -12.9 M30.0 -12.75 Q29.7 -12.85 29.6 -13.0 L29.85 -13.25 30.25 -13.25 30.0 -12.75 M30.2 -12.7 L30.6 -12.6 30.55 -12.3 30.3 -12.25 30.2 -12.7 M70.25 -34.1 Q70.0 -33.5 70.65 -32.9 L71.4 -31.75 70.75 -31.2 70.95 -30.85 71.1 -30.6 71.5 -30.95 72.7 -31.9 72.6 -32.2 73.0 -32.6 73.4 -32.8 74.3 -32.75 74.35 -32.85 74.4 -32.55 Q74.4 -32.2 74.0 -31.9 73.6 -31.6 73.6 -31.3 73.6 -30.8 72.7 -30.3 71.75 -29.75 71.75 -29.2 L71.95 -28.55 72.15 -27.9 Q72.15 -27.6 71.4 -26.85 69.35 -27.95 69.85 -29.1 L69.05 -29.25 68.5 -29.05 Q68.4 -28.85 68.4 -29.35 L68.6 -29.8 68.9 -29.95 69.5 -29.8 70.0 -29.7 70.5 -30.05 70.25 -30.2 69.9 -30.45 Q69.6 -30.5 69.6 -31.15 L69.65 -31.65 70.6 -32.0 Q69.75 -32.85 69.65 -33.75 L69.7 -34.05 70.25 -34.1 M69.8 -34.4 L69.35 -34.6 69.1 -34.9 70.1 -34.95 70.2 -34.8 69.8 -34.4 M62.1 -34.1 L62.1 -33.65 61.8 -33.5 61.45 -33.5 Q61.35 -33.55 61.35 -33.85 L61.55 -34.2 62.1 -34.1 M62.35 -31.9 L61.95 -32.85 62.2 -33.25 62.85 -32.4 63.2 -31.35 Q63.2 -30.7 63.6 -30.35 L64.0 -29.7 63.65 -28.75 63.2 -27.8 63.35 -27.5 64.2 -27.5 64.5 -27.95 64.7 -27.8 64.9 -27.9 65.25 -27.85 Q66.15 -27.95 66.45 -28.4 L66.8 -29.0 Q67.8 -28.85 67.8 -28.3 L67.25 -27.4 67.25 -27.15 66.75 -27.05 65.8 -27.05 65.4 -26.4 65.45 -25.8 Q65.45 -24.65 62.4 -24.15 L61.9 -23.6 61.4 -23.2 60.75 -23.35 60.0 -23.3 Q59.85 -22.7 60.15 -22.1 60.65 -21.3 62.1 -20.95 L62.0 -20.05 62.1 -19.7 62.25 -19.65 62.85 -19.45 63.4 -19.5 64.0 -20.1 Q64.4 -20.55 64.6 -20.6 65.2 -20.55 65.2 -20.35 L65.25 -21.35 Q65.3 -22.05 65.7 -22.15 66.25 -21.25 65.8 -19.9 L66.3 -19.75 Q66.65 -19.15 66.65 -18.55 L66.55 -17.5 Q66.3 -16.6 65.25 -16.65 L65.15 -15.9 64.6 -15.15 63.65 -15.0 Q63.15 -15.15 63.1 -15.25 L62.7 -15.5 62.05 -14.55 60.85 -13.05 Q60.85 -12.7 61.35 -12.25 L61.85 -11.7 Q61.85 -10.95 59.4 -9.55 L58.8 -9.0 58.8 -8.45 57.2 -7.75 Q57.0 -7.75 56.85 -7.9 L56.45 -8.35 55.8 -7.75 53.9 -8.25 Q53.15 -8.65 53.15 -9.7 L53.0 -11.1 50.5 -11.25 49.8 -12.6 49.8 -13.0 50.85 -13.1 51.0 -12.35 52.25 -12.1 Q52.9 -12.05 53.2 -12.45 L53.8 -13.05 55.9 -12.6 56.05 -11.7 57.9 -11.55 Q58.85 -11.55 58.9 -12.7 L58.75 -13.9 59.15 -14.8 59.55 -16.0 60.45 -16.05 60.45 -16.7 60.6 -17.45 60.1 -18.35 59.8 -18.65 59.4 -18.75 Q59.05 -18.85 58.95 -19.45 L57.6 -19.45 57.0 -19.35 56.65 -18.95 57.2 -18.5 57.25 -18.3 55.6 -17.45 53.9 -16.85 53.3 -16.85 Q52.8 -17.15 52.85 -17.5 L53.0 -18.15 52.3 -18.25 Q51.95 -18.6 51.65 -19.65 L51.4 -20.95 51.6 -21.55 51.8 -22.0 51.75 -22.25 51.6 -22.3 51.55 -22.75 51.65 -22.85 51.7 -23.15 51.7 -23.05 51.8 -23.05 52.2 -23.9 Q52.2 -24.85 51.75 -25.5 51.25 -26.2 50.45 -25.65 49.8 -26.35 49.8 -26.7 49.8 -27.35 50.6 -28.05 L50.4 -28.75 Q48.8 -28.7 48.45 -28.3 L48.1 -27.6 48.15 -27.2 47.55 -26.75 46.5 -26.3 46.4 -26.7 46.3 -26.25 45.9 -26.25 Q45.8 -26.05 45.8 -26.55 L46.1 -27.0 46.8 -27.05 Q47.4 -27.05 47.55 -27.5 L47.8 -28.05 47.8 -28.15 Q47.8 -28.7 48.35 -29.2 48.95 -29.8 49.0 -30.15 L49.2 -31.1 Q49.45 -31.6 50.2 -31.8 L50.7 -31.75 51.2 -31.1 51.75 -31.1 52.0 -31.5 52.25 -32.1 52.05 -32.4 51.8 -32.4 52.05 -32.65 52.6 -33.05 52.6 -33.65 53.3 -34.75 53.6 -31.0 Q53.75 -29.0 55.3 -28.75 L55.55 -28.3 Q55.55 -28.05 56.1 -27.95 L56.15 -28.0 56.2 -27.65 55.9 -26.95 55.55 -26.3 Q55.55 -26.0 56.1 -25.45 L57.6 -25.5 Q57.8 -25.65 57.8 -26.35 L59.4 -26.5 60.25 -27.7 Q60.5 -28.25 62.1 -28.35 62.6 -28.85 62.6 -29.85 62.6 -30.8 61.9 -30.85 61.8 -30.65 61.8 -31.15 L62.1 -31.55 62.35 -31.9 M64.95 -27.5 L64.75 -27.65 64.75 -27.5 64.95 -27.5 M80.8 -35.8 L81.4 -35.6 80.95 -34.4 80.3 -33.05 79.1 -33.05 79.0 -33.2 77.2 -33.8 77.3 -33.9 76.9 -33.6 77.25 -33.4 77.35 -33.1 Q76.7 -33.05 76.4 -32.8 L75.9 -32.85 Q75.8 -32.65 75.8 -33.15 L76.1 -33.5 76.25 -33.6 76.25 -33.75 76.55 -34.1 76.85 -34.2 Q76.5 -34.7 76.0 -34.65 L75.5 -34.7 75.45 -35.15 Q75.45 -35.85 75.8 -35.85 L76.45 -35.85 76.4 -35.4 76.45 -35.25 77.1 -35.15 77.75 -34.4 77.35 -33.95 78.65 -34.5 79.8 -34.85 80.35 -34.9 Q80.45 -35.55 80.8 -35.8 M76.3 -36.25 L75.85 -36.2 75.75 -36.6 75.8 -37.0 76.1 -37.0 76.45 -36.55 76.3 -36.25 M75.5 -24.9 L75.4 -24.65 Q75.1 -24.65 75.0 -24.8 L75.25 -24.95 75.5 -24.9 M52.9 -37.55 L52.9 -37.2 Q52.85 -37.1 52.15 -36.9 L52.25 -36.55 51.55 -36.0 51.1 -35.75 Q50.75 -35.75 50.55 -36.1 L50.4 -36.45 50.8 -37.6 52.9 -37.55 M52.7 -38.8 L52.85 -38.65 52.6 -38.25 52.15 -38.5 52.7 -38.8 M59.6 -41.2 L59.4 -40.8 Q59.1 -40.85 59.0 -41.0 59.3 -41.45 59.6 -41.2 M59.05 -38.75 Q59.1 -38.95 59.5 -38.95 L59.7 -37.9 59.1 -36.9 58.85 -36.95 58.75 -37.15 Q58.15 -37.1 57.45 -36.3 56.7 -35.55 55.8 -35.45 L55.1 -35.5 53.95 -36.85 53.85 -37.0 54.0 -37.15 55.3 -37.0 56.8 -37.0 57.7 -37.35 58.75 -37.7 Q59.2 -38.35 59.05 -38.75 M58.35 -39.35 L58.35 -39.6 59.1 -39.6 59.3 -39.45 59.0 -39.15 Q58.45 -39.2 58.35 -39.35 M43.2 -49.3 L43.65 -49.2 43.7 -49.3 43.75 -49.0 Q43.75 -48.5 43.6 -48.8 43.2 -48.85 43.2 -49.3 M43.6 -47.25 L44.05 -47.05 Q44.0 -46.9 43.65 -46.85 L43.4 -47.15 Q43.4 -47.3 43.6 -47.25 M41.9 -46.25 L42.0 -46.2 42.55 -45.8 Q42.5 -45.65 42.2 -45.6 L41.9 -45.6 41.8 -45.95 41.9 -46.25 M41.9 -44.6 Q41.9 -44.95 42.2 -44.95 L42.65 -44.85 Q42.5 -44.4 42.05 -44.35 41.9 -44.1 41.9 -44.6 M41.2 -38.95 Q40.85 -39.0 40.75 -39.15 L40.75 -39.4 41.45 -39.25 41.2 -38.95 M49.85 -42.05 L49.85 -41.6 49.25 -41.4 49.05 -41.85 Q49.55 -42.25 49.85 -42.05 M59.9 -36.75 L59.0 -36.35 58.9 -36.45 59.4 -36.9 59.9 -36.75 M41.05 -16.0 L40.95 -16.3 Q41.2 -16.55 41.45 -16.15 L41.05 -16.0 M49.35 -16.2 L49.8 -16.1 49.85 -15.8 Q49.8 -15.65 49.45 -15.6 L49.35 -16.2 M49.8 -17.8 Q49.9 -18.05 50.4 -17.8 L50.1 -17.7 49.8 -17.8 M49.8 -14.15 L49.3 -14.55 Q49.3 -14.9 49.6 -15.0 L50.1 -14.6 49.8 -14.15 M46.6 -4.15 Q47.05 -4.65 47.5 -4.55 L47.4 -3.6 Q47.4 -3.1 48.7 -2.95 L49.05 -1.9 49.0 -1.3 Q49.0 -0.8 49.6 -0.85 L51.0 -0.9 51.8 -1.8 52.7 -1.7 Q53.1 -2.05 53.1 -2.55 L53.5 -2.55 53.8 -1.5 53.8 -1.2 53.45 -1.3 53.25 -1.3 53.45 -0.9 52.95 -0.4 51.9 0.4 50.75 0.45 50.2 0.6 48.85 0.55 Q48.0 -0.25 48.0 -0.65 48.0 -0.95 48.15 -1.1 L48.4 -1.25 46.75 -2.2 46.3 -2.85 46.2 -3.2 46.6 -4.15 M47.4 -4.95 Q46.95 -5.0 46.95 -5.3 L47.4 -5.45 47.8 -5.2 Q47.7 -5.05 47.4 -4.95 M59.7 -7.75 L59.75 -7.4 59.2 -6.0 Q59.2 -5.75 59.9 -5.15 L60.75 -4.25 60.65 -3.35 Q60.55 -2.95 61.45 -2.65 63.05 -2.65 63.05 -3.05 63.05 -3.3 64.2 -3.05 64.4 -2.85 64.4 -3.35 L64.2 -3.85 64.0 -4.4 Q64.0 -5.0 64.8 -5.35 65.6 -5.75 65.6 -6.4 L65.25 -6.95 Q64.9 -7.4 65.0 -7.65 L65.2 -7.8 65.8 -7.0 Q66.2 -6.45 66.0 -6.1 67.7 -6.7 67.8 -7.15 67.55 -7.65 67.55 -8.1 L67.8 -8.7 68.4 -9.0 68.55 -8.45 69.2 -8.4 69.7 -8.35 70.0 -7.85 70.2 -7.25 Q70.2 -6.5 69.6 -5.8 L69.3 -6.05 68.85 -6.3 Q68.45 -6.3 67.9 -5.8 L67.2 -5.1 67.75 -4.75 67.8 -4.3 Q67.8 -2.9 67.3 -1.65 66.5 0.2 64.8 0.6 L64.25 0.55 64.0 0.1 63.15 0.1 Q62.4 0.6 61.6 0.6 L59.3 0.55 58.9 -0.15 58.9 -0.65 58.6 -1.7 57.8 -1.95 56.15 -1.75 55.2 -1.4 54.5 -1.45 Q54.45 -1.6 54.55 -1.75 L54.65 -2.25 54.45 -2.55 54.2 -2.6 Q54.45 -3.55 55.0 -3.8 L55.65 -3.05 56.2 -3.05 57.15 -3.3 57.0 -3.4 56.95 -3.75 57.15 -4.3 Q57.5 -4.8 58.4 -4.5 58.65 -4.75 58.5 -6.15 58.35 -7.3 59.65 -7.7 L59.7 -7.75 M77.1 -24.6 Q77.65 -24.35 77.65 -23.8 77.65 -22.4 76.95 -21.9 L77.5 -21.75 77.3 -21.45 76.1 -21.45 75.75 -23.8 76.7 -23.65 Q76.9 -23.45 76.9 -23.95 L76.65 -24.3 76.35 -24.4 76.6 -24.65 77.1 -24.6 M77.15 -20.15 L77.65 -20.05 78.05 -20.1 78.75 -19.9 78.8 -18.9 79.0 -18.8 80.2 -19.1 80.4 -19.85 Q80.4 -20.15 81.4 -20.3 L81.6 -21.55 82.15 -20.7 Q82.15 -20.25 81.4 -19.45 L81.35 -19.4 82.1 -19.4 82.15 -19.45 82.2 -19.15 81.95 -18.15 Q81.6 -17.4 81.0 -17.4 L80.65 -17.45 80.6 -17.55 80.1 -17.65 80.0 -18.4 78.75 -18.3 76.7 -18.65 Q76.6 -18.45 76.6 -18.95 L76.7 -20.9 77.25 -20.9 77.15 -20.15 M74.85 -12.7 L75.8 -12.7 76.45 -13.25 76.95 -13.75 77.0 -14.15 76.3 -14.25 76.0 -14.4 75.8 -14.85 76.0 -15.45 76.3 -15.95 76.5 -15.95 76.6 -15.2 76.8 -15.05 77.6 -15.1 78.0 -16.5 77.8 -16.95 77.6 -17.15 77.9 -17.15 78.5 -16.3 78.45 -15.5 78.35 -15.05 78.25 -14.6 78.4 -14.2 78.55 -13.7 Q78.55 -13.3 78.1 -12.85 L77.0 -11.85 75.75 -11.95 74.75 -11.25 73.8 -10.45 71.5 -10.5 71.3 -10.65 71.25 -11.05 71.55 -11.4 72.45 -11.7 74.0 -11.7 74.35 -12.15 74.4 -12.75 74.85 -12.7 M65.3 -8.6 L65.25 -8.45 65.0 -8.3 64.45 -8.35 Q64.3 -8.1 64.3 -8.6 64.3 -9.0 64.9 -9.2 L65.3 -8.6 M-3.55 -50.1 L-2.9 -49.35 -3.1 -49.05 -3.75 -49.0 -3.9 -49.7 Q-3.9 -50.1 -3.55 -50.1 M-1.0 -47.15 Q-1.35 -47.2 -1.45 -47.35 L-1.45 -47.6 -0.75 -47.45 -1.0 -47.15" fill="#afbfc2" fill-rule="evenodd" stroke="none"/>
    </g>
  </defs>
</svg>
