<?xml version="1.0" encoding="UTF-8" standalone="no"?>
<svg xmlns:ffdec="https://www.free-decompiler.com/flash" xmlns:xlink="http://www.w3.org/1999/xlink" ffdec:objectType="frame" height="146.1px" width="102.8px" xmlns="http://www.w3.org/2000/svg">
  <g transform="matrix(1.0, 0.0, 0.0, 1.0, 14.25, 122.8)">
    <use ffdec:characterId="72" height="116.2" transform="matrix(1.0, 0.0, 0.0, 1.0, -12.6, -109.75)" width="82.25" xlink:href="#shape0"/>
  </g>
  <defs>
    <g id="shape0" transform="matrix(1.0, 0.0, 0.0, 1.0, 12.6, 109.75)">
      <path d="M14.1 -100.0 L11.8 -89.5 11.8 -83.5 13.05 -84.75 13.3 -81.1 13.0 -75.95 12.3 -68.7 14.55 -70.25 Q15.0 -68.3 14.3 -66.2 L14.3 -63.5 16.05 -63.25 16.3 -64.05 16.65 -64.75 19.55 -64.75 Q20.75 -62.9 21.4 -60.25 L23.9 -60.25 Q25.15 -61.75 25.65 -62.95 L28.4 -65.25 29.05 -67.3 Q29.6 -68.75 31.4 -69.5 35.0 -71.0 36.6 -74.05 L38.9 -79.25 45.05 -89.25 46.9 -92.6 46.75 -92.2 49.05 -96.2 44.1 -84.95 Q41.1 -78.2 40.3 -73.7 L40.8 -73.0 Q41.8 -73.3 44.3 -76.55 47.0 -80.05 49.05 -81.25 L49.2 -81.45 49.3 -80.75 Q49.3 -80.0 47.3 -77.1 L44.8 -73.45 Q43.2 -70.6 43.15 -70.0 43.0 -68.8 42.15 -66.7 L38.2 -58.95 Q35.4 -53.8 35.4 -53.2 L35.6 -52.1 35.65 -51.7 Q38.1 -52.95 40.2 -55.55 42.95 -58.95 43.9 -59.75 L44.05 -59.9 44.15 -59.1 41.8 -54.4 Q41.8 -53.15 41.9 -54.0 L43.4 -54.95 44.55 -54.75 45.05 -54.3 45.3 -53.15 Q45.3 -51.4 43.8 -48.95 L44.9 -48.7 47.95 -49.6 Q49.55 -50.2 50.65 -51.7 L51.65 -50.85 51.65 -50.5 Q53.25 -51.7 56.25 -54.3 L57.8 -55.6 63.6 -62.35 Q67.5 -66.9 69.55 -68.7 L69.65 -68.15 Q66.75 -64.25 60.35 -54.6 54.7 -46.15 51.4 -42.0 L52.55 -41.7 51.9 -39.6 Q51.4 -38.2 51.4 -37.5 51.4 -37.1 47.45 -32.6 L42.4 -27.2 39.8 -22.5 41.15 -21.2 Q43.55 -21.2 49.7 -25.6 L56.05 -30.25 56.2 -30.45 56.3 -29.75 53.45 -27.3 Q50.55 -24.8 50.15 -22.75 52.55 -21.6 52.55 -20.35 52.55 -18.85 50.5 -16.9 L46.65 -13.2 Q39.85 -11.85 35.2 -8.6 L31.0 -5.25 30.9 -5.15 Q28.1 -2.05 25.15 -0.25 25.5 -3.2 25.9 -4.0 L25.9 -4.45 19.7 1.1 Q15.85 4.5 13.15 6.3 12.9 6.85 12.9 5.6 12.9 2.95 14.9 0.0 L14.8 -0.25 Q14.0 -0.2 12.4 0.8 L11.95 0.8 11.9 0.0 14.5 -4.95 Q15.95 -7.65 16.6 -10.0 L16.55 -10.05 16.55 -10.9 Q16.55 -12.25 17.0 -14.2 16.85 -15.15 16.3 -16.2 15.35 -18.0 13.9 -18.0 12.95 -18.0 11.45 -16.7 L9.4 -14.7 7.15 -14.75 6.3 -16.75 4.9 -18.5 Q-0.6 -16.55 -3.45 -10.25 L-6.35 -10.25 Q-7.1 -11.2 -7.7 -11.2 L-8.7 -8.7 -10.35 -5.95 -10.85 -5.75 -10.95 -6.6 Q-9.95 -12.35 -9.85 -15.5 L-9.45 -15.7 -9.35 -14.75 -9.35 -17.0 -8.7 -22.8 -8.45 -27.0 -8.15 -29.2 -8.35 -29.2 Q-8.6 -28.65 -8.6 -29.9 L-7.95 -40.35 Q-7.3 -47.65 -6.95 -48.25 -4.9 -51.65 -4.05 -55.9 L-3.6 -59.15 Q-3.4 -62.15 -3.45 -66.25 L-2.95 -66.25 -2.85 -65.95 -2.85 -66.2 -1.95 -66.25 -1.65 -64.05 -1.1 -62.0 Q-0.95 -62.65 -0.15 -62.85 0.45 -63.05 0.15 -64.2 L0.55 -64.2 0.65 -64.0 0.65 -63.25 0.6 -62.2 1.0 -63.4 1.15 -63.85 1.15 -64.5 1.35 -64.6 1.65 -66.7 2.05 -66.7 2.35 -65.75 2.55 -64.45 2.4 -63.7 2.65 -63.0 Q4.5 -68.0 6.3 -74.85 L9.05 -86.7 11.85 -99.55 Q13.65 -106.75 15.55 -109.75 L15.75 -109.7 15.8 -108.9 Q15.8 -107.8 14.1 -100.0 M42.4 -77.75 L43.65 -77.95 43.9 -77.5 Q43.25 -76.75 42.65 -76.7 42.4 -77.0 42.4 -77.75 M66.4 -69.5 L66.8 -69.55 67.65 -69.5 68.05 -69.2 67.45 -68.45 Q66.95 -68.0 66.55 -68.0 66.3 -67.6 66.3 -68.85 L66.3 -69.55 Q66.35 -69.4 66.4 -69.5 M2.55 -75.9 Q2.55 -76.7 3.1 -76.9 L4.55 -76.7 4.8 -75.75 4.65 -74.95 2.8 -74.7 2.7 -74.9 Q2.55 -75.15 2.55 -75.9 M22.4 -63.75 Q23.1 -64.05 23.4 -63.5 L23.3 -62.75 22.65 -62.7 Q22.4 -63.0 22.4 -63.75 M24.9 -67.45 Q25.85 -67.15 26.05 -66.5 L25.75 -65.6 24.4 -65.2 Q23.8 -65.45 23.55 -65.75 L24.25 -66.8 24.9 -67.45 M-10.35 -50.0 Q-10.45 -49.7 -11.1 -49.45 L-11.7 -49.55 -11.85 -50.4 -11.8 -51.1 -11.6 -51.2 -10.85 -51.2 Q-10.35 -50.65 -10.35 -50.0 M-9.3 -40.8 L-9.1 -39.75 Q-9.1 -37.1 -9.85 -32.1 -10.45 -27.7 -11.2 -24.45 L-11.6 -24.2 Q-12.3 -25.05 -12.5 -27.05 L-12.6 -30.25 -12.6 -35.25 Q-11.1 -37.4 -11.95 -38.95 L-11.95 -42.75 -11.45 -42.75 -11.0 -40.5 -10.7 -38.45 -10.55 -39.55 -10.1 -41.0 -9.3 -40.8 M-4.2 -11.2 L-3.9 -11.9 -4.05 -11.75 -4.15 -11.65 -4.3 -11.45 -4.2 -11.2 M-9.7 -9.7 L-9.55 -9.85 -9.6 -10.1 -9.7 -9.7" fill="#afbfc2" fill-rule="evenodd" stroke="none"/>
    </g>
  </defs>
</svg>
