<?xml version="1.0" encoding="UTF-8" standalone="no"?>
<svg xmlns:ffdec="https://www.free-decompiler.com/flash" xmlns:xlink="http://www.w3.org/1999/xlink" ffdec:objectType="frame" height="146.1px" width="102.8px" xmlns="http://www.w3.org/2000/svg">
  <g transform="matrix(1.0, 0.0, 0.0, 1.0, 14.25, 122.8)">
    <use ffdec:characterId="73" height="106.75" transform="matrix(1.0, 0.0, 0.0, 1.0, -13.2, -114.95)" width="90.25" xlink:href="#shape0"/>
  </g>
  <defs>
    <g id="shape0" transform="matrix(1.0, 0.0, 0.0, 1.0, 13.2, 114.95)">
      <path d="M13.3 -108.2 L14.35 -111.5 Q15.1 -113.95 15.9 -114.95 16.65 -114.25 17.05 -113.35 L17.3 -112.5 16.3 -109.7 Q15.15 -106.45 14.8 -103.75 L14.15 -98.45 Q13.8 -95.35 13.8 -94.4 L13.75 -92.65 Q13.8 -91.8 14.15 -91.45 15.1 -90.55 16.0 -89.8 16.4 -89.4 16.4 -89.0 L15.6 -86.05 Q14.8 -83.55 14.8 -81.65 L14.8 -79.5 Q14.9 -78.75 15.55 -78.75 16.4 -78.75 17.4 -75.65 L17.1 -74.35 16.3 -73.45 16.3 -69.7 17.1 -70.4 Q17.65 -70.95 18.4 -70.95 19.2 -70.95 20.05 -69.75 L20.7 -68.9 22.05 -69.0 22.55 -69.2 22.15 -68.4 22.0 -68.2 23.3 -68.25 23.95 -69.35 24.9 -70.5 28.65 -70.45 Q30.2 -71.8 32.55 -75.75 34.8 -79.5 36.4 -80.75 38.9 -82.75 40.85 -86.15 L43.9 -91.5 45.15 -91.45 45.35 -91.1 45.4 -90.15 Q45.4 -88.75 44.65 -85.65 L43.9 -82.65 Q43.9 -81.95 44.4 -81.3 L44.9 -80.45 45.35 -80.9 45.9 -81.5 47.15 -81.45 48.05 -80.55 Q48.5 -80.4 49.4 -81.0 L50.2 -80.8 50.4 -79.75 Q50.4 -78.75 47.0 -71.5 L44.45 -65.95 48.4 -69.95 49.1 -70.0 Q49.3 -70.0 49.3 -69.25 49.3 -68.4 48.7 -67.1 L47.3 -65.0 49.65 -64.95 Q50.4 -63.55 50.4 -60.75 L50.9 -60.2 Q58.0 -61.25 64.45 -67.6 L69.4 -72.7 Q72.25 -75.55 74.65 -76.95 L74.9 -76.4 69.05 -67.5 Q69.05 -67.35 69.4 -67.4 L70.15 -67.45 70.35 -66.95 70.4 -65.9 Q70.4 -61.05 64.85 -56.15 59.3 -51.25 59.3 -48.25 L60.35 -46.95 Q61.4 -45.7 61.4 -44.75 61.4 -41.8 55.7 -37.65 51.0 -34.25 50.45 -30.8 L49.6 -30.15 Q48.75 -29.0 47.1 -28.4 L43.3 -27.45 Q39.4 -24.1 38.15 -23.55 L36.1 -23.45 Q35.85 -23.45 33.15 -21.85 30.5 -20.2 30.15 -20.2 29.9 -19.65 29.9 -20.9 L32.0 -22.65 31.9 -23.0 29.65 -22.95 29.8 -25.2 27.85 -27.1 Q25.9 -29.15 25.9 -30.25 25.9 -32.65 27.5 -34.45 29.05 -36.2 29.05 -36.85 L28.1 -38.3 Q27.15 -39.5 27.15 -40.7 27.15 -41.45 26.75 -41.6 L26.3 -41.75 24.8 -41.75 Q24.3 -41.45 23.5 -39.9 23.0 -38.95 20.65 -38.95 L20.0 -38.2 18.9 -37.2 18.4 -37.45 Q19.4 -40.05 19.4 -41.0 19.4 -43.7 18.35 -46.15 17.2 -48.75 15.65 -48.95 15.65 -51.5 15.15 -53.0 14.8 -53.15 14.2 -53.75 13.75 -54.2 13.05 -54.2 10.95 -54.2 8.0 -52.0 5.6 -50.15 4.3 -51.0 L3.25 -48.8 Q2.75 -47.7 0.8 -47.95 L-1.5 -45.0 Q-3.05 -42.85 -2.75 -41.5 L-3.15 -41.45 -3.45 -40.5 Q-4.9 -36.95 -5.7 -33.45 L-6.0 -33.2 Q-6.5 -34.5 -6.5 -37.6 L-6.0 -41.05 -5.5 -44.5 Q-5.5 -44.95 -6.25 -46.5 L-7.0 -48.4 -7.0 -48.95 -7.25 -51.45 Q-6.75 -56.25 -6.95 -58.95 L-6.75 -59.25 -6.35 -59.05 -6.2 -58.7 Q-4.45 -64.55 -4.45 -67.5 L-4.3 -72.05 Q-3.9 -74.55 -2.5 -76.45 -1.95 -76.25 -1.65 -74.95 -1.35 -73.8 -1.5 -72.95 -0.9 -72.45 0.35 -72.45 2.8 -72.45 3.95 -76.25 4.75 -80.45 5.05 -81.25 6.65 -85.55 7.9 -90.0 L9.05 -95.1 10.05 -100.2 10.65 -105.65 Q11.25 -108.75 13.3 -108.2 M48.05 -99.25 L48.3 -98.95 48.4 -98.2 47.9 -97.5 47.15 -97.7 Q46.9 -98.0 46.9 -99.2 L48.05 -99.25 M50.4 -101.5 L50.4 -102.25 50.55 -102.45 51.15 -102.45 51.3 -102.5 51.4 -101.65 51.4 -100.95 51.3 -100.95 50.9 -100.7 50.45 -100.7 50.4 -101.5 M76.65 -81.0 L75.55 -81.0 Q75.3 -80.4 75.3 -81.65 75.3 -83.0 77.05 -82.2 L77.05 -81.45 76.65 -81.0 M50.9 -89.9 Q50.75 -89.05 49.9 -88.7 49.4 -88.1 49.4 -89.35 49.4 -90.15 49.8 -90.35 L50.65 -90.45 50.9 -89.9 M27.85 -77.15 Q28.3 -77.05 28.55 -76.75 L28.65 -76.0 27.9 -75.25 Q27.05 -75.45 26.65 -75.75 L26.8 -77.2 27.4 -77.25 27.85 -77.15 M4.0 -82.25 L2.7 -82.2 Q2.55 -82.25 2.55 -83.0 L2.65 -83.8 2.8 -84.2 3.75 -84.2 4.3 -83.0 4.0 -82.25 M32.4 -39.6 L32.7 -38.95 34.5 -39.35 35.05 -39.5 35.05 -39.55 Q36.05 -40.9 36.05 -41.5 L36.05 -42.35 36.0 -42.25 34.15 -42.55 Q33.2 -42.1 32.3 -42.0 L32.15 -41.85 Q32.0 -41.7 32.0 -40.95 32.0 -40.3 32.4 -39.6 M23.9 -28.2 L24.65 -28.2 Q25.15 -27.65 25.15 -27.0 L24.4 -26.45 23.8 -26.55 Q23.65 -26.6 23.65 -27.4 L23.7 -28.1 23.9 -28.2 M19.25 -33.7 L18.55 -32.75 17.05 -32.7 16.45 -31.75 Q15.95 -31.25 14.55 -31.2 15.0 -31.6 15.3 -32.55 15.6 -33.7 15.55 -34.95 15.4 -37.0 17.4 -36.25 19.4 -35.45 19.4 -35.0 L19.25 -33.7 M13.55 -27.45 Q13.15 -26.9 13.15 -28.15 L13.25 -29.15 13.3 -29.2 14.65 -29.0 15.05 -28.7 Q14.65 -27.5 13.55 -27.45 M15.65 -29.5 L16.3 -29.5 Q16.85 -29.4 17.15 -28.95 16.9 -28.5 16.05 -28.45 15.65 -28.75 15.65 -29.5 M19.05 -17.4 Q19.05 -20.15 20.7 -19.85 22.3 -19.55 22.3 -17.75 22.3 -16.9 20.4 -15.2 L19.15 -15.25 19.05 -17.4 M28.4 -18.75 L27.4 -17.2 25.65 -16.95 25.25 -16.15 24.8 -15.45 24.15 -15.25 24.05 -16.85 Q24.05 -17.65 24.4 -18.35 L25.15 -19.75 Q26.9 -20.6 28.05 -20.25 L28.4 -18.75 M21.3 -14.2 L21.35 -14.25 21.3 -14.95 22.55 -14.7 22.5 -14.2 22.55 -14.2 Q22.3 -13.45 21.9 -13.2 21.3 -13.5 21.3 -14.2 M26.05 -9.0 L26.1 -9.85 26.15 -9.75 26.7 -9.8 27.55 -9.7 27.8 -8.95 27.4 -8.25 26.2 -8.2 Q26.05 -8.25 26.05 -9.0 M64.05 -30.75 L64.4 -29.7 66.15 -29.45 67.0 -28.5 Q67.4 -27.95 67.4 -27.15 67.4 -25.3 63.45 -22.75 L57.4 -19.25 57.05 -19.5 58.2 -21.25 Q58.9 -22.2 58.9 -22.75 L57.55 -24.45 52.15 -24.45 Q50.9 -23.2 48.7 -22.4 L45.4 -21.2 Q44.55 -20.45 44.55 -21.7 44.55 -22.0 46.3 -22.95 L48.65 -24.25 49.7 -25.5 Q50.3 -26.55 51.15 -27.25 L62.9 -30.95 64.05 -30.75 M60.6 -34.55 L61.55 -34.2 Q60.8 -32.75 59.9 -32.45 L59.05 -32.35 Q58.8 -32.35 58.8 -33.15 58.8 -33.95 59.15 -34.3 L59.9 -34.7 60.6 -34.55 M57.55 -32.45 Q58.65 -32.45 58.9 -32.0 L58.15 -31.75 Q57.6 -31.75 57.4 -32.0 L57.55 -32.45 M56.4 -18.9 Q56.15 -17.75 54.5 -17.1 L50.65 -15.95 50.55 -16.5 50.9 -16.95 Q52.5 -16.85 53.6 -18.5 54.6 -20.0 56.15 -19.45 L56.4 -18.9 M42.4 -20.5 Q41.6 -19.5 40.65 -19.45 L40.75 -20.75 Q40.9 -21.35 42.15 -20.95 L42.4 -20.5 M47.4 -15.2 Q46.8 -15.5 46.8 -16.2 L48.15 -16.5 48.55 -16.2 Q48.4 -15.7 47.4 -15.2 M40.9 -12.0 Q40.3 -12.25 40.3 -12.95 L41.55 -12.7 40.9 -12.0 M-11.5 -49.95 Q-11.4 -52.55 -9.45 -53.55 -7.5 -54.6 -7.5 -51.4 -7.5 -49.1 -8.55 -46.15 -9.85 -42.45 -10.2 -40.25 L-10.75 -40.2 -11.45 -42.2 Q-12.0 -43.6 -12.0 -44.35 L-11.2 -46.3 Q-10.45 -48.1 -10.45 -49.6 -10.45 -50.3 -10.8 -50.15 -11.35 -49.85 -11.5 -49.95 M-12.1 -49.85 Q-11.95 -49.65 -11.95 -48.9 -11.95 -48.1 -12.05 -48.05 L-12.5 -48.0 Q-13.2 -47.4 -13.2 -48.65 -13.2 -50.2 -12.45 -50.2 L-12.1 -49.85 M-2.25 -31.25 Q-2.35 -30.8 -2.85 -30.4 L-3.25 -30.1 -3.2 -28.75 -3.4 -28.5 -3.25 -28.25 Q-3.4 -28.0 -3.9 -27.95 L-4.25 -27.6 -6.5 -24.7 -7.25 -24.75 -7.9 -26.8 Q-8.45 -28.2 -8.45 -28.9 L-8.35 -29.85 -8.25 -30.45 Q-7.65 -30.45 -6.8 -30.8 -6.35 -30.9 -6.25 -30.25 L-5.85 -30.35 -5.95 -31.2 -5.5 -31.3 -4.95 -31.2 -4.95 -31.0 -4.35 -32.0 Q-3.6 -33.05 -2.75 -33.2 -2.75 -32.0 -2.25 -31.25" fill="#afbfc2" fill-rule="evenodd" stroke="none"/>
    </g>
  </defs>
</svg>
