<?xml version="1.0" encoding="UTF-8" standalone="no"?>
<svg xmlns:ffdec="https://www.free-decompiler.com/flash" xmlns:xlink="http://www.w3.org/1999/xlink" ffdec:objectType="frame" height="146.1px" width="102.8px" xmlns="http://www.w3.org/2000/svg">
  <g transform="matrix(1.0, 0.0, 0.0, 1.0, 14.25, 122.8)">
    <use ffdec:characterId="74" height="104.05" transform="matrix(1.0, 0.0, 0.0, 1.0, -12.45, -121.5)" width="92.75" xlink:href="#shape0"/>
  </g>
  <defs>
    <g id="shape0" transform="matrix(1.0, 0.0, 0.0, 1.0, 12.45, 121.5)">
      <path d="M17.55 -120.0 Q17.3 -119.4 17.3 -120.65 17.3 -122.0 19.05 -121.2 L19.05 -120.45 18.65 -120.0 17.55 -120.0 M18.15 -112.35 L18.65 -110.9 Q18.65 -107.55 17.55 -104.25 17.3 -104.25 16.9 -105.0 16.65 -104.8 15.95 -103.1 L15.3 -100.9 Q15.3 -96.7 16.8 -95.55 18.3 -94.4 18.3 -89.4 L18.4 -87.55 18.3 -85.75 Q18.15 -85.05 17.2 -84.35 16.3 -83.75 16.3 -83.0 L16.9 -80.6 Q17.45 -78.65 17.9 -77.75 L17.7 -77.4 17.9 -76.95 Q18.55 -75.75 18.55 -74.5 L18.5 -72.7 Q18.9 -71.25 21.4 -71.0 L23.55 -71.2 24.05 -71.5 24.15 -71.7 24.3 -71.7 24.65 -72.2 25.9 -73.45 26.5 -73.3 27.3 -72.95 27.65 -72.95 Q31.25 -72.95 32.6 -76.0 33.35 -77.6 33.65 -79.75 32.9 -84.05 40.05 -86.7 40.85 -87.1 42.1 -90.5 43.15 -93.2 45.15 -92.45 47.15 -92.0 47.0 -89.0 L46.4 -85.0 Q46.4 -83.6 47.4 -82.7 L50.15 -81.95 50.75 -81.0 50.9 -79.65 Q50.9 -76.4 49.8 -73.35 48.55 -69.75 46.4 -68.95 46.8 -68.95 47.9 -69.5 L50.15 -69.45 Q50.6 -68.65 50.3 -67.15 L49.9 -65.7 50.15 -64.1 50.65 -62.7 52.05 -62.7 53.15 -63.75 55.1 -63.35 56.9 -62.95 Q59.05 -62.95 64.4 -67.25 67.55 -69.5 68.0 -70.55 L68.05 -73.0 Q68.05 -74.05 70.15 -75.75 L72.05 -76.3 74.05 -76.7 75.0 -78.2 75.05 -79.0 75.4 -79.45 78.05 -79.25 78.8 -78.5 78.8 -78.4 80.05 -78.25 80.3 -76.45 78.9 -76.5 78.15 -76.45 Q75.85 -75.3 73.85 -73.55 70.75 -70.9 70.8 -68.7 L72.05 -68.25 72.55 -67.85 72.8 -66.75 Q72.8 -64.7 71.6 -62.7 70.05 -60.0 66.9 -58.75 L66.45 -58.85 65.1 -56.95 Q63.3 -54.05 63.3 -52.6 63.3 -51.85 63.65 -51.5 L64.3 -51.0 63.15 -49.85 Q62.45 -49.2 62.3 -48.75 L62.5 -48.85 63.65 -48.95 Q64.85 -48.95 66.3 -45.35 66.3 -43.45 63.55 -41.7 61.7 -40.5 59.4 -39.75 57.25 -39.05 55.35 -37.25 53.4 -35.45 52.8 -33.45 L52.0 -31.45 51.55 -31.75 50.1 -30.35 Q48.55 -29.2 46.9 -28.7 L45.55 -28.45 Q45.25 -27.9 45.25 -29.15 L45.25 -29.25 44.65 -29.45 45.3 -29.95 45.55 -30.2 46.4 -31.2 46.4 -31.5 45.9 -32.2 44.4 -31.95 44.3 -31.75 43.5 -31.55 43.4 -31.45 Q43.2 -30.8 43.15 -31.5 L42.0 -31.5 40.15 -31.6 38.6 -30.4 Q37.1 -29.05 36.4 -27.95 L37.5 -27.25 39.05 -26.7 37.65 -25.2 Q32.5 -24.8 30.9 -24.0 28.4 -27.65 28.4 -29.25 28.4 -30.65 29.4 -32.75 31.4 -33.5 27.65 -33.2 27.4 -32.65 27.4 -33.9 27.4 -34.85 28.8 -36.3 L30.9 -38.95 Q31.8 -38.35 31.9 -36.5 L31.8 -34.0 31.7 -33.85 32.55 -33.7 Q33.15 -33.7 35.15 -35.1 37.2 -36.5 37.55 -37.25 38.65 -39.4 38.65 -41.85 38.65 -43.25 37.55 -45.2 36.1 -47.7 34.15 -47.7 33.15 -47.7 31.45 -46.25 29.9 -44.95 29.9 -44.7 29.9 -44.05 30.4 -44.35 30.9 -44.6 30.9 -44.0 L30.75 -43.3 30.4 -42.95 29.9 -42.5 28.65 -42.7 26.4 -44.95 Q26.0 -44.85 25.55 -44.1 L24.4 -43.0 22.3 -43.2 21.15 -43.2 20.95 -45.5 Q20.8 -46.9 20.3 -47.7 L18.85 -49.75 Q18.05 -50.9 18.05 -51.5 18.05 -52.2 18.5 -53.05 L19.0 -54.15 17.05 -56.2 Q15.65 -57.75 13.85 -58.2 L11.8 -57.35 Q10.2 -57.0 8.15 -55.7 L6.9 -55.5 Q6.6 -55.6 6.4 -56.1 6.25 -56.5 5.55 -56.5 2.95 -56.5 0.45 -53.55 -1.95 -50.75 -1.7 -48.75 -1.55 -47.85 -2.25 -46.8 L-4.2 -44.5 -5.3 -42.6 -6.25 -40.45 -6.75 -40.25 -6.65 -42.1 -6.45 -44.0 -6.55 -45.35 Q-6.85 -46.5 -8.0 -47.0 -8.8 -46.05 -9.75 -45.25 -10.25 -47.35 -11.45 -48.1 -12.45 -48.7 -12.45 -50.0 -12.45 -51.7 -12.15 -52.1 -11.55 -53.0 -8.5 -54.2 L-8.15 -57.45 -7.5 -60.75 Q-7.2 -61.8 -6.35 -62.35 -5.4 -62.95 -5.2 -63.45 -4.45 -65.6 -4.45 -66.75 -4.45 -67.8 -5.7 -69.65 -6.95 -71.5 -6.95 -71.9 -6.95 -73.0 -5.4 -75.1 -3.95 -77.1 -3.0 -77.5 L0.75 -77.45 1.5 -76.35 Q1.9 -75.6 2.5 -75.45 3.1 -76.15 3.15 -79.35 3.2 -81.15 4.65 -80.25 L6.0 -82.9 Q7.05 -85.5 7.05 -87.15 6.05 -89.75 6.05 -90.45 6.05 -93.0 7.8 -95.4 9.55 -97.75 9.55 -101.4 9.55 -102.25 8.8 -103.75 8.05 -105.2 8.05 -106.25 L8.15 -108.1 Q8.45 -109.1 9.65 -109.75 L12.55 -110.2 14.35 -111.9 16.4 -113.45 16.55 -113.4 16.9 -113.75 Q17.55 -113.5 18.15 -112.35 M46.9 -100.5 L47.05 -100.95 Q48.15 -100.95 48.4 -100.5 L47.65 -100.25 Q47.1 -100.25 46.9 -100.5 M52.65 -104.5 L51.55 -104.5 Q51.3 -103.9 51.3 -105.15 51.3 -106.5 53.05 -105.7 L53.05 -104.95 52.65 -104.5 M78.55 -83.7 Q78.55 -82.95 78.15 -82.5 L77.55 -82.5 Q77.3 -82.95 77.3 -83.95 L78.55 -83.7 M51.15 -90.95 L50.65 -90.75 50.3 -91.5 Q50.35 -91.8 50.8 -91.9 L51.55 -91.7 51.15 -90.95 M29.15 -79.5 L29.55 -79.2 Q29.55 -78.45 29.15 -78.0 L28.05 -77.95 Q27.65 -77.25 27.65 -78.5 27.65 -79.0 29.15 -79.5 M12.1 -90.75 L12.05 -90.7 12.1 -90.7 12.1 -90.75 M2.8 -85.75 L3.3 -86.6 Q3.6 -86.85 4.55 -86.2 L4.55 -85.65 3.6 -85.45 2.75 -85.6 2.8 -85.75 M4.05 -78.4 L4.05 -78.85 3.8 -78.7 4.05 -78.25 4.05 -78.4 M7.8 -59.7 Q6.3 -60.9 5.55 -60.85 L3.3 -59.95 3.3 -58.75 3.1 -58.6 3.8 -58.5 6.55 -58.7 7.8 -59.7 M32.05 -41.2 L31.5 -40.4 Q31.1 -40.0 30.9 -39.95 29.9 -40.3 29.9 -41.25 L31.65 -41.5 32.05 -41.2 M20.85 -35.05 Q20.7 -34.7 19.9 -34.7 L15.3 -35.0 15.3 -34.5 Q15.3 -33.25 14.9 -34.0 14.4 -34.15 14.1 -34.6 L13.9 -35.25 Q14.6 -35.5 15.05 -35.0 L15.1 -35.0 15.05 -35.05 Q14.9 -35.15 14.9 -35.9 14.9 -38.0 18.05 -38.35 21.2 -38.7 20.9 -35.7 L20.85 -35.05 M24.8 -29.95 L26.05 -29.7 Q26.05 -28.95 25.65 -28.5 L25.05 -28.5 Q24.8 -28.95 24.8 -29.95 M19.05 -23.0 L19.9 -23.95 22.05 -23.75 22.3 -23.6 23.15 -23.45 23.4 -22.9 22.55 -21.6 21.9 -20.7 21.15 -21.85 Q20.8 -22.25 19.15 -22.45 L19.05 -23.0 M19.8 -19.35 Q19.8 -20.15 20.5 -20.35 L21.65 -20.45 22.05 -19.7 21.2 -18.95 Q20.5 -18.5 20.05 -18.5 19.8 -18.1 19.8 -19.35 M30.15 -20.95 Q28.45 -19.25 25.9 -19.25 24.55 -19.25 24.55 -21.1 L24.95 -21.8 25.9 -22.95 Q27.55 -22.65 27.9 -22.95 L29.55 -22.75 29.8 -22.0 30.15 -20.95 M70.05 -31.25 L71.4 -28.9 Q71.4 -26.9 70.5 -26.1 L66.4 -23.7 64.15 -23.25 Q64.0 -23.85 64.55 -25.0 L62.15 -25.25 61.5 -26.75 60.9 -26.7 56.05 -27.0 55.05 -27.0 Q52.65 -26.95 51.4 -25.75 L51.05 -26.0 Q51.7 -26.55 52.6 -28.45 54.4 -30.05 60.65 -29.95 L60.9 -29.2 Q64.1 -29.1 65.75 -30.8 L65.85 -30.85 65.95 -31.15 66.25 -31.2 Q67.55 -32.0 70.05 -31.25 M61.65 -34.95 Q61.4 -34.5 60.55 -34.45 60.15 -34.75 60.15 -35.5 L60.8 -35.5 61.65 -34.95 M64.05 -36.7 L64.3 -35.95 Q64.1 -35.05 62.9 -34.7 L62.25 -34.9 62.05 -35.9 Q62.05 -37.55 64.05 -36.7 M50.85 -40.95 L49.75 -39.95 49.3 -39.5 48.85 -38.75 49.05 -38.75 49.15 -38.45 Q50.6 -38.5 51.6 -39.7 L53.05 -41.95 Q52.2 -41.95 50.85 -40.95 M53.5 -42.9 L53.4 -42.8 53.5 -42.8 53.5 -42.9 M43.9 -28.0 L43.15 -27.75 Q42.6 -27.75 42.4 -28.0 L43.3 -28.8 Q43.7 -28.9 43.9 -28.0 M41.4 -25.5 Q40.8 -25.7 40.4 -26.5 40.55 -26.8 41.25 -27.0 L42.05 -27.2 Q42.05 -26.15 41.4 -25.5 M48.8 -26.05 Q48.85 -25.9 48.9 -26.0 L49.3 -26.05 50.15 -26.0 50.55 -25.7 49.95 -24.95 Q49.45 -24.5 49.05 -24.5 48.8 -24.1 48.8 -25.35 L48.8 -26.05 M56.55 -20.3 L56.9 -20.0 Q56.75 -19.8 56.4 -19.75 L56.25 -19.5 55.55 -19.5 Q55.3 -19.95 55.3 -20.7 55.7 -21.15 56.55 -20.7 L56.55 -20.3 M57.45 -21.15 L57.9 -21.2 58.6 -21.05 59.55 -20.7 59.55 -19.95 59.15 -19.5 57.55 -19.5 Q57.3 -19.1 57.3 -20.35 57.3 -21.1 57.45 -21.15 M48.9 -24.0 Q48.7 -23.75 48.15 -23.75 47.6 -23.75 47.4 -24.0 L47.55 -24.45 Q48.65 -24.45 48.9 -24.0 M42.3 -22.25 L44.05 -22.2 43.8 -21.5 42.55 -21.45 42.3 -22.25 M49.9 -17.45 Q48.8 -17.5 48.8 -18.7 50.1 -18.7 50.55 -18.0 L49.9 -17.45 M63.55 -23.2 L62.9 -22.5 Q62.3 -22.75 62.3 -23.45 L63.55 -23.2 M-6.95 -38.5 L-7.2 -40.0 Q-6.1 -40.3 -5.7 -39.75 L-6.0 -38.7 -6.95 -38.5 M-0.75 -37.7 Q-0.05 -37.35 0.05 -36.7 0.0 -36.05 -0.5 -35.95 L-1.45 -35.95 Q-1.7 -36.05 -1.7 -36.85 -1.7 -37.6 -1.5 -37.65 L-0.75 -37.7 M-10.6 -44.5 Q-10.05 -44.4 -9.75 -43.95 -10.0 -43.5 -10.95 -43.45 -11.25 -43.75 -11.25 -44.5 L-10.6 -44.5 M-4.45 -34.75 Q-5.65 -33.6 -5.7 -32.2 L-6.45 -31.75 -8.75 -31.75 -8.9 -32.15 -8.95 -33.15 -8.8 -34.2 -8.5 -34.45 -6.95 -34.7 -5.55 -36.3 Q-4.45 -37.4 -2.95 -37.25 L-2.5 -36.5 -4.45 -34.75 M-6.45 -31.2 Q-6.45 -30.45 -6.75 -30.0 L-7.45 -30.0 -7.7 -31.2 Q-7.3 -31.65 -6.45 -31.2" fill="#afbfc2" fill-rule="evenodd" stroke="none"/>
    </g>
  </defs>
</svg>
