<?xml version="1.0" encoding="UTF-8" standalone="no"?>
<svg xmlns:ffdec="https://www.free-decompiler.com/flash" xmlns:xlink="http://www.w3.org/1999/xlink" ffdec:objectType="frame" height="146.1px" width="102.8px" xmlns="http://www.w3.org/2000/svg">
  <g transform="matrix(1.0, 0.0, 0.0, 1.0, 14.25, 122.8)">
    <use ffdec:characterId="75" height="105.3" transform="matrix(1.0, 0.0, 0.0, 1.0, -12.95, -122.8)" width="98.25" xlink:href="#shape0"/>
  </g>
  <defs>
    <g id="shape0" transform="matrix(1.0, 0.0, 0.0, 1.0, 12.95, 122.8)">
      <path d="M19.15 -120.45 L18.15 -120.45 Q18.05 -121.3 18.2 -121.65 18.45 -122.45 19.65 -122.7 L19.9 -122.8 20.15 -121.95 Q20.15 -121.15 19.8 -120.85 L19.15 -120.45 M18.5 -112.95 L19.05 -113.75 19.3 -112.35 Q19.8 -111.25 19.8 -108.9 19.8 -104.15 18.0 -102.85 16.15 -101.5 16.15 -99.1 16.15 -98.3 16.75 -96.9 17.3 -95.5 17.3 -94.5 17.1 -94.2 16.15 -94.25 L16.15 -93.35 16.75 -92.9 17.9 -92.05 Q18.4 -92.25 18.55 -92.75 L18.9 -93.95 Q19.8 -87.85 19.8 -86.0 19.8 -84.35 18.75 -82.55 17.5 -80.4 15.9 -80.45 L15.75 -80.4 15.3 -79.95 15.3 -76.95 15.8 -76.5 16.45 -76.95 17.05 -77.75 Q17.5 -75.9 16.9 -73.7 L17.1 -73.5 17.9 -73.5 Q18.6 -73.5 19.15 -71.65 L19.8 -69.5 20.45 -69.3 21.15 -68.95 23.15 -69.0 25.15 -70.65 27.05 -72.25 27.8 -71.0 28.3 -70.0 Q30.55 -70.95 32.2 -72.25 34.55 -73.95 34.9 -75.7 L34.55 -76.45 32.65 -76.75 32.15 -77.65 32.05 -78.9 Q32.05 -79.9 32.8 -81.3 L34.05 -83.25 Q34.7 -82.7 34.9 -81.7 L35.9 -83.0 36.9 -84.45 38.55 -84.7 39.25 -86.4 Q39.7 -87.5 40.55 -87.75 40.95 -87.3 40.65 -86.7 42.25 -86.5 43.15 -88.55 43.95 -90.45 43.55 -92.25 L44.05 -92.25 44.25 -91.85 44.55 -92.25 44.5 -90.75 44.3 -89.15 Q44.3 -88.55 44.8 -87.9 45.3 -87.2 45.3 -85.95 45.3 -83.7 46.15 -82.2 L46.45 -82.0 48.5 -82.45 48.6 -82.25 50.05 -82.75 50.45 -81.5 Q50.7 -80.4 51.3 -79.5 52.4 -77.85 52.4 -76.65 52.4 -74.55 51.4 -73.0 L49.65 -72.7 49.4 -73.35 49.3 -74.0 Q48.5 -73.65 47.7 -72.25 L46.8 -70.25 Q47.1 -70.0 47.9 -69.9 L49.65 -70.0 49.6 -69.05 49.4 -67.5 Q49.4 -66.8 49.9 -66.05 L50.4 -65.0 50.15 -64.45 Q49.9 -63.95 49.9 -63.2 49.9 -62.75 50.15 -62.4 L51.15 -61.45 52.0 -61.45 52.55 -61.25 52.65 -61.25 53.9 -61.7 Q54.65 -62.45 54.9 -64.25 L55.65 -64.45 55.9 -62.95 55.7 -62.8 56.4 -62.7 Q57.15 -62.7 58.65 -63.75 60.1 -64.75 61.0 -64.7 L62.7 -65.6 Q64.65 -66.6 65.15 -69.75 L66.05 -69.75 65.8 -67.2 65.8 -66.95 Q70.25 -68.8 69.9 -69.95 68.55 -71.35 68.55 -72.75 68.55 -73.6 69.65 -74.6 L70.45 -75.25 Q70.6 -75.85 71.4 -76.2 L71.85 -76.1 72.05 -76.2 71.95 -76.05 72.1 -76.05 73.05 -75.7 Q74.25 -75.85 74.3 -77.45 L74.05 -80.25 74.55 -80.25 75.1 -79.1 75.65 -78.0 76.65 -77.8 77.8 -77.5 Q78.5 -78.0 78.65 -79.25 L80.8 -77.95 82.65 -78.0 83.1 -78.5 83.05 -80.2 83.55 -80.25 84.0 -79.65 84.05 -79.7 84.1 -79.55 84.2 -79.25 84.55 -79.25 Q84.75 -79.1 85.05 -79.05 L85.3 -78.15 Q85.3 -77.6 84.15 -76.65 L81.9 -74.7 Q81.75 -75.0 81.3 -75.1 L80.9 -74.7 78.8 -74.85 78.7 -74.8 77.9 -74.25 77.6 -74.3 75.7 -72.35 Q74.15 -70.35 74.15 -69.25 L74.25 -69.15 74.85 -69.2 Q75.25 -69.2 76.05 -67.2 L76.1 -67.1 76.15 -66.9 76.15 -66.8 76.3 -66.25 76.0 -65.65 Q75.6 -63.9 74.15 -62.0 72.0 -59.2 69.4 -59.2 68.8 -59.2 68.05 -59.7 L66.65 -60.2 Q65.0 -60.2 64.2 -57.0 63.75 -55.4 63.65 -53.7 63.65 -53.35 64.85 -52.0 65.85 -50.85 65.3 -49.2 L67.05 -48.75 Q68.8 -46.0 68.8 -44.35 68.8 -42.15 66.95 -40.85 64.2 -39.25 62.4 -37.7 59.45 -38.5 57.7 -37.05 56.65 -36.15 55.8 -33.95 54.05 -29.6 50.4 -28.2 L46.15 -28.2 46.05 -28.9 Q46.05 -29.7 46.35 -30.05 L46.9 -30.45 46.75 -31.05 46.55 -31.45 44.45 -31.8 Q43.7 -32.2 44.05 -32.5 L42.55 -32.45 40.9 -32.25 40.55 -32.35 Q39.45 -31.7 38.65 -31.4 L37.9 -30.7 36.85 -29.25 36.4 -27.45 36.8 -26.6 40.05 -26.2 Q40.05 -25.75 39.5 -25.1 L38.4 -24.0 32.65 -23.25 30.7 -24.9 Q29.65 -25.8 29.55 -26.95 L29.2 -28.7 Q28.9 -29.9 28.9 -30.6 L29.05 -33.2 29.9 -33.95 30.8 -32.5 31.6 -34.6 Q32.05 -35.95 32.05 -39.7 L32.4 -39.95 33.55 -39.75 Q34.85 -37.5 34.4 -33.45 L34.45 -33.3 35.4 -33.2 36.7 -33.2 37.3 -33.65 Q37.05 -33.75 37.05 -34.6 L37.15 -35.4 37.65 -35.8 38.4 -37.0 38.95 -37.75 38.75 -39.25 Q38.25 -43.75 36.4 -45.95 L36.0 -45.65 35.15 -45.5 32.15 -45.75 Q31.55 -46.5 31.55 -47.5 L30.05 -45.9 29.9 -45.4 29.8 -44.65 29.9 -44.5 29.0 -43.75 27.4 -43.25 27.3 -42.35 Q27.15 -41.5 26.4 -41.5 L25.3 -41.6 25.15 -41.7 24.4 -42.75 Q18.6 -44.0 17.95 -46.65 L18.4 -51.2 Q18.4 -52.45 17.4 -53.75 16.2 -55.4 16.2 -56.0 L16.4 -56.45 Q16.4 -57.15 15.9 -57.75 15.4 -58.3 15.4 -58.5 13.9 -59.0 12.9 -58.25 L12.55 -58.5 12.55 -58.6 11.65 -58.0 9.55 -58.0 Q9.0 -59.0 7.65 -59.25 7.25 -60.35 6.75 -60.65 L5.05 -60.75 2.75 -60.75 2.45 -61.1 2.0 -60.7 2.95 -58.95 3.3 -58.0 Q3.3 -55.65 1.1 -55.1 -1.3 -54.55 -1.7 -51.45 L-2.0 -47.5 Q-2.6 -45.3 -5.45 -43.75 L-7.25 -43.75 -7.45 -45.5 -10.25 -45.75 -11.05 -46.3 Q-11.5 -46.7 -11.5 -47.5 L-11.5 -47.6 -12.55 -48.5 Q-12.95 -49.25 -12.95 -50.1 -12.95 -50.9 -12.05 -52.25 -10.9 -54.0 -10.5 -54.95 L-9.9 -54.35 -9.75 -53.7 -6.95 -55.7 -5.95 -57.95 -6.95 -59.0 -6.95 -63.25 -6.45 -63.25 -5.35 -62.3 -4.5 -62.2 Q-3.2 -62.2 -2.95 -66.0 -2.95 -66.75 -3.35 -67.95 L-3.95 -69.5 -4.55 -69.4 Q-5.2 -69.3 -5.2 -69.0 L-5.5 -68.7 Q-7.0 -69.75 -7.3 -70.45 L-7.45 -72.4 Q-7.45 -74.1 -6.25 -74.75 L-3.75 -75.2 Q-2.85 -75.2 -2.15 -75.75 -1.25 -76.5 -1.95 -77.7 -1.5 -77.75 -1.5 -77.95 L-1.15 -77.85 -1.0 -78.0 -0.85 -77.8 -0.7 -77.4 -0.65 -77.05 -0.7 -75.75 Q-0.7 -75.2 0.15 -75.0 L2.0 -74.0 Q3.4 -74.25 3.8 -75.9 L4.0 -78.3 3.75 -78.7 4.0 -78.65 4.0 -78.9 4.0 -79.2 4.15 -79.7 4.25 -79.7 4.55 -79.7 4.95 -78.75 Q5.75 -79.0 6.25 -79.75 L7.4 -82.2 Q8.3 -84.05 8.25 -84.45 8.1 -84.8 8.1 -85.3 L7.3 -86.05 Q6.5 -87.05 6.55 -88.45 L6.3 -90.4 6.05 -92.15 Q6.05 -93.05 6.35 -93.65 L7.05 -94.25 7.1 -93.75 7.15 -93.7 7.55 -93.7 Q7.7 -93.15 8.65 -92.6 9.8 -94.3 10.05 -95.5 L10.15 -98.65 10.15 -100.6 9.65 -102.45 8.25 -103.75 Q7.15 -104.65 7.15 -105.35 7.15 -105.75 7.8 -106.5 8.4 -107.15 8.9 -107.45 L9.3 -106.5 9.15 -106.2 10.35 -106.55 Q11.55 -106.95 13.05 -107.7 L13.8 -109.65 Q14.45 -111.2 15.15 -111.75 L17.55 -112.2 Q18.25 -112.5 18.5 -112.95 M9.7 -109.75 L9.8 -108.9 9.7 -108.1 9.4 -108.2 Q8.9 -108.25 8.7 -108.5 L8.4 -109.0 Q8.65 -109.7 9.55 -109.7 L9.7 -109.75 M53.55 -105.0 Q53.15 -105.45 53.15 -106.2 L53.5 -106.35 54.65 -105.95 Q54.5 -105.2 53.55 -105.0 M48.15 -100.5 L47.55 -100.5 Q47.3 -100.95 47.3 -101.95 L48.55 -101.7 Q48.55 -100.95 48.15 -100.5 M79.55 -84.25 Q79.55 -83.95 79.15 -83.5 L78.05 -83.5 Q77.8 -83.1 77.8 -84.35 L77.8 -85.05 Q77.85 -84.9 77.9 -85.0 L78.3 -85.05 79.15 -85.0 79.35 -84.8 79.55 -84.25 M57.55 -64.95 L57.3 -65.75 59.05 -65.7 58.8 -65.0 57.55 -64.95 M29.3 -81.05 Q29.35 -80.9 29.4 -81.0 L29.8 -81.05 30.65 -81.0 31.05 -80.7 30.45 -79.95 Q29.95 -79.5 29.55 -79.5 29.3 -79.1 29.3 -80.35 L29.3 -81.05 M4.35 -88.05 L5.25 -88.0 5.55 -87.7 5.35 -86.9 5.0 -86.45 4.05 -86.45 Q3.8 -86.55 3.8 -87.35 L3.85 -88.05 Q3.95 -87.9 4.0 -88.0 L4.35 -88.05 M1.25 -76.2 Q1.0 -76.5 1.0 -77.25 1.7 -77.55 2.0 -77.0 L1.8 -76.25 1.25 -76.2 M6.0 -56.95 Q4.75 -57.2 4.5 -57.5 L5.4 -58.2 6.5 -58.25 6.55 -57.75 6.5 -57.2 6.0 -56.95 M32.35 -43.4 L32.0 -42.95 Q30.6 -43.55 30.3 -43.95 L30.25 -44.2 31.3 -44.6 32.55 -44.2 32.35 -43.4 M22.55 -37.2 L21.9 -36.5 Q21.3 -36.75 21.3 -37.45 L22.55 -37.2 M21.25 -35.85 L21.4 -35.0 Q21.4 -34.25 21.05 -33.95 L20.4 -33.5 17.95 -33.9 17.05 -34.0 15.55 -34.5 Q15.3 -34.95 15.3 -35.95 L20.15 -35.5 21.05 -35.75 21.25 -35.85 M0.0 -36.0 L0.05 -36.25 -0.05 -36.35 -0.2 -37.0 1.55 -37.2 1.4 -36.15 1.5 -36.0 1.2 -35.7 1.0 -35.45 0.9 -35.5 0.25 -35.25 0.0 -36.0 M30.8 -20.25 L30.3 -19.3 29.4 -18.5 25.15 -18.75 25.05 -19.95 25.5 -20.1 26.8 -20.0 28.75 -20.35 30.55 -20.75 30.7 -20.95 30.8 -20.25 M21.7 -20.05 L21.4 -20.2 21.3 -21.95 22.7 -21.9 Q23.65 -21.7 24.3 -20.5 L23.9 -20.1 22.9 -19.95 21.7 -20.05 M21.8 -18.5 L22.3 -18.5 Q22.75 -18.45 23.4 -18.0 23.15 -17.7 22.05 -17.5 21.8 -17.95 21.8 -18.5 M64.2 -29.4 L64.3 -28.6 64.25 -28.15 64.55 -28.2 64.55 -27.0 63.95 -26.8 63.05 -26.5 62.9 -26.4 62.3 -26.0 Q60.4 -24.7 58.9 -24.7 L56.65 -24.95 56.15 -25.55 56.05 -26.0 Q54.15 -26.25 54.05 -26.7 L55.4 -28.45 Q56.15 -28.45 56.35 -27.95 L56.65 -27.2 59.05 -27.2 Q59.9 -27.3 60.35 -27.95 L60.9 -28.75 64.05 -29.25 64.2 -29.4 M61.15 -29.45 L59.9 -28.7 Q59.55 -28.85 59.45 -29.15 L59.4 -29.95 60.4 -30.0 60.75 -29.85 61.15 -29.45 M63.65 -26.5 L66.45 -27.1 68.65 -27.2 71.4 -27.75 71.7 -28.45 71.75 -28.6 71.7 -28.7 70.9 -28.0 Q70.15 -28.25 70.05 -28.7 L70.7 -29.35 Q71.2 -29.85 71.65 -29.95 L71.9 -29.4 71.7 -28.75 71.8 -28.75 71.9 -28.95 72.65 -28.8 72.75 -28.7 72.85 -28.7 Q73.5 -28.5 73.7 -27.7 L74.4 -27.7 74.65 -27.35 74.9 -26.4 Q74.9 -24.35 69.4 -22.2 68.2 -22.2 68.05 -23.0 L68.15 -24.0 Q67.25 -23.95 66.7 -24.45 L66.15 -25.2 64.15 -25.45 Q64.15 -26.1 63.65 -26.5 M51.65 -39.7 Q50.25 -38.35 48.8 -38.2 L48.65 -37.9 48.5 -36.75 48.3 -36.7 Q48.3 -35.65 48.55 -35.95 L48.6 -35.7 Q48.55 -35.5 49.3 -35.5 50.95 -35.5 52.45 -36.5 54.0 -37.5 53.05 -38.25 52.7 -38.55 53.8 -39.65 54.9 -40.8 55.05 -41.5 L54.9 -41.7 54.65 -41.7 Q53.3 -41.25 51.65 -39.7 M50.05 -26.7 L50.3 -25.95 49.9 -25.25 48.7 -25.2 Q48.55 -25.25 48.55 -26.0 L48.6 -26.85 48.65 -26.75 49.2 -26.8 50.05 -26.7 M53.55 -27.9 Q54.25 -27.8 54.4 -27.5 L53.4 -26.5 52.6 -26.55 Q52.4 -26.6 52.4 -27.4 52.4 -28.15 52.65 -28.15 L52.9 -28.0 53.55 -27.9 M51.4 -18.5 L50.4 -17.5 49.8 -17.75 50.35 -18.55 51.15 -18.95 51.4 -18.5 M42.9 -23.0 L43.05 -23.45 Q44.15 -23.45 44.4 -23.0 44.2 -22.75 43.65 -22.75 43.1 -22.75 42.9 -23.0 M-2.75 -78.0 L-2.45 -77.7 Q-2.5 -77.1 -3.25 -76.2 L-4.45 -76.0 Q-4.7 -75.6 -4.7 -76.85 -4.7 -77.65 -4.0 -77.9 L-2.75 -78.0 M-2.95 -33.45 Q-2.1 -34.6 -0.95 -34.7 L-0.95 -33.5 -2.95 -33.45 M-3.5 -32.0 L-4.75 -30.5 -7.45 -30.5 -8.0 -31.95 -3.95 -32.75 -3.5 -32.0" fill="#afbfc2" fill-rule="evenodd" stroke="none"/>
    </g>
  </defs>
</svg>
