<?xml version="1.0" encoding="UTF-8" standalone="no"?>
<svg xmlns:ffdec="https://www.free-decompiler.com/flash" xmlns:xlink="http://www.w3.org/1999/xlink" ffdec:objectType="frame" height="146.1px" width="102.8px" xmlns="http://www.w3.org/2000/svg">
  <g transform="matrix(1.0, 0.0, 0.0, 1.0, 14.25, 122.8)">
    <use ffdec:characterId="76" height="103.95" transform="matrix(1.0, 0.0, 0.0, 1.0, -11.0, -119.45)" width="96.8" xlink:href="#shape0"/>
  </g>
  <defs>
    <g id="shape0" transform="matrix(1.0, 0.0, 0.0, 1.0, 11.0, 119.45)">
      <path d="M18.15 -112.5 L18.35 -112.3 18.55 -111.75 18.15 -111.0 17.05 -111.0 Q16.8 -110.6 16.8 -111.85 L16.8 -112.55 Q16.85 -112.4 16.9 -112.5 L17.3 -112.55 18.15 -112.5 M19.55 -118.0 Q19.3 -118.45 19.3 -119.2 19.5 -119.65 20.65 -119.2 20.65 -118.55 20.15 -118.0 L19.55 -118.0 M9.05 -103.75 L11.55 -103.25 Q12.0 -103.2 13.55 -104.5 14.5 -105.7 15.1 -105.9 L17.05 -106.2 Q17.9 -106.7 18.3 -108.4 18.65 -110.05 19.05 -110.25 L19.25 -108.95 19.55 -107.45 Q19.8 -107.5 19.75 -107.95 L19.4 -109.0 Q19.55 -109.25 20.15 -109.45 L21.05 -109.75 22.2 -106.55 Q22.8 -104.7 22.8 -103.5 22.8 -102.75 21.05 -101.25 L19.4 -100.6 Q18.6 -100.2 17.9 -100.2 16.55 -100.2 16.55 -101.45 L14.3 -101.45 13.05 -100.25 11.9 -100.0 10.65 -100.2 9.7 -101.25 Q9.05 -102.25 9.05 -103.75 M49.55 -99.7 L49.55 -98.95 Q49.15 -98.5 48.4 -98.25 47.8 -98.55 47.8 -99.25 48.25 -99.7 49.55 -99.7 M55.4 -103.2 Q55.3 -102.75 54.65 -102.7 54.4 -103.0 54.4 -104.2 L55.05 -104.25 55.3 -103.95 55.4 -103.2 M76.15 -74.95 L76.4 -74.2 75.9 -73.5 75.15 -73.7 Q74.9 -74.0 74.9 -74.75 L76.15 -74.95 M80.3 -74.5 L81.95 -74.75 83.55 -75.2 84.55 -76.1 84.9 -76.95 85.6 -76.7 85.8 -75.65 Q85.8 -74.8 84.75 -73.95 83.75 -73.1 82.4 -72.7 80.4 -72.65 79.5 -73.35 78.5 -74.1 77.55 -74.2 L78.85 -74.55 80.3 -74.5 M80.65 -82.95 L80.9 -82.5 Q80.25 -81.75 79.65 -81.7 79.4 -82.0 79.4 -82.75 L80.65 -82.95 M43.05 -89.1 L43.9 -89.0 Q43.9 -88.3 43.4 -88.0 42.65 -88.2 42.4 -88.5 L43.05 -89.1 M49.9 -81.5 Q49.3 -81.75 49.3 -82.45 L50.55 -82.2 49.9 -81.5 M40.9 -85.5 Q40.15 -85.7 39.9 -86.0 L40.55 -86.6 41.4 -86.5 Q41.4 -85.8 40.9 -85.5 M43.8 -82.0 L45.45 -80.15 Q46.05 -79.25 45.55 -78.2 45.95 -77.95 46.3 -77.75 L47.9 -77.75 48.9 -78.4 50.55 -78.7 Q50.9 -78.95 50.4 -80.0 L50.65 -80.2 50.7 -80.2 50.55 -80.7 Q50.8 -80.85 51.35 -80.4 L51.65 -80.45 51.8 -80.0 51.8 -79.95 51.9 -79.6 53.35 -77.25 Q54.15 -76.0 54.15 -74.65 L54.05 -73.35 Q53.7 -72.2 52.4 -71.75 L52.3 -71.75 51.4 -71.0 Q47.65 -72.75 47.65 -68.2 47.65 -67.5 48.1 -67.35 L49.3 -66.5 Q49.9 -66.5 50.15 -67.7 L51.55 -66.5 52.8 -64.95 51.5 -63.6 Q51.15 -63.25 51.15 -62.6 51.15 -61.7 51.3 -61.25 L51.9 -61.35 52.9 -61.45 53.95 -61.2 54.9 -61.0 55.85 -60.9 56.8 -60.7 57.25 -60.85 58.05 -61.2 Q58.6 -61.75 58.75 -62.25 L58.9 -63.65 58.95 -64.45 59.4 -64.5 60.85 -63.5 62.3 -62.25 64.4 -62.25 Q66.0 -63.35 66.6 -63.3 L67.3 -63.0 69.05 -63.25 70.55 -63.5 70.55 -66.2 Q70.4 -66.5 69.25 -66.8 L68.85 -66.9 68.65 -66.95 68.7 -67.0 68.55 -67.2 69.0 -67.55 69.4 -68.0 69.5 -68.0 Q70.55 -69.0 70.55 -69.5 70.55 -70.15 69.55 -71.2 68.55 -72.25 68.55 -72.95 L68.65 -74.2 69.05 -74.2 69.15 -73.95 69.15 -74.2 69.55 -74.2 69.8 -72.3 70.1 -71.75 Q70.65 -71.6 71.4 -72.25 L74.05 -72.2 Q74.1 -71.85 74.85 -71.05 L75.55 -69.95 Q75.55 -69.3 74.95 -68.95 L74.4 -68.35 74.65 -68.45 75.3 -67.3 75.6 -66.8 76.05 -66.75 Q76.7 -66.0 77.2 -64.5 L77.35 -64.4 Q78.4 -63.7 78.4 -62.5 78.4 -60.9 77.8 -59.8 77.0 -58.35 74.65 -56.2 L72.1 -56.55 Q71.45 -56.7 70.65 -55.7 67.5 -57.0 66.6 -55.5 L66.3 -53.65 66.55 -52.0 66.8 -50.75 Q66.9 -49.25 67.45 -48.6 L67.7 -48.55 67.9 -48.55 Q68.2 -49.0 67.4 -50.2 L67.9 -50.5 Q68.3 -50.35 69.15 -48.5 L69.15 -48.45 69.65 -47.25 70.9 -43.65 Q70.9 -42.35 69.7 -41.0 L69.45 -40.75 69.05 -39.95 68.8 -39.95 Q67.9 -38.85 67.55 -37.95 L67.4 -37.95 Q67.0 -37.05 66.4 -36.7 L61.6 -36.0 61.65 -35.95 Q60.8 -35.55 59.75 -33.95 L59.05 -32.7 58.65 -31.0 57.9 -29.8 56.55 -28.45 54.2 -27.0 Q52.2 -26.2 50.4 -26.2 L49.3 -26.4 48.15 -26.75 47.55 -27.1 Q47.05 -27.5 47.05 -28.25 L47.15 -29.2 46.35 -29.4 45.15 -29.75 Q44.25 -31.55 42.15 -32.05 L41.9 -31.7 Q41.65 -31.7 40.8 -32.4 L40.35 -32.8 39.95 -32.45 Q39.45 -32.0 39.05 -32.0 38.8 -31.6 38.8 -32.85 L38.8 -33.55 Q38.85 -33.4 38.9 -33.5 L39.3 -33.55 39.65 -33.55 39.55 -34.25 39.6 -34.95 38.9 -36.1 38.7 -36.7 38.55 -38.0 38.9 -38.45 40.3 -36.75 40.9 -36.75 41.05 -39.8 40.9 -42.0 40.15 -42.25 38.95 -44.45 Q37.85 -46.0 37.3 -46.0 36.85 -46.0 35.7 -45.4 34.2 -44.6 33.8 -43.45 L33.55 -41.55 Q33.15 -40.15 31.6 -39.25 L31.55 -39.25 27.9 -40.0 26.9 -39.0 23.65 -39.2 21.95 -41.2 20.4 -42.95 18.65 -43.2 Q18.2 -44.55 18.1 -46.55 L17.9 -49.95 16.65 -50.25 Q16.05 -54.35 14.05 -56.5 L13.0 -55.75 11.9 -55.0 8.55 -55.2 7.85 -56.0 Q7.1 -56.7 6.15 -56.7 L6.05 -56.9 6.25 -58.0 6.05 -59.0 5.8 -59.25 4.8 -59.4 2.4 -59.2 Q2.0 -58.9 2.0 -57.5 L2.0 -56.5 Q2.3 -55.5 3.5 -55.5 L4.9 -55.8 4.5 -54.55 Q4.05 -53.6 4.05 -53.0 4.05 -51.5 2.35 -50.15 0.25 -48.45 -0.45 -47.0 -1.05 -44.8 -1.6 -43.65 -2.55 -41.55 -5.0 -41.2 -8.9 -41.9 -10.15 -43.7 L-10.75 -45.0 -10.75 -45.65 -10.75 -46.05 -10.65 -45.95 -10.6 -46.25 -10.0 -46.65 Q-10.05 -47.15 -10.45 -47.3 -10.95 -47.5 -10.95 -48.15 L-10.8 -48.8 -11.0 -49.5 -10.65 -51.4 -10.0 -52.75 -8.5 -51.45 -7.75 -52.15 -7.45 -52.4 -7.45 -52.75 -6.2 -52.8 -5.95 -52.8 -5.4 -54.05 Q-4.45 -56.2 -4.45 -57.45 L-5.75 -59.65 -5.6 -61.0 -6.0 -61.4 -6.2 -62.1 -6.0 -63.3 -5.65 -63.55 -6.25 -63.7 -6.5 -64.75 -5.25 -64.95 -5.0 -64.2 -5.0 -64.25 -4.25 -62.0 Q-3.75 -62.35 -3.4 -63.1 L-1.8 -63.3 Q-2.05 -65.4 -2.5 -66.45 -5.5 -67.5 -5.95 -68.45 L-5.95 -71.25 -5.65 -71.25 -5.95 -71.8 -6.25 -73.2 -6.0 -74.65 -5.75 -75.7 -5.45 -75.7 Q-4.9 -74.4 -4.1 -73.7 L-2.7 -72.2 -1.5 -71.95 -0.45 -71.95 -0.35 -73.7 0.05 -73.7 0.1 -73.3 0.15 -73.7 0.55 -73.7 0.8 -71.5 0.95 -71.45 3.05 -73.35 Q4.3 -74.85 4.65 -77.75 L5.2 -77.3 5.9 -76.45 Q6.55 -75.7 6.55 -76.95 L8.0 -77.8 Q9.4 -78.55 9.4 -79.45 9.4 -80.95 7.75 -81.6 6.05 -82.2 6.05 -84.2 6.05 -84.65 6.95 -85.65 7.9 -86.7 8.05 -88.25 L7.8 -89.15 Q7.6 -89.85 7.9 -90.2 L8.9 -92.0 9.9 -90.7 Q13.85 -92.65 14.35 -95.4 14.05 -95.85 14.05 -96.25 L14.15 -97.7 14.55 -97.7 15.15 -96.25 16.05 -95.0 Q16.9 -94.1 16.9 -93.5 L16.85 -92.5 15.8 -92.45 Q15.8 -91.35 16.4 -90.65 L17.4 -89.5 Q19.05 -89.7 19.9 -90.45 L21.3 -85.6 Q21.3 -84.1 20.4 -82.5 19.15 -80.2 16.9 -80.2 L15.8 -80.45 14.65 -80.75 14.6 -80.9 13.55 -79.65 Q13.3 -79.2 13.3 -78.5 13.3 -77.9 13.8 -76.6 L14.3 -74.5 14.4 -74.2 14.95 -74.6 15.4 -75.0 Q16.2 -74.55 16.65 -72.35 17.15 -69.95 17.8 -69.25 18.55 -69.15 22.8 -67.0 24.25 -67.0 25.15 -68.4 26.0 -69.65 25.65 -70.7 L26.55 -70.7 26.45 -70.35 Q26.3 -70.1 26.3 -69.4 26.3 -68.15 26.55 -68.5 27.4 -68.5 27.9 -68.95 L29.4 -66.5 31.55 -66.95 33.3 -67.45 Q33.25 -68.0 33.7 -68.9 L33.55 -69.2 35.55 -71.75 Q35.15 -72.5 33.65 -72.75 33.2 -73.3 33.15 -73.7 L33.05 -75.0 33.1 -76.25 33.4 -76.95 34.55 -77.2 Q35.0 -77.65 35.35 -78.9 35.7 -80.05 36.05 -80.25 36.55 -79.65 36.8 -78.5 L37.8 -78.05 Q38.15 -77.75 38.8 -77.75 L39.75 -77.9 40.65 -78.25 Q41.75 -78.7 42.0 -79.4 L42.05 -80.4 Q42.05 -81.0 41.55 -81.15 41.05 -81.25 41.05 -81.9 41.05 -82.55 41.7 -83.25 42.25 -83.9 42.15 -84.25 41.9 -85.55 42.4 -85.95 L43.05 -84.0 Q43.2 -82.7 43.8 -82.0 M41.55 -69.5 L39.8 -69.45 Q39.8 -68.9 38.9 -68.0 L39.8 -67.5 40.9 -67.7 41.55 -68.75 41.55 -69.5 M73.3 -73.25 L72.65 -73.2 Q72.4 -73.5 72.4 -74.25 73.1 -74.55 73.4 -74.0 L73.3 -73.25 M77.3 -62.6 L77.25 -61.6 77.4 -62.4 77.3 -62.75 77.3 -62.6 M34.55 -82.6 L35.4 -82.5 Q35.4 -81.8 34.9 -81.5 34.15 -81.7 33.9 -82.0 L34.55 -82.6 M5.4 -86.9 L6.05 -86.75 6.15 -86.0 5.15 -85.7 Q4.9 -86.0 4.9 -86.75 L5.4 -86.9 M2.4 -75.0 L1.65 -75.2 Q1.4 -75.5 1.4 -76.25 L2.65 -76.45 2.9 -75.7 2.4 -75.0 M18.35 -51.1 L18.6 -50.5 18.6 -50.8 18.35 -51.1 M32.55 -68.7 L32.55 -67.95 32.15 -67.5 31.05 -67.5 Q30.8 -66.9 30.8 -68.15 30.8 -69.5 32.55 -68.7 M27.05 -72.7 L26.4 -72.0 25.8 -72.5 26.05 -73.45 26.65 -73.2 27.05 -72.7 M21.25 -43.85 L21.3 -43.75 21.3 -43.9 21.25 -43.85 M22.3 -31.5 L22.9 -31.0 22.65 -30.7 20.15 -30.7 19.9 -31.0 Q20.6 -32.1 21.9 -31.7 L22.3 -31.5 M22.4 -32.5 L21.8 -33.0 22.05 -33.95 22.65 -33.7 23.05 -33.2 Q22.9 -32.75 22.4 -32.5 M36.4 -34.2 L35.9 -33.5 35.15 -33.7 Q34.9 -34.0 34.9 -34.75 L36.15 -34.95 36.4 -34.2 M32.9 -29.0 Q32.65 -28.7 31.55 -28.5 31.3 -28.95 31.3 -29.5 L31.8 -29.5 Q32.25 -29.45 32.9 -29.0 M32.8 -26.7 L33.4 -26.7 Q33.7 -28.25 34.9 -29.5 35.9 -30.55 35.75 -31.4 35.4 -32.25 35.4 -32.75 L36.15 -32.95 38.4 -28.2 38.95 -27.95 40.4 -27.7 41.1 -27.65 40.9 -28.5 Q40.9 -29.25 41.15 -29.2 L42.15 -28.95 42.35 -28.6 42.4 -27.65 Q42.4 -26.2 41.2 -25.6 39.9 -24.95 39.65 -23.45 L40.35 -22.85 40.9 -22.25 42.4 -23.5 42.8 -22.95 42.9 -21.65 42.65 -20.45 Q42.15 -19.65 40.4 -18.5 L37.6 -19.2 34.15 -19.75 32.4 -21.85 Q30.9 -23.35 30.9 -23.65 L31.3 -25.6 32.15 -27.75 32.65 -27.35 32.8 -26.7 M18.9 -31.5 Q18.3 -31.75 18.3 -32.45 L19.55 -32.2 Q19.4 -31.75 18.9 -31.5 M30.4 -15.5 L28.65 -15.7 Q28.4 -15.15 28.4 -16.4 28.4 -17.15 28.65 -17.15 L28.9 -17.0 30.05 -16.9 Q31.25 -16.8 31.4 -16.5 L30.4 -15.5 M23.15 -18.95 L25.05 -18.2 24.8 -17.5 22.65 -17.45 22.4 -18.75 23.15 -18.95 M22.15 -19.75 Q21.6 -19.75 21.4 -20.0 L21.55 -20.45 Q22.65 -20.45 22.9 -20.0 L22.15 -19.75 M27.9 -16.75 L26.8 -16.7 Q26.4 -17.45 26.4 -17.95 L27.65 -17.95 28.05 -17.2 27.9 -16.75 M63.65 -29.4 L64.4 -29.2 64.8 -29.0 65.4 -28.5 Q65.15 -28.2 64.4 -27.95 L63.55 -27.85 Q63.3 -27.85 63.3 -28.65 63.3 -29.4 63.65 -29.4 M62.8 -25.85 Q62.8 -26.65 63.3 -26.75 L64.05 -26.7 63.9 -25.2 63.05 -25.0 Q62.8 -24.6 62.8 -25.85 M67.4 -25.9 Q67.4 -24.65 66.15 -24.1 64.15 -23.2 63.4 -22.5 L60.4 -23.0 60.6 -23.25 61.15 -23.75 Q64.1 -24.25 65.0 -25.8 65.9 -27.35 66.65 -27.45 L67.2 -26.95 67.4 -25.9 M73.9 -29.0 Q73.25 -28.25 72.65 -28.2 72.4 -28.5 72.4 -29.25 L73.65 -29.45 73.9 -29.0 M70.9 -26.2 Q70.3 -26.5 70.3 -27.2 70.5 -27.7 71.55 -27.2 71.3 -26.45 70.9 -26.2 M72.25 -24.85 L72.65 -24.45 Q72.25 -23.7 71.15 -23.7 70.9 -24.0 70.9 -24.75 L71.9 -25.0 72.25 -24.85 M74.8 -26.0 Q74.6 -25.7 73.65 -25.7 73.4 -26.0 73.4 -26.75 L73.9 -26.9 74.55 -26.75 74.8 -26.0 M75.05 -26.0 Q75.05 -26.75 75.25 -26.6 L75.4 -26.45 Q77.05 -24.65 77.05 -23.7 77.05 -23.1 76.3 -22.5 75.7 -22.0 75.4 -22.0 L75.15 -22.0 74.9 -21.75 Q73.65 -21.95 73.4 -22.25 L73.15 -22.7 73.45 -22.65 72.55 -23.2 Q72.95 -24.25 74.1 -24.95 75.05 -25.55 75.05 -26.0 M56.15 -42.2 Q56.85 -40.05 55.0 -38.2 54.1 -37.3 51.4 -35.7 L52.05 -34.7 Q52.6 -34.1 53.15 -33.85 L54.9 -34.15 55.65 -34.45 Q56.4 -34.45 58.3 -36.1 L60.4 -38.0 60.55 -39.0 59.15 -39.25 59.05 -40.45 57.65 -40.7 Q57.4 -41.0 57.4 -42.45 L57.4 -42.5 56.15 -42.2 M59.85 -26.05 L60.65 -26.45 60.9 -26.0 59.9 -25.0 59.3 -25.25 59.85 -26.05 M58.9 -24.5 L59.05 -24.95 Q60.15 -24.95 60.4 -24.5 L59.65 -24.25 Q59.1 -24.25 58.9 -24.5 M72.8 -22.0 Q73.55 -21.75 72.7 -21.7 L72.8 -21.5 Q72.45 -20.95 69.65 -20.95 L68.3 -22.15 Q67.85 -22.5 67.55 -23.7 L67.65 -23.7 Q67.4 -24.0 67.4 -24.75 68.25 -25.1 70.15 -24.45 L71.3 -23.5 72.8 -22.0 M83.65 -77.75 Q83.1 -77.75 82.9 -78.0 L83.05 -78.45 Q84.15 -78.45 84.4 -78.0 L83.65 -77.75 M-2.5 -75.0 Q-2.5 -74.4 -3.0 -74.0 -3.75 -74.2 -4.0 -74.5 -2.35 -76.15 -2.5 -75.0 M-5.25 -63.7 L-5.1 -63.5 -5.0 -64.15 -5.25 -63.7 M-11.0 -54.0 L-10.95 -54.45 Q-9.75 -54.45 -9.5 -54.0 -9.7 -53.75 -10.25 -53.75 -10.8 -53.75 -11.0 -54.0 M-2.45 -31.2 Q-2.55 -30.0 -3.95 -29.95 -4.25 -29.4 -4.25 -30.65 L-4.2 -31.7 -2.45 -31.2 M-5.7 -28.65 Q-5.7 -29.45 -5.05 -29.5 -4.55 -29.55 -3.95 -29.2 L-3.45 -28.45 -3.75 -28.0 -5.45 -28.0 Q-5.7 -27.4 -5.7 -28.65" fill="#afbfc2" fill-rule="evenodd" stroke="none"/>
    </g>
  </defs>
</svg>
