<?xml version="1.0" encoding="UTF-8" standalone="no"?>
<svg xmlns:ffdec="https://www.free-decompiler.com/flash" xmlns:xlink="http://www.w3.org/1999/xlink" ffdec:objectType="frame" height="105.8px" width="55.65px" xmlns="http://www.w3.org/2000/svg">
  <g transform="matrix(1.0, 0.0, 0.0, 1.0, 26.95, 5.85)">
    <use ffdec:characterId="1385" height="13.35" transform="matrix(7.0, 0.0, 0.0, 6.4793, -15.75, -3.8876)" width="4.25" xlink:href="#shape0"/>
  </g>
  <defs>
    <g id="shape0" transform="matrix(1.0, 0.0, 0.0, 1.0, 2.25, 0.6)">
      <path d="M0.35 -0.35 L0.25 -0.4 0.15 -0.35 Q0.4 -0.1 0.5 0.3 0.6 0.6 0.6 0.95 0.6 1.15 0.6 1.35 0.65 1.8 0.8 2.15 L1.1 2.35 1.25 2.55 1.15 2.0 1.0 0.75 Q0.9 0.05 0.35 -0.35 M0.05 -0.15 L0.0 -0.1 0.05 -0.1 0.05 0.1 0.0 0.3 -0.05 0.35 Q-0.15 0.55 -0.15 0.85 L-0.15 1.0 Q0.0 1.45 0.25 1.75 L0.45 1.95 0.6 2.05 Q0.65 2.0 0.65 1.95 L0.6 1.8 0.6 1.85 Q0.5 1.45 0.5 1.0 0.5 0.5 0.25 0.05 L0.1 -0.2 0.1 -0.15 0.05 -0.15 M1.15 0.9 L1.15 0.95 1.2 1.2 1.2 1.75 1.25 2.0 Q1.3 2.4 1.45 2.75 1.8 3.3 1.95 3.95 2.1 4.9 1.85 5.8 L1.9 5.8 1.75 6.2 1.65 6.4 Q1.4 6.8 0.7 7.2 -0.15 7.7 -0.7 8.45 L-0.75 8.45 Q-0.6 8.15 -0.35 7.9 -0.15 7.6 0.0 7.25 L0.0 6.95 Q0.0 6.4 -0.25 6.05 L-0.3 6.0 -0.45 5.9 -0.6 5.85 -1.2 5.9 -1.45 5.8 -1.7 5.6 -1.95 5.35 -2.0 5.15 -2.1 4.85 Q-2.3 4.15 -2.2 3.4 L-2.05 2.4 Q-1.9 1.4 -1.55 0.4 L-1.45 0.15 Q-1.3 -0.05 -1.1 -0.2 -0.85 -0.35 -0.55 -0.5 L-0.35 -0.55 -0.3 -0.55 -0.15 -0.6 Q0.3 -0.65 0.65 -0.3 1.05 0.05 1.15 0.55 L1.15 0.9 M0.1 1.7 L-0.1 1.55 -0.15 1.55 -0.15 1.65 Q-0.15 2.05 -0.05 2.45 L0.05 2.8 0.2 3.1 Q0.5 3.65 0.65 4.35 L0.7 4.9 0.7 5.45 0.6 6.0 Q0.65 6.4 0.95 6.65 1.05 6.7 1.15 6.7 L1.25 6.65 1.55 6.4 Q1.8 6.0 1.85 5.5 L1.9 5.0 Q1.95 4.1 1.6 3.25 L1.55 3.25 1.35 2.85 1.1 2.5 Q1.0 2.4 0.9 2.3 L0.85 2.3 0.85 2.25 0.8 2.25 0.75 2.2 0.65 2.15 0.45 2.0 0.25 1.9 0.1 1.7 M0.2 3.35 L-0.15 2.45 Q-0.25 2.0 -0.3 1.5 L-0.3 1.45 -0.35 1.4 -0.35 1.35 -0.5 1.4 -0.55 1.5 -0.8 2.1 Q-0.9 2.4 -0.9 2.7 L-0.95 2.8 Q-0.95 3.4 -0.9 3.95 L-0.7 4.85 -0.5 5.4 -0.35 5.65 -0.05 6.1 Q0.15 6.55 0.15 7.05 L0.2 7.05 0.4 6.7 0.55 6.0 0.55 5.45 Q0.6 4.9 0.5 4.35 0.45 3.8 0.2 3.3 L0.2 3.35 M0.55 6.55 L0.5 6.6 0.5 6.7 0.45 7.0 0.4 7.0 0.4 7.2 0.55 7.15 0.6 7.1 1.1 6.8 Q0.85 6.8 0.7 6.55 L0.55 6.55 M0.65 6.55 L0.65 6.5 0.6 6.5 0.65 6.55 M-0.8 -0.3 L-1.2 0.0 Q-1.6 0.6 -1.4 1.3 L-1.25 1.85 Q-1.15 2.1 -1.05 2.4 L-1.0 2.35 -0.65 1.6 -0.65 1.5 -0.3 0.75 -0.25 0.55 -0.1 0.1 -0.05 -0.1 -0.1 -0.3 -0.15 -0.35 Q-0.4 -0.55 -0.8 -0.3 M-0.3 0.95 L-0.3 0.95 M-1.55 1.25 L-1.7 1.45 -1.85 2.15 Q-2.05 3.05 -2.1 4.0 L-1.85 3.5 -1.65 3.3 -1.6 3.2 -1.35 2.8 Q-1.25 2.6 -1.2 2.35 L-1.2 2.3 Q-1.25 2.05 -1.35 1.85 L-1.5 1.55 -1.55 1.25 M-1.6 1.1 L-1.6 1.1 M-1.65 3.5 L-1.8 3.65 -1.9 3.9 -1.95 4.0 -2.0 4.3 Q-2.05 4.45 -2.0 4.7 L-2.0 4.85 -1.9 5.15 -1.75 5.4 -1.5 5.65 -1.2 5.75 -0.8 5.8 -0.65 5.75 -0.55 5.65 -0.55 5.45 -0.8 4.85 Q-0.95 4.35 -1.05 3.75 L-1.05 3.25 -1.1 2.9 -1.1 2.85 -1.15 2.85 Q-1.2 2.85 -1.25 2.9 L-1.25 2.95 Q-1.35 3.15 -1.5 3.3 L-1.65 3.5" fill="#ff0000" fill-rule="evenodd" stroke="none"/>
      <path d="M0.35 -0.35 Q0.9 0.05 1.0 0.75 L1.15 2.0 1.25 2.55 1.1 2.35 0.8 2.15 Q0.65 1.8 0.6 1.35 0.6 1.15 0.6 0.95 0.6 0.6 0.5 0.3 0.4 -0.1 0.15 -0.35 L0.25 -0.4 0.35 -0.35 M0.05 -0.15 L0.1 -0.15 0.1 -0.2 0.25 0.05 Q0.5 0.5 0.5 1.0 0.5 1.45 0.6 1.85 L0.6 1.8 0.65 1.95 Q0.65 2.0 0.6 2.05 L0.45 1.95 0.25 1.75 Q0.0 1.45 -0.15 1.0 L-0.15 0.85 Q-0.15 0.55 -0.05 0.35 L0.0 0.3 0.05 0.1 0.05 -0.1 0.0 -0.1 0.05 -0.15 M0.65 6.55 L0.6 6.5 0.65 6.5 0.65 6.55 M0.55 6.55 L0.7 6.55 Q0.85 6.8 1.1 6.8 L0.6 7.1 0.55 7.15 0.4 7.2 0.4 7.0 0.45 7.0 0.5 6.7 0.5 6.6 0.55 6.55 M0.2 3.35 L0.2 3.3 Q0.45 3.8 0.5 4.35 0.6 4.9 0.55 5.45 L0.55 6.0 0.4 6.7 0.2 7.05 0.15 7.05 Q0.15 6.55 -0.05 6.1 L-0.35 5.65 -0.5 5.4 -0.7 4.85 -0.9 3.95 Q-0.95 3.4 -0.95 2.8 L-0.9 2.7 Q-0.9 2.4 -0.8 2.1 L-0.55 1.5 -0.5 1.4 -0.35 1.35 -0.35 1.4 -0.3 1.45 -0.3 1.5 Q-0.25 2.0 -0.15 2.45 L0.2 3.35 M0.1 1.7 L0.25 1.9 0.45 2.0 0.65 2.15 0.75 2.2 0.8 2.25 0.85 2.25 0.85 2.3 0.9 2.3 Q1.0 2.4 1.1 2.5 L1.35 2.85 1.55 3.25 1.6 3.25 Q1.95 4.1 1.9 5.0 L1.85 5.5 Q1.8 6.0 1.55 6.4 L1.25 6.65 1.15 6.7 Q1.05 6.7 0.95 6.65 0.65 6.4 0.6 6.0 L0.7 5.45 0.7 4.9 0.65 4.35 Q0.5 3.65 0.2 3.1 L0.05 2.8 -0.05 2.45 Q-0.15 2.05 -0.15 1.65 L-0.15 1.55 -0.1 1.55 0.1 1.7 M1.25 10.25 L1.25 10.5 Q1.15 11.2 0.8 11.85 0.4 12.45 -0.15 12.65 L-0.15 12.3 -0.2 12.25 Q-0.3 12.1 -0.4 12.1 L-0.75 12.1 -0.85 11.95 Q-1.05 11.8 -1.05 11.55 -1.05 11.05 -0.75 10.75 L-0.75 10.85 Q-0.7 11.55 -0.05 11.6 0.35 11.55 0.7 11.2 1.1 10.8 1.25 10.25 M-0.8 -0.3 Q-0.4 -0.55 -0.15 -0.35 L-0.1 -0.3 -0.05 -0.1 -0.1 0.1 -0.25 0.55 -0.3 0.75 -0.65 1.5 -0.65 1.6 -1.0 2.35 -1.05 2.4 Q-1.15 2.1 -1.25 1.85 L-1.4 1.3 Q-1.6 0.6 -1.2 0.0 L-0.8 -0.3 M-0.3 0.95 L-0.3 0.95 M-1.65 3.5 L-1.5 3.3 Q-1.35 3.15 -1.25 2.95 L-1.25 2.9 Q-1.2 2.85 -1.15 2.85 L-1.1 2.85 -1.1 2.9 -1.05 3.25 -1.05 3.75 Q-0.95 4.35 -0.8 4.85 L-0.55 5.45 -0.55 5.65 -0.65 5.75 -0.8 5.8 -1.2 5.75 -1.5 5.65 -1.75 5.4 -1.9 5.15 -2.0 4.85 -2.0 4.7 Q-2.05 4.45 -2.0 4.3 L-1.95 4.0 -1.9 3.9 -1.8 3.65 -1.65 3.5 M-1.6 1.1 L-1.6 1.1 M-1.55 1.25 L-1.5 1.55 -1.35 1.85 Q-1.25 2.05 -1.2 2.3 L-1.2 2.35 Q-1.25 2.6 -1.35 2.8 L-1.6 3.2 -1.65 3.3 -1.85 3.5 -2.1 4.0 Q-2.05 3.05 -1.85 2.15 L-1.7 1.45 -1.55 1.25" fill="url(#gradient0)" fill-rule="evenodd" stroke="none"/>
      <path d="M1.2 10.0 L1.25 9.9 1.3 9.95 1.3 10.0 Q1.5 10.25 1.4 10.65 1.15 11.8 0.3 12.55 0.1 12.7 -0.15 12.75 L-0.25 12.75 -0.25 12.35 Q-0.45 12.2 -0.6 12.2 L-0.85 12.2 -0.95 12.1 Q-1.3 11.8 -1.15 11.25 -1.1 10.95 -0.9 10.75 L-0.75 10.6 -0.7 10.65 -0.7 10.7 -0.65 11.0 Q-0.6 11.35 -0.3 11.4 0.15 11.55 0.45 11.25 1.0 10.75 1.2 10.0 M1.25 10.25 Q1.1 10.8 0.7 11.2 0.35 11.55 -0.05 11.6 -0.7 11.55 -0.75 10.85 L-0.75 10.75 Q-1.05 11.05 -1.05 11.55 -1.05 11.8 -0.85 11.95 L-0.75 12.1 -0.4 12.1 Q-0.3 12.1 -0.2 12.25 L-0.15 12.3 -0.15 12.65 Q0.4 12.45 0.8 11.85 1.15 11.2 1.25 10.5 L1.25 10.25" fill="#cc0000" fill-rule="evenodd" stroke="none"/>
    </g>
    <radialGradient cx="0" cy="0" gradientTransform="matrix(-0.0159, 0.0, 0.0, -0.0123, 0.0, 0.75)" gradientUnits="userSpaceOnUse" id="gradient0" r="819.2" spreadMethod="pad">
      <stop offset="0.0" stop-color="#ffff00"/>
      <stop offset="1.0" stop-color="#ff6600"/>
    </radialGradient>
  </defs>
</svg>
