<?xml version="1.0" encoding="UTF-8" standalone="no"?>
<svg xmlns:ffdec="https://www.free-decompiler.com/flash" xmlns:xlink="http://www.w3.org/1999/xlink" ffdec:objectType="frame" height="105.8px" width="55.65px" xmlns="http://www.w3.org/2000/svg">
  <g transform="matrix(1.0, 0.0, 0.0, 1.0, 26.95, 5.85)">
    <use ffdec:characterId="1394" height="11.8" transform="matrix(7.0, 0.0, 0.0, 7.0, -18.55, -2.8)" width="6.45" xlink:href="#shape0"/>
  </g>
  <defs>
    <g id="shape0" transform="matrix(1.0, 0.0, 0.0, 1.0, 2.65, 0.4)">
      <path d="M-1.85 7.15 L-1.7 6.95 Q-0.95 6.3 -0.85 5.3 -0.8 4.8 -0.9 4.35 L-1.0 3.9 -1.4 3.0 -1.55 2.25 Q-1.6 1.8 -1.6 1.35 -1.6 0.9 -1.4 0.55 L-1.3 0.4 Q-1.05 0.0 -0.7 -0.25 L-0.55 -0.35 -0.25 -0.4 -0.2 -0.35 0.0 -0.25 0.05 -0.25 0.1 -0.3 0.15 -0.3 0.3 -0.35 0.35 -0.35 Q0.6 -0.35 0.8 -0.2 1.75 0.4 1.85 1.55 L1.85 2.4 Q1.85 2.85 1.7 3.3 L1.6 3.6 1.4 4.05 1.25 4.2 Q0.9 4.6 0.65 5.1 L0.6 5.4 0.55 5.75 Q0.6 5.95 0.7 6.15 0.95 6.2 1.1 6.05 L1.15 6.05 1.25 6.0 Q1.3 6.95 0.65 7.7 L0.45 7.9 Q0.3 8.0 0.1 8.0 L-0.05 8.0 Q-0.1 7.95 -0.2 7.9 L-0.3 7.85 Q-0.4 7.55 -0.45 7.2 L-0.5 6.85 Q-0.55 6.8 -0.6 6.7 -0.6 6.6 -0.7 6.5 L-0.85 6.5 Q-1.05 6.7 -1.1 6.9 L-1.1 6.95 -1.2 7.05 -1.25 7.05 Q-1.5 7.05 -1.75 7.3 L-1.85 7.15 M0.25 -0.1 Q0.15 -0.2 0.1 -0.15 L0.0 -0.1 0.0 -0.15 Q-0.2 -0.05 -0.35 0.1 -1.0 0.95 -1.05 2.05 L-1.0 2.15 Q-0.9 2.7 -0.75 3.15 L-0.75 2.95 Q-0.75 2.75 -0.7 2.5 L-0.55 2.0 Q-0.45 1.7 0.15 1.1 L0.3 0.8 Q0.45 0.35 0.25 -0.1 M0.65 -0.05 L0.8 0.1 Q1.15 0.7 1.15 1.4 L1.2 1.85 1.3 2.2 Q1.45 2.75 1.45 3.3 L1.5 3.45 1.6 3.25 Q1.7 2.85 1.7 2.45 1.7 2.0 1.65 1.55 1.55 0.9 1.15 0.35 1.0 0.1 0.75 -0.05 L0.65 -0.05 M0.75 0.35 L0.7 0.35 0.6 0.3 0.55 0.4 0.5 0.55 0.45 0.85 Q0.3 1.25 0.0 1.5 -0.3 1.8 -0.45 2.2 -0.65 2.65 -0.6 3.15 L-0.55 3.5 Q-0.4 4.15 -0.15 4.75 L-0.1 4.75 -0.05 4.7 -0.1 4.35 -0.1 4.1 Q-0.05 3.45 0.4 2.95 L0.45 2.95 Q0.7 2.65 0.8 2.35 L0.9 1.85 0.95 1.45 Q1.0 0.95 0.8 0.5 L0.75 0.35 M1.05 2.2 L1.0 2.25 1.0 2.3 0.85 2.7 0.7 2.9 0.5 3.05 Q0.2 3.4 0.1 3.8 L0.1 4.8 Q0.15 5.15 0.25 5.4 L0.35 5.55 0.45 5.55 Q0.45 5.35 0.5 5.2 L0.5 5.1 Q0.6 4.8 0.75 4.55 L0.95 4.35 1.15 4.1 1.15 4.05 Q1.25 3.9 1.3 3.7 1.3 2.95 1.15 2.25 1.1 2.2 1.05 2.2 M0.45 6.0 L0.3 5.75 0.25 5.75 Q-0.3 4.9 -0.6 3.95 L-0.7 3.6 -0.95 2.85 Q-1.4 2.0 -1.05 1.1 -0.9 0.7 -0.7 0.35 -0.55 0.15 -0.4 0.0 L-0.4 -0.1 -0.5 -0.1 Q-0.7 -0.05 -0.8 0.0 L-0.9 0.1 Q-1.15 0.35 -1.3 0.65 -1.45 1.05 -1.45 1.5 -1.45 1.95 -1.35 2.4 L-1.25 3.0 -1.0 3.4 -0.9 3.6 Q-0.7 3.9 -0.6 4.3 L-0.4 5.0 Q-0.3 5.4 -0.3 5.85 L-0.3 7.1 Q-0.3 7.4 -0.2 7.7 L-0.1 7.85 -0.05 7.85 Q0.2 7.85 0.45 7.75 0.65 7.6 0.75 7.35 0.95 7.0 1.1 6.65 1.15 6.4 1.15 6.15 1.0 6.25 0.85 6.3 0.55 6.25 0.45 6.0 M2.9 11.0 L2.9 10.95 2.9 11.0 M-0.75 4.45 L-0.75 4.5 Q-0.75 4.7 -0.75 4.9 -0.75 5.25 -0.8 5.55 -0.95 6.4 -1.5 6.95 -1.4 6.85 -1.25 6.9 L-1.25 6.8 Q-1.15 6.5 -0.85 6.35 -0.75 6.3 -0.65 6.4 L-0.5 6.55 -0.4 6.35 -0.45 5.7 Q-0.5 5.2 -0.6 4.75 L-0.75 4.45 M-0.45 6.7 L-0.45 6.7 M-1.05 9.3 L-1.05 9.3" fill="#ff0000" fill-rule="evenodd" stroke="none"/>
      <path d="M0.25 -0.1 Q0.45 0.35 0.3 0.8 L0.15 1.1 Q-0.45 1.7 -0.55 2.0 L-0.7 2.5 Q-0.75 2.75 -0.75 2.95 L-0.75 3.15 Q-0.9 2.7 -1.0 2.15 L-1.05 2.05 Q-1.0 0.95 -0.35 0.1 -0.2 -0.05 0.0 -0.15 L0.0 -0.1 0.1 -0.15 Q0.15 -0.2 0.25 -0.1 M1.05 2.2 Q1.1 2.2 1.15 2.25 1.3 2.95 1.3 3.7 1.25 3.9 1.15 4.05 L1.15 4.1 0.95 4.35 0.75 4.55 Q0.6 4.8 0.5 5.1 L0.5 5.2 Q0.45 5.35 0.45 5.55 L0.35 5.55 0.25 5.4 Q0.15 5.15 0.1 4.8 L0.1 3.8 Q0.2 3.4 0.5 3.05 L0.7 2.9 0.85 2.7 1.0 2.3 1.0 2.25 1.05 2.2 M0.75 0.35 L0.8 0.5 Q1.0 0.95 0.95 1.45 L0.9 1.85 0.8 2.35 Q0.7 2.65 0.45 2.95 L0.4 2.95 Q-0.05 3.45 -0.1 4.1 L-0.1 4.35 -0.05 4.7 -0.1 4.75 -0.15 4.75 Q-0.4 4.15 -0.55 3.5 L-0.6 3.15 Q-0.65 2.65 -0.45 2.2 -0.3 1.8 0.0 1.5 0.3 1.25 0.45 0.85 L0.5 0.55 0.55 0.4 0.6 0.3 0.7 0.35 0.75 0.35 M0.65 -0.05 L0.75 -0.05 Q1.0 0.1 1.15 0.35 1.55 0.9 1.65 1.55 1.7 2.0 1.7 2.45 1.7 2.85 1.6 3.25 L1.5 3.45 1.45 3.3 Q1.45 2.75 1.3 2.2 L1.2 1.85 1.15 1.4 Q1.15 0.7 0.8 0.1 L0.65 -0.05 M0.45 6.0 Q0.55 6.25 0.85 6.3 1.0 6.25 1.15 6.15 1.15 6.4 1.1 6.65 0.95 7.0 0.75 7.35 0.65 7.6 0.45 7.75 0.2 7.85 -0.05 7.85 L-0.1 7.85 -0.2 7.7 Q-0.3 7.4 -0.3 7.1 L-0.3 5.85 Q-0.3 5.4 -0.4 5.0 L-0.6 4.3 Q-0.7 3.9 -0.9 3.6 L-1.0 3.4 -1.25 3.0 -1.35 2.4 Q-1.45 1.95 -1.45 1.5 -1.45 1.05 -1.3 0.65 -1.15 0.35 -0.9 0.1 L-0.8 0.0 Q-0.7 -0.05 -0.5 -0.1 L-0.4 -0.1 -0.4 0.0 Q-0.55 0.15 -0.7 0.35 -0.9 0.7 -1.05 1.1 -1.4 2.0 -0.95 2.85 L-0.7 3.6 -0.6 3.95 Q-0.3 4.9 0.25 5.75 L0.3 5.75 0.45 6.0 M3.5 8.95 L3.55 8.95 Q3.65 9.0 3.7 9.05 L3.5 9.15 3.35 9.3 Q3.2 9.4 3.15 9.55 L3.15 9.6 Q3.0 9.75 3.05 9.95 L3.05 10.1 3.1 10.3 3.05 10.55 Q2.95 10.85 2.75 10.95 L2.45 10.95 Q2.05 10.9 1.8 10.6 1.5 10.25 1.35 9.85 L1.15 9.25 Q1.6 9.75 2.3 9.9 L2.65 9.75 Q3.15 9.5 3.45 9.0 3.45 8.95 3.5 9.0 L3.5 8.95 M-0.45 6.7 L-0.45 6.7 M-0.75 4.45 L-0.6 4.75 Q-0.5 5.2 -0.45 5.7 L-0.4 6.35 -0.5 6.55 -0.65 6.4 Q-0.75 6.3 -0.85 6.35 -1.15 6.5 -1.25 6.8 L-1.25 6.9 Q-1.4 6.85 -1.5 6.95 -0.95 6.4 -0.8 5.55 -0.75 5.25 -0.75 4.9 -0.75 4.7 -0.75 4.5 L-0.75 4.45 M-1.05 9.3 Q-0.9 9.4 -0.75 9.5 -0.55 9.65 -0.4 9.85 -0.2 10.15 -0.2 10.55 -0.2 10.6 -0.2 10.65 -0.35 10.9 -0.55 11.1 -0.75 11.25 -1.1 11.3 -0.95 11.15 -0.9 10.95 -0.8 10.35 -1.4 10.1 -1.8 9.95 -2.25 9.95 -2.5 9.55 -2.5 9.05 -2.55 8.4 -2.25 7.85 L-2.2 7.85 -2.2 7.95 -2.15 7.95 -2.15 8.15 Q-2.15 8.6 -1.8 8.85 L-1.05 9.3 -1.05 9.3" fill="url(#gradient0)" fill-rule="evenodd" stroke="none"/>
      <path d="M-1.85 7.15 L-1.75 7.3 -1.8 7.4 Q-2.05 7.75 -2.05 8.05 -2.0 8.5 -1.6 8.8 L-0.9 9.25 Q-0.75 9.35 -0.6 9.45 L-0.35 9.65 -0.2 9.85 Q0.05 10.25 -0.1 10.7 -0.15 10.95 -0.35 11.1 -0.55 11.25 -0.8 11.4 L-0.85 11.4 -1.15 11.35 -1.2 11.4 -1.25 11.4 -1.25 11.35 -1.15 11.2 Q-0.85 10.9 -1.15 10.5 -1.3 10.3 -1.55 10.2 -1.9 10.1 -2.3 10.1 L-2.35 9.95 Q-2.6 9.6 -2.6 9.15 -2.7 8.1 -2.0 7.35 L-1.85 7.15 M2.9 11.0 L2.75 11.05 2.65 11.1 2.3 11.1 Q1.8 10.95 1.5 10.45 1.15 9.9 1.0 9.3 L1.0 9.0 0.95 8.95 1.05 8.9 1.05 8.95 Q1.4 9.35 1.9 9.65 2.3 9.9 2.75 9.6 3.1 9.35 3.35 8.9 L3.4 8.9 3.55 8.85 Q3.7 8.9 3.75 9.05 L3.8 9.15 Q3.55 9.3 3.35 9.55 L3.25 9.75 3.2 9.75 3.15 9.9 3.15 9.85 3.2 10.2 Q3.25 10.65 2.9 10.95 L2.9 11.0 M3.5 8.95 L3.5 9.0 Q3.45 8.95 3.45 9.0 3.15 9.5 2.65 9.75 L2.3 9.9 Q1.6 9.75 1.15 9.25 L1.35 9.85 Q1.5 10.25 1.8 10.6 2.05 10.9 2.45 10.95 L2.75 10.95 Q2.95 10.85 3.05 10.55 L3.1 10.3 3.05 10.1 3.05 9.95 Q3.0 9.75 3.15 9.6 L3.15 9.55 Q3.2 9.4 3.35 9.3 L3.5 9.15 3.7 9.05 Q3.65 9.0 3.55 8.95 L3.5 8.95 M-1.05 9.3 L-1.8 8.85 Q-2.15 8.6 -2.15 8.15 L-2.15 7.95 -2.2 7.95 -2.2 7.85 -2.25 7.85 Q-2.55 8.4 -2.5 9.05 -2.5 9.55 -2.25 9.95 -1.8 9.95 -1.4 10.1 -0.8 10.35 -0.9 10.95 -0.95 11.15 -1.1 11.3 -0.75 11.25 -0.55 11.1 -0.35 10.9 -0.2 10.65 -0.2 10.6 -0.2 10.55 -0.2 10.15 -0.4 9.85 -0.55 9.65 -0.75 9.5 -0.9 9.4 -1.05 9.3" fill="#cc0000" fill-rule="evenodd" stroke="none"/>
    </g>
    <radialGradient cx="0" cy="0" gradientTransform="matrix(-0.0159, 0.0, 0.0, -0.0114, 0.0, 0.7)" gradientUnits="userSpaceOnUse" id="gradient0" r="819.2" spreadMethod="pad">
      <stop offset="0.0" stop-color="#ffff00"/>
      <stop offset="1.0" stop-color="#ff6600"/>
    </radialGradient>
  </defs>
</svg>
