<?xml version="1.0" encoding="UTF-8" standalone="no"?>
<svg xmlns:ffdec="https://www.free-decompiler.com/flash" xmlns:xlink="http://www.w3.org/1999/xlink" ffdec:objectType="frame" height="105.8px" width="55.65px" xmlns="http://www.w3.org/2000/svg">
  <g transform="matrix(1.0, 0.0, 0.0, 1.0, 26.95, 5.85)">
    <use ffdec:characterId="1388" height="11.15" transform="matrix(6.9381, 0.0, 0.0, 6.5032, -23.5894, -2.6013)" width="5.65" xlink:href="#shape0"/>
  </g>
  <defs>
    <g id="shape0" transform="matrix(1.0, 0.0, 0.0, 1.0, 3.4, 0.4)">
      <path d="M0.15 -0.1 Q0.65 0.2 1.0 0.65 L1.3 1.05 1.35 1.25 1.6 1.95 1.65 2.4 1.65 2.85 Q1.6 3.15 1.5 3.4 1.2 3.9 0.75 4.25 L0.7 4.3 0.65 4.3 0.65 4.35 0.6 4.35 Q0.5 4.45 0.4 4.45 L0.55 4.0 0.55 3.95 0.6 3.9 0.6 3.95 Q0.7 3.7 0.75 3.4 0.8 2.9 0.8 2.4 0.75 2.05 0.65 1.75 L0.6 1.6 0.35 1.3 0.45 1.3 0.2 1.0 0.05 0.75 0.05 0.7 -0.2 0.3 Q-0.3 0.05 -0.2 -0.2 L-0.15 -0.25 0.0 -0.25 0.15 -0.1 M0.65 0.0 L0.65 -0.05 0.7 0.0 Q0.9 0.05 1.1 0.2 1.45 0.45 1.7 0.8 L1.8 0.9 Q1.95 1.15 2.05 1.4 2.2 2.1 2.0 2.8 L1.9 3.1 1.75 3.25 1.75 2.95 1.8 2.4 1.7 1.85 Q1.65 1.5 1.55 1.25 L1.35 0.9 Q1.1 0.45 0.7 0.1 L0.65 0.0 M0.45 6.8 L0.65 6.85 0.95 7.0 1.4 7.3 Q1.75 7.6 1.85 8.05 2.1 9.0 1.75 9.95 1.55 10.25 1.25 10.45 L1.35 10.3 Q1.5 9.95 1.5 9.55 1.5 8.75 1.0 8.25 L1.0 8.2 0.75 7.9 0.65 7.8 Q0.35 7.4 0.25 6.95 0.3 6.75 0.45 6.8 M0.55 4.65 L0.6 4.65 0.65 4.7 0.55 4.9 Q0.45 5.05 0.4 5.2 0.2 6.25 0.95 6.85 L0.8 6.8 Q0.65 6.75 0.45 6.65 L0.2 6.45 0.0 6.3 -0.15 5.95 Q-0.3 5.65 -0.25 5.35 L-0.15 5.15 -0.15 5.1 0.45 4.7 0.55 4.65 M0.35 1.45 L0.5 1.75 Q0.75 2.4 0.65 3.15 0.55 3.8 0.3 4.35 L-0.2 5.0 -0.4 5.2 Q-0.75 5.5 -1.0 5.85 L-1.15 5.9 -1.2 5.8 -1.25 5.5 -1.25 5.5 Q-1.25 5.2 -1.3 4.95 L-1.3 4.85 Q-1.4 4.45 -1.6 4.15 -1.75 3.9 -1.9 3.5 L-1.95 3.4 Q-2.25 2.75 -2.0 2.15 L-1.95 2.0 -1.9 1.9 -1.85 1.9 Q-1.65 1.65 -1.35 1.55 L-1.2 1.55 Q-0.85 1.55 -0.65 1.8 -0.45 2.0 -0.35 2.25 0.05 3.25 -0.5 4.2 L-0.55 4.25 Q-0.4 4.2 -0.3 4.05 0.1 3.2 -0.2 2.3 -0.35 1.85 -0.65 1.6 L-0.9 1.45 -0.9 1.4 -1.2 1.35 -1.45 1.4 -1.5 1.45 -1.55 1.45 -1.9 1.7 -1.95 1.75 Q-2.0 1.75 -2.0 1.7 -2.0 1.35 -1.9 1.0 -1.6 0.1 -0.8 -0.2 -0.65 -0.25 -0.5 -0.1 L-0.4 0.2 -0.1 0.8 0.35 1.45 M1.05 9.3 L1.1 9.15 1.2 9.1 1.3 9.2 1.3 9.35 Q1.4 10.0 1.05 10.55 L0.95 10.6 Q0.4 10.7 -0.05 10.3 -0.2 10.1 -0.35 9.95 L0.15 9.95 Q0.7 9.9 1.0 9.4 L1.05 9.35 1.05 9.3 M-0.9 8.3 L-0.9 8.35 Q-0.85 8.85 -1.25 9.2 -1.5 9.45 -1.75 9.55 L-1.8 9.55 Q-2.2 9.65 -2.55 9.45 L-2.75 9.25 Q-3.05 9.05 -3.2 8.75 L-3.2 8.65 -3.3 8.4 -3.3 8.05 -3.25 7.75 -3.1 7.55 Q-3.1 8.1 -2.5 8.2 -2.1 8.15 -1.85 7.85 L-1.95 7.9 -1.75 7.6 -1.7 8.0 Q-1.65 8.45 -1.4 8.65 L-1.35 8.7 -1.3 8.7 -1.3 8.65 -1.15 8.7 Q-0.95 8.6 -0.9 8.35 L-0.9 8.3 M-1.7 7.25 L-1.8 7.5 Q-1.75 7.3 -1.8 7.05 -1.85 6.75 -2.05 6.65 -1.9 6.5 -1.85 6.25 -1.7 5.95 -1.7 5.6 -1.5 6.45 -1.7 7.25 M-0.7 5.65 L-0.4 5.65 -0.4 5.75 Q-0.3 6.0 -0.2 6.2 -0.7 6.05 -1.15 6.3 L-0.75 5.7 -0.7 5.65 M-2.4 2.8 L-2.35 2.75 -2.25 2.6 -2.25 2.85 Q-2.15 3.4 -1.9 3.9 L-1.75 4.1 Q-1.6 4.4 -1.45 4.7 -1.4 5.0 -1.35 5.3 -1.3 5.95 -1.5 6.55 -1.45 6.05 -1.6 5.45 L-1.75 5.05 Q-1.85 4.85 -2.0 4.65 L-2.1 4.4 -2.35 3.65 Q-2.45 3.2 -2.4 2.8 M-0.5 -0.2 L-0.5 -0.2" fill="url(#gradient0)" fill-rule="evenodd" stroke="none"/>
      <path d="M0.65 0.0 L0.7 0.1 Q1.1 0.45 1.35 0.9 L1.55 1.25 Q1.65 1.5 1.7 1.85 L1.8 2.4 1.75 2.95 1.75 3.25 1.9 3.1 2.0 2.8 Q2.2 2.1 2.05 1.4 1.95 1.15 1.8 0.9 L1.7 0.8 Q1.45 0.45 1.1 0.2 0.9 0.05 0.7 0.0 L0.65 -0.05 0.65 0.0 M0.15 -0.1 L0.0 -0.25 -0.15 -0.25 -0.2 -0.2 Q-0.3 0.05 -0.2 0.3 L0.05 0.7 0.05 0.75 0.2 1.0 0.45 1.3 0.35 1.3 0.6 1.6 0.65 1.75 Q0.75 2.05 0.8 2.4 0.8 2.9 0.75 3.4 0.7 3.7 0.6 3.95 L0.6 3.9 0.55 3.95 0.55 4.0 0.4 4.45 Q0.5 4.45 0.6 4.35 L0.65 4.35 0.65 4.3 0.7 4.3 0.75 4.25 Q1.2 3.9 1.5 3.4 1.6 3.15 1.65 2.85 L1.65 2.4 1.6 1.95 1.35 1.25 1.3 1.05 1.0 0.65 Q0.65 0.2 0.15 -0.1 M2.15 1.4 Q2.25 1.75 2.25 2.1 2.3 3.2 1.5 3.8 L1.25 4.1 1.25 4.15 Q0.75 4.65 0.55 5.4 L0.5 5.6 Q0.45 6.35 1.05 6.8 L1.15 6.95 1.4 7.1 Q2.0 7.6 2.1 8.45 2.2 9.25 1.85 9.95 L1.6 10.35 1.45 10.5 Q1.25 10.7 0.95 10.75 L0.7 10.75 Q0.35 10.7 0.1 10.5 L0.1 10.55 0.05 10.55 Q0.0 10.45 -0.15 10.4 -0.4 10.05 -0.8 9.9 L-0.75 9.8 -0.75 9.75 -0.7 9.75 Q0.1 10.05 0.75 9.45 1.05 9.15 1.0 8.7 L0.95 8.5 0.8 8.15 0.75 8.15 0.6 8.05 0.7 8.05 0.6 7.85 0.6 7.9 0.5 7.8 Q0.2 7.45 0.15 6.95 L0.1 6.7 0.1 6.55 Q0.0 6.3 -0.35 6.25 -0.85 6.2 -1.25 6.45 L-1.5 7.05 -1.55 7.25 Q-1.7 7.8 -1.5 8.3 L-1.3 8.55 Q-1.05 8.6 -1.0 8.3 L-0.95 8.15 -1.0 8.1 -0.9 8.1 -0.85 8.25 Q-0.8 8.45 -0.8 8.65 -0.85 8.9 -1.05 9.15 -1.4 9.55 -1.85 9.7 L-2.15 9.7 Q-2.8 9.55 -3.15 9.0 L-3.3 8.75 -3.4 8.45 -3.4 8.1 -3.35 7.75 Q-3.25 7.5 -3.1 7.3 L-3.05 7.25 -3.05 7.4 Q-3.05 7.65 -2.9 7.85 -2.75 8.15 -2.4 8.1 L-2.25 8.05 -2.05 7.8 Q-1.8 7.35 -2.0 6.85 -2.05 6.8 -2.1 6.75 L-2.15 6.75 -2.15 6.65 -2.1 6.65 Q-1.7 5.95 -1.9 5.15 L-2.0 4.95 Q-2.05 4.9 -2.1 4.85 L-2.05 4.9 -2.25 4.4 -2.45 3.55 Q-2.7 2.55 -2.1 1.8 -2.25 0.9 -1.6 0.15 -1.15 -0.35 -0.5 -0.4 L-0.45 -0.35 -0.4 -0.4 Q-0.3 -0.45 -0.2 -0.4 L0.2 -0.25 Q0.85 -0.25 1.4 0.25 L1.7 0.55 Q2.0 0.85 2.1 1.25 L2.15 1.4 M0.35 1.45 L-0.1 0.8 -0.4 0.2 -0.5 -0.1 Q-0.65 -0.25 -0.8 -0.2 -1.6 0.1 -1.9 1.0 -2.0 1.35 -2.0 1.7 -2.0 1.75 -1.95 1.75 L-1.9 1.7 -1.55 1.45 -1.5 1.45 -1.45 1.4 -1.2 1.35 -0.9 1.4 -0.9 1.45 -0.65 1.6 Q-0.35 1.85 -0.2 2.3 0.1 3.2 -0.3 4.05 -0.4 4.2 -0.55 4.25 L-0.5 4.2 Q0.05 3.25 -0.35 2.25 -0.45 2.0 -0.65 1.8 -0.85 1.55 -1.2 1.55 L-1.35 1.55 Q-1.65 1.65 -1.85 1.9 L-1.9 1.9 -1.95 2.0 -2.0 2.15 Q-2.25 2.75 -1.95 3.4 L-1.9 3.5 Q-1.75 3.9 -1.6 4.15 -1.4 4.45 -1.3 4.85 L-1.3 4.95 Q-1.25 5.2 -1.25 5.5 L-1.25 5.5 -1.2 5.8 -1.15 5.9 -1.0 5.85 Q-0.75 5.5 -0.4 5.2 L-0.2 5.0 0.3 4.35 Q0.55 3.8 0.65 3.15 0.75 2.4 0.5 1.75 L0.35 1.45 M0.55 4.65 L0.45 4.7 -0.15 5.1 -0.15 5.15 -0.25 5.35 Q-0.3 5.65 -0.15 5.95 L0.0 6.3 0.2 6.45 0.45 6.65 Q0.65 6.75 0.8 6.8 L0.95 6.85 Q0.2 6.25 0.4 5.2 0.45 5.05 0.55 4.9 L0.65 4.7 0.6 4.65 0.55 4.65 M0.45 6.8 Q0.3 6.75 0.25 6.95 0.35 7.4 0.65 7.8 L0.75 7.9 1.0 8.2 1.0 8.25 Q1.5 8.75 1.5 9.55 1.5 9.95 1.35 10.3 L1.25 10.45 Q1.55 10.25 1.75 9.95 2.1 9.0 1.85 8.05 1.75 7.6 1.4 7.3 L0.95 7.0 0.65 6.85 0.45 6.8 M1.05 9.3 L1.05 9.35 1.0 9.4 Q0.7 9.9 0.15 9.95 L-0.35 9.95 Q-0.2 10.1 -0.05 10.3 0.4 10.7 0.95 10.6 L1.05 10.55 Q1.4 10.0 1.3 9.35 L1.3 9.2 1.2 9.1 1.1 9.15 1.05 9.3 M-0.5 -0.2 L-0.5 -0.2 M-2.4 2.8 Q-2.45 3.2 -2.35 3.65 L-2.1 4.4 -2.0 4.65 Q-1.85 4.85 -1.75 5.05 L-1.6 5.45 Q-1.45 6.05 -1.5 6.55 -1.3 5.95 -1.35 5.3 -1.4 5.0 -1.45 4.7 -1.6 4.4 -1.75 4.1 L-1.9 3.9 Q-2.15 3.4 -2.25 2.85 L-2.25 2.6 -2.35 2.75 -2.4 2.8 M-0.7 5.65 L-0.75 5.7 -1.15 6.3 Q-0.7 6.05 -0.2 6.2 -0.3 6.0 -0.4 5.75 L-0.4 5.65 -0.7 5.65 M-1.7 7.25 Q-1.5 6.45 -1.7 5.6 -1.7 5.95 -1.85 6.25 -1.9 6.5 -2.05 6.65 -1.85 6.75 -1.8 7.05 -1.75 7.3 -1.8 7.5 L-1.7 7.25 M-0.9 8.3 L-0.9 8.35 Q-0.95 8.6 -1.15 8.7 L-1.3 8.65 -1.3 8.7 -1.35 8.7 -1.4 8.65 Q-1.65 8.45 -1.7 8.0 L-1.75 7.6 -1.95 7.9 -1.85 7.85 Q-2.1 8.15 -2.5 8.2 -3.1 8.1 -3.1 7.55 L-3.25 7.75 -3.3 8.05 -3.3 8.4 -3.2 8.65 -3.2 8.75 Q-3.05 9.05 -2.75 9.25 L-2.55 9.45 Q-2.2 9.65 -1.8 9.55 L-1.75 9.55 Q-1.5 9.45 -1.25 9.2 -0.85 8.85 -0.9 8.35 L-0.9 8.3" fill="#ff0000" fill-rule="evenodd" stroke="none"/>
    </g>
    <radialGradient cx="0" cy="0" gradientTransform="matrix(-0.016, 0.0, 0.0, -0.0123, 0.0, 0.75)" gradientUnits="userSpaceOnUse" id="gradient0" r="819.2" spreadMethod="pad">
      <stop offset="0.0" stop-color="#ffff00"/>
      <stop offset="1.0" stop-color="#ff6600"/>
    </radialGradient>
  </defs>
</svg>
