<?xml version="1.0" encoding="UTF-8" standalone="no"?>
<svg xmlns:ffdec="https://www.free-decompiler.com/flash" xmlns:xlink="http://www.w3.org/1999/xlink" ffdec:objectType="frame" height="105.8px" width="55.65px" xmlns="http://www.w3.org/2000/svg">
  <g transform="matrix(1.0, 0.0, 0.0, 1.0, 26.95, 5.85)">
    <use ffdec:characterId="1389" height="12.65" transform="matrix(6.904, 0.0, 0.0, 6.5166, -26.9257, -1.955)" width="6.5" xlink:href="#shape0"/>
  </g>
  <defs>
    <g id="shape0" transform="matrix(1.0, 0.0, 0.0, 1.0, 3.9, 0.3)">
      <path d="M0.1 -0.3 L0.45 -0.15 1.2 0.1 Q1.4 0.2 1.6 0.3 2.2 0.75 2.45 1.5 2.75 2.4 2.5 3.3 L2.45 3.55 2.4 3.55 2.25 3.95 2.0 4.35 1.95 4.35 Q1.8 4.55 1.6 4.65 L1.55 4.7 Q0.85 4.95 0.3 5.5 0.15 5.65 0.1 5.8 -0.05 6.15 0.05 6.5 L0.1 6.75 Q0.2 6.8 0.15 6.9 L0.4 7.45 0.45 7.55 0.35 7.6 0.3 7.55 Q-0.55 7.55 -1.25 6.95 L-1.55 6.65 Q-2.1 6.0 -2.3 5.25 L-2.55 4.3 -2.55 3.8 -2.5 3.35 Q-2.4 2.85 -2.1 2.45 L-1.8 2.15 Q-2.15 1.55 -2.05 1.0 -2.05 0.55 -1.7 0.2 -1.35 -0.1 -0.85 -0.1 L-0.8 -0.1 -0.45 -0.25 -0.4 -0.3 0.1 -0.3 M1.65 0.55 L1.25 0.3 1.3 0.35 1.25 0.35 1.2 0.3 0.85 0.25 0.85 0.3 Q1.1 0.6 1.3 1.0 1.65 1.6 1.6 2.3 1.6 2.85 1.8 3.3 L1.85 3.4 2.05 3.5 Q2.25 3.4 2.4 3.2 L2.4 3.0 Q2.55 2.0 2.1 1.15 1.9 0.8 1.65 0.55 M0.55 0.05 L0.55 0.05 M0.2 0.0 L0.0 -0.05 Q-0.2 -0.1 -0.3 0.05 L-0.25 0.05 Q0.05 0.3 0.25 0.55 L0.9 1.45 1.0 1.65 Q1.3 2.35 1.3 3.1 L1.3 3.6 Q1.15 4.1 0.8 4.5 L0.55 4.8 0.65 4.8 Q1.05 4.7 1.5 4.5 L1.9 4.25 2.1 3.95 2.0 4.05 2.15 3.65 2.1 3.6 2.1 3.55 Q1.55 3.4 1.55 2.75 1.55 1.95 1.25 1.25 1.05 0.6 0.5 0.2 L0.2 0.0 M0.45 1.0 L0.3 0.85 Q0.0 0.5 -0.35 0.2 L-0.4 0.2 Q-0.45 0.15 -0.5 0.15 L-0.6 0.1 -0.85 0.05 Q-1.25 0.05 -1.55 0.3 -1.9 0.6 -1.9 1.0 -1.9 1.25 -1.9 1.55 L-1.9 1.65 -1.65 1.85 -1.5 1.9 Q-1.35 1.85 -1.2 1.8 L-0.95 1.75 -0.7 1.75 Q0.3 2.1 0.1 3.3 0.0 3.7 -0.15 4.15 L-0.35 4.65 -0.35 4.7 -0.45 5.0 Q-0.45 5.15 -0.5 5.3 L-0.5 5.45 -0.45 5.5 -0.4 5.4 0.0 5.05 Q0.35 4.85 0.7 4.4 1.05 3.95 1.15 3.6 1.25 2.7 0.9 1.85 L0.7 1.45 0.45 1.0 M2.1 3.5 L2.1 3.5 M2.2 3.75 L2.2 3.75 M0.65 4.95 L0.55 4.9 Q-0.15 5.15 -0.55 5.85 L-0.55 5.95 Q-0.45 6.6 0.0 7.05 L0.05 7.05 0.1 7.0 Q-0.05 6.55 -0.1 6.05 -0.1 5.8 0.05 5.55 0.35 5.05 0.8 4.9 L0.8 4.85 0.65 4.95 M0.15 7.45 Q-0.35 7.0 -0.55 6.4 L-0.6 6.2 Q-0.75 5.4 -0.55 4.65 L-0.5 4.65 -0.5 4.45 Q-0.4 3.3 -1.2 2.65 -1.4 2.5 -1.7 2.45 L-1.8 2.5 Q-1.95 2.6 -2.05 2.75 L-2.25 3.2 Q-2.4 3.5 -2.4 3.8 L-2.4 4.0 -2.45 4.0 Q-2.35 4.95 -1.95 5.85 -1.5 6.7 -0.65 7.15 L-0.4 7.3 0.05 7.4 0.15 7.45 M1.65 11.15 L1.65 11.15 M-0.7 11.0 L-0.7 11.0 M-1.55 2.3 L-1.5 2.3 Q-0.5 2.6 -0.4 3.75 L-0.4 3.85 -0.35 4.0 -0.35 4.05 Q-0.25 4.05 -0.25 3.9 L-0.2 3.85 Q0.2 2.9 -0.35 2.1 -0.45 1.95 -0.6 1.95 -1.05 1.9 -1.4 2.0 L-1.5 2.1 -1.5 2.15 -1.6 2.25 -1.55 2.25 -1.55 2.3 M-0.5 5.55 L-0.5 5.55 M-3.4 9.0 L-3.45 8.9 -3.4 8.95 -3.4 9.0" fill="#ff0000" fill-rule="evenodd" stroke="none"/>
      <path d="M0.15 7.45 L0.05 7.4 -0.4 7.3 -0.65 7.15 Q-1.5 6.7 -1.95 5.85 -2.35 4.95 -2.45 4.0 L-2.4 4.0 -2.4 3.8 Q-2.4 3.5 -2.25 3.2 L-2.05 2.75 Q-1.95 2.6 -1.8 2.5 L-1.7 2.45 Q-1.4 2.5 -1.2 2.65 -0.4 3.3 -0.5 4.45 L-0.5 4.65 -0.55 4.65 Q-0.75 5.4 -0.6 6.2 L-0.55 6.4 Q-0.35 7.0 0.15 7.45 M0.65 4.95 L0.8 4.85 0.8 4.9 Q0.35 5.05 0.05 5.55 -0.1 5.8 -0.1 6.05 -0.05 6.55 0.1 7.0 L0.05 7.05 0.0 7.05 Q-0.45 6.6 -0.55 5.95 L-0.55 5.85 Q-0.15 5.15 0.55 4.9 L0.65 4.95 M2.2 3.75 L2.2 3.75 M2.1 3.5 L2.1 3.5 M0.45 1.0 L0.7 1.45 0.9 1.85 Q1.25 2.7 1.15 3.6 1.05 3.95 0.7 4.4 0.35 4.85 0.0 5.05 L-0.4 5.4 -0.45 5.5 -0.5 5.45 -0.5 5.3 Q-0.45 5.15 -0.45 5.0 L-0.35 4.7 -0.35 4.65 -0.15 4.15 Q0.0 3.7 0.1 3.3 0.3 2.1 -0.7 1.75 L-0.95 1.75 -1.2 1.8 Q-1.35 1.85 -1.5 1.9 L-1.65 1.85 -1.9 1.65 -1.9 1.55 Q-1.9 1.25 -1.9 1.0 -1.9 0.6 -1.55 0.3 -1.25 0.05 -0.85 0.05 L-0.6 0.1 -0.5 0.15 Q-0.45 0.15 -0.4 0.2 L-0.35 0.2 Q0.0 0.5 0.3 0.85 L0.45 1.0 M0.2 0.0 L0.5 0.2 Q1.05 0.6 1.25 1.25 1.55 1.95 1.55 2.75 1.55 3.4 2.1 3.55 L2.1 3.6 2.15 3.65 2.0 4.05 2.1 3.95 1.9 4.25 1.5 4.5 Q1.05 4.7 0.65 4.8 L0.55 4.8 0.8 4.5 Q1.15 4.1 1.3 3.6 L1.3 3.1 Q1.3 2.35 1.0 1.65 L0.9 1.45 0.25 0.55 Q0.05 0.3 -0.25 0.05 L-0.3 0.05 Q-0.2 -0.1 0.0 -0.05 L0.2 0.0 M0.55 0.05 L0.55 0.05 M1.65 0.55 Q1.9 0.8 2.1 1.15 2.55 2.0 2.4 3.0 L2.4 3.2 Q2.25 3.4 2.05 3.5 L1.85 3.4 1.8 3.3 Q1.6 2.85 1.6 2.3 1.65 1.6 1.3 1.0 1.1 0.6 0.85 0.3 L0.85 0.25 1.2 0.3 1.25 0.35 1.3 0.35 1.25 0.3 1.65 0.55 M-0.7 11.0 L-0.7 11.05 -0.65 11.05 Q-0.55 11.3 -0.35 11.45 L-0.25 11.45 0.25 11.5 0.6 11.3 0.75 11.1 Q0.65 11.4 0.4 11.7 L0.35 11.8 Q0.1 12.05 -0.2 12.0 -0.5 11.95 -0.65 11.7 L-0.75 11.55 Q-0.9 11.25 -0.9 10.95 L-0.9 10.85 -0.85 10.85 -0.8 10.55 Q-0.75 10.8 -0.7 11.0 L-0.7 11.0 M0.8 9.85 L1.0 10.05 Q1.4 10.3 1.55 10.7 L1.5 10.95 Q1.45 11.45 1.15 11.8 0.95 12.0 0.75 12.1 0.4 12.3 0.05 12.15 L0.1 12.1 0.55 11.7 Q0.7 11.45 0.85 11.1 1.05 10.65 0.9 10.15 L0.8 9.85 M-0.5 5.55 L-0.5 5.55 M-1.55 2.3 L-1.55 2.25 -1.6 2.25 -1.5 2.15 -1.5 2.1 -1.4 2.0 Q-1.05 1.9 -0.6 1.95 -0.45 1.95 -0.35 2.1 0.2 2.9 -0.2 3.85 L-0.25 3.9 Q-0.25 4.05 -0.35 4.05 L-0.35 4.0 -0.4 3.85 -0.4 3.75 Q-0.5 2.6 -1.5 2.3 L-1.55 2.3 M-2.0 10.15 L-1.8 10.1 -1.85 10.25 Q-1.9 10.5 -2.1 10.65 -2.55 11.05 -3.1 10.75 -3.6 10.5 -3.75 9.9 -3.7 9.45 -3.4 9.1 L-3.35 9.3 Q-3.1 10.2 -2.25 10.15 L-2.0 10.15" fill="url(#gradient0)" fill-rule="evenodd" stroke="none"/>
      <path d="M1.65 11.15 Q1.55 11.65 1.2 11.95 L1.15 12.0 Q1.0 12.15 0.85 12.2 0.55 12.4 0.2 12.35 -0.1 12.3 -0.35 12.1 L-0.8 11.75 Q-1.0 11.5 -1.05 11.15 -1.05 10.75 -0.8 10.45 L-0.7 10.45 -0.75 10.5 Q-0.7 10.55 -0.65 10.7 -0.6 11.1 -0.35 11.3 -0.05 11.45 0.25 11.35 L0.55 11.2 Q0.7 11.0 0.75 10.65 0.85 10.05 0.45 9.65 L0.35 9.35 0.3 9.15 Q0.3 9.0 0.35 8.9 L0.4 9.0 Q0.5 9.45 0.95 9.75 1.4 10.05 1.6 10.45 L1.6 10.6 1.65 10.95 1.65 11.15 M0.8 9.85 L0.9 10.15 Q1.05 10.65 0.85 11.1 0.7 11.45 0.55 11.7 L0.1 12.1 0.05 12.15 Q0.4 12.3 0.75 12.1 0.95 12.0 1.15 11.8 1.45 11.45 1.5 10.95 L1.55 10.7 Q1.4 10.3 1.0 10.05 L0.8 9.85 M-0.7 11.0 Q-0.75 10.8 -0.8 10.55 L-0.85 10.85 -0.9 10.85 -0.9 10.95 Q-0.9 11.25 -0.75 11.55 L-0.65 11.7 Q-0.5 11.95 -0.2 12.0 0.1 12.05 0.35 11.8 L0.4 11.7 Q0.65 11.4 0.75 11.1 L0.6 11.3 0.25 11.5 -0.25 11.45 -0.35 11.45 Q-0.55 11.3 -0.65 11.05 L-0.7 11.05 -0.7 11.0 M-3.4 8.95 L-3.35 9.05 Q-3.25 9.75 -2.55 10.0 -2.15 10.1 -1.8 9.95 L-1.8 9.9 -1.75 9.85 -1.7 9.85 -1.7 9.9 -1.65 10.0 -1.7 10.0 -1.7 10.2 Q-1.8 10.5 -1.95 10.75 L-2.35 11.0 -2.4 11.0 -2.4 11.05 Q-3.15 11.15 -3.6 10.5 L-3.65 10.5 Q-4.0 10.1 -3.85 9.6 L-3.8 9.45 -3.65 9.25 -3.4 9.0 -3.4 8.95 M-2.0 10.15 L-2.25 10.15 Q-3.1 10.2 -3.35 9.3 L-3.4 9.1 Q-3.7 9.45 -3.75 9.9 -3.6 10.5 -3.1 10.75 -2.55 11.05 -2.1 10.65 -1.9 10.5 -1.85 10.25 L-1.8 10.1 -2.0 10.15" fill="#cc0000" fill-rule="evenodd" stroke="none"/>
    </g>
    <radialGradient cx="0" cy="0" gradientTransform="matrix(-0.0161, 0.0, 0.0, -0.0123, 0.0, 0.75)" gradientUnits="userSpaceOnUse" id="gradient0" r="819.2" spreadMethod="pad">
      <stop offset="0.0" stop-color="#ffff00"/>
      <stop offset="1.0" stop-color="#ff6600"/>
    </radialGradient>
  </defs>
</svg>
