<?xml version="1.0" encoding="UTF-8" standalone="no"?>
<svg xmlns:ffdec="https://www.free-decompiler.com/flash" xmlns:xlink="http://www.w3.org/1999/xlink" ffdec:objectType="frame" height="211.7px" width="488.3px" xmlns="http://www.w3.org/2000/svg">
  <g transform="matrix(1.0, 0.0, 0.0, 1.0, 92.25, 9.9)">
    <use ffdec:characterId="99" ffdec:characterName="a_EB_GoblinFlagFrame05" height="202.0" transform="matrix(1.0, 0.0, 0.0, 1.0, -84.15, -9.55)" width="476.75" xlink:href="#sprite0"/>
  </g>
  <defs>
    <g id="sprite0" transform="matrix(1.0, 0.0, 0.0, 1.0, 0.0, 0.0)">
      <use ffdec:characterId="98" height="202.0" transform="matrix(1.0, 0.0, 0.0, 1.0, 0.0, 0.0)" width="476.75" xlink:href="#shape0"/>
    </g>
    <g id="shape0" transform="matrix(1.0, 0.0, 0.0, 1.0, 0.0, 0.0)">
      <path d="M348.0 11.2 Q350.45 9.85 354.45 9.85 355.1 9.85 358.7 11.85 359.65 11.85 361.35 10.25 363.1 8.65 363.8 8.65 364.55 8.65 364.85 9.25 365.1 9.85 365.85 9.85 366.85 9.85 369.15 8.25 371.5 6.65 372.9 6.65 373.65 6.65 374.0 7.2 374.3 7.75 375.05 7.75 L379.0 5.7 Q383.7 3.3 387.5 1.9 399.75 -2.65 399.75 3.8 399.75 5.85 398.6 6.7 397.65 7.4 394.85 7.75 383.0 9.35 377.4 10.95 L361.8 15.85 350.7 18.9 350.4 17.6 349.95 15.95 349.9 15.75 349.75 15.25 348.3 11.6 348.0 11.2 M410.1 165.05 Q410.85 165.2 411.1 165.5 L411.3 167.05 416.9 165.45 Q418.4 165.45 418.5 165.75 L418.65 166.1 418.8 167.2 Q418.8 168.65 417.95 168.9 414.2 170.1 412.7 170.8 L412.25 170.95 417.75 169.4 422.55 167.95 426.1 169.0 Q429.2 170.0 430.35 169.65 L432.05 170.85 432.6 171.4 430.5 173.65 433.1 172.8 Q435.05 172.15 435.95 172.15 L438.0 172.5 438.2 172.85 438.35 173.95 Q438.35 174.55 437.4 175.05 436.0 175.75 435.5 176.25 L435.35 176.4 Q437.0 176.15 439.35 175.15 441.5 174.25 441.9 174.25 L443.55 174.55 443.7 174.7 443.85 175.65 Q443.85 176.4 442.1 178.15 L441.9 178.3 Q443.4 178.1 446.0 177.15 L447.65 178.35 Q448.2 178.85 448.2 179.35 L446.75 181.05 449.5 180.15 Q450.8 179.65 451.65 179.65 L454.35 180.2 Q457.05 181.2 457.7 183.25 457.4 184.2 456.15 185.5 L455.4 185.65 Q457.0 185.85 458.45 184.4 460.0 182.8 462.5 182.8 L464.9 183.1 465.05 183.45 465.2 184.5 Q465.2 185.25 464.5 186.15 L463.6 187.0 464.4 186.6 Q465.65 185.95 466.05 185.95 467.4 185.95 467.7 187.2 L467.7 188.65 469.4 188.25 470.4 188.4 472.4 188.8 472.55 189.1 472.7 190.15 Q472.7 190.9 472.1 191.6 L470.55 193.0 Q474.5 190.95 476.75 195.75 476.75 196.75 476.0 197.2 L473.45 197.65 Q469.35 197.65 465.7 195.45 463.2 194.0 461.75 192.15 L456.6 192.0 452.5 190.8 Q449.75 189.4 449.75 186.4 447.55 185.3 435.65 180.85 427.0 177.55 424.25 175.0 L417.25 174.65 411.95 174.25 Q409.95 174.25 408.85 173.5 L407.55 172.0 404.85 171.9 Q410.1 169.4 410.1 167.95 L409.85 165.9 410.1 165.05 M332.75 13.75 Q333.1 11.45 335.5 10.95 L336.6 10.8 Q339.4 10.7 340.2 12.7 L340.45 13.85 340.5 13.85 Q342.4 14.2 343.25 15.3 343.95 16.15 343.95 17.5 L343.65 20.6 343.4 20.85 342.2 21.1 341.1 20.95 Q340.95 21.75 340.2 22.55 339.2 23.75 337.85 23.75 L336.75 23.6 Q335.25 23.1 335.25 21.05 L335.35 20.0 334.5 19.7 Q333.6 19.2 333.15 17.75 L333.0 17.35 332.7 14.5 332.75 13.75 M397.9 159.15 L398.35 158.95 Q400.35 158.15 400.6 160.35 L400.65 160.55 400.7 161.05 400.2 166.25 400.35 166.5 401.15 167.9 401.85 169.15 402.05 170.0 399.45 171.75 Q396.8 173.3 396.3 173.3 L394.1 173.15 Q392.15 172.8 391.65 171.75 391.2 170.75 392.1 168.8 389.2 168.85 388.25 167.7 387.75 167.05 387.75 165.55 387.75 164.7 388.25 164.45 389.2 164.0 393.15 163.6 394.4 163.5 395.2 162.15 L395.2 162.1 396.3 160.15 Q397.15 159.5 397.9 159.15 M462.0 187.7 L461.45 187.8 460.85 188.1 462.0 187.7" fill="#444a28" fill-rule="evenodd" stroke="none"/>
      <path d="M350.7 18.9 Q351.9 24.55 351.9 30.9 L350.15 51.25 Q348.35 70.1 348.35 72.85 L348.35 73.85 348.5 74.05 348.5 98.85 350.85 108.15 Q352.3 114.05 352.7 117.6 355.05 121.35 357.75 125.1 L359.2 126.4 Q362.6 129.3 369.15 134.2 L391.55 150.2 Q405.15 159.85 408.75 163.3 L409.2 162.75 409.4 162.8 409.65 163.9 409.65 164.2 410.1 165.0 410.1 165.05 409.85 165.9 410.1 167.95 Q410.1 169.4 404.85 171.9 L394.8 175.9 Q378.05 181.9 365.4 181.9 L364.6 181.85 361.65 182.8 329.1 182.8 Q327.25 182.2 312.7 180.35 309.45 178.85 305.75 177.95 L305.55 177.9 300.5 177.45 282.9 177.3 263.1 180.9 255.35 182.95 254.9 183.35 254.55 183.3 250.65 185.0 Q237.0 191.1 233.45 195.35 228.55 198.5 224.7 202.0 L223.8 201.8 Q223.5 201.65 223.5 200.7 223.5 199.9 227.35 194.0 231.25 188.05 232.7 186.7 L232.85 186.25 230.85 185.8 230.6 185.8 229.4 185.8 229.25 185.65 Q227.5 184.9 224.7 184.4 L220.35 183.9 220.35 184.0 211.4 185.6 Q201.6 187.3 198.5 188.25 195.75 189.1 192.5 190.7 189.0 192.45 187.1 194.05 187.05 188.05 184.45 185.25 180.25 180.7 166.65 177.3 L157.0 178.05 158.55 177.25 Q159.65 176.45 163.0 174.75 167.9 172.3 171.15 171.25 L171.0 171.65 Q177.75 168.55 177.75 164.95 177.75 159.15 168.45 155.6 157.75 151.6 137.0 151.85 L132.6 151.35 Q132.3 150.75 132.3 149.25 L132.9 148.25 Q134.6 143.45 134.6 142.2 134.6 135.3 129.55 129.6 122.65 121.8 108.0 119.05 L106.95 118.6 Q106.0 118.25 105.75 118.0 105.75 116.7 106.8 115.6 120.85 113.95 128.8 109.7 136.5 105.55 136.5 100.15 136.5 87.45 128.65 79.0 122.95 72.85 111.8 67.05 110.15 65.5 106.75 63.65 100.65 60.4 92.4 57.95 L85.1 56.15 Q96.75 49.7 96.75 45.75 96.75 42.65 94.1 42.15 L86.9 42.35 78.6 42.15 Q68.3 42.15 53.55 48.2 38.4 54.35 37.5 59.5 L37.25 59.9 Q37.0 60.3 36.1 60.3 35.15 60.3 34.5 58.55 33.45 55.75 32.7 54.7 28.8 49.05 16.05 49.05 L8.35 49.85 3.25 50.65 0.3 50.35 Q0.0 51.1 0.0 49.6 0.0 47.2 9.1 41.5 L19.35 35.35 Q23.4 32.1 27.65 26.65 L32.95 19.5 Q41.1 19.0 45.45 17.45 48.6 16.3 48.6 15.3 48.6 13.65 47.4 11.45 46.2 9.15 44.55 7.95 L42.6 7.4 44.45 7.6 Q45.8 6.85 46.35 6.85 L47.3 7.55 47.75 8.0 Q66.1 10.45 85.35 19.15 L100.05 25.6 Q107.6 28.45 113.75 28.45 121.15 28.45 130.25 25.4 L147.45 18.65 Q172.15 8.8 195.35 8.8 214.35 8.8 232.75 13.3 L246.1 16.75 Q253.35 18.55 258.8 19.05 L292.25 19.2 Q307.65 18.2 324.55 15.15 L332.75 13.75 332.7 14.5 333.0 17.35 333.15 17.75 332.45 17.9 331.05 18.15 330.9 18.15 330.15 18.3 325.35 19.1 299.75 22.3 259.1 22.15 254.8 21.6 250.2 20.75 246.75 19.95 232.8 16.6 232.35 16.5 Q212.2 11.85 195.05 11.85 173.4 11.85 147.6 21.75 L129.65 28.5 Q123.45 30.55 118.35 31.25 L113.7 31.6 113.45 31.6 112.2 31.55 100.95 28.7 100.5 28.55 99.8 28.3 99.1 28.1 97.55 27.55 97.35 27.5 96.35 27.15 95.8 26.95 95.35 26.8 94.2 26.4 92.95 25.95 92.55 25.8 92.0 25.6 89.7 24.75 86.4 23.5 79.85 21.0 74.45 18.9 74.4 18.85 Q57.4 12.25 49.05 9.4 48.9 9.6 48.9 10.0 L50.0 12.25 Q51.1 14.25 51.1 15.4 51.1 18.3 48.4 19.5 45.3 20.95 34.8 22.3 35.45 27.9 23.35 36.1 L13.4 42.45 Q7.65 46.05 5.55 47.8 L5.25 48.1 10.4 47.3 16.05 46.6 Q26.9 46.6 32.5 49.85 34.85 51.25 36.85 54.1 45.5 48.7 51.4 46.1 67.1 39.25 82.6 39.25 93.05 39.25 97.4 42.15 99.9 43.8 99.9 45.75 99.9 48.65 95.15 52.5 L92.85 55.0 91.95 55.3 104.75 59.9 Q108.6 61.45 110.55 62.9 121.15 66.95 128.4 73.7 139.5 84.05 139.5 96.0 139.5 104.5 135.95 108.1 130.8 113.3 113.0 117.85 126.1 119.4 132.7 128.6 137.4 135.05 137.4 142.0 137.4 145.25 137.2 146.0 L136.05 148.15 143.5 149.65 Q158.2 148.95 169.55 154.6 174.5 157.1 177.45 160.2 180.2 163.15 180.2 165.55 180.2 168.95 177.2 171.6 L174.05 172.85 Q171.45 174.0 169.6 174.95 175.7 175.15 182.05 180.05 189.0 185.45 189.0 188.8 L188.85 189.7 193.4 187.8 193.7 187.65 197.5 186.25 197.75 186.15 203.9 184.45 Q211.2 182.75 218.65 182.65 L225.35 182.05 227.0 182.1 228.45 182.05 228.9 182.05 229.75 181.95 229.85 182.1 232.55 182.4 Q233.4 182.95 234.7 183.35 L235.3 183.6 235.55 183.9 236.75 184.6 236.9 185.05 Q236.9 185.65 234.15 189.55 L234.3 189.5 232.85 191.0 Q228.85 194.75 228.3 195.75 L228.15 196.05 Q232.4 192.2 236.85 189.2 L236.5 188.7 236.55 188.7 Q239.2 188.45 248.4 184.2 L263.15 177.45 265.9 176.65 269.3 176.75 275.4 175.15 292.25 175.15 295.85 175.55 300.65 175.6 306.05 176.05 308.95 176.25 Q318.35 179.1 326.5 179.35 L329.25 179.8 361.95 179.65 364.5 179.3 367.4 178.85 369.15 178.55 Q383.35 177.7 394.1 173.15 L396.3 173.3 Q396.8 173.3 399.45 171.75 L402.05 170.0 401.85 169.15 Q404.05 167.75 405.85 166.2 L405.85 166.05 406.2 165.0 400.7 161.05 400.65 160.55 400.6 160.35 Q400.35 158.15 398.35 158.95 L397.9 159.15 385.3 150.85 Q362.95 136.15 357.75 129.85 353.55 124.75 350.85 119.9 347.15 115.05 344.15 109.55 336.6 95.8 336.6 84.1 336.6 83.2 335.8 80.8 L334.95 78.25 335.4 56.55 336.3 56.55 Q335.65 75.3 341.2 92.7 L341.25 92.8 341.25 92.85 341.25 92.95 341.35 93.25 344.9 102.7 345.35 103.7 346.25 105.65 Q345.9 102.4 345.9 98.25 L346.05 86.7 347.1 52.95 Q347.1 50.15 348.2 37.1 L349.25 24.1 Q349.25 15.95 344.85 14.55 L344.55 14.75 343.75 15.1 343.25 15.3 Q342.4 14.2 340.5 13.85 L340.45 13.85 340.2 12.7 340.9 12.6 Q345.25 7.15 348.0 11.2 L348.3 11.6 349.75 15.25 349.9 15.75 349.95 15.95 350.4 17.6 350.7 18.9 M172.55 164.65 L172.25 164.75 172.1 164.4 172.55 164.65 M143.25 189.35 L143.85 189.5 143.35 190.1 143.25 189.35" fill="#7e811f" fill-rule="evenodd" stroke="none"/>
      <path d="M343.75 15.1 L344.55 14.75 344.85 14.55 Q349.25 15.95 349.25 24.1 L348.2 37.1 Q347.1 50.15 347.1 52.95 L346.05 86.7 345.9 98.25 Q345.9 102.4 346.25 105.65 L345.35 103.7 344.9 102.7 341.35 93.25 341.25 92.95 341.25 92.85 341.25 92.8 341.2 92.7 338.85 76.65 Q338.85 66.15 342.55 50.2 L342.85 48.85 Q343.1 44.6 343.9 35.4 L345.0 20.05 344.55 18.35 343.75 15.1 M203.9 184.45 L197.75 186.15 197.5 186.25 193.7 187.65 193.4 187.8 193.35 181.05 Q193.1 177.7 190.85 168.7 188.7 160.1 188.7 159.3 188.7 158.5 187.65 156.7 186.6 154.9 186.6 153.85 186.6 152.85 187.0 152.45 187.25 152.2 187.85 152.05 193.8 163.3 201.7 179.85 L203.9 184.45 M74.45 18.9 L79.85 21.0 86.4 23.5 89.7 24.75 92.0 25.6 92.55 25.8 92.95 25.95 94.2 26.4 95.35 26.8 95.8 26.95 96.35 27.15 97.35 27.5 97.55 27.55 99.1 28.1 99.8 28.3 100.5 28.55 100.95 28.7 112.2 31.55 113.45 31.6 113.7 31.6 118.35 31.25 118.8 31.2 Q121.9 33.25 125.6 36.4 L128.85 39.25 128.55 39.4 127.8 39.8 Q125.7 41.0 125.7 41.55 L125.7 41.85 Q125.75 42.5 126.0 42.6 L126.3 42.85 126.9 42.8 130.85 42.2 131.8 42.05 Q135.65 45.9 136.05 47.65 L137.85 50.05 Q146.3 61.9 150.05 65.65 L149.75 66.5 148.65 67.15 Q109.55 38.95 74.45 18.9 M232.8 16.6 L246.75 19.95 250.2 20.75 254.8 21.6 259.1 22.15 299.75 22.3 325.35 19.1 330.15 18.3 330.9 18.15 331.05 18.15 332.45 17.9 333.15 17.75 Q333.6 19.2 334.5 19.7 L324.3 28.8 318.55 26.1 318.35 26.15 317.9 26.2 317.3 26.3 317.3 26.25 Q312.75 27.0 312.75 29.8 312.75 30.85 313.2 31.25 L313.6 31.5 Q315.0 32.2 318.8 32.2 L321.15 32.1 Q317.15 36.95 315.8 42.9 314.9 46.8 314.9 55.95 L315.15 61.55 Q319.1 77.2 325.5 90.15 332.8 105.05 343.4 119.5 353.15 132.8 370.05 151.6 370.1 152.2 368.6 152.2 364.5 152.2 335.25 124.2 L334.7 123.65 Q326.9 119.65 309.85 99.45 294.9 81.75 283.9 65.9 284.5 65.55 284.7 65.25 L284.8 65.05 284.8 64.9 284.6 63.9 284.35 63.5 Q283.35 63.1 281.95 62.85 L281.8 62.85 281.75 62.85 Q277.9 57.3 272.25 50.4 L272.3 50.4 273.9 50.15 276.75 49.55 Q277.45 49.3 277.45 49.1 277.65 45.75 273.95 45.8 272.25 45.8 269.85 46.5 L269.25 46.65 269.15 46.7 Q262.95 39.35 256.95 33.1 254.4 30.45 247.95 25.75 240.85 20.5 235.5 17.8 L232.8 16.6 M304.0 46.15 L304.1 46.3 304.25 46.5 Q305.2 47.55 307.55 47.55 L310.05 47.3 312.35 45.5 312.35 45.45 312.4 45.4 312.4 45.25 312.45 45.15 312.45 45.05 312.45 44.95 312.45 44.9 312.45 44.8 312.45 44.7 Q312.45 43.8 312.0 43.65 L311.0 43.45 306.0 43.45 Q304.7 44.05 304.3 44.4 L304.0 44.75 303.8 45.3 304.0 46.15" fill="#bfc466" fill-rule="evenodd" stroke="none"/>
      <path d="M343.75 15.1 L344.55 18.35 345.0 20.05 343.9 35.4 Q343.1 44.6 342.85 48.85 L342.55 50.2 Q338.85 66.15 338.85 76.65 L341.2 92.7 Q335.65 75.3 336.3 56.55 L335.4 56.55 334.95 78.25 335.8 80.8 Q336.6 83.2 336.6 84.1 336.6 95.8 344.15 109.55 347.15 115.05 350.85 119.9 353.55 124.75 357.75 129.85 362.95 136.15 385.3 150.85 L397.9 159.15 Q397.15 159.5 396.3 160.15 L395.2 162.1 395.2 162.15 Q394.4 163.5 393.15 163.6 389.2 164.0 388.25 164.45 387.75 164.7 387.75 165.55 387.75 167.05 388.25 167.7 389.2 168.85 392.1 168.8 391.2 170.75 391.65 171.75 392.15 172.8 394.1 173.15 383.35 177.7 369.15 178.55 L367.4 178.85 364.5 179.3 361.95 179.65 329.25 179.8 326.5 179.35 Q318.35 179.1 308.95 176.25 L306.05 176.05 300.65 175.6 295.85 175.55 292.25 175.15 275.4 175.15 269.3 176.75 265.9 176.65 263.15 177.45 248.4 184.2 Q239.2 188.45 236.55 188.7 L236.5 188.7 236.85 189.2 Q232.4 192.2 228.15 196.05 L228.3 195.75 Q228.85 194.75 232.85 191.0 L234.3 189.5 234.15 189.55 Q236.9 185.65 236.9 185.05 L236.75 184.6 235.55 183.9 235.3 183.6 234.7 183.35 Q233.4 182.95 232.55 182.4 L229.85 182.1 229.75 181.95 228.9 182.05 228.45 182.05 227.0 182.1 225.35 182.05 218.65 182.65 Q211.2 182.75 203.9 184.45 L201.7 179.85 Q193.8 163.3 187.85 152.05 187.25 152.2 187.0 152.45 186.6 152.85 186.6 153.85 186.6 154.9 187.65 156.7 188.7 158.5 188.7 159.3 188.7 160.1 190.85 168.7 193.1 177.7 193.35 181.05 L193.4 187.8 188.85 189.7 189.0 188.8 Q189.0 185.45 182.05 180.05 175.7 175.15 169.6 174.95 171.45 174.0 174.05 172.85 L177.2 171.6 Q180.2 168.95 180.2 165.55 180.2 163.15 177.45 160.2 174.5 157.1 169.55 154.6 158.2 148.95 143.5 149.65 L136.05 148.15 137.2 146.0 Q137.4 145.25 137.4 142.0 137.4 135.05 132.7 128.6 126.1 119.4 113.0 117.85 130.8 113.3 135.95 108.1 139.5 104.5 139.5 96.0 139.5 84.05 128.4 73.7 121.15 66.95 110.55 62.9 108.6 61.45 104.75 59.9 L91.95 55.3 92.85 55.0 95.15 52.5 Q99.9 48.65 99.9 45.75 99.9 43.8 97.4 42.15 93.05 39.25 82.6 39.25 67.1 39.25 51.4 46.1 45.5 48.7 36.85 54.1 34.85 51.25 32.5 49.85 26.9 46.6 16.05 46.6 L10.4 47.3 5.25 48.1 5.55 47.8 Q7.65 46.05 13.4 42.45 L23.35 36.1 Q35.45 27.9 34.8 22.3 45.3 20.95 48.4 19.5 51.1 18.3 51.1 15.4 51.1 14.25 50.0 12.25 L48.9 10.0 Q48.9 9.6 49.05 9.4 57.4 12.25 74.4 18.85 L74.45 18.9 Q109.55 38.95 148.65 67.15 L149.75 66.5 150.05 65.65 Q146.3 61.9 137.85 50.05 L136.05 47.65 Q135.65 45.9 131.8 42.05 L133.0 41.85 142.7 40.3 Q147.0 39.2 147.0 36.55 L146.65 36.1 145.35 34.8 Q138.55 34.5 131.5 37.9 130.65 38.3 129.95 38.65 L128.85 39.25 125.6 36.4 Q121.9 33.25 118.8 31.2 L118.35 31.25 Q123.45 30.55 129.65 28.5 L147.6 21.75 Q173.4 11.85 195.05 11.85 212.2 11.85 232.35 16.5 L232.8 16.6 235.5 17.8 Q240.85 20.5 247.95 25.75 254.4 30.45 256.95 33.1 262.95 39.35 269.15 46.7 264.3 48.2 259.25 51.2 253.3 53.9 253.2 55.3 L253.2 55.45 Q250.25 58.45 246.6 60.9 L243.45 62.75 242.9 63.1 242.4 63.4 Q236.8 67.85 231.7 67.85 220.9 67.85 212.85 63.75 207.6 61.15 200.7 54.8 193.25 48.0 189.55 45.75 182.5 41.7 173.5 41.7 L172.55 41.8 172.65 41.85 186.8 49.7 Q193.95 54.15 196.5 58.5 198.35 61.5 200.7 63.7 L203.35 65.85 192.85 66.45 184.35 67.2 178.9 66.85 175.95 66.05 173.55 65.6 Q172.4 65.55 171.7 66.05 170.85 66.6 170.8 67.8 170.75 68.65 175.05 71.6 180.0 74.75 183.9 74.8 190.2 74.75 192.2 76.3 193.2 77.2 193.8 80.2 194.4 83.25 196.45 85.05 199.8 87.75 208.1 89.4 L213.7 101.7 Q218.25 110.35 221.45 110.3 L222.65 110.0 223.05 109.55 223.3 108.3 222.35 106.3 221.45 104.65 Q221.65 100.1 226.1 96.2 229.5 98.3 236.75 104.9 L242.4 110.15 242.9 110.75 243.4 111.25 244.35 111.2 244.35 111.0 244.6 105.55 Q243.85 102.35 244.35 99.8 244.95 96.75 247.1 95.15 250.2 97.55 255.95 105.0 L261.2 111.7 Q263.0 112.05 265.55 104.25 267.7 97.25 267.85 94.6 267.95 92.3 266.2 89.45 264.45 86.6 264.5 85.8 264.5 85.35 268.4 81.35 272.3 77.35 272.4 74.75 272.5 72.8 273.55 71.15 275.05 69.1 278.7 67.75 280.15 67.1 282.85 66.35 L283.9 65.9 Q294.9 81.75 309.85 99.45 326.9 119.65 334.7 123.65 L335.25 124.2 Q364.5 152.2 368.6 152.2 370.1 152.2 370.05 151.6 353.15 132.8 343.4 119.5 332.8 105.05 325.5 90.15 319.1 77.2 315.15 61.55 L314.9 55.95 Q314.9 46.8 315.8 42.9 317.15 36.95 321.15 32.1 L322.8 31.8 323.85 31.25 324.25 30.25 324.3 29.05 324.3 28.8 334.5 19.7 335.35 20.0 335.25 21.05 Q335.25 23.1 336.75 23.6 L337.85 23.75 Q339.2 23.75 340.2 22.55 340.95 21.75 341.1 20.95 L342.2 21.1 343.4 20.85 343.65 20.6 343.95 17.5 Q343.95 16.15 343.25 15.3 L343.75 15.1 M400.7 161.05 L406.2 165.0 405.85 166.05 405.85 166.2 Q404.05 167.75 401.85 169.15 L401.15 167.9 400.35 166.5 400.2 166.25 400.7 161.05 M325.65 147.05 Q326.95 148.45 330.35 148.45 334.75 148.45 336.3 147.5 L336.85 147.05 339.3 148.4 Q341.6 149.2 344.1 149.2 345.6 149.2 344.9 149.05 L345.1 148.35 345.2 147.15 Q345.2 145.65 340.95 145.1 L337.4 144.9 Q337.2 142.1 331.25 142.1 325.05 142.05 325.05 145.6 L325.65 147.05 M281.75 62.85 L271.65 63.45 262.5 64.95 258.05 64.1 257.3 63.05 Q256.85 62.2 256.85 61.55 256.9 61.2 258.8 58.5 L260.8 55.8 Q260.95 53.3 264.3 51.8 L264.9 51.5 266.2 51.3 272.25 50.4 Q277.9 57.3 281.75 62.85 M260.15 70.25 Q257.0 71.75 251.5 76.15 247.85 79.05 245.65 81.2 247.85 75.9 249.9 73.6 253.85 69.25 260.05 69.9 L260.15 70.25 M223.5 84.25 L215.3 78.95 205.95 73.05 Q212.8 73.7 218.25 76.85 226.75 81.75 228.15 82.35 226.15 82.85 225.2 83.6 224.5 84.25 223.5 84.25 M188.05 116.35 Q189.4 118.15 192.3 118.15 194.95 118.15 196.2 116.55 197.1 115.45 197.1 113.95 197.1 111.25 192.2 111.2 187.25 111.2 187.25 114.45 L188.05 116.35 M232.7 111.5 L232.4 111.65 Q232.3 112.85 231.4 114.35 235.75 124.75 240.05 130.95 247.6 142.2 256.3 143.6 258.45 143.9 258.9 141.65 L259.05 138.45 Q259.15 136.5 258.65 131.75 258.1 127.0 258.2 124.3 L258.3 120.3 258.3 118.55 258.3 117.1 Q257.95 113.85 255.65 113.45 253.55 113.0 253.4 115.25 L253.1 117.75 252.9 119.45 Q251.85 127.0 250.75 128.75 243.2 124.65 239.0 119.8 236.05 116.5 233.5 111.15 L232.7 111.5" fill="#dee184" fill-rule="evenodd" stroke="none"/>
      <path d="M324.3 28.8 L324.3 29.05 324.25 30.25 322.8 31.8 321.15 32.1 318.8 32.2 Q315.0 32.2 313.6 31.5 L313.2 31.25 Q312.75 30.85 312.75 29.8 312.75 27.0 317.3 26.25 L317.3 26.3 317.9 26.2 318.35 26.15 318.55 26.1 324.3 28.8 M304.0 44.75 L304.3 44.4 Q304.7 44.05 306.0 43.45 L311.0 43.45 312.0 43.65 Q312.45 43.8 312.45 44.7 L312.45 44.8 312.45 44.9 312.45 44.95 312.45 45.05 312.45 45.15 312.4 45.25 312.4 45.4 312.35 45.45 312.35 45.5 310.05 47.3 307.55 47.55 Q305.2 47.55 304.25 46.5 L304.1 46.3 304.0 46.15 303.95 45.15 304.0 44.75 M272.3 50.4 L270.65 47.95 269.85 46.5 Q272.25 45.8 273.95 45.8 277.65 45.75 277.45 49.1 277.45 49.3 276.75 49.55 L273.9 50.15 272.3 50.4 M284.7 65.25 L284.2 65.7 Q283.4 65.45 282.6 64.3 L281.8 62.85 281.95 62.85 Q283.35 63.1 284.35 63.5 L284.6 63.9 284.8 64.9 284.8 65.05 284.7 65.25 M128.85 39.25 L129.95 38.65 133.0 41.85 131.8 42.05 130.85 42.2 126.9 42.8 125.7 41.85 125.7 41.55 Q125.7 41.0 127.8 39.8 L128.55 39.4 128.85 39.25" fill="#8f4610" fill-rule="evenodd" stroke="none"/>
      <path d="M324.25 30.25 L323.85 31.25 322.8 31.8 324.25 30.25 M283.9 65.9 L282.85 66.35 Q280.15 67.1 278.7 67.75 275.05 69.1 273.55 71.15 272.5 72.8 272.4 74.75 272.3 77.35 268.4 81.35 264.5 85.35 264.5 85.8 264.45 86.6 266.2 89.45 267.95 92.3 267.85 94.6 267.7 97.25 265.55 104.25 263.0 112.05 261.2 111.7 L255.95 105.0 Q250.2 97.55 247.1 95.15 244.95 96.75 244.35 99.8 243.85 102.35 244.6 105.55 L244.35 111.0 244.35 111.2 243.4 111.25 242.9 110.75 242.4 110.15 236.75 104.9 Q229.5 98.3 226.1 96.2 221.65 100.1 221.45 104.65 L222.35 106.3 223.3 108.3 223.05 109.55 222.65 110.0 221.45 110.3 Q218.25 110.35 213.7 101.7 L208.1 89.4 Q199.8 87.75 196.45 85.05 194.4 83.25 193.8 80.2 193.2 77.2 192.2 76.3 190.2 74.75 183.9 74.8 180.0 74.75 175.05 71.6 170.75 68.65 170.8 67.8 170.85 66.6 171.7 66.05 172.4 65.55 173.55 65.6 L175.95 66.05 178.9 66.85 184.35 67.2 192.85 66.45 203.35 65.85 200.7 63.7 Q198.35 61.5 196.5 58.5 193.95 54.15 186.8 49.7 L172.65 41.85 172.55 41.8 173.5 41.7 Q182.5 41.7 189.55 45.75 193.25 48.0 200.7 54.8 207.6 61.15 212.85 63.75 220.9 67.85 231.7 67.85 236.8 67.85 242.4 63.4 L242.9 63.1 243.45 62.75 246.6 60.9 Q250.25 58.45 253.2 55.45 L253.2 55.3 Q253.3 53.9 259.25 51.2 264.3 48.2 269.15 46.7 L269.25 46.65 269.85 46.5 270.65 47.95 272.3 50.4 272.25 50.4 266.2 51.3 264.9 51.5 264.3 51.8 Q260.95 53.3 260.8 55.8 L258.8 58.5 Q256.9 61.2 256.85 61.55 256.85 62.2 257.3 63.05 L258.05 64.1 262.5 64.95 271.65 63.45 281.75 62.85 281.8 62.85 282.6 64.3 Q283.4 65.45 284.2 65.7 L284.7 65.25 Q284.5 65.55 283.9 65.9 M325.65 147.05 L325.05 145.6 Q325.05 142.05 331.25 142.1 337.2 142.1 337.4 144.9 L340.95 145.1 Q345.2 145.65 345.2 147.15 L345.1 148.35 344.9 149.05 Q345.6 149.2 344.1 149.2 341.6 149.2 339.3 148.4 L336.85 147.05 336.3 147.5 Q334.75 148.45 330.35 148.45 326.95 148.45 325.65 147.05 M304.0 46.15 L303.8 45.3 304.0 44.75 303.95 45.15 304.0 46.15 M260.15 70.25 L260.05 69.9 Q253.85 69.25 249.9 73.6 247.85 75.9 245.65 81.2 247.85 79.05 251.5 76.15 257.0 71.75 260.15 70.25 M223.5 84.25 Q224.5 84.25 225.2 83.6 226.15 82.85 228.15 82.35 226.75 81.75 218.25 76.85 212.8 73.7 205.95 73.05 L215.3 78.95 223.5 84.25 M232.7 111.5 L233.5 111.15 Q236.05 116.5 239.0 119.8 243.2 124.65 250.75 128.75 251.85 127.0 252.9 119.45 L253.1 117.75 253.4 115.25 Q253.55 113.0 255.65 113.45 257.95 113.85 258.3 117.1 L258.3 118.55 258.3 120.3 258.2 124.3 Q258.1 127.0 258.65 131.75 259.15 136.5 259.05 138.45 L258.9 141.65 Q258.45 143.9 256.3 143.6 247.6 142.2 240.05 130.95 235.75 124.75 231.4 114.35 232.3 112.85 232.4 111.65 L232.7 111.5 M188.05 116.35 L187.25 114.45 Q187.25 111.2 192.2 111.2 197.1 111.25 197.1 113.95 197.1 115.45 196.2 116.55 194.95 118.15 192.3 118.15 189.4 118.15 188.05 116.35 M125.7 41.85 L126.9 42.8 126.3 42.85 126.0 42.6 Q125.75 42.5 125.7 41.85 M133.0 41.85 L129.95 38.65 Q130.65 38.3 131.5 37.9 138.55 34.5 145.35 34.8 L146.65 36.1 147.0 36.55 Q147.0 39.2 142.7 40.3 L133.0 41.85" fill="#a8631e" fill-rule="evenodd" stroke="none"/>
    </g>
  </defs>
</svg>
