<?xml version="1.0" encoding="UTF-8" standalone="no"?>
<svg xmlns:ffdec="https://www.free-decompiler.com/flash" xmlns:xlink="http://www.w3.org/1999/xlink" ffdec:objectType="frame" height="211.7px" width="488.3px" xmlns="http://www.w3.org/2000/svg">
  <g transform="matrix(1.0, 0.0, 0.0, 1.0, 92.25, 9.9)">
    <use ffdec:characterId="101" ffdec:characterName="a_EB_GoblinFlagFrame06" height="206.1" transform="matrix(1.0, 0.0, 0.0, 1.0, -92.25, -9.9)" width="488.0" xlink:href="#sprite0"/>
  </g>
  <defs>
    <g id="sprite0" transform="matrix(1.0, 0.0, 0.0, 1.0, 0.0, 0.0)">
      <use ffdec:characterId="100" height="206.1" transform="matrix(1.0, 0.0, 0.0, 1.0, 0.0, 0.0)" width="488.0" xlink:href="#shape0"/>
    </g>
    <g id="shape0" transform="matrix(1.0, 0.0, 0.0, 1.0, 0.0, 0.0)">
      <path d="M418.05 170.05 L421.85 170.25 428.25 171.6 Q432.0 172.45 433.65 172.35 L434.2 172.6 Q434.4 172.65 434.4 173.55 434.4 174.45 433.7 175.0 L432.9 175.5 435.5 174.3 437.85 173.3 Q439.35 173.3 440.15 173.9 440.95 174.45 441.9 174.45 443.5 174.45 443.7 175.5 L443.6 177.05 444.1 176.95 445.65 176.75 Q447.2 176.75 447.5 177.95 L447.5 179.7 Q449.7 178.05 451.55 178.05 L453.6 178.35 453.85 178.75 454.1 179.9 Q454.1 180.25 453.3 181.0 L452.25 181.95 451.95 182.25 Q453.55 181.15 454.05 180.9 454.8 180.5 455.7 180.5 L457.35 180.8 Q457.95 182.5 457.35 183.6 L457.2 183.75 Q458.6 183.0 458.95 182.85 L460.95 182.4 Q462.15 182.4 474.05 188.4 485.4 194.1 487.7 193.2 L487.85 193.1 488.0 194.1 Q488.0 196.55 486.45 197.25 484.5 198.15 477.8 198.15 475.1 198.15 466.9 194.4 458.65 190.65 457.2 190.65 447.65 188.0 439.7 183.0 438.05 181.9 432.0 180.2 424.65 178.1 418.4 177.95 L418.6 177.6 Q419.05 176.75 419.1 175.7 L419.1 175.6 419.1 175.55 419.1 175.4 419.1 174.4 419.7 173.7 419.5 172.5 419.25 172.05 418.75 172.15 418.05 170.05 M354.55 13.65 Q355.2 12.4 357.4 10.95 360.6 8.85 363.45 8.85 364.2 8.85 365.8 9.55 367.4 10.2 368.15 10.2 368.8 10.2 370.15 9.25 371.5 8.25 372.2 8.25 372.95 8.25 373.4 8.85 373.85 9.45 374.6 9.45 L380.0 8.85 394.0 2.6 Q407.85 -2.6 407.85 2.55 407.85 5.4 389.25 11.5 371.3 17.3 359.35 17.8 L359.15 17.45 358.3 16.05 358.35 15.95 358.4 15.9 Q357.05 14.8 354.55 13.65 M344.3 16.75 Q344.8 16.45 345.5 16.3 L346.6 16.15 Q350.1 16.0 350.45 19.2 L350.5 19.2 Q353.95 19.85 353.95 22.85 L353.65 25.95 353.4 26.2 352.2 26.45 351.1 26.3 Q350.95 27.1 350.2 27.9 349.5 28.75 348.6 29.0 L347.85 29.1 346.75 28.95 Q345.25 28.45 345.25 26.4 L345.35 25.35 Q343.65 25.15 343.0 22.7 L342.7 19.85 Q342.7 17.6 344.3 16.75 M410.65 166.2 Q410.7 168.0 410.2 171.6 L410.35 171.85 411.15 173.25 Q412.05 174.75 412.05 175.35 L409.45 177.1 406.3 178.65 Q402.35 178.65 401.65 177.1 401.2 176.1 402.1 174.15 399.2 174.2 398.25 173.05 397.75 172.4 397.75 170.9 397.75 170.05 398.25 169.8 399.2 169.35 403.15 168.95 404.4 168.85 405.2 167.5 L405.2 167.45 406.3 165.5 Q407.45 164.65 408.35 164.35 L408.35 164.3 Q410.35 163.5 410.6 165.7 L410.65 165.9 410.65 166.2" fill="#444a28" fill-rule="evenodd" stroke="none"/>
      <path d="M348.6 29.0 Q349.5 28.75 350.2 27.9 350.95 27.1 351.1 26.3 L352.2 26.45 353.4 26.2 353.65 25.95 353.95 22.85 Q353.95 19.85 350.5 19.2 L350.45 19.2 Q350.1 16.0 346.6 16.15 L345.5 16.3 Q344.8 16.45 344.3 16.75 L343.25 14.9 343.05 14.6 344.8 14.15 345.0 14.2 345.55 13.95 350.45 13.7 Q357.5 14.95 357.5 19.8 357.5 24.4 356.9 26.35 L356.9 47.1 Q356.75 51.75 357.35 60.9 L356.75 67.2 356.1 73.5 Q356.1 84.6 356.45 89.25 357.05 97.6 359.25 106.1 L360.95 112.4 Q355.75 102.15 351.9 91.6 L351.3 89.95 349.9 85.15 Q347.55 76.3 347.55 70.35 L348.75 50.15 349.05 41.65 Q349.25 33.4 348.6 29.1 L348.6 29.0 M308.4 23.65 L304.0 27.1 300.1 35.65 Q294.6 48.25 294.6 52.35 294.6 63.2 296.8 69.65 L299.75 77.45 Q302.0 83.6 304.05 90.35 L311.05 111.25 Q316.1 126.3 316.1 127.8 316.1 132.65 323.05 146.45 330.0 160.25 330.0 163.25 330.0 164.75 329.85 163.95 L329.4 164.4 Q321.55 154.8 306.8 139.45 L290.9 123.15 291.5 123.75 287.85 119.1 Q284.15 114.2 279.75 109.05 L279.75 108.9 279.8 108.8 280.35 105.45 Q280.45 103.15 278.7 100.25 276.95 97.3 277.0 96.5 277.0 96.05 280.9 92.25 L282.1 91.0 Q284.8 87.95 284.9 85.8 285.0 83.85 286.05 82.25 L286.85 81.4 Q288.1 80.25 290.2 79.45 L291.2 79.1 291.45 79.0 291.7 78.9 294.55 78.05 295.35 77.85 Q297.25 77.25 297.3 76.5 L297.1 75.5 296.85 75.1 294.45 74.3 294.35 74.3 294.1 74.25 293.15 74.15 293.15 74.1 291.95 74.05 290.85 74.05 290.75 74.05 290.6 74.05 289.55 74.05 287.4 74.2 284.15 74.45 281.5 74.85 281.3 74.9 275.0 75.55 270.55 74.55 269.8 73.45 Q269.35 72.55 269.35 71.9 L271.3 68.95 273.3 66.35 Q273.45 63.85 276.8 62.5 L277.4 62.25 278.7 62.1 282.55 61.7 286.4 61.25 289.25 60.8 289.95 60.4 Q290.0 59.3 289.65 58.55 288.5 56.2 283.3 57.2 L281.75 57.55 Q276.85 58.85 271.75 61.7 265.8 64.1 265.7 65.5 L265.7 65.65 Q262.75 68.55 259.1 70.8 L255.95 72.55 Q255.65 72.65 255.4 72.85 L254.9 73.15 252.75 74.65 252.25 74.95 250.4 75.85 250.25 75.95 250.05 76.0 248.8 76.3 245.85 72.35 Q243.3 69.45 239.3 63.95 L232.95 55.45 Q229.4 51.05 225.95 48.4 L225.9 48.35 Q221.3 42.5 216.45 37.5 206.25 26.95 185.95 15.35 L184.15 14.35 184.1 14.3 184.7 14.45 190.55 16.2 190.8 16.3 206.55 23.1 212.05 25.35 Q217.75 27.45 223.65 29.0 L224.6 29.25 228.6 30.2 229.1 30.3 230.05 30.5 Q242.4 33.0 255.65 33.0 265.65 33.0 279.8 30.35 L295.45 26.9 296.05 26.75 296.25 26.7 296.45 26.65 296.95 26.55 307.55 23.85 308.4 23.65 M99.95 31.95 Q121.3 40.7 129.45 45.8 L129.3 46.25 Q123.3 43.25 113.0 39.8 L113.0 40.05 111.9 39.45 107.4 38.0 90.0 32.9 79.35 30.4 79.6 30.4 Q88.15 31.8 99.15 31.95 L99.35 31.95 99.95 31.95 M198.45 200.85 L197.35 201.05 Q198.45 194.35 198.45 187.95 L198.8 184.75 Q199.05 182.35 198.8 180.95 L199.25 180.95 201.1 189.95 Q202.55 197.9 202.55 199.65 L202.55 199.8 202.35 199.85 202.15 199.95 198.45 200.85" fill="#bfc466" fill-rule="evenodd" stroke="none"/>
      <path d="M418.4 177.95 Q416.85 180.2 412.15 181.15 L404.05 182.15 393.75 186.3 Q378.25 192.05 363.8 194.9 362.55 195.75 361.05 196.3 353.95 199.05 332.15 199.05 306.6 199.05 288.2 194.95 L287.4 194.5 Q275.55 188.45 261.6 185.6 249.2 184.6 240.4 192.1 L237.25 195.3 236.95 195.3 236.65 195.55 225.35 206.1 224.45 205.8 Q224.1 205.55 224.1 204.6 224.1 204.35 226.4 201.0 L229.0 196.65 227.8 197.0 Q229.55 194.95 229.55 193.55 L229.3 192.25 228.45 191.85 222.7 195.25 Q218.2 197.85 215.55 199.05 L204.3 202.6 Q199.95 203.95 197.55 205.0 L190.95 205.65 189.65 205.5 189.45 205.35 189.1 205.15 189.0 204.15 190.95 202.0 Q192.9 199.9 192.9 198.45 192.9 195.6 187.0 194.1 L175.0 191.55 177.2 192.35 173.65 191.8 171.5 191.7 170.2 190.45 167.4 189.75 Q168.85 186.9 173.25 187.9 L175.1 188.45 Q190.5 185.05 190.5 178.85 190.5 167.25 170.95 158.0 166.2 155.75 157.45 152.55 151.35 150.3 151.35 149.7 151.35 148.95 152.05 147.7 L152.6 146.35 150.5 141.0 148.75 137.5 Q146.8 135.15 143.9 132.4 136.2 126.55 124.1 118.8 L126.35 118.65 129.3 118.8 Q142.75 118.8 146.8 115.65 148.05 114.65 148.25 113.45 L148.2 112.35 Q148.2 108.35 141.9 98.0 137.45 90.7 133.2 85.2 130.1 81.15 122.85 76.9 L119.4 74.7 Q110.75 69.6 98.55 65.55 L92.0 63.55 94.0 62.75 94.7 62.75 97.05 61.95 Q103.5 59.8 103.5 57.8 103.5 56.0 94.55 54.6 L85.0 53.55 Q81.15 55.25 75.95 55.15 65.55 54.9 64.5 55.05 L61.05 56.3 Q58.5 57.35 57.3 57.35 55.8 57.35 55.9 57.05 L55.7 57.15 Q55.45 57.05 55.45 56.1 55.45 55.15 55.8 54.75 L56.85 53.75 Q56.0 53.15 54.75 51.35 53.75 49.9 51.9 49.15 46.35 46.95 23.55 46.95 9.75 46.95 4.8 44.05 2.95 42.95 1.75 41.15 L0.0 37.95 0.0 36.6 4.7 36.8 9.7 37.2 Q21.15 37.2 27.7 33.45 L31.35 30.75 33.1 29.25 Q34.55 28.7 35.7 26.4 L37.0 23.45 Q37.9 21.95 40.8 21.2 43.15 20.5 43.2 19.1 L41.4 17.85 38.7 13.2 Q38.7 10.2 45.05 14.95 L52.3 20.85 Q54.15 22.15 62.65 24.75 62.65 24.0 62.8 24.2 L62.95 24.6 Q67.7 26.25 72.8 27.05 83.7 28.8 101.55 28.8 113.35 28.8 121.95 25.9 127.2 24.15 134.95 19.6 142.75 14.95 147.7 13.25 156.1 10.35 167.55 10.35 179.6 10.35 190.0 13.5 194.9 15.0 207.4 20.4 218.55 25.2 227.25 27.3 240.3 30.45 256.85 30.45 276.15 30.45 310.25 20.7 L334.85 13.45 341.7 11.55 342.3 10.95 346.65 10.45 Q351.45 12.15 354.55 13.65 357.05 14.8 358.4 15.9 L358.35 15.95 358.3 16.05 359.15 17.45 359.35 17.8 Q360.55 20.25 360.0 21.3 L360.0 47.55 Q360.8 57.15 360.8 61.1 L359.4 81.2 Q359.4 100.95 368.6 125.9 374.4 134.5 382.55 141.6 388.7 146.95 399.85 154.1 410.3 160.75 413.55 163.85 416.65 166.8 418.05 170.05 L418.75 172.15 419.25 172.05 419.5 172.5 419.7 173.7 419.1 174.4 419.1 175.4 419.1 175.55 419.1 175.6 419.1 175.7 Q419.05 176.75 418.6 177.6 L418.4 177.95 M351.3 89.95 L351.9 91.6 Q355.75 102.15 360.95 112.4 L359.25 106.1 Q357.05 97.6 356.45 89.25 356.1 84.6 356.1 73.5 L356.75 67.2 357.35 60.9 Q356.75 51.75 356.9 47.1 L356.9 26.35 Q357.5 24.4 357.5 19.8 357.5 14.95 350.45 13.7 L345.55 13.95 345.0 14.2 344.8 14.15 343.05 14.6 308.4 23.65 307.55 23.85 296.95 26.55 296.45 26.65 296.25 26.7 296.05 26.75 295.45 26.9 279.8 30.35 Q265.65 33.0 255.65 33.0 242.4 33.0 230.05 30.5 L229.1 30.3 228.6 30.2 224.6 29.25 223.65 29.0 Q217.75 27.45 212.05 25.35 L206.55 23.1 190.8 16.3 190.55 16.2 184.7 14.45 184.1 14.3 184.15 14.35 Q179.3 13.2 174.75 13.2 159.0 13.2 148.85 16.15 142.2 18.05 134.8 22.6 126.8 27.5 122.5 29.0 114.2 31.95 101.6 31.95 L99.95 31.95 99.35 31.95 99.15 31.95 Q88.15 31.8 79.6 30.4 L79.35 30.4 78.55 30.45 Q70.55 30.45 57.65 25.05 51.4 22.45 45.85 19.5 L45.6 20.0 46.0 21.1 45.3 20.6 41.9 24.45 Q37.6 28.65 31.65 32.5 16.1 42.6 6.55 40.05 12.95 42.9 22.3 43.55 L38.0 43.85 Q46.75 44.05 51.35 45.75 57.45 48.1 59.95 54.05 L67.55 52.4 Q75.0 51.0 79.8 51.0 L83.65 51.35 85.45 51.3 Q99.55 51.95 103.45 53.65 105.95 54.75 105.95 58.1 105.95 60.85 104.4 61.95 L101.1 63.5 Q106.75 64.55 108.35 66.2 122.05 69.8 134.85 84.6 141.5 92.3 146.0 101.0 150.05 108.8 150.05 112.55 150.05 117.6 142.85 120.8 L132.7 121.05 Q142.05 126.45 147.95 132.25 156.6 140.85 155.55 148.65 173.6 154.75 182.95 161.4 193.95 169.25 193.95 178.5 193.95 184.55 189.55 186.6 187.7 187.45 183.35 188.6 L178.75 189.8 Q193.3 190.8 195.05 194.55 195.55 195.65 195.2 198.0 194.8 200.35 195.35 201.45 L198.45 200.85 202.15 199.95 202.35 199.85 202.55 199.8 215.95 195.1 Q230.5 190.05 230.7 190.05 L232.35 190.35 232.55 190.65 232.7 191.7 232.7 192.45 233.05 192.4 231.9 195.6 232.45 195.75 232.0 195.85 231.45 197.4 231.6 197.55 Q232.2 196.6 233.25 195.55 L233.05 195.6 236.1 192.2 237.15 192.2 Q241.5 188.9 246.4 186.9 L246.3 186.9 Q253.5 183.95 258.6 183.05 L260.25 182.8 263.5 183.55 265.2 183.95 269.9 184.95 273.6 186.6 285.5 191.85 287.45 193.1 Q289.1 194.0 292.25 194.65 299.25 196.05 315.55 196.45 L320.25 196.5 323.2 196.55 324.5 196.55 327.95 196.55 328.8 196.55 331.2 196.55 Q340.5 196.3 349.4 194.5 357.4 193.6 364.4 191.75 L366.45 191.25 366.85 191.1 Q367.25 190.95 367.35 191.25 L367.15 191.6 Q372.6 190.55 377.45 189.05 385.15 186.7 390.9 183.7 L394.1 183.0 Q417.35 178.05 417.35 173.4 417.35 172.55 414.35 169.55 L410.65 166.2 410.65 165.9 410.6 165.7 Q410.35 163.5 408.35 164.3 L408.35 164.35 407.7 163.85 403.6 161.1 Q397.3 156.25 391.1 152.7 L390.4 152.25 382.65 145.05 Q373.65 136.8 370.5 132.2 L362.3 121.85 Q359.5 116.1 355.4 106.5 346.5 85.75 346.5 79.35 346.5 77.7 345.35 72.3 L343.8 65.85 343.8 60.95 344.25 60.95 Q345.9 74.75 351.3 89.95 M131.3 121.9 L130.4 121.1 129.9 121.1 131.3 121.9" fill="#7e811f" fill-rule="evenodd" stroke="none"/>
      <path d="M344.3 16.75 Q342.7 17.6 342.7 19.85 L343.0 22.7 Q343.65 25.15 345.35 25.35 L345.25 26.4 Q345.25 28.45 346.75 28.95 L347.85 29.1 348.6 29.0 348.6 29.1 Q349.25 33.4 349.05 41.65 L348.75 50.15 347.55 70.35 Q347.55 76.3 349.9 85.15 L351.3 89.95 Q345.9 74.75 344.25 60.95 L343.8 60.95 343.8 65.85 345.35 72.3 Q346.5 77.7 346.5 79.35 346.5 85.75 355.4 106.5 359.5 116.1 362.3 121.85 L370.5 132.2 Q373.65 136.8 382.65 145.05 L390.4 152.25 391.1 152.7 Q397.3 156.25 403.6 161.1 L407.7 163.85 408.35 164.35 Q407.45 164.65 406.3 165.5 L405.2 167.45 405.2 167.5 Q404.4 168.85 403.15 168.95 399.2 169.35 398.25 169.8 397.75 170.05 397.75 170.9 397.75 172.4 398.25 173.05 399.2 174.2 402.1 174.15 401.2 176.1 401.65 177.1 402.35 178.65 406.3 178.65 L409.45 177.1 412.05 175.35 Q412.05 174.75 411.15 173.25 L410.35 171.85 410.2 171.6 Q410.7 168.0 410.65 166.2 L414.35 169.55 Q417.35 172.55 417.35 173.4 417.35 178.05 394.1 183.0 L390.9 183.7 Q385.15 186.7 377.45 189.05 372.6 190.55 367.15 191.6 L367.35 191.25 Q367.25 190.95 366.85 191.1 L366.45 191.25 364.4 191.75 Q357.4 193.6 349.4 194.5 340.5 196.3 331.2 196.55 L328.8 196.55 327.95 196.55 324.5 196.55 323.2 196.55 320.25 196.5 315.55 196.45 Q299.25 196.05 292.25 194.65 289.1 194.0 287.45 193.1 L285.5 191.85 273.6 186.6 269.9 184.95 265.2 183.95 263.5 183.55 260.25 182.8 258.6 183.05 Q253.5 183.95 246.3 186.9 L246.4 186.9 Q241.5 188.9 237.15 192.2 L236.1 192.2 233.05 195.6 233.25 195.55 Q232.2 196.6 231.6 197.55 L231.45 197.4 232.0 195.85 232.45 195.75 231.9 195.6 233.05 192.4 232.7 192.45 232.7 191.7 232.55 190.65 232.35 190.35 230.7 190.05 Q230.5 190.05 215.95 195.1 L202.55 199.8 202.55 199.65 Q202.55 197.9 201.1 189.95 L199.25 180.95 198.8 180.95 Q199.05 182.35 198.8 184.75 L198.45 187.95 Q198.45 194.35 197.35 201.05 L198.45 200.85 195.35 201.45 Q194.8 200.35 195.2 198.0 195.55 195.65 195.05 194.55 193.3 190.8 178.75 189.8 L183.35 188.6 Q187.7 187.45 189.55 186.6 193.95 184.55 193.95 178.5 193.95 169.25 182.95 161.4 173.6 154.75 155.55 148.65 156.6 140.85 147.95 132.25 142.05 126.45 132.7 121.05 L142.85 120.8 Q150.05 117.6 150.05 112.55 150.05 108.8 146.0 101.0 141.5 92.3 134.85 84.6 122.05 69.8 108.35 66.2 106.75 64.55 101.1 63.5 L104.4 61.95 Q105.95 60.85 105.95 58.1 105.95 54.75 103.45 53.65 99.55 51.95 85.45 51.3 L83.65 51.35 79.8 51.0 Q75.0 51.0 67.55 52.4 L59.95 54.05 Q57.45 48.1 51.35 45.75 46.75 44.05 38.0 43.85 L22.3 43.55 Q12.95 42.9 6.55 40.05 16.1 42.6 31.65 32.5 37.6 28.65 41.9 24.45 L45.3 20.6 46.0 21.1 45.6 20.0 45.85 19.5 Q51.4 22.45 57.65 25.05 70.55 30.45 78.55 30.45 L79.35 30.4 90.0 32.9 107.4 38.0 111.9 39.45 113.0 40.05 113.0 39.8 Q123.3 43.25 129.3 46.25 L129.45 45.8 Q121.3 40.7 99.95 31.95 L101.6 31.95 Q114.2 31.95 122.5 29.0 126.8 27.5 134.8 22.6 142.2 18.05 148.85 16.15 159.0 13.2 174.75 13.2 179.3 13.2 184.15 14.35 L185.95 15.35 Q206.25 26.95 216.45 37.5 221.3 42.5 225.9 48.35 L225.95 48.4 Q229.4 51.05 232.95 55.45 L239.3 63.95 Q243.3 69.45 245.85 72.35 L248.8 76.3 245.5 77.1 245.0 77.1 244.2 77.1 Q233.4 76.65 225.35 72.2 220.1 69.35 213.2 62.7 205.75 55.6 202.05 53.15 195.0 48.8 186.0 48.4 L185.05 48.5 185.15 48.55 199.3 57.0 Q206.45 61.75 209.0 66.25 210.85 69.3 213.2 71.6 L215.85 73.9 Q209.55 73.65 205.35 74.0 L196.85 74.4 191.4 73.8 188.45 72.9 186.05 72.3 Q184.9 72.2 184.2 72.7 183.35 73.2 183.3 74.4 183.25 75.25 187.55 78.4 192.5 81.75 196.4 81.95 202.7 82.2 204.7 83.85 205.7 84.8 206.3 87.8 206.9 90.9 208.95 92.75 212.3 95.6 220.6 97.65 L226.2 110.2 Q230.75 119.05 233.95 119.1 L235.15 118.85 235.55 118.45 235.8 117.2 Q235.8 116.8 234.85 115.15 L233.95 113.45 Q234.15 108.95 238.6 105.25 242.0 107.45 249.25 114.4 L254.9 119.9 255.4 120.5 255.9 121.05 256.85 121.05 256.85 120.85 257.1 115.4 Q256.35 112.15 256.85 109.65 257.45 106.6 259.6 105.1 262.7 107.65 268.45 115.35 L273.7 122.25 274.2 122.25 274.35 122.2 275.6 120.8 276.1 119.95 276.65 118.75 276.7 118.7 276.75 118.55 277.0 118.0 277.4 116.95 277.6 116.35 278.05 115.0 279.75 109.05 Q284.15 114.2 287.85 119.1 L291.5 123.75 290.9 123.15 306.8 139.45 Q321.55 154.8 329.4 164.4 L329.85 163.95 Q330.0 164.75 330.0 163.25 330.0 160.25 323.05 146.45 316.1 132.65 316.1 127.8 316.1 126.3 311.05 111.25 L304.05 90.35 Q302.0 83.6 299.75 77.45 L296.8 69.65 Q294.6 63.2 294.6 52.35 294.6 48.25 300.1 35.65 L304.0 27.1 308.4 23.65 343.05 14.6 343.25 14.9 344.3 16.75 M330.35 35.3 Q331.7 34.9 333.05 33.55 334.4 32.15 334.4 31.1 L334.25 29.8 334.1 29.25 Q328.8 28.55 326.05 29.85 323.75 31.0 323.75 33.15 323.75 33.55 324.75 34.4 L325.95 35.3 330.35 35.3 M346.3 157.65 L347.45 156.6 347.4 156.95 Q347.4 157.4 349.1 158.9 352.6 158.9 353.9 158.0 354.75 157.45 354.75 156.35 354.75 154.55 351.1 154.1 348.9 153.85 348.0 154.95 L348.0 154.65 Q348.0 151.1 342.45 152.35 336.9 153.65 336.9 156.3 L337.05 157.7 Q337.85 158.9 340.95 158.9 344.4 158.9 346.3 157.65 M322.85 48.9 L317.15 49.2 Q315.0 50.05 315.0 51.15 L315.2 52.5 315.35 53.1 316.35 53.25 318.5 53.4 Q321.55 53.4 322.5 52.5 323.15 51.95 323.15 50.25 L323.0 49.2 322.85 48.9 M237.7 92.6 Q237.0 93.2 236.0 93.15 L227.8 87.5 218.45 81.2 Q225.3 82.15 230.75 85.55 L240.65 91.45 Q238.65 91.9 237.7 92.6 M205.95 121.95 Q208.05 120.2 208.05 118.7 208.05 116.2 203.5 116.05 198.95 115.85 198.95 119.1 L199.15 120.65 Q199.7 121.9 201.6 121.95 L205.95 121.95 M290.05 146.95 L291.0 148.5 291.15 148.45 290.05 146.95 M289.85 134.35 L291.3 135.65 289.9 133.9 Q288.9 132.7 289.2 133.5 L289.85 134.35 M245.2 120.8 L244.9 120.95 Q244.8 122.15 243.9 123.6 248.25 134.2 252.55 140.6 260.1 152.15 268.8 153.95 270.95 154.35 271.4 152.1 L271.55 148.9 Q271.65 146.95 271.15 142.2 270.6 137.45 270.7 134.75 L270.8 130.75 270.8 129.0 270.8 127.55 Q270.45 124.25 268.15 123.75 266.05 123.25 265.9 125.45 L265.6 127.95 265.4 129.65 Q264.35 137.15 263.25 138.85 255.7 134.4 251.5 129.4 248.55 125.95 246.0 120.5 L245.2 120.8 M299.85 160.85 L297.05 156.95 299.7 160.95 299.85 160.85 M137.4 32.55 L137.35 32.55 Q134.25 34.95 134.25 35.55 134.25 37.05 134.55 36.3 L136.75 36.85 138.45 37.2 140.35 36.8 140.6 36.7 Q144.9 36.4 149.1 34.2 153.15 32.1 153.15 31.1 153.15 29.3 150.55 28.65 148.15 28.0 144.9 28.6 139.1 29.7 137.4 32.55" fill="#dee184" fill-rule="evenodd" stroke="none"/>
      <path d="M330.35 35.3 L325.95 35.3 324.75 34.4 Q323.75 33.55 323.75 33.15 323.75 31.0 326.05 29.85 328.8 28.55 334.1 29.25 L334.25 29.8 334.4 31.1 Q334.4 32.15 333.05 33.55 331.7 34.9 330.35 35.3 M346.3 157.65 Q344.4 158.9 340.95 158.9 337.85 158.9 337.05 157.7 L336.9 156.3 Q336.9 153.65 342.45 152.35 348.0 151.1 348.0 154.65 L348.0 154.95 Q348.9 153.85 351.1 154.1 354.75 154.55 354.75 156.35 354.75 157.45 353.9 158.0 352.6 158.9 349.1 158.9 347.4 157.4 347.4 156.95 L347.45 156.6 346.3 157.65 M248.8 76.3 L250.05 76.0 250.25 75.95 250.4 75.85 Q255.0 79.95 260.7 86.05 L259.85 87.5 258.15 91.1 258.25 91.05 258.7 90.6 260.4 89.15 260.55 89.0 261.35 88.35 262.2 87.7 268.0 94.25 Q274.5 101.75 279.8 108.8 L279.75 108.9 279.75 109.05 278.05 115.0 277.6 116.35 277.4 116.95 277.0 118.0 276.75 118.55 276.7 118.7 276.65 118.75 276.1 119.95 275.6 120.8 274.35 122.2 274.2 122.25 273.7 122.25 268.45 115.35 Q262.7 107.65 259.6 105.1 257.45 106.6 256.85 109.65 256.35 112.15 257.1 115.4 L256.85 120.85 256.85 121.05 255.9 121.05 255.4 120.5 254.9 119.9 249.25 114.4 Q242.0 107.45 238.6 105.25 234.15 108.95 233.95 113.45 L234.85 115.15 Q235.8 116.8 235.8 117.2 L235.55 118.45 235.15 118.85 233.95 119.1 Q230.75 119.05 226.2 110.2 L220.6 97.65 Q212.3 95.6 208.95 92.75 206.9 90.9 206.3 87.8 205.7 84.8 204.7 83.85 202.7 82.2 196.4 81.95 192.5 81.75 187.55 78.4 183.25 75.25 183.3 74.4 183.35 73.2 184.2 72.7 184.9 72.2 186.05 72.3 L188.45 72.9 191.4 73.8 196.85 74.4 205.35 74.0 Q209.55 73.65 215.85 73.9 L213.2 71.6 Q210.85 69.3 209.0 66.25 206.45 61.75 199.3 57.0 L185.15 48.55 185.05 48.5 186.0 48.4 Q195.0 48.8 202.05 53.15 205.75 55.6 213.2 62.7 220.1 69.35 225.35 72.2 233.4 76.65 244.2 77.1 L245.0 77.1 245.5 77.1 248.8 76.3 M322.85 48.9 L323.0 49.2 323.15 50.25 Q323.15 51.95 322.5 52.5 321.55 53.4 318.5 53.4 L316.35 53.25 315.35 53.1 315.2 52.5 315.0 51.15 Q315.0 50.05 317.15 49.2 L322.85 48.9 M237.7 92.6 Q238.65 91.9 240.65 91.45 L230.75 85.55 Q225.3 82.15 218.45 81.2 L227.8 87.5 236.0 93.15 Q237.0 93.2 237.7 92.6 M205.95 121.95 L201.6 121.95 Q199.7 121.9 199.15 120.65 L198.95 119.1 Q198.95 115.85 203.5 116.05 208.05 116.2 208.05 118.7 208.05 120.2 205.95 121.95 M245.2 120.8 L246.0 120.5 Q248.55 125.95 251.5 129.4 255.7 134.4 263.25 138.85 264.35 137.15 265.4 129.65 L265.6 127.95 265.9 125.45 Q266.05 123.25 268.15 123.75 270.45 124.25 270.8 127.55 L270.8 129.0 270.8 130.75 270.7 134.75 Q270.6 137.45 271.15 142.2 271.65 146.95 271.55 148.9 L271.4 152.1 Q270.95 154.35 268.8 153.95 260.1 152.15 252.55 140.6 248.25 134.2 243.9 123.6 244.8 122.15 244.9 120.95 L245.2 120.8 M137.4 32.55 Q139.1 29.7 144.9 28.6 148.15 28.0 150.55 28.65 153.15 29.3 153.15 31.1 153.15 32.1 149.1 34.2 144.9 36.4 140.6 36.7 L140.35 36.8 138.45 37.2 136.75 36.85 134.55 36.3 Q134.25 37.05 134.25 35.55 134.25 34.95 137.35 32.55 L137.4 32.55" fill="#a8631e" fill-rule="evenodd" stroke="none"/>
      <path d="M250.4 75.85 L252.25 74.95 252.75 74.65 254.9 73.15 255.4 72.85 Q255.65 72.65 255.95 72.55 L259.1 70.8 Q262.75 68.55 265.7 65.65 L265.7 65.5 Q265.8 64.1 271.75 61.7 276.85 58.85 281.75 57.55 L283.3 57.2 Q288.5 56.2 289.65 58.55 290.0 59.3 289.95 60.4 L289.25 60.8 286.4 61.25 282.55 61.7 278.7 62.1 277.4 62.25 276.8 62.5 Q273.45 63.85 273.3 66.35 L271.3 68.95 269.35 71.9 Q269.35 72.55 269.8 73.45 L270.55 74.55 275.0 75.55 281.3 74.9 281.5 74.85 284.15 74.45 287.4 74.2 289.55 74.05 290.6 74.05 290.75 74.05 290.85 74.05 291.95 74.05 293.15 74.1 293.15 74.15 294.1 74.25 294.35 74.3 294.45 74.3 296.85 75.1 297.1 75.5 297.3 76.5 Q297.25 77.25 295.35 77.85 L294.55 78.05 291.7 78.9 291.45 79.0 291.2 79.1 290.2 79.45 Q288.1 80.25 286.85 81.4 L286.05 82.25 Q285.0 83.85 284.9 85.8 284.8 87.95 282.1 91.0 L280.9 92.25 Q277.0 96.05 277.0 96.5 276.95 97.3 278.7 100.25 280.45 103.15 280.35 105.45 L279.8 108.8 Q274.5 101.75 268.0 94.25 L262.2 87.7 261.35 88.35 264.0 86.3 Q269.5 82.15 272.65 80.75 L272.55 80.4 Q266.35 79.5 262.4 83.65 L260.7 86.05 Q255.0 79.95 250.4 75.85" fill="#8f4610" fill-rule="evenodd" stroke="none"/>
      <path d="M260.7 86.05 L262.4 83.65 Q266.35 79.5 272.55 80.4 L272.65 80.75 Q269.5 82.15 264.0 86.3 L261.35 88.35 260.55 89.0 260.4 89.15 258.7 90.6 258.25 91.05 258.15 91.1 259.85 87.5 260.7 86.05 M289.85 134.35 L289.2 133.5 Q288.9 132.7 289.9 133.9 L291.3 135.65 289.85 134.35 M290.05 146.95 L291.15 148.45 291.0 148.5 290.05 146.95 M299.85 160.85 L299.7 160.95 297.05 156.95 299.85 160.85" fill="#aeb05a" fill-rule="evenodd" stroke="none"/>
    </g>
  </defs>
</svg>
