<?xml version="1.0" encoding="UTF-8" standalone="no"?>
<svg xmlns:ffdec="https://www.free-decompiler.com/flash" xmlns:xlink="http://www.w3.org/1999/xlink" ffdec:objectType="frame" height="211.7px" width="488.3px" xmlns="http://www.w3.org/2000/svg">
  <g transform="matrix(1.0, 0.0, 0.0, 1.0, 92.25, 9.9)">
    <use ffdec:characterId="91" ffdec:characterName="a_EB_GoblinFlagFrame01" height="206.75" transform="matrix(1.0, 0.0, 0.0, 1.0, -88.45, -4.95)" width="484.5" xlink:href="#sprite0"/>
  </g>
  <defs>
    <g id="sprite0" transform="matrix(1.0, 0.0, 0.0, 1.0, 0.0, 0.0)">
      <use ffdec:characterId="90" height="206.75" transform="matrix(1.0, 0.0, 0.0, 1.0, 0.0, 0.0)" width="484.5" xlink:href="#shape0"/>
    </g>
    <g id="shape0" transform="matrix(1.0, 0.0, 0.0, 1.0, 0.0, 0.0)">
      <path d="M349.55 10.5 L349.65 10.45 Q353.8 8.1 359.35 8.1 360.1 8.1 360.5 8.7 360.9 9.3 361.65 9.3 361.95 9.3 364.45 7.65 L367.15 6.0 Q368.65 6.0 369.15 7.2 L369.55 8.85 Q377.15 3.95 378.95 3.4 L388.15 3.0 389.35 1.5 Q390.75 0.0 392.2 0.0 L394.25 0.45 396.55 0.9 Q397.85 0.9 398.45 2.4 398.9 3.6 400.3 3.0 402.3 4.5 402.3 4.9 402.3 6.75 400.6 8.4 398.65 10.25 395.85 10.25 393.9 10.25 391.85 9.5 L389.35 8.7 Q387.55 8.7 378.6 11.7 369.6 14.75 367.65 14.75 364.65 14.85 358.1 18.1 L353.1 20.6 353.0 19.95 352.95 19.65 352.55 17.0 352.1 14.8 352.0 14.5 352.55 12.3 349.55 10.5 M402.05 159.35 Q404.05 158.55 404.3 160.75 L404.35 160.95 Q404.45 162.75 403.9 166.65 L404.05 166.9 404.85 168.3 Q405.75 169.8 405.75 170.4 L403.15 172.15 400.0 173.7 Q396.05 173.7 395.35 172.15 394.9 171.15 395.8 169.2 392.9 169.25 391.95 168.1 391.45 167.45 391.45 165.95 391.45 165.1 391.95 164.85 392.9 164.4 396.85 164.0 398.1 163.9 398.9 162.55 L398.9 162.5 400.0 160.55 402.05 159.35 M417.85 172.55 L419.95 172.4 423.9 172.6 Q424.7 172.9 425.35 174.6 L426.6 174.0 Q427.5 173.55 428.4 173.55 430.55 173.55 430.95 174.7 L430.9 176.15 432.75 175.3 Q433.5 174.9 434.35 174.9 435.85 174.9 436.05 175.25 L436.2 176.8 Q436.2 177.9 435.6 178.5 L437.45 177.1 Q438.65 176.15 439.95 176.15 441.6 176.15 441.85 177.4 L442.0 179.0 444.4 178.15 Q445.95 177.6 446.85 177.6 L448.6 177.9 448.75 178.2 448.9 179.3 448.5 180.2 447.3 181.5 447.0 181.65 Q448.7 181.35 450.1 180.5 451.25 179.75 452.2 179.75 L455.75 180.1 458.1 180.45 460.0 180.75 Q460.6 182.6 459.4 184.35 L461.0 183.45 Q462.3 182.75 462.85 182.75 464.1 182.75 464.65 183.75 L464.95 184.95 Q464.95 185.85 464.55 186.3 L463.6 187.25 463.35 187.55 Q464.15 186.75 466.25 185.95 L468.7 185.25 Q469.15 185.25 472.7 186.9 476.2 188.5 476.2 188.7 476.2 189.6 475.8 190.05 L474.85 191.0 474.7 191.3 476.55 189.8 Q477.35 188.85 478.45 188.85 480.05 188.85 480.4 189.4 480.75 189.9 482.2 189.9 483.65 189.9 484.2 191.4 L484.5 193.05 Q484.5 194.25 483.1 195.45 481.6 196.65 479.95 196.65 473.95 196.65 463.5 192.45 L448.45 185.85 443.4 185.55 Q441.85 184.8 435.0 184.4 430.35 184.15 429.55 180.75 L424.55 180.4 420.9 180.05 416.35 179.75 412.2 178.7 Q416.4 177.75 417.0 176.45 L416.8 176.4 Q417.8 175.7 417.9 173.0 L417.85 172.55 M339.2 11.35 L340.3 11.2 Q343.8 11.05 344.15 14.25 L344.2 14.25 Q347.65 14.9 347.65 17.9 L347.35 21.0 347.1 21.25 345.9 21.5 344.8 21.35 Q344.65 22.15 343.9 22.95 342.9 24.15 341.55 24.15 L340.45 24.0 Q338.95 23.5 338.95 21.45 L339.05 20.4 Q337.35 20.2 336.7 17.75 L336.4 14.9 Q336.4 11.95 339.2 11.35" fill="#444a28" fill-rule="evenodd" stroke="none"/>
      <path d="M353.0 19.95 Q353.55 24.5 353.55 30.5 353.55 32.65 352.55 40.0 353.2 46.0 354.2 53.15 L353.25 61.6 Q351.95 74.05 351.95 77.25 351.95 82.1 353.9 90.05 L354.0 92.7 Q354.0 103.45 361.35 117.5 L368.05 129.7 370.55 134.5 Q374.7 138.65 379.8 142.9 382.1 145.7 384.45 147.6 389.15 151.45 396.75 155.7 L402.05 159.35 400.0 160.55 398.9 162.5 398.9 162.55 398.0 161.75 Q387.4 156.4 378.4 147.75 L373.4 142.45 Q366.35 136.55 361.3 127.45 L357.15 121.95 Q346.55 107.75 342.05 99.1 L340.75 96.4 Q335.85 85.55 335.85 72.2 335.85 68.4 336.55 60.8 L337.55 49.4 338.1 49.4 338.25 51.05 337.7 55.65 337.1 60.2 Q337.1 74.95 341.3 86.4 344.15 94.05 355.7 115.5 L356.55 117.05 Q355.05 113.0 353.85 108.5 349.2 91.4 349.2 70.05 349.2 68.85 350.3 57.2 L350.75 52.45 Q349.8 45.1 349.8 39.2 L350.1 18.15 Q348.95 15.7 346.0 12.5 L343.4 9.45 338.35 9.55 Q309.35 10.3 282.35 19.3 L261.9 26.05 253.85 27.95 Q247.35 29.1 241.35 29.1 L241.2 29.1 212.3 25.5 Q205.6 23.7 197.85 22.0 L190.85 20.45 184.3 19.15 174.65 17.3 155.95 14.1 137.2 14.1 137.2 14.45 135.3 14.75 130.0 14.75 Q111.1 17.8 99.2 22.65 92.0 25.55 85.75 30.0 L83.65 30.9 79.3 34.15 Q71.15 39.05 55.4 42.0 L49.75 42.0 48.75 41.65 48.4 42.05 Q43.35 41.4 40.15 40.3 38.75 39.85 36.2 38.55 L34.55 37.85 34.6 38.6 34.6 39.4 34.75 42.0 34.75 42.5 34.9 42.45 34.9 42.7 34.75 42.7 34.7 44.7 34.7 44.9 34.6 45.45 34.45 46.2 34.3 46.95 Q32.75 49.4 26.35 53.0 22.2 55.35 19.1 56.5 L23.2 56.95 Q33.25 58.3 34.75 63.5 44.1 59.3 63.55 53.0 78.85 48.05 82.35 47.4 87.65 45.75 94.35 45.75 101.25 45.75 105.9 50.1 L106.15 50.35 106.0 49.55 107.65 52.0 108.85 53.8 Q109.1 55.2 108.75 56.4 107.4 60.65 113.4 62.4 L117.55 63.4 Q132.25 71.5 140.75 84.95 149.25 98.25 149.25 111.5 149.25 114.7 147.8 116.8 145.95 119.6 141.15 121.6 146.1 123.65 149.5 128.15 151.95 131.3 152.8 134.2 L153.5 135.45 154.6 137.2 154.15 138.65 153.1 141.6 153.15 141.95 Q153.2 142.55 153.45 142.65 L153.75 142.7 Q155.8 142.7 161.5 144.8 176.55 147.25 187.9 158.45 L192.1 163.0 194.1 165.25 Q199.05 171.3 199.05 180.0 L198.75 181.95 Q195.6 187.05 189.75 191.95 L188.85 193.05 188.4 193.5 197.1 192.45 Q205.55 192.45 208.8 194.8 210.65 196.15 210.45 197.65 212.7 195.8 214.5 194.65 217.25 192.9 220.3 192.55 227.6 189.9 238.0 191.9 L241.2 192.6 239.2 192.75 Q241.25 194.5 242.3 197.95 L243.0 200.95 Q246.35 199.6 253.65 198.75 L285.6 196.9 323.0 195.2 Q343.35 193.8 352.95 190.95 359.5 189.05 370.2 184.9 381.5 180.55 383.1 180.05 L391.35 177.25 Q395.95 175.7 399.0 175.1 404.95 173.9 411.35 175.05 412.25 174.45 414.15 173.7 408.8 170.65 404.05 166.9 L403.9 166.65 Q404.45 162.75 404.35 160.95 L408.4 163.8 412.3 166.75 412.35 166.75 Q417.25 170.6 417.85 172.55 L417.9 173.0 Q417.8 175.7 416.8 176.4 L417.0 176.45 Q416.4 177.75 412.2 178.7 L405.35 179.8 392.4 181.2 Q387.6 182.4 380.45 185.05 373.5 187.65 368.4 188.85 359.2 191.0 349.7 193.9 L337.5 197.35 Q325.85 199.95 296.0 199.95 279.8 199.95 270.95 201.5 L267.25 202.25 Q262.9 200.3 256.65 200.5 249.75 200.75 244.45 203.35 241.65 204.7 240.25 206.3 239.65 205.85 239.2 204.6 239.8 202.6 239.8 201.3 239.8 197.5 238.0 195.25 L238.0 195.05 237.85 195.05 236.35 193.7 Q233.35 191.65 228.7 192.25 224.4 192.75 221.05 195.1 L220.8 195.3 220.05 195.5 219.35 195.75 Q218.7 196.05 218.0 196.45 L217.9 196.5 217.9 196.55 213.1 199.7 209.85 202.3 Q208.2 204.2 206.5 206.75 L205.6 206.35 Q205.3 206.05 205.3 205.05 205.3 203.9 206.45 201.55 L207.6 198.75 Q207.6 197.05 206.2 196.3 203.9 195.2 197.1 195.2 188.55 195.2 182.0 198.25 L175.3 202.1 174.15 201.75 Q173.85 202.55 173.85 201.05 L175.45 199.75 175.45 199.35 181.35 195.15 Q187.75 190.65 189.7 188.7 192.9 185.45 194.9 182.4 195.75 179.4 195.75 176.25 195.75 172.25 193.75 168.55 L191.7 165.45 Q185.25 157.35 168.65 150.7 164.8 150.0 164.35 149.6 L165.4 149.45 162.3 148.35 Q160.0 147.55 158.2 146.55 L157.5 146.4 146.4 145.35 146.25 145.1 146.05 143.9 Q146.05 143.6 148.55 141.45 150.95 139.35 151.05 137.55 L150.2 135.15 Q148.95 131.3 146.7 129.1 145.7 126.75 143.15 125.0 139.55 122.5 134.05 121.85 L132.7 121.75 130.0 121.5 Q131.15 120.4 134.25 119.15 137.15 118.0 139.0 117.9 L139.25 117.8 Q145.5 115.3 145.5 111.2 145.5 98.2 137.25 84.65 131.6 75.35 123.7 70.1 L121.35 68.1 117.45 65.25 Q110.0 60.8 104.9 60.85 L102.75 61.15 Q105.6 57.25 105.6 56.75 L105.45 55.7 Q106.05 54.25 106.05 53.15 106.05 49.15 101.55 47.55 97.35 46.05 90.4 47.0 79.65 48.4 70.45 53.45 64.8 55.6 57.85 58.65 53.7 59.65 41.7 64.95 L30.4 70.05 29.05 69.75 28.45 69.15 Q28.8 67.85 29.95 66.5 L32.05 64.25 Q30.7 62.65 18.6 60.45 4.3 57.8 0.25 56.3 0.05 56.8 0.0 56.3 L0.25 56.3 Q13.7 56.05 23.25 51.65 L23.35 51.6 Q27.15 49.95 29.45 48.25 L29.65 47.85 Q31.9 45.95 31.9 44.25 L31.9 43.95 32.2 42.15 32.2 41.6 Q31.7 40.05 30.8 38.5 L30.05 36.6 28.15 32.55 32.3 33.4 33.15 34.35 40.6 36.45 41.2 36.65 42.35 37.0 43.05 37.2 43.6 37.35 45.2 37.25 Q46.4 37.25 48.1 38.15 L49.75 39.0 52.45 38.95 Q65.9 37.2 73.95 33.8 78.4 31.9 84.65 27.3 L88.0 24.15 87.7 25.05 Q94.1 20.35 100.4 18.0 111.2 13.95 130.3 12.0 L130.3 11.6 151.6 11.6 Q166.85 13.25 179.65 16.2 L201.4 21.0 202.05 21.3 202.95 21.95 202.65 21.95 Q217.55 25.05 240.45 25.05 251.3 25.05 266.95 20.75 L294.6 12.05 Q311.2 6.85 321.5 5.5 331.05 4.3 338.75 5.65 343.25 6.85 349.55 10.5 L352.55 12.3 352.0 14.5 352.1 14.8 352.55 17.0 352.95 19.65 353.0 19.95 M174.5 151.8 L174.2 151.7 174.95 152.05 174.5 151.8 M104.1 28.85 L103.55 29.0 104.1 28.8 104.1 28.85 M59.15 38.05 L55.95 38.75 Q65.05 37.95 72.5 34.85 L59.15 38.05 M157.2 140.75 L157.25 140.7 157.3 140.75 157.2 140.75 M38.2 41.75 L38.25 41.9 37.95 41.85 37.9 41.75 38.2 41.75 M191.1 198.8 L190.8 198.7 191.5 198.15 191.5 198.5 191.1 198.8" fill="#7e811f" fill-rule="evenodd" stroke="none"/>
      <path d="M340.45 24.0 L341.55 24.15 Q342.9 24.15 343.9 22.95 344.65 22.15 344.8 21.35 L345.9 21.5 347.1 21.25 347.35 21.0 347.65 17.9 Q347.65 14.9 344.2 14.25 L344.15 14.25 Q343.8 11.05 340.3 11.2 L339.2 11.35 338.35 9.55 343.4 9.45 346.0 12.5 Q348.95 15.7 350.1 18.15 L349.8 39.2 Q349.8 45.1 350.75 52.45 L350.3 57.2 Q349.2 68.85 349.2 70.05 349.2 91.4 353.85 108.5 355.05 113.0 356.55 117.05 L355.7 115.5 Q344.15 94.05 341.3 86.4 337.1 74.95 337.1 60.2 L337.7 55.65 338.25 51.05 338.1 49.4 337.55 49.4 336.55 60.8 Q335.85 68.4 335.85 72.2 335.85 85.55 340.75 96.4 L342.05 99.1 Q338.05 91.85 336.1 82.95 334.15 73.85 334.15 61.05 334.15 55.55 337.6 39.55 339.6 30.25 340.45 24.0 M174.65 17.3 L184.3 19.15 190.85 20.45 197.85 22.0 Q205.6 23.7 212.3 25.5 L241.2 29.1 241.35 29.1 Q247.35 29.1 253.85 27.95 L251.4 29.95 Q244.8 36.15 244.8 43.4 244.8 53.05 249.7 74.25 L250.8 78.9 250.45 79.05 250.4 79.1 244.2 80.85 244.05 80.85 243.7 80.85 Q232.05 80.85 223.15 76.25 L222.05 75.65 221.7 75.45 211.6 68.0 211.3 67.7 210.5 67.0 209.85 66.4 209.6 66.2 207.05 63.85 206.6 63.5 206.15 62.8 193.15 42.9 186.9 32.45 Q183.0 25.9 180.1 22.7 L174.65 17.3 M259.2 121.9 L259.0 120.8 Q260.6 126.05 262.95 131.7 265.05 136.75 267.85 142.4 L267.85 142.45 267.1 145.25 267.05 145.35 267.0 145.4 264.95 144.55 264.75 144.45 264.05 144.1 263.4 143.8 247.9 122.6 241.95 114.45 248.15 119.65 249.8 121.1 250.95 122.15 251.55 122.7 257.35 131.6 253.45 124.45 255.8 126.6 256.7 127.45 257.25 127.95 257.45 128.15 257.85 128.5 258.4 129.0 259.4 128.8 259.35 128.55 259.35 122.4 259.3 122.25 259.2 121.9 M276.4 156.8 L284.2 168.8 Q280.4 165.85 277.1 162.4 L277.4 162.25 276.7 162.45 275.3 160.4 275.9 159.75 276.4 158.35 276.4 158.25 276.4 156.8" fill="#bfc466" fill-rule="evenodd" stroke="none"/>
      <path d="M340.45 24.0 Q339.6 30.25 337.6 39.55 334.15 55.55 334.15 61.05 334.15 73.85 336.1 82.95 338.05 91.85 342.05 99.1 346.55 107.75 357.15 121.95 L361.3 127.45 Q366.35 136.55 373.4 142.45 L378.4 147.75 Q387.4 156.4 398.0 161.75 L398.9 162.55 Q398.1 163.9 396.85 164.0 392.9 164.4 391.95 164.85 391.45 165.1 391.45 165.95 391.45 167.45 391.95 168.1 392.9 169.25 395.8 169.2 394.9 171.15 395.35 172.15 396.05 173.7 400.0 173.7 L403.15 172.15 405.75 170.4 Q405.75 169.8 404.85 168.3 L404.05 166.9 Q408.8 170.65 414.15 173.7 412.25 174.45 411.35 175.05 404.95 173.9 399.0 175.1 395.95 175.7 391.35 177.25 L383.1 180.05 Q381.5 180.55 370.2 184.9 359.5 189.05 352.95 190.95 343.35 193.8 323.0 195.2 L285.6 196.9 253.65 198.75 Q246.35 199.6 243.0 200.95 L242.3 197.95 Q241.25 194.5 239.2 192.75 L241.2 192.6 238.0 191.9 Q227.6 189.9 220.3 192.55 217.25 192.9 214.5 194.65 212.7 195.8 210.45 197.65 210.65 196.15 208.8 194.8 205.55 192.45 197.1 192.45 L188.4 193.5 188.85 193.05 189.75 191.95 Q195.6 187.05 198.75 181.95 L199.05 180.0 Q199.05 171.3 194.1 165.25 L192.1 163.0 187.9 158.45 Q176.55 147.25 161.5 144.8 155.8 142.7 153.75 142.7 L153.45 142.65 Q153.2 142.55 153.15 141.95 L153.1 141.6 154.15 138.65 154.6 137.2 153.5 135.45 152.8 134.2 Q151.95 131.3 149.5 128.15 146.1 123.65 141.15 121.6 145.95 119.6 147.8 116.8 149.25 114.7 149.25 111.5 149.25 98.25 140.75 84.95 132.25 71.5 117.55 63.4 L113.4 62.4 Q107.4 60.65 108.75 56.4 109.1 55.2 108.85 53.8 L107.65 52.0 106.0 49.55 106.15 50.35 105.9 50.1 Q101.25 45.75 94.35 45.75 87.65 45.75 82.35 47.4 78.85 48.05 63.55 53.0 44.1 59.3 34.75 63.5 33.25 58.3 23.2 56.95 L19.1 56.5 Q22.2 55.35 26.35 53.0 32.75 49.4 34.3 46.95 L34.45 46.2 34.6 45.45 34.7 44.9 34.7 44.7 34.75 42.7 34.9 42.7 34.9 42.45 34.75 42.5 34.75 42.0 34.6 39.4 34.6 38.6 34.55 37.85 36.2 38.55 Q38.75 39.85 40.15 40.3 43.35 41.4 48.4 42.05 L48.75 41.65 49.75 42.0 55.4 42.0 Q71.15 39.05 79.3 34.15 L83.65 30.9 85.75 30.0 Q92.0 25.55 99.2 22.65 111.1 17.8 130.0 14.75 L135.3 14.75 137.2 14.45 137.2 14.1 155.95 14.1 174.65 17.3 180.1 22.7 Q183.0 25.9 186.9 32.45 L193.15 42.9 206.15 62.8 206.6 63.5 205.75 62.7 Q200.25 57.95 197.15 56.1 189.35 51.5 179.7 51.5 L178.65 51.6 178.75 51.65 194.35 60.45 Q202.3 65.45 205.3 70.25 207.4 73.65 210.05 76.15 L213.0 78.5 201.7 79.1 192.6 79.95 186.7 79.5 183.45 78.65 180.9 78.05 Q179.65 78.05 178.9 78.65 178.0 79.3 178.0 80.55 178.0 81.55 182.8 84.75 188.3 88.35 192.45 88.35 199.3 88.35 201.5 90.15 202.65 91.05 203.4 94.45 204.2 97.85 206.55 99.85 210.25 102.9 219.25 104.75 L225.95 118.4 Q231.25 128.1 234.7 128.1 235.6 128.1 236.0 127.7 L236.4 127.25 236.55 125.85 235.5 123.6 234.4 121.8 Q234.4 116.7 239.05 112.4 L241.95 114.45 247.9 122.6 263.4 143.8 Q257.65 141.0 254.0 137.45 250.7 134.25 247.75 128.7 247.3 128.9 246.85 129.2 L246.55 129.45 Q246.55 130.8 245.65 132.6 250.8 143.5 255.65 149.7 264.3 160.85 273.7 160.85 L275.3 160.4 276.7 162.45 277.4 162.25 277.1 162.4 Q280.4 165.85 284.2 168.8 L276.4 156.8 276.4 155.65 276.4 154.7 Q276.4 152.45 275.6 147.25 274.8 142.15 274.8 139.05 L274.5 131.0 Q274.0 127.5 271.55 127.4 269.2 127.3 269.2 129.75 268.65 137.85 268.0 142.0 L267.95 141.95 267.95 142.05 267.85 142.4 Q265.05 136.75 262.95 131.7 260.6 126.05 259.0 120.8 L259.2 121.9 Q258.7 119.75 258.75 117.75 L258.85 116.05 Q259.35 112.55 261.55 110.4 265.05 112.55 271.55 119.6 L277.45 126.15 Q279.4 126.15 281.75 116.85 283.75 108.75 283.75 105.75 283.75 103.15 281.75 100.3 279.7 97.5 279.7 96.65 279.7 96.1 283.7 90.9 287.65 85.7 287.65 82.8 287.65 77.25 294.0 72.55 L298.3 69.5 Q300.3 68.0 300.3 66.9 L300.05 65.7 299.8 65.25 297.15 64.95 Q294.1 64.95 286.2 68.55 278.2 72.5 276.55 73.05 L271.75 73.05 270.9 71.65 Q270.3 70.65 270.3 69.75 270.3 69.25 272.25 65.1 L274.2 60.9 Q274.2 57.5 277.65 54.6 L278.35 54.0 279.7 53.35 Q282.65 52.0 287.85 49.75 291.55 48.0 291.55 47.3 291.55 40.35 282.7 46.15 277.5 49.55 272.25 55.1 266.05 60.25 266.05 62.25 L266.05 62.5 Q263.1 67.35 259.35 71.65 255.0 76.6 250.8 78.9 L249.7 74.25 Q244.8 53.05 244.8 43.4 244.8 36.15 251.4 29.95 L253.85 27.95 261.9 26.05 282.35 19.3 Q309.35 10.3 338.35 9.55 L339.2 11.35 Q336.4 11.95 336.4 14.9 L336.7 17.75 Q337.35 20.2 339.05 20.4 L338.95 21.45 Q338.95 23.5 340.45 24.0 M326.2 23.55 Q328.6 22.05 328.6 20.15 328.6 18.45 326.9 17.65 325.4 16.9 323.2 17.2 317.8 17.95 317.8 21.95 L317.95 23.5 Q318.65 24.9 321.55 24.9 324.0 24.9 326.2 23.55 M355.15 159.9 Q356.2 159.0 356.2 157.55 356.2 152.5 351.55 153.5 349.75 153.9 348.35 155.1 L347.65 155.85 Q347.25 154.5 345.9 153.95 L341.65 154.05 Q335.5 156.1 335.5 162.45 L335.5 164.0 Q336.1 165.35 339.3 165.35 342.7 165.35 345.45 161.9 L347.2 159.3 347.2 159.35 Q348.2 160.85 351.85 160.85 354.0 160.85 355.15 159.9 M314.2 46.5 Q314.75 47.85 317.5 47.85 319.95 47.85 321.25 46.0 322.3 44.55 322.3 42.5 322.3 38.1 318.25 40.15 314.2 42.15 314.2 45.0 L314.2 46.5 M274.35 80.1 Q271.0 82.4 265.35 88.35 261.55 92.35 259.35 95.1 261.4 88.8 263.55 85.8 267.55 80.2 274.2 79.8 L274.35 80.1 M226.1 92.8 Q217.45 87.05 216.25 86.55 219.3 86.85 222.15 87.65 L224.25 88.35 223.7 88.15 226.05 91.35 228.2 94.2 226.55 93.1 226.1 92.8 M200.15 129.9 Q196.3 130.35 196.3 133.4 196.3 135.9 198.4 135.9 200.85 135.9 202.3 135.1 203.95 134.2 203.95 132.5 203.95 129.45 200.15 129.9 M132.55 31.2 Q132.55 32.1 132.7 32.25 L132.85 32.55 151.9 34.65 Q153.4 34.65 154.5 33.65 155.65 32.65 155.65 31.1 155.5 29.8 154.35 28.5 152.15 25.85 147.45 25.85 142.4 25.85 137.5 27.6 132.55 29.35 132.55 31.2 M104.1 28.85 L104.1 28.8 103.55 29.0 104.1 28.85 M38.2 41.75 L37.9 41.75 37.95 41.85 38.25 41.9 38.2 41.75 M157.2 140.75 L157.3 140.75 157.25 140.7 157.2 140.75" fill="#dee184" fill-rule="evenodd" stroke="none"/>
      <path d="M326.2 23.55 Q324.0 24.9 321.55 24.9 318.65 24.9 317.95 23.5 L317.8 21.95 Q317.8 17.95 323.2 17.2 325.4 16.9 326.9 17.65 328.6 18.45 328.6 20.15 328.6 22.05 326.2 23.55 M355.15 159.9 Q354.0 160.85 351.85 160.85 348.2 160.85 347.2 159.35 L347.2 159.3 345.45 161.9 Q342.7 165.35 339.3 165.35 336.1 165.35 335.5 164.0 L335.5 162.45 Q335.5 156.1 341.65 154.05 L345.9 153.95 Q347.25 154.5 347.65 155.85 L348.35 155.1 Q349.75 153.9 351.55 153.5 356.2 152.5 356.2 157.55 356.2 159.0 355.15 159.9 M314.2 46.5 L314.2 45.0 Q314.2 42.15 318.25 40.15 322.3 38.1 322.3 42.5 322.3 44.55 321.25 46.0 319.95 47.85 317.5 47.85 314.75 47.85 314.2 46.5 M250.8 78.9 Q255.0 76.6 259.35 71.65 263.1 67.35 266.05 62.5 L266.05 62.25 Q266.05 60.25 272.25 55.1 277.5 49.55 282.7 46.15 291.55 40.35 291.55 47.3 291.55 48.0 287.85 49.75 282.65 52.0 279.7 53.35 L278.35 54.0 277.65 54.6 Q274.2 57.5 274.2 60.9 L272.25 65.1 Q270.3 69.25 270.3 69.75 270.3 70.65 270.9 71.65 L271.75 73.05 276.55 73.05 Q278.2 72.5 286.2 68.55 294.1 64.95 297.15 64.95 L299.8 65.25 300.05 65.7 300.3 66.9 Q300.3 68.0 298.3 69.5 L294.0 72.55 Q287.65 77.25 287.65 82.8 287.65 85.7 283.7 90.9 279.7 96.1 279.7 96.65 279.7 97.5 281.75 100.3 283.75 103.15 283.75 105.75 283.75 108.75 281.75 116.85 279.4 126.15 277.45 126.15 L271.55 119.6 Q265.05 112.55 261.55 110.4 259.35 112.55 258.85 116.05 L258.75 117.75 258.1 114.95 Q258.1 109.85 251.55 83.3 L250.5 79.05 250.45 79.05 250.8 78.9 M268.0 142.0 Q268.65 137.85 269.2 129.75 269.2 127.3 271.55 127.4 274.0 127.5 274.5 131.0 L274.8 139.05 Q274.8 142.15 275.6 147.25 276.4 152.45 276.4 154.7 L276.4 155.65 272.2 149.6 268.0 142.0 M275.3 160.4 L273.7 160.85 Q264.3 160.85 255.65 149.7 250.8 143.5 245.65 132.6 246.55 130.8 246.55 129.45 L246.85 129.2 Q247.3 128.9 247.75 128.7 250.7 134.25 254.0 137.45 257.65 141.0 263.4 143.8 L264.05 144.1 264.75 144.45 264.3 144.25 Q266.9 148.3 271.2 153.85 L275.9 159.75 275.3 160.4 M241.95 114.45 L239.05 112.4 Q234.4 116.7 234.4 121.8 L235.5 123.6 236.55 125.85 236.4 127.25 236.0 127.7 Q235.6 128.1 234.7 128.1 231.25 128.1 225.95 118.4 L219.25 104.75 Q210.25 102.9 206.55 99.85 204.2 97.85 203.4 94.45 202.65 91.05 201.5 90.15 199.3 88.35 192.45 88.35 188.3 88.35 182.8 84.75 178.0 81.55 178.0 80.55 178.0 79.3 178.9 78.65 179.65 78.05 180.9 78.05 L183.45 78.65 186.7 79.5 192.6 79.95 201.7 79.1 213.0 78.5 210.05 76.15 Q207.4 73.65 205.3 70.25 202.3 65.45 194.35 60.45 L178.75 51.65 178.65 51.6 179.7 51.5 Q189.35 51.5 197.15 56.1 200.25 57.95 205.75 62.7 209.45 71.0 222.15 87.65 219.3 86.85 216.25 86.55 217.45 87.05 226.1 92.8 L231.9 100.1 Q239.55 109.6 248.15 119.65 L241.95 114.45 M274.35 80.1 L274.2 79.8 Q267.55 80.2 263.55 85.8 261.4 88.8 259.35 95.1 261.55 92.35 265.35 88.35 271.0 82.4 274.35 80.1 M200.15 129.9 Q203.95 129.45 203.95 132.5 203.95 134.2 202.3 135.1 200.85 135.9 198.4 135.9 196.3 135.9 196.3 133.4 196.3 130.35 200.15 129.9 M257.7 126.3 L257.65 125.1 258.6 127.55 257.7 126.3 M132.55 31.2 Q132.55 29.35 137.5 27.6 142.4 25.85 147.45 25.85 152.15 25.85 154.35 28.5 155.5 29.8 155.65 31.1 155.65 32.65 154.5 33.65 153.4 34.65 151.9 34.65 L132.85 32.55 132.7 32.25 Q132.55 32.1 132.55 31.2" fill="#a8631e" fill-rule="evenodd" stroke="none"/>
      <path d="M250.45 79.05 L250.5 79.05 251.55 83.3 Q258.1 109.85 258.1 114.95 L258.75 117.75 Q258.7 119.75 259.2 121.9 L259.3 122.25 259.35 122.4 259.35 128.55 259.4 128.8 258.4 129.0 257.85 128.5 257.45 128.15 257.25 127.95 256.7 127.45 255.8 126.6 253.45 124.45 251.55 122.7 250.95 122.15 249.8 121.1 248.15 119.65 Q239.55 109.6 231.9 100.1 L226.1 92.8 226.55 93.1 228.2 94.2 235.6 99.0 236.8 98.8 237.45 98.35 Q238.45 97.5 240.6 96.95 239.25 96.4 231.65 91.95 L229.65 90.8 229.4 90.65 224.45 88.4 224.25 88.35 222.15 87.65 Q209.45 71.0 205.75 62.7 L206.6 63.5 207.05 63.85 209.6 66.2 209.85 66.4 210.5 67.0 211.3 67.7 211.6 68.0 221.7 75.45 222.05 75.65 223.15 76.25 Q232.05 80.85 243.7 80.85 L244.05 80.85 244.2 80.85 250.4 79.1 250.45 79.05 M267.85 142.4 L267.95 142.05 267.95 141.95 268.0 142.0 272.2 149.6 276.4 155.65 276.4 156.8 276.4 158.25 276.4 158.35 275.9 159.75 271.2 153.85 Q266.9 148.3 264.3 144.25 L264.75 144.45 264.95 144.55 267.0 145.4 267.05 145.35 267.1 145.25 267.85 142.45 267.85 142.4 M257.7 126.3 L258.6 127.55 257.65 125.1 257.7 126.3" fill="#8f4610" fill-rule="evenodd" stroke="none"/>
      <path d="M224.25 88.35 L224.45 88.4 229.4 90.65 229.65 90.8 231.65 91.95 Q239.25 96.4 240.6 96.95 238.45 97.5 237.45 98.35 L236.8 98.8 235.6 99.0 228.2 94.2 226.05 91.35 223.7 88.15 224.25 88.35" fill="#aeb05a" fill-rule="evenodd" stroke="none"/>
    </g>
  </defs>
</svg>
