<?xml version="1.0" encoding="UTF-8" standalone="no"?>
<svg xmlns:ffdec="https://www.free-decompiler.com/flash" xmlns:xlink="http://www.w3.org/1999/xlink" ffdec:objectType="frame" height="211.7px" width="488.3px" xmlns="http://www.w3.org/2000/svg">
  <g transform="matrix(1.0, 0.0, 0.0, 1.0, 92.25, 9.9)">
    <use ffdec:characterId="93" ffdec:characterName="a_EB_GoblinFlagFrame02" height="204.9" transform="matrix(1.0, 0.0, 0.0, 1.0, -67.5, -4.8)" width="462.95" xlink:href="#sprite0"/>
  </g>
  <defs>
    <g id="sprite0" transform="matrix(1.0, 0.0, 0.0, 1.0, 0.0, 0.0)">
      <use ffdec:characterId="92" height="204.9" transform="matrix(1.0, 0.0, 0.0, 1.0, 0.0, 0.0)" width="462.95" xlink:href="#shape0"/>
    </g>
    <g id="shape0" transform="matrix(1.0, 0.0, 0.0, 1.0, 0.0, 0.0)">
      <path d="M329.7 10.3 L331.2 9.15 Q333.5 7.95 338.4 7.95 L342.55 7.1 Q346.0 6.2 348.9 6.2 L350.55 5.15 352.5 3.75 353.6 4.75 354.2 5.4 Q354.2 6.3 353.8 6.8 L352.95 7.8 Q355.45 6.45 361.75 3.55 368.85 0.3 369.65 0.3 L376.5 0.0 Q381.5 0.45 381.5 4.65 L381.3 5.7 381.35 6.2 Q381.35 8.25 374.3 8.25 373.2 8.25 370.15 7.25 L369.15 6.9 367.95 6.8 Q365.95 6.8 361.9 9.35 358.6 11.4 353.4 11.8 L352.85 11.8 345.0 14.6 344.05 14.2 Q343.9 14.0 343.85 13.25 L342.1 14.1 Q341.15 14.6 340.3 15.2 335.4 18.5 332.75 18.5 L332.65 18.5 332.2 16.2 331.75 14.35 331.8 14.15 331.45 13.35 Q330.7 11.1 329.7 10.3 M380.15 158.75 L380.3 158.5 Q381.45 157.65 382.35 157.3 384.35 156.5 384.6 158.7 L384.65 158.9 384.6 161.4 384.2 164.6 384.25 164.75 384.3 164.8 384.35 164.85 385.15 166.25 Q386.05 167.75 386.05 168.35 L383.45 170.1 383.1 170.3 Q380.75 171.65 380.3 171.65 376.65 171.65 375.8 170.35 L375.65 170.1 Q375.2 169.1 376.1 167.15 373.2 167.2 372.25 166.05 371.75 165.4 371.75 163.9 371.75 163.05 372.25 162.8 L377.15 161.95 378.15 161.65 379.2 160.5 379.2 160.45 380.15 158.75 M395.05 168.0 L400.55 169.75 Q404.55 171.0 406.5 171.0 408.15 171.0 409.85 170.1 411.55 169.2 411.9 169.2 412.85 169.2 414.3 170.85 415.65 172.35 415.65 173.1 L416.3 172.6 Q416.85 172.25 417.75 172.25 418.75 172.25 420.35 173.25 422.25 174.45 422.45 176.0 L423.6 175.3 Q424.7 174.6 425.6 174.6 427.1 174.6 427.35 176.1 L427.35 178.2 427.5 178.5 Q427.55 178.5 429.05 177.85 430.05 177.45 430.95 177.45 432.35 177.45 433.2 177.9 L436.5 178.35 Q437.85 178.35 438.05 178.85 438.35 179.6 441.9 180.45 442.4 181.95 441.2 183.05 442.35 182.75 443.95 183.8 L445.65 184.95 Q446.75 184.95 447.95 184.0 449.15 183.05 450.0 183.05 451.0 183.05 453.6 185.75 L456.9 188.85 Q459.45 188.65 461.4 190.65 462.95 192.3 462.95 193.5 462.95 196.05 459.65 196.05 458.25 196.05 447.75 192.55 437.35 189.1 435.0 189.15 433.7 188.05 433.4 187.2 L433.1 185.55 Q429.6 184.55 418.0 183.35 411.25 182.65 409.05 179.0 407.75 176.9 401.05 175.35 L396.25 173.9 396.7 173.2 396.8 173.25 398.05 172.95 398.25 172.65 398.4 171.15 398.35 170.95 395.55 168.35 395.05 168.0 M324.45 12.05 L324.45 12.2 324.5 12.2 325.15 12.35 326.65 13.05 327.15 13.5 327.95 15.55 327.95 15.85 327.65 18.95 327.4 19.2 326.2 19.45 325.1 19.3 Q324.95 20.1 324.2 20.9 323.2 22.1 321.85 22.1 L320.75 21.95 Q319.25 21.45 319.25 19.4 L319.35 18.35 Q317.65 18.15 317.0 15.7 L316.7 12.85 Q316.7 10.75 318.15 9.85 318.7 9.45 319.5 9.3 L320.6 9.15 Q324.0 9.0 324.45 12.05 M437.75 185.25 Q439.9 185.15 440.25 184.65 L441.05 183.2 440.6 183.2 438.0 184.95 437.75 185.25" fill="#444a28" fill-rule="evenodd" stroke="none"/>
      <path d="M325.15 12.35 L324.5 12.2 324.45 12.2 324.45 12.05 325.15 12.35 M318.15 9.85 Q316.7 10.75 316.7 12.85 L317.0 15.7 Q317.65 18.15 319.35 18.35 L319.25 19.4 Q319.25 21.45 320.75 21.95 L321.85 22.1 Q323.2 22.1 324.2 20.9 324.95 20.1 325.1 19.3 L326.2 19.45 327.4 19.2 327.65 18.95 327.95 15.85 327.95 15.55 328.15 16.0 Q329.4 18.8 329.45 21.5 329.45 23.35 329.95 27.2 L330.45 31.55 Q330.45 36.1 327.55 52.7 324.6 69.35 324.6 86.15 324.6 91.6 328.05 101.6 329.85 106.75 332.15 111.8 L334.0 115.8 337.4 122.2 342.6 130.75 Q336.05 125.05 330.35 121.05 L330.15 120.2 328.85 119.8 327.6 117.75 322.45 109.0 Q319.35 103.75 318.2 100.35 315.85 93.45 314.35 83.6 L314.5 84.1 315.95 89.35 Q316.45 91.65 317.4 94.4 L317.3 94.0 318.15 96.3 318.25 96.7 320.5 102.15 Q323.55 109.45 327.45 116.85 L327.75 116.45 324.15 108.75 Q320.85 101.7 320.85 100.55 320.85 96.65 317.2 80.55 L316.3 76.45 Q313.55 63.55 313.55 58.1 L313.9 53.75 Q314.2 50.0 314.0 48.05 L313.1 48.05 Q312.75 48.2 312.75 49.2 L312.7 53.1 311.85 53.1 311.85 61.2 312.05 62.25 312.0 62.85 Q309.75 49.25 307.65 35.05 L304.9 15.7 Q305.25 14.95 305.25 14.0 L305.25 13.55 304.7 12.1 304.35 11.75 303.75 6.45 Q312.7 8.3 318.15 9.85 M327.15 13.5 L326.65 13.05 327.1 13.25 327.15 13.5 M135.3 21.55 L149.8 24.05 150.5 24.2 151.15 24.35 151.2 24.35 Q168.9 28.05 181.8 29.45 L183.1 29.9 185.25 30.15 Q191.25 30.15 202.3 26.85 L209.25 24.6 215.65 22.45 Q212.6 26.6 212.6 31.55 212.6 35.1 219.35 61.75 L223.05 76.4 219.65 78.05 219.5 78.1 218.4 78.4 217.25 78.6 217.15 78.6 Q212.3 79.15 208.0 78.8 L205.1 78.45 Q201.95 77.95 199.1 76.95 L199.1 76.9 198.95 76.85 197.55 76.3 Q192.6 74.25 186.1 69.0 178.8 60.4 170.25 49.65 166.55 45.0 161.1 40.15 156.7 36.25 147.75 29.3 143.6 26.05 135.3 21.55 M231.65 111.75 L232.8 115.35 Q234.05 118.55 240.85 132.7 L240.45 135.7 240.05 138.15 239.6 139.95 239.45 140.45 239.4 140.5 239.05 140.4 238.8 140.3 238.7 140.25 238.7 140.3 238.1 140.1 236.9 139.65 236.7 139.6 232.2 131.9 232.15 131.8 216.05 113.35 214.9 112.0 216.6 113.2 224.05 119.05 229.35 123.5 230.05 124.1 231.2 125.1 232.15 124.75 232.1 124.5 232.1 118.35 Q231.25 115.1 231.6 112.1 L231.65 111.75" fill="#bfc466" fill-rule="evenodd" stroke="none"/>
      <path d="M332.65 18.5 Q333.35 22.5 333.35 26.25 L332.3 45.75 Q332.3 49.25 330.9 55.45 329.25 62.5 329.0 65.4 L328.1 76.6 327.6 84.35 Q327.6 86.7 331.85 100.4 336.05 114.05 338.1 118.35 341.25 125.05 349.25 133.8 353.3 138.25 364.8 149.45 L380.15 158.75 379.2 160.45 379.2 160.5 378.15 161.65 Q368.7 157.2 364.95 154.2 355.7 147.35 351.1 143.6 346.75 140.1 343.75 137.05 L341.1 134.15 336.3 128.2 335.85 127.65 330.85 122.2 331.05 122.6 331.05 122.65 331.1 122.7 331.15 122.75 331.15 122.8 329.25 120.8 328.85 119.8 330.15 120.2 330.35 121.05 Q336.05 125.05 342.6 130.75 L337.4 122.2 334.0 115.8 332.15 111.8 Q329.85 106.75 328.05 101.6 324.6 91.6 324.6 86.15 324.6 69.35 327.55 52.7 330.45 36.1 330.45 31.55 L329.95 27.2 Q329.45 23.35 329.45 21.5 329.4 18.8 328.15 16.0 L327.95 15.55 327.15 13.5 327.1 13.25 326.65 13.05 325.15 12.35 324.45 12.05 Q324.0 9.0 320.6 9.15 L319.5 9.3 Q318.7 9.45 318.15 9.85 312.7 8.3 303.75 6.45 L298.35 5.4 274.65 5.4 Q258.0 7.4 224.7 19.25 L215.65 22.45 209.25 24.6 202.3 26.85 Q191.25 30.15 185.25 30.15 L183.1 29.9 181.8 29.45 Q168.9 28.05 151.2 24.35 L151.15 24.35 150.5 24.2 149.8 24.05 135.3 21.55 114.1 19.15 Q111.15 20.55 108.65 20.55 99.1 20.55 93.55 17.65 74.25 20.8 54.25 30.2 47.1 33.55 33.55 40.15 21.8 45.4 12.0 47.45 13.35 48.45 13.7 49.6 L13.8 51.65 Q13.8 55.05 8.65 60.75 L3.45 66.5 Q3.45 67.15 5.65 73.3 7.95 79.65 8.1 81.95 L8.5 82.1 Q10.9 80.45 12.5 77.4 14.65 73.25 15.35 72.35 20.1 66.45 37.5 65.1 36.65 58.85 40.1 53.05 46.95 41.55 69.95 41.55 78.05 41.55 81.1 44.05 82.65 45.35 82.65 47.25 82.65 47.85 80.65 51.05 78.6 54.45 77.6 54.95 103.45 68.0 114.7 80.7 126.2 93.6 126.2 110.15 126.2 113.3 121.5 117.9 117.1 122.1 113.9 122.45 L121.85 129.15 Q127.15 133.7 129.65 136.95 130.5 138.0 130.1 140.75 130.5 143.25 135.15 144.3 139.9 145.3 142.05 146.1 144.75 147.05 148.85 149.45 164.85 158.75 169.9 163.3 177.6 170.25 177.6 178.85 177.6 188.35 166.9 191.0 171.3 192.45 175.5 194.55 182.25 197.9 182.9 200.4 185.35 196.25 187.05 194.65 190.15 191.8 194.45 191.3 200.1 188.4 208.65 188.4 216.35 188.4 218.1 190.75 218.65 191.5 218.6 192.45 L218.4 193.55 Q218.4 195.75 218.2 196.3 217.6 197.6 214.8 200.1 216.95 199.4 220.9 198.8 L237.6 197.9 256.5 197.9 Q272.9 195.85 284.6 193.05 295.7 190.45 307.45 185.7 321.95 179.85 327.85 178.05 341.7 173.75 361.8 170.85 L374.5 170.35 375.8 170.35 Q376.65 171.65 380.3 171.65 380.75 171.65 383.1 170.3 L393.35 170.9 390.75 169.05 384.3 164.8 384.25 164.75 384.2 164.6 384.6 161.4 387.7 163.25 Q392.4 166.1 395.05 168.0 L395.55 168.35 398.35 170.95 398.4 171.15 398.25 172.65 398.05 172.95 396.8 173.25 396.7 173.2 396.25 173.9 396.05 174.15 Q395.5 174.85 393.6 174.85 383.95 174.3 367.4 174.3 351.95 174.3 337.7 178.35 328.85 180.85 314.25 187.2 299.25 193.75 291.45 196.05 277.95 200.1 263.7 200.1 L263.05 200.1 257.45 201.35 237.45 201.35 Q229.35 200.5 220.1 202.6 212.3 204.9 211.5 204.9 L210.1 204.85 209.85 204.75 209.6 204.6 Q209.3 204.45 209.3 203.55 L212.3 199.05 Q215.25 194.75 215.25 193.95 215.25 192.35 214.5 192.0 L208.55 191.55 207.75 191.55 Q206.85 190.35 205.0 190.05 201.9 189.55 197.25 191.6 192.7 193.6 189.45 196.75 185.9 200.15 185.9 203.15 L185.85 204.9 185.55 204.85 183.35 202.7 182.6 202.05 181.15 200.1 Q176.6 194.8 168.95 193.85 L167.2 193.15 Q159.2 190.05 152.95 189.75 L158.55 187.95 169.35 184.95 Q172.4 183.15 174.4 179.05 L174.9 178.1 174.95 175.65 Q174.95 169.4 161.8 160.55 151.5 153.6 140.9 149.45 127.95 144.4 126.9 141.95 L126.6 139.45 Q126.45 137.65 124.8 135.6 121.35 131.25 118.15 128.65 113.4 124.7 106.8 122.1 107.8 120.8 111.25 119.4 113.25 118.55 114.8 118.45 L119.45 116.7 Q122.65 114.9 123.3 113.8 123.75 113.0 123.75 110.4 123.75 93.9 111.95 81.7 101.6 71.0 74.3 56.4 L78.4 52.3 Q79.5 51.05 79.5 48.75 79.5 46.8 78.75 46.2 76.9 44.6 69.9 44.6 45.8 44.6 41.4 53.55 40.0 56.45 40.6 60.55 L41.55 65.45 Q41.55 66.05 38.85 66.5 L32.35 67.6 Q21.95 69.85 17.25 75.75 11.55 83.0 9.75 87.75 L8.8 88.05 Q5.7 84.5 2.6 75.7 0.0 68.25 0.0 66.35 L5.7 59.75 Q11.4 52.95 11.4 51.45 11.4 50.25 9.2 48.45 L6.75 46.2 Q8.2 45.5 19.35 42.45 30.3 39.4 31.6 38.7 36.7 35.85 39.8 34.35 43.6 32.55 49.5 30.3 54.5 28.4 63.15 24.2 71.6 20.15 75.95 18.55 L78.05 17.85 97.65 15.15 Q98.05 15.15 100.05 16.2 103.15 17.25 108.75 17.25 112.05 17.25 119.4 15.65 L119.0 16.05 Q133.7 17.4 148.65 20.95 L166.2 24.9 Q175.95 26.7 185.15 26.7 186.4 26.7 215.7 16.95 250.1 6.25 274.95 2.35 L274.95 2.05 298.7 2.05 Q316.55 5.55 321.45 7.05 325.55 8.35 328.1 9.95 328.95 9.75 329.7 10.3 330.7 11.1 331.45 13.35 L331.8 14.15 331.75 14.35 332.2 16.2 332.65 18.5 M312.0 62.85 L312.05 62.25 311.85 61.2 311.85 53.1 312.7 53.1 312.75 49.2 Q312.75 48.2 313.1 48.05 L314.0 48.05 Q314.2 50.0 313.9 53.75 L313.55 58.1 Q313.55 63.55 316.3 76.45 L317.2 80.55 Q320.85 96.65 320.85 100.55 320.85 101.7 324.15 108.75 L327.75 116.45 327.45 116.85 Q323.55 109.45 320.5 102.15 L318.25 96.7 318.15 96.3 317.3 94.0 317.4 94.4 Q316.45 91.65 315.95 89.35 L314.5 84.1 Q311.85 73.7 311.85 65.15 L312.0 62.85" fill="#7e811f" fill-rule="evenodd" stroke="none"/>
      <path d="M312.0 62.85 L311.85 65.15 Q311.85 73.7 314.5 84.1 L314.35 83.6 Q315.85 93.45 318.2 100.35 319.35 103.75 322.45 109.0 L327.6 117.75 328.85 119.8 329.25 120.8 331.15 122.8 331.15 122.75 336.3 128.2 341.1 134.15 343.75 137.05 Q346.75 140.1 351.1 143.6 355.7 147.35 364.95 154.2 368.7 157.2 378.15 161.65 L377.15 161.95 372.25 162.8 Q371.75 163.05 371.75 163.9 371.75 165.4 372.25 166.05 373.2 167.2 376.1 167.15 375.2 169.1 375.65 170.1 L375.8 170.35 374.5 170.35 361.8 170.85 Q341.7 173.75 327.85 178.05 321.95 179.85 307.45 185.7 295.7 190.45 284.6 193.05 272.9 195.85 256.5 197.9 L237.6 197.9 220.9 198.8 Q216.95 199.4 214.8 200.1 217.6 197.6 218.2 196.3 218.4 195.75 218.4 193.55 L218.6 192.45 Q218.65 191.5 218.1 190.75 216.35 188.4 208.65 188.4 200.1 188.4 194.45 191.3 190.15 191.8 187.05 194.65 185.35 196.25 182.9 200.4 182.25 197.9 175.5 194.55 171.3 192.45 166.9 191.0 177.6 188.35 177.6 178.85 177.6 170.25 169.9 163.3 164.85 158.75 148.85 149.45 144.75 147.05 142.05 146.1 139.9 145.3 135.15 144.3 130.5 143.25 130.1 140.75 130.5 138.0 129.65 136.95 127.15 133.7 121.85 129.15 L113.9 122.45 Q117.1 122.1 121.5 117.9 126.2 113.3 126.2 110.15 126.2 93.6 114.7 80.7 103.45 68.0 77.6 54.95 78.6 54.45 80.65 51.05 82.65 47.85 82.65 47.25 82.65 45.35 81.1 44.05 78.05 41.55 69.95 41.55 46.95 41.55 40.1 53.05 36.65 58.85 37.5 65.1 20.1 66.45 15.35 72.35 14.65 73.25 12.5 77.4 10.9 80.45 8.5 82.1 L8.1 81.95 Q7.95 79.65 5.65 73.3 3.45 67.15 3.45 66.5 L8.65 60.75 Q13.8 55.05 13.8 51.65 L13.7 49.6 Q13.35 48.45 12.0 47.45 21.8 45.4 33.55 40.15 47.1 33.55 54.25 30.2 74.25 20.8 93.55 17.65 99.1 20.55 108.65 20.55 111.15 20.55 114.1 19.15 L135.3 21.55 Q143.6 26.05 147.75 29.3 156.7 36.25 161.1 40.15 166.55 45.0 170.25 49.65 178.8 60.4 186.1 69.0 L186.0 68.95 186.0 68.9 184.6 67.8 Q176.7 61.1 172.75 59.1 165.3 55.4 156.1 56.5 L155.1 56.7 155.2 56.75 Q168.3 62.8 170.1 63.75 177.65 67.85 180.5 72.35 182.55 75.5 185.05 77.7 L187.85 79.7 Q181.4 80.5 177.1 81.6 L168.4 83.45 162.8 83.7 159.7 83.2 157.25 82.9 Q156.05 83.05 155.35 83.7 154.5 84.45 154.5 85.7 154.5 86.7 159.05 89.4 164.3 92.35 168.25 91.9 174.8 91.1 176.9 92.65 178.0 93.45 178.7 96.75 179.45 100.05 181.7 101.8 185.25 104.4 193.85 105.25 L200.2 118.15 Q205.3 127.25 208.55 126.85 209.45 126.75 209.8 126.3 L210.2 125.8 210.35 124.4 Q210.35 123.95 209.35 122.25 L208.3 120.6 Q208.3 115.5 212.7 110.65 213.65 111.15 214.9 112.0 L216.05 113.35 232.15 131.8 232.2 131.9 236.7 139.6 Q230.7 137.35 227.0 134.0 223.85 131.2 221.0 126.0 L220.15 126.6 219.85 126.85 Q219.85 128.2 219.0 130.1 223.95 140.45 228.55 146.1 236.8 156.25 245.75 155.2 247.95 154.95 248.35 152.3 L248.35 148.75 Q248.35 146.5 247.6 141.4 246.8 136.35 246.8 133.25 L246.55 125.25 Q246.05 121.8 243.7 122.0 241.5 122.15 241.5 124.6 L240.95 131.85 240.9 132.05 240.85 132.7 Q234.05 118.55 232.8 115.35 L231.65 111.75 231.7 111.55 231.9 110.55 232.0 110.25 232.0 110.2 Q232.7 107.85 234.2 106.1 237.5 107.85 243.7 114.2 L249.35 120.05 Q251.2 119.85 253.45 110.3 255.35 101.95 255.35 98.95 255.35 96.35 253.45 93.75 251.5 91.15 251.5 90.3 251.5 89.75 255.3 84.1 259.1 78.45 259.1 75.55 259.1 70.0 265.15 64.6 L269.25 61.05 Q271.15 59.35 271.15 58.25 L270.9 57.05 270.65 56.65 Q269.6 56.45 268.15 56.65 265.25 57.0 257.7 61.5 250.05 66.35 248.5 67.05 L243.9 67.6 243.1 66.3 Q242.55 65.4 242.55 64.5 242.55 64.0 244.4 59.6 L246.25 55.2 Q246.25 51.8 249.55 48.5 L250.2 47.8 251.5 47.0 259.25 42.5 Q262.8 40.35 262.8 39.65 262.8 32.7 254.35 39.5 249.4 43.45 244.4 49.6 238.5 55.45 238.5 57.45 L238.5 57.7 Q235.65 62.9 232.1 67.6 227.9 73.05 223.95 75.8 L223.05 76.4 219.35 61.75 Q212.6 35.1 212.6 31.55 212.6 26.6 215.65 22.45 L224.7 19.25 Q258.0 7.4 274.65 5.4 L298.35 5.4 303.75 6.45 304.35 11.75 Q303.05 10.65 299.9 11.2 294.5 12.15 294.5 15.0 294.5 16.1 294.95 16.65 296.15 18.05 300.0 18.05 302.8 18.05 304.2 16.65 L304.9 15.7 307.65 35.05 Q309.75 49.25 312.0 62.85 M326.85 157.7 Q332.75 157.7 332.75 153.65 L332.6 152.55 332.45 152.25 326.9 152.5 Q324.95 153.05 324.0 153.9 L323.7 152.1 Q319.95 150.8 315.3 153.55 311.1 156.05 311.1 158.1 311.1 159.05 311.85 160.6 312.95 162.9 315.0 162.9 318.35 162.9 321.3 158.9 L323.15 156.05 Q323.2 156.65 323.55 156.95 324.4 157.7 326.85 157.7 M383.1 170.3 L383.45 170.1 386.05 168.35 Q386.05 167.75 385.15 166.25 L384.35 164.85 384.3 164.8 390.75 169.05 393.35 170.9 383.1 170.3 M290.25 39.95 Q290.25 40.95 290.5 41.3 291.25 42.45 294.0 42.45 295.5 42.45 297.0 41.2 298.55 39.9 298.55 38.6 298.55 33.8 294.4 35.7 292.85 36.4 291.55 37.75 290.25 39.1 290.25 39.95 M246.4 74.35 Q243.2 77.05 237.8 83.65 L232.1 91.05 Q234.05 84.55 236.1 81.3 239.9 75.25 246.25 74.1 L246.4 74.35 M197.15 87.95 L200.05 92.25 200.15 92.4 Q192.1 87.75 190.95 87.4 L197.15 87.95 M125.9 37.1 L129.95 36.85 134.25 36.15 134.55 34.8 133.3 32.4 Q132.1 30.6 130.65 30.2 L121.35 30.3 120.0 30.35 Q116.55 30.45 115.0 31.15 113.4 31.8 113.4 33.2 113.4 34.6 114.7 35.4 117.5 37.1 125.9 37.1 M172.35 131.6 Q172.35 132.75 172.5 133.05 173.1 134.3 175.55 134.3 177.75 134.3 179.1 132.9 180.15 131.8 180.15 130.5 180.15 127.9 176.25 128.35 172.35 128.8 172.35 131.6" fill="#dee184" fill-rule="evenodd" stroke="none"/>
      <path d="M331.15 122.75 L331.1 122.7 331.05 122.65 331.05 122.6 330.85 122.2 335.85 127.65 336.3 128.2 331.15 122.75 M197.15 87.95 L197.3 87.95 Q200.7 88.65 203.75 90.15 L208.45 92.45 Q213.2 94.75 214.2 95.05 212.15 95.85 211.2 96.8 L211.1 96.9 Q210.45 97.55 209.45 97.65 209.2 97.7 200.8 92.8 L200.65 92.7 200.2 92.45 200.15 92.4 200.05 92.25 197.15 87.95" fill="#aeb05a" fill-rule="evenodd" stroke="none"/>
      <path d="M326.85 157.7 Q324.4 157.7 323.55 156.95 323.2 156.65 323.15 156.05 L321.3 158.9 Q318.35 162.9 315.0 162.9 312.95 162.9 311.85 160.6 311.1 159.05 311.1 158.1 311.1 156.05 315.3 153.55 319.95 150.8 323.7 152.1 L324.0 153.9 Q324.95 153.05 326.9 152.5 L332.45 152.25 332.6 152.55 332.75 153.65 Q332.75 157.7 326.85 157.7 M304.35 11.75 L304.7 12.1 305.25 13.55 305.25 14.0 Q305.25 14.95 304.9 15.7 L304.2 16.65 Q302.8 18.05 300.0 18.05 296.15 18.05 294.95 16.65 294.5 16.1 294.5 15.0 294.5 12.15 299.9 11.2 303.05 10.65 304.35 11.75 M290.25 39.95 Q290.25 39.1 291.55 37.75 292.85 36.4 294.4 35.7 298.55 33.8 298.55 38.6 298.55 39.9 297.0 41.2 295.5 42.45 294.0 42.45 291.25 42.45 290.5 41.3 290.25 40.95 290.25 39.95 M223.95 75.8 Q227.9 73.05 232.1 67.6 235.65 62.9 238.5 57.7 L238.5 57.45 Q238.5 55.45 244.4 49.6 249.4 43.45 254.35 39.5 262.8 32.7 262.8 39.65 262.8 40.35 259.25 42.5 L251.5 47.0 250.2 47.8 249.55 48.5 Q246.25 51.8 246.25 55.2 L244.4 59.6 Q242.55 64.0 242.55 64.5 242.55 65.4 243.1 66.3 L243.9 67.6 248.5 67.05 Q250.05 66.35 257.7 61.5 265.25 57.0 268.15 56.65 269.6 56.45 270.65 56.65 L270.9 57.05 271.15 58.25 Q271.15 59.35 269.25 61.05 L265.15 64.6 Q259.1 70.0 259.1 75.55 259.1 78.45 255.3 84.1 251.5 89.75 251.5 90.3 251.5 91.15 253.45 93.75 255.35 96.35 255.35 98.95 255.35 101.95 253.45 110.3 251.2 119.85 249.35 120.05 L243.7 114.2 Q237.5 107.85 234.2 106.1 232.7 107.85 232.0 110.2 L231.8 109.65 Q228.1 98.35 227.45 94.8 226.05 85.0 224.8 79.3 L223.95 75.8 M240.95 131.85 L241.5 124.6 Q241.5 122.15 243.7 122.0 246.05 121.8 246.55 125.25 L246.8 133.25 Q246.8 136.35 247.6 141.4 248.35 146.5 248.35 148.75 L248.35 152.3 Q247.95 154.95 245.75 155.2 236.8 156.25 228.55 146.1 223.95 140.45 219.0 130.1 219.85 128.2 219.85 126.85 L220.15 126.6 221.0 126.0 Q223.85 131.2 227.0 134.0 230.7 137.35 236.7 139.6 L236.9 139.65 Q240.0 146.95 244.65 151.05 L243.7 148.9 245.9 152.45 246.2 152.3 246.5 153.05 246.95 153.05 247.15 152.85 247.2 151.85 246.65 149.1 246.1 147.2 241.8 134.3 240.95 131.85 M214.9 112.0 Q213.65 111.15 212.7 110.65 208.3 115.5 208.3 120.6 L209.35 122.25 Q210.35 123.95 210.35 124.4 L210.2 125.8 209.8 126.3 Q209.45 126.75 208.55 126.85 205.3 127.25 200.2 118.15 L193.85 105.25 Q185.25 104.4 181.7 101.8 179.45 100.05 178.7 96.75 178.0 93.45 176.9 92.65 174.8 91.1 168.25 91.9 164.3 92.35 159.05 89.4 154.5 86.7 154.5 85.7 154.5 84.45 155.35 83.7 156.05 83.05 157.25 82.9 L159.7 83.2 162.8 83.7 168.4 83.45 177.1 81.6 Q181.4 80.5 187.85 79.7 L185.05 77.7 Q182.55 75.5 180.5 72.35 177.65 67.85 170.1 63.75 168.3 62.8 155.2 56.75 L155.1 56.7 156.1 56.5 Q165.3 55.4 172.75 59.1 176.7 61.1 184.6 67.8 L186.0 68.9 186.0 68.95 189.65 75.25 197.3 87.95 197.15 87.95 190.95 87.4 Q192.1 87.75 200.15 92.4 L201.5 94.5 Q206.0 101.25 215.85 112.35 L216.6 113.2 214.9 112.0 M246.4 74.35 L246.25 74.1 Q239.9 75.25 236.1 81.3 234.05 84.55 232.1 91.05 L237.8 83.65 Q243.2 77.05 246.4 74.35 M172.35 131.6 Q172.35 128.8 176.25 128.35 180.15 127.9 180.15 130.5 180.15 131.8 179.1 132.9 177.75 134.3 175.55 134.3 173.1 134.3 172.5 133.05 172.35 132.75 172.35 131.6 M125.9 37.1 Q117.5 37.1 114.7 35.4 113.4 34.6 113.4 33.2 113.4 31.8 115.0 31.15 116.55 30.45 120.0 30.35 L121.35 30.3 130.65 30.2 Q132.1 30.6 133.3 32.4 L134.55 34.8 134.25 36.15 129.95 36.85 125.9 37.1" fill="#a8631e" fill-rule="evenodd" stroke="none"/>
      <path d="M223.95 75.8 L224.8 79.3 Q226.05 85.0 227.45 94.8 228.1 98.35 231.8 109.65 L232.0 110.2 232.0 110.25 231.9 110.55 231.7 111.55 231.65 111.75 231.6 112.1 Q231.25 115.1 232.1 118.35 L232.1 124.5 232.15 124.75 231.2 125.1 230.05 124.1 229.35 123.5 224.05 119.05 216.6 113.2 215.85 112.35 Q206.0 101.25 201.5 94.5 L200.15 92.4 200.2 92.45 200.65 92.7 200.8 92.8 Q209.2 97.7 209.45 97.65 210.45 97.55 211.1 96.9 L211.2 96.8 Q212.15 95.85 214.2 95.05 213.2 94.75 208.45 92.45 L203.75 90.15 Q200.7 88.65 197.3 87.95 L189.65 75.25 186.0 68.95 186.1 69.0 Q192.6 74.25 197.55 76.3 L198.95 76.85 199.1 76.9 199.1 76.95 Q201.95 77.95 205.1 78.45 L208.0 78.8 Q212.3 79.15 217.15 78.6 L217.25 78.6 218.4 78.4 219.5 78.1 219.65 78.05 223.05 76.4 223.95 75.8 M240.85 132.7 L240.9 132.05 240.95 131.85 241.8 134.3 246.1 147.2 246.65 149.1 247.2 151.85 247.15 152.85 246.95 153.05 246.5 153.05 246.2 152.3 245.9 152.45 243.7 148.9 244.65 151.05 Q240.0 146.95 236.9 139.65 L238.1 140.1 238.7 140.3 238.7 140.25 238.8 140.3 239.05 140.4 239.4 140.5 239.45 140.45 239.6 139.95 240.05 138.15 240.45 135.7 240.85 132.7" fill="#8f4610" fill-rule="evenodd" stroke="none"/>
    </g>
  </defs>
</svg>
