<?xml version="1.0" encoding="UTF-8" standalone="no"?>
<svg xmlns:ffdec="https://www.free-decompiler.com/flash" xmlns:xlink="http://www.w3.org/1999/xlink" ffdec:objectType="frame" height="211.7px" width="488.3px" xmlns="http://www.w3.org/2000/svg">
  <g transform="matrix(1.0, 0.0, 0.0, 1.0, 92.25, 9.9)">
    <use ffdec:characterId="95" ffdec:characterName="a_EB_GoblinFlagFrame03" height="204.4" transform="matrix(1.0, 0.0, 0.0, 1.0, -59.6, -6.35)" width="453.95" xlink:href="#sprite0"/>
  </g>
  <defs>
    <g id="sprite0" transform="matrix(1.0, 0.0, 0.0, 1.0, 0.0, 0.0)">
      <use ffdec:characterId="94" height="204.4" transform="matrix(1.0, 0.0, 0.0, 1.0, 0.0, 0.0)" width="453.95" xlink:href="#shape0"/>
    </g>
    <g id="shape0" transform="matrix(1.0, 0.0, 0.0, 1.0, 0.0, 0.0)">
      <path d="M323.65 10.85 L329.8 10.55 335.05 9.5 350.95 7.55 353.5 6.05 Q356.05 4.55 357.1 4.55 L359.45 4.25 361.45 3.9 Q361.85 3.9 368.3 0.5 374.6 -1.6 374.6 4.85 374.6 5.9 374.0 7.1 373.1 8.8 371.45 8.8 L363.35 7.4 325.45 18.0 325.45 17.65 325.25 15.4 325.1 14.3 325.05 14.2 Q324.55 12.05 323.65 10.85 M371.85 159.15 L372.4 158.2 374.45 157.0 Q376.45 156.2 376.7 158.4 L376.75 158.6 376.6 162.0 376.3 164.3 376.45 164.55 377.25 165.95 377.7 166.7 378.15 168.05 377.85 168.35 375.55 169.8 Q372.9 171.35 372.4 171.35 368.9 171.35 367.95 170.15 L367.75 169.8 Q367.3 168.8 368.2 166.85 365.3 166.9 364.35 165.75 363.85 165.1 363.85 163.6 363.85 162.75 364.35 162.5 365.15 162.1 368.1 161.8 L369.25 161.65 Q370.5 161.55 371.3 160.2 L371.3 160.15 371.85 159.15 M385.4 166.9 L386.45 166.85 Q387.05 167.1 387.85 167.9 394.6 169.6 401.4 169.3 L403.45 169.6 Q403.8 170.05 403.45 171.95 L404.95 171.5 407.05 171.05 408.95 171.35 409.1 171.5 409.25 172.45 Q409.25 173.5 408.3 173.95 L406.3 174.95 405.8 175.25 Q410.6 173.5 411.4 173.5 412.5 173.5 412.9 174.1 L413.45 175.7 415.65 174.8 Q416.85 174.2 417.65 174.2 L419.6 174.5 419.75 174.65 419.9 175.6 Q419.9 176.65 418.9 177.1 L417.1 177.95 Q418.65 177.35 421.4 177.1 L424.1 177.45 427.25 178.1 427.4 178.4 427.55 179.45 Q427.25 181.0 425.65 181.85 429.5 180.2 430.55 180.2 432.75 180.2 433.4 181.3 433.9 182.1 433.45 183.05 438.4 183.65 443.6 185.2 445.1 185.2 445.4 185.6 L445.55 185.9 445.7 186.95 Q445.7 187.95 445.5 188.2 L445.1 188.35 444.55 188.8 446.25 188.1 448.0 187.7 Q450.1 187.7 453.95 194.5 453.95 196.3 452.9 196.7 L448.9 197.0 Q444.7 196.45 442.25 194.0 437.75 192.65 435.45 191.4 433.6 190.4 432.05 188.8 426.45 188.05 419.0 185.2 410.85 182.1 410.35 179.9 403.95 179.5 401.95 177.65 400.15 176.0 398.35 176.0 396.6 176.0 391.8 174.6 387.05 173.2 379.55 173.2 378.75 173.2 377.8 172.6 L378.4 172.5 380.75 172.15 381.6 172.05 381.75 172.05 381.9 172.0 384.25 172.1 Q385.05 172.1 385.85 171.55 L386.6 171.5 386.8 170.65 387.1 170.2 Q387.7 169.6 387.7 168.1 L387.35 167.9 387.3 167.9 385.4 166.9 M310.7 9.3 L311.6 9.0 312.7 8.85 Q314.95 8.75 315.9 10.05 316.45 10.75 316.55 11.9 L316.6 11.9 Q318.6 12.3 319.45 13.45 320.05 14.3 320.05 15.55 L319.75 18.65 319.5 18.9 318.3 19.15 317.2 19.0 Q317.05 19.8 316.3 20.6 315.3 21.8 313.95 21.8 L312.85 21.65 Q311.35 21.15 311.35 19.1 L311.45 18.05 Q309.75 17.85 309.1 15.4 L308.8 12.55 308.85 11.85 Q309.1 10.0 310.7 9.3 M415.85 178.55 L415.7 178.8 416.1 178.45 415.85 178.55" fill="#444a28" fill-rule="evenodd" stroke="none"/>
      <path d="M325.45 17.65 L325.55 23.9 Q325.55 38.0 320.15 63.45 314.75 88.9 314.75 94.9 314.75 117.55 351.25 145.0 361.55 152.8 371.85 159.15 L371.3 160.15 371.3 160.2 Q370.5 161.55 369.25 161.65 L368.1 161.8 Q360.1 157.5 356.3 154.6 343.4 144.95 337.05 137.4 L335.85 136.3 Q330.9 131.6 325.95 125.45 L318.1 114.9 Q313.4 108.0 309.65 101.3 307.0 96.55 304.85 91.95 L304.75 91.75 304.5 91.25 304.2 90.6 Q298.6 78.25 298.6 71.3 298.6 69.1 299.45 60.5 300.25 52.05 300.5 51.2 L300.95 51.2 301.1 52.1 Q299.9 56.7 299.9 59.35 299.9 71.85 305.15 85.75 306.9 90.35 309.2 95.15 311.8 100.5 315.15 106.05 L316.5 108.2 316.9 108.9 316.35 107.8 315.1 105.1 Q313.8 102.25 313.0 100.05 L312.9 99.65 311.95 95.55 311.9 95.0 312.05 92.4 312.05 92.1 312.25 90.0 Q313.25 80.95 317.15 61.2 322.4 34.65 322.4 23.95 322.4 18.45 322.1 17.4 321.65 15.85 319.95 13.55 L319.45 13.45 Q318.6 12.3 316.6 11.9 L316.55 11.9 Q316.45 10.75 315.9 10.05 L317.5 10.35 Q321.6 8.2 323.65 10.85 324.55 12.05 325.05 14.2 L325.1 14.3 325.25 15.4 325.45 17.65 M376.6 162.0 L385.4 166.9 387.3 167.9 387.35 167.9 387.7 168.1 Q387.7 169.6 387.1 170.2 L386.8 170.65 386.6 171.5 385.85 171.55 Q385.05 172.1 384.25 172.1 L381.9 172.0 381.75 172.05 381.6 172.05 380.75 172.15 378.4 172.5 377.8 172.6 374.2 173.15 361.75 174.8 346.0 173.85 324.55 172.85 Q289.75 172.85 256.0 187.65 L234.35 197.8 Q224.2 202.4 218.95 202.4 L203.85 201.8 203.6 201.75 201.5 204.4 Q200.2 202.9 200.2 202.45 200.2 199.7 203.35 196.25 206.85 192.45 207.55 188.65 206.7 188.55 205.25 187.1 203.95 185.8 200.8 185.8 191.9 185.8 183.2 193.25 178.85 196.95 176.15 200.65 174.85 200.65 171.25 198.45 165.45 194.95 163.4 193.9 151.1 187.6 138.95 189.4 138.2 189.1 137.75 188.65 144.15 183.5 154.55 180.4 157.85 179.45 159.0 178.2 160.55 176.55 160.55 172.75 160.55 169.2 157.35 165.0 154.05 160.65 148.3 157.0 134.55 148.1 116.15 148.15 L116.0 147.5 117.0 145.6 116.9 144.7 119.2 139.6 121.45 134.65 Q121.45 130.65 117.85 129.3 113.4 127.55 99.55 127.55 L98.05 127.4 97.7 127.25 Q98.9 122.95 107.05 112.5 114.4 103.1 114.4 97.9 114.4 86.4 101.4 75.7 88.2 64.8 70.25 62.15 L69.35 62.0 68.95 62.15 67.85 60.9 Q67.55 60.45 67.55 59.9 67.55 57.1 69.8 52.4 72.05 47.65 72.05 45.55 72.05 44.2 69.95 43.05 66.85 41.3 60.5 41.3 40.35 41.3 34.2 50.4 32.2 53.35 31.85 57.05 31.65 59.0 31.85 60.95 31.85 62.0 29.25 62.8 L23.3 64.4 Q14.2 67.1 12.3 73.15 L9.85 80.8 Q8.65 85.25 8.4 89.15 L8.05 89.4 6.8 89.6 Q3.7 89.6 1.55 77.8 L0.0 65.8 Q0.0 63.55 5.1 53.85 L10.7 43.4 Q8.75 42.1 5.9 42.5 L3.35 43.15 Q1.85 43.15 2.0 42.85 L1.6 42.65 1.55 41.65 Q1.55 38.95 12.8 32.35 14.15 31.55 15.4 30.85 16.85 29.75 19.9 28.35 24.0 26.2 26.0 25.55 L25.6 25.95 29.0 24.65 Q44.55 18.95 53.4 18.95 70.35 18.95 89.35 22.75 L88.9 22.05 Q90.35 22.7 92.45 22.95 95.8 26.9 101.45 26.9 L102.95 26.9 105.8 27.4 109.0 27.25 112.3 27.85 112.05 28.0 113.65 28.4 Q134.7 28.4 149.85 26.25 161.95 24.5 175.3 20.45 L201.1 12.25 Q218.95 6.8 238.3 2.75 L265.25 2.75 Q283.75 6.15 305.55 8.65 L310.7 9.3 Q309.1 10.0 308.85 11.85 L304.0 11.1 Q287.15 8.65 271.2 7.1 L264.7 6.5 261.25 6.5 238.15 6.5 Q225.15 8.7 212.05 12.4 202.25 13.6 191.75 16.9 L174.25 22.2 169.1 23.65 168.25 23.85 167.95 23.95 Q145.65 29.75 132.7 29.75 L117.6 29.2 111.95 28.65 110.95 28.55 Q107.55 30.05 102.65 30.05 L102.55 30.05 Q96.5 30.0 91.9 25.6 L91.4 25.1 Q83.0 23.2 79.75 22.65 71.65 21.35 62.35 21.35 45.2 21.35 29.15 27.85 24.25 29.85 20.65 32.05 L15.3 33.8 15.0 33.7 Q10.8 36.45 8.4 38.65 L6.8 39.25 Q11.1 38.75 13.05 40.5 14.3 41.6 14.3 43.1 L8.6 54.25 Q2.9 65.8 2.9 68.95 2.9 70.3 3.65 74.95 4.6 80.65 5.6 81.95 6.75 79.95 8.15 75.8 9.75 71.3 10.55 69.65 12.25 66.3 16.75 64.1 18.6 63.2 28.7 59.6 27.9 53.5 31.25 48.2 37.9 37.85 60.55 37.85 71.0 37.85 73.85 41.75 75.3 43.7 74.6 45.7 74.6 47.55 72.2 53.45 70.95 56.55 70.5 58.7 93.65 64.1 105.9 75.0 117.2 85.0 117.2 97.55 117.2 104.7 113.05 109.45 L108.05 114.95 Q104.5 119.1 101.3 124.25 112.4 122.55 119.15 127.75 121.45 129.55 122.85 131.85 123.95 133.6 123.95 134.5 123.95 136.0 121.35 141.15 L119.35 145.0 119.15 145.4 Q140.9 147.6 153.2 156.4 163.7 163.85 163.7 172.75 163.7 177.6 160.6 180.4 157.15 183.45 147.7 186.35 L146.9 186.65 Q157.85 188.8 164.1 191.35 167.45 192.7 174.4 196.75 177.95 192.35 182.45 189.25 191.35 183.05 202.0 183.05 206.15 183.05 208.45 185.4 210.2 187.1 210.2 188.9 210.2 192.4 206.9 197.2 L205.7 198.95 Q216.95 198.35 225.45 196.65 L231.95 195.0 235.0 194.0 235.2 193.9 237.1 193.15 Q239.35 192.2 246.35 188.55 251.8 185.7 256.45 184.25 257.3 184.0 261.1 181.55 266.1 178.75 272.6 176.6 293.7 169.75 330.8 169.75 L330.9 169.75 351.65 170.65 361.7 171.35 365.95 170.55 367.95 170.15 Q368.9 171.35 372.4 171.35 372.9 171.35 375.55 169.8 L377.85 168.35 380.55 168.1 377.7 166.7 377.25 165.95 376.45 164.55 376.3 164.3 376.6 162.0" fill="#7e811f" fill-rule="evenodd" stroke="none"/>
      <path d="M325.95 125.45 Q330.9 131.6 335.85 136.3 L337.05 137.4 Q343.4 144.95 356.3 154.6 360.1 157.5 368.1 161.8 365.15 162.1 364.35 162.5 363.85 162.75 363.85 163.6 363.85 165.1 364.35 165.75 365.3 166.9 368.2 166.85 367.3 168.8 367.75 169.8 L367.95 170.15 365.95 170.55 361.7 171.35 351.65 170.65 330.9 169.75 330.8 169.75 Q293.7 169.75 272.6 176.6 266.1 178.75 261.1 181.55 257.3 184.0 256.45 184.25 251.8 185.7 246.35 188.55 239.35 192.2 237.1 193.15 L235.2 193.9 Q218.4 181.95 210.35 171.2 L209.95 171.2 210.05 171.35 209.3 170.5 218.95 187.75 Q222.0 192.6 225.45 196.65 216.95 198.35 205.7 198.95 L206.9 197.2 Q210.2 192.4 210.2 188.9 210.2 187.1 208.45 185.4 206.15 183.05 202.0 183.05 191.35 183.05 182.45 189.25 177.95 192.35 174.4 196.75 167.45 192.7 164.1 191.35 157.85 188.8 146.9 186.65 L147.7 186.35 Q157.15 183.45 160.6 180.4 163.7 177.6 163.7 172.75 163.7 163.85 153.2 156.4 140.9 147.6 119.15 145.4 L119.35 145.0 121.35 141.15 Q123.95 136.0 123.95 134.5 123.95 133.6 122.85 131.85 121.45 129.55 119.15 127.75 112.4 122.55 101.3 124.25 104.5 119.1 108.05 114.95 L113.05 109.45 Q117.2 104.7 117.2 97.55 117.2 85.0 105.9 75.0 93.65 64.1 70.5 58.7 70.95 56.55 72.2 53.45 74.6 47.55 74.6 45.7 75.3 43.7 73.85 41.75 71.0 37.85 60.55 37.85 37.9 37.85 31.25 48.2 27.9 53.5 28.7 59.6 18.6 63.2 16.75 64.1 12.25 66.3 10.55 69.65 9.75 71.3 8.15 75.8 6.75 79.95 5.6 81.95 4.6 80.65 3.65 74.95 2.9 70.3 2.9 68.95 2.9 65.8 8.6 54.25 L14.3 43.1 Q14.3 41.6 13.05 40.5 11.1 38.75 6.8 39.25 L8.4 38.65 Q10.8 36.45 15.0 33.7 L15.3 33.8 20.65 32.05 Q24.25 29.85 29.15 27.85 45.2 21.35 62.35 21.35 71.65 21.35 79.75 22.65 83.0 23.2 91.4 25.1 L91.9 25.6 Q96.5 30.0 102.55 30.05 L103.6 30.6 Q112.6 35.35 120.3 39.8 L110.9 38.55 Q105.0 38.1 102.7 40.6 L102.85 41.3 Q104.45 42.9 106.25 43.5 L111.7 44.15 122.2 43.5 Q123.45 43.1 123.65 41.75 135.9 48.95 144.6 55.35 L142.25 55.65 141.25 55.85 141.35 55.9 150.2 59.45 149.75 59.3 Q158.7 66.3 169.1 76.1 L170.2 77.15 Q166.1 77.95 163.1 78.85 157.15 80.6 154.4 81.0 L148.8 81.5 145.7 81.2 143.25 81.0 Q142.05 81.25 141.35 81.85 140.5 82.65 140.5 83.85 140.5 84.8 145.0 87.2 150.25 89.8 154.2 89.15 160.75 88.1 162.85 89.5 163.95 90.2 164.65 93.35 165.35 96.45 167.6 98.05 171.15 100.4 179.75 100.85 L186.05 112.9 Q191.1 121.45 194.35 120.95 195.25 120.8 195.6 120.3 L196.0 119.85 196.15 118.5 Q196.15 118.05 195.15 116.45 L194.1 114.9 Q194.15 110.95 197.0 107.1 L200.8 111.2 Q212.05 123.2 213.55 123.2 215.05 123.2 214.7 122.75 L214.7 122.3 208.95 114.4 Q207.0 111.8 206.0 109.8 L206.75 110.35 209.85 112.65 217.0 118.15 Q217.85 117.95 217.95 117.75 L217.9 117.5 217.95 111.6 Q217.1 108.5 217.45 105.65 218.0 102.1 220.1 99.7 223.4 101.25 229.55 107.05 L235.15 112.45 Q237.0 112.15 239.3 102.85 241.25 94.7 241.3 91.8 241.3 89.3 239.4 86.9 237.45 84.5 237.45 83.65 237.45 83.15 241.3 77.5 245.15 71.85 245.15 69.05 245.15 63.7 251.25 58.25 L255.35 54.65 Q257.3 52.9 257.3 51.85 L257.05 50.7 256.8 50.3 254.3 50.45 Q251.4 50.9 243.8 55.65 L234.6 61.35 230.0 62.15 229.2 60.95 Q228.65 60.1 228.65 59.2 228.65 58.75 230.5 54.4 L232.4 50.1 Q232.4 46.85 235.75 43.45 L236.4 42.8 237.7 41.95 Q240.5 40.2 245.45 37.2 249.0 35.0 249.0 34.35 249.05 27.65 240.6 34.6 235.6 38.65 230.55 44.75 224.65 50.7 224.65 52.65 L224.65 52.85 Q221.75 58.05 218.2 62.7 210.35 72.9 203.2 74.0 L192.2 74.55 191.15 74.45 187.9 67.7 Q173.8 37.9 173.8 29.0 173.8 27.6 175.1 22.0 L174.25 22.2 191.75 16.9 Q202.25 13.6 212.05 12.4 225.15 8.7 238.15 6.5 L261.25 6.5 262.25 8.15 266.75 16.8 Q269.45 22.1 271.6 25.1 275.2 30.2 278.55 36.1 276.8 37.2 276.8 38.5 L277.0 39.7 Q277.7 40.7 280.45 40.7 L281.0 40.65 281.85 42.3 289.9 59.3 297.25 76.25 300.6 84.25 Q302.15 90.7 303.75 91.6 L304.55 93.5 Q307.75 100.7 310.8 106.35 316.1 116.45 320.8 121.75 324.05 125.5 327.05 126.85 L325.95 125.45 M377.85 168.35 L378.15 168.05 377.7 166.7 380.55 168.1 377.85 168.35 M232.45 68.5 Q229.25 71.25 223.8 77.9 L218.05 85.3 Q220.05 78.95 222.1 75.7 225.95 69.7 232.3 68.3 L232.45 68.5 M229.5 114.55 Q227.3 114.8 227.3 117.15 226.4 129.65 225.1 132.6 217.25 130.7 212.75 126.95 209.6 124.4 206.8 119.5 L205.95 120.1 205.65 120.4 Q205.65 121.7 204.75 123.55 209.65 133.3 214.25 138.5 222.45 147.9 231.4 146.45 233.6 146.1 234.0 143.55 L234.05 140.15 Q234.05 137.95 233.3 133.05 232.55 128.25 232.55 125.25 L232.35 117.55 Q231.85 114.25 229.5 114.55 M168.55 123.3 L165.25 123.15 Q160.4 124.0 160.4 127.9 160.4 128.75 160.55 129.15 L160.7 129.65 161.6 129.8 163.6 129.95 Q167.5 129.95 168.95 128.55 170.05 127.45 170.05 125.0 170.05 123.8 168.55 123.3 M302.95 144.1 Q300.85 145.15 299.05 146.8 297.35 148.4 297.35 149.05 297.35 150.05 297.9 150.75 299.0 152.3 302.05 152.3 303.4 152.3 310.25 149.6 L311.9 148.95 313.0 149.0 Q315.3 148.6 316.35 147.85 317.2 147.2 317.2 146.3 L317.2 146.15 316.9 143.5 316.3 143.3 315.9 143.2 315.75 143.2 315.55 143.15 315.35 143.15 315.3 143.15 315.2 143.15 314.95 143.15 314.7 143.15 313.7 143.35 Q313.0 143.55 312.4 144.05 L311.55 144.85 309.85 145.55 Q308.7 141.05 302.95 144.1" fill="#dee184" fill-rule="evenodd" stroke="none"/>
      <path d="M325.95 125.45 L327.05 126.85 Q324.05 125.5 320.8 121.75 316.1 116.45 310.8 106.35 307.75 100.7 304.55 93.5 L303.75 91.6 Q302.15 90.7 300.6 84.25 L297.25 76.25 289.9 59.3 281.85 42.3 281.0 40.65 281.15 40.65 284.0 39.5 285.8 38.25 Q286.6 37.4 286.6 36.55 286.6 33.3 282.65 34.4 L281.7 34.65 279.5 35.6 278.55 36.1 Q275.2 30.2 271.6 25.1 269.45 22.1 266.75 16.8 L262.25 8.15 261.25 6.5 264.7 6.5 271.2 7.1 Q287.15 8.65 304.0 11.1 L308.85 11.85 308.8 12.55 309.1 15.4 Q309.75 17.85 311.45 18.05 L311.35 19.1 Q311.35 21.15 312.85 21.65 L313.95 21.8 Q315.3 21.8 316.3 20.6 317.05 19.8 317.2 19.0 L318.3 19.15 319.5 18.9 319.75 18.65 320.05 15.55 Q320.05 14.3 319.45 13.45 L319.95 13.55 Q321.65 15.85 322.1 17.4 322.4 18.45 322.4 23.95 322.4 34.65 317.15 61.2 313.25 80.95 312.25 90.0 L312.05 92.1 312.05 92.4 311.9 95.0 311.95 95.55 312.9 99.65 313.0 100.05 Q313.8 102.25 315.1 105.1 L316.35 107.8 316.5 108.2 315.15 106.05 Q311.8 100.5 309.2 95.15 306.9 90.35 305.15 85.75 299.9 71.85 299.9 59.35 299.9 56.7 301.1 52.1 L300.95 51.2 300.5 51.2 Q300.25 52.05 299.45 60.5 298.6 69.1 298.6 71.3 298.6 78.25 304.2 90.6 L304.5 91.25 304.75 91.75 304.85 91.95 Q307.0 96.55 309.65 101.3 313.4 108.0 318.1 114.9 L325.95 125.45 M174.25 22.2 L175.1 22.0 Q173.8 27.6 173.8 29.0 173.8 37.9 187.9 67.7 L191.15 74.45 185.05 73.25 183.6 72.75 181.65 71.95 Q176.85 69.8 170.7 65.15 163.35 59.55 159.5 57.65 L159.45 57.6 159.1 57.45 158.9 57.35 Q156.4 56.3 153.75 55.75 L152.9 55.6 150.45 55.3 150.15 55.25 147.7 55.2 146.5 55.2 146.0 55.25 144.6 55.35 Q135.9 48.95 123.65 41.75 L123.65 41.6 122.55 40.7 121.45 39.95 120.3 39.8 Q112.6 35.35 103.6 30.6 L102.55 30.05 102.65 30.05 Q107.55 30.05 110.95 28.55 L111.95 28.65 117.6 29.2 132.7 29.75 Q145.65 29.75 167.95 23.95 L168.25 23.85 169.1 23.65 174.25 22.2 M225.45 196.65 Q222.0 192.6 218.95 187.75 L209.3 170.5 210.05 171.35 209.95 171.2 210.35 171.2 Q218.4 181.95 235.2 193.9 L235.0 194.0 231.95 195.0 225.45 196.65 M290.5 19.5 L290.55 19.5 291.35 19.2 292.45 18.7 Q293.95 17.85 293.95 16.4 293.95 15.55 292.1 14.3 286.05 13.65 282.95 15.15 281.95 15.6 281.4 16.2 280.7 16.85 280.7 17.65 280.7 19.25 283.3 20.05 L287.75 20.05 290.5 19.5" fill="#bfc466" fill-rule="evenodd" stroke="none"/>
      <path d="M191.15 74.45 L192.2 74.55 193.45 77.65 197.85 89.2 191.15 86.45 190.6 86.2 189.7 85.8 189.1 85.55 Q187.1 84.75 185.0 84.3 L181.5 83.8 179.75 83.7 179.25 83.7 179.05 83.7 178.9 83.7 175.9 80.5 175.8 80.4 171.85 76.85 172.75 76.65 173.65 76.5 173.7 76.5 173.85 76.45 173.4 76.25 173.1 76.05 171.25 74.8 171.1 74.7 168.55 72.25 166.55 69.75 166.3 69.4 166.0 69.0 165.95 68.95 Q164.4 66.95 161.8 65.15 L161.55 64.95 160.6 64.35 158.45 63.1 157.7 62.7 157.65 62.7 157.2 62.3 155.35 61.15 154.85 61.15 153.95 61.0 153.85 61.0 152.85 60.55 152.8 60.55 152.7 60.5 Q150.25 59.2 146.45 55.65 L146.0 55.25 146.5 55.2 147.7 55.2 150.15 55.25 150.45 55.3 152.9 55.6 153.75 55.75 Q156.4 56.3 158.9 57.35 L159.1 57.45 159.45 57.6 159.5 57.65 Q163.35 59.55 170.7 65.15 176.85 69.8 181.65 71.95 L183.6 72.75 185.05 73.25 191.15 74.45 M206.75 110.35 L206.0 109.8 205.35 109.35 200.4 106.15 199.35 105.55 198.55 105.15 197.7 106.15 195.15 103.3 180.2 85.15 186.75 88.5 186.95 88.6 188.15 89.2 189.3 89.8 193.6 95.05 193.4 94.35 192.4 93.15 192.1 92.6 Q190.8 91.35 190.25 90.3 L191.75 91.05 192.6 91.45 192.75 91.55 192.75 91.5 194.55 92.4 195.35 92.75 195.4 92.75 Q196.45 92.6 197.15 91.85 L197.4 91.65 198.45 90.85 200.0 95.05 Q203.5 104.05 206.75 110.35 M281.4 16.2 Q281.95 15.6 282.95 15.15 286.05 13.65 292.1 14.3 293.95 15.55 293.95 16.4 293.95 17.85 292.45 18.7 L291.35 19.2 290.55 19.5 290.5 19.5 287.35 19.6 Q282.8 19.6 281.6 18.35 L281.3 17.0 281.4 16.2 M279.5 35.6 L281.7 34.65 282.65 34.4 Q286.6 33.3 286.6 36.55 286.6 37.4 285.8 38.25 L284.0 39.5 281.15 40.65 280.3 39.1 278.95 35.9 279.5 35.6" fill="#8f4610" fill-rule="evenodd" stroke="none"/>
      <path d="M281.0 40.65 L280.45 40.7 Q277.7 40.7 277.0 39.7 L276.8 38.5 Q276.8 37.2 278.55 36.1 L279.5 35.6 278.95 35.9 280.3 39.1 281.15 40.65 281.0 40.65 M192.2 74.55 L203.2 74.0 Q210.35 72.9 218.2 62.7 221.75 58.05 224.65 52.85 L224.65 52.65 Q224.65 50.7 230.55 44.75 235.6 38.65 240.6 34.6 249.05 27.65 249.0 34.35 249.0 35.0 245.45 37.2 240.5 40.2 237.7 41.95 L236.4 42.8 235.75 43.45 Q232.4 46.85 232.4 50.1 L230.5 54.4 Q228.65 58.75 228.65 59.2 228.65 60.1 229.2 60.95 L230.0 62.15 234.6 61.35 243.8 55.65 Q251.4 50.9 254.3 50.45 L256.8 50.3 257.05 50.7 257.3 51.85 Q257.3 52.9 255.35 54.65 L251.25 58.25 Q245.15 63.7 245.15 69.05 245.15 71.85 241.3 77.5 237.45 83.15 237.45 83.65 237.45 84.5 239.4 86.9 241.3 89.3 241.3 91.8 241.25 94.7 239.3 102.85 237.0 112.15 235.15 112.45 L229.55 107.05 Q223.4 101.25 220.1 99.7 218.0 102.1 217.45 105.65 217.1 108.5 217.95 111.6 L217.9 117.5 217.95 117.75 Q217.85 117.95 217.0 118.15 L209.85 112.65 206.75 110.35 Q203.5 104.05 200.0 95.05 L198.45 90.85 200.15 90.0 197.85 89.2 193.45 77.65 192.2 74.55 M197.0 107.1 Q194.15 110.95 194.1 114.9 L195.15 116.45 Q196.15 118.05 196.15 118.5 L196.0 119.85 195.6 120.3 Q195.25 120.8 194.35 120.95 191.1 121.45 186.05 112.9 L179.75 100.85 Q171.15 100.4 167.6 98.05 165.35 96.45 164.65 93.35 163.95 90.2 162.85 89.5 160.75 88.1 154.2 89.15 150.25 89.8 145.0 87.2 140.5 84.8 140.5 83.85 140.5 82.65 141.35 81.85 142.05 81.25 143.25 81.0 L145.7 81.2 148.8 81.5 154.4 81.0 Q157.15 80.6 163.1 78.85 166.1 77.95 170.2 77.15 L171.85 76.85 175.8 80.4 175.9 80.5 178.9 83.7 177.65 83.75 176.95 83.75 Q177.3 83.8 178.15 84.2 L180.2 85.15 195.15 103.3 197.7 106.15 197.0 107.1 M150.2 59.45 L141.35 55.9 141.25 55.85 142.25 55.65 144.6 55.35 146.0 55.25 146.45 55.65 Q150.25 59.2 152.7 60.5 L150.2 59.45 M123.65 41.75 Q123.45 43.1 122.2 43.5 L111.7 44.15 106.25 43.5 Q104.45 42.9 102.85 41.3 L102.7 40.6 Q105.0 38.1 110.9 38.55 L120.3 39.8 121.45 39.95 122.55 40.7 123.65 41.6 123.65 41.75 M290.5 19.5 L287.75 20.05 283.3 20.05 Q280.7 19.25 280.7 17.65 280.7 16.85 281.4 16.2 L281.3 17.0 281.6 18.35 Q282.8 19.6 287.35 19.6 L290.5 19.5 M189.3 89.8 L190.25 90.3 Q190.8 91.35 192.1 92.6 L192.4 93.15 193.4 94.35 193.6 95.05 189.3 89.8 M232.45 68.5 L232.3 68.3 Q225.95 69.7 222.1 75.7 220.05 78.95 218.05 85.3 L223.8 77.9 Q229.25 71.25 232.45 68.5 M229.5 114.55 Q231.85 114.25 232.35 117.55 L232.55 125.25 Q232.55 128.25 233.3 133.05 234.05 137.95 234.05 140.15 L234.0 143.55 Q233.6 146.1 231.4 146.45 222.45 147.9 214.25 138.5 209.65 133.3 204.75 123.55 205.65 121.7 205.65 120.4 L205.95 120.1 206.8 119.5 Q209.6 124.4 212.75 126.95 217.25 130.7 225.1 132.6 226.4 129.65 227.3 117.15 227.3 114.8 229.5 114.55 M168.55 123.3 Q170.05 123.8 170.05 125.0 170.05 127.45 168.95 128.55 167.5 129.95 163.6 129.95 L161.6 129.8 160.7 129.65 160.55 129.15 Q160.4 128.75 160.4 127.9 160.4 124.0 165.25 123.15 L168.55 123.3 M302.95 144.1 Q308.7 141.05 309.85 145.55 L311.55 144.85 312.4 144.05 Q313.0 143.55 313.7 143.35 L314.7 143.15 314.95 143.15 315.2 143.15 315.3 143.15 315.35 143.15 315.55 143.15 315.75 143.2 315.9 143.2 316.3 143.3 316.9 143.5 317.2 146.15 317.2 146.3 Q317.2 147.2 316.35 147.85 315.3 148.6 313.0 149.0 L311.9 148.95 310.25 149.6 Q303.4 152.3 302.05 152.3 299.0 152.3 297.9 150.75 297.35 150.05 297.35 149.05 297.35 148.4 299.05 146.8 300.85 145.15 302.95 144.1 M157.65 62.7 L156.2 61.95 156.15 61.95 156.05 61.9 155.8 61.8 153.85 61.0 153.95 61.0 154.85 61.15 155.35 61.15 157.2 62.3 157.65 62.7" fill="#a8631e" fill-rule="evenodd" stroke="none"/>
      <path d="M206.0 109.8 Q207.0 111.8 208.95 114.4 L214.7 122.3 214.7 122.75 Q215.05 123.2 213.55 123.2 212.05 123.2 200.8 111.2 L197.0 107.1 197.7 106.15 198.55 105.15 199.35 105.55 200.4 106.15 205.35 109.35 206.0 109.8 M170.2 77.15 L169.1 76.1 Q158.7 66.3 149.75 59.3 L150.2 59.45 152.7 60.5 152.8 60.55 152.85 60.55 153.85 61.0 155.8 61.8 156.05 61.9 156.15 61.95 156.2 61.95 157.65 62.7 157.7 62.7 158.45 63.1 160.6 64.35 161.55 64.95 161.8 65.15 165.95 68.95 166.0 69.0 166.3 69.4 166.55 69.75 168.55 72.25 171.1 74.7 171.25 74.8 173.1 76.05 173.4 76.25 173.65 76.5 172.75 76.65 171.85 76.85 170.2 77.15 M178.9 83.7 L179.05 83.7 179.25 83.7 179.75 83.7 181.5 83.8 185.0 84.3 Q187.1 84.75 189.1 85.55 L189.7 85.8 190.6 86.2 191.15 86.45 197.85 89.2 200.15 90.0 198.45 90.85 197.4 91.65 197.15 91.85 Q196.45 92.6 195.4 92.75 L195.35 92.75 194.55 92.4 192.75 91.5 192.75 91.55 192.6 91.45 191.75 91.05 190.25 90.3 189.3 89.8 188.15 89.2 186.95 88.6 186.75 88.5 180.2 85.15 178.15 84.2 177.65 83.75 178.9 83.7" fill="#aeb05a" fill-rule="evenodd" stroke="none"/>
    </g>
  </defs>
</svg>
