<?xml version="1.0" encoding="UTF-8" standalone="no"?>
<svg xmlns:ffdec="https://www.free-decompiler.com/flash" xmlns:xlink="http://www.w3.org/1999/xlink" ffdec:objectType="frame" height="387.05px" width="90.8px" xmlns="http://www.w3.org/2000/svg">
  <g transform="matrix(1.0, 0.0, 0.0, 1.0, 40.25, 212.1)">
    <use ffdec:characterId="2302" height="40.35" transform="matrix(5.5702, 0.0, 0.0, 5.8595, -38.9915, -124.8295)" width="14.0" xlink:href="#shape0"/>
    <use ffdec:characterId="2315" height="30.3" transform="matrix(7.0, 0.0, 0.0, 7.0, -40.25, -212.1)" width="11.5" xlink:href="#shape1"/>
    <use ffdec:characterId="2305" height="25.55" transform="matrix(5.631, 0.0, 0.0, 5.579, 37.8244, -43.9083)" width="2.0" xlink:href="#shape2"/>
  </g>
  <defs>
    <g id="shape0" transform="matrix(1.0, 0.0, 0.0, 1.0, 7.0, 40.35)">
      <path d="M-6.95 -30.8 Q-0.3 -49.75 7.0 -30.95 L0.2 0.0 -7.0 -30.75 -6.95 -30.8" fill="url(#gradient0)" fill-rule="evenodd" stroke="none"/>
    </g>
    <linearGradient gradientTransform="matrix(0.0, -0.0179, 0.0253, 0.0, 1.65, -15.75)" gradientUnits="userSpaceOnUse" id="gradient0" spreadMethod="pad" x1="-819.2" x2="819.2">
      <stop offset="0.0" stop-color="#ffffff" stop-opacity="0.101960786"/>
      <stop offset="0.6509803921568628" stop-color="#ffffff"/>
      <stop offset="1.0" stop-color="#ffffff" stop-opacity="0.0"/>
    </linearGradient>
    <g id="shape1" transform="matrix(1.0, 0.0, 0.0, 1.0, 5.75, 30.3)">
      <path d="M0.0 -30.3 Q0.15 -29.95 0.3 -29.7 1.8 -25.9 3.4 -21.3 4.25 -18.9 5.5 -15.1 L5.55 -15.15 5.75 -14.55 5.7 -14.5 5.7 -14.45 5.4 -13.95 5.4 -14.0 4.3 -12.25 2.95 -9.55 2.95 -9.45 2.75 -9.2 Q2.6 -8.95 2.45 -8.75 2.45 -9.2 2.35 -9.6 2.25 -11.2 2.1 -12.1 L1.95 -13.0 Q1.75 -13.85 1.45 -14.55 L1.4 -14.35 1.4 -14.3 1.35 -12.25 Q1.3 -9.6 1.3 -7.95 L1.25 -6.4 Q1.35 -6.25 1.4 -6.05 1.45 -5.8 1.4 -5.55 1.4 -5.35 1.2 -5.2 L1.55 -5.2 1.55 -4.95 Q2.55 -4.8 3.1 -4.05 3.5 -3.45 3.5 -2.6 3.5 -1.9 2.5 -1.05 1.3 0.0 -0.4 0.0 -0.5 0.0 -0.65 -0.05 L-1.3 -0.05 Q-2.5 -0.4 -3.2 -1.3 -3.8 -2.1 -3.8 -2.9 -3.8 -3.55 -3.05 -4.45 -2.6 -5.0 -2.05 -5.2 L-1.65 -5.2 -1.3 -5.25 -1.35 -5.5 -1.35 -7.6 Q-1.35 -8.6 -1.25 -9.1 L-1.25 -14.6 -1.35 -14.7 Q-1.95 -13.55 -2.15 -12.6 L-2.25 -12.15 -2.3 -12.05 Q-2.45 -11.35 -2.5 -10.35 L-2.5 -10.2 -2.65 -8.95 -2.75 -9.1 -3.25 -9.9 -3.3 -9.7 -3.8 -10.45 -3.85 -10.55 -4.75 -12.15 -5.45 -13.45 -5.45 -13.4 -5.6 -13.7 -5.6 -13.75 -5.75 -13.95 -5.5 -14.55 -5.4 -14.4 Q-5.0 -15.8 -4.35 -17.9 -3.15 -21.6 -3.15 -21.7 -3.15 -22.15 -1.8 -25.8 -0.9 -28.35 -0.15 -30.0 L-0.15 -30.05 0.0 -30.3 M0.35 -16.4 L0.25 -16.4 Q-0.1 -16.4 -0.35 -16.3 -0.45 -16.25 -0.55 -16.15 L-0.65 -16.05 -0.8 -15.8 -0.85 -15.5 -0.9 -15.1 0.1 -15.2 0.35 -15.25 0.75 -15.3 0.75 -15.4 0.9 -15.6 0.9 -15.65 0.85 -15.75 0.8 -16.0 Q0.7 -16.2 0.6 -16.3 L0.35 -16.4 M-2.8 -11.6 L-2.8 -11.7 -2.75 -12.0 Q-2.6 -12.75 -2.4 -13.5 L-2.6 -13.1 Q-2.15 -14.5 -1.8 -15.25 -1.4 -16.1 -0.9 -16.65 L-0.65 -16.95 -0.55 -17.05 Q-0.3 -17.25 0.05 -17.3 L0.3 -17.35 Q0.95 -16.7 1.45 -15.85 L1.6 -15.55 1.9 -14.55 Q2.1 -14.05 2.3 -13.4 2.55 -12.6 2.7 -11.8 L2.75 -11.35 2.8 -11.3 2.9 -10.4 4.0 -12.55 Q4.6 -13.6 5.15 -14.55 2.15 -21.95 0.05 -29.25 -0.6 -27.2 -1.95 -23.35 -3.05 -20.1 -5.25 -14.05 L-4.25 -12.3 -3.2 -10.3 -3.1 -10.45 -3.05 -10.3 -2.95 -10.15 -2.95 -10.6 -2.9 -10.9 -2.8 -11.6 M0.3 -14.75 L-0.3 -14.7 -0.8 -14.75 -0.8 -14.35 -0.75 -14.1 -0.8 -14.15 -0.8 -13.7 0.0 -14.55 0.3 -14.75 M0.7 -14.2 L0.7 -14.4 0.6 -14.35 0.65 -14.35 0.1 -13.95 -0.85 -13.1 -0.85 -11.35 -0.4 -11.9 Q0.3 -12.7 0.7 -12.95 L0.7 -14.2 M0.2 -11.7 Q-0.5 -11.05 -0.85 -10.8 L-0.9 -10.0 -0.9 -8.5 -0.8 -8.65 Q-0.75 -8.9 -0.1 -9.55 L-0.1 -9.6 0.3 -10.0 0.75 -10.35 0.7 -12.25 0.2 -11.7 M0.75 -8.45 L0.75 -9.85 0.05 -9.15 Q-0.35 -8.6 -0.8 -8.25 L-0.85 -8.2 -0.9 -8.2 -0.9 -6.65 -0.6 -7.05 Q0.0 -7.85 0.75 -8.15 L0.75 -8.45 M2.7 -10.1 L2.65 -10.85 2.7 -10.0 2.7 -10.1 M0.8 -6.25 L0.2 -6.35 Q-0.05 -6.4 -0.2 -6.55 L-0.85 -5.85 -0.9 -5.85 -0.9 -5.55 Q-0.75 -5.45 -0.65 -5.4 L0.6 -5.4 Q0.9 -5.55 0.85 -5.9 L0.85 -6.25 0.8 -6.25 M0.5 -6.85 L0.8 -6.75 0.8 -7.7 0.25 -7.05 0.1 -6.85 0.5 -6.85 M0.05 -3.9 Q-0.5 -3.85 -0.85 -3.6 -1.3 -3.35 -1.3 -2.95 -1.3 -2.7 -1.0 -2.4 -0.65 -2.05 -0.15 -2.05 0.65 -2.05 1.1 -2.45 1.35 -2.7 1.35 -2.95 1.35 -3.45 0.95 -3.7 0.55 -3.9 0.05 -3.9 M0.1 -4.8 Q-0.75 -4.8 -1.2 -5.1 L-1.6 -4.95 Q-2.2 -4.65 -2.65 -4.05 -3.2 -3.35 -3.2 -2.75 -3.2 -2.1 -2.35 -1.25 -1.75 -0.65 -1.05 -0.45 L-1.1 -0.55 -0.35 -0.55 Q1.15 -0.55 2.25 -1.6 3.1 -2.4 3.1 -2.9 3.1 -3.45 2.55 -4.0 2.15 -4.45 1.55 -4.8 L1.25 -5.0 1.25 -5.05 1.2 -5.05 Q0.6 -4.8 0.1 -4.8 M1.15 -3.9 Q1.35 -3.8 1.45 -3.6 1.65 -3.3 1.65 -2.9 1.65 -2.55 1.15 -2.05 0.55 -1.45 -0.35 -1.45 -0.9 -1.45 -1.45 -2.15 -1.9 -2.7 -1.9 -2.9 -1.9 -3.4 -1.35 -3.8 -0.85 -4.15 -0.15 -4.2 0.6 -4.25 1.05 -3.95 L1.15 -3.9 M-1.35 -15.35 L-1.35 -15.35" fill="#111111" fill-rule="evenodd" stroke="none"/>
      <path d="M0.35 -16.4 L0.6 -16.3 Q0.7 -16.2 0.8 -16.0 L0.85 -15.75 0.9 -15.65 0.9 -15.6 0.75 -15.4 0.75 -15.3 0.35 -15.25 0.1 -15.2 -0.9 -15.1 -0.85 -15.5 -0.8 -15.8 -0.65 -16.05 -0.55 -16.15 Q-0.45 -16.25 -0.35 -16.3 -0.1 -16.4 0.25 -16.4 L0.35 -16.4 M0.8 -6.25 L0.85 -6.25 0.85 -5.9 Q0.9 -5.55 0.6 -5.4 L-0.65 -5.4 Q-0.75 -5.45 -0.9 -5.55 L-0.9 -5.85 -0.85 -5.85 -0.2 -6.55 Q-0.05 -6.4 0.2 -6.35 L0.8 -6.25" fill="#bfbfbf" fill-rule="evenodd" stroke="none"/>
      <path d="M2.7 -11.8 Q2.55 -12.6 2.3 -13.4 2.1 -14.05 1.9 -14.55 L1.6 -15.55 1.45 -15.85 Q0.95 -16.7 0.3 -17.35 L0.05 -17.3 Q-0.3 -17.25 -0.55 -17.05 L-0.65 -16.95 -0.9 -16.65 Q-1.4 -16.1 -1.8 -15.25 -2.15 -14.5 -2.6 -13.1 L-2.4 -13.5 Q-2.6 -12.75 -2.75 -12.0 L-2.8 -11.7 -2.8 -11.6 -3.25 -12.2 Q-4.1 -13.55 -4.1 -14.1 -4.1 -14.8 -2.3 -19.95 -0.6 -24.65 -0.15 -25.95 L0.0 -25.4 Q0.0 -25.1 0.85 -22.8 1.75 -20.55 2.2 -19.55 L3.6 -16.05 Q3.95 -15.1 4.2 -14.55 L3.7 -13.55 Q3.2 -12.6 2.7 -11.8 M1.15 -3.9 L1.05 -3.95 Q0.6 -4.25 -0.15 -4.2 -0.85 -4.15 -1.35 -3.8 -1.9 -3.4 -1.9 -2.9 -1.9 -2.7 -1.45 -2.15 -0.9 -1.45 -0.35 -1.45 0.55 -1.45 1.15 -2.05 1.65 -2.55 1.65 -2.9 1.65 -3.3 1.45 -3.6 1.35 -3.8 1.15 -3.9 M0.1 -4.8 Q0.6 -4.8 1.2 -5.05 L1.25 -5.05 1.25 -5.0 1.55 -4.8 Q2.15 -4.45 2.55 -4.0 3.1 -3.45 3.1 -2.9 3.1 -2.4 2.25 -1.6 1.15 -0.55 -0.35 -0.55 L-1.1 -0.55 -1.05 -0.45 Q-1.75 -0.65 -2.35 -1.25 -3.2 -2.1 -3.2 -2.75 -3.2 -3.35 -2.65 -4.05 -2.2 -4.65 -1.6 -4.95 L-1.2 -5.1 Q-0.75 -4.8 0.1 -4.8 M-1.4 -4.0 L-1.25 -4.0 -1.2 -4.15 -1.4 -4.0" fill="#404040" fill-rule="evenodd" stroke="none"/>
      <path d="M0.3 -14.75 L0.0 -14.55 -0.8 -13.7 -0.8 -14.15 -0.75 -14.1 -0.8 -14.35 -0.8 -14.75 -0.3 -14.7 0.3 -14.75 M0.7 -14.2 L0.7 -12.95 Q0.3 -12.7 -0.4 -11.9 L-0.85 -11.35 -0.85 -13.1 0.1 -13.95 0.65 -14.35 0.6 -14.35 0.7 -14.4 0.7 -14.2 M0.75 -8.45 L0.75 -8.15 Q0.0 -7.85 -0.6 -7.05 L-0.9 -6.65 -0.9 -8.2 -0.85 -8.2 -0.8 -8.25 Q-0.35 -8.6 0.05 -9.15 L0.75 -9.85 0.75 -8.45 M0.2 -11.7 L0.7 -12.25 0.75 -10.35 0.3 -10.0 -0.1 -9.6 -0.1 -9.55 Q-0.75 -8.9 -0.8 -8.65 L-0.9 -8.5 -0.9 -10.0 -0.85 -10.8 Q-0.5 -11.05 0.2 -11.7 M0.5 -6.85 L0.1 -6.85 0.25 -7.05 0.8 -7.7 0.8 -6.75 0.5 -6.85" fill="#b00000" fill-rule="evenodd" stroke="none"/>
      <path d="M2.7 -11.8 Q3.2 -12.6 3.7 -13.55 L4.2 -14.55 Q3.95 -15.1 3.6 -16.05 L2.2 -19.55 Q1.75 -20.55 0.85 -22.8 0.0 -25.1 0.0 -25.4 L-0.15 -25.95 Q-0.6 -24.65 -2.3 -19.95 -4.1 -14.8 -4.1 -14.1 -4.1 -13.55 -3.25 -12.2 L-2.8 -11.6 -2.9 -10.9 -2.95 -10.6 -2.95 -10.15 -3.05 -10.3 -3.1 -10.45 -3.2 -10.3 -4.25 -12.3 -5.25 -14.05 Q-3.05 -20.1 -1.95 -23.35 -0.6 -27.2 0.05 -29.25 2.15 -21.95 5.15 -14.55 4.6 -13.6 4.0 -12.55 L2.9 -10.4 2.8 -11.3 Q3.05 -11.55 3.3 -11.95 L2.75 -11.35 2.7 -11.8 M-1.35 -15.35 L-1.35 -15.35" fill="#ffffff" fill-rule="evenodd" stroke="none"/>
      <path d="M2.8 -11.3 L2.75 -11.35 3.3 -11.95 Q3.05 -11.55 2.8 -11.3" fill="#666666" fill-rule="evenodd" stroke="none"/>
      <path d="M2.45 -6.05 L2.45 -6.05" fill="#333333" fill-rule="evenodd" stroke="none"/>
      <path d="M-1.4 -4.0 L-1.2 -4.15 -1.25 -4.0 -1.4 -4.0" fill="#323232" fill-rule="evenodd" stroke="none"/>
    </g>
    <g id="shape2" transform="matrix(1.0, 0.0, 0.0, 1.0, 1.15, 25.75)">
      <path d="M0.85 -12.95 Q0.85 -7.7 0.55 -4.0 0.25 -0.2 -0.15 -0.2 -0.55 -0.2 -0.85 -4.0 -1.15 -7.7 -1.15 -12.95 -1.15 -18.25 -0.85 -22.0 -0.55 -25.75 -0.15 -25.75 0.25 -25.75 0.55 -22.0 0.85 -18.25 0.85 -12.95" fill="#ffffff" fill-opacity="0.7529412" fill-rule="evenodd" stroke="none"/>
    </g>
  </defs>
</svg>
