<?xml version="1.0" encoding="UTF-8" standalone="no"?>
<svg xmlns:ffdec="https://www.free-decompiler.com/flash" xmlns:xlink="http://www.w3.org/1999/xlink" ffdec:objectType="frame" height="248.15px" width="290.6px" xmlns="http://www.w3.org/2000/svg">
  <g transform="matrix(1.0, 0.0, 0.0, 1.0, 157.15, 211.9)">
    <use ffdec:characterId="293" ffdec:characterName="a_Shoulder2" height="71.05" transform="matrix(0.1091, 0.1757, -0.1757, 0.1091, 8.3099, -69.1912)" width="64.75" xlink:href="#sprite0"/>
    <use ffdec:characterId="291" ffdec:characterName="a_Arm2" height="169.75" transform="matrix(0.0118, 0.205, -0.205, 0.0118, 12.0036, -64.406)" width="92.4" xlink:href="#sprite1"/>
    <use ffdec:characterId="289" ffdec:characterName="a_Hand2" height="74.55" transform="matrix(-0.1517, -0.1384, -0.1384, 0.1517, -12.5443, -43.1115)" width="73.85" xlink:href="#sprite2"/>
    <use ffdec:characterId="287" ffdec:characterName="a_ULeg2" height="92.4" transform="matrix(0.0712, 0.2006, -0.1883, 0.0792, 2.9155, -35.8565)" width="52.15" xlink:href="#sprite3"/>
    <use ffdec:characterId="285" ffdec:characterName="a_LLeg3" height="126.7" transform="matrix(0.2077, 0.0, 0.0405, 0.2076, -23.5333, -27.5368)" width="100.1" xlink:href="#sprite4"/>
    <use ffdec:characterId="283" ffdec:characterName="a_Torso" height="164.5" transform="matrix(0.2074, 0.0065, -0.0065, 0.2074, -4.4873, -68.3525)" width="157.15" xlink:href="#sprite5"/>
    <use ffdec:characterId="281" ffdec:characterName="a_Mantle" height="144.9" transform="matrix(0.2008, 0.0539, -0.0539, 0.2008, -1.8302, -85.4259)" width="197.05" xlink:href="#sprite6"/>
    <use ffdec:characterId="279" ffdec:characterName="a_Waist" height="163.1" transform="matrix(0.1995, 0.0554, -0.0554, 0.1995, -2.5242, -57.8985)" width="148.05" xlink:href="#sprite7"/>
    <use ffdec:characterId="277" ffdec:characterName="a_ULeg" height="92.05" transform="matrix(0.2182, -0.0445, 0.0617, 0.1923, 3.6264, -30.7656)" width="53.9" xlink:href="#sprite8"/>
    <use ffdec:characterId="275" ffdec:characterName="a_LLeg" height="140.0" transform="matrix(0.2082, 0.0, 0.0483, 0.2082, 9.7364, -25.1429)" width="79.8" xlink:href="#sprite9"/>
    <use ffdec:characterId="273" ffdec:characterName="a_Face" height="240.45" transform="matrix(0.2072, -0.0181, 0.0181, 0.2072, -17.8093, -106.7172)" width="256.55" xlink:href="#sprite10"/>
    <use ffdec:characterId="291" ffdec:characterName="a_Arm2" height="169.75" transform="matrix(0.166, -0.1233, 0.1233, 0.166, 16.8322, -62.1531)" width="92.4" xlink:href="#sprite1"/>
    <use ffdec:characterId="269" ffdec:characterName="a_Shoulder" height="61.25" transform="matrix(0.2505, -0.0793, 0.0793, 0.2505, 12.6913, -67.7575)" width="64.75" xlink:href="#sprite11"/>
    <use ffdec:characterId="289" ffdec:characterName="a_Hand2" height="74.55" transform="matrix(0.1591, -0.1329, 0.1329, 0.1591, 41.7997, -43.2983)" width="73.85" xlink:href="#sprite2"/>
  </g>
  <defs>
    <g id="sprite0" transform="matrix(1.0, 0.0, 0.0, 1.0, -1.4, 6.3)">
      <use ffdec:characterId="292" height="10.15" transform="matrix(7.0, 0.0, 0.0, 7.0, 1.4, -6.3)" width="9.25" xlink:href="#shape0"/>
    </g>
    <g id="shape0" transform="matrix(1.0, 0.0, 0.0, 1.0, -0.2, 0.9)">
      <path d="M5.6 1.0 Q5.75 1.0 5.85 1.0 6.0 1.05 6.15 0.95 6.3 0.85 6.45 0.85 6.55 0.9 7.3 1.35 L7.45 1.5 7.95 2.15 Q8.3 2.7 8.45 3.05 L7.95 3.15 Q7.65 2.25 6.45 1.5 6.0 1.2 5.6 1.0 M4.9 4.15 L4.8 4.2 Q4.45 4.4 3.9 5.5 L3.4 5.0 2.75 3.65 2.5 3.25 Q3.3 2.7 3.65 2.55 L4.75 3.95 4.9 4.15 M3.3 6.45 L3.05 6.75 3.0 6.85 2.85 6.55 Q2.8 6.65 2.75 6.65 L2.7 6.65 2.05 5.6 Q1.85 5.25 1.8 4.95 L1.7 4.85 Q1.75 4.5 1.8 4.2 L2.15 4.85 Q2.65 5.75 3.3 6.45 M3.15 2.0 L3.0 2.15 2.05 3.0 1.95 3.1 Q1.6 2.2 1.75 1.35 L1.6 1.25 1.25 1.8 Q1.1 2.05 1.1 2.3 1.05 2.4 1.25 3.0 L1.35 3.65 1.35 3.8 1.05 4.15 0.95 4.25 0.95 4.3 0.8 4.5 0.8 4.4 Q0.6 3.95 0.65 3.55 L0.7 3.35 Q0.9 1.45 2.15 0.4 3.15 -0.4 3.95 -0.35 4.8 -0.3 6.15 0.45 L5.95 0.55 Q5.6 0.7 5.4 0.85 5.3 0.35 4.5 0.15 4.0 0.05 3.45 0.0 2.45 -0.05 2.85 0.85 3.0 1.2 3.25 1.5 L3.0 1.7 3.1 1.6 Q3.2 1.75 3.2 1.9 L3.15 2.0 M7.6 3.7 L7.95 3.7 8.3 3.75 8.3 3.95 8.35 4.2 8.45 4.4 8.4 4.45 Q8.25 4.7 8.15 4.9 L7.95 5.15 7.8 4.65 7.6 3.7 M6.8 6.1 L6.65 6.2 Q5.9 6.75 5.45 7.2 L5.15 6.75 4.2 5.55 Q5.35 4.6 5.9 4.6 6.3 4.65 6.8 6.1 M4.95 7.85 Q4.8 8.0 4.75 8.15 L4.6 8.05 4.5 8.05 4.4 7.95 4.15 7.55 3.65 7.0 Q3.65 6.9 3.7 6.8 L3.65 6.7 3.75 6.35 4.15 6.9 Q4.5 7.4 4.95 7.85 M2.8 6.4 L2.65 6.2 2.75 6.4 2.8 6.4" fill="#244a24" fill-rule="evenodd" stroke="none"/>
      <path d="M7.95 3.15 L7.85 3.15 7.1 3.4 Q6.0 3.7 5.55 3.9 5.25 4.05 4.9 4.15 L4.75 3.95 3.65 2.55 Q3.3 2.7 2.5 3.25 L2.15 3.45 Q2.4 3.1 2.8 2.75 3.5 2.15 3.65 1.9 L3.7 1.85 3.55 1.8 Q3.4 1.8 3.15 2.0 L3.2 1.9 Q3.2 1.75 3.1 1.6 L3.0 1.7 3.25 1.5 Q3.0 1.2 2.85 0.85 2.45 -0.05 3.45 0.0 4.0 0.05 4.5 0.15 5.3 0.35 5.4 0.85 5.2 0.95 5.1 1.1 L5.25 1.05 5.5 1.05 5.6 1.0 Q6.0 1.2 6.45 1.5 7.65 2.25 7.95 3.15 M7.95 5.15 L7.9 5.2 6.9 6.0 6.8 6.1 Q6.3 4.65 5.9 4.6 5.35 4.6 4.2 5.55 L4.1 5.6 Q4.4 5.15 4.8 4.85 5.0 4.65 5.3 4.5 L5.45 4.4 5.65 4.3 Q6.35 3.95 7.1 3.8 L7.2 3.75 7.6 3.7 7.8 4.65 7.95 5.15 M4.85 1.1 Q4.3 1.3 4.2 1.45 4.4 1.4 4.8 1.25 L4.85 1.1" fill="#1b391b" fill-rule="evenodd" stroke="none"/>
      <path d="M6.15 -0.15 Q6.85 0.1 7.5 0.55 L7.65 0.55 Q7.85 0.6 8.45 1.1 9.15 1.75 9.1 2.15 L9.1 2.45 Q9.25 2.85 9.2 3.3 9.45 4.35 9.45 4.9 9.4 5.2 9.05 5.4 L8.75 5.5 8.7 5.55 Q8.3 5.6 8.1 5.7 7.7 5.8 7.25 6.15 6.8 6.55 6.1 7.85 5.65 8.75 5.25 8.9 5.2 9.05 5.05 9.1 4.8 9.25 4.6 9.25 L4.45 9.2 3.0 7.7 Q2.85 7.7 2.65 7.85 L2.3 7.25 Q1.45 5.9 1.15 5.6 L1.05 5.5 0.85 5.55 0.75 5.4 0.45 5.15 Q0.15 4.35 0.2 3.65 0.4 1.35 1.55 0.05 2.45 -0.95 3.35 -0.9 3.8 -0.85 6.15 -0.15 M7.55 0.55 L7.5 0.55 7.55 0.6 7.55 0.55 M7.95 3.15 L8.45 3.05 Q8.3 2.7 7.95 2.15 L7.45 1.5 7.3 1.35 Q6.55 0.9 6.45 0.85 6.3 0.85 6.15 0.95 6.0 1.05 5.85 1.0 5.75 1.0 5.6 1.0 L5.5 1.05 5.25 1.05 5.1 1.1 Q5.2 0.95 5.4 0.85 5.6 0.7 5.95 0.55 L6.15 0.45 Q4.8 -0.3 3.95 -0.35 3.15 -0.4 2.15 0.4 0.9 1.45 0.7 3.35 L0.65 3.55 Q0.6 3.95 0.8 4.4 L0.8 4.5 0.95 4.3 0.95 4.25 1.05 4.15 1.35 3.8 1.9 3.15 1.95 3.1 2.05 3.0 3.0 2.15 3.15 2.0 Q3.4 1.8 3.55 1.8 L3.7 1.85 3.65 1.9 Q3.5 2.15 2.8 2.75 2.4 3.1 2.15 3.45 L2.0 3.75 Q1.9 3.95 1.8 4.2 1.75 4.5 1.7 4.85 L1.8 4.95 Q1.85 5.25 2.05 5.6 L2.7 6.65 2.75 6.65 Q2.8 6.65 2.85 6.55 L3.0 6.85 3.05 6.75 3.3 6.45 Q3.65 5.9 3.85 5.6 L3.9 5.5 Q4.45 4.4 4.8 4.2 L4.9 4.15 Q5.25 4.05 5.55 3.9 6.0 3.7 7.1 3.4 L7.85 3.15 7.95 3.15 M7.95 5.15 L8.15 4.9 Q8.25 4.7 8.4 4.45 L8.45 4.4 8.35 4.2 8.3 3.95 8.3 3.75 7.95 3.7 7.6 3.7 7.2 3.75 7.1 3.8 Q6.35 3.95 5.65 4.3 L5.45 4.4 5.3 4.5 Q5.0 4.65 4.8 4.85 4.4 5.15 4.1 5.6 3.9 5.95 3.75 6.35 L3.65 6.7 3.7 6.8 Q3.65 6.9 3.65 7.0 L4.15 7.55 4.4 7.95 4.5 8.05 4.6 8.05 4.75 8.15 Q4.8 8.0 4.95 7.85 5.1 7.55 5.45 7.2 5.9 6.75 6.65 6.2 L6.8 6.1 6.9 6.0 7.9 5.2 7.95 5.15 M4.85 1.1 L4.8 1.25 Q4.4 1.4 4.2 1.45 4.3 1.3 4.85 1.1 M2.8 6.4 L2.75 6.4 2.65 6.2 2.8 6.4" fill="#0b0b0b" fill-rule="evenodd" stroke="none"/>
      <path d="M3.9 5.5 L3.85 5.6 Q3.65 5.9 3.3 6.45 2.65 5.75 2.15 4.85 L1.8 4.2 Q1.9 3.95 2.0 3.75 L2.15 3.45 2.5 3.25 2.75 3.65 3.4 5.0 3.9 5.5 M1.95 3.1 L1.9 3.15 1.35 3.8 1.35 3.65 1.25 3.0 Q1.05 2.4 1.1 2.3 1.1 2.05 1.25 1.8 L1.6 1.25 1.75 1.35 Q1.6 2.2 1.95 3.1 M5.45 7.2 Q5.1 7.55 4.95 7.85 4.5 7.4 4.15 6.9 L3.75 6.35 Q3.9 5.95 4.1 5.6 L4.2 5.55 5.15 6.75 5.45 7.2" fill="#949494" fill-rule="evenodd" stroke="none"/>
    </g>
    <g id="sprite1" transform="matrix(1.0, 0.0, 0.0, 1.0, 2.45, 4.55)">
      <use ffdec:characterId="290" height="24.25" transform="matrix(7.0, 0.0, 0.0, 7.0, -2.45, -4.55)" width="13.2" xlink:href="#shape1"/>
    </g>
    <g id="shape1" transform="matrix(1.0, 0.0, 0.0, 1.0, 0.35, 0.65)">
      <path d="M11.4 23.6 L10.65 23.6 Q10.2 23.6 9.7 23.15 9.65 22.4 9.15 21.25 L9.15 21.2 7.9 18.6 Q6.05 14.95 6.05 12.9 L6.0 12.05 6.1 12.05 Q6.45 12.05 6.7 12.35 7.05 12.8 7.3 13.0 L7.35 13.05 Q7.4 13.05 7.4 12.9 7.4 12.0 5.8 10.6 L4.8 9.85 4.1 8.85 3.5 8.05 2.8 6.4 2.45 5.55 Q2.4 5.25 2.25 5.0 L1.7 4.35 Q0.85 3.45 0.85 2.25 0.85 2.1 0.95 1.85 L1.15 1.45 Q1.55 0.6 1.8 0.35 L1.85 0.35 Q2.55 0.1 2.75 0.1 3.65 0.1 4.35 0.35 L4.15 1.25 Q4.15 1.45 3.4 3.2 L2.75 4.85 Q2.75 4.95 2.85 5.05 3.0 5.15 3.15 5.15 3.7 5.15 4.35 4.65 L4.85 4.4 4.8 4.45 Q4.8 4.9 5.75 6.6 L6.85 8.5 Q7.0 8.9 7.4 11.35 7.85 13.55 8.2 13.55 8.55 13.55 8.85 12.5 L9.15 13.95 Q10.65 21.35 11.4 23.6" fill="#356a6a" fill-rule="evenodd" stroke="none"/>
      <path d="M12.15 23.2 Q11.95 23.5 11.55 23.6 L11.4 23.6 Q10.65 21.35 9.15 13.95 L8.85 12.5 Q8.55 13.55 8.2 13.55 7.85 13.55 7.4 11.35 7.0 8.9 6.85 8.5 L5.75 6.6 Q4.8 4.9 4.8 4.45 L4.85 4.4 5.9 3.8 6.2 3.6 6.4 3.55 Q6.5 4.4 6.85 6.25 7.4 9.15 7.55 9.6 7.7 9.1 7.7 8.65 7.7 7.9 7.85 6.55 L7.85 6.25 8.3 7.05 Q8.5 8.35 8.9 9.35 8.8 9.55 8.8 9.75 8.8 9.9 10.3 13.05 11.8 16.35 11.8 17.7 L11.65 18.75 Q11.5 19.6 11.5 19.85 L11.8 21.05 11.9 21.65 Q12.05 22.4 12.05 22.55 12.05 22.8 12.1 23.0 L12.1 23.05 12.15 23.2 M4.35 0.35 Q5.35 0.6 5.9 1.35 L6.15 1.75 5.9 2.2 Q5.4 2.95 5.25 3.5 5.0 4.1 4.4 4.3 3.85 4.45 3.75 4.65 L3.9 4.85 3.95 4.85 4.1 4.75 Q4.2 4.7 4.35 4.65 3.7 5.15 3.15 5.15 3.0 5.15 2.85 5.05 2.75 4.95 2.75 4.85 L3.4 3.2 Q4.15 1.45 4.15 1.25 L4.35 0.35" fill="#275050" fill-rule="evenodd" stroke="none"/>
      <path d="M9.7 23.15 L9.7 23.55 9.55 23.55 6.7 18.3 Q5.6 16.3 5.3 15.55 4.75 14.0 4.75 11.95 L4.75 11.65 Q4.75 10.9 2.9 8.4 1.35 6.3 1.1 5.55 0.8 5.2 0.5 4.7 -0.35 3.3 -0.35 2.3 -0.3 1.6 -0.05 0.85 0.45 -0.45 1.25 -0.5 1.5 -0.65 1.75 -0.65 3.35 -0.65 5.2 -0.05 6.8 0.5 7.3 1.25 7.4 1.3 7.5 1.4 7.75 1.6 7.75 1.9 7.75 2.15 7.55 2.5 8.1 3.7 9.0 6.4 L9.95 9.25 Q10.85 10.0 11.8 13.15 12.25 14.7 12.55 16.4 12.85 17.95 12.85 18.7 L12.8 20.0 Q12.75 21.0 12.75 21.95 L12.65 23.35 12.6 23.4 12.4 23.4 Q12.25 23.4 12.15 23.2 L12.1 23.05 12.1 23.0 Q12.05 22.8 12.05 22.55 12.05 22.4 11.9 21.65 L11.8 21.05 11.5 19.85 Q11.5 19.6 11.65 18.75 L11.8 17.7 Q11.8 16.35 10.3 13.05 8.8 9.9 8.8 9.75 8.8 9.55 8.9 9.35 8.5 8.35 8.3 7.05 L7.85 6.25 7.85 6.55 Q7.7 7.9 7.7 8.65 7.7 9.1 7.55 9.6 7.4 9.15 6.85 6.25 6.5 4.4 6.4 3.55 L6.2 3.6 5.9 3.8 4.85 4.4 4.35 4.65 Q4.2 4.7 4.1 4.75 L3.95 4.85 3.9 4.85 3.75 4.65 Q3.85 4.45 4.4 4.3 5.0 4.1 5.25 3.5 5.4 2.95 5.9 2.2 L6.15 1.75 5.9 1.35 Q5.35 0.6 4.35 0.35 3.65 0.1 2.75 0.1 2.55 0.1 1.85 0.35 L1.8 0.35 Q1.55 0.6 1.15 1.45 L0.95 1.85 Q0.85 2.1 0.85 2.25 0.85 3.45 1.7 4.35 L2.25 5.0 Q2.4 5.25 2.45 5.55 L2.8 6.4 3.5 8.05 4.1 8.85 4.8 9.85 5.8 10.6 Q7.4 12.0 7.4 12.9 7.4 13.05 7.35 13.05 L7.3 13.0 Q7.05 12.8 6.7 12.35 6.45 12.05 6.1 12.05 L6.0 12.05 6.05 12.9 Q6.05 14.95 7.9 18.6 L9.15 21.2 9.15 21.25 Q9.65 22.4 9.7 23.15" fill="#0b0b0b" fill-rule="evenodd" stroke="none"/>
    </g>
    <g id="sprite2" transform="matrix(1.0, 0.0, 0.0, 1.0, -3.5, 14.35)">
      <use ffdec:characterId="288" height="10.65" transform="matrix(7.0, 0.0, 0.0, 7.0, 3.5, -14.35)" width="10.55" xlink:href="#shape2"/>
    </g>
    <g id="shape2" transform="matrix(1.0, 0.0, 0.0, 1.0, -0.5, 2.05)">
      <path d="M5.45 2.5 L7.15 2.05 7.75 1.85 7.85 1.8 8.75 1.4 8.9 1.35 8.85 1.25 Q8.9 1.05 9.1 0.75 9.25 0.45 9.25 0.35 L9.2 -0.1 Q9.15 -0.45 9.15 -0.55 9.15 -0.65 9.05 -0.75 8.6 -1.0 7.4 -1.15 L5.35 -1.2 5.2 -1.2 5.1 -1.15 4.6 -1.0 4.4 -0.9 3.95 -0.65 2.35 0.25 2.15 0.35 Q2.0 0.6 2.0 0.65 2.0 1.0 2.2 1.45 2.4 1.9 2.4 2.3 L2.45 2.4 2.9 2.7 3.0 2.75 3.15 2.8 3.25 2.85 3.95 2.8 4.1 2.75 4.45 2.7 4.7 2.7 5.45 2.5 M6.25 -1.95 L7.35 -1.85 8.05 -1.65 Q9.0 -1.75 9.5 -1.65 10.15 -1.55 10.15 -1.2 L10.0 -0.75 10.05 0.05 10.0 0.7 10.05 0.8 Q10.05 1.1 10.0 1.25 L9.95 1.25 9.95 1.6 9.9 1.95 9.9 2.05 10.1 2.2 9.95 2.2 Q10.0 2.6 10.0 3.05 L10.05 3.05 Q10.55 3.6 11.05 4.35 11.1 4.7 10.1 5.7 L10.1 5.75 Q9.95 5.9 9.85 6.4 L9.65 7.4 Q9.2 8.55 7.6 8.6 6.3 8.6 5.8 7.9 L5.5 7.95 Q4.5 7.95 3.65 7.6 3.25 7.45 3.0 7.25 2.7 7.65 2.35 7.65 2.0 7.65 1.25 7.05 0.45 6.45 0.5 6.15 0.5 4.55 1.35 3.95 L1.35 3.85 Q1.35 3.65 1.4 3.4 1.45 3.3 1.5 3.15 L1.65 3.15 1.85 2.8 Q1.85 2.7 1.85 2.5 L0.95 0.45 Q0.95 -0.05 3.4 -1.1 5.5 -2.0 5.95 -2.05 L6.25 -1.95 M5.75 5.4 L5.85 5.6 Q6.3 6.2 7.7 6.2 L8.35 6.05 9.0 5.85 Q9.15 5.85 9.7 5.4 10.2 4.95 10.2 4.7 10.25 3.95 9.4 3.5 L8.85 3.15 8.65 3.05 8.35 2.95 9.05 3.0 Q8.75 2.65 8.75 2.5 L8.75 2.3 8.4 2.35 7.65 2.25 5.0 2.65 4.9 2.65 4.6 2.7 4.5 2.75 4.95 3.0 5.9 3.65 6.15 3.6 8.15 3.45 8.65 3.5 Q8.9 3.55 8.9 3.8 L8.9 3.95 8.85 4.0 Q8.85 4.1 8.6 4.1 L7.65 4.1 7.15 4.1 6.4 4.2 6.3 4.2 Q5.75 4.25 5.45 4.4 L5.5 4.6 5.6 4.95 5.6 5.05 5.7 5.35 5.75 5.4 M7.1 6.7 L6.45 6.6 6.45 6.75 Q6.45 6.95 6.4 7.2 L6.4 7.35 6.4 7.45 Q6.45 7.7 6.55 7.8 6.8 8.15 8.05 8.1 8.65 8.1 8.9 7.7 9.0 7.45 9.05 6.8 L9.05 6.6 Q8.75 6.75 8.5 6.75 L7.1 6.7 M4.15 2.8 L3.0 3.1 2.4 3.15 2.3 3.25 2.1 3.3 1.9 3.65 1.9 3.7 2.45 3.6 Q3.15 3.6 3.8 3.85 4.15 4.0 4.3 4.15 4.65 4.0 4.9 4.0 5.05 3.85 5.25 3.8 4.65 3.4 4.15 2.8 M2.75 4.25 L2.5 4.25 Q1.45 4.3 1.2 4.55 1.05 4.7 1.0 5.25 L1.0 5.35 Q1.0 5.85 1.1 6.1 1.35 6.8 2.25 6.8 2.35 6.8 2.5 6.6 2.55 6.5 2.65 6.45 L2.65 6.4 Q2.65 5.8 3.05 5.2 3.35 4.85 3.65 4.6 L3.65 4.55 Q3.4 4.3 2.75 4.25 M4.9 5.3 Q4.8 5.05 4.8 4.8 L4.8 4.75 4.3 4.85 4.2 4.85 Q3.8 4.95 3.55 5.15 3.15 5.5 3.15 6.2 L3.15 6.25 Q3.15 6.55 3.5 6.9 4.0 7.45 4.95 7.45 5.3 7.45 5.55 7.05 L5.55 6.7 Q5.55 6.45 5.6 6.3 L5.3 6.05 Q5.0 5.8 4.9 5.3" fill="#0b0b0b" fill-rule="evenodd" stroke="none"/>
      <path d="M4.4 -0.9 L4.6 -1.0 5.1 -1.15 5.2 -1.2 5.35 -1.2 7.4 -1.15 Q8.6 -1.0 9.05 -0.75 9.15 -0.65 9.15 -0.55 9.15 -0.45 9.2 -0.1 L9.25 0.35 Q9.25 0.45 9.1 0.75 8.9 1.05 8.85 1.25 L8.9 1.35 8.75 1.4 7.85 1.8 7.75 1.85 7.15 2.05 5.45 2.5 5.1 1.4 6.3 1.35 Q6.6 1.35 7.1 1.2 7.7 1.05 7.95 0.9 7.65 0.55 6.0 0.2 5.25 0.05 4.7 -0.05 L4.4 -0.9" fill="#244a24" fill-rule="evenodd" stroke="none"/>
      <path d="M7.65 4.1 L8.6 4.1 Q8.85 4.1 8.85 4.0 L8.9 3.95 8.9 3.8 Q8.9 3.55 8.65 3.5 L8.15 3.45 6.15 3.6 5.9 3.65 4.95 3.0 4.5 2.75 4.6 2.7 4.9 2.65 5.0 2.65 7.65 2.25 8.4 2.35 8.75 2.3 8.75 2.5 Q8.75 2.65 9.05 3.0 L8.35 2.95 8.65 3.05 8.85 3.15 9.4 3.5 Q10.25 3.95 10.2 4.7 10.2 4.95 9.7 5.4 9.15 5.85 9.0 5.85 L8.35 6.05 7.7 6.2 Q6.3 6.2 5.85 5.6 L5.75 5.4 6.4 5.0 Q7.05 4.55 7.65 4.1 M5.5 4.6 L5.45 4.4 Q5.75 4.25 6.3 4.2 L5.8 4.4 5.5 4.5 5.5 4.6 M6.4 7.35 L6.55 7.2 7.1 6.7 8.5 6.75 Q8.75 6.75 9.05 6.6 L9.05 6.8 Q9.0 7.45 8.9 7.7 8.65 8.1 8.05 8.1 6.8 8.15 6.55 7.8 6.45 7.7 6.4 7.45 L6.4 7.35 M4.15 2.8 Q4.65 3.4 5.25 3.8 5.05 3.85 4.9 4.0 4.65 4.0 4.3 4.15 4.15 4.0 3.8 3.85 3.15 3.6 2.45 3.6 L1.9 3.7 1.9 3.65 2.1 3.3 2.3 3.25 2.4 3.15 3.0 3.1 4.15 2.8 M1.0 5.35 L1.75 4.9 Q2.35 4.5 2.75 4.25 3.4 4.3 3.65 4.55 L3.65 4.6 Q3.35 4.85 3.05 5.2 2.65 5.8 2.65 6.4 L2.65 6.45 Q2.55 6.5 2.5 6.6 2.35 6.8 2.25 6.8 1.35 6.8 1.1 6.1 1.0 5.85 1.0 5.35 M4.9 5.3 Q5.0 5.8 5.3 6.05 L5.6 6.3 Q5.55 6.45 5.55 6.7 L5.55 7.05 Q5.3 7.45 4.95 7.45 4.0 7.45 3.5 6.9 3.15 6.55 3.15 6.25 3.9 6.15 4.65 5.55 L4.9 5.35 4.9 5.3 M3.55 5.15 Q3.8 4.95 4.2 4.85 L3.55 5.15" fill="#121212" fill-rule="evenodd" stroke="none"/>
      <path d="M5.75 5.4 L5.7 5.35 5.6 5.05 5.6 4.95 5.5 4.6 5.5 4.5 5.8 4.4 6.3 4.2 6.4 4.2 7.15 4.1 7.65 4.1 Q7.05 4.55 6.4 5.0 L5.75 5.4 M6.4 7.35 L6.4 7.2 Q6.45 6.95 6.45 6.75 L6.45 6.6 7.1 6.7 6.55 7.2 6.4 7.35 M2.75 4.25 Q2.35 4.5 1.75 4.9 L1.0 5.35 1.0 5.25 Q1.05 4.7 1.2 4.55 1.45 4.3 2.5 4.25 L2.75 4.25 M4.2 4.85 L4.3 4.85 4.8 4.75 4.8 4.8 Q4.8 5.05 4.9 5.3 L4.9 5.35 4.65 5.55 Q3.9 6.15 3.15 6.25 L3.15 6.2 Q3.15 5.5 3.55 5.15 L4.2 4.85" fill="#474747" fill-rule="evenodd" stroke="none"/>
      <path d="M4.4 -0.9 L4.7 -0.05 Q5.25 0.05 6.0 0.2 7.65 0.55 7.95 0.9 7.7 1.05 7.1 1.2 6.6 1.35 6.3 1.35 L5.1 1.4 5.45 2.5 4.7 2.7 4.45 2.7 4.1 2.75 3.95 2.8 3.25 2.85 3.15 2.8 3.0 2.75 2.9 2.7 2.45 2.4 2.4 2.3 Q2.4 1.9 2.2 1.45 2.0 1.0 2.0 0.65 2.0 0.6 2.15 0.35 L2.35 0.25 3.95 -0.65 4.4 -0.9" fill="#1b391b" fill-rule="evenodd" stroke="none"/>
    </g>
    <g id="sprite3" transform="matrix(1.0, 0.0, 0.0, 1.0, -2.1, 0.35)">
      <use ffdec:characterId="286" height="13.2" transform="matrix(7.0, 0.0, 0.0, 7.0, 2.1, -0.35)" width="7.45" xlink:href="#shape3"/>
    </g>
    <g id="shape3" transform="matrix(1.0, 0.0, 0.0, 1.0, -0.3, 0.05)">
      <path d="M1.35 2.8 L2.0 1.95 2.1 1.95 1.7 3.75 1.9 3.85 Q2.1 4.3 1.95 4.8 L1.8 4.95 Q1.65 5.05 1.45 5.05 1.1 6.8 0.45 8.5 L0.45 8.45 Q0.1 6.7 0.55 5.1 0.9 3.9 1.35 2.8 M1.6 7.75 Q1.6 7.9 1.55 8.0 L1.4 8.3 Q1.35 8.4 1.25 8.4 L1.2 8.4 Q1.0 8.3 0.85 8.05 0.95 7.75 1.25 7.6 L1.55 7.65 1.6 7.75 M2.25 6.75 L2.3 6.65 Q2.5 6.35 2.8 6.55 L2.85 6.7 Q2.9 6.95 2.65 7.0 L2.55 7.0 Q2.35 6.9 2.25 6.75" fill="#353535" fill-rule="evenodd" stroke="none"/>
      <path d="M0.45 8.5 Q1.1 6.8 1.45 5.05 1.65 5.05 1.8 4.95 L1.95 4.8 Q2.1 4.3 1.9 3.85 L1.7 3.75 2.1 1.95 2.0 1.95 1.35 2.8 Q1.95 1.55 2.9 0.45 L3.4 -0.05 Q4.2 -0.05 4.8 0.5 6.8 2.35 7.45 5.0 7.75 6.3 7.75 7.7 7.7 9.15 7.15 10.5 6.55 11.75 5.5 12.7 4.6 13.5 3.45 12.85 1.5 11.85 0.8 9.7 0.6 9.1 0.45 8.5 M2.25 6.75 Q2.35 6.9 2.55 7.0 L2.65 7.0 Q2.9 6.95 2.85 6.7 L2.8 6.55 Q2.5 6.35 2.3 6.65 L2.25 6.75 M1.6 7.75 L1.55 7.65 1.25 7.6 Q0.95 7.75 0.85 8.05 1.0 8.3 1.2 8.4 L1.25 8.4 Q1.35 8.4 1.4 8.3 L1.55 8.0 Q1.6 7.9 1.6 7.75" fill="#0b0b0b" fill-rule="evenodd" stroke="none"/>
    </g>
    <g id="sprite4" transform="matrix(1.0, 0.0, 0.0, 1.0, 37.1, -1.75)">
      <use ffdec:characterId="284" height="18.1" transform="matrix(7.0, 0.0, 0.0, 7.0, -37.1, 1.75)" width="14.3" xlink:href="#shape4"/>
    </g>
    <g id="shape4" transform="matrix(1.0, 0.0, 0.0, 1.0, 5.3, -0.25)">
      <path d="M1.2 13.65 Q0.8 13.95 -0.4 14.6 -0.25 14.7 -0.25 15.0 -0.25 15.15 -0.65 15.5 -1.15 15.85 -1.45 15.85 -1.8 15.85 -2.0 15.55 L-2.0 15.45 -3.45 16.2 Q-2.7 15.35 -1.55 14.4 L-1.45 14.3 -0.65 13.65 -0.65 13.6 -0.6 13.6 -0.6 13.55 -0.05 13.4 0.3 13.3 Q0.75 13.45 1.2 13.65 M3.15 17.05 L4.65 16.4 4.95 16.6 3.6 16.95 3.15 17.05 M1.95 15.5 Q1.75 15.6 1.65 15.6 1.5 15.55 1.45 15.45 1.35 15.35 1.35 15.3 L1.4 15.0 2.05 14.95 Q2.05 15.05 2.2 15.2 2.15 15.35 1.95 15.5 M0.95 14.8 L0.85 15.1 Q0.8 15.1 0.4 15.25 L0.2 15.15 Q0.15 15.1 0.15 14.9 L0.15 14.65 Q0.4 14.55 0.8 14.65 L0.95 14.8 M-0.35 16.2 Q-0.5 16.45 -0.85 16.45 -1.15 16.45 -1.1 16.4 -1.2 16.3 -1.2 16.1 -0.8 15.9 -0.4 16.1 L-0.35 16.2" fill="#474747" fill-rule="evenodd" stroke="none"/>
      <path d="M4.65 11.65 Q5.6 12.35 6.8 13.25 6.9 12.4 7.15 11.5 L7.4 10.65 Q8.05 9.05 8.05 8.9 8.05 8.35 7.95 7.75 L7.95 7.7 Q7.95 7.2 7.85 6.25 7.75 5.25 7.55 4.85 L7.6 4.6 7.55 4.6 Q7.05 5.0 5.55 5.55 L4.7 5.9 3.45 6.3 2.95 6.45 Q3.6 6.0 4.25 5.55 L4.85 5.35 4.9 5.3 4.95 5.3 5.75 4.95 6.15 4.75 6.6 4.4 Q6.7 4.3 6.7 4.2 L6.7 4.15 6.8 4.15 6.7 4.1 6.7 3.95 6.65 3.95 6.55 4.0 4.85 3.0 4.65 2.9 Q2.95 1.9 2.1 1.45 1.65 1.25 1.4 1.15 1.25 1.65 1.1 2.2 0.65 3.7 0.65 4.85 L0.7 5.15 0.95 5.95 1.25 6.95 1.7 6.75 Q1.95 6.65 2.15 6.65 L2.4 6.65 2.3 6.85 2.2 7.0 2.05 7.1 1.8 7.3 1.7 7.35 Q1.15 7.65 1.05 7.65 L0.85 7.6 Q0.7 8.45 0.3 9.2 0.6 9.25 0.95 9.4 1.25 9.5 1.65 9.7 2.15 9.95 2.75 10.35 3.5 10.85 4.45 11.5 L4.65 11.65 M7.8 3.6 Q8.7 3.45 8.7 4.25 8.7 4.55 8.8 5.0 8.9 5.5 8.9 5.7 L8.95 6.3 Q9.0 6.75 9.0 7.2 L8.95 8.15 8.95 8.65 Q8.95 9.5 8.7 10.0 8.6 10.25 8.2 10.7 7.85 11.1 7.7 11.5 L7.65 11.55 Q7.45 12.2 7.45 13.3 L7.45 13.7 7.7 14.2 8.15 15.35 Q8.4 15.95 8.6 16.3 8.55 16.5 8.4 16.65 8.25 16.9 7.9 16.95 L7.85 16.95 Q7.7 17.2 7.35 17.2 L7.25 17.2 Q7.05 17.35 6.65 17.35 L6.35 17.3 Q5.75 17.55 4.55 17.75 L0.8 18.35 -2.45 18.35 -3.9 18.15 Q-5.3 17.85 -5.3 17.6 -5.3 17.0 -3.3 15.05 -1.95 13.7 -1.5 13.05 -1.7 13.0 -1.75 12.9 -1.8 12.85 -1.8 12.65 L-1.55 12.1 -1.35 11.5 -0.9 10.1 Q-0.2 7.95 -0.1 7.65 -0.05 7.4 -0.15 6.45 -0.25 5.7 0.0 5.35 L0.0 5.3 -0.1 4.1 Q-0.1 3.55 0.0 2.95 0.0 2.25 0.65 0.85 1.0 0.05 1.6 0.3 1.75 0.35 2.1 0.65 L2.65 1.05 Q3.6 1.7 5.9 2.8 7.05 3.4 7.5 3.65 L7.8 3.6 M4.05 11.5 L3.6 11.15 Q2.35 10.3 1.45 10.0 L1.1 9.95 Q0.7 9.75 0.5 9.75 -0.25 10.15 -0.3 10.15 L-0.65 10.65 Q-0.9 11.05 -0.95 11.5 L-0.95 11.75 0.65 12.85 2.8 14.3 Q3.2 14.55 4.45 15.15 L4.6 15.3 4.8 15.45 Q5.5 16.05 6.2 16.2 L6.45 16.2 6.7 16.25 Q7.0 16.25 7.1 16.15 7.25 16.05 7.25 15.7 7.15 15.2 7.0 14.65 6.9 14.25 6.75 14.0 L6.75 13.85 6.15 13.4 5.6 12.8 5.55 12.75 Q4.9 12.1 4.05 11.5 M4.65 16.4 L3.35 15.2 Q2.25 14.2 1.35 13.75 L1.2 13.65 Q0.75 13.45 0.3 13.3 L-0.15 13.2 -0.6 13.55 -0.6 13.6 -0.65 13.6 -0.65 13.65 -1.45 14.3 -1.55 14.4 Q-2.7 15.35 -3.45 16.2 -3.95 16.7 -4.25 17.15 -4.1 17.3 -3.35 17.45 -2.55 17.65 -2.35 17.7 L0.7 17.7 Q1.65 17.45 3.15 17.05 L3.6 16.95 4.95 16.6 4.65 16.4" fill="#0b0b0b" fill-rule="evenodd" stroke="none"/>
      <path d="M4.7 5.9 L4.75 6.1 Q5.25 7.4 5.25 7.65 5.25 7.95 4.9 9.5 4.7 10.45 4.65 11.5 L4.65 11.65 4.45 11.5 Q3.5 10.85 2.75 10.35 2.15 9.95 1.65 9.7 L1.9 8.45 2.2 7.0 2.3 6.85 2.4 6.9 3.45 6.3 4.7 5.9 M0.95 9.4 Q0.6 9.25 0.3 9.2 0.7 8.45 0.85 7.6 L1.05 7.65 1.0 8.55 0.95 9.4 M2.15 6.65 Q1.95 6.65 1.7 6.75 L1.25 6.95 0.95 5.95 0.7 5.15 Q1.0 3.55 1.9 1.9 L2.1 1.45 Q2.95 1.9 4.65 2.9 L4.85 3.0 Q3.5 4.6 2.15 6.6 L2.15 6.65 M4.6 15.3 L4.45 15.15 Q3.2 14.55 2.8 14.3 L0.65 12.85 -0.95 11.75 -0.95 11.5 Q-0.9 11.05 -0.65 10.65 L-0.3 10.15 Q-0.25 10.15 0.5 9.75 0.7 9.75 1.1 9.95 L1.45 10.0 Q2.35 10.3 3.6 11.15 L4.05 11.5 3.95 11.45 3.95 11.5 4.1 12.25 4.55 14.65 4.6 15.3 M0.1 10.95 Q0.4 10.45 0.45 10.2 -0.05 10.3 -0.35 10.6 -0.6 10.9 -0.6 11.2 -0.6 11.4 -0.55 11.5 L-0.35 11.6 -0.25 11.5 Q-0.1 11.3 0.1 10.95" fill="#244a24" fill-rule="evenodd" stroke="none"/>
      <path d="M4.7 5.9 L5.55 5.55 Q7.05 5.0 7.55 4.6 L7.6 4.6 7.55 4.85 Q7.75 5.25 7.85 6.25 7.95 7.2 7.95 7.7 L7.95 7.75 Q8.05 8.35 8.05 8.9 8.05 9.05 7.4 10.65 L7.15 11.5 Q6.9 12.4 6.8 13.25 5.6 12.35 4.65 11.65 L4.65 11.5 Q4.7 10.45 4.9 9.5 5.25 7.95 5.25 7.65 5.25 7.4 4.75 6.1 L4.7 5.9 M2.3 6.85 L2.4 6.65 2.15 6.65 2.15 6.6 Q3.5 4.6 4.85 3.0 L6.55 4.0 6.65 3.95 6.7 3.95 6.7 4.1 6.8 4.15 6.7 4.15 6.7 4.2 Q6.7 4.3 6.6 4.4 L6.15 4.75 5.75 4.95 4.95 5.3 4.9 5.3 4.85 5.35 4.25 5.55 Q3.6 6.0 2.95 6.45 L3.45 6.3 2.4 6.9 2.3 6.85 M4.6 15.3 L4.55 14.65 4.1 12.25 3.95 11.5 3.95 11.45 4.05 11.5 Q4.9 12.1 5.55 12.75 L5.6 12.8 6.15 13.4 6.75 13.85 6.75 14.0 Q6.9 14.25 7.0 14.65 7.15 15.2 7.25 15.7 7.25 16.05 7.1 16.15 7.0 16.25 6.7 16.25 L6.45 16.2 6.2 16.2 Q5.5 16.05 4.8 15.45 L4.6 15.3" fill="#1b391b" fill-rule="evenodd" stroke="none"/>
      <path d="M1.65 9.7 Q1.25 9.5 0.95 9.4 L1.0 8.55 1.05 7.65 Q1.15 7.65 1.7 7.35 L1.8 7.3 2.05 7.1 2.2 7.0 1.9 8.45 1.65 9.7 M0.7 5.15 L0.65 4.85 Q0.65 3.7 1.1 2.2 1.25 1.65 1.4 1.15 1.65 1.25 2.1 1.45 L1.9 1.9 Q1.0 3.55 0.7 5.15 M0.1 10.95 Q-0.1 11.3 -0.25 11.5 L-0.35 11.6 -0.55 11.5 Q-0.6 11.4 -0.6 11.2 -0.6 10.9 -0.35 10.6 -0.05 10.3 0.45 10.2 0.4 10.45 0.1 10.95" fill="#949494" fill-rule="evenodd" stroke="none"/>
      <path d="M1.2 13.65 L1.35 13.75 Q2.25 14.2 3.35 15.2 L4.65 16.4 3.15 17.05 Q1.65 17.45 0.7 17.7 L-2.35 17.7 Q-2.55 17.65 -3.35 17.45 -4.1 17.3 -4.25 17.15 -3.95 16.7 -3.45 16.2 L-2.0 15.45 -2.0 15.55 Q-1.8 15.85 -1.45 15.85 -1.15 15.85 -0.65 15.5 -0.25 15.15 -0.25 15.0 -0.25 14.7 -0.4 14.6 0.8 13.95 1.2 13.65 M0.3 13.3 L-0.05 13.4 -0.6 13.55 -0.15 13.2 0.3 13.3 M0.95 14.8 L0.8 14.65 Q0.4 14.55 0.15 14.65 L0.15 14.9 Q0.15 15.1 0.2 15.15 L0.4 15.25 Q0.8 15.1 0.85 15.1 L0.95 14.8 M1.95 15.5 Q2.15 15.35 2.2 15.2 2.05 15.05 2.05 14.95 L1.4 15.0 1.35 15.3 Q1.35 15.35 1.45 15.45 1.5 15.55 1.65 15.6 1.75 15.6 1.95 15.5 M-0.35 16.2 L-0.4 16.1 Q-0.8 15.9 -1.2 16.1 -1.2 16.3 -1.1 16.4 -1.15 16.45 -0.85 16.45 -0.5 16.45 -0.35 16.2" fill="#121212" fill-rule="evenodd" stroke="none"/>
    </g>
    <g id="sprite5" transform="matrix(1.0, 0.0, 0.0, 1.0, 19.6, -3.5)">
      <use ffdec:characterId="282" height="23.5" transform="matrix(7.0, 0.0, 0.0, 7.0, -19.6, 3.5)" width="22.45" xlink:href="#shape5"/>
    </g>
    <g id="shape5" transform="matrix(1.0, 0.0, 0.0, 1.0, 2.8, -0.5)">
      <path d="M0.0 4.95 L1.05 5.1 Q1.65 5.15 2.75 5.65 L3.3 5.9 10.05 5.75 Q12.75 5.2 13.15 5.2 L13.25 5.2 Q14.05 6.15 14.55 6.95 14.25 7.35 13.7 7.85 12.6 8.95 12.6 9.55 11.2 10.45 10.25 10.8 L10.2 10.85 6.15 11.8 5.45 11.75 6.0 11.95 6.05 11.95 6.2 12.05 6.45 12.05 Q8.0 12.5 11.0 12.95 L12.5 13.2 11.8 14.05 9.6 15.8 9.1 15.9 Q8.25 15.8 5.65 14.4 L4.85 14.0 Q4.0 13.5 3.15 13.05 L-0.8 14.3 Q-1.1 14.3 -1.4 14.15 L-1.6 13.65 Q-1.8 12.5 -1.8 12.25 -1.8 12.0 -1.65 11.45 L-1.55 11.2 -1.3 10.8 0.5 11.0 1.35 11.15 0.45 9.95 Q-0.3 8.95 -1.0 7.85 L-1.2 7.55 -1.05 6.9 Q-0.8 6.1 -0.55 5.75 -0.35 5.4 0.0 4.95" fill="#4c9999" fill-rule="evenodd" stroke="none"/>
      <path d="M-1.4 14.15 Q-1.1 14.3 -0.8 14.3 L3.15 13.05 Q4.0 13.5 4.85 14.0 L5.65 14.4 Q8.25 15.8 9.1 15.9 L9.6 15.8 11.8 14.05 12.5 13.2 11.0 12.95 Q8.0 12.5 6.45 12.05 L6.2 12.05 6.05 11.95 6.0 11.95 5.45 11.75 6.15 11.8 10.2 10.85 10.25 10.8 Q11.2 10.45 12.6 9.55 12.6 8.95 13.7 7.85 14.25 7.35 14.55 6.95 14.05 6.15 13.25 5.2 L13.15 5.2 Q12.75 5.2 10.05 5.75 L3.3 5.9 2.75 5.65 Q1.65 5.15 1.05 5.1 L0.0 4.95 0.15 4.8 0.75 4.35 Q1.75 3.5 2.5 3.1 L2.85 2.9 Q3.8 2.45 4.85 2.15 6.1 1.85 7.5 1.75 L10.5 1.85 15.05 3.7 Q16.1 4.65 16.85 5.95 L16.85 6.0 16.9 6.05 16.9 6.1 16.95 6.15 17.15 6.55 17.15 6.6 17.2 6.7 17.6 7.55 Q18.2 9.2 18.3 10.95 18.3 12.35 17.6 13.55 L16.85 14.45 16.75 14.6 15.8 15.5 15.65 15.6 15.5 15.75 Q14.9 16.2 14.5 16.7 L13.6 17.8 Q13.0 18.5 12.8 18.95 L12.45 19.7 Q11.7 21.25 10.75 22.35 L10.45 22.65 10.4 22.65 10.05 22.8 Q9.45 23.0 7.45 22.75 L7.25 22.75 Q5.8 22.55 4.45 21.7 L3.5 21.05 3.15 20.75 1.8 18.5 -1.3 14.3 -1.4 14.15 M-1.2 7.55 L-1.0 7.85 Q-0.3 8.95 0.45 9.95 L1.35 11.15 0.5 11.0 -1.3 10.8 -1.25 10.65 Q-1.1 10.6 -1.05 10.45 L-1.0 10.35 -0.95 10.1 Q-0.95 9.95 -1.45 9.05 L-1.45 9.0 -1.35 8.5 -1.2 7.55" fill="#397373" fill-rule="evenodd" stroke="none"/>
      <path d="M14.2 1.6 L15.35 2.55 Q17.15 3.7 18.25 5.55 19.65 7.95 19.65 11.05 19.65 11.25 19.45 12.1 19.2 13.25 18.8 14.15 17.85 16.3 16.5 16.75 L15.65 17.8 Q14.45 19.2 14.1 19.9 L14.0 20.15 Q13.5 21.85 12.6 22.9 11.65 24.0 10.65 23.9 L10.35 23.85 Q9.5 24.1 8.4 23.95 3.7 23.45 1.25 20.4 0.45 19.35 0.0 18.2 L-0.95 16.45 Q-1.6 15.65 -2.5 15.0 -2.7 14.85 -2.75 14.7 -2.8 14.5 -2.8 14.0 -2.8 13.45 -2.75 12.75 L-2.8 12.15 Q-2.8 11.75 -2.5 10.6 L-2.4 10.35 Q-2.45 10.05 -2.4 9.8 -2.55 9.5 -2.7 9.0 L-2.75 8.4 -2.75 8.3 Q-2.5 7.65 -2.05 5.85 L-1.15 4.4 -0.5 3.7 -0.1 3.3 Q0.85 2.8 2.0 2.2 3.25 1.5 4.45 0.95 L4.85 0.85 5.55 0.7 Q6.55 0.5 7.0 0.5 11.5 0.6 13.75 1.4 L14.2 1.6 M0.0 4.95 Q-0.35 5.4 -0.55 5.75 -0.8 6.1 -1.05 6.9 L-1.2 7.55 -1.35 8.5 -1.45 9.0 -1.45 9.05 Q-0.95 9.95 -0.95 10.1 L-1.0 10.35 -1.05 10.45 Q-1.1 10.6 -1.25 10.65 L-1.3 10.8 -1.55 11.2 -1.65 11.45 Q-1.8 12.0 -1.8 12.25 -1.8 12.5 -1.6 13.65 L-1.4 14.15 -1.3 14.3 1.8 18.5 3.15 20.75 3.5 21.05 4.45 21.7 Q5.8 22.55 7.25 22.75 L7.45 22.75 Q9.45 23.0 10.05 22.8 L10.4 22.65 10.45 22.65 10.75 22.35 Q11.7 21.25 12.45 19.7 L12.8 18.95 Q13.0 18.5 13.6 17.8 L14.5 16.7 Q14.9 16.2 15.5 15.75 L15.65 15.6 15.8 15.5 16.75 14.6 16.85 14.45 17.6 13.55 Q18.3 12.35 18.3 10.95 18.2 9.2 17.6 7.55 L17.2 6.7 17.15 6.6 17.15 6.55 16.95 6.15 16.9 6.1 16.9 6.05 16.85 6.0 16.85 5.95 Q16.1 4.65 15.05 3.7 L10.5 1.85 7.5 1.75 Q6.1 1.85 4.85 2.15 3.8 2.45 2.85 2.9 L2.5 3.1 Q1.75 3.5 0.75 4.35 L0.15 4.8 0.0 4.95" fill="#111111" fill-rule="evenodd" stroke="none"/>
      <path d="M15.75 4.1 Q15.5 3.95 15.3 3.95 13.55 3.75 10.0 6.95 7.1 9.5 5.6 11.55 2.85 15.5 1.85 20.25 L1.7 20.35 1.25 20.4 Q1.2 20.35 -0.2 18.0 L-1.6 15.6 Q-1.6 14.2 0.7 10.0 1.75 8.1 3.3 5.6 3.95 4.65 5.55 3.35 7.5 1.85 9.4 1.1 11.75 0.15 13.5 0.7 15.6 1.35 16.65 4.1 16.05 4.25 15.75 4.1 M8.9 7.15 Q11.35 4.95 14.6 2.5 12.4 0.75 9.6 1.85 7.25 2.75 4.75 5.45 L4.1 6.2 Q2.45 8.05 1.1 10.35 -0.35 12.75 -0.35 13.6 -0.35 13.8 -0.55 14.4 -0.8 15.05 -0.8 15.25 -0.8 15.3 -0.45 15.85 L0.0 16.6 1.05 18.4 1.05 18.45 Q1.45 16.45 2.65 14.35 3.8 12.35 5.7 10.25 7.05 8.8 8.9 7.15" fill="#000000" fill-rule="evenodd" stroke="none"/>
      <path d="M4.1 6.2 Q5.7 6.7 8.9 7.15 7.05 8.8 5.7 10.25 3.8 12.35 2.65 14.35 L2.4 14.3 Q0.95 14.0 0.15 14.85 -0.25 15.2 -0.45 15.85 -0.8 15.3 -0.8 15.25 -0.8 15.05 -0.55 14.4 -0.35 13.8 -0.35 13.6 -0.35 12.75 1.1 10.35 2.45 8.05 4.1 6.2" fill="#82876d" fill-rule="evenodd" stroke="none"/>
      <path d="M4.1 6.2 L4.75 5.45 Q7.25 2.75 9.6 1.85 12.4 0.75 14.6 2.5 11.35 4.95 8.9 7.15 5.7 6.7 4.1 6.2 M2.65 14.35 Q1.45 16.45 1.05 18.45 L1.05 18.4 0.0 16.6 -0.45 15.85 Q-0.25 15.2 0.15 14.85 0.95 14.0 2.4 14.3 L2.65 14.35" fill="#666666" fill-rule="evenodd" stroke="none"/>
    </g>
    <g id="sprite6" transform="matrix(1.0, 0.0, 0.0, 1.0, 22.05, 10.15)">
      <use ffdec:characterId="280" height="20.7" transform="matrix(7.0, 0.0, 0.0, 7.0, -22.05, -10.15)" width="28.15" xlink:href="#shape6"/>
    </g>
    <g id="shape6" transform="matrix(1.0, 0.0, 0.0, 1.0, 3.15, 1.45)">
      <path d="M4.35 3.75 L4.45 3.7 4.75 3.65 Q5.15 3.65 6.25 4.2 L7.3 4.75 7.55 4.7 7.55 4.65 7.65 4.75 7.75 4.65 Q7.85 4.3 8.05 3.25 L8.15 2.55 8.6 1.8 Q9.45 0.55 10.75 -0.4 9.7 3.45 9.75 4.15 9.75 4.35 9.8 4.4 L9.95 4.45 Q10.6 3.1 11.55 1.9 12.95 0.25 14.45 -0.25 L14.8 -0.4 Q16.25 -0.85 17.35 -0.25 L17.7 -0.1 17.75 -0.1 17.95 0.0 Q18.2 0.1 18.5 0.3 L19.0 0.75 Q19.2 0.95 19.45 1.2 L19.45 1.3 19.5 1.4 Q19.5 1.45 19.3 1.5 L19.25 1.45 18.9 1.5 18.25 1.35 17.55 1.25 17.2 1.25 16.0 1.6 Q14.5 2.0 14.1 2.55 L13.45 3.25 12.8 3.8 12.6 4.0 Q13.0 3.75 13.5 3.55 13.75 3.4 14.05 3.3 14.55 3.1 15.1 3.0 L15.5 2.9 15.6 2.9 17.15 2.7 Q19.2 2.65 20.4 3.4 L20.7 3.65 20.75 3.65 20.45 3.6 Q18.25 3.05 16.85 4.35 L17.3 4.15 17.75 4.05 Q18.0 4.05 18.6 4.2 18.1 4.15 17.55 4.15 21.0 4.9 22.55 7.35 22.85 7.85 23.15 8.5 L23.05 8.4 Q22.7 8.1 21.15 7.65 L19.15 7.0 Q18.15 6.85 16.25 6.95 14.15 7.05 14.2 7.45 14.2 7.65 14.25 7.65 L14.3 7.55 Q16.9 7.5 18.9 8.0 20.5 8.45 21.5 9.2 L22.15 9.85 22.15 9.9 Q22.95 11.25 23.55 12.15 24.0 12.75 24.35 13.15 L24.35 13.35 Q24.4 13.65 24.35 14.35 L24.3 14.85 Q23.0 12.65 22.25 12.15 21.25 11.1 19.45 10.2 17.7 9.25 16.0 8.75 14.15 8.2 13.05 8.4 L12.75 8.45 12.55 8.35 Q11.65 8.0 10.95 7.8 L11.15 7.7 12.65 7.4 Q13.5 7.15 13.75 7.0 L13.75 6.9 Q12.75 6.55 11.85 6.45 13.35 5.35 14.15 5.25 14.1 5.2 13.9 5.15 L13.65 5.05 Q12.15 4.9 10.9 5.55 9.95 6.0 9.8 6.5 L8.7 6.45 Q8.15 6.4 7.65 5.95 7.4 5.75 6.95 5.25 5.2 4.1 4.35 3.75 M0.15 6.4 L0.45 6.0 Q1.15 5.15 1.55 5.05 L2.45 4.95 3.95 5.15 4.2 5.25 4.75 5.65 Q3.5 5.6 2.0 5.9 1.0 6.1 0.15 6.4 M18.25 0.85 L18.15 0.85 18.6 1.0 18.25 0.85" fill="#fbfbfb" fill-rule="evenodd" stroke="none"/>
      <path d="M19.45 1.3 L19.6 1.5 Q19.85 1.85 20.0 2.25 L20.1 2.3 20.15 2.3 20.2 2.4 20.25 2.45 20.25 2.55 Q19.2 2.1 18.05 2.1 L17.3 2.3 Q15.95 2.7 15.6 2.9 L15.5 2.9 15.1 3.0 Q14.55 3.1 14.05 3.3 13.75 3.4 13.5 3.55 13.0 3.75 12.6 4.0 L12.8 3.8 13.45 3.25 14.1 2.55 Q14.5 2.0 16.0 1.6 L17.2 1.25 17.55 1.25 18.25 1.35 18.9 1.5 19.25 1.45 19.3 1.5 Q19.5 1.45 19.5 1.4 L19.45 1.3 M20.75 3.65 L20.8 3.8 20.85 3.75 21.35 4.35 20.45 4.4 20.05 4.5 Q19.35 4.25 18.6 4.2 18.0 4.05 17.75 4.05 L17.3 4.15 16.85 4.35 Q18.25 3.05 20.45 3.6 L20.75 3.65 M23.15 8.5 Q23.35 8.95 23.5 9.45 L23.75 10.25 23.75 10.6 Q22.6 8.65 20.35 7.95 L20.3 8.1 21.5 9.2 Q20.5 8.45 18.9 8.0 16.9 7.5 14.3 7.55 L14.25 7.65 Q14.2 7.65 14.2 7.45 14.15 7.05 16.25 6.95 18.15 6.85 19.15 7.0 L21.15 7.65 Q22.7 8.1 23.05 8.4 L23.15 8.5 M22.15 9.9 L22.85 10.6 Q24.2 12.15 24.35 13.15 24.0 12.75 23.55 12.15 22.95 11.25 22.15 9.9 M24.3 14.85 L24.3 14.95 24.2 15.65 Q23.9 15.0 22.85 14.35 21.25 13.4 20.85 13.1 L20.75 12.6 Q20.45 11.5 20.2 11.25 L20.0 11.3 20.05 12.2 Q20.35 13.15 20.4 13.65 20.4 14.15 19.8 15.35 L19.7 15.5 Q19.6 14.3 19.4 13.6 18.95 12.35 17.8 11.55 L18.6 12.95 Q19.1 13.8 19.1 14.3 L19.1 16.35 19.05 16.35 Q18.65 14.95 16.6 13.0 15.6 12.05 14.0 10.7 L13.75 10.3 13.45 10.05 13.65 10.95 13.75 11.55 Q14.35 12.5 14.35 13.5 14.4 14.15 14.25 15.15 14.05 16.5 13.7 16.85 L13.3 16.55 13.25 16.65 11.95 15.45 11.15 14.3 10.45 13.3 10.2 12.65 Q9.9 11.9 9.55 11.7 L9.5 11.9 9.8 12.95 Q10.1 13.85 10.15 14.5 10.15 14.95 10.1 15.4 L10.15 15.5 Q10.2 15.85 9.7 16.85 9.5 15.35 9.25 14.55 8.85 13.1 8.05 12.3 7.85 12.5 7.75 13.3 7.65 13.9 7.7 14.5 L7.7 14.7 Q7.6 16.25 7.7 17.3 6.8 16.95 6.2 16.45 5.7 15.9 5.35 15.3 4.55 13.95 4.5 12.05 4.45 11.8 4.55 11.5 4.45 10.85 4.45 10.25 L4.45 10.15 Q4.1 10.4 4.0 10.85 3.95 11.1 4.0 12.15 L4.05 12.75 Q3.6 13.55 3.5 14.85 3.45 15.65 3.5 17.25 L3.55 18.05 3.55 18.15 3.4 18.15 Q2.85 17.4 2.3 15.9 2.05 15.25 1.9 14.7 1.85 13.1 2.15 12.15 2.4 11.2 3.0 10.35 3.2 9.95 3.65 9.5 2.6 9.75 1.95 11.1 L1.85 11.25 1.8 11.3 Q0.6 12.3 0.1 13.75 L-0.7 16.15 -0.7 16.1 Q-0.85 15.4 -0.85 14.8 -0.9 13.65 -0.4 12.4 L0.1 11.15 Q0.1 10.95 0.05 10.85 L-0.2 10.8 Q-0.95 11.05 -1.5 11.6 L-2.0 12.2 -2.0 12.25 Q-2.35 12.8 -2.7 14.0 L-2.75 12.8 Q-2.3 11.25 -0.4 9.6 L1.4 8.2 Q1.4 8.0 1.35 7.95 L1.25 7.9 1.1 7.95 Q1.0 7.85 0.8 7.9 0.7 7.9 -0.1 8.2 -0.95 8.5 -1.4 8.6 -1.0 8.0 -0.1 7.35 1.4 6.2 3.3 6.1 3.95 6.1 4.0 6.0 3.95 5.9 3.5 5.7 1.3 5.9 -0.2 6.75 L0.15 6.4 Q1.0 6.1 2.0 5.9 3.5 5.6 4.75 5.65 L4.2 5.25 3.95 5.15 5.9 5.35 Q6.15 5.35 6.2 5.3 L6.2 5.1 Q5.95 4.8 5.6 4.65 L5.2 4.3 Q4.85 4.1 4.25 3.8 4.3 3.75 4.35 3.75 5.2 4.1 6.95 5.25 7.4 5.75 7.65 5.95 8.15 6.4 8.7 6.45 L9.8 6.5 Q9.95 6.0 10.9 5.55 12.15 4.9 13.65 5.05 L13.9 5.15 Q14.1 5.2 14.15 5.25 13.35 5.35 11.85 6.45 12.75 6.55 13.75 6.9 L13.75 7.0 Q13.5 7.15 12.65 7.4 L11.15 7.7 10.95 7.8 Q11.65 8.0 12.55 8.35 L12.75 8.45 13.05 8.4 Q14.15 8.2 16.0 8.75 17.7 9.25 19.45 10.2 21.25 11.1 22.25 12.15 23.0 12.65 24.3 14.85 M18.25 0.85 L18.6 1.0 18.15 0.85 18.25 0.85 M4.25 9.4 L4.1 9.55 4.35 9.55 4.3 9.45 4.25 9.4" fill="#c9c9c9" fill-rule="evenodd" stroke="none"/>
      <path d="M11.6 -0.95 L11.45 -0.5 Q10.85 0.95 10.65 1.7 L10.65 2.25 Q11.8 0.9 12.35 0.45 13.55 -0.6 14.75 -0.9 L14.85 -0.95 Q15.25 -1.15 16.15 -1.15 16.55 -1.15 17.1 -0.95 18.4 -0.8 19.6 0.45 L20.05 1.0 Q20.55 1.5 20.6 1.85 L20.7 2.05 Q21.0 2.6 21.05 2.95 L21.2 3.05 21.1 3.1 21.1 3.3 Q21.6 3.6 22.0 4.0 22.5 4.5 22.7 4.95 L22.8 5.05 23.3 6.0 Q22.35 5.35 21.35 5.05 21.85 5.45 23.15 7.1 24.35 8.95 24.45 11.05 L24.45 11.35 24.55 11.75 24.5 12.0 24.5 12.1 Q24.95 13.45 25.0 15.1 25.05 15.6 24.95 16.55 24.85 17.7 24.65 17.7 24.35 17.2 23.75 16.5 22.6 15.05 21.1 13.95 21.0 14.4 20.85 14.65 20.8 15.1 20.8 15.2 20.8 15.45 20.3 16.0 19.9 16.45 19.65 16.6 L19.35 17.95 19.15 18.0 Q18.3 15.65 17.65 14.65 17.15 13.95 16.5 13.55 15.65 13.05 15.3 12.75 L15.1 12.5 Q15.1 13.1 15.0 13.85 15.05 15.05 14.8 16.1 14.5 17.1 14.05 17.75 L14.05 17.9 14.0 18.0 Q13.95 18.05 13.85 18.05 L13.75 18.15 13.6 18.15 Q13.55 18.15 13.5 17.95 L13.55 17.85 10.7 15.0 Q10.7 15.3 10.7 15.45 10.65 16.1 10.4 16.9 10.05 18.05 9.55 18.3 L9.1 16.05 Q8.8 14.55 8.25 13.6 L8.2 13.6 8.15 14.35 8.15 14.55 Q8.05 15.0 8.05 15.4 8.05 15.7 8.1 17.0 L8.25 18.4 8.15 18.4 7.3 18.3 Q5.85 17.5 5.05 16.2 L4.75 15.5 4.6 15.1 4.6 15.05 4.35 14.35 4.3 14.35 4.25 14.65 4.2 16.8 4.2 17.95 4.25 18.65 4.25 18.95 4.2 19.1 4.15 19.15 Q4.1 19.2 3.9 19.25 2.5 19.3 1.7 16.3 1.3 14.85 1.2 13.35 L1.0 13.65 Q-0.1 15.8 -0.1 17.6 L-0.15 17.65 Q-0.25 17.7 -0.3 17.75 -1.15 16.6 -1.25 16.2 -1.3 16.05 -1.35 14.85 L-1.4 13.55 Q-1.3 12.95 -0.9 12.1 -2.1 13.85 -2.65 15.3 -3.0 15.2 -3.1 14.65 L-3.15 13.75 Q-3.2 12.55 -3.1 12.25 -2.85 11.45 -1.8 10.55 L-0.7 9.3 -2.0 10.0 -2.2 10.0 Q-2.25 9.95 -2.25 9.75 -2.3 8.45 -0.95 7.3 L-0.5 6.95 -0.65 6.9 Q-0.75 6.9 -0.75 6.65 -0.75 6.2 0.15 5.4 1.15 4.45 2.3 4.45 3.1 4.3 3.85 4.3 L3.45 4.05 Q4.2 3.0 5.8 3.45 6.75 3.7 7.25 4.1 L7.25 4.0 Q7.25 3.6 7.5 2.85 L7.65 2.4 7.7 2.2 8.05 1.4 8.55 0.8 Q9.95 -0.85 11.95 -1.45 11.9 -1.25 11.6 -0.95 M19.45 1.3 L19.45 1.2 Q19.2 0.95 19.0 0.75 L18.5 0.3 Q18.2 0.1 17.95 0.0 L17.75 -0.1 17.7 -0.1 17.35 -0.25 Q16.25 -0.85 14.8 -0.4 L14.45 -0.25 Q12.95 0.25 11.55 1.9 10.6 3.1 9.95 4.45 L9.8 4.4 Q9.75 4.35 9.75 4.15 9.7 3.45 10.75 -0.4 9.45 0.55 8.6 1.8 L8.15 2.55 8.05 3.25 Q7.85 4.3 7.75 4.65 L7.65 4.75 7.55 4.65 7.55 4.7 7.3 4.75 6.25 4.2 Q5.15 3.65 4.75 3.65 L4.45 3.7 4.35 3.75 Q4.3 3.75 4.25 3.8 4.85 4.1 5.2 4.3 L5.6 4.65 Q5.95 4.8 6.2 5.1 L6.2 5.3 Q6.15 5.35 5.9 5.35 L3.95 5.15 2.45 4.95 1.55 5.05 Q1.15 5.15 0.45 6.0 L0.15 6.4 -0.2 6.75 Q1.3 5.9 3.5 5.7 3.95 5.9 4.0 6.0 3.95 6.1 3.3 6.1 1.4 6.2 -0.1 7.35 -1.0 8.0 -1.4 8.6 -0.95 8.5 -0.1 8.2 0.7 7.9 0.8 7.9 1.0 7.85 1.1 7.95 L1.25 7.9 1.35 7.95 Q1.4 8.0 1.4 8.2 L-0.4 9.6 Q-2.3 11.25 -2.75 12.8 L-2.7 14.0 Q-2.35 12.8 -2.0 12.25 L-2.0 12.2 -1.5 11.6 Q-0.95 11.05 -0.2 10.8 L0.05 10.85 Q0.1 10.95 0.1 11.15 L-0.4 12.4 Q-0.9 13.65 -0.85 14.8 -0.85 15.4 -0.7 16.1 L-0.7 16.15 0.1 13.75 Q0.6 12.3 1.8 11.3 L1.85 11.25 1.95 11.1 Q2.6 9.75 3.65 9.5 3.2 9.95 3.0 10.35 2.4 11.2 2.15 12.15 1.85 13.1 1.9 14.7 2.05 15.25 2.3 15.9 2.85 17.4 3.4 18.15 L3.55 18.15 3.55 18.05 3.5 17.25 Q3.45 15.65 3.5 14.85 3.6 13.55 4.05 12.75 L4.0 12.15 Q3.95 11.1 4.0 10.85 4.1 10.4 4.45 10.15 L4.45 10.25 Q4.45 10.85 4.55 11.5 4.45 11.8 4.5 12.05 4.55 13.95 5.35 15.3 5.7 15.9 6.2 16.45 6.8 16.95 7.7 17.3 7.6 16.25 7.7 14.7 L7.7 14.5 Q7.65 13.9 7.75 13.3 7.85 12.5 8.05 12.3 8.85 13.1 9.25 14.55 9.5 15.35 9.7 16.85 10.2 15.85 10.15 15.5 L10.1 15.4 Q10.15 14.95 10.15 14.5 10.1 13.85 9.8 12.95 L9.5 11.9 9.55 11.7 Q9.9 11.9 10.2 12.65 L10.45 13.3 11.15 14.3 11.95 15.45 13.25 16.65 13.3 16.55 13.7 16.85 Q14.05 16.5 14.25 15.15 14.4 14.15 14.35 13.5 14.35 12.5 13.75 11.55 L13.65 10.95 13.45 10.05 13.75 10.3 14.0 10.7 Q15.6 12.05 16.6 13.0 18.65 14.95 19.05 16.35 L19.1 16.35 19.1 14.3 Q19.1 13.8 18.6 12.95 L17.8 11.55 Q18.95 12.35 19.4 13.6 19.6 14.3 19.7 15.5 L19.8 15.35 Q20.4 14.15 20.4 13.65 20.35 13.15 20.05 12.2 L20.0 11.3 20.2 11.25 Q20.45 11.5 20.75 12.6 L20.85 13.1 Q21.25 13.4 22.85 14.35 23.9 15.0 24.2 15.65 L24.3 14.95 24.3 14.85 24.35 14.35 Q24.4 13.65 24.35 13.35 L24.35 13.15 Q24.2 12.15 22.85 10.6 L22.15 9.9 22.15 9.85 21.5 9.2 20.3 8.1 20.35 7.95 Q22.6 8.65 23.75 10.6 L23.75 10.25 23.5 9.45 Q23.35 8.95 23.15 8.5 22.85 7.85 22.55 7.35 21.0 4.9 17.55 4.15 18.1 4.15 18.6 4.2 19.35 4.25 20.05 4.5 L20.45 4.4 21.35 4.35 20.85 3.75 20.8 3.8 20.75 3.65 20.7 3.65 20.4 3.4 Q19.2 2.65 17.15 2.7 L15.6 2.9 Q15.95 2.7 17.3 2.3 L18.05 2.1 Q19.2 2.1 20.25 2.55 L20.25 2.45 20.2 2.4 20.15 2.3 20.1 2.3 20.0 2.25 Q19.85 1.85 19.6 1.5 L19.45 1.3 M14.35 12.8 L14.35 12.8 M4.25 9.4 L4.3 9.45 4.35 9.55 4.1 9.55 4.25 9.4" fill="#111111" fill-rule="evenodd" stroke="none"/>
    </g>
    <g id="sprite7" transform="matrix(1.0, 0.0, 0.0, 1.0, 12.25, 0.35)">
      <use ffdec:characterId="278" height="23.3" transform="matrix(7.0, 0.0, 0.0, 7.0, -12.25, -0.35)" width="21.15" xlink:href="#shape7"/>
    </g>
    <g id="shape7" transform="matrix(1.0, 0.0, 0.0, 1.0, 1.75, 0.05)">
      <path d="M13.8 6.45 Q14.1 6.7 14.1 6.85 14.05 7.1 13.7 7.15 13.1 7.15 12.65 6.95 12.2 6.75 12.2 6.5 12.25 5.75 13.15 6.1 13.55 6.25 13.8 6.45 M9.7 1.7 L9.75 2.55 9.7 3.3 9.5 3.25 Q8.8 3.15 8.8 3.65 8.8 3.75 8.9 3.9 9.05 4.1 9.4 4.15 9.2 4.45 8.85 4.45 8.0 4.4 7.35 4.75 6.95 4.95 6.3 5.5 5.7 6.0 5.3 6.2 4.65 6.5 3.8 6.5 L3.15 6.2 2.95 6.1 Q2.4 5.7 2.35 5.7 2.1 5.7 1.0 7.25 0.35 8.1 0.1 8.5 L-0.2 8.0 -0.3 7.75 -0.35 7.65 -0.25 7.65 -0.2 7.6 Q0.0 6.0 1.85 4.2 L3.05 2.95 3.4 2.5 Q3.75 2.65 4.1 2.65 4.8 2.65 5.8 2.3 6.2 2.15 6.45 2.05 L6.9 1.85 7.6 1.45 8.4 1.25 Q8.95 1.25 9.7 1.7 M15.4 10.2 Q16.55 9.5 17.3 8.7 17.5 8.5 17.7 8.1 L18.0 8.2 Q18.35 8.3 18.3 8.5 18.25 9.2 17.2 9.85 L16.45 10.25 16.25 10.3 Q15.85 10.45 15.75 10.45 L15.4 10.2 M9.45 6.25 Q9.3 7.4 9.0 8.65 L8.6 9.95 Q7.8 10.45 7.0 11.15 L7.05 11.3 7.05 11.35 7.6 11.45 8.1 11.45 8.1 11.5 8.9 11.45 8.95 11.55 8.7 11.9 Q8.45 12.15 8.1 12.15 L7.85 12.15 7.5 13.2 Q5.25 11.7 5.05 11.65 4.1 11.25 3.6 11.55 3.5 11.6 3.15 11.85 L2.75 12.15 2.75 12.0 Q2.7 11.5 2.5 10.05 2.25 8.6 2.25 8.25 2.0 6.75 1.65 6.5 1.95 6.15 2.15 6.15 2.5 6.15 2.65 6.25 L2.95 6.5 Q3.35 6.85 4.4 6.9 4.95 6.9 6.2 6.25 7.45 5.55 8.0 5.55 8.5 5.55 9.45 6.25 M13.9 13.95 Q13.95 12.85 14.0 12.55 L14.4 10.15 14.95 10.45 15.1 10.6 15.4 10.85 Q15.4 11.15 14.95 12.2 14.5 13.15 14.5 13.4 L14.5 13.65 14.4 13.7 Q14.1 13.85 13.9 13.95 M11.85 10.25 Q11.55 10.35 11.25 10.35 10.85 10.35 10.75 10.2 L10.75 10.05 Q10.75 9.75 11.5 9.7 12.2 9.6 12.2 9.95 12.2 10.1 11.85 10.25 M7.2 2.8 Q7.05 2.85 7.05 3.0 7.05 3.05 7.4 3.3 7.55 3.25 7.65 3.1 L7.3 2.75 7.2 2.8 M10.6 5.0 L11.1 4.95 11.25 5.0 11.25 5.2 Q11.25 5.25 11.1 5.4 10.9 5.45 10.8 5.45 L10.6 5.4 Q10.55 5.4 10.5 5.4 10.45 5.35 10.5 5.2 10.5 5.1 10.6 5.0 M-0.65 6.8 L-0.7 6.65 Q-0.85 6.1 -0.9 5.65 L-0.8 5.35 Q-0.6 4.9 -0.3 4.35 0.25 3.4 0.9 2.65 L1.8 1.8 1.85 1.7 2.15 1.95 2.5 2.15 Q1.05 3.05 0.65 4.1 L-0.1 5.5 Q-0.6 6.4 -0.65 6.8 M4.0 9.25 Q3.45 9.45 3.45 9.8 3.45 9.85 3.8 10.1 4.2 10.15 4.45 9.9 4.6 9.7 4.6 9.5 4.6 9.1 4.0 9.25 M3.5 4.8 Q3.5 4.95 3.55 4.95 L3.6 5.0 3.75 5.05 4.0 5.1 Q4.35 5.1 4.65 4.7 4.1 4.4 3.8 4.45 3.5 4.55 3.5 4.8 M0.75 8.2 L0.75 8.25 2.4 12.35 Q1.95 12.55 1.7 12.75 L1.7 12.55 1.6 12.25 Q1.45 12.05 1.45 11.9 1.45 11.75 1.1 10.75 L0.7 9.7 Q0.7 9.3 0.4 8.95 L0.75 8.2 M2.35 12.9 L2.55 12.7 Q3.8 11.65 4.15 11.7 4.9 11.7 7.9 13.55 L7.95 13.6 Q8.1 14.05 8.1 14.15 L7.95 14.85 Q7.7 15.5 7.25 15.45 7.05 15.45 6.0 14.9 4.95 14.25 4.85 14.25 4.65 14.25 3.35 15.0 L2.0 15.75 Q1.85 15.65 1.05 14.35 1.15 14.15 1.35 13.9 L1.5 13.65 1.75 13.45 Q1.55 13.7 1.6 14.05 L1.7 14.5 Q1.9 14.9 2.25 14.9 L2.6 14.1 Q2.95 13.25 2.95 13.15 2.95 12.85 2.7 12.8 2.55 12.8 2.35 12.9 M14.3 14.25 Q14.6 14.15 14.75 14.15 14.9 14.15 15.05 14.5 15.15 14.85 15.15 15.05 15.15 15.5 14.9 16.3 L14.85 16.5 13.9 16.8 Q14.15 16.2 14.15 15.6 14.15 15.5 14.3 15.25 14.4 15.05 14.45 14.95 14.45 14.75 14.3 14.25 M8.0 8.5 Q8.25 8.25 8.3 8.1 8.25 7.55 7.55 7.75 6.8 7.9 6.8 8.4 6.8 8.5 6.85 8.6 6.95 8.75 7.25 8.8 7.65 8.8 8.0 8.5 M5.75 10.8 Q5.6 10.85 5.5 11.05 5.5 11.1 5.6 11.15 L5.8 11.15 5.9 11.1 Q5.9 11.2 5.9 11.0 5.9 10.85 5.85 10.85 L5.75 10.8 M11.35 12.15 Q11.35 12.45 10.8 12.5 10.3 12.5 10.35 12.2 10.35 11.85 10.85 11.85 11.35 11.85 11.35 12.15 M9.35 15.65 L9.75 15.7 9.8 15.8 Q9.75 16.0 9.75 15.95 L9.7 16.0 9.45 16.0 Q9.2 16.0 9.2 15.95 9.15 15.9 9.15 15.75 L9.35 15.65 M11.0 16.0 Q11.0 15.7 11.65 15.75 12.3 15.75 12.3 16.05 12.3 16.25 12.1 16.3 L11.4 16.35 Q11.15 16.35 11.05 16.2 11.0 16.1 11.0 16.0 M7.35 16.1 Q7.2 16.5 7.0 16.95 6.6 16.8 6.1 16.8 5.1 16.75 5.1 17.1 5.1 17.3 5.35 17.4 L6.05 17.55 6.2 17.5 Q6.65 17.5 7.4 17.8 L7.25 17.95 7.0 18.05 6.25 18.05 Q5.6 18.75 5.05 18.75 4.25 18.75 3.1 17.9 L2.35 17.4 2.35 17.25 Q2.5 16.85 2.75 16.5 2.9 16.25 3.1 16.1 L3.7 15.65 Q4.15 15.4 4.7 15.25 L4.9 15.3 5.35 15.4 Q5.9 15.4 6.75 15.75 L7.25 15.95 7.1 15.9 7.35 16.1 M11.2 22.1 Q11.55 21.85 11.85 21.6 12.05 21.4 12.4 20.9 11.85 20.75 11.45 20.4 11.6 20.1 11.8 20.15 L12.75 20.3 12.8 20.2 Q13.45 19.05 13.5 18.6 13.5 18.25 13.4 17.35 L13.6 17.3 13.75 17.25 13.8 17.25 Q14.15 17.1 14.45 17.1 L14.6 17.15 Q14.6 17.55 14.7 18.35 14.7 18.75 14.5 19.75 L14.4 19.9 Q14.2 20.4 13.95 20.8 13.4 21.3 12.05 21.8 L11.2 22.1 M7.9 20.05 L7.8 20.15 Q7.7 20.25 7.6 20.25 L7.35 20.2 Q7.3 20.15 7.3 20.0 7.3 19.75 7.5 19.75 7.7 19.75 7.9 20.05 M3.4 16.35 Q2.9 16.15 2.95 16.8 L3.05 17.15 Q3.2 17.5 3.6 17.55 3.9 17.55 3.9 17.15 3.85 16.55 3.4 16.35" fill="#346b34" fill-rule="evenodd" stroke="none"/>
      <path d="M13.8 6.45 Q13.55 6.25 13.15 6.1 12.25 5.75 12.2 6.5 12.2 6.75 12.65 6.95 13.1 7.15 13.7 7.15 14.05 7.1 14.1 6.85 14.1 6.7 13.8 6.45 M9.7 1.7 Q10.55 2.15 11.6 3.15 12.7 4.1 13.5 5.1 15.15 7.1 17.0 7.85 L17.7 8.1 Q17.5 8.5 17.3 8.7 16.55 9.5 15.4 10.2 11.9 7.9 10.4 6.4 8.25 4.8 7.85 5.05 6.8 5.65 6.25 5.9 4.8 6.65 4.1 6.6 3.65 6.6 3.05 6.15 L2.95 6.1 3.15 6.2 3.8 6.5 Q4.65 6.5 5.3 6.2 5.7 6.0 6.3 5.5 6.95 4.95 7.35 4.75 8.0 4.4 8.85 4.45 9.2 4.45 9.4 4.15 9.05 4.1 8.9 3.9 8.8 3.75 8.8 3.65 8.8 3.15 9.5 3.25 L9.7 3.3 9.75 2.55 9.7 1.7 M9.45 6.25 L9.65 6.45 Q10.1 6.75 11.8 8.25 13.35 9.5 14.4 10.15 L14.0 12.55 Q13.95 12.85 13.9 13.95 L13.45 14.15 12.05 14.45 10.5 14.65 Q9.75 14.65 7.75 13.3 L7.5 13.2 7.85 12.15 8.1 12.15 Q8.45 12.15 8.7 11.9 L8.95 11.55 8.9 11.45 8.1 11.5 8.1 11.45 7.6 11.45 7.05 11.35 7.05 11.3 7.0 11.15 Q7.8 10.45 8.6 9.95 L9.0 8.65 Q9.3 7.4 9.45 6.25 M11.85 10.25 Q12.2 10.1 12.2 9.95 12.2 9.6 11.5 9.7 10.75 9.75 10.75 10.05 L10.75 10.2 Q10.85 10.35 11.25 10.35 11.55 10.35 11.85 10.25 M7.2 2.8 L7.3 2.75 7.65 3.1 Q7.55 3.25 7.4 3.3 7.05 3.05 7.05 3.0 7.05 2.85 7.2 2.8 M10.6 5.0 Q10.5 5.1 10.5 5.2 10.45 5.35 10.5 5.4 10.55 5.4 10.6 5.4 L10.8 5.45 Q10.9 5.45 11.1 5.4 11.25 5.25 11.25 5.2 L11.25 5.0 11.1 4.95 10.6 5.0 M3.5 4.8 Q3.5 4.55 3.8 4.45 4.1 4.4 4.65 4.7 4.35 5.1 4.0 5.1 L3.75 5.05 3.6 5.0 3.55 4.95 Q3.5 4.95 3.5 4.8 M4.0 9.25 Q4.6 9.1 4.6 9.5 4.6 9.7 4.45 9.9 4.2 10.15 3.8 10.1 3.45 9.85 3.45 9.8 3.45 9.45 4.0 9.25 M1.05 14.35 Q1.85 15.65 2.0 15.75 L3.35 15.0 Q4.65 14.25 4.85 14.25 4.95 14.25 6.0 14.9 7.05 15.45 7.25 15.45 7.7 15.5 7.95 14.85 L8.1 14.15 Q8.1 14.05 7.95 13.6 9.35 14.45 10.6 15.3 10.75 15.3 11.2 15.05 11.7 14.8 12.6 14.75 L13.65 14.45 14.3 14.25 Q14.45 14.75 14.45 14.95 14.4 15.05 14.3 15.25 14.15 15.5 14.15 15.6 14.15 16.2 13.9 16.8 L13.3 17.0 Q11.55 17.5 10.15 17.45 L8.8 16.7 7.9 16.25 7.9 16.2 Q7.15 15.7 5.9 15.25 5.3 15.05 4.85 15.0 L4.8 14.9 4.1 14.9 2.85 15.85 2.25 16.2 Q1.9 16.4 1.65 16.55 L1.6 16.55 1.4 16.15 Q1.0 15.55 0.95 14.8 L0.95 14.75 Q0.95 14.55 1.05 14.35 M5.75 10.8 L5.85 10.85 Q5.9 10.85 5.9 11.0 5.9 11.2 5.9 11.1 L5.8 11.15 5.6 11.15 Q5.5 11.1 5.5 11.05 5.6 10.85 5.75 10.8 M8.0 8.5 Q7.65 8.8 7.25 8.8 6.95 8.75 6.85 8.6 6.8 8.5 6.8 8.4 6.8 7.9 7.55 7.75 8.25 7.55 8.3 8.1 8.25 8.25 8.0 8.5 M11.0 16.0 Q11.0 16.1 11.05 16.2 11.15 16.35 11.4 16.35 L12.1 16.3 Q12.3 16.25 12.3 16.05 12.3 15.75 11.65 15.75 11.0 15.7 11.0 16.0 M9.35 15.65 L9.15 15.75 Q9.15 15.9 9.2 15.95 9.2 16.0 9.45 16.0 L9.7 16.0 9.75 15.95 Q9.75 16.0 9.8 15.8 L9.75 15.7 9.35 15.65 M11.35 12.15 Q11.35 11.85 10.85 11.85 10.35 11.85 10.35 12.2 10.3 12.5 10.8 12.5 11.35 12.45 11.35 12.15 M2.35 17.4 L3.1 17.9 Q4.25 18.75 5.05 18.75 5.6 18.75 6.25 18.05 L7.0 18.05 7.25 17.95 7.4 17.8 Q6.65 17.5 6.2 17.5 L6.05 17.55 5.35 17.4 Q5.1 17.3 5.1 17.1 5.1 16.75 6.1 16.8 6.6 16.8 7.0 16.95 7.2 16.5 7.35 16.1 L8.5 16.95 8.55 17.0 8.65 17.05 Q9.95 17.95 10.3 17.95 L10.65 17.9 Q11.05 17.75 11.5 17.65 12.9 17.35 13.15 17.35 L13.4 17.35 Q13.5 18.25 13.5 18.6 13.45 19.05 12.8 20.2 L12.75 20.3 11.8 20.15 Q11.6 20.1 11.45 20.4 11.85 20.75 12.4 20.9 12.05 21.4 11.85 21.6 11.55 21.85 11.2 22.1 9.8 22.55 8.75 22.5 6.9 22.45 5.3 21.3 4.7 20.8 4.1 20.2 3.35 19.4 2.85 18.5 2.4 17.75 2.4 17.55 L2.35 17.4 M7.9 20.05 Q7.7 19.75 7.5 19.75 7.3 19.75 7.3 20.0 7.3 20.15 7.35 20.2 L7.6 20.25 Q7.7 20.25 7.8 20.15 L7.9 20.05 M13.95 20.8 Q14.2 20.4 14.4 19.9 L14.5 19.75 14.4 20.1 14.35 20.2 14.2 20.55 13.95 20.8" fill="#285228" fill-rule="evenodd" stroke="none"/>
      <path d="M15.65 6.2 Q15.9 6.45 17.75 7.2 19.4 7.85 19.4 8.05 18.1 10.2 17.25 10.85 L16.75 11.3 Q16.2 11.8 15.95 12.5 15.9 12.65 15.75 13.4 15.65 13.7 15.5 13.8 L15.55 13.85 Q15.55 14.05 15.55 14.3 L15.6 15.3 15.65 16.55 15.6 16.8 Q15.85 17.05 15.8 17.4 L15.7 18.25 15.7 18.4 15.4 20.1 Q15.15 21.0 14.8 21.35 14.55 21.6 14.1 21.9 13.3 22.4 12.45 22.5 L10.4 22.9 Q8.75 23.25 8.25 23.25 5.85 23.2 3.35 20.3 2.45 19.3 1.7 18.2 L1.7 18.15 1.65 18.1 Q1.4 17.7 1.25 17.4 0.95 17.05 0.65 16.4 L0.2 15.0 Q0.1 14.3 0.3 13.6 0.45 13.0 0.7 12.65 L0.75 12.45 Q0.55 11.9 0.3 11.05 L-0.15 10.05 -0.15 9.95 -0.2 9.8 Q-0.85 9.6 -1.3 8.4 L-1.7 6.9 -1.75 6.3 Q-1.75 5.75 -1.6 5.35 L-1.55 5.2 -1.5 4.85 Q-1.2 4.1 -0.85 3.5 0.8 0.15 2.55 0.2 2.9 0.2 3.0 0.4 L3.1 0.75 Q3.2 1.3 4.3 1.35 4.65 1.35 6.7 0.75 L6.9 0.7 Q7.05 0.6 7.3 0.5 8.15 0.1 8.55 0.0 8.65 -0.05 8.75 -0.05 9.0 -0.05 9.5 0.2 10.4 0.7 11.75 1.85 13.05 3.0 13.95 4.05 14.55 4.75 14.75 5.2 L15.65 6.2 M17.7 8.1 L17.0 7.85 Q15.15 7.1 13.5 5.1 12.7 4.1 11.6 3.15 10.55 2.15 9.7 1.7 8.95 1.25 8.4 1.25 L7.6 1.45 6.9 1.85 6.45 2.05 Q6.2 2.15 5.8 2.3 4.8 2.65 4.1 2.65 3.75 2.65 3.4 2.5 2.95 2.4 2.5 2.15 L2.15 1.95 1.85 1.7 1.8 1.8 0.9 2.65 Q0.25 3.4 -0.3 4.35 -0.6 4.9 -0.8 5.35 L-0.9 5.65 Q-0.85 6.1 -0.7 6.65 L-0.65 6.8 -0.35 7.65 -0.3 7.75 -0.2 8.0 0.1 8.5 Q0.35 8.1 1.0 7.25 2.1 5.7 2.35 5.7 2.4 5.7 2.95 6.1 L3.05 6.15 Q3.65 6.6 4.1 6.6 4.8 6.65 6.25 5.9 6.8 5.65 7.85 5.05 8.25 4.8 10.4 6.4 11.9 7.9 15.4 10.2 L15.75 10.45 Q15.85 10.45 16.25 10.3 L16.45 10.25 17.2 9.85 Q18.25 9.2 18.3 8.5 18.35 8.3 18.0 8.2 L17.7 8.1 M14.4 10.15 Q13.35 9.5 11.8 8.25 10.1 6.75 9.65 6.45 L9.45 6.25 Q8.5 5.55 8.0 5.55 7.45 5.55 6.2 6.25 4.95 6.9 4.4 6.9 3.35 6.85 2.95 6.5 L2.65 6.25 Q2.5 6.15 2.15 6.15 1.95 6.15 1.65 6.5 1.4 6.8 1.15 7.4 L0.75 8.2 0.4 8.95 Q0.7 9.3 0.7 9.7 L1.1 10.75 Q1.45 11.75 1.45 11.9 1.45 12.05 1.6 12.25 L1.7 12.55 1.7 12.75 Q1.95 12.55 2.4 12.35 L2.55 12.25 2.75 12.15 3.15 11.85 Q3.5 11.6 3.6 11.55 4.1 11.25 5.05 11.65 5.25 11.7 7.5 13.2 L7.75 13.3 Q9.75 14.65 10.5 14.65 L12.05 14.45 13.45 14.15 13.9 13.95 Q14.1 13.85 14.4 13.7 L14.5 13.65 14.5 13.4 Q14.5 13.15 14.95 12.2 15.4 11.15 15.4 10.85 L15.1 10.6 14.95 10.45 14.4 10.15 M7.95 13.6 L7.9 13.55 Q4.9 11.7 4.15 11.7 3.8 11.65 2.55 12.7 L2.35 12.9 1.75 13.45 1.5 13.65 1.35 13.9 Q1.15 14.15 1.05 14.35 0.95 14.55 0.95 14.75 L0.95 14.8 Q1.0 15.55 1.4 16.15 L1.6 16.55 1.65 16.55 Q1.9 16.4 2.25 16.2 L2.85 15.85 4.1 14.9 4.8 14.9 4.85 15.0 Q5.3 15.05 5.9 15.25 7.15 15.7 7.9 16.2 L7.9 16.25 8.8 16.7 10.15 17.45 Q11.55 17.5 13.3 17.0 L13.9 16.8 14.85 16.5 14.9 16.3 Q15.15 15.5 15.15 15.05 15.15 14.85 15.05 14.5 14.9 14.15 14.75 14.15 14.6 14.15 14.3 14.25 L13.65 14.45 12.6 14.75 Q11.7 14.8 11.2 15.05 10.75 15.3 10.6 15.3 9.35 14.45 7.95 13.6 M7.35 16.1 L7.1 15.9 7.25 15.95 6.75 15.75 Q5.9 15.4 5.35 15.4 L4.9 15.3 4.7 15.25 Q4.15 15.4 3.7 15.65 L3.1 16.1 Q2.9 16.25 2.75 16.5 2.5 16.85 2.35 17.25 L2.35 17.4 2.4 17.55 Q2.4 17.75 2.85 18.5 3.35 19.4 4.1 20.2 4.7 20.8 5.3 21.3 6.9 22.45 8.75 22.5 9.8 22.55 11.2 22.1 L12.05 21.8 Q13.4 21.3 13.95 20.8 L14.2 20.55 14.35 20.2 14.4 20.1 14.5 19.75 Q14.7 18.75 14.7 18.35 14.6 17.55 14.6 17.15 L14.45 17.1 Q14.15 17.1 13.8 17.25 L13.75 17.25 13.6 17.3 13.4 17.35 13.15 17.35 Q12.9 17.35 11.5 17.65 11.05 17.75 10.65 17.9 L10.3 17.95 Q9.95 17.95 8.65 17.05 L8.55 17.0 8.5 16.95 7.35 16.1" fill="#111111" fill-rule="evenodd" stroke="none"/>
      <path d="M3.4 2.5 L3.05 2.95 1.85 4.2 Q0.0 6.0 -0.2 7.6 L-0.25 7.65 -0.35 7.65 -0.65 6.8 Q-0.6 6.4 -0.1 5.5 L0.65 4.1 Q1.05 3.05 2.5 2.15 2.95 2.4 3.4 2.5 M1.65 6.5 Q2.0 6.75 2.25 8.25 2.25 8.6 2.5 10.05 2.7 11.5 2.75 12.0 L2.75 12.15 2.55 12.25 2.4 12.35 0.75 8.25 0.75 8.2 1.15 7.4 Q1.4 6.8 1.65 6.5 M2.35 12.9 Q2.55 12.8 2.7 12.8 2.95 12.85 2.95 13.15 2.95 13.25 2.6 14.1 L2.25 14.9 Q1.9 14.9 1.7 14.5 L1.6 14.05 Q1.55 13.7 1.75 13.45 L2.35 12.9 M3.4 16.35 Q3.85 16.55 3.9 17.15 3.9 17.55 3.6 17.55 3.2 17.5 3.05 17.15 L2.95 16.8 Q2.9 16.15 3.4 16.35" fill="#d4d4d4" fill-rule="evenodd" stroke="none"/>
    </g>
    <g id="sprite8" transform="matrix(1.0, 0.0, 0.0, 1.0, -0.35, 0.0)">
      <use ffdec:characterId="276" height="13.15" transform="matrix(7.0, 0.0, 0.0, 7.0, 0.35, 0.0)" width="7.7" xlink:href="#shape8"/>
    </g>
    <g id="shape8" transform="matrix(1.0, 0.0, 0.0, 1.0, -0.05, 0.0)">
      <path d="M6.95 7.05 L7.2 7.3 7.05 7.7 Q6.7 7.75 6.5 7.4 6.4 7.15 6.55 7.0 6.75 6.85 6.95 7.05 M7.7 7.55 L7.7 7.65 Q6.65 6.15 5.9 4.45 L5.9 4.5 Q5.65 4.6 5.45 4.4 5.3 4.25 5.25 4.05 5.15 3.75 5.15 3.45 L5.35 3.3 4.55 1.65 4.65 1.65 5.5 2.3 Q6.55 3.75 7.25 5.4 7.7 6.4 7.7 7.55 M5.55 6.3 Q5.55 6.5 5.35 6.6 L5.2 6.7 4.95 6.55 4.95 6.4 Q4.95 6.25 5.15 6.2 L5.2 6.15 5.55 6.3" fill="#4d4d4d" fill-rule="evenodd" stroke="none"/>
      <path d="M5.5 2.3 L4.65 1.65 4.55 1.65 5.35 3.3 5.15 3.45 Q5.15 3.75 5.25 4.05 5.3 4.25 5.45 4.4 5.65 4.6 5.9 4.5 L5.9 4.45 Q6.65 6.15 7.7 7.65 L7.7 7.55 Q7.9 9.35 7.1 10.95 6.25 12.65 4.45 13.1 4.15 13.2 3.9 13.05 2.3 12.2 1.35 10.7 0.45 9.2 0.15 7.5 -0.1 5.85 0.25 4.2 0.6 2.5 1.45 1.0 1.85 0.25 2.7 0.0 4.0 0.65 5.0 1.8 L5.5 2.3 M6.95 7.05 Q6.75 6.85 6.55 7.0 6.4 7.15 6.5 7.4 6.7 7.75 7.05 7.7 L7.2 7.3 6.95 7.05 M5.55 6.3 L5.2 6.15 5.15 6.2 Q4.95 6.25 4.95 6.4 L4.95 6.55 5.2 6.7 5.35 6.6 Q5.55 6.5 5.55 6.3" fill="#111111" fill-rule="evenodd" stroke="none"/>
    </g>
    <g id="sprite9" transform="matrix(1.0, 0.0, 0.0, 1.0, 2.45, 5.25)">
      <use ffdec:characterId="274" height="20.0" transform="matrix(7.0, 0.0, 0.0, 7.0, -2.45, -5.25)" width="11.4" xlink:href="#shape9"/>
    </g>
    <g id="shape9" transform="matrix(1.0, 0.0, 0.0, 1.0, 0.35, 0.75)">
      <path d="M3.35 -0.25 Q3.8 -0.25 4.25 -0.05 4.35 0.35 4.8 1.3 5.4 2.65 5.7 2.85 5.8 2.7 5.95 1.85 L6.05 1.05 6.95 1.8 6.95 1.85 Q6.7 3.1 6.35 4.35 5.7 6.45 5.05 6.75 3.95 4.05 3.75 2.4 L3.5 0.55 3.35 -0.25 M7.45 3.25 L7.5 3.15 8.05 4.8 Q9.0 7.5 9.2 8.8 L9.4 10.5 Q9.0 10.35 8.5 10.25 7.25 10.0 6.0 10.05 6.0 10.1 6.15 10.2 6.35 10.3 6.35 10.35 8.05 10.25 9.1 10.85 9.4 11.45 9.65 12.85 L9.8 14.15 Q9.3 13.75 8.75 13.4 6.65 12.15 5.7 12.75 L5.6 11.95 Q5.55 11.8 5.7 10.85 L5.75 10.2 6.0 10.15 5.95 10.05 5.8 10.15 5.8 9.75 Q5.8 9.35 5.65 9.2 L5.7 9.3 5.6 8.9 Q5.5 8.25 5.45 8.05 5.45 7.8 5.35 7.6 5.5 7.35 5.85 6.5 L6.45 4.9 6.75 4.4 7.1 5.15 7.2 5.05 7.3 5.0 7.4 3.75 7.45 3.25 M2.2 15.45 L2.1 15.55 1.4 16.1 Q1.4 15.05 1.5 13.9 L1.5 13.8 1.6 13.5 1.65 13.4 1.9 12.95 Q2.35 12.35 2.6 12.05 L3.15 11.55 2.9 12.1 Q2.2 13.7 2.2 15.2 L2.2 15.45 M6.95 5.35 L6.95 5.55 7.05 5.8 Q7.2 6.0 7.3 6.15 7.55 6.15 7.65 5.85 7.5 5.4 6.95 5.4 L6.95 5.35 M1.9 1.2 L1.65 2.1 1.4 2.75 1.35 2.65 Q1.4 2.9 1.45 3.15 L1.45 3.05 2.35 4.25 Q3.4 5.6 3.55 6.25 L2.95 5.85 2.55 5.55 2.5 5.6 2.5 5.65 2.45 5.75 1.75 5.25 1.85 5.75 2.1 7.6 Q2.25 8.9 2.85 11.35 2.45 11.55 2.2 11.7 L1.9 11.95 1.9 11.55 Q1.9 10.25 1.7 9.45 1.4 8.3 1.25 6.6 L1.25 6.45 1.2 6.2 1.2 5.95 0.95 4.65 Q1.4 5.0 1.75 5.25 2.05 5.45 2.3 5.6 L2.35 5.55 2.3 5.45 Q2.0 5.1 1.75 4.7 L1.7 4.65 1.6 4.5 1.35 3.9 1.3 3.85 1.3 3.8 1.25 3.8 1.25 3.75 0.9 2.85 0.95 2.7 Q1.0 2.5 1.15 2.25 1.4 1.8 1.9 1.2" fill="#346b34" fill-rule="evenodd" stroke="none"/>
      <path d="M3.35 -0.25 L3.5 0.55 3.75 2.4 Q3.95 4.05 5.05 6.75 L5.0 6.8 4.9 6.8 Q4.5 6.8 3.85 6.4 L3.55 6.25 Q3.4 5.6 2.35 4.25 L1.45 3.05 1.45 3.15 Q1.4 2.9 1.35 2.65 L1.4 2.75 1.65 2.1 1.9 1.2 2.2 0.85 Q3.15 -0.25 3.35 -0.25 M5.35 7.6 Q5.45 7.8 5.45 8.05 5.5 8.25 5.6 8.9 L5.7 9.3 5.65 9.2 Q5.8 9.35 5.8 9.75 L5.8 10.15 5.6 10.2 Q3.75 10.9 2.85 11.35 2.25 8.9 2.1 7.6 L1.85 5.75 1.75 5.25 2.45 5.75 2.45 5.85 Q2.8 6.4 4.05 7.1 5.1 7.7 5.25 7.7 L5.35 7.6 M5.75 10.2 L5.7 10.85 Q5.55 11.8 5.6 11.95 L5.7 12.75 Q4.4 13.7 2.75 15.05 L2.2 15.45 2.2 15.2 Q2.2 13.7 2.9 12.1 L3.15 11.55 Q3.5 11.2 3.95 11.0 L4.0 10.95 Q4.65 10.55 5.5 10.3 L5.55 10.3 5.75 10.2" fill="#285228" fill-rule="evenodd" stroke="none"/>
      <path d="M4.25 -0.05 Q3.8 -0.25 3.35 -0.25 3.15 -0.25 2.2 0.85 L1.9 1.2 Q1.4 1.8 1.15 2.25 1.0 2.5 0.95 2.7 L0.9 2.85 1.25 3.75 1.25 3.8 1.3 3.8 1.3 3.85 1.35 3.9 1.6 4.5 1.7 4.65 1.75 4.7 Q2.0 5.1 2.3 5.45 L2.35 5.55 2.3 5.6 Q2.05 5.45 1.75 5.25 1.4 5.0 0.95 4.65 L1.2 5.95 1.2 6.2 1.25 6.45 1.25 6.6 Q1.4 8.3 1.7 9.45 1.9 10.25 1.9 11.55 L1.9 11.95 2.2 11.7 Q2.45 11.55 2.85 11.35 3.75 10.9 5.6 10.2 L5.8 10.15 5.95 10.05 6.0 10.15 5.75 10.2 5.55 10.3 5.5 10.3 Q4.65 10.55 4.0 10.95 L3.95 11.0 Q3.5 11.2 3.15 11.55 L2.6 12.05 Q2.35 12.35 1.9 12.95 L1.65 13.4 1.6 13.5 1.5 13.8 1.5 13.9 Q1.4 15.05 1.4 16.1 L2.1 15.55 2.2 15.45 2.75 15.05 Q4.4 13.7 5.7 12.75 6.65 12.15 8.75 13.4 9.3 13.75 9.8 14.15 L9.65 12.85 Q9.4 11.45 9.1 10.85 8.05 10.25 6.35 10.35 6.35 10.3 6.15 10.2 6.0 10.1 6.0 10.05 7.25 10.0 8.5 10.25 9.0 10.35 9.4 10.5 L9.2 8.8 Q9.0 7.5 8.05 4.8 L7.5 3.15 7.45 3.25 7.3 3.45 6.75 4.4 6.45 4.9 5.85 6.5 Q5.5 7.35 5.35 7.6 L5.25 7.7 Q5.1 7.7 4.05 7.1 2.8 6.4 2.45 5.85 L2.45 5.75 2.5 5.65 2.5 5.6 2.55 5.55 2.95 5.85 3.55 6.25 3.85 6.4 Q4.5 6.8 4.9 6.8 L5.0 6.8 5.05 6.75 Q5.7 6.45 6.35 4.35 6.7 3.1 6.95 1.85 L6.95 1.8 6.05 1.05 5.95 0.95 5.85 0.9 5.85 0.85 5.65 0.75 5.55 0.65 5.5 0.65 Q4.85 0.15 4.25 -0.05 M8.4 2.15 Q8.4 2.4 8.6 3.05 L8.8 4.05 Q8.9 4.6 9.4 5.95 9.9 7.3 10.0 7.85 10.2 9.05 10.45 11.2 L10.5 11.3 10.45 11.35 10.45 11.4 10.5 11.8 10.7 12.25 Q11.0 13.35 11.05 14.75 L11.05 15.4 11.0 15.55 Q11.05 15.65 11.05 15.8 11.05 16.2 10.25 17.5 9.4 18.8 9.0 19.05 L8.95 19.05 8.85 19.2 7.55 19.15 Q7.25 19.25 7.05 19.25 5.8 19.25 4.55 18.85 L3.6 18.35 Q2.2 17.6 1.25 17.15 L0.55 16.3 0.3 16.0 0.25 15.7 0.2 15.5 Q0.3 14.45 0.55 13.75 0.9 12.65 0.9 10.95 L0.85 10.55 0.9 10.5 Q0.85 9.7 0.85 9.5 L0.45 7.35 0.45 7.15 0.3 6.85 -0.35 5.3 Q-0.4 3.8 -0.35 3.4 -0.2 2.2 0.3 1.8 L0.35 1.85 Q0.6 1.5 1.0 1.1 2.1 -0.05 3.35 -0.65 3.9 -0.95 6.05 0.1 8.25 1.15 8.25 1.75 L8.25 1.8 8.4 2.15 M9.8 16.3 L9.8 16.1 9.85 15.95 Q9.7 15.85 9.55 15.65 L9.05 14.7 Q8.3 13.35 6.5 13.35 6.35 13.35 6.1 13.45 L5.9 13.5 5.75 13.5 Q5.25 13.5 4.05 14.45 3.45 14.95 2.85 15.45 2.6 15.7 2.4 16.2 2.3 16.35 2.2 16.6 L2.2 16.65 2.15 16.75 Q2.75 17.05 3.45 17.3 4.9 17.9 6.75 18.4 L7.05 18.4 7.5 18.35 8.5 18.25 9.35 17.25 Q9.7 16.7 9.8 16.3" fill="#111111" fill-rule="evenodd" stroke="none"/>
      <path d="M9.8 16.3 L9.7 16.3 9.05 16.25 9.2 16.1 Q9.35 15.85 9.35 15.55 9.35 15.15 8.85 15.2 8.35 15.25 8.35 15.75 L8.4 15.95 8.1 15.8 8.0 15.8 Q8.2 15.5 8.2 15.3 8.2 15.0 8.0 14.85 7.75 14.7 7.45 14.75 6.9 14.9 6.75 15.4 5.95 15.0 5.6 14.7 L5.55 14.6 5.8 14.5 5.85 14.65 Q6.05 15.0 6.45 15.0 6.6 15.0 6.95 14.85 7.35 14.6 7.35 14.45 7.3 14.1 7.1 13.9 6.85 13.7 6.55 13.65 6.25 13.65 6.05 13.8 L5.9 13.5 6.1 13.45 Q6.35 13.35 6.5 13.35 8.3 13.35 9.05 14.7 L9.55 15.65 Q9.7 15.85 9.85 15.95 L9.8 16.1 9.8 16.3 M8.6 14.1 Q8.05 13.9 7.85 14.15 7.75 14.25 7.75 14.45 7.75 14.6 7.8 14.7 7.9 14.9 8.2 14.9 L8.5 14.85 8.65 14.75 8.75 14.45 8.7 14.3 8.6 14.1 M2.4 16.2 Q2.85 16.75 3.45 17.3 2.75 17.05 2.15 16.75 L2.2 16.65 2.2 16.6 Q2.3 16.35 2.4 16.2 M7.1 16.35 Q7.4 16.35 7.75 16.55 8.15 16.75 8.3 16.95 L8.1 17.15 7.8 17.2 Q7.4 17.2 7.2 16.9 7.05 16.7 7.05 16.6 L7.1 16.35" fill="#666666" fill-rule="evenodd" stroke="none"/>
      <path d="M6.05 1.05 L5.95 1.85 Q5.8 2.7 5.7 2.85 5.4 2.65 4.8 1.3 4.35 0.35 4.25 -0.05 4.85 0.15 5.5 0.65 L5.55 0.65 5.65 0.75 5.85 0.85 5.85 0.9 5.95 0.95 6.05 1.05 M7.45 3.25 L7.4 3.75 7.3 5.0 7.2 5.05 7.1 5.15 6.75 4.4 7.3 3.45 7.45 3.25 M6.95 5.35 L6.95 5.4 Q7.5 5.4 7.65 5.85 7.55 6.15 7.3 6.15 7.2 6.0 7.05 5.8 L6.95 5.55 6.95 5.35" fill="#d4d4d4" fill-rule="evenodd" stroke="none"/>
      <path d="M8.6 14.1 L8.7 14.3 8.75 14.45 8.65 14.75 8.5 14.85 8.2 14.9 Q7.9 14.9 7.8 14.7 7.75 14.6 7.75 14.45 7.75 14.25 7.85 14.15 8.05 13.9 8.6 14.1 M5.9 13.5 L6.05 13.8 Q6.25 13.65 6.55 13.65 6.85 13.7 7.1 13.9 7.3 14.1 7.35 14.45 7.35 14.6 6.95 14.85 6.6 15.0 6.45 15.0 6.05 15.0 5.85 14.65 L5.8 14.5 5.55 14.6 5.6 14.7 Q5.95 15.0 6.75 15.4 6.9 14.9 7.45 14.75 7.75 14.7 8.0 14.85 8.2 15.0 8.2 15.3 8.2 15.5 8.0 15.8 L8.1 15.8 8.4 15.95 8.35 15.75 Q8.35 15.25 8.85 15.2 9.35 15.15 9.35 15.55 9.35 15.85 9.2 16.1 L9.05 16.25 9.7 16.3 9.8 16.3 Q9.7 16.7 9.35 17.25 L8.5 18.25 7.5 18.35 7.05 18.4 6.75 18.4 Q4.9 17.9 3.45 17.3 2.85 16.75 2.4 16.2 2.6 15.7 2.85 15.45 3.45 14.95 4.05 14.45 5.25 13.5 5.75 13.5 L5.9 13.5 M7.1 16.35 L7.05 16.6 Q7.05 16.7 7.2 16.9 7.4 17.2 7.8 17.2 L8.1 17.15 8.3 16.95 Q8.15 16.75 7.75 16.55 7.4 16.35 7.1 16.35" fill="#1a1a1a" fill-rule="evenodd" stroke="none"/>
    </g>
    <g id="sprite10" transform="matrix(1.0, 0.0, 0.0, 1.0, -93.45, 67.2)">
      <use ffdec:characterId="272" height="34.35" transform="matrix(7.0, 0.0, 0.0, 7.0, 93.45, -67.2)" width="36.65" xlink:href="#shape10"/>
    </g>
    <g id="shape10" transform="matrix(1.0, 0.0, 0.0, 1.0, -13.35, 9.6)">
      <path d="M19.0 0.25 Q19.1 -1.2 19.95 -2.95 L20.85 -4.7 Q21.35 -5.75 21.6 -6.8 L21.45 -6.9 21.1 -7.15 Q20.75 -7.4 20.65 -7.65 21.15 -7.65 21.7 -7.3 L21.75 -7.25 Q22.0 -7.95 22.25 -8.0 L22.25 -8.5 Q22.25 -8.65 22.35 -9.05 L22.4 -9.15 22.4 -9.45 22.55 -9.45 Q22.6 -9.55 22.7 -9.6 L22.65 -8.8 22.8 -7.45 Q22.85 -7.4 22.85 -7.25 L22.85 -7.2 23.1 -6.4 23.65 -5.15 23.7 -5.15 24.05 -4.15 24.1 -4.15 Q24.6 -3.35 25.25 -2.6 L26.45 -3.15 Q27.7 -3.7 28.45 -3.95 29.55 -4.3 30.7 -4.5 L30.7 -4.55 30.95 -5.3 Q30.95 -6.7 32.5 -7.45 L32.65 -7.35 Q32.45 -6.65 31.95 -6.2 31.65 -5.95 31.55 -5.65 L31.5 -5.55 31.5 -5.35 Q31.5 -5.3 31.75 -4.85 L31.85 -4.6 Q32.7 -4.7 33.65 -4.65 L34.4 -4.55 34.95 -4.75 35.3 -5.05 Q35.95 -5.5 36.4 -5.3 L36.25 -5.25 36.5 -5.3 Q36.25 -5.1 35.7 -4.8 L35.45 -4.55 35.3 -4.35 Q36.85 -4.0 37.95 -3.55 38.8 -3.25 39.95 -2.6 40.35 -3.1 43.4 -4.35 44.95 -5.25 46.4 -5.7 46.55 -6.15 46.95 -6.65 47.55 -7.5 48.0 -7.65 48.3 -7.55 48.4 -7.4 47.9 -6.9 47.3 -6.15 L47.15 -5.95 Q47.95 -6.15 48.7 -6.2 L48.8 -6.1 48.85 -6.1 Q49.5 -6.25 50.0 -5.75 L49.6 -5.55 49.65 -5.5 49.55 -5.5 49.45 -5.55 49.3 -5.45 49.05 -5.55 Q48.5 -5.7 48.15 -5.45 47.8 -5.2 47.75 -4.6 L47.7 -4.6 Q47.65 -3.9 47.35 -2.85 47.0 -1.55 47.0 -0.6 47.0 0.25 46.7 1.65 46.4 3.0 46.4 3.7 46.4 5.65 44.15 8.7 42.3 11.1 40.6 12.15 L39.6 13.25 Q39.55 13.65 39.05 14.3 L39.0 14.4 38.55 14.9 37.95 15.55 Q36.3 17.3 34.0 19.1 31.35 21.15 29.0 22.35 26.55 23.65 24.8 23.8 L24.85 23.85 Q25.15 24.4 25.5 24.6 L25.55 24.7 25.4 24.75 25.1 24.75 Q24.9 24.75 24.55 24.05 L24.5 24.1 24.35 23.75 23.8 23.15 23.65 23.4 Q23.4 23.75 23.4 23.9 23.4 24.05 23.3 24.2 L23.15 24.4 23.0 24.3 Q23.0 24.25 23.0 24.05 23.0 23.95 23.05 23.7 23.05 23.3 23.35 22.8 23.25 22.65 23.2 22.55 L22.95 22.15 22.9 22.05 22.35 21.4 21.75 20.65 21.25 20.95 20.6 20.2 20.45 20.05 19.8 20.45 19.75 20.45 18.75 21.25 Q16.75 22.65 15.95 22.65 L15.9 22.65 15.8 22.75 15.5 22.65 15.25 22.35 Q13.35 19.35 13.35 16.65 13.35 15.65 14.15 13.95 L14.65 12.95 Q14.95 12.75 15.25 12.55 15.2 12.45 15.2 12.3 15.2 11.95 15.5 11.3 15.8 10.7 16.1 10.5 L16.7 10.45 16.85 10.45 16.9 10.4 17.4 10.4 17.65 10.4 17.75 10.4 18.45 10.35 18.75 9.5 18.95 8.8 19.05 8.5 19.05 8.45 Q19.05 7.95 18.6 7.0 18.1 6.0 18.1 5.45 L18.6 5.0 Q19.05 4.55 19.05 4.35 L19.0 3.7 Q19.2 3.35 19.1 2.55 18.9 1.15 18.9 0.45 L18.95 0.3 19.0 0.25 M22.25 -5.7 L22.05 -5.15 21.95 -4.8 Q22.3 -5.65 22.3 -5.75 L22.3 -6.0 22.25 -5.7 M23.35 -3.55 L22.85 -5.05 Q22.55 -5.65 22.45 -6.2 L22.45 -6.05 22.4 -6.05 22.4 -5.85 Q22.4 -5.35 21.85 -4.15 21.7 -3.5 20.85 -2.05 L20.65 -1.7 20.2 -0.85 20.05 -0.3 Q19.75 1.1 19.75 2.4 19.75 2.7 19.8 3.3 L19.9 4.15 20.0 4.2 20.45 4.25 Q20.8 4.25 21.45 3.1 L21.7 2.7 Q22.1 2.3 22.7 1.8 21.9 2.55 21.9 2.9 L21.85 3.05 Q21.65 3.35 21.5 3.7 L21.35 4.0 20.55 4.75 Q20.05 5.05 19.7 5.3 L19.7 5.35 19.75 5.35 Q19.95 5.45 20.15 5.75 L20.35 6.15 Q20.45 6.8 20.85 7.45 L20.95 7.6 Q20.8 7.0 20.65 6.65 21.0 6.7 21.15 7.4 21.4 8.45 21.45 8.55 21.45 8.65 21.35 8.7 L21.35 9.35 Q21.3 9.65 21.1 9.85 L21.05 9.9 20.7 10.3 Q20.05 10.65 19.45 11.0 18.85 11.2 18.25 11.5 L18.1 11.3 18.0 11.3 Q17.85 11.25 17.75 11.2 16.9 11.3 16.5 11.65 L16.4 11.95 16.4 12.0 16.3 12.65 16.2 13.0 Q16.0 13.15 15.8 13.35 L15.75 13.2 15.65 13.4 Q15.3 13.9 14.8 14.55 L14.65 14.95 Q14.3 16.15 14.3 17.6 14.3 18.25 14.85 19.7 15.45 21.25 16.15 21.55 L17.65 20.55 17.75 20.6 18.3 20.15 18.6 19.85 18.65 19.85 18.75 19.7 20.05 18.5 20.55 18.0 21.0 17.65 21.7 17.15 22.15 16.95 23.6 16.35 Q23.95 16.25 24.2 16.15 24.65 16.3 24.75 16.3 25.75 16.3 26.15 15.6 26.35 15.2 26.3 14.85 26.3 14.65 26.2 14.25 26.15 13.85 26.15 13.4 26.15 13.15 25.7 12.95 25.25 12.75 25.05 12.6 L24.95 12.55 24.8 12.55 24.15 12.55 23.9 12.55 Q23.85 12.55 23.55 12.65 L23.25 12.8 22.6 13.05 22.9 12.75 Q23.1 12.5 23.3 12.4 L23.4 12.35 Q24.0 12.05 25.1 12.25 L25.15 12.3 Q25.3 12.55 26.1 13.2 26.8 13.8 26.8 14.3 26.8 15.3 26.55 15.9 26.05 16.85 24.8 16.9 L24.7 16.9 24.25 16.8 22.45 18.1 Q21.55 18.7 20.95 19.1 L21.4 19.55 21.4 19.6 21.45 19.6 Q22.55 19.4 23.55 19.25 L25.4 19.15 25.45 19.15 25.5 19.1 25.5 19.15 Q26.55 19.05 27.45 19.15 28.0 19.3 28.5 19.45 L28.55 19.4 28.75 19.45 28.8 19.55 29.1 19.7 29.2 19.7 29.15 19.75 29.35 19.85 Q29.85 20.05 30.1 20.25 L30.25 20.4 30.35 20.45 30.45 20.4 Q31.4 19.85 32.4 19.15 L34.35 17.4 Q35.75 16.75 39.05 13.1 40.5 11.45 41.7 9.9 L42.4 9.05 42.65 8.65 43.5 7.7 Q44.15 6.5 44.55 5.05 L45.0 3.25 45.35 1.8 Q45.9 -0.55 46.0 -1.6 L46.05 -2.2 46.05 -2.35 46.35 -3.6 46.4 -3.8 Q46.55 -4.2 46.65 -4.55 L46.65 -4.6 46.7 -4.65 46.85 -5.05 Q45.4 -4.55 44.25 -3.95 L43.8 -3.7 42.4 -2.8 42.25 -2.7 Q41.2 -1.85 40.15 -0.7 39.15 0.45 38.35 1.6 L38.35 1.65 38.25 1.75 38.1 1.95 37.7 2.55 Q37.3 3.2 37.1 3.7 L36.95 4.3 36.85 4.75 36.85 4.9 36.85 5.4 36.95 5.7 Q37.05 6.2 37.05 6.4 L37.05 6.5 37.15 6.75 37.15 6.85 37.3 7.2 37.35 7.3 37.3 7.4 37.3 7.45 37.25 7.5 37.4 7.55 37.4 7.65 37.35 7.7 Q37.3 7.75 37.1 7.75 L36.75 7.75 36.7 7.2 36.85 7.25 36.9 7.2 36.65 6.6 36.6 6.5 Q36.6 5.75 36.55 5.5 L36.35 4.8 36.35 4.55 Q36.65 3.9 36.95 2.9 L37.2 2.25 37.3 1.85 38.05 0.7 38.15 0.55 38.2 0.5 38.2 0.55 38.25 0.5 38.4 0.25 38.5 0.15 38.55 0.05 38.7 -0.15 38.8 -0.25 38.85 -0.3 39.4 -0.95 39.55 -1.15 39.85 -1.5 39.8 -1.55 39.5 -1.8 39.25 -1.9 39.05 -1.95 39.05 -2.0 39.0 -2.0 38.15 -2.35 38.05 -2.35 37.95 -2.4 37.9 -2.45 37.6 -2.55 37.6 -2.6 37.35 -2.7 36.7 -2.9 36.5 -3.0 Q33.7 -4.05 32.1 -3.85 31.55 -3.8 31.25 -3.6 L30.75 -3.55 Q29.6 -3.3 28.3 -2.7 L26.65 -1.95 Q26.1 -1.7 25.75 -1.6 L25.6 -1.4 25.05 -1.1 Q24.8 -0.95 23.9 0.0 L23.6 0.35 Q23.85 -0.1 24.1 -0.55 24.45 -1.0 24.75 -1.35 L24.75 -1.45 Q24.3 -1.85 24.0 -2.5 L23.85 -2.5 23.85 -2.65 Q23.85 -2.75 23.65 -3.05 L23.4 -3.4 23.35 -3.55 M23.15 10.2 L23.2 10.1 23.25 10.1 Q23.1 10.05 23.0 9.95 22.8 9.75 22.8 9.6 22.9 9.65 23.1 9.85 23.3 10.0 23.4 10.05 L23.7 10.0 23.7 9.95 Q23.7 9.9 24.75 9.45 L24.9 9.4 Q25.3 9.05 26.25 8.55 27.6 7.9 28.65 7.55 L28.7 7.55 28.7 7.65 Q28.7 7.75 27.8 8.25 29.7 7.6 30.05 7.55 30.65 7.2 31.3 7.5 31.9 7.8 31.9 8.05 L31.85 8.25 31.9 8.25 31.6 8.4 31.35 8.6 Q30.75 8.85 29.8 9.0 L29.75 9.25 Q29.7 9.65 29.7 9.8 L29.5 10.0 29.4 10.15 29.25 10.35 Q29.0 10.7 28.8 10.85 L28.6 10.8 28.25 11.05 28.25 11.0 28.6 10.8 28.55 10.8 28.7 10.7 28.95 10.4 29.0 10.4 29.1 10.15 Q29.1 10.05 29.25 9.8 29.3 9.5 29.35 9.15 29.15 9.1 29.0 9.05 L28.5 9.1 28.45 9.1 28.35 9.1 28.2 9.05 27.5 9.15 27.3 9.2 26.1 9.55 Q26.0 9.65 25.9 9.75 L25.85 9.8 Q25.8 9.8 25.8 9.85 L25.85 10.15 25.95 10.4 Q26.15 10.75 26.5 10.8 26.85 11.0 27.35 11.0 L27.7 11.0 28.0 10.95 28.25 10.95 Q27.75 11.25 27.25 11.25 26.4 11.25 25.95 10.75 25.6 10.45 25.5 9.9 L25.35 9.95 25.3 9.95 Q24.35 10.25 23.35 10.25 L23.15 10.2 M29.6 12.7 L29.45 12.85 28.1 13.0 27.8 13.0 Q26.25 12.9 25.7 11.9 25.5 11.5 25.5 10.8 L25.65 10.8 Q25.75 11.35 25.9 11.65 26.4 12.55 27.75 12.75 L27.85 12.8 Q28.8 13.0 29.6 12.7 M28.75 15.55 L29.0 15.95 Q29.95 17.6 29.95 19.0 L29.95 19.75 Q29.95 19.85 29.85 19.9 29.9 18.45 28.95 16.6 L28.75 16.25 Q27.7 14.95 27.0 13.8 L26.95 13.8 26.85 13.6 26.55 13.3 Q26.65 13.35 26.8 13.45 26.85 13.35 27.0 13.35 L27.3 13.75 27.5 14.0 Q28.2 14.65 28.75 15.55 M22.6 0.65 L22.6 0.65 M24.75 -1.35 L24.75 -1.35 M40.2 5.4 L39.75 4.5 Q39.05 3.25 39.05 2.35 39.05 1.3 41.15 -0.55 L42.45 -1.65 43.0 -2.15 43.45 -2.55 43.5 -2.6 Q44.25 -3.25 44.45 -3.35 L44.4 -3.25 44.3 -3.1 44.35 -2.95 Q44.35 -2.85 43.55 -2.2 L43.2 -1.9 41.85 -0.6 40.55 0.75 40.0 1.35 Q39.75 1.7 39.6 2.05 L39.6 2.15 39.85 2.9 40.7 2.95 41.3 3.1 Q41.85 3.2 42.15 3.45 L42.25 3.5 Q42.4 3.6 42.55 3.8 L42.55 3.85 42.6 3.85 Q42.7 4.1 42.8 4.6 42.85 4.9 42.9 5.1 L43.0 5.2 43.0 5.9 42.85 6.05 42.7 6.0 42.7 5.65 42.6 5.15 Q42.4 4.55 42.1 4.1 41.45 3.1 40.45 3.05 L39.95 3.1 40.3 4.1 Q41.05 6.25 41.05 6.7 41.05 7.25 40.65 7.85 40.05 8.75 39.9 9.15 L39.55 9.25 39.45 9.05 Q39.5 8.65 40.0 7.9 L40.05 7.85 40.05 7.8 40.2 7.45 40.25 7.35 40.3 7.1 Q40.45 6.75 40.45 6.35 40.45 5.95 40.2 5.45 L40.2 5.4 M29.45 20.55 Q29.05 20.4 28.65 20.15 L27.95 20.8 Q27.15 21.55 26.65 21.75 L26.45 21.5 Q26.1 21.25 25.75 20.65 L25.4 19.95 25.15 19.55 24.15 19.7 23.35 19.85 Q23.2 20.1 23.2 20.3 23.2 20.6 23.45 20.9 L23.7 21.5 23.9 21.9 Q23.9 22.0 24.15 22.3 24.45 22.6 24.7 22.6 L24.9 22.6 Q25.9 22.55 26.9 22.3 L27.35 22.1 27.4 22.1 28.25 21.7 28.8 21.5 29.0 21.25 29.85 20.75 29.45 20.55 M25.95 19.85 L26.1 20.1 26.55 20.95 26.8 21.1 28.1 19.8 Q27.65 19.6 27.2 19.5 L26.85 19.45 25.85 19.5 25.95 19.85 M19.85 4.7 L19.85 4.7 M18.95 5.6 Q18.85 5.75 18.85 5.8 18.85 5.95 19.25 6.85 19.55 7.45 19.65 8.0 L19.65 7.95 Q19.6 7.4 19.4 6.75 L19.2 6.1 Q19.0 5.75 18.95 5.6 M22.5 7.75 Q22.85 6.75 23.2 6.55 L22.75 7.8 Q22.4 8.6 22.35 9.15 L22.25 9.3 22.15 9.15 22.15 9.1 Q22.35 8.5 22.35 8.15 L22.5 7.75 M20.55 7.85 L20.55 7.8 20.5 7.7 Q20.35 7.5 20.25 7.45 L20.15 7.55 Q20.05 7.7 19.95 7.9 19.8 8.25 19.8 8.35 19.8 9.5 20.6 9.6 21.0 9.4 21.0 9.15 21.0 8.4 20.55 7.85 M20.5 8.45 L20.5 8.5 20.45 8.35 20.5 8.45 M19.8 7.6 Q19.85 7.45 20.0 7.35 L19.9 7.15 19.4 6.45 Q19.45 6.8 19.6 7.1 19.7 7.35 19.8 7.6 M19.7 8.95 L19.65 9.0 Q19.5 9.3 19.45 9.5 L19.45 9.55 Q19.5 9.7 19.5 10.05 L19.5 10.1 20.2 9.8 20.25 9.75 Q19.9 9.75 19.7 9.1 L19.7 8.95 M18.95 10.95 L19.0 11.05 Q19.3 10.95 19.35 10.8 L18.95 10.95 M18.1 10.75 L18.2 10.75 18.5 10.85 18.55 10.8 18.5 10.8 Q18.45 10.75 18.4 10.7 L18.2 10.7 18.1 10.75 M17.9 11.1 L17.85 11.15 18.0 11.2 17.9 11.1 M20.85 18.6 L20.85 18.65 21.0 18.45 20.9 18.5 20.85 18.6" fill="#111111" fill-rule="evenodd" stroke="none"/>
      <path d="M17.4 10.4 L17.45 10.35 17.65 10.4 17.4 10.4 M18.95 8.8 L19.05 8.45 19.05 8.5 18.95 8.8 M18.95 0.3 L19.0 0.25 18.95 0.3 M22.25 -5.7 L22.3 -6.0 22.3 -5.75 Q22.3 -5.65 21.95 -4.8 L22.05 -5.15 22.25 -5.7 M20.65 -1.7 L20.05 -0.3 20.2 -0.85 20.65 -1.7 M19.85 4.7 L19.85 4.7 M18.95 5.6 Q19.0 5.75 19.2 6.1 L19.4 6.75 Q19.6 7.4 19.65 7.95 L19.65 8.0 Q19.55 7.45 19.25 6.85 18.85 5.95 18.85 5.8 18.85 5.75 18.95 5.6 M18.95 10.95 L19.35 10.8 Q19.3 10.95 19.0 11.05 L18.95 10.95 M17.9 11.1 L18.0 11.2 17.85 11.15 17.9 11.1 M18.1 10.75 L18.2 10.7 18.4 10.7 Q18.45 10.75 18.5 10.8 L18.55 10.8 18.5 10.85 18.2 10.75 18.1 10.75" fill="#000000" fill-rule="evenodd" stroke="none"/>
      <path d="M20.65 -1.7 L20.85 -2.05 Q21.7 -3.5 21.85 -4.15 22.4 -5.35 22.4 -5.85 L22.4 -6.05 22.45 -6.05 22.45 -6.2 Q22.55 -5.65 22.85 -5.05 L23.35 -3.55 23.35 -3.45 23.3 -3.5 Q23.05 -3.1 22.75 -2.0 L22.7 -1.8 22.65 -1.65 22.65 -1.6 Q22.4 -0.7 22.4 -0.25 22.4 -0.1 22.5 0.35 L22.6 0.65 22.65 0.8 22.8 1.05 22.9 0.85 23.1 0.85 23.6 0.35 23.9 0.0 Q24.8 -0.95 25.05 -1.1 L25.6 -1.4 25.75 -1.6 Q26.1 -1.7 26.65 -1.95 L28.3 -2.7 Q29.6 -3.3 30.75 -3.55 L31.25 -3.6 Q31.55 -3.8 32.1 -3.85 33.7 -4.05 36.5 -3.0 L36.7 -2.9 37.35 -2.7 37.6 -2.6 37.6 -2.55 37.9 -2.45 37.8 -2.4 Q38.65 -2.1 38.7 -1.45 39.1 -1.45 39.1 -1.35 L39.15 -1.2 39.2 -0.85 Q39.2 -0.75 38.8 -0.25 L38.7 -0.15 38.55 0.05 38.5 0.15 38.4 0.25 38.15 0.55 38.05 0.7 37.8 1.0 37.4 1.5 37.3 1.85 37.2 2.25 36.45 2.95 35.6 3.75 34.35 4.55 34.5 4.5 34.8 4.7 Q35.7 5.4 35.7 6.55 L35.7 6.6 Q35.7 6.7 35.5 6.7 L34.45 6.45 32.85 6.3 33.2 6.6 Q34.05 7.35 34.75 8.35 35.5 9.3 35.5 9.7 35.5 9.9 35.1 10.5 34.7 11.15 34.15 11.75 33.35 12.7 32.65 13.1 L32.65 13.1 Q31.8 13.6 31.1 14.2 L30.8 14.1 30.45 14.1 29.3 13.95 27.85 13.8 27.65 13.65 27.5 13.7 27.3 13.75 27.0 13.35 Q26.85 13.35 26.8 13.45 26.65 13.35 26.55 13.3 L26.85 13.6 26.95 13.8 27.0 13.8 Q27.7 14.95 28.75 16.25 L28.95 16.6 Q29.9 18.45 29.85 19.9 29.95 19.85 29.95 19.75 L29.95 19.0 Q29.95 17.6 29.0 15.95 L28.75 15.55 29.15 15.8 29.1 15.85 29.2 15.95 29.35 16.05 29.45 16.05 Q29.7 16.2 29.85 16.2 30.15 16.2 30.7 16.0 L30.95 16.05 Q31.25 15.85 31.55 15.7 31.4 16.05 31.35 16.45 31.3 16.7 31.25 17.0 30.8 18.0 30.4 19.1 30.25 19.7 30.1 20.25 29.85 20.05 29.35 19.85 L29.15 19.75 29.2 19.7 29.1 19.7 28.8 19.55 28.75 19.45 28.55 19.4 28.5 19.45 Q28.0 19.3 27.45 19.15 26.55 19.05 25.5 19.15 L25.5 19.1 25.45 19.15 25.4 19.15 23.55 19.25 24.1 18.2 24.05 18.2 Q24.8 17.05 24.8 16.9 26.05 16.85 26.55 15.9 26.8 15.3 26.8 14.3 26.8 13.8 26.1 13.2 25.3 12.55 25.15 12.3 25.65 12.35 26.35 12.7 27.1 13.1 27.3 13.1 27.65 13.1 27.8 13.0 L28.1 13.0 29.45 12.85 29.6 12.7 29.7 12.55 Q30.65 11.45 31.05 10.75 L31.35 10.3 30.95 10.35 30.55 10.25 Q30.4 10.2 30.4 9.85 30.4 9.6 30.8 9.15 31.05 8.85 31.35 8.6 L31.6 8.4 31.9 8.25 31.85 8.25 31.9 8.05 Q31.9 7.8 31.3 7.5 30.65 7.2 30.05 7.55 29.7 7.6 27.8 8.25 28.7 7.75 28.7 7.65 L28.7 7.55 28.65 7.55 Q27.6 7.9 26.25 8.55 25.3 9.05 24.9 9.4 L24.75 9.45 Q23.7 9.9 23.7 9.95 L23.7 10.0 23.4 10.05 Q23.3 10.0 23.1 9.85 22.9 9.65 22.8 9.6 22.8 9.75 23.0 9.95 23.1 10.05 23.25 10.1 L23.2 10.1 23.15 10.2 22.9 10.8 22.8 11.0 22.85 11.2 22.6 11.7 21.7 13.05 Q20.85 14.45 20.85 14.65 20.85 14.9 20.9 14.95 20.95 15.0 21.15 15.05 L23.1 13.2 23.55 12.75 23.6 12.75 23.6 12.8 Q23.85 12.6 24.15 12.55 L24.8 12.55 24.95 12.6 25.05 12.6 Q25.25 12.75 25.7 12.95 26.15 13.15 26.15 13.4 26.15 13.85 26.2 14.25 26.3 14.65 26.3 14.85 26.35 15.2 26.15 15.6 25.75 16.3 24.75 16.3 24.65 16.3 24.2 16.15 23.95 16.25 23.6 16.35 L22.15 16.95 21.7 17.15 21.0 17.65 20.55 18.0 20.05 18.5 18.75 19.7 18.65 19.85 18.6 19.85 18.3 20.15 17.75 20.6 17.65 20.55 16.15 21.55 Q15.45 21.25 14.85 19.7 14.3 18.25 14.3 17.6 14.3 16.15 14.65 14.95 L14.8 14.55 Q15.3 13.9 15.65 13.4 L15.75 13.2 15.8 13.35 Q16.0 13.15 16.2 13.0 L16.3 12.65 16.4 12.0 16.4 11.95 16.5 11.65 Q16.9 11.3 17.75 11.2 17.85 11.25 18.0 11.3 L17.8 11.35 Q17.35 11.45 17.05 11.8 16.7 12.2 16.7 12.55 L16.75 12.55 Q17.5 11.95 18.25 11.5 18.85 11.2 19.45 11.0 20.05 10.65 20.7 10.3 L21.05 9.9 21.1 9.85 Q21.3 9.65 21.35 9.35 L21.35 8.7 Q21.45 8.65 21.45 8.55 21.4 8.45 21.15 7.4 21.0 6.7 20.65 6.65 20.8 7.0 20.95 7.6 L20.85 7.45 Q20.45 6.8 20.35 6.15 L20.15 5.75 Q19.95 5.45 19.75 5.35 L19.7 5.35 19.7 5.3 Q20.05 5.05 20.55 4.75 L21.35 4.0 21.5 3.7 Q21.65 3.35 21.85 3.05 L21.9 2.9 Q21.9 2.55 22.7 1.8 22.1 2.3 21.7 2.7 L21.45 3.1 Q20.8 4.25 20.45 4.25 L20.0 4.2 19.9 4.15 19.8 3.3 Q19.75 2.7 19.75 2.4 19.75 1.1 20.05 -0.3 L20.65 -1.7 M22.6 0.65 L22.6 0.65 M24.75 -1.35 L24.75 -1.35 M39.05 -1.95 L39.25 -1.9 39.5 -1.8 39.8 -1.55 39.85 -1.5 Q39.65 -1.7 39.1 -1.95 L39.05 -1.95 M38.35 1.65 L38.35 1.6 Q39.15 0.45 40.15 -0.7 41.2 -1.85 42.25 -2.7 L42.4 -2.8 43.8 -3.7 44.25 -3.95 Q45.4 -4.55 46.85 -5.05 L46.7 -4.65 46.65 -4.6 46.65 -4.55 Q46.55 -4.2 46.4 -3.8 L46.35 -3.6 Q46.2 -3.75 45.95 -3.8 45.35 -3.85 44.4 -3.25 L44.45 -3.35 Q44.25 -3.25 43.5 -2.6 L43.45 -2.55 43.0 -2.15 42.45 -1.65 41.15 -0.55 Q39.05 1.3 39.05 2.35 39.05 3.25 39.75 4.5 L40.2 5.4 39.6 6.25 Q38.75 7.5 38.1 8.65 38.0 8.65 37.85 8.5 37.65 8.35 37.65 8.2 37.65 8.05 37.45 7.7 L37.55 7.65 37.35 7.3 37.3 7.2 Q37.15 6.8 37.05 6.15 L36.85 4.9 36.85 4.75 36.95 4.3 37.1 3.7 Q37.3 3.2 37.7 2.55 L38.1 1.95 38.15 2.0 38.35 1.65 M46.0 -1.6 Q45.9 -0.55 45.35 1.8 L45.0 3.25 44.55 5.05 Q44.15 6.5 43.5 7.7 L42.65 8.65 42.4 9.05 Q42.25 8.35 42.1 7.1 41.9 5.7 41.9 5.15 L41.4 4.65 Q40.6 3.85 40.25 3.25 40.35 3.15 40.45 3.05 41.45 3.1 42.1 4.1 42.4 4.55 42.6 5.15 L42.7 5.65 42.7 6.0 42.85 6.05 43.0 5.9 43.0 5.2 42.9 5.1 Q42.85 4.9 42.8 4.6 42.7 4.1 42.6 3.85 L42.55 3.85 42.55 3.8 Q42.4 3.6 42.25 3.5 L42.15 3.45 42.05 3.35 Q42.15 3.0 42.25 2.65 42.55 1.85 43.75 0.05 44.15 -0.55 45.3 -1.25 L46.0 -1.6 M40.7 2.95 Q41.0 2.9 41.3 3.1 L40.7 2.95 M24.05 3.95 L24.1 3.95 24.75 4.2 Q25.85 4.55 26.4 4.85 27.1 5.15 27.6 5.45 L28.7 5.8 Q28.85 5.75 28.9 5.65 L28.95 5.55 Q28.3 4.55 26.55 3.9 25.6 3.55 24.75 3.4 L24.05 3.95 M25.0 4.85 L24.8 4.8 23.65 4.45 23.3 4.45 23.15 4.6 Q23.85 4.85 24.9 5.4 L25.9 5.95 27.05 6.0 Q25.35 5.05 25.0 4.85 M32.35 5.0 L32.35 5.25 32.4 5.35 32.7 5.35 32.8 5.25 32.85 5.0 Q32.85 4.8 32.75 4.7 32.75 4.65 32.6 4.6 32.45 4.65 32.4 4.7 32.35 4.8 32.35 5.0 M29.4 3.95 L29.45 3.9 Q29.05 3.3 28.55 2.9 27.7 2.25 26.85 2.5 27.65 2.75 28.5 3.3 L29.4 3.95 M33.15 1.9 Q32.85 1.85 32.4 2.0 32.0 2.2 31.7 2.55 31.4 2.9 31.4 3.25 L31.4 3.6 Q31.45 3.95 31.85 3.95 32.7 3.95 33.1 3.5 L33.4 2.15 Q33.35 1.95 33.15 1.9 M36.8 8.05 L36.75 8.05 36.75 7.95 36.8 8.05 M29.45 20.55 L29.85 20.75 29.0 21.25 28.8 21.5 28.25 21.7 27.4 22.1 27.35 22.1 26.9 22.3 Q25.9 22.55 24.9 22.6 L24.7 22.6 Q24.45 22.6 24.15 22.3 23.9 22.0 23.9 21.9 L23.7 21.5 23.45 20.9 Q23.2 20.6 23.2 20.3 23.2 20.1 23.35 19.85 L24.15 19.7 25.15 19.55 25.4 19.95 25.75 20.65 Q26.1 21.25 26.45 21.5 L26.65 21.75 Q27.15 21.55 27.95 20.8 L28.65 20.15 Q29.05 20.4 29.45 20.55 M22.5 7.75 L22.35 8.15 Q22.35 8.5 22.15 9.1 L22.15 9.15 22.25 9.3 22.35 9.15 Q22.4 8.6 22.75 7.8 L23.2 6.55 Q22.85 6.75 22.5 7.75 M19.2 14.05 Q19.2 13.5 18.55 13.55 17.95 13.65 17.95 14.15 17.95 14.3 18.0 14.45 18.15 14.75 18.4 14.75 18.7 14.75 18.95 14.45 19.2 14.15 19.2 14.05 M17.0 15.75 Q17.0 15.15 16.7 14.95 16.4 14.75 16.0 14.85 15.6 15.0 15.3 15.35 15.0 15.7 15.0 16.15 L15.1 16.65 Q15.35 17.2 15.95 17.2 16.55 17.2 16.8 16.65 17.0 16.25 17.0 15.75" fill="#4c9999" fill-rule="evenodd" stroke="none"/>
      <path d="M18.25 11.5 Q17.5 11.95 16.75 12.55 L16.7 12.55 Q16.7 12.2 17.05 11.8 17.35 11.45 17.8 11.35 L18.0 11.3 18.1 11.3 18.25 11.5 M25.05 12.6 L24.95 12.6 24.8 12.55 24.95 12.55 25.05 12.6 M24.15 12.55 Q23.85 12.6 23.6 12.8 L23.6 12.75 23.55 12.75 23.1 13.2 21.15 15.05 Q20.95 15.0 20.9 14.95 20.85 14.9 20.85 14.65 20.85 14.45 21.7 13.05 L22.6 11.7 22.85 11.2 22.8 11.0 22.9 10.8 23.15 10.2 23.35 10.25 Q24.35 10.25 25.3 9.95 L25.35 9.95 25.5 9.9 Q25.6 10.45 25.95 10.75 26.4 11.25 27.25 11.25 27.75 11.25 28.25 10.95 28.4 10.9 28.55 10.8 L28.6 10.8 28.25 11.0 28.25 11.05 28.6 10.8 28.8 10.85 Q29.0 10.7 29.25 10.35 L29.4 10.15 29.5 10.0 29.7 9.8 Q29.7 9.65 29.75 9.25 L29.8 9.0 Q30.75 8.85 31.35 8.6 31.05 8.85 30.8 9.15 30.4 9.6 30.4 9.85 30.4 10.2 30.55 10.25 L30.95 10.35 31.35 10.3 31.05 10.75 Q30.65 11.45 29.7 12.55 L29.6 12.7 Q28.8 13.0 27.85 12.8 L27.75 12.75 Q26.4 12.55 25.9 11.65 25.75 11.35 25.65 10.8 L25.5 10.8 Q25.5 11.5 25.7 11.9 26.25 12.9 27.8 13.0 27.65 13.1 27.3 13.1 27.1 13.1 26.35 12.7 25.65 12.35 25.15 12.3 L25.1 12.25 Q24.0 12.05 23.4 12.35 L23.3 12.4 Q23.1 12.5 22.9 12.75 L22.6 13.05 23.25 12.8 23.55 12.65 Q23.85 12.55 23.9 12.55 L24.15 12.55 M24.8 16.9 Q24.8 17.05 24.05 18.2 L24.1 18.2 23.55 19.25 Q22.55 19.4 21.45 19.6 L21.4 19.6 21.4 19.55 20.95 19.1 Q21.55 18.7 22.45 18.1 L24.25 16.8 24.7 16.9 24.8 16.9 M30.1 20.25 Q30.25 19.7 30.4 19.1 30.8 18.0 31.25 17.0 31.3 16.7 31.35 16.45 31.4 16.05 31.55 15.7 31.25 15.85 30.95 16.05 L30.7 16.0 Q30.15 16.2 29.85 16.2 29.7 16.2 29.45 16.05 L29.35 16.05 29.2 15.95 29.1 15.85 29.15 15.8 28.75 15.55 Q28.2 14.65 27.5 14.0 L27.3 13.75 27.5 13.7 27.65 13.65 27.85 13.8 29.3 13.95 30.45 14.1 30.8 14.1 31.1 14.2 Q31.8 13.6 32.65 13.1 L32.65 13.1 Q33.35 12.7 34.15 11.75 34.7 11.15 35.1 10.5 35.5 9.9 35.5 9.7 35.5 9.3 34.75 8.35 34.05 7.35 33.2 6.6 L32.85 6.3 34.45 6.45 35.5 6.7 Q35.7 6.7 35.7 6.6 L35.7 6.55 Q35.7 5.4 34.8 4.7 L34.5 4.5 34.35 4.55 35.6 3.75 36.45 2.95 37.2 2.25 36.95 2.9 Q36.65 3.9 36.35 4.55 L36.35 4.8 36.55 5.5 Q36.6 5.75 36.6 6.5 L36.65 6.6 36.9 7.2 36.85 7.25 36.7 7.2 36.75 7.75 37.1 7.75 Q37.3 7.75 37.35 7.7 L37.4 7.65 37.4 7.55 37.25 7.5 37.3 7.45 37.3 7.4 37.35 7.3 37.55 7.65 37.45 7.7 Q37.65 8.05 37.65 8.2 37.65 8.35 37.85 8.5 38.0 8.65 38.1 8.65 38.75 7.5 39.6 6.25 L40.2 5.4 40.2 5.45 Q40.45 5.95 40.45 6.35 40.45 6.75 40.3 7.1 L40.25 7.35 40.2 7.45 40.05 7.8 40.05 7.85 40.0 7.9 Q39.5 8.65 39.45 9.05 L39.55 9.25 39.9 9.15 Q40.05 8.75 40.65 7.85 41.05 7.25 41.05 6.7 41.05 6.25 40.3 4.1 L39.95 3.1 40.45 3.05 Q40.35 3.15 40.25 3.25 40.6 3.85 41.4 4.65 L41.9 5.15 Q41.9 5.7 42.1 7.1 42.25 8.35 42.4 9.05 L41.7 9.9 Q40.5 11.45 39.05 13.1 35.75 16.75 34.35 17.4 L32.4 19.15 Q31.4 19.85 30.45 20.4 L30.35 20.45 30.25 20.4 30.1 20.25 M27.0 13.8 L26.95 13.8 27.0 13.8 M37.3 1.85 L37.4 1.5 37.8 1.0 38.05 0.7 37.3 1.85 M38.15 0.55 L38.4 0.25 38.25 0.5 38.2 0.55 38.2 0.5 38.15 0.55 M38.8 -0.25 Q39.2 -0.75 39.2 -0.85 L39.15 -1.2 39.1 -1.35 Q39.1 -1.45 38.7 -1.45 38.65 -2.1 37.8 -2.4 L37.9 -2.45 37.95 -2.4 38.05 -2.35 38.15 -2.35 39.0 -2.0 39.05 -2.0 39.05 -1.95 39.1 -1.95 Q39.65 -1.7 39.85 -1.5 L39.55 -1.15 39.4 -0.95 38.85 -0.3 38.8 -0.25 M23.6 0.35 L23.1 0.85 22.9 0.85 22.8 1.05 22.65 0.8 22.6 0.65 22.5 0.35 Q22.4 -0.1 22.4 -0.25 22.4 -0.7 22.65 -1.6 L22.65 -1.65 22.7 -1.8 22.75 -2.0 Q23.05 -3.1 23.3 -3.5 L23.35 -3.45 23.35 -3.55 23.4 -3.4 23.65 -3.05 Q23.85 -2.75 23.85 -2.65 L23.85 -2.5 24.0 -2.5 Q24.3 -1.85 24.75 -1.45 L24.75 -1.35 Q24.45 -1.0 24.1 -0.55 23.85 -0.1 23.6 0.35 M38.35 1.65 L38.15 2.0 38.1 1.95 38.25 1.75 38.35 1.65 M36.85 4.9 L37.05 6.15 Q37.15 6.8 37.3 7.2 L37.15 6.85 37.15 6.75 37.05 6.5 37.05 6.4 Q37.05 6.2 36.95 5.7 L36.85 5.4 36.85 4.9 M44.4 -3.25 Q45.35 -3.85 45.95 -3.8 46.2 -3.75 46.35 -3.6 L46.05 -2.35 46.05 -2.2 46.0 -1.6 45.3 -1.25 Q44.15 -0.55 43.75 0.05 42.55 1.85 42.25 2.65 42.15 3.0 42.05 3.35 L42.15 3.45 Q41.85 3.2 41.3 3.1 41.0 2.9 40.7 2.95 L39.85 2.9 39.6 2.15 39.6 2.05 Q39.75 1.7 40.0 1.35 L40.55 0.75 41.85 -0.6 43.2 -1.9 43.55 -2.2 Q44.35 -2.85 44.35 -2.95 L44.3 -3.1 44.4 -3.25 M36.8 8.05 L36.75 7.95 36.75 8.05 36.8 8.05 M33.15 1.9 Q33.35 1.95 33.4 2.15 L33.1 3.5 Q32.7 3.95 31.85 3.95 31.45 3.95 31.4 3.6 L31.4 3.25 Q31.4 2.9 31.7 2.55 32.0 2.2 32.4 2.0 32.85 1.85 33.15 1.9 M29.4 3.95 L28.5 3.3 Q27.65 2.75 26.85 2.5 27.7 2.25 28.55 2.9 29.05 3.3 29.45 3.9 L29.4 3.95 M32.35 5.0 Q32.35 4.8 32.4 4.7 32.45 4.65 32.6 4.6 32.75 4.65 32.75 4.7 32.85 4.8 32.85 5.0 L32.8 5.25 32.7 5.35 32.4 5.35 32.35 5.25 32.35 5.0 M25.0 4.85 Q25.35 5.05 27.05 6.0 L25.9 5.95 24.9 5.4 Q23.85 4.85 23.15 4.6 L23.3 4.45 23.65 4.45 24.8 4.8 25.0 4.85 M24.05 3.95 L24.75 3.4 Q25.6 3.55 26.55 3.9 28.3 4.55 28.95 5.55 L28.9 5.65 Q28.85 5.75 28.7 5.8 L27.6 5.45 Q27.1 5.15 26.4 4.85 25.85 4.55 24.75 4.2 L24.1 3.95 24.05 3.95 M19.8 7.6 Q19.7 7.35 19.6 7.1 19.45 6.8 19.4 6.45 L19.9 7.15 20.0 7.35 Q19.85 7.45 19.8 7.6 M19.7 8.95 L19.7 9.1 Q19.9 9.75 20.25 9.75 L20.2 9.8 19.5 10.1 19.5 10.05 Q19.5 9.7 19.45 9.55 L19.45 9.5 Q19.5 9.3 19.65 9.0 L19.7 8.95 M19.2 14.05 Q19.2 14.15 18.95 14.45 18.7 14.75 18.4 14.75 18.15 14.75 18.0 14.45 17.95 14.3 17.95 14.15 17.95 13.65 18.55 13.55 19.2 13.5 19.2 14.05 M20.85 18.6 L20.9 18.5 21.0 18.45 20.85 18.65 20.85 18.6 M17.0 15.75 Q17.0 16.25 16.8 16.65 16.55 17.2 15.95 17.2 15.35 17.2 15.1 16.65 L15.0 16.15 Q15.0 15.7 15.3 15.35 15.6 15.0 16.0 14.85 16.4 14.75 16.7 14.95 17.0 15.15 17.0 15.75" fill="#397373" fill-rule="evenodd" stroke="none"/>
      <path d="M25.9 9.75 Q25.85 9.8 25.85 9.9 L25.9 10.05 25.85 10.15 25.8 9.85 Q25.8 9.8 25.85 9.8 L25.9 9.75 M28.0 10.95 Q28.35 10.8 28.6 10.45 28.9 10.0 28.9 9.75 28.9 9.3 28.8 9.05 28.6 9.15 28.5 9.3 L28.5 9.25 28.45 9.2 28.45 9.1 28.5 9.1 29.0 9.05 Q29.15 9.1 29.35 9.15 29.3 9.5 29.25 9.8 29.1 10.05 29.1 10.15 L29.0 10.4 28.95 10.4 28.7 10.7 28.55 10.8 Q28.4 10.9 28.25 10.95 L28.0 10.95 M28.2 10.3 L28.1 10.4 28.25 10.2 28.2 10.3 M20.55 7.85 Q20.45 7.7 20.25 7.6 L20.15 7.55 20.25 7.45 Q20.35 7.5 20.5 7.7 L20.55 7.8 20.55 7.85" fill="#a33418" fill-rule="evenodd" stroke="none"/>
      <path d="M25.9 9.75 Q26.0 9.65 26.1 9.55 L27.3 9.2 27.5 9.15 28.2 9.05 28.35 9.1 28.45 9.1 28.45 9.2 28.5 9.25 28.5 9.3 Q28.6 9.15 28.8 9.05 28.9 9.3 28.9 9.75 28.9 10.0 28.6 10.45 28.35 10.8 28.0 10.95 L27.7 11.0 27.35 11.0 Q26.85 11.0 26.5 10.8 26.15 10.75 25.95 10.4 L25.85 10.15 25.9 10.05 25.85 9.9 Q25.85 9.8 25.9 9.75 M28.2 10.3 L28.25 10.2 28.1 10.4 28.2 10.3 M20.15 7.55 L20.25 7.6 Q20.45 7.7 20.55 7.85 21.0 8.4 21.0 9.15 21.0 9.4 20.6 9.6 19.8 9.5 19.8 8.35 19.8 8.25 19.95 7.9 20.05 7.7 20.15 7.55 M20.5 8.45 L20.45 8.35 20.5 8.5 20.5 8.45" fill="#f35223" fill-rule="evenodd" stroke="none"/>
      <path d="M25.95 19.85 L25.85 19.5 26.85 19.45 27.2 19.5 Q27.65 19.6 28.1 19.8 L26.8 21.1 26.55 20.95 26.1 20.1 25.95 19.85" fill="#faf9d8" fill-rule="evenodd" stroke="none"/>
    </g>
    <g id="sprite11" transform="matrix(1.0, 0.0, 0.0, 1.0, 0.7, 1.05)">
      <use ffdec:characterId="268" height="8.75" transform="matrix(7.0, 0.0, 0.0, 7.0, -0.7, -1.05)" width="9.25" xlink:href="#shape11"/>
    </g>
    <g id="shape11" transform="matrix(1.0, 0.0, 0.0, 1.0, 0.1, 0.15)">
      <path d="M6.65 2.45 L6.65 2.45 M4.65 1.4 L5.3 1.35 5.35 1.45 Q5.6 1.5 5.95 1.75 L6.85 2.4 6.9 2.45 6.8 2.55 Q6.95 2.65 7.05 2.7 L6.95 2.75 6.65 2.95 Q6.05 2.3 5.25 1.75 L4.65 1.4 M5.75 3.45 Q4.7 3.9 4.5 4.2 L4.45 4.3 4.3 4.15 3.05 3.05 Q3.25 2.7 3.75 2.0 L4.1 2.25 5.3 2.95 5.75 3.45 M3.4 7.1 Q3.3 7.45 3.3 7.55 L2.5 7.05 1.9 6.5 1.8 6.35 Q1.35 5.6 1.35 5.5 1.35 5.4 1.45 5.25 1.55 5.1 1.55 5.0 L1.55 4.75 Q1.7 5.1 1.95 5.55 2.6 6.75 3.4 7.1 M1.4 4.55 Q1.25 4.75 1.1 5.0 L1.0 5.25 Q0.35 3.9 0.35 3.1 0.35 2.3 1.15 1.45 2.15 0.35 3.9 0.3 L4.1 0.3 Q4.5 0.25 4.9 0.45 L4.95 0.5 Q4.85 0.55 4.75 0.6 L4.65 0.7 4.3 0.95 4.15 0.95 3.55 0.75 Q3.05 0.6 2.95 0.6 2.7 0.6 2.45 0.7 2.35 0.75 1.95 1.0 L2.05 1.1 Q2.85 1.05 3.6 1.5 L3.5 1.55 2.7 2.35 2.6 2.5 2.55 2.5 2.5 2.55 Q2.35 2.55 2.2 2.4 L2.3 2.3 2.1 2.55 Q1.8 2.3 1.55 2.15 0.7 1.75 0.75 2.65 0.7 3.15 0.8 3.65 0.95 4.4 1.4 4.55 M6.55 3.4 L6.85 3.3 6.95 3.4 Q7.05 3.35 7.15 3.35 L7.65 3.8 8.0 4.1 8.05 4.2 8.05 4.3 8.15 4.45 Q8.0 4.5 7.85 4.6 L7.0 3.8 6.55 3.4 M7.2 5.05 Q6.8 5.4 6.25 6.05 L6.15 6.25 Q4.85 5.65 4.85 5.25 4.85 4.75 5.75 3.75 L6.8 4.7 7.2 5.05 M5.2 7.25 L5.0 7.4 4.5 7.65 4.35 7.55 4.1 7.5 3.95 7.5 3.9 7.45 Q3.9 7.35 3.9 7.1 3.85 7.0 3.9 6.8 L4.8 7.05 5.2 7.25" fill="#346b34" fill-rule="evenodd" stroke="none"/>
      <path d="M4.45 4.3 L4.2 4.9 Q4.0 5.3 3.65 6.35 L3.6 6.45 3.4 7.0 3.4 7.1 Q2.6 6.75 1.95 5.55 1.7 5.1 1.55 4.75 L1.55 4.6 1.6 4.55 1.6 4.4 1.65 4.25 Q1.5 4.35 1.4 4.55 0.95 4.4 0.8 3.65 0.7 3.15 0.75 2.65 0.7 1.75 1.55 2.15 1.8 2.3 2.1 2.55 L2.3 2.3 2.2 2.4 Q2.35 2.55 2.5 2.55 L2.55 2.5 Q2.35 2.75 2.35 2.85 L2.4 3.0 2.45 3.0 Q2.7 2.85 3.25 2.25 3.6 1.85 3.95 1.65 L3.75 2.0 Q3.25 2.7 3.05 3.05 L4.3 4.15 4.45 4.3 M6.15 6.25 L6.05 6.3 5.3 7.2 5.2 7.25 4.8 7.05 3.9 6.8 4.0 6.45 4.0 6.35 Q4.2 5.6 4.55 5.0 L4.75 4.7 5.1 4.25 Q5.4 3.9 5.8 3.65 L5.75 3.75 Q4.85 4.75 4.85 5.25 4.85 5.65 6.15 6.25 M1.7 4.05 L1.8 4.0 2.0 3.45 Q1.85 3.55 1.7 4.05" fill="#285228" fill-rule="evenodd" stroke="none"/>
      <path d="M5.8 0.5 L5.95 0.6 Q5.9 0.7 5.9 0.8 L6.0 0.9 Q6.2 1.15 7.45 2.05 L7.95 2.45 Q7.85 2.6 7.85 2.75 L9.15 4.2 9.15 4.35 Q9.15 4.6 9.05 4.8 L8.8 4.95 Q8.65 5.3 7.8 5.7 6.55 6.25 6.2 6.65 5.85 7.0 5.7 7.4 5.65 7.6 5.55 7.95 L5.5 8.0 5.4 8.25 Q5.2 8.6 4.95 8.6 4.45 8.6 3.45 8.3 3.05 8.25 2.7 8.15 L2.4 8.1 Q2.05 8.1 1.5 7.4 1.05 6.8 1.0 6.6 L1.05 6.5 1.0 6.5 Q0.6 5.85 0.45 5.2 -0.1 2.95 -0.1 2.45 -0.15 1.65 0.85 0.9 2.1 -0.1 4.25 -0.15 4.9 -0.15 5.6 0.2 L5.8 0.5 M6.65 2.45 L6.65 2.45 M6.65 2.95 L6.95 2.75 7.05 2.7 Q6.95 2.65 6.8 2.55 L6.9 2.45 6.85 2.4 5.95 1.75 Q5.6 1.5 5.35 1.45 L5.3 1.35 4.65 1.4 Q4.4 1.45 4.2 1.55 L3.95 1.65 Q3.6 1.85 3.25 2.25 2.7 2.85 2.45 3.0 L2.4 3.0 2.35 2.85 Q2.35 2.75 2.55 2.5 L2.6 2.5 2.7 2.35 3.5 1.55 3.6 1.5 3.7 1.4 4.3 0.95 4.65 0.7 4.75 0.6 Q4.85 0.55 4.95 0.5 L4.9 0.45 Q4.5 0.25 4.1 0.3 L3.9 0.3 Q2.15 0.35 1.15 1.45 0.35 2.3 0.35 3.1 0.35 3.9 1.0 5.25 L1.1 5.0 Q1.25 4.75 1.4 4.55 1.5 4.35 1.65 4.25 L1.6 4.4 1.6 4.55 1.55 4.6 1.55 4.75 1.55 5.0 Q1.55 5.1 1.45 5.25 1.35 5.4 1.35 5.5 1.35 5.6 1.8 6.35 L1.9 6.5 2.5 7.05 3.3 7.55 Q3.3 7.45 3.4 7.1 L3.4 7.0 3.6 6.45 3.65 6.35 Q4.0 5.3 4.2 4.9 L4.45 4.3 4.5 4.2 Q4.7 3.9 5.75 3.45 L5.85 3.4 Q6.15 3.3 6.65 2.95 M7.85 4.6 Q8.0 4.5 8.15 4.45 L8.05 4.3 8.05 4.2 8.0 4.1 7.65 3.8 7.15 3.35 Q7.05 3.35 6.95 3.4 L6.85 3.3 6.55 3.4 Q6.15 3.45 5.8 3.65 5.4 3.9 5.1 4.25 L4.75 4.7 4.55 5.0 Q4.2 5.6 4.0 6.35 L4.0 6.45 3.9 6.8 Q3.85 7.0 3.9 7.1 3.9 7.35 3.9 7.45 L3.95 7.5 4.1 7.5 4.35 7.55 4.5 7.65 5.0 7.4 5.2 7.25 5.3 7.2 6.05 6.3 6.15 6.25 6.25 6.05 Q6.8 5.4 7.2 5.05 7.55 4.75 7.85 4.6 M1.7 4.05 Q1.85 3.55 2.0 3.45 L1.8 4.0 1.7 4.05 M1.05 6.5 L1.05 6.5" fill="#111111" fill-rule="evenodd" stroke="none"/>
      <path d="M4.65 1.4 L5.25 1.75 Q6.05 2.3 6.65 2.95 6.15 3.3 5.85 3.4 L5.75 3.45 5.3 2.95 4.1 2.25 3.75 2.0 3.95 1.65 4.2 1.55 Q4.4 1.45 4.65 1.4 M4.3 0.95 L3.7 1.4 3.6 1.5 Q2.85 1.05 2.05 1.1 L1.95 1.0 Q2.35 0.75 2.45 0.7 2.7 0.6 2.95 0.6 3.05 0.6 3.55 0.75 L4.15 0.95 4.3 0.95 M6.55 3.4 L7.0 3.8 7.85 4.6 Q7.55 4.75 7.2 5.05 L6.8 4.7 5.75 3.75 5.8 3.65 Q6.15 3.45 6.55 3.4" fill="#d4d4d4" fill-rule="evenodd" stroke="none"/>
    </g>
  </defs>
</svg>
