<?xml version="1.0" encoding="UTF-8" standalone="no"?>
<svg xmlns:ffdec="https://www.free-decompiler.com/flash" xmlns:xlink="http://www.w3.org/1999/xlink" ffdec:objectType="frame" height="248.95px" width="217.75px" xmlns="http://www.w3.org/2000/svg">
  <g transform="matrix(1.0, 0.0, 0.0, 1.0, 0.0, 0.0)">
    <use ffdec:characterId="88" height="551.9" transform="matrix(0.4511, 0.0, 0.0, 0.4511, 0.0, 0.0)" width="482.8" xlink:href="#sprite0"/>
  </g>
  <defs>
    <g id="sprite0" transform="matrix(1.0, 0.0, 0.0, 1.0, 0.0, 0.0)">
      <use ffdec:characterId="85" height="131.6" transform="matrix(1.0, 0.0, 0.0, 1.0, 0.0, 420.3)" width="482.8" xlink:href="#sprite1"/>
      <use ffdec:characterId="87" height="532.6" transform="matrix(1.0, 0.0, 0.0, 1.0, 43.05, 0.0)" width="387.95" xlink:href="#sprite2"/>
    </g>
    <g id="sprite1" transform="matrix(1.0, 0.0, 0.0, 1.0, 0.0, 0.0)">
      <use ffdec:characterId="84" height="131.6" transform="matrix(1.0, 0.0, 0.0, 1.0, 0.0, 0.0)" width="482.8" xlink:href="#shape0"/>
    </g>
    <g id="shape0" transform="matrix(1.0, 0.0, 0.0, 1.0, 0.0, 0.0)">
      <path d="M453.25 51.9 Q452.85 48.45 451.85 45.4 450.05 39.7 446.8 37.3 L448.6 36.2 Q449.8 35.4 449.8 33.15 449.8 32.3 448.3 30.3 446.3 27.75 443.8 27.75 L437.05 28.1 Q438.45 25.5 438.45 23.95 L453.65 20.8 Q453.85 21.9 454.35 22.2 L456.75 22.85 459.75 21.65 Q463.8 23.8 467.15 28.4 L468.6 30.6 467.1 30.85 Q462.6 31.85 460.1 35.05 465.4 36.55 470.25 36.55 L471.5 36.5 471.8 37.35 Q473.25 41.45 473.25 43.65 L473.25 43.7 Q468.05 45.15 461.05 48.2 L453.25 51.9 M421.6 64.9 L421.5 64.1 423.55 60.6 Q425.6 57.05 425.6 56.05 425.6 53.85 424.85 53.15 L424.1 52.3 Q420.35 52.65 420.0 52.3 L422.0 49.4 424.1 45.55 Q423.65 44.85 421.9 43.85 L418.65 42.15 420.3 41.45 Q421.5 41.05 421.5 38.8 421.5 37.05 409.85 29.95 L418.8 28.05 Q420.15 29.6 422.25 29.6 424.6 29.6 425.35 28.85 L425.6 28.1 425.55 27.9 Q437.85 29.8 442.25 38.4 444.25 42.35 444.75 48.0 L444.9 56.6 444.9 56.9 Q438.9 57.55 430.65 60.8 425.8 62.7 421.6 64.9 M412.15 17.8 Q411.15 19.1 411.15 22.1 L410.85 23.4 403.6 24.9 402.15 23.45 Q400.65 22.15 400.65 21.75 400.65 20.25 401.25 17.8 401.65 16.25 401.05 15.0 399.85 14.45 398.05 14.65 L394.85 15.0 394.8 13.75 399.9 12.9 Q401.65 14.65 407.95 16.5 L412.15 17.8 M432.65 75.75 L432.6 75.9 431.8 76.1 432.65 75.75 M356.8 72.75 L353.65 67.65 Q349.15 60.7 346.85 59.6 349.3 53.5 348.0 46.3 L340.45 44.0 388.6 34.3 392.55 33.5 Q408.8 39.0 412.4 41.9 415.55 44.45 416.45 48.35 417.15 51.2 417.15 58.5 417.15 62.4 416.1 65.6 404.5 67.9 388.6 73.3 377.8 76.9 365.05 81.95 L359.65 84.1 Q378.25 72.6 388.6 65.2 394.8 60.7 398.05 57.75 395.7 58.0 388.6 60.4 L380.7 63.2 Q368.6 67.6 356.8 72.75 M329.2 25.3 L360.1 19.75 361.95 21.05 Q363.3 22.4 365.0 26.15 366.7 29.8 368.3 31.25 L369.65 32.25 330.6 41.0 324.85 39.6 Q310.8 36.65 306.8 41.3 L305.6 39.1 Q304.55 37.15 303.0 35.8 L300.55 36.15 Q301.1 39.55 301.55 41.25 L302.15 43.2 301.55 43.2 Q298.95 41.95 296.15 41.45 L295.65 41.35 Q289.9 40.4 285.45 42.7 284.3 43.3 283.35 44.05 L277.85 44.55 277.85 39.9 277.2 38.25 Q276.6 37.4 274.85 36.9 269.8 37.45 267.45 36.05 L296.15 31.2 323.35 26.4 Q332.2 28.1 338.4 34.3 L339.05 33.0 339.15 32.25 338.8 30.0 Q335.65 26.9 329.2 25.3 M388.6 22.5 Q387.6 22.75 387.1 23.15 L382.2 29.45 379.8 30.0 380.25 29.6 Q378.2 27.35 373.8 25.05 369.85 23.0 369.15 21.75 373.1 18.8 375.45 18.35 377.15 18.0 377.4 17.6 L377.15 16.75 382.75 15.75 Q385.95 16.75 388.6 18.4 390.65 19.65 392.3 21.35 L392.95 22.1 388.6 22.5 M394.5 45.9 Q394.95 46.6 397.1 47.3 L399.15 47.8 Q403.2 45.8 405.55 42.55 401.95 42.0 394.5 45.9 M384.35 43.65 Q382.45 43.8 380.15 45.25 378.25 46.45 377.05 47.8 L381.05 46.55 Q383.7 45.55 384.75 44.8 L384.35 43.65 M329.6 84.85 L330.15 79.3 Q330.15 75.9 327.1 69.85 323.75 63.3 319.2 58.5 315.65 54.8 312.3 53.1 L310.85 50.8 318.4 48.5 Q320.45 49.35 321.9 50.8 L324.65 53.85 Q326.2 55.55 327.9 56.25 L338.05 57.0 Q339.85 57.6 342.7 61.65 345.35 65.4 345.35 66.55 345.35 68.35 346.5 75.15 L347.3 80.3 Q337.55 81.4 329.6 84.85 M205.25 18.1 L244.2 15.9 248.6 21.75 196.75 26.15 184.85 27.3 180.35 25.4 174.95 23.95 Q167.6 22.7 167.6 28.3 L167.6 29.0 153.3 30.55 Q151.65 29.6 150.55 29.6 L146.65 28.85 138.6 28.1 133.8 28.6 130.5 26.6 Q132.7 25.8 133.65 23.65 L162.9 21.85 174.95 20.6 195.25 18.85 Q193.5 20.4 193.5 21.9 193.5 24.2 194.1 24.25 L196.1 24.35 Q201.8 23.55 203.5 21.15 L204.95 18.55 205.25 18.1 M272.25 17.4 L274.4 19.5 257.55 21.0 257.8 18.15 Q257.8 17.05 257.3 15.75 L269.65 15.75 Q271.05 16.45 272.25 17.4 M288.55 15.75 Q290.35 14.95 291.65 14.5 293.9 13.7 296.15 13.65 L296.4 13.65 299.75 16.75 300.15 17.1 296.15 17.5 284.8 18.55 284.8 18.35 284.4 18.3 283.3 16.95 282.2 15.75 288.55 15.75 M293.4 24.35 L293.2 24.15 296.15 24.05 307.05 23.65 301.0 25.15 296.15 26.25 293.25 26.9 293.4 24.35 M258.55 25.6 Q257.25 25.7 256.65 26.35 256.2 26.9 255.7 28.65 255.15 30.35 254.4 31.1 L261.45 29.65 Q265.75 28.55 266.25 27.35 261.5 25.55 259.0 25.55 L279.0 24.7 280.3 27.15 Q281.25 28.35 283.55 28.95 L264.35 32.4 264.1 32.2 Q262.5 31.1 258.9 31.1 L254.75 31.3 Q252.1 32.0 250.15 34.35 L240.75 35.25 Q241.3 33.35 240.35 31.5 L234.6 30.6 225.0 29.4 Q213.5 28.8 212.25 34.6 L193.05 35.2 193.1 33.9 Q193.1 32.45 189.75 30.15 L202.5 28.5 252.1 25.85 Q252.6 26.25 252.9 26.25 L255.65 25.9 255.6 25.7 258.55 25.6 M290.95 94.7 Q289.45 85.15 284.6 74.0 277.15 56.95 265.9 49.65 L269.95 49.65 270.05 50.05 268.15 50.5 Q273.9 52.0 281.6 52.75 283.95 53.7 284.25 54.0 291.5 54.5 296.15 55.6 L297.3 55.9 297.45 55.95 296.8 56.6 298.65 58.15 296.15 59.7 296.0 59.8 292.3 62.6 Q292.75 64.05 295.3 66.0 L296.15 65.65 298.85 63.55 Q301.1 61.45 301.3 60.2 304.25 62.45 307.4 64.4 312.9 67.8 313.75 68.55 316.0 70.55 316.8 73.9 317.6 77.3 317.6 85.3 L317.55 86.45 Q314.05 87.45 309.75 89.05 305.3 90.7 296.15 93.3 L290.95 94.7 M247.05 39.35 L250.95 38.75 256.1 40.4 Q259.3 41.4 261.15 42.55 264.15 44.35 266.15 45.85 L257.9 47.15 246.35 47.8 246.7 47.6 Q248.2 46.65 248.4 46.65 L248.6 46.65 Q248.8 46.2 248.8 43.85 248.8 41.6 247.05 39.35 M246.75 66.25 Q240.85 68.0 239.25 67.5 242.0 64.4 244.95 62.4 250.65 58.5 255.55 62.25 253.1 64.4 246.75 66.25 M250.6 88.35 Q249.25 89.05 246.75 89.05 L242.25 88.65 Q243.6 86.4 245.0 85.4 247.6 83.55 251.4 85.65 L252.15 86.8 250.6 88.35 M274.35 104.6 L273.75 101.25 Q275.55 99.95 281.7 98.9 L288.35 98.15 288.55 102.1 288.55 102.35 288.55 102.75 288.55 102.9 287.6 106.65 Q286.15 111.15 283.95 114.9 276.8 126.9 264.15 126.9 L253.8 124.95 253.15 124.7 256.85 123.5 256.9 123.45 257.65 123.3 267.7 118.9 267.9 118.75 268.05 118.6 Q275.6 113.4 275.6 108.0 L275.55 105.35 275.25 104.6 274.35 104.6 M297.55 75.9 L298.8 77.3 302.05 77.8 Q305.0 77.8 306.2 76.9 L309.0 73.3 Q304.7 71.2 302.1 72.05 300.1 72.7 297.55 75.9 M216.55 79.4 L216.4 71.95 Q215.75 64.75 212.55 59.35 205.95 48.0 187.0 41.4 L192.45 40.05 199.5 40.3 213.1 40.45 213.15 40.65 Q227.8 41.95 234.6 45.45 L238.55 47.65 Q240.45 48.5 242.85 48.55 235.6 50.45 230.15 54.7 227.25 53.7 224.65 53.75 221.85 53.75 221.05 55.1 221.4 56.2 223.25 57.4 224.55 58.25 226.0 58.6 L225.85 58.75 Q221.75 63.4 219.6 69.3 218.05 73.6 218.05 76.3 L218.3 79.45 218.25 79.0 216.55 79.4 M222.55 46.3 Q218.55 44.95 215.4 45.85 212.05 46.75 212.05 49.85 212.05 52.15 212.45 52.3 L214.3 52.5 Q216.65 51.6 222.55 46.3 M160.45 105.55 L172.3 106.1 174.95 105.9 Q181.05 104.9 188.1 99.5 L193.5 94.7 184.05 84.85 Q179.25 87.7 174.95 89.7 169.2 92.3 164.25 93.35 L163.5 92.6 Q168.6 88.95 174.95 85.05 L180.7 81.55 174.95 76.05 162.0 64.1 163.1 63.75 Q168.8 67.4 174.95 72.1 L184.2 79.55 184.2 79.5 Q193.05 74.45 198.4 72.05 L199.5 74.9 198.4 75.55 188.8 81.85 187.7 82.6 Q193.15 87.35 197.05 91.45 L199.85 88.95 199.55 89.75 199.1 90.7 198.5 92.1 198.45 92.2 198.35 92.4 Q201.85 90.95 202.85 87.55 L203.1 86.1 Q207.65 82.5 209.65 83.7 211.2 84.65 212.0 88.55 L210.55 94.9 Q204.9 114.55 185.8 114.55 L161.75 106.65 160.4 105.55 160.45 105.55 M200.75 71.05 Q201.45 70.7 202.1 70.5 205.5 71.25 206.05 72.15 204.25 72.45 201.7 73.75 L200.75 71.05 M173.4 37.65 L164.25 45.95 164.25 45.15 Q164.25 43.85 163.7 43.1 162.45 41.35 158.25 39.9 159.0 37.45 158.2 35.4 L159.05 35.25 174.95 32.55 175.6 32.45 Q185.9 32.9 185.85 34.6 L185.35 36.1 182.5 36.65 Q179.0 37.4 177.0 38.5 L174.95 38.0 173.4 37.65 M162.75 82.65 L159.3 81.6 157.5 81.15 Q157.5 80.05 158.5 79.0 159.75 77.65 162.0 77.4 165.05 79.75 165.75 80.8 L165.1 81.45 Q164.15 82.2 162.75 82.65 M211.35 108.4 L211.0 109.0 211.0 110.15 209.9 110.6 211.35 108.4 M191.15 99.6 L189.15 102.35 191.4 102.75 Q193.25 100.5 195.0 97.1 193.25 97.1 191.15 99.6 M261.55 101.6 L261.55 102.75 262.0 103.3 Q262.0 103.85 259.65 103.85 257.3 103.85 255.6 102.8 254.25 101.95 251.8 99.35 L255.0 99.65 Q257.75 100.25 261.55 101.6 M121.5 29.55 L122.0 29.9 126.8 33.8 111.6 36.2 110.4 35.05 107.9 35.0 Q107.45 32.2 106.1 31.05 105.1 30.15 104.05 30.0 104.05 28.9 101.05 26.55 L98.25 24.3 109.55 24.15 Q115.1 25.5 119.5 28.2 117.85 29.0 116.1 30.55 113.15 33.1 111.9 35.8 116.25 36.05 119.35 32.7 120.75 31.2 121.5 29.55 M141.45 61.8 L139.65 57.35 Q138.15 53.15 127.6 46.9 122.4 43.85 118.65 41.35 L124.1 41.4 129.4 40.45 130.85 41.8 Q139.35 37.75 148.3 41.45 151.2 42.65 153.65 44.45 155.6 45.95 155.6 46.3 L155.45 50.05 155.25 52.65 155.7 53.05 156.7 53.3 Q152.4 57.7 150.2 60.75 L148.65 60.75 143.05 61.1 Q142.1 61.35 141.45 61.8 M93.25 34.5 L93.0 34.5 Q87.65 41.2 84.15 49.65 L82.55 54.05 81.75 54.75 82.2 55.2 81.7 56.9 Q80.85 38.05 69.0 28.7 L65.5 26.3 Q78.65 27.65 90.35 32.9 L93.25 34.5 M88.35 36.1 Q90.35 34.4 92.25 34.3 88.25 34.3 80.25 38.8 L84.0 39.55 88.35 36.1 M128.75 75.05 L131.9 75.25 Q138.35 76.2 140.65 80.05 L137.8 84.85 Q134.75 89.5 134.05 89.8 L116.25 90.15 114.3 90.15 103.6 88.4 102.5 88.05 102.25 87.95 104.3 87.5 110.4 87.9 Q118.15 87.9 124.8 80.35 127.35 77.5 128.75 75.05 M119.1 82.1 L114.3 78.95 Q104.25 72.15 99.9 68.25 105.9 68.35 116.2 74.35 L121.85 77.95 121.85 77.6 Q121.85 76.55 123.85 75.85 L123.75 76.1 123.45 76.7 122.35 78.55 121.65 79.45 121.1 80.1 119.1 82.1 M102.9 60.0 L99.85 60.75 95.4 61.5 Q96.6 59.3 98.0 58.55 99.85 57.6 102.55 58.85 L102.9 60.0 M65.4 65.45 L69.45 65.05 Q72.4 65.1 76.1 66.1 L75.8 67.05 72.15 73.65 Q67.7 79.85 60.35 83.05 L57.7 83.65 49.35 85.95 44.1 86.35 43.65 86.05 43.7 86.05 44.3 86.05 44.6 86.05 Q53.5 78.1 62.8 73.35 64.7 72.35 65.1 71.1 65.4 70.0 65.4 65.45 M32.8 48.15 Q33.15 49.3 33.15 51.75 33.0 51.75 32.95 52.2 L30.15 52.65 25.65 52.5 Q27.7 49.95 29.4 49.0 30.85 48.15 32.8 48.15 M46.85 55.5 L45.35 57.75 42.8 57.6 Q40.05 57.3 39.35 56.6 40.25 55.75 42.65 54.95 45.15 54.1 46.5 54.35 L46.85 55.5" fill="#767741" fill-rule="evenodd" stroke="none"/>
      <path d="M468.6 30.6 L467.15 28.4 Q463.8 23.8 459.75 21.65 L456.75 22.85 454.35 22.2 Q453.85 21.9 453.65 20.8 L438.45 23.95 Q438.45 25.5 437.05 28.1 L443.8 27.75 Q446.3 27.75 448.3 30.3 449.8 32.3 449.8 33.15 449.8 35.4 448.6 36.2 L446.8 37.3 Q450.05 39.7 451.85 45.4 452.85 48.45 453.25 51.9 L453.55 57.15 Q453.55 59.3 451.3 60.75 449.05 62.15 449.05 63.75 449.05 65.65 450.55 65.7 452.05 65.8 452.05 67.65 452.05 69.55 449.05 71.6 L448.9 71.75 458.9 69.2 458.6 69.0 Q464.5 61.55 467.6 57.15 L467.85 56.85 468.1 56.45 Q473.25 49.05 473.25 43.7 L473.25 43.65 Q473.25 41.45 471.8 37.35 L471.5 36.5 471.4 36.3 469.25 31.7 469.1 31.45 469.05 31.3 468.6 30.6 M475.0 26.9 Q478.25 31.55 480.05 37.7 L481.25 42.6 482.05 41.3 Q482.8 44.0 482.8 46.85 482.8 52.2 480.0 58.65 L475.0 63.5 472.8 65.25 Q461.75 73.55 438.95 81.45 436.35 82.9 433.85 83.8 L432.8 83.45 427.15 85.2 404.3 91.6 404.1 91.8 Q402.95 93.0 400.5 93.0 L399.1 92.95 394.9 94.05 388.6 95.7 357.25 103.85 342.15 107.95 Q336.65 112.35 332.4 114.15 L329.7 113.5 Q328.95 113.15 328.75 111.75 L327.1 112.25 326.9 112.65 Q326.05 114.55 324.9 115.65 L323.05 114.9 323.95 113.15 Q309.45 117.4 296.15 121.7 L277.7 127.85 Q271.9 131.6 264.15 131.6 240.9 131.6 228.55 111.05 224.75 113.05 217.25 114.8 L199.9 117.75 Q196.0 119.05 191.25 119.05 182.3 119.05 174.95 117.5 159.3 114.2 150.95 103.9 147.25 99.35 145.5 94.65 L140.05 95.25 137.8 94.85 138.65 94.15 Q136.5 95.25 134.05 95.25 100.8 95.25 87.5 82.75 79.75 87.6 62.35 89.05 53.7 92.4 41.4 92.4 L38.6 92.35 38.4 92.35 36.9 93.35 36.15 92.4 36.3 92.15 Q22.55 90.7 13.55 81.4 10.95 79.8 9.95 77.05 8.2 74.6 6.65 71.8 1.0 61.4 0.0 50.05 0.0 39.45 12.75 30.8 24.2 23.15 38.6 21.6 L40.9 21.4 Q48.5 20.85 54.95 22.25 L55.7 22.2 Q56.6 19.15 62.15 17.1 L63.8 16.55 65.05 18.0 Q67.55 17.5 69.65 15.3 L76.8 14.8 80.5 14.9 Q82.7 16.85 87.0 16.85 89.35 16.85 89.55 16.4 L89.5 16.3 91.4 16.9 Q94.2 18.0 95.85 19.45 L98.05 19.25 Q98.15 16.55 107.2 13.7 108.8 14.8 111.15 15.9 L113.35 12.4 113.8 11.85 117.15 11.05 122.5 11.75 123.35 12.55 123.95 12.3 Q125.4 12.95 126.55 14.0 L128.55 16.15 151.1 13.65 174.95 11.15 194.65 9.6 222.95 8.65 Q223.4 5.3 228.25 4.75 233.6 4.15 236.25 8.05 237.2 8.05 239.8 6.75 242.45 5.4 244.5 5.4 248.6 5.4 252.25 8.8 L254.05 8.8 Q254.05 1.85 256.95 0.4 259.3 -0.75 264.25 1.45 L273.6 6.3 Q277.35 8.15 280.1 8.8 L288.15 8.8 Q291.95 5.85 296.15 6.95 297.85 7.4 299.6 8.5 302.85 10.55 307.65 16.4 L326.4 14.4 Q328.0 14.8 328.45 15.15 L328.95 16.25 335.8 16.5 335.85 16.6 335.95 16.6 Q337.05 15.25 339.0 14.05 343.05 11.5 348.8 10.4 354.75 9.3 359.1 10.35 360.2 10.6 361.15 11.0 L375.05 8.75 375.2 8.65 Q378.2 6.9 382.3 6.9 386.15 6.9 387.3 7.7 L388.6 7.7 400.75 8.4 Q411.5 10.2 418.1 16.5 L423.85 16.65 Q428.7 16.6 433.1 15.15 433.1 17.5 434.1 19.0 L442.35 17.6 Q463.15 11.2 474.15 25.7 L475.0 26.9 M412.15 17.8 L407.95 16.5 Q401.65 14.65 399.9 12.9 L394.8 13.75 394.85 15.0 398.05 14.65 Q399.85 14.45 401.05 15.0 401.65 16.25 401.25 17.8 400.65 20.25 400.65 21.75 400.65 22.15 402.15 23.45 L403.6 24.9 410.85 23.4 411.15 22.1 Q411.15 19.1 412.15 17.8 M444.9 56.9 L444.9 56.6 444.75 48.0 Q444.25 42.35 442.25 38.4 437.85 29.8 425.55 27.9 L425.6 28.1 425.35 28.85 Q424.6 29.6 422.25 29.6 420.15 29.6 418.8 28.05 L409.85 29.95 Q421.5 37.05 421.5 38.8 421.5 41.05 420.3 41.45 L418.65 42.15 421.9 43.85 Q423.65 44.85 424.1 45.55 L422.0 49.4 420.0 52.3 Q420.35 52.65 424.1 52.3 L424.85 53.15 Q425.6 53.85 425.6 56.05 425.6 57.05 423.55 60.6 L421.5 64.1 421.6 64.9 Q421.7 65.5 422.05 65.9 422.6 66.55 423.6 66.8 425.95 67.3 426.0 67.5 L424.6 69.6 Q423.1 71.45 421.5 71.8 423.4 72.4 423.85 72.8 424.5 73.3 424.5 75.75 424.5 77.0 423.85 78.15 L431.8 76.1 432.6 75.9 432.65 75.75 Q434.4 72.9 437.9 68.7 L438.2 68.35 438.35 68.15 438.55 67.95 438.8 67.65 439.0 67.4 439.25 67.1 440.25 65.8 440.45 65.45 Q444.7 59.75 444.9 56.9 M416.1 65.6 Q417.15 62.4 417.15 58.5 417.15 51.2 416.45 48.35 415.55 44.45 412.4 41.9 408.8 39.0 392.55 33.5 L388.6 34.3 340.45 44.0 348.0 46.3 Q349.3 53.5 346.85 59.6 349.15 60.7 353.65 67.65 L356.8 72.75 357.65 74.35 357.75 74.8 357.35 76.95 Q356.25 79.2 352.85 79.65 L356.8 81.95 356.9 82.05 357.0 82.1 Q357.8 82.6 358.4 83.3 L358.65 83.55 359.25 84.35 359.8 85.3 357.3 85.75 Q356.5 86.0 355.75 86.4 L353.35 88.0 353.2 88.1 351.75 89.4 352.65 91.15 Q353.25 92.4 353.25 94.65 353.25 96.0 352.0 97.95 L356.85 96.5 Q370.2 92.5 388.6 87.5 L396.3 85.4 Q396.95 82.85 399.3 80.85 L406.6 76.25 Q411.5 73.25 413.85 70.05 415.3 68.05 416.1 65.6 M388.6 22.5 L392.95 22.1 392.3 21.35 Q390.65 19.65 388.6 18.4 385.95 16.75 382.75 15.75 L377.15 16.75 377.4 17.6 Q377.15 18.0 375.45 18.35 373.1 18.8 369.15 21.75 369.85 23.0 373.8 25.05 378.2 27.35 380.25 29.6 L379.8 30.0 382.2 29.45 387.1 23.15 Q387.6 22.75 388.6 22.5 M306.8 41.3 Q310.8 36.65 324.85 39.6 L330.6 41.0 369.65 32.25 368.3 31.25 Q366.7 29.8 365.0 26.15 363.3 22.4 361.95 21.05 L360.1 19.75 329.2 25.3 327.3 25.65 323.35 26.4 296.15 31.2 267.45 36.05 Q269.8 37.45 274.85 36.9 276.6 37.4 277.2 38.25 L277.85 39.9 277.85 44.55 283.35 44.05 Q284.3 43.3 285.45 42.7 289.9 40.4 295.65 41.35 L296.15 41.45 Q298.95 41.95 301.55 43.2 L302.15 43.2 305.75 43.15 305.75 43.05 Q306.15 42.05 306.8 41.3 M347.3 80.3 L346.5 75.15 Q345.35 68.35 345.35 66.55 345.35 65.4 342.7 61.65 339.85 57.6 338.05 57.0 L327.9 56.25 Q326.2 55.55 324.65 53.85 L321.9 50.8 Q320.45 49.35 318.4 48.5 L310.85 50.8 312.3 53.1 Q315.65 54.8 319.2 58.5 323.75 63.3 327.1 69.85 330.15 75.9 330.15 79.3 L329.6 84.85 Q329.05 89.4 329.05 90.55 329.05 92.7 326.95 93.5 L320.25 95.25 319.85 96.0 326.8 96.35 327.2 97.3 Q327.55 98.25 327.55 100.5 327.55 101.65 322.45 107.5 L331.95 104.3 338.15 98.75 Q347.6 90.55 347.6 84.15 L347.6 84.05 347.6 83.9 347.6 83.75 347.6 83.2 347.6 83.1 347.45 81.6 347.3 80.3 M293.4 24.35 L293.25 26.9 296.15 26.25 301.0 25.15 307.05 23.65 296.15 24.05 293.2 24.15 293.4 24.35 M288.55 15.75 L282.2 15.75 283.3 16.95 284.4 18.3 284.8 18.35 284.8 18.55 296.15 17.5 300.15 17.1 299.75 16.75 296.4 13.65 296.15 13.65 Q293.9 13.7 291.65 14.5 290.35 14.95 288.55 15.75 M272.25 17.4 Q271.05 16.45 269.65 15.75 L257.3 15.75 Q257.8 17.05 257.8 18.15 L257.55 21.0 274.4 19.5 272.25 17.4 M195.25 18.85 L174.95 20.6 162.9 21.85 133.65 23.65 Q132.7 25.8 130.5 26.6 L133.8 28.6 138.6 28.1 146.65 28.85 150.55 29.6 Q151.65 29.6 153.3 30.55 L167.6 29.0 167.6 28.3 Q167.6 22.7 174.95 23.95 L180.35 25.4 184.85 27.3 196.75 26.15 248.6 21.75 244.2 15.9 205.25 18.1 196.7 18.7 195.5 18.85 195.25 18.85 M259.0 25.55 L258.55 25.6 255.6 25.7 255.65 25.9 252.9 26.25 Q252.6 26.25 252.1 25.85 L202.5 28.5 189.75 30.15 Q193.1 32.45 193.1 33.9 L193.05 35.2 212.25 34.6 Q213.5 28.8 225.0 29.4 L234.6 30.6 240.35 31.5 Q241.3 33.35 240.75 35.25 L250.15 34.35 Q252.1 32.0 254.75 31.3 L258.9 31.1 Q262.5 31.1 264.1 32.2 L264.35 32.4 283.55 28.95 Q281.25 28.35 280.3 27.15 L279.0 24.7 259.0 25.55 M247.05 39.35 Q248.8 41.6 248.8 43.85 248.8 46.2 248.6 46.65 L248.4 46.65 Q248.2 46.65 246.7 47.6 L246.35 47.8 257.9 47.15 266.15 45.85 Q264.15 44.35 261.15 42.55 259.3 41.4 256.1 40.4 L250.95 38.75 247.05 39.35 M298.65 58.15 L296.8 56.6 297.45 55.95 297.3 55.9 296.15 55.6 Q291.5 54.5 284.25 54.0 283.95 53.7 281.6 52.75 273.9 52.0 268.15 50.5 L270.05 50.05 269.95 49.65 265.9 49.65 Q277.15 56.95 284.6 74.0 289.45 85.15 290.95 94.7 291.55 98.8 291.55 102.55 291.55 104.25 290.55 108.05 289.15 113.45 286.65 117.9 285.0 120.85 283.05 123.15 289.0 120.3 296.15 117.35 303.15 114.45 311.3 111.45 311.5 110.5 314.45 100.3 317.15 90.35 317.55 86.45 L317.6 85.3 Q317.6 77.3 316.8 73.9 316.0 70.55 313.75 68.55 312.9 67.8 307.4 64.4 304.25 62.45 301.3 60.2 L299.35 58.7 298.7 58.15 298.65 58.15 M288.35 98.15 Q287.3 87.45 281.75 74.8 273.5 55.95 261.15 51.15 243.6 51.85 233.65 59.3 240.8 56.35 255.15 55.5 262.05 58.1 269.65 70.05 276.35 80.6 276.35 84.75 276.35 86.8 276.0 88.4 L275.6 90.9 274.85 91.65 273.1 85.15 Q271.3 78.65 269.3 73.65 262.9 57.75 255.15 57.75 251.4 57.75 239.6 58.1 233.15 62.2 231.35 63.45 227.9 65.9 225.9 67.8 222.15 74.05 222.15 81.55 222.15 83.45 223.5 86.15 224.8 88.9 224.8 90.75 228.1 98.05 231.7 103.9 232.2 104.05 232.4 105.05 237.1 112.5 242.35 117.45 L242.85 117.55 248.4 118.3 Q262.9 118.3 269.3 114.9 275.65 111.5 274.1 104.6 L274.35 104.6 275.25 104.6 275.55 105.35 275.6 108.0 Q275.6 113.4 268.05 118.6 L267.9 118.75 267.7 118.9 257.65 123.3 256.9 123.45 256.85 123.5 252.05 124.2 253.15 124.7 253.8 124.95 264.15 126.9 Q276.8 126.9 283.95 114.9 286.15 111.15 287.6 106.65 L288.55 102.9 288.55 102.75 288.55 102.35 288.55 102.1 288.35 98.15 M302.35 52.45 L301.45 52.55 301.7 52.75 Q302.0 52.55 302.35 52.45 M230.15 54.7 Q235.6 50.45 242.85 48.55 240.45 48.5 238.55 47.65 L234.6 45.45 Q227.8 41.95 213.15 40.65 L213.1 40.45 199.5 40.3 192.45 40.05 187.0 41.4 Q205.95 48.0 212.55 59.35 215.75 64.75 216.4 71.95 L216.55 79.4 216.55 83.25 Q217.1 93.35 214.25 102.0 L211.35 108.4 209.9 110.6 211.0 110.15 212.15 109.65 Q218.95 106.9 225.3 104.85 L225.15 104.5 225.0 104.1 224.8 103.7 224.65 103.35 224.45 102.95 224.3 102.55 224.05 101.95 223.9 101.6 218.3 79.45 218.05 76.3 Q218.05 73.6 219.6 69.3 221.75 63.4 225.85 58.75 L226.0 58.6 226.15 58.4 Q228.0 56.4 230.15 54.7 M212.0 88.55 Q213.05 82.0 212.4 75.55 212.4 60.25 202.4 51.85 193.25 44.15 180.35 45.35 L174.95 46.3 Q168.3 47.95 162.9 52.2 L162.4 52.6 Q160.25 54.3 158.3 56.45 148.3 67.6 148.3 85.5 148.3 86.9 149.0 89.0 150.0 89.05 150.9 89.4 L151.65 91.65 150.6 92.85 Q152.95 97.75 156.8 102.0 L160.45 105.55 160.4 105.55 161.75 106.65 185.8 114.55 Q204.9 114.55 210.55 94.9 L212.0 88.55 M198.4 72.05 Q196.7 67.85 194.5 64.05 187.5 51.95 178.7 49.55 186.55 50.5 193.2 58.1 197.85 63.4 200.65 70.8 L200.75 71.05 201.7 73.75 Q203.25 78.7 203.25 82.85 L203.1 86.1 202.85 87.55 Q201.85 90.95 198.35 92.4 L198.45 92.2 198.5 92.1 199.1 90.7 199.55 89.75 200.4 87.5 Q201.35 84.75 201.35 82.3 201.35 80.35 199.65 75.35 L199.5 74.9 198.4 72.05 M173.4 37.65 L174.95 38.0 177.0 38.5 Q179.0 37.4 182.5 36.65 L185.35 36.1 185.85 34.6 Q185.9 32.9 175.6 32.45 L174.95 32.55 159.05 35.25 158.2 35.4 Q159.0 37.45 158.25 39.9 162.45 41.35 163.7 43.1 164.25 43.85 164.25 45.15 L164.25 45.95 173.4 37.65 M191.15 99.6 Q193.25 97.1 195.0 97.1 193.25 100.5 191.4 102.75 L189.15 102.35 191.15 99.6 M119.5 28.2 Q115.1 25.5 109.55 24.15 L98.25 24.3 101.05 26.55 Q104.05 28.9 104.05 30.0 105.1 30.15 106.1 31.05 107.45 32.2 107.9 35.0 L110.4 35.05 111.6 36.2 126.8 33.8 122.0 29.9 121.5 29.55 119.5 28.2 M150.2 60.75 Q152.4 57.7 156.7 53.3 L155.7 53.05 155.25 52.65 155.45 50.05 155.6 46.3 Q155.6 45.95 153.65 44.45 151.2 42.65 148.3 41.45 139.35 37.75 130.85 41.8 L129.4 40.45 124.1 41.4 118.65 41.35 Q122.4 43.85 127.6 46.9 138.15 53.15 139.65 57.35 L141.45 61.8 144.65 69.8 145.3 71.7 Q146.7 66.0 149.45 61.8 L150.2 60.75 M93.25 34.5 L90.35 32.9 Q78.65 27.65 65.5 26.3 L69.0 28.7 Q80.85 38.05 81.7 56.9 L82.2 55.2 81.75 54.75 82.55 54.05 84.15 49.65 Q87.65 41.2 93.0 34.5 L93.25 34.5 M123.85 75.85 L124.65 73.55 Q126.0 70.4 126.0 66.35 126.0 59.8 120.85 55.15 117.4 52.05 112.45 50.45 L110.35 48.85 107.65 47.2 Q103.1 44.05 99.15 44.05 L96.9 44.3 Q108.9 39.2 118.5 46.6 124.05 50.85 127.5 58.4 130.5 64.8 130.5 69.55 130.5 71.95 128.75 75.05 127.35 77.5 124.8 80.35 118.15 87.9 110.4 87.9 L104.3 87.5 103.75 87.4 Q99.9 86.8 99.9 86.05 112.45 87.6 119.1 82.1 L121.1 80.1 121.65 79.45 122.35 78.55 123.45 76.7 123.75 76.1 123.85 75.85 M140.65 80.05 L140.8 79.5 Q140.8 65.95 134.75 57.0 126.45 44.8 107.75 41.1 L95.25 40.3 96.85 39.65 95.05 39.55 Q90.1 48.0 87.85 53.55 84.75 61.1 84.75 67.1 84.75 68.85 85.9 71.9 87.45 76.15 90.4 79.7 95.1 85.35 102.25 87.95 L102.5 88.05 103.6 88.4 114.3 90.15 116.25 90.15 134.05 89.8 Q134.75 89.5 137.8 84.85 L140.65 80.05 M141.8 91.7 L143.5 90.6 144.25 90.2 144.0 88.75 143.8 89.05 141.8 91.7 M75.8 67.05 Q77.25 63.2 77.25 59.25 77.25 41.55 65.9 32.75 59.05 27.45 49.6 26.15 L38.6 27.05 31.3 27.75 30.95 27.15 Q24.95 28.5 19.65 31.25 L20.4 31.1 Q23.8 31.85 24.15 32.8 17.15 32.45 9.55 39.1 L7.95 40.55 Q4.5 45.2 4.5 50.6 4.5 53.45 6.0 58.4 8.0 65.0 11.55 70.45 13.2 73.0 15.1 75.1 L19.0 76.8 21.35 77.85 Q28.05 83.05 37.65 83.05 L38.6 83.05 Q43.3 82.65 46.6 78.65 56.25 72.5 58.8 68.25 60.15 66.0 60.45 63.1 L60.55 57.0 Q60.55 55.3 56.7 45.65 52.9 36.2 52.1 35.4 L36.15 34.3 Q36.15 33.9 36.55 33.6 L36.9 33.0 52.5 33.55 Q61.75 44.4 63.95 50.5 65.4 54.65 65.4 65.25 L65.4 65.45 Q65.4 70.0 65.1 71.1 64.7 72.35 62.8 73.35 53.5 78.1 44.6 86.05 L44.3 86.05 43.7 86.05 43.65 86.05 38.6 85.8 31.8 85.3 38.6 86.35 41.4 86.4 44.1 86.35 49.35 85.95 57.7 83.65 60.35 83.05 Q67.7 79.85 72.15 73.65 L75.8 67.05 M75.1 80.05 L84.1 78.9 Q80.9 74.55 80.35 70.1 78.8 75.15 75.7 79.25 L75.1 80.05" fill="#000004" fill-rule="evenodd" stroke="none"/>
      <path d="M453.25 51.9 L461.05 48.2 Q468.05 45.15 473.25 43.7 473.25 49.05 468.1 56.45 L467.85 56.85 467.6 57.15 Q464.5 61.55 458.6 69.0 L458.9 69.2 448.9 71.75 449.05 71.6 Q452.05 69.55 452.05 67.65 452.05 65.8 450.55 65.7 449.05 65.65 449.05 63.75 449.05 62.15 451.3 60.75 453.55 59.3 453.55 57.15 L453.25 51.9 M471.5 36.5 L470.25 36.55 Q465.4 36.55 460.1 35.05 462.6 31.85 467.1 30.85 L468.6 30.6 469.05 31.3 469.1 31.45 469.25 31.7 471.4 36.3 471.5 36.5 M421.6 64.9 Q425.8 62.7 430.65 60.8 438.9 57.55 444.9 56.9 444.7 59.75 440.45 65.45 L440.25 65.8 439.25 67.1 439.0 67.4 438.8 67.65 438.55 67.95 438.35 68.15 438.2 68.35 437.9 68.7 Q434.4 72.9 432.65 75.75 L431.8 76.1 423.85 78.15 Q424.5 77.0 424.5 75.75 424.5 73.3 423.85 72.8 423.4 72.4 421.5 71.8 423.1 71.45 424.6 69.6 L426.0 67.5 Q425.95 67.3 423.6 66.8 422.6 66.55 422.05 65.9 421.7 65.5 421.6 64.9 M356.8 72.75 Q368.6 67.6 380.7 63.2 L388.6 60.4 Q395.7 58.0 398.05 57.75 394.8 60.7 388.6 65.2 378.25 72.6 359.65 84.1 L365.05 81.95 Q377.8 76.9 388.6 73.3 404.5 67.9 416.1 65.6 415.3 68.05 413.85 70.05 411.5 73.25 406.6 76.25 L399.3 80.85 Q396.95 82.85 396.3 85.4 L388.6 87.5 Q370.2 92.5 356.85 96.5 L352.0 97.95 Q353.25 96.0 353.25 94.65 353.25 92.4 352.65 91.15 L351.75 89.4 353.2 88.1 353.35 88.0 355.75 86.4 Q356.5 86.0 357.3 85.75 L359.8 85.3 359.25 84.35 358.65 83.55 358.4 83.3 Q357.8 82.6 357.0 82.1 L356.9 82.05 356.8 81.95 352.85 79.65 Q356.25 79.2 357.35 76.95 L357.75 74.8 357.65 74.35 356.8 72.75 M329.2 25.3 Q335.65 26.9 338.8 30.0 L339.15 32.25 339.05 33.0 338.4 34.3 Q332.2 28.1 323.35 26.4 L327.3 25.65 329.2 25.3 M302.15 43.2 L301.55 41.25 Q301.1 39.55 300.55 36.15 L303.0 35.8 Q304.55 37.15 305.6 39.1 L306.8 41.3 Q306.15 42.05 305.75 43.05 L305.75 43.15 302.15 43.2 M384.35 43.65 L384.75 44.8 Q383.7 45.55 381.05 46.55 L377.05 47.8 Q378.25 46.45 380.15 45.25 382.45 43.8 384.35 43.65 M394.5 45.9 Q401.95 42.0 405.55 42.55 403.2 45.8 399.15 47.8 L397.1 47.3 Q394.95 46.6 394.5 45.9 M329.6 84.85 Q337.55 81.4 347.3 80.3 L347.45 81.6 347.6 83.1 347.6 83.2 347.6 83.75 347.6 83.9 347.6 84.05 347.6 84.15 Q347.6 90.55 338.15 98.75 L331.95 104.3 322.45 107.5 Q327.55 101.65 327.55 100.5 327.55 98.25 327.2 97.3 L326.8 96.35 319.85 96.0 320.25 95.25 326.95 93.5 Q329.05 92.7 329.05 90.55 329.05 89.4 329.6 84.85 M205.25 18.1 L204.95 18.55 203.5 21.15 Q201.8 23.55 196.1 24.35 L194.1 24.25 Q193.5 24.2 193.5 21.9 193.5 20.4 195.25 18.85 L195.5 18.85 196.7 18.7 205.25 18.1 M259.0 25.55 Q261.5 25.55 266.25 27.35 265.75 28.55 261.45 29.65 L254.4 31.1 Q255.15 30.35 255.7 28.65 256.2 26.9 256.65 26.35 257.25 25.7 258.55 25.6 L259.0 25.55 M290.95 94.7 L296.15 93.3 Q305.3 90.7 309.75 89.05 314.05 87.45 317.55 86.45 317.15 90.35 314.45 100.3 311.5 110.5 311.3 111.45 303.15 114.45 296.15 117.35 289.0 120.3 283.05 123.15 285.0 120.85 286.65 117.9 289.15 113.45 290.55 108.05 291.55 104.25 291.55 102.55 291.55 98.8 290.95 94.7 M301.3 60.2 Q301.1 61.45 298.85 63.55 L296.15 65.65 295.3 66.0 Q292.75 64.05 292.3 62.6 L296.0 59.8 296.15 59.7 298.65 58.15 298.7 58.15 299.35 58.7 301.3 60.2 M297.55 75.9 Q300.1 72.7 302.1 72.05 304.7 71.2 309.0 73.3 L306.2 76.9 Q305.0 77.8 302.05 77.8 L298.8 77.3 297.55 75.9 M216.55 79.4 L218.25 79.0 218.3 79.45 223.9 101.6 224.05 101.95 224.3 102.55 224.45 102.95 224.65 103.35 224.8 103.7 225.0 104.1 225.15 104.5 225.3 104.85 Q218.95 106.9 212.15 109.65 L211.0 110.15 211.0 109.0 211.35 108.4 214.25 102.0 Q217.1 93.35 216.55 83.25 L216.55 79.4 M226.0 58.6 Q224.55 58.25 223.25 57.4 221.4 56.2 221.05 55.1 221.85 53.75 224.65 53.75 227.25 53.7 230.15 54.7 228.0 56.4 226.15 58.4 L226.0 58.6 M222.55 46.3 Q216.65 51.6 214.3 52.5 L212.45 52.3 Q212.05 52.15 212.05 49.85 212.05 46.75 215.4 45.85 218.55 44.95 222.55 46.3 M121.5 29.55 Q120.75 31.2 119.35 32.7 116.25 36.05 111.9 35.8 113.15 33.1 116.1 30.55 117.85 29.0 119.5 28.2 L121.5 29.55 M141.45 61.8 Q142.1 61.35 143.05 61.1 L148.65 60.75 150.2 60.75 149.45 61.8 Q146.7 66.0 145.3 71.7 L144.65 69.8 141.45 61.8 M88.35 36.1 L84.0 39.55 80.25 38.8 Q88.25 34.3 92.25 34.3 90.35 34.4 88.35 36.1 M75.1 80.05 L75.7 79.25 Q78.8 75.15 80.35 70.1 80.9 74.55 84.1 78.9 L75.1 80.05" fill="#4b4b2a" fill-rule="evenodd" stroke="none"/>
      <path d="M250.6 88.35 L252.15 86.8 251.4 85.65 Q247.6 83.55 245.0 85.4 243.6 86.4 242.25 88.65 L246.75 89.05 Q249.25 89.05 250.6 88.35 M246.75 66.25 Q253.1 64.4 255.55 62.25 250.65 58.5 244.95 62.4 242.0 64.4 239.25 67.5 240.85 68.0 246.75 66.25 M274.35 104.6 L274.1 104.6 Q275.65 111.5 269.3 114.9 262.9 118.3 248.4 118.3 L242.85 117.55 242.35 117.45 Q237.1 112.5 232.4 105.05 232.2 104.05 231.7 103.9 228.1 98.05 224.8 90.75 224.8 88.9 223.5 86.15 222.15 83.45 222.15 81.55 222.15 74.05 225.9 67.8 227.9 65.9 231.35 63.45 233.15 62.2 239.6 58.1 251.4 57.75 255.15 57.75 262.9 57.75 269.3 73.65 271.3 78.65 273.1 85.15 L274.85 91.65 275.6 90.9 276.0 88.4 Q276.35 86.8 276.35 84.75 276.35 80.6 269.65 70.05 262.05 58.1 255.15 55.5 240.8 56.35 233.65 59.3 243.6 51.85 261.15 51.15 273.5 55.95 281.75 74.8 287.3 87.45 288.35 98.15 L281.7 98.9 Q275.55 99.95 273.75 101.25 L274.35 104.6 M253.15 124.7 L252.05 124.2 256.85 123.5 253.15 124.7 M160.45 105.55 L156.8 102.0 Q152.95 97.75 150.6 92.85 L151.65 91.65 150.9 89.4 Q150.0 89.05 149.0 89.0 148.3 86.9 148.3 85.5 148.3 67.6 158.3 56.45 160.25 54.3 162.4 52.6 L162.9 52.2 Q168.3 47.95 174.95 46.3 L180.35 45.35 Q193.25 44.15 202.4 51.85 212.4 60.25 212.4 75.55 213.05 82.0 212.0 88.55 211.2 84.65 209.65 83.7 207.65 82.5 203.1 86.1 L203.25 82.85 Q203.25 78.7 201.7 73.75 204.25 72.45 206.05 72.15 205.5 71.25 202.1 70.5 201.45 70.7 200.75 71.05 L200.65 70.8 Q197.85 63.4 193.2 58.1 186.55 50.5 178.7 49.55 187.5 51.95 194.5 64.05 196.7 67.85 198.4 72.05 193.05 74.45 184.2 79.5 L184.2 79.55 174.95 72.1 Q168.8 67.4 163.1 63.75 L162.0 64.1 174.95 76.05 180.7 81.55 174.95 85.05 Q168.6 88.95 163.5 92.6 L164.25 93.35 Q169.2 92.3 174.95 89.7 179.25 87.7 184.05 84.85 L193.5 94.7 188.1 99.5 Q181.05 104.9 174.95 105.9 L172.3 106.1 160.45 105.55 M162.75 82.65 Q164.15 82.2 165.1 81.45 L165.75 80.8 Q165.05 79.75 162.0 77.4 159.75 77.65 158.5 79.0 157.5 80.05 157.5 81.15 L159.3 81.6 162.75 82.65 M199.5 74.9 L199.65 75.35 Q201.35 80.35 201.35 82.3 201.35 84.75 200.4 87.5 L199.55 89.75 199.85 88.95 197.05 91.45 Q193.15 87.35 187.7 82.6 L188.8 81.85 198.4 75.55 199.5 74.9 M261.55 101.6 Q257.75 100.25 255.0 99.65 L251.8 99.35 Q254.25 101.95 255.6 102.8 257.3 103.85 259.65 103.85 262.0 103.85 262.0 103.3 L261.55 102.75 261.55 101.6 M128.75 75.05 Q130.5 71.95 130.5 69.55 130.5 64.8 127.5 58.4 124.05 50.85 118.5 46.6 108.9 39.2 96.9 44.3 L99.15 44.05 Q103.1 44.05 107.65 47.2 L110.35 48.85 112.45 50.45 Q117.4 52.05 120.85 55.15 126.0 59.8 126.0 66.35 126.0 70.4 124.65 73.55 L123.85 75.85 Q121.85 76.55 121.85 77.6 L121.85 77.95 116.2 74.35 Q105.9 68.35 99.9 68.25 104.25 72.15 114.3 78.95 L119.1 82.1 Q112.45 87.6 99.9 86.05 99.9 86.8 103.75 87.4 L104.3 87.5 102.25 87.95 Q95.1 85.35 90.4 79.7 87.45 76.15 85.9 71.9 84.75 68.85 84.75 67.1 84.75 61.1 87.85 53.55 90.1 48.0 95.05 39.55 L96.85 39.65 95.25 40.3 107.75 41.1 Q126.45 44.8 134.75 57.0 140.8 65.95 140.8 79.5 L140.65 80.05 Q138.35 76.2 131.9 75.25 L128.75 75.05 M102.9 60.0 L102.55 58.85 Q99.85 57.6 98.0 58.55 96.6 59.3 95.4 61.5 L99.85 60.75 102.9 60.0 M65.4 65.45 L65.4 65.25 Q65.4 54.65 63.95 50.5 61.75 44.4 52.5 33.55 L36.9 33.0 36.55 33.6 Q36.15 33.9 36.15 34.3 L52.1 35.4 Q52.9 36.2 56.7 45.65 60.55 55.3 60.55 57.0 L60.45 63.1 Q60.15 66.0 58.8 68.25 56.25 72.5 46.6 78.65 43.3 82.65 38.6 83.05 L37.65 83.05 Q28.05 83.05 21.35 77.85 L19.0 76.8 15.1 75.1 Q13.2 73.0 11.55 70.45 8.0 65.0 6.0 58.4 4.5 53.45 4.5 50.6 4.5 45.2 7.95 40.55 L9.55 39.1 Q17.15 32.45 24.15 32.8 23.8 31.85 20.4 31.1 L19.65 31.25 Q24.95 28.5 30.95 27.15 L31.3 27.75 38.6 27.05 49.6 26.15 Q59.05 27.45 65.9 32.75 77.25 41.55 77.25 59.25 77.25 63.2 75.8 67.05 L76.1 66.1 Q72.4 65.1 69.45 65.05 L65.4 65.45 M44.1 86.35 L41.4 86.4 38.6 86.35 31.8 85.3 38.6 85.8 43.65 86.05 44.1 86.35 M46.85 55.5 L46.5 54.35 Q45.15 54.1 42.65 54.95 40.25 55.75 39.35 56.6 40.05 57.3 42.8 57.6 L45.35 57.75 46.85 55.5 M32.8 48.15 Q30.85 48.15 29.4 49.0 27.7 49.95 25.65 52.5 L30.15 52.65 32.95 52.2 Q33.0 51.75 33.15 51.75 33.15 49.3 32.8 48.15" fill="#adae61" fill-rule="evenodd" stroke="none"/>
    </g>
    <g id="sprite2" transform="matrix(1.0, 0.0, 0.0, 1.0, 0.0, 0.0)">
      <use ffdec:characterId="86" height="532.6" transform="matrix(1.0, 0.0, 0.0, 1.0, 0.0, 0.0)" width="387.95" xlink:href="#shape1"/>
    </g>
    <g id="shape1" transform="matrix(1.0, 0.0, 0.0, 1.0, 0.0, 0.0)">
      <path d="M343.45 340.7 Q347.6 342.9 348.7 347.1 L349.65 354.45 351.45 354.15 353.85 353.6 Q355.45 355.7 355.35 360.15 L354.9 365.15 Q354.7 367.5 356.4 370.4 L360.35 376.1 Q366.35 384.7 367.0 393.25 367.2 396.35 370.05 399.5 373.2 403.0 373.85 405.75 374.05 407.2 373.85 410.05 373.7 412.65 374.0 413.65 375.15 416.85 384.45 415.35 384.75 417.3 383.95 421.1 382.95 425.8 382.9 427.05 382.75 428.8 383.6 430.0 L385.55 432.0 Q387.95 434.5 387.95 439.15 384.2 440.2 380.9 441.7 362.15 407.3 305.3 279.8 276.6 215.6 253.1 160.85 L252.25 158.85 Q241.5 133.9 235.75 119.65 L235.4 117.45 Q235.05 118.55 234.05 119.55 232.55 121.05 232.55 122.9 232.55 124.8 234.05 125.75 235.55 126.7 235.55 128.55 235.55 130.45 234.05 131.75 232.55 133.05 232.55 134.9 232.55 135.2 234.8 136.9 237.05 138.6 237.05 138.85 237.05 140.75 235.2 143.75 233.3 146.75 233.3 148.6 233.3 150.2 234.45 155.85 235.55 161.5 235.55 163.2 237.1 163.8 238.65 164.75 241.75 166.55 241.75 168.1 241.75 170.0 240.15 173.25 238.55 176.55 238.55 178.4 L240.9 180.35 Q243.25 182.1 243.25 182.7 243.25 184.6 241.75 187.05 240.25 189.5 240.25 191.35 L241.75 207.65 Q241.75 212.9 244.75 224.35 247.75 235.85 247.75 238.95 L249.25 253.2 249.6 269.7 Q249.6 270.0 253.1 273.0 L253.2 273.05 Q256.75 276.15 256.75 276.85 L254.5 283.4 253.1 287.35 252.25 289.95 Q252.25 291.1 253.1 292.4 L254.5 294.05 Q256.75 296.3 256.75 296.7 256.75 298.6 255.25 300.45 253.75 302.35 253.75 304.2 L256.0 306.05 Q258.25 307.75 258.25 309.1 258.25 311.0 256.75 313.35 255.25 315.7 255.25 317.55 255.25 319.45 257.6 321.25 259.95 323.0 259.95 325.2 259.95 327.1 258.35 329.7 256.75 332.35 256.75 334.2 256.75 334.95 259.95 348.1 259.95 348.75 262.2 351.75 264.45 354.8 264.45 356.15 264.45 358.05 263.05 360.5 261.6 362.95 261.6 364.8 261.6 365.3 262.9 365.3 L265.2 365.55 Q267.75 366.6 263.3 373.8 L266.0 375.7 Q267.8 377.0 267.8 378.3 267.8 380.2 266.15 383.45 264.45 386.75 264.45 388.6 L267.65 395.65 270.8 402.65 268.55 406.45 Q266.3 409.9 266.3 411.65 L266.7 424.05 268.75 426.25 Q270.8 428.35 270.8 429.45 270.8 431.35 269.3 433.8 267.8 436.25 267.8 438.1 267.8 444.1 270.8 449.05 273.8 453.95 273.8 461.55 273.8 463.9 274.55 467.15 275.3 470.4 275.3 472.2 275.3 474.1 276.9 475.7 278.5 477.3 278.5 479.15 278.5 481.05 277.1 483.1 275.7 485.2 275.7 487.05 275.7 492.3 278.05 500.0 280.35 507.65 280.35 515.15 L282.45 517.3 Q284.5 519.3 284.5 520.4 L284.0 525.1 Q283.55 527.65 283.75 529.6 283.45 530.35 282.15 531.2 280.7 532.05 278.7 532.6 270.45 523.0 270.8 520.3 270.95 519.3 272.05 516.85 273.05 514.0 273.05 510.1 273.05 505.1 270.8 497.2 268.55 489.3 268.55 481.2 268.55 478.7 267.05 472.2 L263.8 458.2 Q259.0 436.6 259.0 418.8 259.0 411.15 257.7 402.35 256.35 393.6 256.35 384.1 L253.1 358.4 253.0 357.6 Q249.6 330.6 249.6 326.15 249.6 317.85 248.5 304.1 247.35 290.3 247.35 287.9 247.35 284.45 239.95 242.15 232.55 195.95 232.55 172.8 232.55 160.6 229.75 156.85 227.3 153.55 227.0 143.85 L225.1 159.25 Q223.95 174.9 223.95 181.05 223.95 183.45 226.95 211.3 229.1 231.45 229.75 241.35 L230.3 244.85 Q232.55 257.95 232.55 264.3 L228.5 279.5 228.15 282.8 226.65 294.4 226.85 296.4 Q224.7 307.45 224.7 315.45 225.3 328.6 226.75 341.7 L226.55 344.15 228.8 360.3 Q231.05 376.7 231.05 380.35 231.05 389.1 228.35 421.4 225.8 451.45 226.2 456.1 225.4 456.9 218.65 458.0 L209.1 459.1 Q194.75 459.1 192.05 455.3 191.1 453.95 191.3 451.65 L191.7 447.85 Q191.7 443.75 194.45 391.8 L195.5 371.05 195.45 369.85 Q194.9 340.85 193.95 325.8 L193.95 324.9 192.35 338.45 Q185.1 398.3 185.1 419.15 185.1 423.6 183.1 425.6 181.55 427.15 173.1 431.7 L171.75 427.1 Q171.25 424.7 171.25 422.15 171.25 420.0 174.25 414.1 177.25 408.2 177.25 407.15 177.25 405.9 175.55 402.45 173.85 399.0 173.85 397.8 173.85 396.5 175.35 393.5 176.85 390.5 176.85 389.15 L178.35 381.8 Q179.85 374.75 179.85 373.2 L180.45 366.65 Q181.0 361.0 181.0 356.7 L182.3 356.25 Q183.95 355.4 185.7 351.85 L183.9 350.0 Q182.5 348.5 182.5 346.2 182.5 344.35 184.3 342.75 186.05 341.2 186.05 339.3 186.05 337.45 184.3 337.05 182.5 336.7 182.5 334.8 182.5 333.75 183.45 329.15 184.35 324.55 184.35 322.95 184.35 315.1 186.9 300.5 189.45 285.85 189.45 272.9 189.45 270.35 191.05 264.5 191.7 262.05 192.55 260.05 L192.65 258.95 193.2 252.3 193.95 252.3 193.95 233.7 Q193.6 223.5 191.15 191.3 189.05 163.65 189.05 148.4 189.05 135.35 192.6 100.9 L190.65 103.6 190.65 103.65 189.8 104.9 189.8 105.2 186.3 110.8 Q175.0 130.5 175.6 139.95 L168.2 152.7 Q160.6 165.15 160.65 165.4 160.8 167.3 156.55 172.05 152.35 176.75 152.6 180.75 152.9 185.1 151.7 188.7 149.7 194.7 144.5 191.85 143.85 192.4 144.0 193.2 L144.45 196.7 139.3 202.65 Q133.6 209.7 131.75 217.05 130.9 220.55 130.7 225.6 130.45 230.6 130.2 231.75 129.55 234.25 127.35 234.7 124.95 235.25 119.35 233.5 117.4 235.5 117.55 239.15 L118.35 245.45 Q118.6 249.05 116.7 250.8 114.35 253.2 107.7 253.65 105.55 253.75 103.35 267.15 L101.55 280.4 Q101.7 281.8 98.85 285.55 L92.65 293.4 Q83.65 304.95 84.0 310.15 84.25 313.55 83.4 314.45 83.0 314.95 81.05 315.1 75.7 315.45 71.7 321.6 75.85 321.85 77.05 323.9 77.45 324.55 77.65 327.2 77.7 328.4 65.0 351.9 52.15 375.35 52.4 379.5 52.5 380.3 50.65 383.45 L46.4 390.45 Q40.3 401.8 40.4 411.45 L39.9 412.0 Q39.35 412.6 37.15 412.75 34.75 412.9 33.75 411.05 33.25 410.1 33.05 407.6 27.8 412.95 24.95 420.1 23.95 422.55 21.3 432.5 20.15 436.85 18.75 440.15 L18.25 441.25 16.35 441.8 4.9 441.2 9.1 433.0 20.2 411.35 Q41.7 370.05 47.3 356.75 54.5 339.75 70.2 310.9 87.75 279.4 94.8 265.8 151.25 157.65 188.2 97.4 L189.65 101.05 189.65 101.1 190.65 103.6 189.65 100.95 189.65 100.9 188.3 97.35 189.05 96.2 189.65 100.65 189.3 96.1 193.75 89.85 193.95 87.85 192.45 85.25 186.45 73.8 Q186.45 70.85 189.6 67.8 189.45 67.1 189.45 64.8 189.45 59.7 192.9 56.75 194.65 55.25 196.9 54.95 L196.95 53.8 196.5 52.95 196.35 52.95 Q191.05 52.95 188.25 49.5 187.25 48.3 186.8 47.25 183.4 49.6 181.75 49.6 178.0 49.6 177.25 48.85 L177.25 40.95 177.6 38.7 184.1 38.7 Q185.95 38.95 187.4 39.55 187.85 38.3 188.6 37.35 L189.65 36.35 189.6 36.05 186.55 35.4 Q185.65 34.9 180.25 29.55 182.2 21.25 187.55 22.35 190.95 23.05 193.5 27.05 195.15 28.25 196.15 30.85 196.85 32.6 197.75 36.6 L197.85 37.05 198.05 26.35 Q198.05 23.2 199.2 18.5 L200.25 14.65 200.35 14.35 Q202.7 6.7 204.6 5.35 L204.65 5.4 Q205.1 0.2 212.3 0.0 219.15 -0.15 229.2 4.05 239.1 8.15 246.05 13.95 250.4 17.6 252.3 20.85 252.55 20.55 252.8 20.6 L253.1 20.95 253.35 23.15 Q253.75 24.4 253.75 25.6 253.75 27.3 253.1 28.7 L251.85 30.55 Q249.6 38.85 244.0 55.65 L244.0 55.8 Q244.0 58.25 242.35 60.6 L239.55 69.15 241.3 68.0 Q243.45 66.9 245.25 67.4 246.4 65.15 249.15 63.05 251.05 61.6 253.1 60.8 256.75 59.3 260.85 59.9 L261.45 60.65 261.6 63.3 Q261.6 63.9 261.15 64.05 L259.55 64.55 Q256.8 65.55 253.1 68.9 L251.5 70.4 251.5 71.55 253.1 71.55 Q258.4 71.75 260.05 74.75 260.7 76.0 260.7 79.4 260.7 83.05 259.95 84.45 259.1 85.95 256.75 85.95 255.05 85.95 253.1 84.25 250.95 82.4 248.45 78.45 L248.25 78.1 Q247.6 80.15 246.35 82.15 L239.5 91.2 Q237.15 90.0 235.75 88.8 L234.35 96.85 Q232.2 97.6 230.55 99.15 232.45 97.45 234.9 96.8 L252.75 134.65 253.1 135.4 Q268.95 169.4 268.5 176.15 L268.0 183.05 Q268.4 184.65 272.4 184.9 272.8 184.95 277.5 192.45 283.25 201.5 288.35 211.05 303.85 240.55 303.65 258.2 L305.9 258.35 309.1 257.4 Q311.6 259.25 311.45 262.25 310.8 265.7 310.7 267.3 310.5 270.05 318.45 284.2 326.25 298.1 327.5 298.2 332.65 298.55 331.5 302.9 329.1 307.9 328.95 309.4 333.7 311.7 338.2 322.15 342.6 331.95 343.45 340.7 M247.65 23.9 Q247.25 24.35 247.0 25.05 246.75 25.05 246.5 25.6 246.2 26.15 244.0 26.15 227.75 26.15 217.35 16.75 213.85 13.6 211.6 9.85 210.3 7.7 210.0 6.5 L207.6 7.2 Q210.6 8.2 211.75 12.15 212.7 17.25 213.7 19.95 217.55 30.3 236.3 30.3 243.1 30.3 246.2 28.05 L246.6 27.75 248.1 25.1 247.75 23.5 247.65 23.9 M240.25 14.15 L236.1 11.1 Q224.55 3.75 212.55 5.9 213.25 9.3 221.7 15.85 230.75 22.8 234.45 22.8 L238.65 22.5 241.75 21.65 Q240.3 20.6 239.8 17.75 239.4 15.65 240.25 14.15 M219.3 33.2 Q214.5 30.9 211.4 26.4 208.6 22.25 207.0 16.9 L206.5 19.3 206.3 20.25 Q204.6 28.4 204.6 32.15 204.5 36.1 205.3 43.3 L205.75 47.6 209.85 50.6 216.0 54.55 217.0 53.85 Q222.55 48.85 224.3 48.45 227.8 50.7 228.4 53.7 L228.7 56.35 233.45 54.2 Q236.6 52.6 238.3 51.85 L238.5 51.2 238.55 50.7 238.6 50.7 Q241.2 41.0 243.7 34.45 238.65 35.55 231.05 35.55 225.8 35.55 221.65 34.15 L220.35 33.65 219.5 33.3 219.3 33.2 M202.4 96.2 L200.7 96.65 200.45 96.6 200.25 98.0 198.0 116.75 Q195.45 138.75 195.45 144.1 195.45 156.45 198.0 187.8 200.35 217.2 199.95 232.2 L199.95 324.3 Q201.45 334.4 201.45 355.95 L200.45 393.05 200.7 402.45 Q200.7 410.4 199.75 418.35 L198.9 451.8 202.95 451.8 Q204.85 451.8 205.75 453.2 206.7 454.6 208.55 454.6 L215.85 454.25 220.35 453.85 Q221.35 445.7 222.05 433.2 L222.1 432.6 222.1 432.05 222.1 431.8 222.4 425.4 222.5 423.05 222.7 417.3 222.75 416.75 222.9 411.15 223.35 382.8 Q223.35 371.8 221.1 349.1 219.7 335.2 219.2 326.0 218.4 324.25 217.95 322.3 217.4 319.95 217.35 311.2 L217.35 309.3 Q217.35 303.4 219.8 291.0 220.25 285.85 220.9 281.45 223.05 267.25 224.7 251.6 L224.7 247.6 224.7 247.5 224.7 247.4 224.7 245.9 Q224.4 238.6 222.3 217.9 L221.6 211.55 221.6 211.35 221.2 207.8 221.15 207.2 219.2 188.9 218.85 185.9 218.85 185.2 218.5 181.2 Q218.5 175.35 219.1 167.35 219.5 161.65 220.2 154.95 L221.75 141.25 Q223.15 130.15 224.9 119.05 L222.9 110.75 221.55 105.25 220.8 101.45 220.8 101.4 220.75 101.15 Q220.75 100.2 220.9 99.35 L217.0 97.8 214.0 96.55 Q207.45 93.85 206.35 93.5 L206.1 93.45 Q204.25 93.45 203.4 95.05 L202.75 95.95 202.4 96.2 M204.0 68.15 L202.95 76.6 204.6 75.45 211.0 75.45 Q211.65 77.9 211.2 81.9 L210.6 88.6 211.0 89.7 211.25 89.7 211.0 89.15 Q211.0 86.8 211.2 86.9 L211.35 87.45 Q211.9 86.9 213.85 86.65 L216.2 86.6 Q217.05 85.05 218.25 83.7 220.2 81.45 221.1 81.45 222.05 81.45 224.0 83.3 226.35 85.5 227.3 85.95 227.05 82.1 227.85 79.65 229.15 75.75 233.15 73.9 L234.05 69.8 234.7 66.85 Q227.4 70.8 218.85 70.8 211.6 70.8 204.6 63.8 L204.0 68.15 M220.9 56.7 L221.25 56.8 221.1 56.55 220.9 56.7 M228.9 94.45 L229.0 94.8 229.1 94.2 228.9 94.45 M232.45 105.4 L230.75 100.55 Q230.5 99.85 230.55 99.15 L230.2 99.5 Q230.2 100.25 230.5 100.9 L232.45 105.4 M234.05 114.15 L232.15 110.2 231.8 112.15 233.3 113.5 234.05 114.15 M1.95 432.55 L1.55 433.35 0.0 433.0 1.95 432.55" fill="#000004" fill-rule="evenodd" stroke="none"/>
      <path d="M240.25 14.15 Q239.4 15.65 239.8 17.75 240.3 20.6 241.75 21.65 L238.65 22.5 234.45 22.8 Q230.75 22.8 221.7 15.85 213.25 9.3 212.55 5.9 224.55 3.75 236.1 11.1 L240.25 14.15 M247.65 23.9 L247.75 23.5 248.1 25.1 246.6 27.75 246.2 28.05 Q243.1 30.3 236.3 30.3 217.55 30.3 213.7 19.95 212.7 17.25 211.75 12.15 210.6 8.2 207.6 7.2 L210.0 6.5 Q210.3 7.7 211.6 9.85 213.85 13.6 217.35 16.75 227.75 26.15 244.0 26.15 246.2 26.15 246.5 25.6 246.75 25.05 247.0 25.05 247.25 24.35 247.65 23.9" fill="#adae61" fill-rule="evenodd" stroke="none"/>
      <path d="M221.65 34.15 Q225.8 35.55 231.05 35.55 238.65 35.55 243.7 34.45 241.2 41.0 238.6 50.7 L238.55 50.7 238.5 51.2 238.3 51.85 Q236.6 52.6 233.45 54.2 L228.7 56.35 228.4 53.7 Q227.8 50.7 224.3 48.45 222.55 48.85 217.0 53.85 L216.0 54.55 209.85 50.6 205.75 47.6 205.3 43.3 Q204.5 36.1 204.6 32.15 204.6 28.4 206.3 20.25 L206.5 19.3 207.0 16.9 Q208.6 22.25 211.4 26.4 214.5 30.9 219.3 33.2 217.25 35.15 215.4 37.95 213.15 41.4 209.85 46.95 213.55 45.0 217.85 39.5 L221.65 34.15 M202.4 96.2 L200.25 98.0 200.45 96.6 200.7 96.65 202.4 96.2 M238.2 37.2 Q235.4 37.35 232.3 39.0 228.85 40.75 228.05 42.85 L228.4 43.4 Q229.25 43.95 231.6 43.95 235.0 43.95 237.25 41.7 L238.95 39.45 238.2 37.2 M198.0 116.75 L206.4 110.8 211.55 106.45 Q212.35 117.45 216.65 149.6 L219.1 167.35 Q218.5 175.35 218.5 181.2 L218.85 185.2 218.85 185.9 219.2 188.9 221.15 207.2 221.2 207.8 221.6 211.35 221.6 211.55 222.3 217.9 Q224.4 238.6 224.7 245.9 L220.15 247.9 215.2 250.55 215.1 249.65 Q215.1 240.3 213.45 235.4 211.0 228.3 209.5 214.4 L208.35 214.4 208.35 221.15 Q209.75 227.7 209.6 236.5 L208.8 251.7 Q208.1 266.1 211.45 275.2 L212.85 287.05 Q214.8 301.45 217.35 311.2 217.4 319.95 217.95 322.3 218.4 324.25 219.2 326.0 219.7 335.2 221.1 349.1 223.35 371.8 223.35 382.8 L222.9 411.15 222.75 416.75 220.4 412.15 Q215.15 401.3 206.5 379.6 L205.35 379.95 Q212.45 409.85 216.05 419.8 218.95 427.7 222.05 433.2 221.35 445.7 220.35 453.85 L215.85 454.25 208.55 454.6 Q206.7 454.6 205.75 453.2 204.85 451.8 202.95 451.8 L198.9 451.8 199.75 418.35 Q200.7 410.4 200.7 402.45 L200.45 393.05 201.45 355.95 Q201.45 334.4 199.95 324.3 L199.95 232.2 Q200.35 217.2 198.0 187.8 195.45 156.45 195.45 144.1 195.45 138.75 198.0 116.75 M220.2 154.95 Q219.75 150.7 219.65 147.5 219.35 138.9 220.0 115.05 220.0 113.25 220.9 108.7 L221.55 105.25 222.9 110.75 224.9 119.05 Q223.15 130.15 221.75 141.25 L220.2 154.95 M220.8 101.4 Q218.7 98.85 217.0 97.85 L217.0 97.8 220.9 99.35 Q220.75 100.2 220.75 101.15 L220.8 101.4 M206.35 93.5 L203.4 95.45 202.75 95.95 203.4 95.05 Q204.25 93.45 206.1 93.45 L206.35 93.5 M234.05 69.8 L233.15 73.9 Q229.15 75.75 227.85 79.65 227.05 82.1 227.3 85.95 226.35 85.5 224.0 83.3 222.05 81.45 221.1 81.45 220.2 81.45 218.25 83.7 217.05 85.05 216.2 86.6 L213.85 86.65 Q211.9 86.9 211.35 87.45 L211.2 86.9 Q211.0 86.8 211.0 89.15 L211.25 89.7 211.0 89.7 210.6 88.6 211.2 81.9 Q211.65 77.9 211.0 75.45 L204.6 75.45 202.95 76.6 204.0 68.15 206.1 70.05 Q212.0 75.1 219.6 75.1 224.95 75.1 231.8 71.15 L234.05 69.8 M208.75 142.05 Q208.75 139.55 208.15 138.85 207.95 138.65 206.1 137.9 204.15 139.15 202.95 142.35 202.0 144.75 202.0 146.15 L202.2 150.0 Q202.4 151.05 202.95 151.6 205.75 149.1 207.1 147.05 208.75 144.55 208.75 142.05 M211.45 157.1 Q207.85 159.8 205.75 160.2 206.25 161.85 208.0 163.6 211.25 162.75 213.45 159.75 215.15 157.45 215.85 154.6 214.8 154.6 211.45 157.1 M204.9 435.1 Q206.45 438.95 208.35 440.55 L209.5 439.4 209.85 436.95 Q209.65 433.9 208.3 431.7 206.2 428.5 202.2 429.1 203.05 430.35 204.9 435.1 M215.85 354.45 Q215.5 353.35 214.35 352.2 211.3 351.05 210.3 353.2 L209.5 356.7 Q211.25 357.2 213.35 356.3 215.15 355.5 215.85 354.45" fill="#767741" fill-rule="evenodd" stroke="none"/>
      <path d="M221.65 34.15 L217.85 39.5 Q213.55 45.0 209.85 46.95 213.15 41.4 215.4 37.95 217.25 35.15 219.3 33.2 L219.5 33.3 220.35 33.65 221.65 34.15 M238.2 37.2 L238.95 39.45 237.25 41.7 Q235.0 43.95 231.6 43.95 229.25 43.95 228.4 43.4 L228.05 42.85 Q228.85 40.75 232.3 39.0 235.4 37.35 238.2 37.2 M200.25 98.0 L202.4 96.2 202.75 95.95 203.4 95.45 206.35 93.5 Q207.45 93.85 214.0 96.55 L217.0 97.8 217.0 97.85 Q218.7 98.85 220.8 101.4 L220.8 101.45 221.55 105.25 220.9 108.7 Q220.0 113.25 220.0 115.05 219.35 138.9 219.65 147.5 219.75 150.7 220.2 154.95 219.5 161.65 219.1 167.35 L216.65 149.6 Q212.35 117.45 211.55 106.45 L206.4 110.8 198.0 116.75 200.25 98.0 M204.0 68.15 L204.6 63.8 Q211.6 70.8 218.85 70.8 227.4 70.8 234.7 66.85 L234.05 69.8 231.8 71.15 Q224.95 75.1 219.6 75.1 212.0 75.1 206.1 70.05 L204.0 68.15 M208.75 142.05 Q208.75 144.55 207.1 147.05 205.75 149.1 202.95 151.6 202.4 151.05 202.2 150.0 L202.0 146.15 Q202.0 144.75 202.95 142.35 204.15 139.15 206.1 137.9 207.95 138.65 208.15 138.85 208.75 139.55 208.75 142.05 M211.45 157.1 Q214.8 154.6 215.85 154.6 215.15 157.45 213.45 159.75 211.25 162.75 208.0 163.6 206.25 161.85 205.75 160.2 207.85 159.8 211.45 157.1 M224.7 245.9 L224.7 247.4 224.7 247.5 224.7 247.6 224.7 251.6 Q223.05 267.25 220.9 281.45 220.25 285.85 219.8 291.0 217.35 303.4 217.35 309.3 L217.35 311.2 Q214.8 301.45 212.85 287.05 L211.45 275.2 Q208.1 266.1 208.8 251.7 L209.6 236.5 Q209.75 227.7 208.35 221.15 L208.35 214.4 209.5 214.4 Q211.0 228.3 213.45 235.4 215.1 240.3 215.1 249.65 L215.2 250.55 220.15 247.9 224.7 245.9 M222.75 416.75 L222.7 417.3 222.5 423.05 222.4 425.4 222.1 431.8 222.1 432.05 222.1 432.6 222.05 433.2 Q218.95 427.7 216.05 419.8 212.45 409.85 205.35 379.95 L206.5 379.6 Q215.15 401.3 220.4 412.15 L222.75 416.75 M215.85 354.45 Q215.15 355.5 213.35 356.3 211.25 357.2 209.5 356.7 L210.3 353.2 Q211.3 351.05 214.35 352.2 215.5 353.35 215.85 354.45 M204.9 435.1 Q203.05 430.35 202.2 429.1 206.2 428.5 208.3 431.7 209.65 433.9 209.85 436.95 L209.5 439.4 208.35 440.55 Q206.45 438.95 204.9 435.1" fill="#4b4b2a" fill-rule="evenodd" stroke="none"/>
    </g>
  </defs>
</svg>
