<?xml version="1.0" encoding="UTF-8" standalone="no"?>
<svg xmlns:ffdec="https://www.free-decompiler.com/flash" xmlns:xlink="http://www.w3.org/1999/xlink" ffdec:objectType="frame" height="100.35px" width="149.7px" xmlns="http://www.w3.org/2000/svg">
  <g transform="matrix(1.0, 0.0, 0.0, 1.0, 54.25, 88.15)">
    <use ffdec:characterId="49" height="70.6" transform="matrix(1.0, 0.0, 0.0, 1.0, -23.4, -59.5)" width="50.0" xlink:href="#shape0"/>
  </g>
  <defs>
    <g id="shape0" transform="matrix(1.0, 0.0, 0.0, 1.0, 23.4, 59.5)">
      <path d="M20.0 -59.5 L20.55 -59.25 20.7 -58.4 Q20.7 -57.5 17.8 -48.8 17.8 -48.6 19.0 -48.5 19.4 -47.9 19.4 -46.4 L20.3 -46.35 Q21.1 -46.2 21.8 -45.5 22.3 -45.5 23.45 -46.5 24.5 -47.4 25.4 -47.2 L25.85 -46.5 26.1 -45.55 Q26.1 -37.15 24.2 -32.3 L17.4 -16.7 18.2 -16.4 Q19.85 -17.4 22.05 -19.55 L25.3 -22.9 26.5 -22.9 26.6 -21.7 Q26.6 -20.95 23.3 -13.75 19.75 -5.9 19.1 -3.7 L23.2 -6.0 23.8 -5.8 24.0 -5.05 Q24.0 -4.4 22.15 -1.4 L22.2 -0.8 Q22.2 -0.3 19.35 2.6 L18.0 4.0 17.9 4.0 15.65 5.9 Q15.15 6.3 14.0 6.3 13.5 6.3 13.3 6.75 L12.6 7.2 11.75 7.1 11.6 7.0 11.7 5.5 11.35 3.95 Q11.0 2.85 11.0 2.3 7.35 3.3 4.75 6.65 2.1 10.05 -1.2 11.1 L-3.2 11.1 Q-4.0 10.85 -3.85 10.4 L-5.6 10.3 Q-6.95 9.3 -7.95 5.7 -8.9 2.6 -9.9 2.6 L-11.05 2.9 -12.0 3.6 Q-13.1 2.45 -16.25 -2.6 L-18.9 -7.0 -21.1 -10.4 -21.0 -10.55 -20.2 -10.7 Q-18.7 -10.7 -18.25 -9.85 L-17.3 -8.3 Q-16.85 -7.95 -16.05 -7.7 L-14.5 -7.1 Q-13.9 -6.3 -13.9 -7.3 L-16.1 -13.55 -19.1 -21.5 -21.25 -28.4 -23.4 -35.3 Q-23.4 -35.85 -22.8 -36.2 -21.4 -33.95 -16.95 -25.4 -13.45 -18.75 -10.4 -14.6 L-8.8 -15.8 Q-7.85 -15.7 -7.1 -15.2 L-6.6 -17.4 -6.6 -17.55 -5.85 -17.7 Q-4.85 -17.7 -4.45 -16.75 -4.0 -15.8 -3.2 -15.8 -1.95 -15.8 0.55 -20.25 L3.8 -26.8 Q7.45 -33.65 8.9 -37.9 9.6 -39.8 11.55 -43.5 L14.5 -49.0 16.8 -54.55 Q18.3 -58.2 20.0 -59.5" fill="#afbfc2" fill-rule="evenodd" stroke="none"/>
    </g>
  </defs>
</svg>
