<?xml version="1.0" encoding="UTF-8" standalone="no"?>
<svg xmlns:ffdec="https://www.free-decompiler.com/flash" xmlns:xlink="http://www.w3.org/1999/xlink" ffdec:objectType="frame" height="100.35px" width="149.7px" xmlns="http://www.w3.org/2000/svg">
  <g transform="matrix(1.0, 0.0, 0.0, 1.0, 54.25, 88.15)">
    <use ffdec:characterId="54" height="71.05" transform="matrix(1.0, 0.0, 0.0, 1.0, -45.6, -87.45)" width="137.1" xlink:href="#shape0"/>
  </g>
  <defs>
    <g id="shape0" transform="matrix(1.0, 0.0, 0.0, 1.0, 45.6, 87.45)">
      <path d="M46.4 -80.7 L45.3 -80.8 Q45.1 -80.25 45.1 -81.25 45.1 -82.3 46.0 -82.6 L46.9 -82.5 47.0 -81.9 46.9 -81.0 46.4 -80.7 M48.0 -82.0 Q48.55 -81.5 48.75 -80.6 48.95 -79.65 49.2 -79.3 L50.45 -78.0 Q51.2 -77.15 51.2 -76.6 51.2 -76.1 50.8 -75.85 50.4 -75.65 50.4 -75.15 50.4 -74.65 50.85 -74.65 51.3 -74.7 51.3 -74.2 51.3 -73.1 50.45 -71.9 49.45 -70.6 48.2 -70.3 48.8 -69.65 49.25 -67.85 49.5 -66.8 51.2 -66.8 51.8 -66.8 52.2 -66.4 L52.8 -65.8 52.95 -66.15 52.8 -67.0 Q52.8 -67.75 53.1 -68.45 53.45 -69.3 54.0 -69.6 56.4 -65.75 56.4 -63.2 56.4 -62.3 55.9 -61.1 55.55 -60.25 55.6 -59.65 L55.7 -59.0 Q55.7 -57.35 53.95 -56.0 L49.0 -52.4 47.65 -52.5 46.5 -52.8 Q45.25 -54.05 42.25 -55.0 38.8 -56.05 37.9 -56.6 L35.6 -56.5 Q35.05 -56.2 34.7 -55.45 L34.9 -55.3 34.55 -54.6 33.3 -53.4 Q33.8 -52.4 34.55 -51.85 L35.7 -51.0 Q37.4 -51.1 37.1 -51.4 L37.3 -52.0 38.6 -51.8 40.6 -51.5 42.0 -49.8 Q42.8 -48.6 42.8 -48.2 L42.2 -47.5 Q41.6 -46.9 41.6 -46.0 L42.4 -45.15 Q42.45 -45.65 42.8 -45.9 L43.45 -45.4 43.8 -45.0 44.9 -45.95 46.8 -47.3 47.2 -43.7 Q47.35 -41.6 50.4 -42.6 L51.8 -42.5 52.5 -41.1 54.0 -41.2 Q55.05 -42.25 55.2 -42.95 55.35 -43.65 56.7 -45.0 L55.75 -45.9 55.1 -46.8 55.1 -47.4 55.0 -47.55 55.6 -47.7 Q56.35 -47.7 56.65 -46.9 57.0 -46.15 58.6 -46.1 59.8 -45.1 59.8 -43.5 L60.8 -43.6 60.85 -44.75 Q60.8 -45.5 62.6 -46.0 L62.2 -46.9 62.3 -47.5 63.8 -47.4 63.8 -47.1 64.1 -47.0 66.45 -48.2 Q68.6 -49.1 69.7 -47.7 75.1 -48.05 74.95 -49.55 L74.85 -50.65 Q75.05 -51.2 76.6 -51.4 L77.15 -52.05 77.5 -53.05 Q77.5 -53.55 76.65 -54.25 75.7 -55.1 74.5 -55.2 74.3 -55.5 74.3 -56.7 L75.25 -56.6 76.1 -56.2 78.0 -55.1 78.45 -55.2 78.7 -55.0 Q79.65 -55.0 80.75 -53.7 82.2 -52.05 83.4 -51.9 L84.35 -52.35 84.8 -52.8 Q85.5 -52.1 85.6 -52.3 L84.4 -53.5 Q84.4 -54.1 84.8 -54.4 L86.25 -53.25 87.5 -51.7 88.0 -50.4 88.0 -49.15 88.1 -48.8 87.55 -48.95 87.4 -48.3 Q87.0 -48.3 86.9 -48.6 L86.15 -48.2 Q85.9 -47.95 85.9 -47.25 L86.3 -46.15 87.6 -44.4 88.3 -45.5 88.6 -46.6 89.7 -46.6 90.85 -44.45 91.5 -42.4 91.35 -41.9 91.5 -40.8 91.3 -39.5 91.1 -38.1 91.1 -37.9 Q91.05 -37.75 90.7 -37.7 L90.6 -36.7 88.9 -36.9 Q88.35 -36.9 88.15 -36.3 87.9 -35.45 87.4 -35.1 L87.2 -35.25 87.2 -34.8 87.1 -33.9 Q87.2 -33.6 86.2 -33.6 84.5 -33.6 83.3 -35.2 L82.2 -37.2 80.8 -38.85 80.0 -39.55 79.85 -39.65 79.8 -39.65 79.8 -39.5 Q79.35 -39.1 78.35 -39.1 L77.6 -39.7 77.1 -40.45 77.1 -40.5 76.8 -40.7 74.0 -40.6 73.45 -39.7 Q72.8 -39.15 71.1 -39.0 L70.6 -38.8 Q70.4 -38.7 70.4 -38.1 70.4 -37.4 72.2 -36.45 74.0 -35.5 74.0 -33.65 L73.9 -32.15 Q73.6 -31.6 72.0 -30.2 71.95 -29.2 70.9 -28.05 69.95 -27.0 68.8 -26.4 L66.95 -26.6 65.4 -26.9 Q64.55 -27.5 63.85 -28.85 63.15 -30.15 63.2 -30.7 62.1 -30.9 61.5 -31.5 61.0 -31.15 61.5 -30.1 L61.2 -29.6 60.4 -29.7 60.35 -29.85 Q60.15 -29.3 59.6 -29.2 L56.8 -28.4 Q56.25 -28.45 55.9 -28.75 L55.1 -29.0 54.05 -28.65 53.1 -28.2 Q52.0 -27.1 52.0 -26.75 52.0 -26.25 52.4 -26.2 52.8 -26.2 52.8 -25.7 L52.7 -24.9 52.4 -24.8 Q51.05 -24.4 50.35 -23.75 L49.0 -23.0 48.9 -23.45 49.45 -24.3 49.7 -25.35 Q49.7 -25.95 49.4 -25.9 L48.6 -25.8 48.5 -26.25 49.4 -27.6 49.2 -28.5 Q48.2 -28.5 48.0 -28.8 L48.6 -30.0 47.4 -30.95 46.0 -31.9 43.9 -31.8 Q43.45 -31.4 43.45 -30.9 L43.6 -29.85 Q43.6 -29.2 43.4 -28.9 L43.0 -28.5 Q41.4 -29.2 40.95 -28.3 L40.6 -26.9 39.45 -25.55 38.6 -24.5 37.4 -24.5 Q37.2 -24.1 37.2 -25.1 L38.8 -27.5 Q38.8 -27.9 38.4 -28.3 L37.4 -28.5 36.85 -28.7 Q36.4 -28.9 36.4 -29.5 L37.05 -30.4 37.7 -31.3 37.35 -33.2 36.8 -35.5 33.8 -35.7 33.6 -36.6 32.0 -36.6 31.6 -35.95 31.2 -35.2 Q23.9 -35.8 22.2 -33.75 21.6 -31.3 20.4 -30.8 19.2 -32.6 18.2 -33.3 L15.7 -32.55 Q14.5 -32.15 13.5 -31.5 12.65 -30.95 12.8 -30.25 12.85 -29.9 11.6 -29.9 10.6 -29.9 9.8 -28.45 L9.2 -27.15 9.3 -25.8 Q9.3 -25.15 9.0 -24.8 L8.4 -24.3 6.6 -24.7 5.7 -24.5 6.2 -23.75 6.5 -22.7 6.4 -21.85 6.0 -21.6 Q5.35 -21.95 3.95 -24.85 2.85 -27.15 -0.2 -27.3 -1.05 -28.55 -1.0 -28.95 L-0.8 -29.7 -1.0 -30.85 -1.2 -31.5 -2.6 -31.7 Q-3.45 -32.5 -5.4 -32.8 L-5.15 -31.5 Q-5.35 -30.85 -7.9 -30.9 L-7.55 -29.8 Q-7.15 -28.95 -7.1 -28.5 -7.2 -28.2 -7.6 -28.0 L-9.25 -29.9 Q-10.65 -31.4 -12.7 -31.2 L-13.3 -31.7 Q-13.7 -32.05 -13.7 -32.7 -13.7 -33.65 -12.7 -35.05 -11.45 -36.9 -9.5 -37.1 -9.3 -36.55 -9.3 -37.55 -9.3 -38.1 -10.8 -39.35 L-12.9 -41.0 -14.8 -41.1 -16.7 -41.2 Q-17.65 -41.6 -17.7 -42.7 L-17.7 -44.5 -19.1 -44.8 -19.7 -45.4 -23.2 -45.3 -24.5 -44.4 -23.35 -42.6 Q-23.1 -42.1 -23.1 -41.4 L-23.2 -40.35 Q-23.55 -39.45 -24.8 -39.4 -24.3 -37.9 -24.8 -37.1 -26.25 -38.35 -27.4 -38.9 L-27.7 -40.15 Q-27.8 -40.8 -28.9 -41.9 L-30.0 -42.3 -30.95 -41.15 -31.3 -40.5 -32.1 -40.6 -33.4 -40.8 -34.9 -40.6 -35.55 -40.45 Q-36.0 -40.35 -36.0 -39.75 -36.0 -38.65 -35.0 -37.5 -34.0 -36.3 -34.0 -35.4 L-34.05 -34.8 Q-34.35 -34.35 -35.6 -34.1 L-35.15 -32.5 -34.4 -30.8 -34.6 -30.5 Q-35.85 -31.25 -36.7 -32.3 L-38.0 -33.45 -39.1 -34.4 Q-40.4 -36.0 -39.95 -36.95 -39.2 -37.9 -39.2 -38.6 L-39.4 -38.8 -39.5 -38.8 -39.7 -39.1 -39.9 -39.35 -40.4 -39.8 Q-41.55 -40.75 -43.0 -40.9 -43.55 -41.25 -44.4 -43.0 -45.2 -44.65 -45.2 -45.25 L-44.8 -46.55 -44.4 -47.8 Q-44.15 -47.85 -44.1 -47.6 -44.05 -47.3 -43.5 -47.3 -42.9 -47.3 -41.9 -47.8 -40.5 -48.45 -40.5 -49.4 -40.5 -50.0 -41.1 -51.2 L-42.0 -52.7 -43.9 -52.9 -45.05 -54.6 -45.6 -56.2 Q-45.6 -57.5 -44.05 -59.8 L-42.3 -62.0 -41.1 -61.15 -41.0 -60.6 Q-39.85 -60.4 -39.1 -59.9 -37.7 -61.45 -37.7 -61.95 -37.7 -62.4 -39.2 -64.05 L-38.75 -65.85 Q-38.15 -67.0 -37.1 -66.7 L-36.65 -66.7 Q-36.5 -66.75 -36.5 -67.4 L-36.75 -69.95 Q-37.05 -71.9 -37.5 -73.1 L-39.0 -73.4 -39.1 -74.3 -39.4 -74.3 Q-39.9 -75.4 -39.9 -76.4 L-39.55 -77.3 -38.8 -78.5 Q-37.65 -80.0 -37.15 -79.8 L-36.9 -79.3 Q-35.2 -79.3 -35.2 -80.8 -35.2 -81.45 -34.5 -81.5 L-33.4 -81.5 Q-33.15 -81.15 -33.7 -80.6 L-32.4 -79.2 -29.8 -78.7 Q-29.4 -77.5 -28.8 -76.9 L-27.6 -77.0 Q-27.3 -77.3 -27.3 -78.8 L-25.6 -79.2 -25.1 -78.5 -25.2 -78.2 -25.1 -77.7 Q-23.5 -77.2 -21.3 -77.0 -19.7 -76.7 -18.8 -75.3 -17.2 -75.4 -16.8 -76.0 L-14.9 -73.5 -13.3 -71.05 Q-13.3 -70.3 -13.55 -70.0 -13.9 -69.65 -14.9 -69.5 L-15.75 -67.8 -16.0 -66.5 Q-16.0 -65.85 -15.55 -65.5 L-13.2 -63.3 -11.3 -63.4 -10.65 -64.3 -10.0 -65.2 Q-9.4 -64.6 -9.4 -64.25 L-7.6 -64.0 Q-5.3 -63.9 -4.2 -62.8 L-2.9 -60.5 -1.9 -58.15 Q-1.9 -57.9 -2.75 -57.1 L-3.6 -55.95 -3.5 -54.95 -3.2 -54.3 -2.05 -53.9 -1.25 -53.7 -0.7 -54.3 Q-0.1 -54.9 0.7 -54.9 L0.8 -54.65 0.9 -53.85 0.9 -53.65 1.45 -53.4 2.9 -52.7 5.6 -53.1 5.4 -53.45 Q5.1 -53.7 5.1 -54.3 5.1 -54.9 6.95 -56.3 9.1 -57.95 10.6 -57.6 L10.7 -56.7 10.4 -55.8 10.4 -55.6 11.1 -55.4 12.1 -55.8 14.8 -56.7 14.8 -57.6 14.95 -57.75 15.6 -57.9 16.35 -57.65 Q16.75 -57.3 17.4 -57.1 L17.25 -56.75 Q17.0 -56.5 17.6 -56.5 19.3 -56.5 20.3 -57.3 21.1 -57.95 21.1 -58.65 21.1 -59.35 20.4 -60.05 L19.25 -61.05 17.1 -61.0 16.6 -60.1 Q16.2 -60.1 15.6 -60.7 15.0 -61.1 14.0 -61.1 13.4 -61.1 13.45 -60.9 L13.4 -60.5 10.8 -60.0 9.0 -60.1 6.15 -62.15 Q4.8 -63.25 4.8 -64.8 4.8 -66.75 5.7 -69.0 4.1 -69.45 4.1 -70.25 4.1 -71.05 5.3 -73.45 6.55 -75.9 7.4 -76.7 L10.8 -76.9 Q11.55 -76.9 12.0 -77.25 L13.2 -78.1 13.55 -78.0 14.1 -77.7 13.2 -76.5 Q12.5 -75.5 12.5 -75.0 L13.4 -74.8 13.65 -73.65 13.6 -72.7 18.8 -72.7 Q20.15 -73.3 21.85 -74.35 23.3 -75.1 25.3 -75.1 L25.75 -76.15 Q26.15 -77.05 26.8 -77.2 27.2 -76.6 27.2 -75.4 28.25 -75.1 28.5 -74.6 31.2 -74.7 32.2 -75.75 L34.6 -78.1 Q36.15 -79.05 35.65 -80.2 34.8 -81.3 34.8 -81.7 34.8 -82.2 35.95 -83.85 37.1 -85.5 37.1 -86.4 L37.8 -86.4 Q38.55 -85.5 38.55 -84.15 L38.5 -81.9 39.4 -81.6 39.85 -80.9 40.1 -79.95 39.25 -78.75 38.4 -77.55 39.8 -75.45 41.2 -73.7 Q42.55 -73.7 44.4 -74.55 46.6 -75.5 46.7 -76.6 L46.6 -77.7 Q46.55 -78.5 46.8 -79.0 47.6 -80.45 47.6 -81.4 L47.65 -81.6 48.0 -82.0 M72.1 -56.0 Q71.8 -56.45 71.8 -56.9 L72.5 -57.2 73.6 -57.1 73.7 -56.65 73.6 -56.2 Q73.5 -56.0 73.2 -55.9 L72.1 -56.0 M36.8 -87.2 L36.7 -86.6 36.2 -86.5 36.0 -87.4 Q36.55 -87.55 36.8 -87.2 M35.4 -86.7 L35.5 -86.85 35.6 -86.25 35.55 -85.45 34.8 -85.3 Q34.55 -85.3 34.15 -85.6 33.6 -86.1 33.2 -87.1 L34.5 -86.9 35.4 -86.7 M29.5 -79.65 L29.55 -80.35 29.6 -80.3 30.9 -80.1 Q30.9 -79.5 30.6 -79.2 L29.7 -79.2 Q29.5 -78.65 29.5 -79.65 M26.0 -78.0 Q26.7 -78.7 27.0 -78.3 26.6 -77.7 26.2 -77.7 L26.0 -78.0 M15.3 -78.0 L15.1 -78.6 15.2 -79.2 16.2 -79.2 16.5 -78.9 16.05 -78.35 Q15.65 -78.0 15.3 -78.0 M23.7 -27.95 L22.8 -26.4 Q22.3 -26.5 21.4 -27.4 20.4 -28.35 20.4 -28.9 20.4 -29.45 20.65 -29.8 L21.0 -30.4 21.3 -30.35 21.2 -31.0 Q22.05 -31.4 22.5 -30.7 L22.05 -30.2 23.7 -30.2 Q23.9 -30.05 24.15 -30.0 L24.3 -29.3 Q24.3 -28.75 23.7 -27.95 M22.3 -25.9 L23.3 -25.7 23.0 -24.8 22.5 -24.8 22.3 -25.9 M34.7 -26.6 L34.6 -27.3 34.8 -28.1 35.2 -28.2 36.1 -27.7 36.1 -26.8 34.9 -26.4 34.7 -26.6 M10.3 -24.1 L10.45 -24.1 11.0 -23.9 10.5 -23.65 10.5 -20.7 10.2 -20.4 8.3 -21.65 Q7.5 -22.3 7.5 -22.8 7.5 -23.7 8.8 -24.4 L10.2 -24.3 10.3 -24.1 M9.8 -19.6 Q10.65 -19.6 11.0 -19.1 10.8 -18.8 10.1 -18.7 9.8 -19.0 9.8 -19.6 M38.9 -22.1 L38.9 -21.5 38.4 -21.1 Q37.5 -21.25 37.5 -21.8 L37.6 -22.4 38.6 -22.4 38.9 -22.1 M36.9 -21.7 L37.0 -21.2 Q37.0 -20.65 36.8 -20.55 L36.9 -20.6 Q36.3 -19.65 35.2 -19.0 L35.25 -20.2 35.4 -21.3 34.2 -21.5 34.0 -22.85 Q34.0 -23.5 34.8 -23.8 L36.1 -23.6 37.0 -22.1 36.9 -21.7 M34.85 -18.35 L35.8 -18.3 36.2 -17.5 34.5 -17.2 Q34.3 -16.65 34.3 -17.65 34.3 -18.3 34.85 -18.35 M32.9 -16.9 L32.4 -16.4 Q31.9 -16.6 31.9 -17.1 L32.9 -16.9 M64.8 -25.6 Q65.2 -26.15 66.2 -26.0 L66.5 -25.7 66.3 -25.2 65.8 -25.1 Q65.0 -25.3 64.8 -25.6 M48.55 -22.45 L48.7 -21.65 Q48.7 -20.95 48.15 -20.8 47.6 -20.6 47.6 -20.25 47.6 -19.65 47.2 -19.45 L46.4 -19.3 Q46.0 -18.65 46.0 -19.65 L46.4 -21.35 Q46.75 -22.45 47.2 -22.8 L48.2 -22.7 Q48.3 -22.55 48.55 -22.45 M45.3 -17.9 Q45.0 -18.2 45.0 -18.8 45.85 -18.8 46.2 -18.3 46.0 -18.0 45.3 -17.9 M83.2 -54.0 Q82.6 -54.1 82.4 -54.4 82.55 -54.65 82.9 -54.7 L83.5 -54.6 Q83.5 -54.1 83.2 -54.0 M-6.0 -27.6 L-4.7 -27.9 -4.3 -26.8 Q-4.4 -26.5 -4.8 -26.3 L-5.8 -27.0 -6.0 -27.6 M-32.8 -28.5 L-33.4 -28.1 -34.2 -29.9 -33.85 -30.2 -33.6 -30.4 -32.8 -30.3 -32.8 -28.5 M-33.8 -28.2 L-34.0 -27.7 Q-34.6 -27.7 -34.8 -28.0 L-34.3 -28.3 -33.8 -28.2 M-23.5 -35.6 L-23.7 -36.05 -23.5 -37.1 -23.0 -37.1 -22.3 -36.5 -22.75 -35.95 Q-23.15 -35.6 -23.5 -35.6" fill="#afbfc2" fill-rule="evenodd" stroke="none"/>
    </g>
  </defs>
</svg>
