<?xml version="1.0" encoding="UTF-8" standalone="no"?>
<svg xmlns:ffdec="https://www.free-decompiler.com/flash" xmlns:xlink="http://www.w3.org/1999/xlink" ffdec:objectType="frame" height="100.35px" width="149.7px" xmlns="http://www.w3.org/2000/svg">
  <g transform="matrix(1.0, 0.0, 0.0, 1.0, 54.25, 88.15)">
    <use ffdec:characterId="55" height="61.2" transform="matrix(1.0, 0.0, 0.0, 1.0, -47.6, -81.1)" width="140.0" xlink:href="#shape0"/>
  </g>
  <defs>
    <g id="shape0" transform="matrix(1.0, 0.0, 0.0, 1.0, 47.6, 81.1)">
      <path d="M47.9 -78.3 Q48.7 -78.3 49.1 -77.8 48.95 -76.9 48.1 -76.8 47.9 -77.1 47.9 -78.3 M47.05 -75.4 L47.6 -76.0 48.2 -75.9 48.25 -75.5 48.1 -74.55 Q48.1 -73.9 49.05 -73.85 50.1 -73.8 50.4 -72.7 L50.5 -71.65 Q50.55 -70.95 50.7 -70.6 50.6 -70.3 50.0 -70.4 L49.7 -70.3 49.3 -70.0 Q50.45 -69.6 50.75 -69.1 L50.8 -68.2 Q50.8 -66.3 49.8 -66.1 L47.9 -66.2 Q47.45 -66.2 46.7 -65.5 46.0 -64.85 46.0 -64.6 46.0 -64.1 46.45 -63.4 L46.9 -62.2 Q46.9 -61.9 45.7 -60.7 L47.6 -59.5 50.2 -59.5 Q50.2 -60.6 50.9 -61.3 53.5 -61.3 54.1 -60.7 55.3 -61.0 55.1 -61.85 54.6 -62.8 54.6 -63.2 54.6 -64.4 55.6 -65.0 L56.3 -63.95 56.2 -63.4 Q58.9 -60.0 58.9 -59.35 58.9 -58.8 58.35 -58.15 57.75 -57.45 57.7 -56.2 L57.8 -54.85 Q57.75 -54.05 56.9 -53.5 53.5 -51.3 50.6 -48.8 L48.9 -48.8 46.9 -49.2 45.9 -51.45 Q45.3 -52.8 44.2 -53.6 L42.4 -52.7 41.05 -53.05 39.7 -53.6 38.7 -55.1 39.0 -55.7 39.4 -56.3 38.45 -56.7 37.05 -57.3 Q36.5 -57.6 36.05 -57.85 L35.0 -56.4 Q34.7 -55.6 34.4 -55.5 L33.8 -55.9 33.0 -56.2 32.05 -55.45 31.3 -54.5 Q32.95 -52.5 32.75 -52.0 L32.2 -51.5 Q32.2 -50.9 32.55 -50.65 32.75 -50.5 33.2 -50.3 L34.5 -49.8 36.4 -49.9 36.3 -50.35 36.5 -50.8 38.0 -51.1 Q38.4 -51.5 38.2 -52.6 L38.2 -52.75 38.95 -52.9 Q39.75 -52.9 39.85 -52.4 L40.1 -51.5 41.0 -51.3 41.55 -50.6 41.8 -49.65 Q41.8 -49.1 40.1 -47.4 L42.5 -45.0 Q43.6 -45.25 44.05 -46.15 44.45 -47.1 45.4 -47.2 45.85 -46.25 45.3 -45.4 46.85 -45.2 46.85 -43.45 46.85 -41.5 48.1 -41.0 L48.5 -41.15 49.6 -41.3 Q50.65 -41.3 51.1 -40.65 L50.8 -39.4 51.2 -38.5 54.6 -38.3 Q55.0 -37.1 55.6 -36.5 L57.6 -36.6 58.3 -37.35 59.2 -38.1 Q58.2 -39.55 58.45 -40.15 59.0 -40.65 59.0 -41.2 L58.5 -42.45 Q58.0 -43.15 58.0 -43.6 L58.2 -43.9 59.2 -42.55 Q59.55 -41.95 61.0 -41.9 L61.4 -39.95 Q61.45 -38.55 61.6 -38.1 63.95 -38.25 64.1 -37.75 L64.0 -37.0 65.2 -37.0 Q66.3 -37.3 66.4 -37.65 L66.8 -38.5 Q69.0 -37.75 69.8 -38.5 70.2 -38.85 70.2 -39.5 69.7 -41.1 69.7 -41.9 69.7 -42.65 69.1 -43.85 L68.2 -45.8 Q68.7 -46.25 70.1 -45.5 L71.9 -45.3 Q72.3 -45.3 74.5 -43.9 75.0 -43.9 75.35 -44.4 75.65 -44.9 76.15 -44.9 L80.9 -44.5 81.45 -46.0 81.5 -46.4 81.3 -46.4 81.1 -47.5 81.35 -47.5 81.2 -47.9 Q80.35 -48.5 80.25 -48.85 L80.0 -49.4 80.1 -50.0 80.8 -50.1 81.8 -50.0 81.95 -50.05 82.1 -49.4 81.85 -48.45 82.1 -48.1 82.15 -48.0 82.6 -47.35 Q83.6 -45.8 83.9 -44.3 L84.25 -44.1 Q84.25 -43.9 84.8 -43.9 86.45 -43.9 86.4 -45.5 L86.0 -47.45 86.6 -48.1 87.2 -48.6 86.95 -49.65 86.4 -50.4 86.8 -50.8 87.8 -50.7 89.0 -47.9 89.7 -46.05 89.4 -45.05 88.9 -44.4 89.0 -44.0 89.2 -43.05 89.1 -42.3 Q88.7 -41.75 87.2 -41.4 88.0 -40.3 88.0 -39.4 L88.0 -39.3 89.1 -39.4 90.2 -40.5 Q90.8 -41.3 90.8 -42.2 L91.4 -42.3 Q92.4 -40.3 92.4 -38.4 L92.0 -37.05 91.6 -35.7 Q91.6 -35.2 92.0 -35.1 92.4 -35.0 92.4 -34.5 90.3 -29.1 89.8 -28.5 89.15 -28.85 88.85 -29.15 L88.4 -29.7 87.0 -28.8 84.9 -28.8 Q83.85 -29.55 83.05 -31.65 L81.9 -34.2 80.65 -34.05 80.4 -33.8 78.8 -33.9 Q77.5 -33.45 77.55 -32.35 77.65 -31.0 77.0 -30.5 L75.9 -30.2 Q74.3 -28.75 74.6 -27.75 L75.2 -25.85 Q75.2 -24.55 73.5 -22.25 71.8 -19.95 70.8 -19.9 L67.65 -20.4 Q66.75 -20.5 66.4 -21.3 L66.1 -22.65 Q66.0 -23.3 65.2 -24.0 63.85 -25.2 63.7 -27.0 63.6 -28.2 62.55 -28.85 L60.3 -28.6 59.0 -27.15 57.5 -26.85 56.45 -26.1 55.8 -26.2 Q50.7 -26.75 48.9 -29.0 46.35 -30.8 43.4 -30.8 L42.55 -30.75 42.45 -30.9 42.5 -30.75 41.05 -30.45 40.1 -30.7 39.85 -30.9 39.8 -31.6 39.8 -32.0 38.9 -31.9 38.6 -32.1 38.5 -32.75 35.2 -32.4 Q33.8 -32.4 31.0 -34.1 L29.45 -35.1 Q27.4 -35.1 25.9 -36.25 L22.8 -38.5 Q17.7 -38.05 17.05 -36.7 L16.65 -35.4 Q16.3 -34.55 15.2 -33.9 L13.9 -34.2 12.0 -34.1 10.4 -32.4 8.95 -31.9 7.6 -31.6 Q6.7 -31.6 6.4 -31.9 L3.6 -32.1 4.3 -31.6 3.1 -30.55 3.1 -30.1 2.7 -29.5 Q2.7 -29.3 4.0 -28.8 L3.85 -28.25 Q3.65 -27.9 3.0 -27.9 2.35 -27.9 1.95 -28.4 1.6 -28.8 1.6 -29.15 L2.0 -29.95 2.35 -30.3 Q0.1 -31.9 -0.3 -33.1 L-0.1 -33.4 -0.2 -33.5 Q-0.45 -33.85 0.0 -35.8 L-0.15 -36.3 -0.7 -36.1 -2.05 -36.85 -2.6 -36.9 -2.65 -37.05 -3.2 -37.1 -4.8 -36.8 -6.9 -36.2 Q-7.7 -35.5 -7.7 -34.5 L-8.0 -34.4 -9.0 -34.5 -9.2 -34.95 -9.6 -35.4 -11.3 -35.6 -13.2 -34.0 -14.2 -34.1 -14.5 -35.05 Q-14.7 -35.6 -16.2 -35.7 L-16.4 -36.9 Q-16.4 -39.05 -14.3 -39.65 L-13.2 -39.85 -13.8 -40.45 Q-14.45 -41.1 -17.0 -41.4 -18.1 -41.9 -18.2 -43.05 L-18.45 -44.85 -19.3 -45.7 -23.1 -45.9 Q-25.2 -46.45 -25.05 -47.85 -24.5 -49.35 -24.5 -49.8 L-24.65 -50.15 -25.0 -50.1 -26.7 -50.0 -26.9 -49.75 -27.1 -48.95 -26.85 -48.55 -25.9 -47.6 Q-27.2 -46.85 -27.2 -45.8 L-26.75 -44.4 Q-26.3 -43.55 -26.3 -43.1 L-26.6 -42.8 Q-27.4 -43.4 -27.6 -44.3 -27.7 -44.75 -29.1 -44.8 L-29.3 -46.35 Q-29.55 -47.5 -31.2 -47.5 -32.35 -47.5 -32.65 -46.55 L-32.8 -45.4 Q-33.35 -44.45 -35.0 -43.6 -36.5 -43.6 -36.5 -44.2 L-38.5 -44.2 Q-39.55 -43.85 -39.8 -43.3 L-39.9 -42.55 Q-39.9 -42.1 -38.5 -40.9 -37.1 -39.7 -37.1 -39.25 -37.1 -38.6 -37.4 -38.4 L-38.2 -38.3 -38.3 -37.85 Q-37.75 -37.5 -37.35 -36.65 -37.05 -35.9 -37.1 -35.6 -37.2 -35.3 -37.6 -35.1 -41.15 -36.65 -41.05 -37.25 -40.2 -38.05 -40.2 -39.2 L-42.4 -41.2 -43.25 -40.75 Q-43.5 -40.5 -44.0 -40.5 L-44.75 -40.6 -45.9 -40.9 Q-46.6 -41.5 -46.75 -42.1 L-46.8 -43.6 -47.2 -44.55 Q-47.6 -45.3 -47.6 -45.85 L-47.5 -47.35 Q-47.25 -48.05 -46.2 -48.7 L-43.2 -48.5 Q-42.5 -48.5 -42.05 -49.3 L-41.9 -49.5 -43.75 -52.2 -44.25 -52.4 -46.2 -52.9 -47.05 -54.3 Q-47.6 -55.45 -47.6 -56.2 -47.6 -57.3 -46.65 -58.6 -45.5 -60.35 -43.6 -60.6 L-43.6 -61.0 -43.5 -61.9 -43.15 -62.35 -43.1 -62.7 -42.6 -62.7 -42.4 -62.8 -42.2 -62.85 Q-42.0 -62.8 -42.0 -62.2 -42.0 -61.6 -42.3 -61.35 L-42.45 -61.25 -42.55 -60.75 Q-41.7 -59.8 -41.6 -59.0 L-41.6 -58.9 -40.4 -59.0 -40.0 -59.45 -39.8 -59.9 Q-39.55 -59.9 -39.35 -59.6 L-39.1 -59.2 -37.3 -61.7 -37.2 -63.45 Q-37.2 -64.05 -37.5 -65.05 L-38.0 -66.6 -40.3 -66.9 -41.0 -67.9 Q-41.6 -68.85 -41.6 -69.15 -41.6 -70.4 -40.4 -70.6 L-40.4 -71.5 -41.4 -71.7 Q-42.4 -73.2 -42.4 -74.4 -42.4 -75.85 -42.2 -76.2 -41.7 -77.2 -39.6 -78.0 L-39.05 -77.9 -38.4 -77.6 -39.1 -76.65 -39.3 -76.1 -37.2 -75.75 Q-36.45 -75.4 -35.9 -75.4 -34.75 -75.4 -34.4 -76.35 -33.95 -77.6 -33.5 -77.8 L-32.9 -75.4 -31.9 -75.4 -31.95 -74.5 -32.2 -73.6 -31.8 -73.1 Q-30.75 -73.8 -28.95 -73.8 -28.0 -73.75 -28.6 -74.8 L-27.25 -75.2 Q-26.65 -75.4 -26.5 -75.8 L-26.7 -76.7 Q-26.8 -77.3 -26.2 -77.3 L-25.9 -77.3 -25.7 -75.2 -25.7 -74.9 -25.2 -75.5 Q-22.95 -74.45 -22.85 -73.95 -22.8 -73.8 -23.7 -72.2 L-22.7 -71.9 -21.3 -71.5 -20.5 -70.6 Q-20.0 -70.0 -19.7 -70.0 L-18.4 -70.1 -16.95 -71.6 -15.8 -73.1 -14.35 -71.15 Q-13.45 -69.75 -13.5 -69.2 L-13.65 -68.4 -13.2 -67.4 -12.75 -66.65 Q-12.6 -66.25 -12.6 -65.6 -12.6 -64.25 -13.5 -64.1 L-15.05 -64.2 -15.4 -64.1 -15.6 -63.2 -15.55 -62.65 -15.2 -62.6 -14.2 -62.3 Q-13.9 -61.4 -14.1 -60.2 L-13.5 -59.7 -12.4 -59.8 -11.55 -61.3 Q-11.1 -62.35 -10.4 -62.8 L-9.4 -62.7 Q-8.8 -62.7 -8.9 -61.85 L-8.9 -60.6 Q-8.35 -59.75 -7.7 -59.95 -7.35 -60.05 -7.0 -60.3 -6.35 -60.3 -6.3 -59.95 L-6.4 -59.4 -5.35 -60.2 -5.2 -60.8 Q-4.3 -60.7 -1.8 -58.7 L-1.7 -58.85 -1.6 -58.25 Q-1.6 -56.45 -4.4 -55.7 L-4.5 -55.1 -3.5 -53.9 Q-2.9 -53.15 -2.8 -52.4 L-2.7 -51.2 Q-2.5 -50.5 -1.7 -50.2 -0.75 -51.55 0.0 -52.1 L0.5 -51.6 0.5 -51.1 Q1.55 -51.05 2.15 -50.5 2.75 -49.9 3.0 -49.9 3.7 -49.9 3.95 -50.45 L5.3 -50.6 Q6.5 -50.95 6.45 -52.35 L6.4 -54.6 7.2 -54.9 7.85 -54.5 8.0 -54.05 8.2 -53.3 Q8.45 -53.15 9.6 -53.7 L10.6 -53.6 Q11.2 -53.6 11.25 -53.1 L11.3 -52.4 11.85 -51.75 12.5 -51.3 Q13.6 -51.4 15.2 -52.2 L14.8 -52.75 Q14.4 -53.1 14.4 -53.65 L15.0 -54.85 16.2 -56.0 Q16.5 -55.7 16.5 -54.5 L17.55 -54.5 Q18.1 -54.55 18.4 -54.9 L19.4 -54.8 19.6 -53.9 Q19.85 -53.9 20.7 -54.4 L21.9 -55.2 21.9 -56.1 20.9 -56.4 Q20.7 -56.0 20.7 -57.0 20.7 -57.65 21.55 -58.95 L21.8 -59.3 Q21.55 -59.9 21.7 -60.5 L20.0 -61.7 Q17.95 -61.95 17.25 -60.7 16.55 -59.4 15.2 -59.4 L11.7 -59.6 9.1 -62.2 8.0 -62.1 6.85 -61.35 Q5.95 -60.65 5.2 -60.3 L2.9 -60.4 0.65 -62.85 Q0.3 -63.35 0.3 -64.15 0.3 -65.5 0.65 -66.15 1.2 -67.15 3.0 -67.4 L3.1 -67.85 3.0 -68.3 1.7 -68.4 Q1.5 -68.7 1.5 -69.75 1.5 -71.1 2.5 -72.0 3.55 -72.9 5.2 -72.9 5.9 -72.9 6.65 -73.65 L7.7 -74.8 8.4 -74.75 9.3 -74.5 Q8.85 -73.05 7.3 -71.5 8.5 -70.5 12.1 -69.7 12.7 -69.7 13.1 -70.05 L13.6 -70.5 15.0 -70.4 Q16.3 -69.5 15.3 -68.6 L15.3 -68.3 20.1 -68.2 Q21.8 -68.3 22.6 -68.9 L21.9 -69.5 Q23.0 -70.95 25.5 -71.9 25.5 -72.8 26.2 -73.2 26.75 -72.65 26.9 -71.8 L27.8 -71.6 28.1 -71.0 28.4 -70.5 31.2 -70.6 31.7 -70.8 32.45 -70.7 32.65 -70.9 Q34.55 -72.65 35.0 -72.7 L35.0 -71.95 Q36.3 -73.05 36.3 -74.3 36.3 -75.5 35.65 -76.2 L35.85 -76.55 36.0 -77.0 36.05 -77.2 37.05 -77.95 37.6 -78.8 38.6 -78.7 38.8 -78.5 38.8 -77.8 Q38.8 -76.95 38.0 -75.75 38.05 -75.4 38.8 -74.75 39.6 -74.1 39.6 -73.2 L39.35 -71.6 Q38.95 -71.15 37.7 -70.95 L38.4 -70.0 Q39.35 -69.1 41.0 -68.7 L42.8 -68.8 43.45 -69.7 44.0 -70.3 46.65 -70.4 46.85 -71.25 46.75 -71.3 46.7 -71.95 Q46.7 -73.3 47.45 -73.25 L47.2 -73.5 Q46.8 -73.85 46.8 -74.45 46.8 -75.1 47.05 -75.4 M54.3 -66.5 Q54.3 -67.15 54.6 -67.25 L55.2 -67.3 55.55 -67.15 56.0 -66.8 54.8 -66.0 Q54.3 -65.5 54.3 -66.5 M79.0 -52.8 L78.1 -52.8 77.9 -53.4 78.0 -54.0 79.0 -54.0 79.3 -53.7 79.0 -52.8 M78.3 -50.9 Q78.3 -51.55 78.65 -51.75 L79.4 -51.9 79.9 -51.6 80.4 -51.2 80.05 -50.55 Q79.55 -49.95 78.6 -50.0 L78.45 -50.2 Q78.3 -50.3 78.3 -50.9 M25.1 -75.2 L26.5 -74.9 Q26.35 -74.4 26.0 -74.3 25.3 -74.4 25.1 -74.7 L25.1 -75.2 M37.4 -80.9 L37.2 -79.7 36.5 -79.6 Q36.3 -79.9 36.3 -81.1 L37.4 -80.9 M36.6 -77.95 L36.6 -77.9 36.05 -77.25 36.1 -77.6 36.35 -77.8 36.6 -77.95 M10.0 -76.4 L10.8 -76.3 11.1 -75.1 11.1 -74.9 10.45 -74.8 9.65 -74.85 9.6 -75.7 9.7 -76.4 10.0 -76.4 M15.7 -71.0 L15.0 -70.6 Q14.4 -70.9 14.3 -71.2 14.5 -71.75 15.4 -71.6 L15.55 -71.4 15.7 -71.0 M23.7 -72.4 Q23.5 -71.85 23.5 -72.85 23.5 -73.45 23.9 -73.45 L24.9 -73.3 Q24.9 -72.7 24.6 -72.4 L23.7 -72.4 M20.4 -35.5 L21.0 -35.6 21.15 -35.4 21.3 -35.0 21.2 -34.4 Q21.0 -34.1 20.6 -34.1 L20.4 -34.3 20.3 -35.0 20.3 -35.55 Q20.35 -35.45 20.4 -35.5 M21.2 -29.9 Q19.85 -29.9 19.4 -30.3 19.1 -30.55 19.1 -31.2 19.1 -32.7 20.35 -32.35 21.5 -32.0 22.6 -30.5 22.4 -29.9 21.2 -29.9 M23.0 -30.1 L22.8 -31.0 Q23.35 -31.15 23.6 -30.8 L23.5 -30.2 23.0 -30.1 M34.8 -25.0 L35.8 -24.8 36.1 -23.9 35.2 -23.1 34.4 -23.35 Q34.2 -23.5 34.2 -24.2 34.2 -24.8 34.5 -24.95 L34.8 -25.0 M39.85 -28.8 L39.7 -28.8 39.55 -29.1 39.85 -28.8 M40.0 -30.0 L39.55 -29.75 39.6 -30.0 40.0 -30.0 M4.9 -29.45 L5.1 -30.2 5.6 -30.3 6.15 -29.8 6.3 -29.35 6.1 -28.7 5.6 -28.5 5.05 -28.65 Q4.9 -28.8 4.9 -29.45 M3.7 -26.35 Q3.7 -26.95 4.25 -27.2 L4.8 -27.5 5.35 -27.3 5.5 -26.55 Q5.5 -25.55 5.4 -26.1 L5.35 -25.8 4.6 -25.7 3.9 -25.8 3.9 -25.9 Q3.7 -25.35 3.7 -26.35 M67.4 -44.3 L67.6 -44.0 Q67.2 -43.4 66.6 -43.3 66.3 -43.75 66.3 -44.2 L67.4 -44.3 M68.2 -41.2 L68.8 -40.0 Q68.65 -39.75 67.6 -39.4 L66.85 -39.5 Q66.6 -39.6 66.6 -40.25 L66.8 -41.1 67.2 -41.3 68.2 -41.2 M57.8 -44.7 Q57.7 -44.0 56.8 -43.8 56.05 -44.3 55.8 -45.1 56.15 -45.3 57.8 -44.7 M85.5 -51.9 L85.5 -52.5 86.7 -52.2 86.7 -51.7 86.05 -51.6 85.4 -51.75 85.5 -51.9 M-10.5 -33.4 L-9.4 -33.5 -9.0 -32.9 Q-9.3 -32.05 -10.3 -31.9 -10.6 -31.5 -10.6 -32.5 L-10.5 -33.4" fill="#afbfc2" fill-rule="evenodd" stroke="none"/>
    </g>
  </defs>
</svg>
