<?xml version="1.0" encoding="UTF-8" standalone="no"?>
<svg xmlns:ffdec="https://www.free-decompiler.com/flash" xmlns:xlink="http://www.w3.org/1999/xlink" ffdec:objectType="frame" height="100.35px" width="149.7px" xmlns="http://www.w3.org/2000/svg">
  <g transform="matrix(1.0, 0.0, 0.0, 1.0, 54.25, 88.15)">
    <use ffdec:characterId="56" height="64.75" transform="matrix(1.0, 0.0, 0.0, 1.0, -49.2, -75.95)" width="143.3" xlink:href="#shape0"/>
  </g>
  <defs>
    <g id="shape0" transform="matrix(1.0, 0.0, 0.0, 1.0, 49.2, 75.95)">
      <path d="M53.6 -65.0 Q53.75 -64.35 53.45 -63.95 L50.8 -64.0 Q50.8 -61.75 47.7 -59.8 L45.4 -59.8 45.4 -60.0 45.5 -60.7 44.7 -62.15 Q43.8 -63.35 43.7 -64.0 44.0 -64.6 44.9 -64.6 45.4 -64.6 45.25 -64.15 45.05 -63.7 45.55 -63.7 46.65 -63.7 47.2 -64.7 47.6 -65.4 47.6 -66.1 L48.25 -66.85 49.4 -68.2 49.3 -69.1 49.1 -70.3 49.2 -71.3 49.6 -71.7 50.25 -71.7 50.4 -71.0 Q50.4 -70.45 50.65 -70.1 L50.9 -69.5 51.2 -69.8 52.1 -68.95 52.8 -67.7 53.25 -66.4 53.6 -65.0 M49.6 -73.2 L49.5 -72.4 48.5 -72.3 Q48.2 -71.9 48.2 -72.9 48.2 -73.65 49.7 -74.1 L49.6 -73.2 M42.0 -62.7 L42.75 -62.25 43.1 -61.7 42.8 -61.3 42.15 -62.05 41.7 -62.5 42.0 -62.7 M40.75 -60.6 L41.0 -61.5 42.0 -61.6 43.3 -59.8 Q43.3 -59.4 42.75 -58.9 L42.1 -58.2 42.2 -57.9 41.55 -57.8 Q41.0 -57.7 41.0 -57.1 41.0 -55.95 41.7 -55.5 42.6 -54.85 45.8 -54.4 L46.35 -52.7 46.4 -51.1 47.55 -50.9 48.7 -50.6 Q51.25 -51.15 52.4 -52.3 L53.7 -54.0 55.1 -53.8 56.3 -53.9 Q56.0 -54.65 56.0 -55.1 56.1 -55.9 57.8 -55.8 L57.8 -57.25 Q57.8 -58.4 58.6 -58.8 59.4 -58.5 59.45 -57.3 L59.3 -55.95 59.7 -54.5 60.1 -53.1 Q60.1 -52.25 58.6 -51.05 56.7 -49.5 56.1 -48.5 55.0 -46.75 52.4 -44.7 51.4 -44.8 50.2 -45.4 49.8 -45.2 48.5 -44.9 L48.2 -44.0 46.1 -44.0 Q43.45 -44.75 43.0 -46.4 42.4 -48.6 41.9 -49.0 L39.7 -49.6 Q38.6 -50.0 38.6 -51.1 38.85 -52.35 38.7 -52.9 L37.9 -53.4 36.8 -53.3 Q36.2 -53.0 36.15 -52.4 36.1 -51.8 35.4 -51.5 L33.3 -51.5 Q33.0 -51.8 33.0 -52.1 L31.0 -52.0 Q30.8 -51.25 30.15 -50.7 29.4 -50.0 28.3 -49.9 28.35 -49.4 29.1 -48.8 L30.3 -48.0 Q30.9 -47.45 31.25 -47.7 L31.6 -48.0 32.6 -47.9 Q33.35 -47.0 33.1 -45.5 L33.6 -44.9 34.8 -45.2 36.4 -45.4 36.15 -45.6 Q36.0 -45.7 36.0 -46.3 36.0 -46.6 36.35 -46.9 L37.6 -47.1 37.9 -47.15 37.9 -47.4 Q37.9 -47.8 38.3 -48.0 L38.6 -48.1 39.0 -49.5 39.8 -49.5 39.8 -49.1 39.6 -48.2 Q39.6 -47.6 40.0 -47.35 L40.4 -47.0 40.2 -46.85 40.0 -46.15 Q40.0 -45.65 40.4 -45.7 40.8 -45.8 40.8 -45.3 L40.55 -44.25 Q40.2 -43.35 39.6 -43.2 L38.3 -43.5 Q37.8 -42.0 37.95 -41.0 L39.0 -40.7 39.1 -40.1 38.7 -39.5 39.15 -39.0 39.6 -38.2 41.4 -37.9 42.2 -38.5 41.6 -38.85 Q41.2 -39.1 41.2 -39.7 41.2 -40.05 42.0 -41.2 L43.0 -42.7 43.6 -41.4 43.9 -41.35 44.05 -41.9 44.4 -42.1 45.3 -42.0 45.3 -40.2 45.1 -40.0 45.2 -39.6 45.0 -39.3 44.15 -39.35 44.2 -39.15 Q44.75 -36.95 46.0 -35.7 L46.65 -35.75 47.6 -36.0 49.0 -35.9 Q49.65 -35.05 50.15 -32.75 50.55 -30.75 51.7 -29.8 L53.6 -29.8 Q54.25 -30.8 54.8 -31.2 56.4 -31.1 56.4 -30.5 L58.5 -30.2 60.0 -30.3 60.05 -30.65 Q59.9 -31.0 59.9 -31.5 L60.4 -32.4 60.55 -32.6 Q60.0 -34.2 60.35 -34.45 L60.8 -34.5 Q60.8 -35.05 60.4 -35.4 L60.0 -36.0 Q60.35 -36.5 60.8 -36.5 L61.2 -35.7 62.0 -34.65 61.6 -34.7 Q61.6 -34.15 61.75 -34.0 L61.8 -34.0 62.0 -34.15 Q62.2 -34.15 62.2 -33.55 L62.2 -33.45 62.5 -33.35 63.4 -33.1 Q63.7 -32.65 63.7 -31.6 63.7 -31.25 63.15 -30.8 L62.15 -29.75 62.1 -29.6 62.3 -29.9 Q63.1 -30.9 65.15 -29.4 L66.2 -29.5 Q66.4 -29.25 66.0 -28.3 67.35 -28.3 67.55 -27.95 L67.6 -28.0 67.85 -27.85 68.2 -27.5 67.75 -27.15 67.8 -26.7 Q69.15 -27.2 69.4 -27.7 L70.5 -27.7 71.0 -25.9 72.9 -25.7 73.1 -24.8 Q73.95 -25.0 74.5 -26.05 L74.9 -27.25 74.3 -29.35 73.7 -31.3 Q75.9 -33.1 76.25 -33.8 L76.4 -35.9 76.1 -37.0 75.2 -38.4 75.85 -39.05 75.8 -39.6 75.8 -39.7 73.8 -39.7 73.8 -40.45 73.3 -41.7 74.7 -41.65 75.2 -42.2 76.2 -42.1 Q76.6 -41.7 76.6 -41.2 L76.5 -40.6 76.55 -40.5 77.0 -40.5 77.2 -40.3 77.0 -41.15 76.8 -42.2 Q78.35 -41.7 78.65 -41.25 L80.1 -37.2 Q80.35 -36.75 81.35 -36.1 L83.6 -34.6 84.1 -33.35 Q84.5 -32.6 84.5 -32.05 L84.2 -31.05 83.7 -30.4 83.75 -30.25 83.95 -30.45 84.4 -30.6 85.4 -30.5 85.8 -29.75 85.65 -29.15 87.65 -28.7 89.3 -28.1 89.7 -27.05 Q89.9 -26.45 90.2 -26.2 90.7 -27.0 90.7 -29.4 L92.0 -31.0 Q92.3 -31.3 92.3 -32.0 L92.25 -32.65 91.6 -32.4 90.95 -32.5 Q90.7 -32.6 90.7 -33.2 90.7 -33.85 91.55 -34.6 L90.9 -34.8 89.5 -36.0 Q89.5 -37.2 90.8 -38.9 L92.1 -37.0 92.05 -36.45 92.55 -35.55 92.9 -35.3 92.8 -34.95 93.05 -34.45 93.2 -34.5 93.55 -34.4 94.1 -34.1 93.8 -33.2 93.5 -33.1 93.55 -32.7 93.7 -29.3 93.3 -27.1 92.9 -24.95 Q92.9 -24.5 93.5 -23.3 L94.1 -21.8 Q94.1 -21.3 92.65 -19.8 L90.0 -17.2 89.0 -17.3 88.8 -18.1 88.0 -18.0 Q86.6 -18.0 86.25 -20.05 85.6 -23.4 84.3 -25.5 L83.0 -25.7 Q81.45 -26.45 81.55 -27.95 81.65 -29.45 80.7 -29.9 L78.8 -29.8 Q78.4 -29.05 78.4 -28.4 L78.4 -27.7 77.2 -23.95 Q77.2 -23.45 77.6 -22.65 L78.0 -21.4 Q78.0 -19.85 77.05 -18.5 76.1 -17.15 74.6 -16.7 74.45 -16.15 74.55 -15.4 L74.7 -14.0 Q74.7 -13.35 73.3 -12.3 72.0 -11.35 71.2 -11.2 L69.8 -11.4 69.55 -12.05 Q69.15 -12.65 68.2 -12.6 67.7 -13.2 67.65 -14.85 67.65 -16.25 66.5 -17.1 L64.2 -17.4 63.3 -19.35 Q62.8 -20.4 62.95 -21.1 L62.65 -21.4 62.5 -22.3 Q62.05 -23.55 58.2 -23.3 57.9 -24.25 58.3 -25.1 L57.9 -25.4 56.75 -25.05 55.1 -24.3 55.4 -24.1 Q55.6 -24.0 55.6 -23.4 55.6 -22.6 54.85 -22.1 L53.2 -21.3 51.0 -21.4 48.75 -24.3 Q47.05 -26.1 46.8 -26.8 L46.6 -27.35 Q46.6 -28.7 44.4 -30.1 L42.8 -30.1 41.6 -29.45 Q40.9 -29.0 41.6 -28.8 L39.4 -27.3 37.6 -27.5 Q32.95 -28.2 31.85 -29.35 L31.3 -31.2 29.8 -31.4 28.5 -32.8 26.7 -32.4 25.6 -32.1 21.4 -32.2 20.55 -33.5 Q20.1 -33.95 20.1 -34.8 19.85 -35.15 19.0 -35.2 19.4 -34.9 18.4 -34.9 17.35 -34.9 16.7 -35.9 L16.75 -35.95 Q15.5 -36.1 15.5 -36.3 L13.9 -36.2 12.6 -34.55 Q11.45 -33.2 10.4 -33.2 L6.2 -33.3 5.45 -33.6 Q5.0 -33.75 4.8 -34.4 L3.2 -34.2 3.15 -33.65 Q3.05 -33.3 2.4 -33.3 L2.2 -33.3 2.6 -32.7 1.6 -31.9 Q1.0 -32.15 0.8 -32.7 1.3 -33.3 2.2 -33.3 L1.45 -33.4 -1.0 -33.7 Q-2.4 -34.8 -2.4 -35.5 L-1.9 -37.05 -0.8 -38.2 -1.2 -38.7 -5.2 -38.6 -6.35 -37.6 -7.2 -36.8 -8.4 -37.1 Q-10.9 -37.1 -11.65 -36.5 -12.6 -35.75 -15.2 -35.5 L-16.4 -36.9 -17.5 -37.2 Q-18.55 -37.75 -18.8 -38.55 L-18.9 -39.75 Q-18.9 -40.6 -18.4 -41.4 -18.0 -42.2 -17.35 -42.3 L-19.5 -42.4 Q-19.85 -42.9 -19.9 -43.75 L-20.1 -45.0 -22.7 -45.6 Q-23.7 -47.1 -23.7 -48.3 -23.7 -50.2 -22.4 -50.3 L-23.5 -51.1 -24.8 -51.9 -25.55 -52.0 -25.6 -51.35 Q-25.6 -51.0 -26.1 -50.65 -26.75 -50.15 -28.0 -50.2 -28.3 -49.6 -28.1 -47.8 L-28.4 -47.6 Q-29.05 -47.9 -29.4 -48.75 L-30.2 -50.1 -30.6 -50.1 -30.8 -49.75 -30.9 -48.9 Q-30.9 -48.3 -30.5 -48.2 L-30.0 -48.0 -30.2 -47.7 -32.4 -47.1 -32.0 -46.6 Q-31.7 -46.2 -31.7 -45.6 L-31.8 -44.75 -31.9 -44.7 Q-32.0 -44.1 -32.25 -43.75 -32.8 -43.0 -34.6 -42.4 L-36.3 -42.4 -38.2 -42.9 -38.4 -43.8 -39.3 -43.1 Q-39.55 -42.8 -40.6 -42.6 L-40.35 -42.5 -40.3 -41.85 Q-40.3 -41.55 -41.25 -40.8 -42.2 -40.1 -42.8 -39.9 L-44.3 -40.0 -44.45 -40.7 -44.4 -41.2 -44.5 -41.5 Q-44.95 -41.45 -45.4 -41.05 L-46.4 -40.3 -47.5 -40.4 Q-48.9 -41.5 -48.9 -42.2 L-48.65 -43.75 -48.3 -45.2 -47.3 -45.5 Q-47.3 -46.4 -46.8 -46.9 -46.1 -46.35 -46.0 -45.7 -45.05 -45.95 -44.25 -47.45 L-43.0 -49.6 -44.3 -50.7 Q-45.4 -50.7 -47.2 -49.9 L-48.8 -50.4 -48.6 -51.8 -48.4 -53.25 Q-48.4 -53.75 -48.8 -53.9 -49.2 -54.1 -49.2 -54.6 -49.2 -55.75 -47.2 -57.2 -44.65 -59.0 -44.6 -59.1 L-44.2 -56.4 -43.8 -56.15 -42.9 -55.9 Q-42.4 -55.9 -40.75 -56.8 L-38.8 -57.7 Q-37.8 -57.7 -36.8 -58.75 L-35.7 -60.1 -35.7 -60.25 -35.8 -61.05 -36.4 -61.3 -38.3 -61.6 Q-39.05 -62.0 -39.25 -62.5 L-39.3 -63.4 -39.2 -65.2 -39.0 -65.25 -38.6 -65.5 -37.6 -65.6 Q-36.75 -65.0 -36.4 -64.4 L-36.1 -64.5 -36.1 -65.7 -36.75 -65.85 -37.2 -66.3 -38.4 -66.2 -39.0 -65.3 -40.95 -65.6 -43.4 -66.1 Q-44.45 -66.3 -44.55 -67.4 L-44.4 -69.2 Q-44.4 -70.3 -44.95 -70.75 -45.5 -71.2 -45.5 -72.1 -45.5 -73.45 -44.8 -74.1 L-42.7 -75.4 -42.9 -74.5 -42.7 -74.75 Q-41.95 -75.75 -41.4 -75.9 L-41.3 -75.95 -41.2 -75.3 Q-41.2 -74.65 -41.55 -74.3 L-42.7 -73.0 -42.8 -72.5 -41.4 -72.3 Q-41.1 -71.4 -41.3 -70.2 L-41.3 -70.0 -41.2 -69.7 -40.0 -69.8 Q-39.6 -70.4 -39.4 -71.9 L-37.45 -71.65 Q-37.45 -71.5 -37.6 -71.3 L-36.0 -71.4 Q-35.6 -71.7 -34.4 -74.4 -33.55 -73.8 -33.5 -72.85 -33.4 -71.9 -34.0 -71.0 L-32.6 -70.7 Q-32.35 -70.3 -32.6 -69.5 L-32.0 -68.9 Q-30.2 -69.0 -29.55 -69.85 L-28.8 -71.1 -27.6 -71.1 -26.8 -72.75 Q-26.4 -73.65 -25.2 -73.9 L-25.1 -73.55 -25.2 -72.7 Q-25.2 -72.0 -24.6 -71.45 -23.95 -70.9 -23.4 -71.1 L-23.2 -70.85 -23.2 -70.05 Q-23.2 -69.4 -23.5 -68.9 L-24.1 -68.1 -23.9 -67.8 Q-21.6 -67.45 -21.6 -66.9 L-19.6 -66.9 -18.75 -67.75 -18.4 -68.4 -17.85 -68.3 -17.2 -68.1 -16.7 -69.05 -16.0 -69.7 Q-15.5 -69.35 -15.0 -68.1 L-13.5 -68.0 -13.3 -66.7 -13.1 -65.3 Q-13.7 -62.4 -15.2 -62.4 -15.8 -62.4 -15.85 -62.8 -15.8 -63.3 -15.9 -63.4 L-16.6 -62.8 Q-17.05 -62.45 -17.5 -62.4 -17.65 -62.1 -17.65 -62.5 L-17.9 -62.3 -18.0 -62.0 -17.9 -61.7 -16.2 -61.5 Q-16.0 -60.3 -16.4 -57.9 L-16.2 -57.0 -15.6 -56.5 -11.6 -55.9 -11.6 -56.45 -10.1 -58.1 -10.8 -59.9 -10.7 -60.05 -10.2 -60.3 Q-7.65 -57.25 -9.3 -55.2 L-8.9 -54.9 -7.3 -55.0 -7.0 -55.9 -4.8 -56.2 -4.4 -57.55 -4.0 -58.8 -3.2 -58.7 -3.4 -58.35 -3.6 -57.5 -3.0 -56.45 -2.4 -55.4 -2.5 -54.3 Q-2.85 -53.35 -4.1 -53.9 L-4.5 -53.4 Q-4.9 -53.0 -4.9 -52.4 -4.9 -52.15 -4.1 -51.45 -3.35 -50.75 -3.3 -50.2 L-3.5 -49.05 -3.7 -47.5 -3.8 -47.35 Q-3.8 -47.2 -3.2 -47.2 -2.35 -47.2 -1.95 -48.0 L-1.6 -49.1 -0.4 -50.8 0.25 -49.55 0.4 -48.7 0.8 -48.8 1.8 -48.7 2.5 -46.9 Q3.6 -46.65 3.6 -46.1 L4.05 -46.35 4.0 -46.4 Q4.9 -48.15 4.75 -48.4 4.4 -48.35 4.4 -48.5 4.4 -50.05 6.5 -50.9 L6.75 -51.75 7.3 -52.2 7.6 -51.15 Q7.75 -50.45 8.0 -50.1 L9.8 -50.0 10.05 -49.3 9.9 -48.8 10.45 -48.95 11.55 -49.3 12.8 -48.55 12.9 -48.6 12.9 -48.5 13.4 -48.1 13.3 -47.7 12.55 -47.5 12.5 -47.4 14.0 -47.85 15.3 -48.0 16.15 -50.3 16.9 -52.4 17.3 -52.5 17.7 -51.8 17.8 -51.25 18.4 -51.4 19.6 -51.6 Q20.25 -51.6 20.35 -51.2 L20.4 -50.6 21.4 -50.7 21.15 -50.95 21.1 -51.75 21.15 -52.2 Q19.7 -53.0 18.9 -53.2 18.55 -53.55 18.4 -54.2 L18.3 -55.0 16.3 -55.4 Q15.8 -55.35 15.25 -54.85 14.65 -54.4 14.15 -54.4 13.0 -54.4 11.85 -55.2 10.35 -56.2 9.7 -56.4 9.55 -56.6 9.55 -57.1 9.5 -57.6 9.6 -57.6 L9.5 -57.9 7.9 -57.8 6.5 -56.4 5.2 -55.1 1.7 -55.2 Q-1.3 -56.45 -1.3 -60.0 -1.3 -60.75 -2.05 -62.25 -2.8 -63.75 -2.8 -64.5 -2.8 -66.05 -1.3 -67.55 L-0.35 -68.35 0.6 -68.1 1.8 -68.75 Q2.75 -69.45 3.1 -70.1 L3.1 -70.25 3.2 -70.4 4.35 -70.3 5.6 -70.0 5.4 -69.7 Q1.75 -68.25 1.6 -66.5 1.55 -65.65 1.15 -64.75 0.8 -63.95 0.8 -63.2 L0.8 -62.9 0.9 -62.7 1.4 -62.4 2.4 -62.8 3.2 -63.3 4.2 -63.2 Q4.85 -62.55 5.0 -60.5 L6.1 -60.3 8.0 -60.7 Q8.4 -61.0 8.6 -61.9 9.95 -62.2 11.2 -63.3 L13.2 -65.2 13.4 -65.25 Q13.6 -65.2 13.6 -64.6 13.6 -64.05 13.2 -63.4 L12.7 -62.5 13.8 -62.3 Q13.95 -62.15 14.2 -62.1 L14.4 -61.4 Q14.4 -60.8 14.15 -60.7 L14.05 -60.65 14.0 -60.6 Q15.65 -60.15 16.15 -59.6 L16.3 -59.65 Q16.75 -59.8 17.2 -60.1 L18.6 -60.0 19.05 -59.7 20.75 -59.85 Q22.0 -60.1 22.8 -60.9 L23.55 -61.95 24.4 -63.1 Q25.1 -62.95 25.1 -62.1 L25.7 -63.0 26.6 -64.2 27.3 -64.2 27.25 -63.7 27.0 -62.7 Q27.0 -62.3 27.9 -60.9 29.0 -59.2 30.0 -59.2 32.15 -59.2 32.85 -61.8 L33.1 -64.65 Q33.1 -66.35 34.0 -66.3 L35.3 -65.9 Q37.15 -65.9 37.1 -67.3 L36.7 -68.85 Q36.7 -69.45 36.95 -69.4 L37.2 -69.3 Q38.4 -68.35 38.4 -67.1 L38.8 -66.15 39.2 -64.9 38.65 -64.0 Q38.1 -63.4 38.1 -63.1 L38.55 -62.1 39.3 -61.0 40.6 -60.8 40.75 -60.6 M56.9 -59.2 L56.7 -60.3 57.7 -60.1 57.4 -59.2 56.9 -59.2 M53.9 -54.7 L54.9 -54.5 54.4 -54.0 Q53.9 -54.2 53.9 -54.7 M37.4 -75.35 Q36.95 -75.35 36.8 -75.6 36.95 -76.1 38.0 -75.6 37.85 -75.35 37.4 -75.35 M37.15 -75.2 Q37.7 -75.4 38.0 -75.2 L37.2 -74.4 Q36.6 -74.5 36.4 -74.8 L37.15 -75.2 M9.6 -74.4 Q9.2 -73.8 8.6 -73.7 L8.4 -74.0 8.9 -74.4 Q9.3 -74.6 9.6 -74.4 M14.0 -66.0 Q13.2 -66.15 13.2 -67.0 L14.1 -66.8 14.2 -66.95 14.3 -66.35 Q14.3 -65.35 14.0 -66.0 M6.2 -72.8 L6.9 -71.6 6.4 -71.1 5.7 -71.2 Q5.5 -71.3 5.5 -71.95 L5.6 -72.8 6.2 -72.8 M2.0 -65.3 Q2.8 -65.05 2.8 -64.2 L2.7 -63.7 1.7 -63.6 1.55 -63.7 1.5 -64.35 Q1.5 -64.95 1.75 -65.15 L2.0 -65.3 M38.9 -72.9 L38.6 -72.0 37.7 -72.0 37.5 -72.6 37.6 -73.2 38.6 -73.2 38.9 -72.9 M37.8 -71.45 L37.9 -70.85 36.8 -69.5 Q36.1 -69.6 35.9 -69.9 37.0 -71.3 37.7 -71.3 L37.8 -71.45 M25.2 -66.4 L26.2 -66.4 26.4 -66.15 26.6 -65.5 26.0 -65.1 Q25.1 -65.25 25.1 -65.8 L25.2 -66.4 M25.0 -67.6 L25.3 -67.3 25.0 -66.4 24.8 -66.3 Q23.9 -66.6 23.9 -67.6 L25.0 -67.6 M80.95 -49.05 L81.7 -49.3 81.8 -48.7 Q81.6 -48.4 80.9 -48.3 L80.6 -48.6 Q80.6 -48.85 80.95 -49.05 M71.4 -44.3 Q71.8 -44.0 70.8 -44.0 L70.1 -44.1 70.0 -44.4 Q70.1 -44.65 70.8 -44.8 L71.05 -44.65 71.4 -44.3 M72.6 -42.4 L72.1 -42.4 Q71.9 -42.7 71.9 -43.5 L72.9 -43.3 Q72.9 -42.7 72.6 -42.4 M69.9 -35.5 L70.9 -35.3 70.4 -34.8 Q69.9 -35.0 69.9 -35.5 M68.8 -28.8 L67.9 -28.9 67.8 -29.0 67.7 -29.65 Q67.7 -30.25 68.05 -30.45 L68.4 -30.6 69.2 -30.25 68.9 -30.9 70.9 -30.6 71.1 -30.15 71.0 -29.4 70.4 -28.9 69.8 -29.55 68.8 -28.8 M70.9 -32.0 L70.7 -32.8 Q71.35 -32.8 72.0 -32.4 71.8 -32.1 70.9 -32.0 M72.0 -27.9 L71.3 -28.0 Q71.1 -27.6 71.1 -28.6 71.1 -29.25 71.45 -29.45 L72.2 -29.6 Q72.5 -29.3 72.5 -28.4 L72.0 -27.9 M60.6 -39.1 L60.8 -37.9 60.4 -37.4 60.1 -37.55 60.0 -38.35 60.0 -39.0 60.1 -39.1 60.6 -39.1 M43.7 -44.1 L43.5 -43.2 43.2 -43.0 Q42.4 -43.4 42.4 -44.3 L43.7 -44.1 M88.2 -51.1 L88.4 -50.5 88.3 -49.9 88.0 -49.7 87.65 -49.7 87.6 -50.35 87.6 -51.0 87.7 -51.1 88.2 -51.1 M91.9 -37.95 L92.1 -38.7 Q92.7 -38.7 92.9 -38.1 L92.4 -37.6 Q91.9 -37.8 91.9 -37.95 M88.6 -47.7 L89.4 -47.5 89.6 -46.9 88.8 -46.1 87.7 -47.5 88.6 -47.7 M87.85 -44.75 L88.4 -44.9 91.0 -43.9 Q90.8 -43.3 90.2 -42.7 L89.7 -42.7 90.5 -42.5 90.2 -41.6 89.7 -41.6 Q89.5 -41.9 89.5 -42.7 L88.5 -42.7 87.85 -43.05 Q87.5 -43.3 87.5 -43.9 87.5 -44.55 87.85 -44.75 M83.0 -44.4 L83.25 -44.2 83.3 -43.5 83.2 -42.65 82.9 -42.3 82.3 -42.3 82.3 -44.1 82.4 -44.4 83.0 -44.4 M84.9 -40.7 L84.6 -40.4 83.3 -40.4 Q83.1 -40.7 83.1 -41.9 83.85 -42.05 84.9 -41.3 L84.9 -40.7 M85.1 -38.3 L86.1 -38.1 Q86.1 -37.5 85.8 -37.2 L85.3 -37.2 Q85.1 -37.5 85.1 -38.3 M87.45 -34.1 Q87.8 -33.7 87.8 -33.1 L86.2 -31.6 86.75 -31.4 87.4 -31.1 87.2 -31.0 87.75 -30.85 88.5 -30.5 88.3 -30.05 Q88.05 -29.8 87.4 -29.8 L86.55 -29.9 86.2 -30.2 Q86.2 -30.4 86.55 -30.65 L87.2 -31.0 85.8 -31.1 Q85.65 -31.45 85.9 -32.15 L86.25 -32.8 86.0 -32.7 85.3 -32.65 Q85.1 -32.65 85.1 -33.25 L85.2 -33.6 85.05 -33.75 Q84.9 -33.95 84.9 -34.6 84.9 -36.15 85.6 -36.5 86.4 -35.45 86.0 -34.8 L86.9 -34.6 87.45 -34.1 M86.4 -32.95 L86.9 -33.2 86.55 -33.25 86.4 -32.95 M91.5 -36.2 L91.3 -36.1 91.55 -36.0 91.5 -36.2 M-36.1 -65.9 L-36.1 -66.3 -36.15 -66.3 -36.1 -65.9 M-38.2 -41.2 Q-37.35 -40.35 -37.1 -39.7 L-37.6 -38.9 Q-37.95 -39.0 -38.2 -39.7 -38.45 -40.3 -39.9 -40.4 L-40.1 -41.5 -38.2 -41.2 M-38.3 -39.3 Q-38.45 -38.8 -38.8 -38.7 -39.5 -38.8 -39.7 -39.1 L-39.35 -39.6 -38.6 -39.9 -38.3 -39.3" fill="#afbfc2" fill-rule="evenodd" stroke="none"/>
    </g>
  </defs>
</svg>
