<?xml version="1.0" encoding="UTF-8" standalone="no"?>
<svg xmlns:ffdec="https://www.free-decompiler.com/flash" xmlns:xlink="http://www.w3.org/1999/xlink" ffdec:objectType="frame" height="100.35px" width="149.7px" xmlns="http://www.w3.org/2000/svg">
  <g transform="matrix(1.0, 0.0, 0.0, 1.0, 54.25, 88.15)">
    <use ffdec:characterId="57" height="67.1" transform="matrix(1.0, 0.0, 0.0, 1.0, -50.7, -72.8)" width="146.15" xlink:href="#shape0"/>
  </g>
  <defs>
    <g id="shape0" transform="matrix(1.0, 0.0, 0.0, 1.0, 50.7, 72.8)">
      <path d="M51.4 -72.1 Q51.2 -71.55 50.4 -71.4 49.7 -71.6 49.5 -71.9 49.65 -72.3 50.15 -72.45 L51.2 -72.4 51.4 -72.1 M52.4 -66.9 L52.0 -66.4 51.4 -66.5 51.2 -67.4 52.2 -67.5 52.4 -66.9 M51.1 -65.55 L51.3 -66.3 Q51.85 -66.3 52.1 -65.75 52.55 -66.6 53.0 -66.7 53.9 -64.0 53.9 -62.95 53.9 -62.4 53.1 -61.9 L52.3 -61.2 Q52.3 -60.35 52.0 -60.45 L51.0 -61.2 49.8 -59.85 49.8 -59.55 Q49.8 -58.95 49.6 -58.9 L49.2 -58.9 Q49.0 -58.5 48.0 -58.5 L46.2 -58.6 45.6 -59.85 44.8 -61.2 44.8 -62.0 Q46.5 -62.0 47.1 -61.5 47.8 -62.65 49.3 -62.4 50.7 -62.2 51.2 -63.5 L51.9 -65.4 51.6 -65.2 51.1 -65.55 M49.6 -69.2 Q49.75 -69.7 50.8 -69.2 50.65 -68.95 50.2 -68.95 49.75 -68.95 49.6 -69.2 M45.5 -62.5 L44.85 -62.4 Q44.25 -62.4 44.2 -62.55 L44.3 -62.7 44.3 -63.3 45.5 -63.0 45.5 -62.5 M41.8 -59.1 Q41.75 -58.45 42.05 -57.15 L42.4 -55.35 Q42.4 -54.55 42.1 -54.25 41.55 -53.75 39.9 -53.8 L38.9 -53.1 39.15 -52.45 Q39.65 -51.85 41.0 -51.9 L42.0 -50.5 43.3 -51.2 44.6 -51.9 45.15 -49.9 45.4 -47.7 45.55 -47.2 Q45.75 -46.9 46.4 -46.9 47.0 -46.9 47.45 -47.25 L48.0 -47.6 49.85 -47.45 51.2 -47.4 51.2 -49.2 51.3 -49.35 51.95 -49.5 Q52.6 -49.5 52.55 -49.15 L52.3 -48.6 53.3 -49.1 53.4 -49.5 55.8 -49.4 Q56.3 -49.4 56.65 -50.5 L57.1 -52.0 57.9 -53.1 Q58.4 -53.75 58.4 -54.5 L58.8 -54.8 Q59.6 -54.1 59.6 -52.4 59.6 -50.85 58.9 -50.45 57.6 -49.7 56.8 -48.5 L56.2 -46.65 Q55.6 -45.15 54.4 -44.4 L53.2 -44.25 52.0 -44.0 51.05 -44.2 49.8 -44.5 49.3 -45.9 47.6 -44.5 45.6 -43.1 43.3 -43.2 Q42.4 -43.55 41.8 -45.2 41.3 -46.65 40.0 -46.7 38.4 -46.9 38.25 -47.85 L38.4 -49.8 36.0 -49.8 34.4 -48.4 Q33.9 -48.45 33.4 -48.95 32.85 -49.4 32.35 -49.4 31.0 -49.4 30.95 -48.8 30.85 -47.9 30.4 -47.6 L29.7 -47.5 29.1 -47.1 29.55 -46.65 29.9 -46.1 29.9 -44.4 30.85 -45.2 32.2 -45.9 32.3 -45.15 32.2 -44.1 32.9 -43.95 Q33.7 -43.7 34.0 -42.7 L33.8 -41.95 33.6 -40.9 33.7 -39.85 33.95 -39.5 34.3 -39.5 Q34.65 -39.5 35.7 -40.25 L36.5 -40.75 36.6 -40.9 Q37.45 -40.9 38.1 -41.8 38.7 -42.6 38.7 -43.45 L38.55 -44.7 39.4 -44.7 39.8 -43.5 39.6 -43.5 Q38.5 -42.7 38.5 -41.8 L38.5 -40.9 Q38.65 -40.45 39.1 -40.25 L38.0 -39.1 Q38.4 -38.45 39.05 -38.1 L40.0 -37.3 Q40.25 -37.0 40.15 -36.4 L40.0 -35.2 40.0 -34.9 41.2 -35.0 Q41.45 -36.9 41.85 -37.35 L43.0 -37.9 43.45 -36.1 43.7 -34.45 Q43.7 -33.85 43.35 -33.5 L42.9 -33.1 Q43.15 -32.8 43.7 -32.75 L44.95 -32.8 46.15 -32.6 46.4 -32.5 47.8 -33.9 47.8 -32.9 47.6 -31.65 48.05 -29.65 48.6 -27.3 Q48.7 -26.35 50.0 -25.4 51.4 -24.35 53.6 -23.8 54.15 -24.2 54.55 -25.6 54.85 -26.75 56.2 -27.1 56.4 -26.8 56.4 -25.6 56.4 -24.7 55.6 -22.9 55.45 -22.65 55.65 -21.95 L55.9 -20.65 55.5 -18.65 55.0 -16.3 54.4 -15.8 Q53.45 -16.15 53.1 -17.45 L52.7 -19.3 52.0 -18.2 51.0 -18.3 51.3 -18.9 Q49.55 -19.6 48.75 -21.55 48.25 -22.7 48.2 -24.0 L47.0 -24.1 46.65 -24.9 Q46.4 -25.45 46.4 -26.05 L46.45 -26.2 46.2 -26.6 Q45.5 -28.5 44.8 -28.5 43.6 -28.5 42.8 -27.7 L42.35 -27.8 41.5 -27.0 Q41.35 -26.7 41.35 -25.95 L41.2 -24.9 Q39.75 -24.05 39.0 -23.7 L38.05 -23.0 36.8 -22.0 32.2 -22.9 30.5 -25.1 Q29.75 -26.3 29.8 -27.3 L28.6 -27.4 27.6 -28.9 Q25.7 -28.85 24.75 -27.9 L23.2 -26.5 21.0 -26.6 Q18.3 -30.6 17.9 -31.5 L16.65 -31.95 15.6 -32.3 13.2 -32.2 12.25 -31.55 Q11.6 -31.05 11.6 -30.55 L11.55 -29.9 11.3 -29.8 9.8 -29.5 9.2 -28.9 6.7 -29.0 4.1 -29.3 4.1 -29.6 1.1 -29.5 -1.6 -27.2 -3.8 -27.4 -4.9 -28.15 -5.4 -29.0 -5.3 -29.65 -5.9 -31.5 -6.3 -32.2 Q-6.3 -32.95 -5.25 -34.95 L-3.5 -37.8 Q-5.55 -37.2 -5.9 -35.85 -6.2 -34.75 -8.0 -35.0 -8.3 -34.35 -8.3 -35.35 L-8.2 -35.8 -10.35 -35.65 -12.2 -34.95 -12.4 -33.9 -13.0 -33.6 -16.4 -33.5 -19.5 -34.0 -19.7 -34.6 -20.7 -34.8 Q-21.9 -36.25 -22.0 -38.4 L-22.2 -42.0 -22.5 -42.3 -25.0 -42.5 Q-25.3 -43.1 -25.25 -44.15 L-25.2 -45.5 Q-26.1 -47.6 -26.1 -48.4 L-27.7 -48.2 Q-28.55 -46.8 -29.2 -46.8 -30.95 -47.4 -31.2 -48.7 L-32.2 -47.15 -32.8 -45.75 Q-32.8 -45.2 -32.4 -44.85 L-32.0 -44.3 -31.65 -44.7 -31.2 -45.2 -30.45 -44.25 -30.0 -43.45 Q-30.0 -42.85 -31.25 -41.5 L-32.8 -40.0 -36.6 -40.1 -37.8 -41.55 -38.0 -42.3 -39.3 -42.2 -40.5 -40.85 -41.0 -39.7 -42.75 -39.2 -44.2 -38.1 -46.0 -38.0 -47.0 -38.2 -47.1 -39.4 -47.35 -39.45 -47.6 -39.3 -48.6 -39.4 -49.9 -40.85 -49.65 -41.95 -49.2 -42.7 -48.3 -42.9 -47.8 -43.8 -47.5 -43.8 Q-47.1 -43.2 -47.6 -42.4 -46.55 -43.0 -45.35 -44.4 -44.0 -45.95 -44.0 -46.9 L-44.1 -47.8 -44.9 -48.75 -44.8 -49.0 Q-46.95 -48.65 -47.6 -48.0 L-49.8 -48.1 Q-50.7 -49.45 -50.7 -50.8 L-50.55 -51.8 Q-50.1 -52.7 -48.4 -53.0 L-48.3 -53.6 -48.4 -54.2 -48.05 -54.25 -47.25 -54.2 Q-46.6 -54.2 -45.8 -56.6 L-45.25 -56.55 Q-44.65 -56.5 -44.6 -56.3 L-45.7 -54.95 -45.5 -54.8 Q-45.3 -54.5 -45.3 -53.1 L-45.3 -52.8 -43.5 -52.9 Q-43.3 -52.9 -42.95 -53.45 L-42.0 -54.4 -40.45 -54.95 Q-40.1 -55.1 -39.6 -55.8 -38.0 -58.15 -38.0 -59.0 -38.0 -59.95 -38.4 -60.2 L-40.0 -60.4 -41.6 -60.65 -43.8 -61.0 -43.95 -62.85 Q-43.9 -63.5 -44.4 -64.15 L-44.8 -63.7 -45.8 -63.8 Q-47.1 -64.25 -47.1 -66.65 L-46.7 -68.25 -46.35 -69.15 -46.4 -69.65 -45.75 -70.65 -44.6 -71.1 -44.5 -71.25 -44.4 -70.65 Q-44.4 -70.1 -44.8 -69.4 L-45.2 -68.5 -44.2 -68.3 Q-42.65 -65.85 -42.0 -65.4 -41.55 -65.55 -40.8 -66.65 L-39.6 -68.4 Q-38.85 -68.35 -38.65 -68.0 -38.45 -67.7 -38.0 -67.7 -37.25 -67.7 -36.25 -68.45 -35.2 -69.2 -34.4 -69.2 L-35.2 -67.8 -35.2 -67.7 -32.6 -67.1 Q-31.9 -66.25 -32.1 -65.0 L-32.1 -64.8 -32.0 -64.5 -30.4 -64.6 -28.3 -67.65 -26.4 -70.0 -26.1 -69.1 -25.9 -69.2 Q-25.5 -69.4 -25.2 -69.2 -25.2 -68.65 -25.6 -68.4 L-26.0 -68.5 -25.9 -67.1 -26.1 -64.9 -24.4 -63.2 Q-23.8 -63.2 -23.5 -63.5 L-23.2 -63.9 Q-21.0 -62.85 -20.45 -63.45 L-18.8 -65.3 -16.8 -66.0 Q-16.8 -66.9 -16.4 -67.2 L-15.9 -66.4 -16.0 -65.9 Q-15.85 -65.5 -14.8 -65.5 -14.3 -65.5 -14.0 -64.95 L-13.9 -66.2 -13.5 -66.2 Q-13.2 -65.75 -13.2 -64.85 L-13.3 -63.8 -13.65 -63.7 -13.6 -63.25 Q-13.6 -62.5 -13.85 -62.4 L-15.3 -61.8 -16.1 -60.85 -16.8 -60.0 Q-17.45 -60.05 -17.8 -60.35 L-18.1 -60.7 -19.5 -59.6 -19.6 -59.3 -18.6 -59.1 -18.15 -58.75 Q-18.0 -58.55 -18.0 -57.9 -18.0 -57.4 -19.2 -55.05 -19.2 -54.45 -17.4 -53.5 -15.0 -52.3 -14.0 -51.3 L-12.9 -51.4 Q-13.1 -51.45 -13.1 -52.45 L-12.2 -53.4 Q-11.25 -54.2 -11.1 -54.7 -11.1 -56.2 -10.8 -56.7 -9.25 -54.7 -9.3 -53.65 -9.35 -53.05 -9.7 -52.1 L-9.7 -51.55 -9.6 -51.6 -9.4 -51.2 Q-9.25 -51.0 -8.65 -51.0 L-7.35 -51.4 -6.4 -51.6 -6.25 -51.85 -6.4 -52.7 Q-6.4 -53.25 -5.4 -53.8 -4.3 -54.45 -4.2 -54.7 L-4.2 -53.45 -4.4 -52.1 Q-4.4 -51.6 -4.0 -51.55 -3.6 -51.5 -3.6 -51.0 L-3.6 -50.3 -3.8 -50.1 -4.9 -49.8 -5.15 -49.7 -5.2 -49.05 -4.8 -47.05 -4.4 -44.7 -4.3 -44.5 -2.8 -44.6 -1.9 -45.7 -0.8 -46.8 0.0 -46.7 0.2 -45.3 Q0.2 -44.7 -0.4 -43.7 L-0.05 -43.45 0.25 -44.1 1.0 -44.8 1.7 -43.6 1.05 -43.05 0.75 -42.85 1.9 -41.6 2.0 -41.6 3.0 -42.7 3.65 -42.65 4.5 -42.5 5.6 -42.6 5.8 -44.1 Q5.8 -44.6 5.3 -44.9 4.8 -45.2 4.8 -45.7 L4.9 -46.7 Q5.15 -47.6 6.2 -47.9 L6.85 -47.05 6.8 -47.4 7.2 -47.6 Q8.15 -47.6 8.4 -47.2 8.4 -46.65 8.0 -46.4 L7.65 -46.45 8.95 -45.65 Q10.65 -44.65 9.2 -43.4 L9.2 -43.3 10.2 -43.1 Q11.4 -43.7 11.8 -44.3 13.0 -44.3 13.6 -43.7 L14.8 -43.8 16.5 -48.3 16.0 -48.1 15.65 -48.1 15.6 -48.75 15.6 -49.4 15.7 -49.5 16.6 -49.5 16.7 -49.65 16.8 -49.05 16.75 -48.4 16.5 -48.3 17.0 -48.3 17.35 -47.25 17.5 -46.2 18.6 -45.9 19.0 -44.55 19.2 -43.3 20.4 -43.4 Q19.8 -43.4 20.05 -44.25 L20.4 -45.8 21.55 -47.0 21.7 -47.3 21.6 -48.05 Q21.6 -48.65 21.95 -49.0 L22.4 -49.4 22.4 -49.9 20.2 -50.1 Q18.35 -51.95 18.5 -52.5 L19.0 -53.1 18.9 -54.05 18.8 -54.3 18.4 -54.6 17.1 -54.6 15.2 -53.35 14.0 -52.0 12.15 -52.2 10.6 -52.5 Q9.75 -52.9 9.5 -53.85 9.25 -54.75 9.6 -55.5 9.25 -55.35 8.55 -55.5 7.85 -55.65 7.6 -55.9 L6.3 -55.8 Q6.1 -55.65 6.2 -55.45 L6.4 -54.6 Q6.4 -54.1 5.25 -53.25 L3.6 -52.0 1.8 -52.1 1.5 -53.3 1.6 -53.9 0.2 -54.1 0.0 -54.7 -1.4 -54.9 -2.25 -55.85 -2.8 -57.3 -2.8 -59.55 Q-2.8 -60.15 -3.4 -61.05 -4.0 -61.95 -4.0 -62.4 -4.0 -63.05 -3.1 -63.55 L-1.6 -64.6 -1.25 -66.1 Q-0.95 -66.8 -0.45 -67.0 L0.05 -67.55 Q0.9 -68.2 1.8 -67.9 L0.85 -67.0 0.6 -66.7 0.6 -66.55 0.3 -66.3 0.2 -66.1 0.65 -65.95 1.2 -65.6 -0.1 -64.1 -1.2 -62.45 Q-1.2 -61.4 -0.6 -60.55 L0.4 -59.0 1.4 -59.4 3.0 -60.0 Q3.65 -59.55 4.1 -57.9 L6.0 -58.9 7.05 -58.55 7.3 -58.2 8.4 -58.3 9.3 -59.6 Q9.9 -60.5 10.8 -60.9 L11.5 -60.9 Q11.7 -60.85 11.7 -60.2 11.7 -59.6 11.4 -59.35 L10.9 -59.0 Q12.5 -58.2 12.5 -57.4 L17.0 -58.4 Q17.6 -58.4 17.55 -58.05 L17.3 -57.5 19.75 -56.95 22.2 -56.3 22.35 -56.1 22.4 -56.1 24.65 -57.25 Q25.85 -58.15 25.2 -59.3 L25.6 -59.6 27.2 -57.4 28.8 -55.3 Q31.1 -55.75 31.7 -56.6 31.95 -56.95 32.2 -58.7 L33.4 -58.7 34.5 -59.75 Q35.3 -60.3 35.3 -61.1 35.3 -61.6 34.9 -61.4 34.5 -61.2 34.5 -61.7 34.5 -62.3 35.2 -63.15 36.05 -64.2 37.2 -64.0 L36.4 -62.5 37.2 -61.6 Q36.7 -60.05 36.0 -59.0 L37.0 -58.7 37.75 -57.35 Q38.1 -56.6 38.9 -56.6 40.25 -56.6 40.65 -57.5 41.3 -58.8 41.8 -59.1 M12.8 -62.0 Q12.8 -61.45 12.4 -61.2 11.8 -61.3 11.6 -61.6 L12.1 -62.0 Q12.5 -62.2 12.8 -62.0 M4.8 -70.0 L4.0 -69.2 3.5 -69.4 3.6 -70.4 4.6 -70.3 4.8 -70.0 M5.6 -49.6 Q6.15 -49.6 6.8 -49.2 L6.4 -48.1 5.8 -48.1 5.6 -48.35 5.5 -49.15 5.55 -49.75 5.6 -49.6 M37.2 -71.0 Q36.3 -71.25 36.3 -72.1 L37.8 -71.9 38.0 -71.6 37.2 -71.0 M37.8 -64.2 L37.3 -64.8 Q37.7 -65.4 38.1 -65.4 L38.6 -64.6 Q38.5 -64.3 37.8 -64.2 M26.8 -62.2 Q26.0 -62.35 26.0 -63.2 L27.1 -63.0 26.8 -62.2 M26.4 -61.2 Q26.4 -60.65 26.0 -60.4 25.4 -60.5 25.2 -60.8 L25.75 -61.2 Q26.15 -61.4 26.4 -61.2 M24.0 -60.0 L24.65 -60.6 Q24.95 -60.7 25.6 -60.0 25.45 -59.75 24.8 -59.75 24.15 -59.75 24.0 -60.0 M33.6 -34.1 Q34.5 -34.45 34.7 -35.1 L34.5 -35.7 Q32.9 -36.3 32.9 -35.05 32.9 -34.4 33.05 -34.25 L33.6 -34.1 M18.4 -48.5 L18.3 -47.9 18.0 -47.7 17.65 -47.7 17.6 -48.35 17.6 -49.0 17.7 -49.1 18.2 -49.1 18.4 -48.5 M11.45 -46.0 L12.0 -46.1 12.35 -46.0 12.9 -45.7 12.8 -44.5 12.4 -44.3 11.4 -44.5 11.2 -44.6 11.1 -45.25 Q11.1 -45.9 11.45 -46.0 M12.3 -40.2 Q12.3 -39.75 12.6 -39.3 13.4 -39.3 13.6 -39.6 L13.7 -40.5 12.4 -40.8 12.3 -40.2 M12.2 -39.1 L12.2 -39.4 11.9 -39.65 Q11.7 -39.75 11.7 -39.8 L10.1 -39.8 10.2 -38.7 12.2 -39.1 M0.1 -47.8 Q-0.1 -47.6 -0.4 -47.5 L-1.1 -47.5 Q-1.3 -47.55 -1.3 -48.2 L-1.15 -48.9 -0.8 -48.9 Q-0.2 -48.7 0.2 -48.1 L0.1 -47.8 M72.7 -44.3 L72.7 -44.1 71.7 -44.0 Q71.5 -43.6 71.5 -44.6 L71.6 -45.4 71.7 -45.5 72.2 -45.5 72.7 -44.3 M74.7 -40.7 L75.7 -40.5 75.2 -40.0 Q74.7 -40.2 74.7 -40.7 M78.6 -37.3 L78.4 -38.2 Q78.95 -38.35 79.4 -37.7 79.3 -37.4 78.6 -37.3 M76.8 -39.1 Q75.9 -39.25 75.9 -39.8 L76.0 -40.4 77.0 -40.4 77.3 -40.1 77.3 -39.5 76.8 -39.1 M61.8 -34.4 Q61.7 -34.1 61.2 -33.9 60.6 -34.15 60.6 -35.0 L61.4 -35.3 Q61.8 -34.9 61.8 -34.4 M62.4 -31.2 L62.3 -30.6 61.8 -30.5 61.4 -31.1 61.8 -31.35 62.4 -31.2 M61.2 -28.7 Q61.2 -29.35 61.6 -29.4 L62.1 -29.4 62.4 -28.5 62.0 -28.0 61.4 -28.1 Q61.2 -27.7 61.2 -28.7 M61.3 -26.3 L60.4 -25.5 59.7 -25.5 Q59.55 -25.55 59.55 -25.85 L59.4 -25.7 58.8 -26.1 57.3 -26.0 56.7 -26.6 57.5 -27.35 58.0 -27.7 59.0 -27.5 59.5 -26.4 Q59.6 -27.35 60.5 -28.1 L61.0 -27.2 61.3 -26.3 M62.1 -27.1 Q63.9 -26.95 63.6 -22.6 L64.6 -22.3 65.45 -20.55 Q66.2 -19.4 67.8 -19.1 68.0 -18.5 68.0 -16.7 L68.05 -16.55 Q68.1 -16.4 68.7 -16.4 L70.15 -16.5 Q70.3 -17.05 70.8 -17.1 L70.8 -17.9 70.1 -18.0 Q69.9 -18.1 69.9 -18.75 69.9 -19.75 70.75 -19.85 L70.8 -19.85 70.8 -20.8 71.0 -20.95 71.8 -21.1 72.4 -19.2 72.8 -17.5 71.6 -14.05 71.95 -13.5 72.25 -13.5 73.1 -13.3 Q73.75 -13.3 75.2 -16.85 75.2 -17.35 74.8 -17.5 74.4 -17.7 74.4 -18.2 L75.25 -19.05 Q76.2 -19.75 76.4 -20.4 L76.5 -21.2 Q76.7 -21.9 77.4 -22.3 L77.7 -20.25 77.9 -18.4 Q77.9 -17.8 77.55 -17.85 L77.3 -17.8 77.9 -17.2 77.4 -16.3 Q77.2 -16.0 77.3 -15.4 L77.5 -14.2 Q77.5 -13.15 77.05 -12.6 L75.5 -11.3 76.3 -10.4 75.95 -9.5 75.7 -8.6 73.8 -8.3 73.9 -7.4 Q73.9 -6.8 72.8 -5.7 L71.4 -5.8 70.7 -7.3 70.2 -8.8 69.8 -8.95 Q69.4 -9.15 69.4 -9.3 L68.9 -8.85 68.4 -8.1 Q68.05 -8.35 67.9 -8.9 67.8 -9.15 66.6 -9.4 L66.7 -9.75 66.9 -10.6 Q66.9 -11.05 65.3 -13.6 L63.85 -14.85 Q62.65 -15.7 62.6 -15.8 62.1 -16.55 62.1 -18.8 62.1 -20.8 61.35 -21.15 L60.6 -21.2 Q60.6 -21.8 60.7 -21.65 L60.8 -21.4 61.9 -21.05 61.85 -21.15 61.2 -23.85 Q61.2 -24.6 61.75 -24.8 62.25 -25.05 62.0 -27.0 L62.1 -27.1 M70.0 -30.0 L70.0 -29.9 71.3 -29.7 71.0 -28.8 70.1 -28.8 Q69.9 -28.25 69.9 -29.25 L69.95 -29.75 69.6 -29.2 Q68.9 -29.2 68.7 -29.5 69.85 -30.55 70.0 -30.0 M78.8 -35.9 L78.8 -36.0 Q79.65 -35.65 79.8 -35.05 L79.9 -33.5 Q79.9 -33.25 80.4 -33.5 L80.7 -33.6 Q81.0 -33.6 81.0 -33.0 L80.55 -31.95 Q79.95 -31.05 79.05 -30.9 L79.5 -30.1 Q79.85 -30.2 80.45 -30.65 L81.2 -30.8 Q82.35 -30.9 82.1 -31.5 L81.85 -31.65 Q81.7 -31.65 81.7 -32.25 L81.8 -32.8 82.0 -32.6 82.0 -32.7 82.85 -31.3 83.5 -29.85 83.35 -28.7 83.3 -28.0 84.5 -27.7 Q84.35 -27.2 84.0 -27.1 86.05 -25.05 86.3 -23.1 86.35 -22.3 87.35 -21.3 88.45 -20.2 89.2 -21.1 L89.85 -20.35 90.0 -19.5 90.3 -19.2 Q90.9 -19.25 91.7 -20.1 92.5 -20.95 92.5 -21.5 92.5 -22.0 92.1 -22.25 91.7 -22.5 91.7 -23.0 L92.4 -24.05 93.1 -25.1 93.1 -25.25 Q92.95 -25.5 92.95 -25.85 L92.75 -26.15 92.2 -26.9 93.0 -27.1 93.35 -26.6 Q93.85 -26.3 93.9 -25.4 L93.9 -25.3 94.9 -25.0 95.2 -24.5 95.4 -23.5 Q95.65 -22.5 93.8 -22.4 L94.0 -22.0 94.2 -21.05 94.2 -20.8 94.5 -20.9 94.7 -19.25 94.2 -17.3 Q93.6 -16.05 93.5 -15.1 93.35 -13.55 92.9 -13.0 L92.1 -11.8 Q91.8 -11.8 91.75 -12.1 91.75 -12.4 91.2 -12.4 90.6 -12.4 90.6 -11.95 L90.4 -11.4 Q90.0 -11.8 89.5 -13.6 89.05 -15.0 87.8 -15.4 L87.6 -18.25 Q87.3 -20.2 85.4 -21.0 85.2 -22.25 84.4 -23.6 83.7 -24.75 83.7 -25.6 L83.75 -26.5 84.0 -27.1 Q83.3 -27.2 83.1 -27.5 L83.1 -27.75 83.0 -27.55 Q82.95 -27.3 82.4 -27.3 L81.15 -27.7 80.1 -28.4 78.95 -28.2 77.9 -27.9 Q77.15 -26.75 77.0 -25.5 L76.6 -25.4 76.5 -26.45 Q76.5 -27.1 77.05 -29.15 L77.8 -31.4 Q78.5 -31.45 79.0 -30.9 L78.45 -32.25 Q78.0 -33.1 78.0 -33.65 L78.2 -34.7 78.4 -35.6 Q78.4 -36.2 78.5 -36.1 L78.8 -35.9 M44.6 -40.3 L44.8 -39.85 44.7 -39.1 44.4 -38.8 43.75 -39.45 Q43.55 -39.75 43.6 -40.3 L44.6 -40.3 M42.3 -39.5 L43.3 -39.3 42.8 -38.8 Q42.3 -39.0 42.3 -39.5 M55.4 -29.0 L55.9 -28.8 56.4 -28.4 Q56.25 -28.15 55.8 -28.15 55.35 -28.15 55.2 -28.4 L55.4 -29.0 M77.5 -23.2 L76.6 -23.1 Q76.3 -22.55 76.3 -23.55 L76.35 -24.15 76.4 -24.0 77.4 -24.0 77.7 -23.7 77.5 -23.2 M71.2 -21.7 L70.85 -21.7 70.8 -22.35 Q70.8 -23.0 71.15 -23.4 L71.7 -23.7 Q72.1 -23.1 72.1 -22.5 L71.2 -21.7 M69.9 -24.7 L70.9 -24.5 70.4 -24.0 Q69.9 -24.2 69.9 -24.7 M89.4 -43.9 L89.6 -43.3 89.2 -42.8 88.6 -42.9 88.4 -43.8 89.4 -43.9 M82.0 -46.0 Q81.2 -46.15 81.2 -47.0 L82.1 -46.8 82.2 -46.95 82.3 -46.35 Q82.3 -45.35 82.0 -46.0 M90.9 -37.7 Q90.9 -37.1 90.6 -36.8 L90.1 -36.8 89.9 -37.9 90.9 -37.7 M89.2 -42.4 L89.7 -42.8 Q90.1 -43.0 90.4 -42.8 L90.0 -42.0 Q89.4 -42.1 89.2 -42.4 M90.8 -36.8 L90.9 -37.4 91.3 -37.4 91.6 -36.8 Q91.4 -36.2 91.0 -36.2 L90.8 -36.8 M87.6 -32.9 L87.5 -32.3 87.2 -32.1 87.05 -32.1 87.1 -31.6 86.85 -31.4 86.8 -31.35 87.4 -31.1 87.6 -30.5 87.2 -30.0 Q86.6 -30.2 86.4 -30.8 L86.5 -31.1 86.4 -31.1 85.7 -31.1 Q85.5 -31.15 85.5 -31.8 85.5 -32.45 85.85 -32.65 L86.6 -32.8 86.8 -32.55 86.8 -32.75 86.8 -33.4 86.9 -33.5 87.4 -33.5 87.6 -32.9 M92.8 -31.6 L93.4 -31.15 93.8 -30.3 Q93.6 -30.1 93.2 -30.0 L92.6 -30.1 Q92.4 -30.2 92.4 -30.85 L92.6 -31.55 92.8 -31.6 M92.6 -34.8 L92.9 -34.5 92.45 -33.95 Q92.05 -33.6 91.7 -33.6 L91.5 -34.2 91.6 -34.8 92.6 -34.8 M88.6 -22.0 Q88.4 -22.05 88.4 -22.7 88.4 -23.5 90.0 -23.2 L89.2 -22.0 88.6 -22.0 M-26.8 -72.4 Q-26.65 -72.9 -25.6 -72.4 -25.75 -72.15 -26.2 -72.15 -26.65 -72.15 -26.8 -72.4 M-27.2 -69.2 Q-27.8 -69.3 -28.0 -69.6 -27.7 -70.8 -26.3 -71.0 L-26.1 -70.4 -27.2 -69.2 M-34.8 -70.8 L-35.5 -71.3 -34.5 -71.4 Q-34.5 -70.9 -34.8 -70.8 M-35.4 -69.5 L-36.6 -69.0 -36.8 -69.6 -36.0 -69.95 -35.4 -69.8 -35.4 -69.5 M-27.85 -61.45 Q-28.3 -61.3 -28.3 -60.65 L-28.15 -59.85 -27.6 -59.7 -26.6 -60.2 Q-26.5 -59.95 -26.5 -60.95 -26.5 -61.55 -26.65 -61.55 L-27.0 -61.6 -27.85 -61.45 M-35.8 -64.2 L-35.85 -64.05 -35.15 -63.9 Q-34.15 -63.9 -34.5 -64.0 L-34.3 -64.5 -34.6 -64.8 -35.4 -64.65 -35.8 -64.2 M-16.2 -68.5 L-16.4 -69.4 -15.4 -69.5 -15.2 -69.2 Q-15.6 -68.6 -16.2 -68.5 M-15.3 -49.65 Q-15.3 -50.75 -16.6 -50.9 -17.9 -51.0 -17.9 -49.45 -17.9 -48.45 -17.7 -48.4 L-17.5 -48.3 -16.6 -48.2 Q-15.3 -48.2 -15.3 -49.65 M-44.6 -72.55 Q-44.4 -72.9 -43.6 -72.8 -43.85 -72.05 -44.4 -71.7 L-44.8 -71.9 -44.6 -72.55 M-6.8 -45.8 L-7.05 -44.15 Q-7.2 -43.15 -8.0 -42.5 L-7.7 -42.0 -6.6 -42.1 -5.7 -43.05 Q-5.4 -43.35 -5.4 -43.6 -5.4 -44.4 -6.8 -45.9 L-6.8 -45.8" fill="#afbfc2" fill-rule="evenodd" stroke="none"/>
    </g>
  </defs>
</svg>
