<?xml version="1.0" encoding="UTF-8" standalone="no"?>
<svg xmlns:ffdec="https://www.free-decompiler.com/flash" xmlns:xlink="http://www.w3.org/1999/xlink" ffdec:objectType="frame" height="100.35px" width="149.7px" xmlns="http://www.w3.org/2000/svg">
  <g transform="matrix(1.0, 0.0, 0.0, 1.0, 54.25, 88.15)">
    <use ffdec:characterId="58" height="66.8" transform="matrix(1.0, 0.0, 0.0, 1.0, -52.8, -68.5)" width="147.2" xlink:href="#shape0"/>
  </g>
  <defs>
    <g id="shape0" transform="matrix(1.0, 0.0, 0.0, 1.0, 52.8, 68.5)">
      <path d="M46.1 -57.5 L45.8 -56.6 44.9 -56.6 44.7 -57.2 44.8 -57.8 45.8 -57.8 46.1 -57.5 M46.4 -56.55 L46.7 -56.9 Q47.45 -57.05 49.9 -56.1 49.65 -55.2 48.75 -54.75 48.05 -54.4 47.2 -54.4 46.5 -54.4 46.35 -54.7 46.2 -54.95 46.2 -55.8 L46.4 -56.55 M42.1 -51.0 Q42.1 -48.5 41.5 -48.25 40.6 -48.35 40.0 -47.9 38.8 -46.95 38.9 -46.2 L39.3 -44.9 Q39.55 -44.6 38.55 -44.6 38.05 -44.6 37.75 -44.9 L36.9 -45.4 36.15 -46.5 35.5 -47.2 Q34.95 -47.2 33.45 -46.4 32.0 -45.65 30.9 -45.8 29.55 -45.75 28.5 -45.0 27.6 -44.4 27.6 -43.95 27.6 -43.6 26.0 -42.6 25.15 -42.65 24.5 -43.0 L24.0 -43.3 21.7 -43.5 Q21.2 -44.1 21.2 -45.8 L20.75 -45.6 20.4 -45.4 Q19.85 -45.95 19.65 -46.45 L18.8 -47.3 18.8 -50.0 19.2 -50.2 20.1 -49.85 Q20.5 -49.6 21.0 -49.6 L22.8 -49.7 Q23.5 -50.3 23.8 -51.0 24.05 -51.55 24.8 -51.9 L25.25 -50.1 25.2 -48.1 25.3 -48.0 27.55 -48.4 28.8 -48.7 Q29.3 -48.7 29.3 -48.2 29.3 -47.7 29.8 -47.7 31.0 -47.7 31.2 -48.45 L31.6 -49.9 Q34.05 -50.35 34.55 -51.75 L34.8 -53.8 35.4 -53.8 Q36.5 -52.7 36.5 -51.25 36.5 -50.7 36.05 -50.15 L35.3 -49.3 35.4 -48.9 Q36.75 -49.5 37.05 -49.35 L37.2 -49.1 Q37.95 -49.1 37.95 -49.35 37.85 -49.85 38.4 -50.3 L39.8 -50.2 41.2 -51.1 42.1 -51.0 M50.3 -56.25 Q50.3 -56.85 50.7 -56.85 L51.7 -56.7 51.5 -55.9 50.5 -55.8 Q50.3 -55.25 50.3 -56.25 M52.1 -57.3 Q51.9 -57.35 51.9 -58.0 51.9 -58.65 53.0 -59.3 L53.3 -57.8 52.8 -57.3 52.1 -57.3 M59.85 -50.15 L59.9 -49.8 59.8 -49.35 59.65 -49.05 59.4 -48.9 58.85 -49.45 58.8 -49.85 Q58.8 -50.25 59.7 -50.25 L59.85 -50.15 M59.7 -52.05 L59.9 -51.75 59.6 -51.5 Q59.25 -51.55 59.1 -51.7 59.1 -52.05 59.7 -52.05 M1.8 -64.05 L2.5 -63.9 Q2.35 -63.4 2.0 -63.3 1.4 -63.5 1.2 -63.8 L1.8 -64.05 M1.7 -51.1 L3.3 -51.65 4.9 -52.5 5.4 -52.45 Q5.9 -52.4 6.0 -52.2 L4.75 -50.05 Q3.95 -48.8 3.2 -48.6 L1.4 -48.7 Q1.2 -48.7 1.25 -49.05 1.3 -49.5 0.0 -49.8 L-0.55 -49.6 -1.6 -49.4 -2.9 -49.6 -4.2 -50.0 Q-5.55 -50.7 -5.35 -52.4 L-4.9 -54.8 -6.6 -56.0 -6.7 -56.6 Q-6.35 -57.95 -4.2 -59.0 L-4.3 -59.4 -3.8 -60.35 Q-3.5 -60.85 -2.3 -60.9 -2.3 -60.85 -2.2 -60.95 L-2.1 -60.35 Q-2.1 -59.8 -2.9 -59.3 L-2.9 -59.05 Q-2.9 -58.55 -3.4 -58.3 -3.9 -58.05 -3.9 -57.55 -3.9 -56.4 -3.2 -54.4 -2.8 -53.35 -1.9 -52.9 L1.0 -52.6 Q1.7 -51.9 1.7 -51.1 M8.0 -53.8 L7.9 -53.2 7.2 -52.9 Q6.6 -53.1 6.4 -53.4 6.85 -54.1 7.8 -54.1 L8.0 -53.8 M8.5 -52.9 L9.75 -51.65 10.9 -50.3 14.4 -50.4 15.45 -51.5 Q16.35 -52.35 17.4 -52.5 L17.5 -52.65 17.6 -52.05 Q17.6 -51.4 17.15 -51.2 16.55 -51.0 16.4 -50.5 L16.4 -49.8 Q16.35 -49.2 16.0 -49.0 15.0 -48.35 13.75 -48.2 12.55 -48.0 11.2 -47.1 L10.2 -47.2 Q9.8 -47.6 9.6 -48.7 L8.6 -48.8 8.4 -52.4 8.4 -52.95 Q8.45 -52.85 8.5 -52.9 M8.6 -55.2 Q9.15 -56.0 10.3 -56.0 L10.1 -55.1 9.6 -54.8 Q8.9 -54.9 8.6 -55.2 M26.0 -55.7 L24.9 -55.8 Q24.7 -55.25 24.7 -56.25 24.7 -56.85 24.95 -56.8 L25.2 -56.7 25.75 -56.6 26.5 -56.3 Q26.35 -55.8 26.0 -55.7 M25.2 -54.8 Q26.0 -54.8 26.4 -54.4 L26.5 -54.1 Q26.6 -53.6 25.6 -53.6 L24.85 -53.7 24.6 -54.0 24.9 -54.45 25.2 -54.8 M36.6 -59.3 L36.0 -58.8 Q35.3 -58.9 35.0 -59.2 L35.4 -59.65 36.2 -59.9 36.6 -59.3 M39.7 -43.5 L40.0 -42.7 40.2 -42.9 40.4 -43.1 40.75 -43.0 41.3 -42.7 41.2 -41.5 40.65 -41.4 40.85 -41.05 41.0 -41.25 41.6 -41.5 42.0 -41.35 41.75 -41.85 Q41.4 -42.6 41.4 -43.2 41.4 -43.85 41.85 -43.95 L42.05 -43.95 42.0 -44.55 42.0 -45.2 42.1 -45.3 42.6 -45.3 42.8 -44.7 42.7 -44.1 42.5 -43.95 42.4 -43.8 42.2 -43.1 Q42.2 -42.55 42.6 -42.3 L43.2 -41.8 42.55 -40.95 42.9 -40.5 42.3 -39.8 42.8 -39.65 43.2 -40.0 44.0 -39.4 44.8 -39.4 48.4 -42.9 48.95 -42.65 49.1 -41.75 Q49.1 -41.05 48.6 -40.8 L46.7 -39.4 47.05 -39.2 47.5 -38.9 46.6 -37.65 45.6 -36.6 41.7 -36.7 Q41.2 -37.6 41.6 -39.4 L41.3 -39.75 40.9 -39.8 Q40.7 -39.4 40.7 -40.4 L40.75 -40.8 40.7 -41.15 Q40.7 -41.45 39.0 -41.7 39.4 -42.3 39.4 -43.1 L38.2 -42.9 Q38.2 -43.5 38.4 -43.6 L39.7 -43.5 M22.0 -38.6 L21.3 -37.75 Q20.8 -37.15 20.8 -36.8 20.8 -36.6 20.95 -36.55 L21.0 -36.45 21.5 -36.5 Q21.7 -36.45 21.7 -35.8 L21.55 -34.55 21.5 -33.7 22.7 -32.4 Q24.1 -32.5 25.0 -33.4 L25.05 -33.1 Q25.0 -32.8 25.6 -32.8 26.2 -32.8 26.6 -33.2 L27.3 -33.8 Q27.55 -33.4 27.0 -32.6 28.5 -32.75 28.4 -34.25 28.3 -35.85 29.7 -36.2 L29.9 -36.1 30.0 -37.5 Q30.1 -38.65 31.3 -38.6 L31.3 -35.7 Q31.8 -35.25 31.5 -34.4 L32.55 -34.3 Q34.45 -34.3 35.8 -36.2 L37.4 -38.3 Q37.7 -37.85 37.45 -36.25 37.55 -34.9 39.4 -34.8 L39.5 -33.9 39.3 -33.0 39.3 -32.85 40.0 -32.7 41.1 -33.0 42.3 -33.4 Q42.3 -34.3 42.8 -34.9 43.85 -34.35 43.7 -33.0 L43.3 -30.8 45.0 -30.7 Q45.15 -30.2 46.25 -28.4 L47.2 -26.25 47.1 -25.45 46.8 -25.3 Q46.45 -25.45 45.5 -26.25 L43.9 -26.6 Q44.1 -25.0 43.8 -23.3 L42.7 -23.0 Q40.95 -21.9 41.25 -20.85 L42.0 -19.1 42.0 -18.55 41.8 -18.5 40.9 -18.2 Q40.4 -17.8 39.95 -16.3 39.65 -15.3 38.4 -15.3 33.1 -15.3 31.9 -17.7 L31.75 -18.85 Q31.6 -19.6 30.4 -20.4 29.45 -21.05 28.7 -23.4 L27.6 -26.7 27.5 -26.7 25.0 -24.5 Q23.05 -22.75 22.4 -21.7 L21.2 -21.3 20.2 -21.4 Q19.3 -22.45 18.55 -24.7 L17.6 -27.5 15.5 -27.9 13.9 -27.8 13.35 -26.5 13.2 -25.4 12.0 -25.5 Q11.25 -25.5 10.9 -24.7 10.5 -23.8 10.0 -23.6 L6.2 -24.1 5.2 -25.0 2.7 -25.0 1.55 -24.45 1.0 -24.0 Q-1.25 -23.85 -2.05 -22.95 L-3.2 -21.9 -5.05 -21.85 -6.4 -21.5 -7.4 -21.7 -8.5 -23.05 Q-9.1 -23.75 -9.2 -24.4 L-9.45 -25.65 -9.6 -26.95 Q-9.6 -28.25 -7.3 -32.65 L-6.7 -33.8 -7.05 -33.8 -8.8 -32.3 Q-9.3 -32.3 -9.6 -32.8 -9.9 -33.3 -10.4 -33.3 -12.1 -33.3 -12.9 -31.7 -13.85 -29.7 -14.4 -29.4 L-17.0 -29.2 -17.55 -28.6 -18.8 -28.2 Q-23.1 -28.2 -24.4 -30.05 L-24.8 -32.0 Q-24.8 -32.6 -24.2 -33.75 -23.6 -34.95 -23.6 -36.05 L-23.9 -37.75 Q-24.1 -38.9 -23.8 -39.5 L-24.1 -40.0 -24.2 -40.1 -24.3 -39.1 -24.6 -39.1 -24.6 -40.25 -25.0 -40.3 Q-25.5 -40.3 -25.5 -39.75 -25.5 -39.2 -26.0 -39.2 -27.5 -39.2 -28.1 -40.2 L-28.4 -41.35 Q-28.4 -41.95 -27.6 -43.05 L-27.0 -43.8 -26.75 -44.15 Q-26.4 -44.4 -26.4 -45.0 -26.4 -45.5 -26.8 -45.6 -27.2 -45.7 -27.2 -46.2 L-26.4 -47.65 Q-25.6 -48.75 -25.6 -49.1 L-25.7 -49.85 -26.35 -50.0 -26.8 -49.6 -28.2 -49.7 Q-29.6 -50.85 -29.6 -51.5 L-31.0 -51.7 -31.2 -52.3 -33.0 -52.5 -33.55 -54.25 -34.8 -53.2 Q-36.0 -51.85 -36.0 -50.8 L-35.1 -50.6 -35.0 -50.75 -34.9 -50.15 Q-34.9 -49.75 -35.45 -48.95 L-36.5 -47.0 Q-36.1 -46.4 -34.6 -46.3 L-34.5 -45.2 -33.1 -45.0 Q-32.95 -44.6 -33.15 -43.9 L-33.6 -42.6 -33.6 -42.1 -32.4 -42.2 Q-31.95 -42.35 -31.45 -43.25 L-31.0 -44.3 -30.6 -44.3 -30.5 -44.35 -30.4 -43.7 Q-30.4 -42.7 -31.2 -41.65 -32.0 -40.6 -32.1 -39.3 -32.15 -38.05 -33.6 -37.15 L-35.6 -36.1 -36.6 -36.2 -37.25 -36.85 -37.5 -37.85 -37.45 -38.25 Q-37.65 -39.05 -38.0 -39.5 -38.3 -40.0 -39.3 -40.0 -39.85 -40.0 -40.4 -38.9 L-40.8 -37.65 Q-40.8 -36.35 -42.2 -36.1 -43.6 -35.9 -43.6 -34.8 -43.6 -34.35 -46.0 -32.8 L-48.2 -32.9 -48.75 -33.35 -49.2 -33.9 -51.0 -34.2 -51.15 -35.25 Q-51.25 -35.9 -51.5 -36.3 L-51.3 -36.5 Q-50.25 -39.75 -48.8 -40.8 -48.4 -40.2 -48.4 -39.0 L-46.0 -39.0 Q-45.2 -39.0 -45.05 -39.6 L-44.8 -40.8 -44.5 -41.85 -44.7 -42.4 Q-44.55 -42.65 -43.2 -42.9 L-42.5 -43.8 -42.9 -44.45 -43.3 -45.3 -44.4 -45.05 Q-45.05 -44.75 -45.2 -44.7 L-46.3 -44.8 -46.45 -44.95 -47.2 -44.4 -48.95 -43.9 Q-49.6 -43.6 -50.0 -43.6 -50.5 -43.6 -50.95 -43.95 L-52.2 -44.5 -52.55 -45.8 -52.8 -47.2 -52.35 -48.2 -51.1 -49.7 -51.35 -49.25 -50.7 -49.4 Q-50.5 -48.8 -50.9 -47.7 L-50.9 -47.6 Q-48.9 -48.1 -48.2 -49.35 L-47.1 -51.7 -46.7 -51.8 -46.5 -51.7 -46.5 -51.05 Q-46.5 -50.55 -46.9 -49.9 L-47.3 -48.8 -47.1 -47.9 -46.9 -47.3 -46.35 -48.35 -45.6 -47.9 Q-45.5 -47.9 -44.7 -48.4 -43.65 -48.95 -42.6 -49.1 -42.0 -49.15 -41.8 -49.45 L-41.6 -50.0 -39.7 -52.35 Q-39.05 -52.9 -38.0 -52.9 -36.9 -52.9 -37.3 -54.5 L-37.9 -56.15 -37.35 -57.1 -37.15 -57.3 -39.2 -57.3 Q-39.55 -57.35 -39.85 -57.7 L-40.3 -58.3 -42.05 -57.0 Q-43.2 -56.1 -43.6 -56.1 L-44.8 -56.4 -46.2 -57.0 -46.6 -59.15 Q-46.75 -60.45 -49.0 -60.3 L-49.1 -61.35 Q-49.1 -63.3 -47.7 -64.0 -46.65 -64.55 -45.8 -64.3 L-47.2 -62.2 -47.2 -62.1 -46.4 -61.6 Q-45.6 -61.05 -45.6 -60.4 L-43.2 -60.4 Q-41.9 -60.6 -40.75 -61.25 -39.8 -61.8 -39.0 -61.8 -38.1 -61.8 -37.8 -63.8 L-37.1 -63.8 -37.1 -63.1 -37.3 -62.15 Q-37.3 -61.55 -36.9 -61.4 L-36.5 -61.2 Q-37.0 -60.7 -37.0 -60.0 L-36.8 -59.7 -34.2 -59.5 -33.8 -58.9 Q-33.45 -58.5 -32.8 -58.5 -32.05 -58.5 -31.9 -59.1 L-31.8 -59.9 -30.4 -60.2 -29.4 -62.45 -28.0 -64.0 -27.35 -64.0 Q-27.2 -63.95 -27.2 -63.3 L-27.75 -61.65 -28.3 -59.7 -27.7 -58.8 -26.6 -57.8 -25.2 -58.3 -24.7 -57.85 Q-24.55 -57.55 -24.8 -57.3 L-21.9 -57.3 -20.25 -58.6 -18.8 -59.6 Q-18.55 -59.6 -17.65 -58.5 -17.1 -58.5 -16.9 -58.85 L-16.6 -59.1 -16.1 -58.8 -15.5 -58.7 -15.15 -59.65 Q-15.0 -60.2 -14.2 -60.3 L-14.1 -60.45 Q-14.0 -60.45 -14.0 -59.85 -14.0 -58.6 -15.45 -56.85 -16.95 -55.0 -18.4 -54.8 L-19.4 -54.9 Q-20.0 -55.8 -20.0 -56.3 L-21.7 -55.8 -22.0 -55.3 -21.65 -55.15 -21.2 -54.8 -21.55 -53.75 -19.2 -53.8 Q-18.1 -53.7 -17.75 -53.1 -17.6 -52.8 -17.6 -52.1 L-17.7 -51.8 Q-17.9 -51.75 -18.05 -52.0 -18.25 -52.3 -18.8 -52.3 -20.15 -52.3 -20.5 -51.4 -20.9 -50.5 -21.7 -50.4 L-20.8 -48.85 -20.4 -47.5 -21.0 -46.1 Q-21.6 -44.95 -21.6 -44.2 L-21.45 -44.0 -20.6 -43.8 -18.75 -44.0 -17.2 -43.9 -16.9 -44.05 -16.9 -44.85 -15.55 -46.1 Q-14.0 -47.1 -13.6 -48.3 L-12.85 -50.0 -12.0 -51.3 -11.55 -51.45 Q-11.1 -51.5 -11.1 -50.9 -11.1 -49.95 -12.05 -48.05 L-11.4 -48.0 -11.1 -47.7 Q-11.1 -47.1 -11.4 -46.8 L-12.2 -46.8 Q-12.2 -46.85 -12.35 -46.9 L-12.45 -47.15 Q-13.3 -45.5 -13.3 -44.75 -13.3 -44.2 -14.4 -43.1 L-14.4 -42.5 -14.0 -42.2 Q-11.45 -42.35 -11.35 -42.9 L-11.7 -44.2 -11.65 -44.75 Q-11.55 -44.7 -11.5 -44.8 L-9.6 -45.1 -8.9 -46.45 Q-8.5 -47.3 -7.6 -47.7 L-6.9 -47.7 Q-6.7 -47.65 -6.7 -47.0 -6.7 -46.3 -7.3 -45.5 L-8.8 -43.7 -9.65 -42.15 Q-10.25 -41.05 -10.8 -40.7 L-8.8 -38.9 Q-8.3 -38.9 -7.65 -39.35 -7.1 -39.8 -6.8 -39.7 -4.7 -39.9 -4.85 -40.2 -5.5 -40.85 -5.6 -41.5 L-4.4 -42.0 -3.4 -41.9 -3.2 -41.7 -3.2 -41.0 -3.55 -40.35 -4.6 -38.9 -4.0 -38.1 -3.0 -37.9 Q-2.8 -37.9 -2.8 -38.8 L-1.4 -39.2 -1.35 -39.25 -0.35 -39.55 0.8 -40.0 1.45 -40.05 1.6 -39.45 1.0 -38.55 Q0.4 -37.85 0.4 -36.6 L-2.1 -36.2 -2.4 -35.45 -2.85 -34.8 -3.2 -33.8 -3.6 -33.6 -3.9 -33.6 -4.05 -33.3 Q-4.8 -31.8 -4.8 -31.0 L-4.55 -30.6 Q-4.55 -30.4 -4.0 -30.4 -3.35 -30.4 -2.5 -31.5 L-1.6 -32.7 Q-1.25 -32.65 -0.85 -32.25 -0.5 -31.95 -0.5 -31.7 0.65 -31.8 0.8 -32.75 0.9 -33.65 2.1 -33.7 L2.5 -34.7 2.8 -35.5 4.5 -35.7 5.35 -38.5 Q5.95 -40.55 6.8 -41.1 L7.25 -41.0 7.8 -40.7 6.7 -39.05 Q6.7 -38.55 7.15 -38.35 7.6 -38.2 7.6 -37.7 L6.8 -36.2 6.0 -34.7 6.45 -33.3 Q6.85 -32.4 6.7 -31.9 L6.7 -31.6 Q10.45 -33.05 11.2 -33.8 L12.4 -33.4 13.4 -33.1 14.15 -33.2 14.6 -33.5 14.65 -34.25 14.5 -35.3 15.1 -35.5 Q15.7 -36.05 15.7 -37.5 L16.8 -38.4 Q17.4 -38.95 18.5 -39.3 L18.35 -39.05 18.75 -39.4 Q17.7 -39.5 17.4 -39.8 17.75 -40.75 18.4 -41.0 19.25 -40.7 19.4 -40.2 L19.4 -40.0 19.6 -40.25 Q20.75 -41.55 20.8 -43.1 L21.8 -43.1 22.0 -40.7 Q22.0 -40.1 21.75 -40.15 L21.3 -40.1 21.8 -39.5 22.0 -38.6 M34.0 -32.2 L32.7 -30.7 Q33.05 -30.15 32.8 -28.6 L34.8 -28.4 35.8 -28.3 36.15 -26.75 36.3 -25.0 39.2 -25.0 39.3 -25.75 39.2 -26.4 Q40.25 -26.4 41.8 -27.1 43.4 -27.85 43.4 -28.5 L43.0 -28.75 Q42.75 -28.9 43.2 -30.3 L41.8 -29.85 Q41.0 -29.85 40.4 -30.6 L39.2 -30.6 38.8 -29.9 Q38.4 -29.3 37.8 -29.3 37.1 -29.3 36.35 -30.75 35.6 -32.15 35.7 -33.1 L34.7 -32.8 Q34.3 -32.6 34.0 -32.2 M19.3 -43.8 Q19.7 -43.4 19.7 -42.9 L19.2 -42.4 18.7 -42.6 18.9 -43.4 19.3 -43.8 M7.65 -42.0 L8.55 -41.85 8.4 -41.8 7.65 -42.0 M62.5 -31.3 L62.2 -30.4 Q61.7 -30.4 61.5 -30.7 L61.5 -31.3 62.5 -31.3 M61.3 -26.7 L61.8 -26.7 62.0 -26.1 61.9 -25.5 61.6 -25.3 61.25 -25.3 61.2 -25.95 61.2 -26.6 61.3 -26.7 M62.0 -24.8 L62.0 -23.4 62.9 -24.1 61.7 -22.3 61.4 -22.3 61.6 -22.8 61.4 -22.8 60.65 -22.85 60.6 -22.9 60.7 -23.55 59.8 -24.3 59.8 -25.1 61.8 -25.1 62.0 -24.8 M78.3 -34.5 L78.8 -34.0 Q78.6 -33.7 77.7 -33.6 L77.5 -34.5 78.3 -34.5 M80.9 -28.4 L81.1 -28.15 81.3 -27.8 81.3 -27.5 Q81.0 -27.2 80.1 -27.2 79.6 -27.95 79.6 -28.3 L80.9 -28.4 M79.1 -28.15 L78.0 -26.8 77.4 -27.0 77.2 -27.6 77.8 -28.45 77.2 -28.8 Q77.35 -29.05 77.7 -29.1 L78.3 -29.0 78.3 -28.7 78.9 -28.7 79.0 -28.75 79.1 -28.15 M78.2 -26.3 L78.4 -26.0 Q78.15 -25.25 77.6 -24.9 L77.25 -24.9 77.2 -25.55 77.2 -26.2 77.3 -26.3 78.2 -26.3 M59.4 -46.85 L58.2 -45.9 57.85 -46.0 Q57.75 -46.05 57.75 -46.25 L57.25 -46.0 Q57.1 -46.2 57.1 -46.55 57.1 -46.95 57.85 -47.0 L58.65 -48.1 Q59.55 -49.1 59.55 -47.5 L59.4 -46.85 M56.2 -44.45 L56.3 -43.8 Q56.3 -40.15 52.4 -39.1 L51.4 -39.2 50.4 -40.35 49.2 -41.4 49.4 -41.7 49.95 -41.9 49.8 -41.9 49.65 -42.0 49.6 -42.65 Q49.6 -43.6 50.5 -43.6 L51.0 -43.0 50.65 -42.4 50.5 -42.0 51.3 -42.0 51.7 -41.2 Q52.7 -41.3 52.9 -41.9 53.1 -42.5 54.8 -42.7 L55.45 -43.6 56.1 -44.4 56.2 -44.45 M56.5 -22.2 L56.7 -21.3 56.5 -21.0 55.7 -22.2 56.5 -22.2 M56.9 -20.3 L57.7 -20.1 56.55 -15.5 Q55.85 -12.35 54.8 -10.9 L53.65 -12.3 Q52.9 -13.0 53.3 -13.9 L51.8 -14.2 Q51.3 -14.7 51.3 -15.6 L50.2 -15.8 49.6 -18.25 Q49.2 -19.85 48.5 -20.9 L48.8 -21.1 49.9 -21.0 Q49.75 -18.7 50.25 -18.4 50.55 -18.15 51.6 -18.4 L52.55 -18.15 Q52.6 -17.5 53.2 -16.9 53.55 -17.0 53.9 -17.65 L55.3 -17.8 55.6 -18.95 55.6 -20.3 55.65 -20.85 56.0 -20.8 56.9 -20.3 M48.9 -22.3 L47.95 -22.0 48.2 -21.9 48.4 -21.3 48.0 -20.8 47.4 -20.9 Q47.2 -21.2 47.2 -22.1 L47.35 -22.1 47.0 -22.9 47.2 -23.8 48.1 -23.8 48.6 -23.2 48.9 -22.6 48.9 -22.3 M71.7 -16.1 L71.7 -15.5 71.6 -15.2 71.0 -15.1 70.2 -15.25 70.0 -15.6 Q70.4 -16.4 71.4 -16.4 L71.7 -16.1 M71.2 -18.4 L72.2 -18.3 72.4 -18.0 72.3 -17.4 71.3 -17.2 71.1 -17.8 71.2 -18.4 M72.3 -14.45 L72.4 -13.85 72.2 -13.05 71.8 -12.8 71.3 -12.8 71.15 -12.9 71.1 -13.55 71.2 -14.4 72.2 -14.3 72.3 -14.45 M77.1 -18.25 L77.6 -18.0 77.2 -17.6 Q76.6 -17.8 76.5 -18.1 L77.1 -18.25 M76.9 -16.65 L77.8 -16.7 78.2 -16.7 78.4 -16.4 78.0 -15.95 78.0 -15.8 Q77.0 -15.3 76.6 -15.3 76.4 -14.9 76.4 -15.9 76.4 -16.55 76.9 -16.65 M78.8 -14.35 Q78.8 -12.1 78.1 -10.65 77.4 -9.2 77.4 -8.55 L77.0 -7.5 76.3 -6.2 75.05 -4.8 Q74.8 -4.55 74.8 -4.15 74.8 -3.2 74.1 -2.7 73.0 -2.0 72.8 -1.7 L71.8 -1.8 Q71.3 -2.3 71.3 -2.7 L69.8 -3.0 69.3 -4.75 Q68.9 -5.95 68.9 -6.7 L68.8 -6.8 67.7 -6.4 66.6 -6.1 Q64.65 -6.1 64.4 -7.3 L64.6 -8.5 63.9 -9.95 63.0 -11.3 61.85 -13.05 61.0 -14.1 61.4 -16.2 Q61.75 -17.3 61.6 -18.6 L62.0 -18.8 63.0 -18.7 63.05 -18.0 62.9 -17.05 Q62.9 -16.55 63.75 -15.8 64.5 -15.1 64.4 -14.2 L64.2 -13.05 64.0 -11.5 65.6 -11.6 66.6 -11.5 67.3 -10.2 Q67.5 -9.4 67.1 -8.2 L67.1 -8.0 69.35 -8.15 70.4 -9.4 71.45 -10.55 Q72.0 -11.45 70.9 -12.1 L71.6 -12.4 Q72.7 -12.0 72.65 -10.4 L72.4 -8.1 73.4 -7.9 Q73.75 -7.35 73.1 -6.5 74.05 -7.5 74.15 -8.05 L74.4 -9.2 75.6 -9.4 76.8 -12.7 Q77.65 -14.95 78.4 -16.0 L78.75 -15.3 78.8 -14.35 M61.8 -20.2 L61.7 -21.0 62.5 -21.0 62.7 -20.4 62.4 -20.1 61.8 -20.2 M83.35 -27.9 L84.0 -27.6 84.0 -27.0 Q83.7 -26.7 83.2 -26.5 L82.1 -27.3 82.45 -27.7 82.8 -28.0 83.35 -27.9 M84.7 -25.4 L84.2 -25.3 84.0 -26.2 Q84.55 -26.35 84.8 -26.0 L84.7 -25.4 M91.4 -31.8 L91.8 -32.25 92.6 -32.5 93.0 -31.9 92.4 -31.4 Q91.7 -31.5 91.4 -31.8 M92.7 -23.25 Q92.7 -23.85 92.85 -23.85 L93.2 -23.8 Q93.5 -23.8 93.7 -23.2 93.6 -22.9 92.9 -22.8 92.7 -22.25 92.7 -23.25 M93.1 -19.5 L93.75 -20.25 Q94.2 -20.45 94.4 -20.0 L94.3 -19.4 93.3 -19.2 93.1 -19.5 M93.8 -21.35 Q93.35 -21.35 93.2 -21.6 93.35 -22.1 94.4 -21.6 94.25 -21.35 93.8 -21.35 M94.2 -18.65 L94.3 -18.0 93.85 -15.25 94.0 -15.2 93.7 -14.5 93.6 -14.1 92.7 -12.35 92.6 -11.7 92.25 -11.7 91.7 -10.6 Q89.6 -10.55 88.8 -12.25 88.15 -13.65 88.5 -14.7 L87.0 -15.0 86.3 -17.85 Q85.85 -19.25 85.0 -19.8 86.95 -20.5 87.45 -19.0 L87.7 -19.0 88.7 -17.85 90.1 -15.8 91.15 -15.7 92.15 -16.15 Q93.5 -16.65 93.7 -18.5 L94.1 -18.6 94.2 -18.65 M92.75 -12.65 L93.0 -12.9 92.85 -13.2 92.75 -12.65 M86.4 -20.2 Q85.5 -20.9 85.2 -21.8 L85.6 -22.0 86.5 -21.9 86.7 -20.4 86.4 -20.2 M-25.95 -68.3 L-25.7 -67.9 Q-26.3 -67.3 -27.0 -67.3 -27.4 -67.7 -27.4 -68.2 L-26.2 -68.5 -25.95 -68.3 M-26.2 -65.1 L-27.1 -65.1 Q-27.4 -64.55 -27.4 -65.55 L-27.35 -66.25 -27.3 -66.2 Q-26.8 -66.45 -25.8 -65.7 L-26.2 -65.1 M-36.4 -67.6 L-35.9 -68.1 -35.2 -67.6 Q-35.35 -67.35 -35.8 -67.35 -36.25 -67.35 -36.4 -67.6 M-36.9 -65.1 L-36.3 -65.0 -36.0 -64.4 -36.2 -64.1 -37.1 -64.0 Q-37.3 -63.45 -37.3 -64.45 L-37.3 -64.8 -37.8 -64.8 Q-38.0 -64.85 -38.0 -65.5 -38.0 -66.15 -37.7 -66.25 L-37.0 -66.3 -36.8 -65.85 -36.9 -65.1 M-1.1 -62.0 Q-0.8 -61.55 -0.8 -61.1 L-1.2 -60.6 -1.8 -60.8 -1.9 -61.25 -1.8 -62.0 -1.1 -62.0 M-14.5 -63.2 Q-13.85 -62.95 -13.9 -61.8 -14.4 -61.5 -15.1 -61.5 -15.4 -61.8 -15.4 -63.2 L-14.5 -63.2 M-14.3 -63.9 Q-14.6 -63.35 -14.6 -64.35 L-14.5 -65.1 -13.5 -64.9 -13.4 -64.3 Q-13.6 -64.0 -14.3 -63.9 M-11.0 -53.3 L-10.6 -52.7 -10.8 -52.1 -11.9 -51.9 -12.2 -52.5 -12.1 -53.3 -11.0 -53.3 M-46.2 -68.3 Q-45.9 -67.85 -45.9 -66.8 -46.0 -66.5 -46.7 -66.4 L-46.85 -66.6 -46.9 -67.3 -46.8 -68.3 -46.2 -68.3 M-51.05 -49.85 L-50.3 -50.1 Q-50.5 -49.9 -50.8 -49.8 L-51.05 -49.85 M-46.4 -53.6 Q-46.9 -53.8 -46.9 -54.3 L-45.9 -54.1 Q-46.0 -53.8 -46.4 -53.6 M-46.8 -41.6 L-46.9 -41.0 -47.4 -40.9 -47.6 -41.8 Q-47.05 -41.95 -46.8 -41.6 M-5.2 -48.4 L-6.0 -48.2 -6.75 -48.35 -6.9 -48.7 -6.05 -49.15 Q-5.65 -49.2 -5.1 -48.8 L-5.2 -48.4 M-3.8 -42.75 L-3.7 -43.5 -2.7 -43.3 -2.5 -42.7 Q-2.8 -42.4 -3.5 -42.3 -3.8 -41.75 -3.8 -42.75 M-14.2 -47.6 Q-14.6 -47.3 -15.2 -47.1 L-15.7 -47.2 -15.8 -47.9 -15.6 -48.7 -15.0 -48.8 Q-14.6 -48.5 -14.2 -47.6 M-30.05 -45.4 L-29.9 -45.45 -30.0 -45.4 -30.05 -45.4 M-39.3 -46.4 L-39.3 -46.3 -40.0 -45.4 Q-39.4 -44.5 -38.8 -44.4 L-37.9 -44.8 -39.3 -46.4 M-36.8 -38.75 L-36.7 -38.8 -36.8 -38.85 -36.8 -38.75" fill="#afbfc2" fill-rule="evenodd" stroke="none"/>
    </g>
  </defs>
</svg>
