<?xml version="1.0" encoding="UTF-8" standalone="no"?>
<svg xmlns:ffdec="https://www.free-decompiler.com/flash" xmlns:xlink="http://www.w3.org/1999/xlink" ffdec:objectType="frame" height="100.35px" width="149.7px" xmlns="http://www.w3.org/2000/svg">
  <g transform="matrix(1.0, 0.0, 0.0, 1.0, 54.25, 88.15)">
    <use ffdec:characterId="59" height="62.1" transform="matrix(1.0, 0.0, 0.0, 1.0, -53.2, -61.3)" width="147.3" xlink:href="#shape0"/>
  </g>
  <defs>
    <g id="shape0" transform="matrix(1.0, 0.0, 0.0, 1.0, 53.2, 61.3)">
      <path d="M39.95 -44.55 L40.3 -44.9 Q41.8 -44.9 41.8 -44.0 L41.7 -42.8 40.0 -42.5 Q39.85 -42.65 39.8 -43.35 L39.4 -42.85 Q38.85 -42.2 38.7 -41.4 L38.65 -40.5 38.4 -39.6 37.0 -39.1 35.9 -39.2 35.7 -40.1 35.3 -40.6 34.05 -40.25 33.4 -39.9 31.9 -40.0 31.7 -40.6 30.5 -40.9 28.9 -40.6 Q28.3 -40.25 27.75 -39.3 L27.35 -38.65 26.2 -37.3 Q26.0 -36.9 25.0 -36.9 L23.8 -37.1 22.4 -37.3 Q21.9 -38.05 21.65 -39.0 L21.4 -39.55 21.5 -39.7 21.4 -40.2 20.2 -40.1 18.8 -40.2 18.7 -40.45 18.55 -40.5 18.5 -40.85 18.3 -41.1 18.4 -41.4 18.55 -41.4 Q18.7 -42.25 20.2 -44.8 L20.75 -43.85 20.8 -43.2 20.9 -42.25 22.0 -41.8 21.95 -41.65 22.0 -41.65 23.0 -41.65 23.1 -42.1 Q23.4 -43.1 23.9 -43.3 L24.1 -42.3 24.25 -41.75 24.55 -41.8 25.05 -42.35 26.0 -43.2 Q26.3 -42.9 26.3 -41.8 L28.5 -42.35 31.8 -42.8 Q32.2 -43.0 33.0 -44.1 33.75 -45.1 34.4 -45.2 L34.5 -44.15 34.4 -43.0 37.6 -42.65 37.8 -42.7 38.55 -43.55 39.6 -44.4 39.85 -44.2 39.95 -44.55 M21.9 -40.15 L21.55 -40.45 21.75 -40.0 21.9 -40.15 M20.7 -38.3 L20.0 -37.8 Q19.3 -37.9 19.0 -38.2 L19.4 -38.65 20.2 -38.9 20.45 -38.7 20.7 -38.3 M29.6 -33.2 L30.5 -31.05 Q30.9 -29.75 32.4 -29.9 L33.0 -29.75 33.2 -28.9 33.15 -28.2 32.3 -28.3 31.2 -27.2 Q29.45 -27.2 28.8 -29.1 28.5 -29.95 28.5 -31.2 28.5 -31.75 29.6 -33.2 M21.1 -32.7 Q20.7 -32.4 20.4 -32.4 19.9 -32.6 19.6 -32.9 L20.35 -33.8 20.8 -34.3 Q21.3 -34.1 21.6 -33.2 L21.1 -32.7 M24.5 -26.8 Q26.0 -27.25 26.7 -28.35 27.6 -29.95 28.2 -30.0 L28.35 -30.05 28.5 -29.4 28.3 -27.95 28.1 -26.45 28.1 -26.4 28.1 -25.15 28.25 -24.25 28.35 -24.35 Q28.8 -24.85 29.2 -24.7 L30.2 -23.3 29.55 -22.5 30.6 -22.5 30.9 -22.4 31.0 -21.75 Q31.0 -20.75 30.9 -21.3 L30.3 -20.8 30.95 -20.0 Q30.7 -19.1 30.7 -17.7 L31.1 -16.5 Q32.0 -15.3 34.4 -15.3 37.35 -15.3 38.6 -18.0 L39.2 -19.7 Q40.6 -20.9 41.0 -21.8 L41.9 -23.0 Q42.35 -23.45 43.8 -23.8 L43.75 -24.95 Q43.75 -25.75 44.6 -26.0 L45.05 -25.5 45.3 -24.5 44.8 -22.2 43.8 -19.7 Q43.35 -19.7 42.95 -19.95 L42.3 -20.4 40.8 -17.7 Q40.45 -17.0 40.7 -16.2 L41.0 -15.15 40.7 -14.05 40.0 -13.3 38.3 -13.1 Q37.65 -11.85 36.0 -10.8 29.3 -12.25 28.9 -16.65 L28.6 -19.95 28.2 -20.9 28.35 -21.1 27.85 -22.0 Q27.35 -23.05 26.25 -23.1 L26.05 -23.0 24.75 -21.2 Q22.85 -18.7 22.0 -18.3 L18.9 -18.4 17.75 -22.15 Q16.9 -24.3 16.0 -24.3 14.15 -24.3 13.45 -23.25 12.95 -21.9 12.4 -21.4 L10.7 -21.2 10.45 -19.65 Q10.1 -18.55 8.8 -18.3 L7.2 -18.3 6.3 -19.35 6.0 -19.7 5.55 -20.6 5.0 -22.1 4.4 -22.4 4.2 -22.1 Q2.65 -22.05 1.15 -20.8 L-0.3 -19.5 -0.4 -19.4 -0.55 -19.5 -2.65 -19.65 -3.1 -19.25 Q-4.25 -17.4 -5.0 -16.9 L-6.7 -16.9 Q-7.6 -17.1 -8.65 -18.4 -9.65 -19.7 -9.9 -20.7 -10.3 -22.55 -10.3 -24.6 -10.3 -26.0 -9.45 -28.35 L-9.2 -28.95 -9.6 -28.7 -11.1 -28.8 -11.3 -29.7 -11.6 -29.9 Q-12.2 -29.3 -12.8 -27.3 -13.25 -25.75 -14.8 -25.2 L-16.0 -25.5 Q-18.1 -25.5 -19.7 -24.15 -20.95 -22.8 -21.2 -22.8 -21.7 -22.8 -22.3 -23.15 L-23.8 -23.7 Q-24.8 -24.85 -25.55 -26.55 -26.4 -28.35 -26.4 -29.55 -26.4 -31.6 -25.1 -34.15 -24.4 -35.6 -24.45 -37.7 -26.05 -37.05 -26.8 -36.4 L-27.8 -36.5 Q-28.85 -37.05 -29.1 -37.85 L-29.2 -39.05 Q-29.2 -40.75 -28.3 -43.55 L-27.05 -46.35 Q-28.35 -45.5 -29.6 -45.0 L-30.7 -45.2 Q-31.05 -45.7 -31.2 -46.7 L-31.6 -48.2 -32.6 -48.5 Q-33.2 -49.25 -33.05 -50.25 L-32.85 -51.35 -33.95 -52.2 -34.0 -52.2 -34.9 -52.45 -35.25 -52.85 Q-35.45 -52.7 -35.6 -52.6 L-36.6 -52.7 -36.6 -53.05 Q-37.1 -52.7 -37.6 -52.7 L-38.4 -52.8 -38.9 -53.1 -38.9 -55.4 -39.9 -55.6 -40.1 -56.2 -40.05 -56.45 Q-40.85 -55.85 -42.15 -55.1 L-45.2 -53.1 -47.9 -53.2 -48.5 -53.95 Q-48.9 -54.4 -48.9 -55.0 L-48.8 -56.2 -48.0 -56.7 -47.4 -55.7 Q-47.3 -55.4 -46.65 -55.4 L-42.4 -55.7 -41.05 -56.7 Q-39.95 -57.4 -39.4 -57.5 L-39.2 -57.2 -39.35 -57.0 Q-38.7 -56.85 -37.75 -56.3 L-36.9 -55.8 -36.9 -55.9 -36.35 -55.75 -35.8 -55.5 Q-33.95 -55.6 -33.0 -56.3 L-31.75 -56.8 Q-32.8 -55.95 -32.8 -54.6 L-32.8 -54.5 -32.4 -54.8 -32.05 -54.45 -32.2 -53.6 -32.1 -52.85 Q-31.75 -52.2 -30.4 -52.2 -29.25 -52.2 -28.5 -52.8 L-27.95 -53.35 Q-27.1 -53.7 -26.3 -54.3 L-25.8 -54.65 -25.85 -54.1 Q-28.1 -52.4 -28.1 -50.6 L-27.9 -49.7 Q-27.45 -48.9 -26.2 -48.9 -25.35 -48.9 -24.3 -50.35 L-24.2 -49.7 -23.1 -50.1 -23.0 -49.65 -25.5 -45.9 -25.6 -45.55 Q-26.3 -44.7 -26.3 -42.5 L-26.2 -41.15 Q-25.7 -39.9 -24.0 -39.9 L-23.0 -40.15 -23.0 -39.75 -22.9 -38.9 Q-22.5 -38.2 -21.2 -38.2 -20.9 -38.2 -20.4 -38.55 L-20.4 -38.3 Q-19.4 -38.6 -18.15 -40.4 L-16.3 -42.6 -16.2 -42.75 Q-16.1 -42.75 -16.1 -42.15 -16.1 -41.85 -16.65 -40.95 L-17.2 -39.6 Q-17.2 -38.0 -17.6 -37.6 L-19.9 -35.55 -20.5 -34.95 -20.9 -34.95 Q-23.0 -34.75 -23.0 -32.05 L-23.0 -31.05 Q-22.65 -30.25 -21.3 -30.2 L-21.2 -29.2 Q-20.8 -28.3 -19.4 -28.3 -17.4 -28.3 -15.7 -30.0 -14.1 -31.6 -14.1 -33.15 L-14.15 -33.8 Q-12.9 -34.45 -12.6 -35.55 -12.1 -37.3 -11.6 -37.7 L-10.7 -37.6 -11.0 -36.4 -11.0 -33.4 -10.85 -33.25 -10.0 -33.1 Q-8.8 -33.1 -8.55 -33.75 -8.2 -34.8 -7.5 -35.2 L-5.55 -35.4 -4.2 -36.0 -4.05 -36.05 Q-3.9 -36.0 -3.9 -35.4 -3.9 -34.8 -4.5 -33.9 L-5.5 -32.85 -6.5 -30.8 -8.0 -27.05 -8.0 -27.0 Q-8.9 -26.6 -8.9 -25.3 L-8.8 -24.7 Q-8.4 -23.95 -7.3 -23.9 L-7.3 -23.85 Q-7.3 -22.95 -5.6 -21.7 L-4.4 -21.7 Q-1.65 -23.15 -1.0 -24.45 L-0.75 -25.25 0.1 -25.9 Q1.1 -26.85 1.1 -27.7 L1.1 -27.85 Q2.15 -28.7 2.55 -30.4 2.95 -32.2 4.0 -32.8 L4.35 -32.7 4.8 -32.4 Q4.45 -32.05 4.1 -30.9 L3.6 -29.4 4.05 -29.25 Q3.9 -28.4 3.9 -27.0 L4.0 -25.8 Q4.45 -24.6 6.2 -24.6 L6.95 -24.8 7.0 -24.0 Q7.35 -23.0 8.4 -23.0 9.15 -23.0 10.1 -24.0 L10.9 -25.05 11.4 -25.0 Q12.5 -25.0 13.6 -26.1 14.6 -27.05 14.6 -27.6 L14.35 -28.45 14.2 -28.55 15.2 -29.15 16.6 -29.8 16.6 -30.25 Q16.6 -30.7 17.0 -31.25 L16.4 -31.0 15.7 -31.0 Q15.5 -31.05 15.5 -31.65 15.5 -32.35 15.65 -32.55 L16.0 -32.8 17.3 -32.1 17.3 -31.65 19.0 -33.1 19.1 -33.15 19.2 -32.5 18.85 -30.45 Q18.5 -28.95 18.5 -28.45 L18.4 -27.5 18.4 -27.45 18.4 -27.0 Q18.4 -26.35 18.6 -26.15 L18.65 -26.1 18.6 -25.55 Q18.6 -24.25 18.9 -23.6 19.4 -22.55 20.7 -22.5 L21.4 -22.4 Q23.2 -22.4 24.0 -24.2 24.5 -25.3 24.5 -26.6 L24.5 -26.8 M36.5 -32.5 L37.4 -30.8 38.7 -28.9 39.2 -29.5 39.75 -29.5 39.9 -28.8 38.8 -27.6 37.0 -27.7 36.55 -28.65 36.1 -28.7 Q35.9 -28.75 35.9 -29.4 L36.0 -30.05 35.8 -30.7 36.2 -32.5 36.5 -32.5 M32.0 -31.2 L31.9 -30.6 31.4 -30.5 31.2 -31.4 Q31.75 -31.55 32.0 -31.2 M31.4 -25.2 Q31.7 -24.9 31.7 -24.0 31.6 -23.7 30.9 -23.6 L30.75 -23.7 30.7 -24.35 30.8 -25.2 31.4 -25.2 M37.1 -28.6 L37.2 -28.6 37.15 -28.85 37.0 -28.75 37.1 -28.6 M17.1 -44.45 Q17.1 -44.0 16.7 -43.75 16.15 -43.45 13.6 -42.5 13.35 -42.4 12.65 -41.75 12.05 -41.2 11.8 -41.2 10.25 -41.2 8.5 -41.9 7.0 -42.55 7.0 -42.75 L7.1 -44.4 7.8 -45.0 Q8.05 -44.6 7.7 -43.9 L8.85 -43.65 8.9 -43.3 Q9.35 -42.55 10.55 -42.35 L11.0 -42.0 12.6 -42.0 Q14.15 -42.8 14.75 -43.3 L15.45 -44.2 Q16.05 -44.6 16.2 -45.3 L16.9 -45.2 17.1 -44.45 M2.7 -44.9 L3.05 -44.7 3.2 -44.0 Q3.2 -43.55 1.0 -42.6 L-0.1 -42.8 -0.3 -43.7 1.5 -44.0 Q2.1 -44.0 2.35 -44.4 L2.7 -44.9 M6.5 -38.5 L6.0 -38.0 Q5.5 -38.2 5.5 -38.7 L6.5 -38.5 M5.2 -33.8 L3.9 -33.7 3.8 -33.7 3.7 -34.35 3.75 -35.05 3.8 -35.0 5.3 -34.9 5.5 -34.3 5.2 -33.8 M0.2 -35.2 L-0.3 -35.2 -0.5 -36.3 0.5 -36.1 0.2 -35.2 M19.7 -35.7 L18.95 -34.75 17.6 -34.8 Q18.1 -36.35 18.4 -36.5 L19.4 -36.3 19.7 -35.7 M10.9 -28.9 L10.4 -28.7 Q9.8 -28.95 9.8 -29.8 10.2 -30.2 11.0 -29.8 L10.9 -28.9 M29.05 -22.4 L29.45 -21.9 29.5 -22.5 29.05 -22.4 M26.1 -22.5 L26.35 -22.75 26.15 -22.5 26.1 -22.5 M27.5 -24.6 L27.45 -24.45 27.5 -24.4 27.5 -24.6 M78.35 -25.9 L78.0 -25.5 Q77.4 -25.7 77.2 -26.0 L77.8 -26.35 78.5 -26.5 78.35 -25.9 M60.5 -44.45 L60.65 -44.4 60.7 -44.1 60.65 -43.85 60.4 -43.7 59.9 -43.9 60.5 -44.45 M51.15 -37.15 Q51.2 -37.0 50.7 -37.0 L50.2 -37.1 Q50.2 -37.95 50.6 -38.15 L51.2 -37.55 51.15 -37.15 M60.1 -42.35 L59.55 -41.7 Q58.75 -41.2 58.4 -40.35 L58.2 -41.05 Q58.2 -41.65 58.6 -42.05 L59.4 -43.15 60.05 -43.1 60.15 -43.05 60.15 -42.9 60.2 -42.9 60.35 -42.6 60.1 -42.35 M50.5 -35.75 L51.3 -35.75 52.4 -35.05 Q53.8 -35.2 54.3 -36.0 54.85 -36.85 55.9 -37.05 L56.6 -38.2 57.4 -36.8 56.8 -36.2 Q56.05 -36.5 55.35 -36.0 54.8 -35.55 54.8 -35.2 54.8 -34.8 55.6 -33.7 55.6 -33.3 54.0 -32.2 L53.3 -32.25 52.7 -32.45 Q51.9 -33.65 52.0 -34.1 51.3 -34.3 50.85 -34.9 L50.4 -35.6 50.5 -35.75 M48.0 -34.3 L47.1 -33.0 46.2 -31.7 Q45.35 -31.55 44.4 -31.05 L43.4 -30.5 42.1 -30.5 41.6 -29.7 Q41.1 -29.95 41.1 -30.5 41.3 -30.85 41.75 -30.65 L41.25 -31.25 Q41.0 -31.65 41.0 -32.3 L41.2 -33.5 41.7 -33.15 42.2 -32.4 45.9 -33.3 46.6 -33.9 46.8 -34.0 46.7 -34.0 46.5 -34.9 47.6 -34.7 47.3 -34.2 48.0 -34.3 M43.8 -27.15 Q43.8 -28.2 44.5 -28.2 L45.4 -27.3 45.0 -26.7 44.1 -26.7 Q43.8 -26.15 43.8 -27.15 M51.0 -15.75 L51.1 -15.15 Q51.1 -14.15 50.8 -14.8 50.0 -14.95 50.0 -15.8 50.55 -15.95 50.9 -15.6 L51.0 -15.75 M51.8 -14.1 L53.5 -12.6 Q53.6 -12.5 54.15 -12.35 L54.8 -12.1 Q55.65 -12.45 55.65 -13.25 L55.6 -14.7 56.2 -14.7 56.4 -13.5 55.85 -11.15 54.8 -8.8 53.7 -8.9 Q53.2 -9.5 52.35 -11.25 L51.2 -13.7 51.3 -13.85 51.8 -14.1 M52.5 -14.9 Q52.85 -15.0 54.1 -14.1 L53.9 -13.3 52.9 -13.2 52.5 -14.9 M49.5 -17.8 Q49.35 -18.95 50.6 -18.7 L50.8 -18.4 50.0 -17.6 49.5 -17.8 M64.2 -10.4 L64.1 -9.8 Q63.8 -9.5 63.3 -9.5 L63.05 -9.7 63.0 -10.4 63.2 -11.2 63.8 -11.3 Q64.2 -10.9 64.2 -10.4 M65.3 -7.7 L64.8 -7.2 64.6 -7.3 64.9 -6.15 Q65.2 -5.15 67.1 -5.1 L67.1 -4.8 Q66.5 -4.2 65.8 -4.2 64.8 -4.8 63.8 -5.0 L62.9 -8.3 64.1 -8.3 64.2 -8.3 Q64.75 -8.25 65.3 -7.7 M69.65 -4.2 L70.6 -4.3 70.7 -4.45 70.8 -3.85 70.7 -3.1 70.1 -2.95 69.3 -2.8 Q69.1 -2.4 69.1 -3.4 69.1 -4.05 69.65 -4.2 M70.1 -2.0 L70.4 -2.3 71.9 -1.3 73.2 -0.9 Q73.8 -1.25 74.5 -2.7 L75.3 -4.2 75.5 -4.1 75.5 -3.45 Q75.5 -2.8 74.7 -1.15 73.8 0.55 73.2 0.8 L71.3 0.7 70.6 -0.35 70.0 -1.4 70.1 -2.0 M78.1 -8.35 L78.05 -7.6 Q77.8 -7.0 76.8 -6.8 L76.15 -6.9 Q75.9 -7.0 75.9 -7.65 L76.3 -8.3 77.7 -9.7 77.95 -9.3 78.1 -8.35 M72.1 -6.2 L72.7 -5.3 Q72.5 -5.0 71.8 -5.0 L71.7 -6.2 72.1 -6.2 M72.6 -3.5 L72.8 -3.3 72.8 -2.6 72.8 -1.9 72.6 -1.7 71.8 -1.7 71.65 -1.8 71.6 -2.45 71.7 -3.4 72.6 -3.5 M92.9 -12.8 L92.7 -13.4 92.8 -14.0 93.8 -14.0 94.1 -13.7 93.65 -13.15 Q93.25 -12.8 92.9 -12.8 M87.5 -16.7 L88.5 -16.5 Q88.5 -15.9 88.2 -15.6 L87.7 -15.6 87.5 -16.7 M88.2 -14.9 L88.3 -14.3 88.3 -14.1 87.3 -14.0 Q87.1 -14.3 87.1 -15.1 L88.2 -14.9 M89.2 -12.4 L89.1 -11.8 88.1 -11.6 87.9 -12.2 88.0 -12.8 89.0 -12.7 89.2 -12.4 M90.2 -11.1 Q90.0 -10.5 89.6 -10.3 88.9 -10.4 88.7 -10.7 L89.2 -11.15 90.1 -11.4 90.2 -11.1 M89.9 -10.5 L90.4 -11.5 91.3 -11.35 92.5 -11.3 92.6 -11.45 92.7 -10.85 Q92.7 -10.25 92.35 -9.85 L91.8 -9.2 90.4 -8.7 89.7 -8.8 Q89.5 -8.4 89.5 -9.4 89.5 -9.95 89.9 -10.5 M-31.3 -57.8 L-30.7 -58.0 -30.0 -57.8 -29.9 -57.5 Q-30.5 -56.9 -31.0 -56.9 L-31.3 -57.8 M-28.7 -60.5 Q-28.7 -59.9 -29.0 -59.6 L-29.5 -59.6 -29.7 -60.7 -28.7 -60.5 M-21.2 -55.2 L-20.4 -56.0 -19.6 -55.9 -19.6 -54.1 Q-19.3 -54.2 -19.3 -55.4 L-19.45 -55.55 -18.85 -55.7 Q-18.25 -55.7 -18.1 -55.3 L-18.0 -55.0 -17.2 -55.6 -16.8 -55.75 Q-16.4 -55.8 -16.4 -55.2 -16.4 -54.95 -18.0 -53.2 L-20.2 -53.3 -20.45 -54.3 Q-20.7 -54.9 -21.2 -55.2 M-22.85 -53.2 Q-22.15 -53.5 -21.5 -52.7 L-21.4 -51.8 Q-21.6 -51.3 -22.6 -51.3 L-23.3 -51.4 -23.3 -51.5 -23.45 -51.6 -23.45 -51.65 -22.9 -53.15 -22.85 -53.2 M-15.9 -57.3 L-16.1 -56.8 -16.8 -56.6 Q-17.5 -56.7 -17.8 -57.0 -17.5 -57.9 -16.2 -57.9 L-15.9 -57.3 M-7.85 -50.7 L-6.9 -51.4 Q-6.7 -51.1 -7.0 -50.5 -7.0 -50.1 -6.4 -49.65 L-5.4 -48.8 Q-4.2 -47.4 -4.55 -47.0 -4.7 -46.75 -5.1 -46.7 L-4.95 -45.7 Q-4.9 -45.35 -5.0 -45.2 L-3.3 -44.45 -3.1 -44.35 -2.95 -45.05 -2.6 -45.2 -1.8 -45.1 -1.6 -43.6 -1.8 -43.0 -2.2 -42.8 -2.25 -42.8 -2.4 -42.7 -4.0 -42.7 -4.1 -42.6 -5.25 -42.7 -6.4 -43.0 Q-7.4 -44.0 -7.4 -45.25 L-7.3 -46.15 -6.95 -47.05 -6.4 -47.8 -7.6 -48.1 -8.25 -48.75 -8.5 -49.75 -7.85 -50.7 M-51.0 -59.6 Q-51.0 -60.1 -50.4 -60.6 L-49.1 -61.3 Q-48.95 -60.9 -49.25 -60.45 -49.5 -60.1 -48.7 -58.9 -48.85 -58.4 -49.2 -58.3 L-50.7 -58.7 -50.95 -58.9 -51.0 -59.6 M-40.6 -46.7 L-40.5 -46.75 -40.4 -46.1 Q-40.4 -45.5 -41.2 -44.3 L-42.0 -42.65 -42.0 -42.45 -42.2 -41.15 -41.85 -39.5 Q-41.2 -37.5 -39.6 -37.5 L-39.2 -37.5 -39.15 -37.05 -39.05 -36.35 -38.45 -36.8 -36.8 -37.55 -35.9 -39.3 -35.75 -39.1 -35.7 -38.4 -35.75 -37.6 Q-37.5 -36.2 -37.5 -34.35 L-37.4 -33.35 Q-36.95 -32.5 -35.4 -32.5 -34.1 -32.5 -33.3 -33.7 L-33.6 -32.3 Q-33.7 -31.3 -37.4 -29.3 -39.0 -29.3 -39.05 -30.5 -38.85 -32.05 -39.1 -32.8 -40.45 -32.8 -41.6 -31.85 L-42.8 -30.5 -44.5 -30.3 -45.45 -28.85 Q-46.15 -27.7 -46.4 -27.6 -51.1 -27.95 -52.45 -28.75 -53.2 -29.2 -53.2 -30.5 L-52.35 -32.35 -51.4 -33.9 -51.1 -32.85 -50.5 -31.8 -50.2 -31.55 -49.2 -31.3 Q-46.85 -31.3 -45.05 -32.1 L-44.6 -33.05 -44.55 -33.1 -44.7 -33.3 -43.2 -35.2 Q-42.2 -36.6 -42.2 -37.5 -42.2 -38.4 -43.65 -39.45 -45.0 -40.45 -44.7 -41.7 L-44.8 -41.9 Q-46.85 -41.6 -48.7 -40.2 L-51.0 -40.2 -52.05 -41.2 -52.2 -41.4 -52.55 -41.65 -52.7 -42.45 -52.35 -43.5 -52.4 -43.5 Q-53.0 -43.75 -53.0 -44.6 -52.6 -45.0 -51.8 -44.6 L-51.8 -44.1 -51.6 -44.3 -51.1 -44.2 Q-50.95 -44.0 -51.3 -43.0 L-51.4 -42.6 -50.8 -42.4 -49.8 -42.55 -48.4 -42.8 Q-47.65 -43.0 -47.5 -43.6 -47.35 -44.25 -46.8 -44.4 L-45.95 -44.25 -44.4 -44.1 Q-42.3 -44.1 -41.6 -45.3 L-40.6 -46.7 M-50.9 -45.05 L-50.4 -44.8 -50.8 -44.4 -51.5 -44.9 -50.9 -45.05 M-51.8 -45.2 L-52.3 -45.2 Q-52.5 -44.8 -52.5 -45.8 -52.5 -47.25 -51.2 -46.4 L-51.8 -45.2 M-52.9 -35.0 Q-52.9 -36.0 -51.4 -36.0 L-51.1 -35.7 Q-51.35 -34.95 -52.0 -34.3 L-52.7 -34.4 Q-52.9 -34.0 -52.9 -35.0 M-52.4 -32.8 L-52.9 -33.15 -52.7 -33.9 Q-52.1 -33.9 -51.9 -33.3 -52.0 -33.0 -52.4 -32.8 M-9.8 -44.6 L-8.6 -44.9 -8.2 -44.3 Q-8.55 -43.75 -9.2 -43.5 -9.8 -43.75 -9.8 -44.6 M-10.1 -42.1 L-11.1 -42.0 -11.3 -42.6 -11.2 -43.2 -10.2 -43.2 -9.9 -42.9 -10.1 -42.1 M-9.1 -38.4 L-9.2 -38.1 -10.0 -37.8 -10.75 -37.8 -11.0 -38.5 -10.8 -39.3 -10.4 -39.4 -9.5 -39.3 -9.1 -38.4 M-5.45 -38.25 L-4.7 -38.1 -4.3 -37.5 Q-4.6 -37.2 -5.5 -37.1 -5.8 -36.55 -5.8 -37.55 -5.8 -38.2 -5.45 -38.25 M-1.4 -35.7 L-1.0 -35.4 Q-1.0 -35.15 -1.3 -34.8 -1.6 -34.4 -2.0 -34.2 L-3.2 -34.6 -2.3 -35.4 -1.4 -35.7 M-38.6 -48.8 L-38.3 -48.5 Q-38.3 -47.9 -38.6 -47.6 L-39.5 -47.6 -39.7 -48.2 -39.6 -48.8 -38.6 -48.8 M-36.2 -40.9 L-36.0 -41.7 -35.6 -41.8 -35.25 -41.7 -34.7 -41.4 -34.6 -40.95 -34.7 -40.5 -35.2 -40.2 -35.95 -40.2 -36.2 -40.9 M-31.5 -35.7 L-31.4 -35.25 Q-31.6 -34.4 -32.4 -33.9 -33.0 -34.1 -33.2 -34.4 L-32.5 -35.25 Q-32.05 -35.7 -31.5 -35.7 M-38.1 -33.95 L-38.05 -34.05 -38.45 -34.0 -38.4 -33.9 -38.1 -33.95" fill="#afbfc2" fill-rule="evenodd" stroke="none"/>
    </g>
  </defs>
</svg>
