<?xml version="1.0" encoding="UTF-8" standalone="no"?>
<svg xmlns:ffdec="https://www.free-decompiler.com/flash" xmlns:xlink="http://www.w3.org/1999/xlink" ffdec:objectType="frame" height="100.35px" width="149.7px" xmlns="http://www.w3.org/2000/svg">
  <g transform="matrix(1.0, 0.0, 0.0, 1.0, 54.25, 88.15)">
    <use ffdec:characterId="60" height="62.8" transform="matrix(1.0, 0.0, 0.0, 1.0, -54.25, -59.15)" width="146.55" xlink:href="#shape0"/>
  </g>
  <defs>
    <g id="shape0" transform="matrix(1.0, 0.0, 0.0, 1.0, 54.25, 59.15)">
      <path d="M21.2 -37.75 Q21.2 -37.4 20.5 -37.0 19.8 -36.6 19.8 -36.2 19.8 -35.55 21.6 -34.6 L22.7 -34.35 23.3 -33.75 23.45 -33.0 24.5 -33.0 24.65 -32.85 24.6 -32.6 25.3 -32.5 Q25.65 -32.5 25.9 -32.8 L26.4 -33.25 26.9 -33.2 27.05 -32.6 Q27.05 -32.3 26.45 -31.7 25.75 -30.95 25.0 -30.95 22.25 -30.95 21.6 -31.8 L21.4 -32.95 Q21.0 -34.6 18.55 -34.8 L18.3 -34.75 Q18.4 -35.0 18.75 -35.1 18.45 -35.3 18.3 -35.45 L18.25 -35.7 18.7 -36.75 Q19.25 -37.6 19.75 -37.85 L19.6 -38.45 20.3 -38.55 Q21.35 -38.55 21.2 -37.75 M29.4 -35.6 Q31.25 -35.4 32.15 -36.1 33.1 -36.85 33.45 -36.85 34.55 -36.85 35.2 -36.05 35.85 -35.25 36.9 -35.25 37.8 -35.25 38.5 -35.75 39.35 -36.4 40.3 -36.6 L40.8 -37.1 41.5 -37.05 41.7 -36.45 Q41.7 -35.15 39.5 -35.6 L38.85 -35.2 Q38.6 -35.05 38.9 -34.85 L38.9 -34.55 38.6 -34.1 37.35 -33.5 36.1 -32.8 35.2 -32.75 34.6 -33.15 33.9 -33.25 33.2 -34.15 32.4 -35.05 30.8 -35.05 Q30.4 -34.95 30.1 -34.3 L29.2 -33.55 27.85 -33.6 27.65 -33.75 27.55 -34.2 27.6 -34.6 27.8 -34.65 28.4 -34.75 29.4 -35.6 M27.9 -28.5 L28.2 -28.9 28.85 -28.65 28.75 -28.4 28.4 -28.3 27.9 -28.5 M26.85 -27.1 L26.9 -27.15 26.95 -26.8 26.55 -25.5 25.7 -23.65 25.25 -23.65 25.0 -25.1 Q25.0 -25.8 25.45 -26.25 L26.85 -27.1 M29.55 -27.2 L29.6 -27.5 29.6 -27.4 31.6 -27.45 31.7 -27.35 31.8 -27.0 31.25 -26.4 30.5 -26.1 Q30.2 -26.1 29.85 -26.6 L29.55 -27.2 M32.7 -28.45 L32.9 -28.3 33.05 -28.0 32.6 -27.55 32.25 -27.65 32.15 -28.05 32.2 -28.4 32.7 -28.45 M0.0 -38.55 L0.0 -38.9 0.1 -39.35 1.55 -39.3 Q1.5 -38.9 1.1 -38.6 L0.5 -38.4 0.15 -38.45 0.15 -38.5 0.0 -38.55 M7.6 -37.95 L7.0 -38.05 6.95 -38.65 Q6.95 -39.35 7.45 -39.25 8.0 -39.15 8.5 -38.35 8.25 -37.95 7.6 -37.95 M4.6 -29.7 L4.7 -29.4 Q4.4 -29.05 4.0 -28.85 L3.45 -29.4 3.55 -29.85 4.6 -29.7 M3.3 -25.65 L3.35 -25.05 3.05 -24.2 2.7 -23.55 Q2.2 -22.65 2.2 -22.25 L3.0 -21.35 2.8 -20.9 2.6 -20.45 2.8 -19.9 3.9 -19.75 5.45 -17.85 6.7 -17.7 7.3 -17.85 7.9 -17.7 Q7.9 -17.35 8.2 -17.05 10.65 -17.35 11.8 -18.85 12.95 -20.2 14.6 -20.45 L15.0 -20.8 16.1 -22.75 Q15.85 -22.75 15.75 -22.85 L15.6 -23.05 Q15.85 -24.25 16.85 -24.25 L16.85 -24.1 17.6 -25.25 18.05 -25.05 17.6 -23.95 17.2 -22.65 17.25 -22.35 17.5 -21.75 17.8 -21.0 17.7 -20.85 Q17.45 -20.9 17.3 -21.15 L17.1 -21.1 16.8 -21.05 16.5 -20.55 15.0 -20.0 14.7 -19.65 14.5 -18.75 13.3 -17.95 Q12.35 -17.4 12.15 -17.05 L11.3 -15.25 9.8 -14.65 8.4 -14.05 7.1 -14.1 5.85 -14.9 Q5.0 -15.6 5.0 -16.45 L5.0 -17.65 4.8 -18.0 4.65 -18.15 4.1 -18.5 3.15 -18.8 Q2.3 -18.8 1.4 -17.65 L0.2 -16.25 -1.0 -16.3 -2.05 -16.15 -2.85 -15.2 Q-3.2 -14.35 -3.5 -14.05 L-5.8 -13.95 -6.4 -13.65 -6.8 -13.4 Q-9.05 -13.4 -9.95 -15.45 L-10.0 -15.45 Q-10.45 -15.45 -10.55 -15.8 L-10.55 -16.15 Q-10.55 -17.8 -9.35 -18.85 -8.2 -19.85 -8.2 -20.95 L-8.5 -21.9 -8.8 -22.9 -8.75 -23.4 Q-8.65 -23.7 -8.3 -23.55 L-7.9 -23.75 Q-7.35 -22.9 -7.35 -21.9 L-8.05 -18.3 Q-8.05 -17.8 -7.55 -17.6 L-7.65 -17.15 -7.15 -16.85 -5.2 -16.9 Q-4.9 -17.05 -4.9 -17.35 L-4.35 -17.8 -2.25 -17.9 Q-0.2 -19.55 1.0 -21.65 L2.4 -24.05 Q2.05 -24.6 2.05 -24.95 2.05 -25.65 3.3 -25.65 M16.95 -28.3 L17.2 -28.35 Q17.55 -28.2 17.55 -27.9 L17.45 -27.55 17.2 -27.45 16.95 -27.55 16.85 -27.95 16.95 -28.3 M17.2 -25.95 Q17.2 -25.2 16.5 -25.2 L16.0 -25.3 Q15.8 -25.8 16.15 -26.2 L17.05 -26.3 17.15 -26.25 17.2 -25.95 M16.65 -22.6 L16.8 -22.65 16.65 -22.65 16.65 -22.6 M17.75 -20.6 L18.0 -20.9 Q18.4 -20.65 18.65 -20.0 18.85 -19.4 19.55 -19.1 L21.0 -19.05 Q23.25 -19.05 24.3 -20.65 L25.5 -22.35 25.6 -21.9 Q25.6 -20.45 24.4 -19.05 24.2 -18.85 23.45 -18.6 L22.5 -18.0 21.6 -16.8 20.6 -16.6 19.3 -16.65 17.55 -18.6 Q17.9 -19.05 17.75 -19.7 L17.75 -20.6 M32.0 -13.55 L32.4 -12.8 Q32.85 -12.25 33.25 -12.1 L34.4 -12.15 Q34.8 -12.55 36.15 -12.85 37.45 -13.15 37.75 -13.55 L38.0 -14.45 Q38.2 -15.0 39.35 -15.35 L40.6 -18.45 41.05 -18.05 Q41.05 -17.3 39.6 -13.45 L40.1 -13.35 40.15 -13.45 40.2 -13.15 38.9 -12.05 Q38.6 -12.05 38.2 -12.75 36.85 -12.65 36.6 -12.0 36.5 -11.2 36.2 -10.85 L35.35 -10.1 Q34.8 -9.55 34.8 -8.75 L34.6 -8.6 33.7 -8.65 Q33.15 -9.25 32.95 -10.15 L32.6 -11.35 31.45 -12.45 30.0 -13.55 29.2 -12.65 Q28.5 -13.55 28.6 -14.25 L28.75 -14.75 28.7 -15.15 28.4 -15.4 Q28.25 -15.55 28.25 -15.85 L28.65 -16.6 29.05 -17.25 28.85 -17.75 28.65 -18.25 28.7 -18.85 28.85 -18.85 Q29.85 -16.75 30.6 -16.0 L31.2 -15.6 31.8 -14.9 32.05 -14.0 32.0 -13.55 M28.2 -22.8 L28.9 -22.75 Q29.25 -22.2 29.25 -21.5 L28.8 -20.25 Q28.2 -21.05 28.4 -21.4 L28.75 -21.65 28.45 -22.2 28.0 -22.6 28.2 -22.8 M43.8 -25.1 L43.65 -24.75 43.3 -24.65 42.1 -24.85 41.65 -25.0 41.55 -25.55 Q41.55 -26.0 42.2 -26.6 L45.65 -27.35 46.05 -28.0 Q46.35 -28.4 46.9 -28.2 L47.05 -28.15 47.05 -27.85 Q47.05 -27.0 44.6 -26.45 L44.3 -26.25 44.25 -25.8 44.05 -25.45 43.8 -25.1 M57.7 -34.25 L57.95 -33.8 57.2 -33.25 56.65 -33.35 Q56.5 -33.1 56.5 -33.6 56.5 -34.05 57.2 -34.3 L57.7 -34.25 M52.55 -31.3 L52.55 -31.15 52.7 -30.9 54.5 -30.15 54.55 -30.1 55.55 -30.25 56.0 -30.6 56.4 -30.55 56.45 -30.05 56.0 -29.35 Q55.55 -28.95 55.0 -28.95 L52.65 -29.2 52.45 -29.3 52.35 -29.65 52.6 -30.05 Q52.3 -30.55 52.25 -31.15 L52.0 -31.95 Q51.1 -32.75 51.1 -33.15 L51.2 -33.5 51.4 -33.5 51.9 -33.45 52.3 -32.35 52.55 -31.3 M55.5 -32.35 Q55.3 -32.05 55.1 -32.05 L54.9 -32.5 Q55.1 -32.7 55.45 -32.5 L55.5 -32.35 M44.25 -22.35 Q44.1 -22.15 44.1 -22.65 44.1 -23.0 44.85 -23.45 L44.95 -23.5 45.05 -23.15 44.25 -22.35 M42.05 -20.4 L41.3 -19.25 41.1 -19.25 Q40.95 -19.45 40.95 -19.8 L41.15 -20.85 Q41.4 -21.55 41.6 -21.6 42.1 -21.55 42.4 -21.2 L42.9 -21.7 43.3 -22.15 43.45 -20.95 42.95 -20.5 42.05 -20.4 M56.9 -11.6 L57.0 -11.65 57.05 -11.3 56.25 -9.3 55.6 -8.5 54.6 -7.6 Q52.9 -7.85 52.75 -8.65 52.65 -9.4 51.05 -9.55 50.9 -9.3 50.9 -9.8 L51.0 -10.9 51.6 -11.05 52.4 -10.85 52.25 -10.1 53.05 -9.5 55.4 -9.85 55.9 -10.3 55.7 -10.45 Q55.55 -10.6 55.55 -10.9 L56.4 -11.65 56.9 -11.6 M52.5 -11.5 L52.9 -11.65 53.15 -11.2 52.8 -10.95 Q52.5 -11.05 52.5 -11.5 M64.45 -5.9 L64.5 -5.7 64.45 -5.45 64.2 -5.3 63.8 -5.3 63.7 -5.65 63.8 -6.05 64.0 -6.1 64.45 -5.9 M64.05 -4.9 Q64.05 -4.45 64.5 -3.9 L66.0 -4.05 66.5 -4.0 66.6 -4.05 66.65 -3.7 Q66.1 -2.7 65.8 -2.75 64.9 -2.85 64.2 -3.4 L63.5 -4.25 63.6 -4.9 64.05 -4.9 M70.25 -0.6 L72.45 1.3 73.0 1.25 Q73.8 0.85 73.8 -0.15 73.8 -1.0 74.4 -1.05 L74.9 -1.0 75.05 -0.95 75.05 -0.65 74.25 0.95 73.95 1.95 74.05 2.3 Q73.65 3.5 73.2 3.65 L72.05 3.6 71.65 1.8 70.7 0.9 69.75 0.0 69.75 -0.45 69.85 -0.5 70.25 -0.6 M71.1 -1.1 L71.15 -0.8 Q71.15 -0.3 71.0 -0.6 70.6 -0.65 70.6 -1.1 L71.05 -1.0 71.1 -1.1 M90.2 -8.25 L91.25 -8.2 91.45 -7.8 90.3 -7.25 89.95 -7.35 89.85 -7.75 Q89.85 -8.1 90.2 -8.25 M92.3 -8.65 L91.8 -8.15 91.35 -8.55 Q91.45 -9.6 92.3 -8.65 M-39.05 -56.0 Q-39.05 -55.8 -39.35 -55.55 -39.7 -55.25 -40.0 -55.3 L-40.5 -55.95 -40.0 -56.5 -39.5 -56.45 -39.2 -56.35 -39.05 -56.0 M-38.95 -53.85 L-38.95 -54.85 Q-38.25 -54.85 -38.1 -54.15 L-36.15 -53.8 Q-35.25 -53.8 -34.4 -52.8 L-33.15 -51.55 -31.9 -51.85 -31.4 -52.3 -30.9 -52.25 -30.25 -51.5 Q-30.25 -50.95 -31.25 -50.5 -32.3 -50.0 -32.3 -49.35 L-32.25 -48.7 -31.35 -47.75 -30.3 -47.65 -30.1 -46.8 -28.4 -46.8 Q-27.9 -47.0 -27.8 -47.6 L-27.2 -48.45 -26.7 -48.4 -26.5 -47.65 Q-26.5 -47.1 -27.1 -46.45 -27.95 -45.65 -29.5 -45.25 -29.7 -43.65 -30.7 -43.4 L-31.5 -43.55 -32.75 -43.6 Q-33.7 -44.15 -33.9 -44.7 L-34.0 -45.5 -33.6 -47.35 Q-33.6 -48.3 -34.5 -48.35 L-34.7 -48.65 -34.15 -49.45 -33.8 -50.1 -34.1 -50.65 -34.4 -51.35 -35.5 -51.45 -36.8 -52.35 -37.5 -52.15 -38.1 -52.0 -39.1 -52.05 Q-39.4 -52.35 -39.4 -52.8 L-39.25 -53.4 -38.95 -53.85 M-33.45 -54.85 L-33.55 -55.2 -33.5 -55.5 -32.95 -55.45 -32.85 -55.15 -33.2 -54.85 -33.45 -54.85 M-28.7 -51.4 Q-28.95 -51.15 -29.4 -51.15 L-29.75 -51.25 -29.85 -51.65 Q-29.85 -52.15 -29.35 -52.25 -28.85 -52.3 -28.45 -51.8 L-28.7 -51.4 M-51.3 -59.1 L-50.5 -58.85 -49.85 -58.4 Q-50.0 -57.9 -50.6 -57.9 -51.5 -57.9 -51.5 -58.55 L-51.4 -58.95 -51.3 -59.1 M-41.7 -55.75 L-41.45 -55.65 -41.35 -55.25 Q-41.35 -54.65 -42.2 -54.1 -42.75 -53.8 -42.9 -53.95 L-43.0 -54.15 -44.3 -53.6 -45.85 -52.9 -46.55 -52.05 Q-46.65 -51.55 -47.0 -51.4 L-48.5 -51.45 -49.2 -52.45 -49.0 -52.9 -48.8 -53.35 -49.0 -53.85 -49.25 -54.4 -49.2 -54.9 -48.4 -55.05 -47.1 -54.6 -46.2 -54.05 Q-44.3 -54.1 -43.1 -54.95 L-42.2 -55.8 -41.7 -55.75 M-49.45 -58.85 L-49.4 -59.15 -49.2 -59.1 -48.95 -58.8 Q-49.0 -58.65 -49.35 -58.6 -49.45 -58.35 -49.45 -58.85 M-41.9 -44.4 L-41.75 -44.25 -41.75 -42.75 Q-41.65 -42.6 -42.15 -42.6 L-42.7 -42.85 -43.8 -42.8 Q-44.25 -43.0 -44.25 -43.45 -44.25 -44.1 -43.55 -44.25 L-42.4 -44.45 -41.9 -44.4 M-46.35 -41.2 L-45.8 -41.05 -45.75 -40.6 Q-45.75 -40.2 -47.0 -39.55 L-47.55 -39.6 -47.65 -40.2 -48.0 -40.35 -49.15 -40.1 Q-49.65 -39.9 -49.15 -39.65 -49.2 -39.35 -49.6 -39.2 -51.85 -39.2 -52.85 -40.1 -53.4 -40.6 -53.4 -41.25 L-53.1 -41.75 -52.85 -42.2 -53.05 -42.6 -53.25 -42.75 Q-53.1 -43.15 -52.3 -43.15 -52.1 -42.85 -52.3 -42.15 -52.2 -41.55 -50.8 -41.3 L-47.7 -41.0 -46.35 -41.2 M-42.55 -40.95 Q-42.55 -40.65 -43.3 -39.9 L-42.8 -39.25 -42.55 -38.7 -42.6 -37.95 -42.8 -37.8 -43.3 -37.85 -43.95 -39.15 -43.8 -40.4 -42.7 -41.4 -42.55 -41.3 -42.55 -40.95 M-44.7 -41.45 Q-45.25 -41.45 -45.45 -41.85 L-45.6 -42.3 Q-44.9 -42.65 -44.2 -42.05 L-44.25 -41.6 Q-44.2 -41.45 -44.7 -41.45 M-42.2 -37.2 L-42.6 -37.45 Q-42.45 -37.85 -41.75 -37.85 L-41.65 -37.55 Q-41.8 -37.3 -42.2 -37.2 M-52.75 -31.05 L-52.95 -30.4 Q-52.95 -29.85 -52.3 -29.2 -51.4 -28.3 -49.95 -28.3 -47.55 -28.3 -46.45 -28.9 L-46.55 -28.95 -46.65 -29.25 -46.2 -29.75 -45.8 -30.2 -46.0 -30.65 -46.2 -30.8 Q-44.95 -31.35 -45.2 -31.4 L-44.7 -31.35 -44.5 -31.25 -44.45 -30.85 Q-44.45 -30.5 -44.95 -30.0 L-44.95 -29.8 -45.45 -29.0 -46.2 -28.05 Q-46.05 -27.45 -46.45 -26.9 -46.9 -26.35 -47.7 -26.25 L-48.6 -26.7 -49.8 -26.55 -51.1 -26.7 -52.05 -26.9 -53.55 -27.2 Q-54.25 -29.15 -54.25 -30.0 L-53.85 -30.55 -53.4 -31.1 -53.2 -31.9 Q-52.65 -31.45 -52.75 -31.05 M-44.75 -31.95 L-44.05 -32.85 -42.95 -33.5 Q-42.75 -32.9 -42.85 -32.65 L-42.85 -32.6 -41.8 -33.45 -41.6 -33.35 -41.55 -33.0 -41.95 -32.1 -42.4 -31.35 -44.0 -30.85 -44.2 -31.25 -44.1 -31.35 Q-44.75 -31.45 -44.75 -31.95 M-5.55 -44.05 Q-5.55 -43.45 -6.0 -43.25 L-6.25 -43.35 -6.35 -43.75 -6.0 -44.3 -5.75 -44.35 -5.55 -44.05 M-8.4 -44.5 Q-7.8 -44.5 -7.2 -43.95 -6.65 -43.45 -6.65 -43.0 L-6.75 -42.6 -6.9 -42.45 -7.3 -42.9 -7.95 -43.0 Q-8.45 -43.5 -8.45 -44.0 L-8.4 -44.5 M-6.65 -42.3 L-6.4 -42.35 -5.9 -41.8 Q-6.0 -41.55 -6.4 -41.45 L-6.65 -41.55 -6.75 -41.95 -6.65 -42.3 M-6.85 -40.3 Q-6.8 -39.75 -6.35 -39.5 -5.2 -38.9 -3.7 -38.75 L-3.65 -38.85 -3.6 -38.55 -3.65 -38.2 -6.15 -38.25 -6.55 -38.7 -7.35 -39.0 Q-7.65 -39.3 -7.65 -39.9 L-7.6 -40.6 -6.95 -41.1 -6.85 -40.3 M-11.75 -33.85 L-11.65 -33.55 -11.8 -33.3 -12.45 -33.25 -12.55 -33.6 Q-12.55 -34.0 -12.1 -34.0 L-11.75 -33.85 M-10.95 -31.85 L-9.75 -31.25 Q-9.9 -30.35 -10.4 -30.2 L-11.1 -30.25 Q-11.6 -30.75 -11.6 -31.25 -11.6 -32.0 -10.95 -31.85 M-17.6 -35.95 Q-17.6 -35.2 -20.6 -31.4 L-21.6 -31.2 Q-22.35 -31.4 -23.05 -32.1 L-23.6 -33.0 -23.45 -33.45 -23.3 -33.65 -23.15 -33.5 -23.15 -33.25 Q-22.6 -33.15 -22.6 -32.85 L-22.0 -32.8 -21.2 -33.6 Q-20.8 -34.05 -20.0 -34.05 -19.1 -34.05 -18.7 -34.95 -18.25 -36.0 -17.7 -36.15 L-17.65 -36.25 -17.6 -35.95 M-13.4 -26.45 Q-13.15 -26.15 -13.15 -25.4 L-13.2 -24.4 -14.3 -23.0 -19.15 -22.3 -19.95 -21.4 -20.5 -20.4 Q-20.75 -19.95 -21.4 -19.75 L-22.25 -20.0 -22.9 -20.2 -23.4 -19.9 Q-23.8 -19.6 -24.15 -19.6 -25.2 -19.6 -25.65 -20.95 -26.0 -21.8 -26.0 -22.9 L-26.6 -24.55 -27.2 -26.15 -26.7 -27.35 -26.1 -28.25 -25.7 -30.45 -25.55 -30.45 Q-25.3 -29.85 -25.35 -28.75 L-25.15 -26.85 Q-24.9 -25.95 -25.15 -25.05 L-25.15 -24.3 Q-24.75 -23.75 -22.5 -23.6 L-22.4 -23.3 Q-22.3 -23.15 -22.0 -23.15 -20.35 -23.15 -18.8 -23.75 L-17.0 -24.65 Q-14.8 -24.6 -14.35 -25.15 L-13.4 -26.45 M-13.8 -29.55 L-12.9 -29.8 Q-12.65 -29.55 -12.95 -29.1 L-13.65 -29.0 -13.8 -29.55 M-6.75 -31.55 Q-6.75 -30.75 -7.4 -30.75 L-8.0 -30.85 -8.05 -31.45 Q-8.05 -32.25 -7.4 -32.25 -6.75 -32.2 -6.75 -31.55 M-5.6 -33.85 L-5.85 -33.85 -5.95 -34.2 Q-5.95 -34.65 -5.3 -34.65 L-5.1 -34.2 -5.6 -33.85 M-7.45 -29.95 L-7.6 -29.7 -8.25 -29.65 -8.35 -30.0 -8.3 -30.3 -7.55 -30.25 -7.45 -29.95 M-7.75 -27.95 Q-7.75 -26.6 -8.7 -26.6 -9.3 -26.6 -9.4 -26.95 L-9.4 -27.3 -9.0 -28.15 Q-8.8 -28.6 -8.45 -28.55 -7.75 -28.95 -7.75 -27.95 M-29.6 -38.2 Q-29.6 -37.45 -29.2 -36.4 L-28.35 -35.05 Q-27.6 -35.1 -26.75 -35.5 L-25.8 -36.05 -25.45 -36.05 -25.35 -35.7 Q-25.35 -35.4 -25.9 -35.0 -26.45 -34.65 -27.3 -34.45 L-27.7 -33.85 -28.7 -33.85 -29.5 -34.05 -29.9 -35.8 -30.15 -38.1 -29.75 -39.6 Q-29.3 -40.6 -28.85 -40.6 -28.55 -40.6 -28.5 -41.05 L-28.35 -41.65 -28.25 -41.2 Q-28.25 -40.75 -28.9 -39.85 -29.6 -39.0 -29.6 -38.2 M-24.75 -37.4 L-24.85 -37.8 -24.7 -38.2 -24.6 -38.25 -24.0 -37.6 -24.4 -37.35 -24.75 -37.4 M-35.05 -31.2 Q-35.15 -30.9 -36.05 -30.85 L-36.15 -31.65 -35.15 -31.65 -35.05 -31.2 M-38.9 -31.8 L-38.9 -31.7 -38.45 -31.6 -37.75 -31.65 -37.9 -31.3 -38.0 -30.85 Q-38.0 -30.4 -36.7 -30.1 L-36.35 -30.3 -36.2 -30.65 -35.85 -30.65 -35.75 -30.3 Q-35.75 -29.85 -37.2 -28.55 L-38.55 -28.6 -39.4 -29.8 -39.15 -30.05 Q-38.8 -30.2 -38.65 -30.7 L-38.8 -31.05 -38.95 -31.55 -38.9 -31.8 M-24.25 -36.35 L-23.75 -36.25 -24.0 -36.0 -24.25 -36.35 M-25.25 -33.05 L-24.85 -33.5 -24.6 -33.6 -24.2 -32.75 -24.3 -32.5 -24.7 -32.4 -25.2 -32.5 -25.25 -33.05 M-2.9 -23.5 Q-2.9 -24.4 -1.95 -24.35 -1.0 -24.3 -1.0 -23.6 -1.0 -23.15 -1.4 -22.9 L-2.1 -22.7 Q-2.9 -22.7 -2.9 -23.5" fill="#afbfc2" fill-rule="evenodd" stroke="none"/>
    </g>
  </defs>
</svg>
