<?xml version="1.0" encoding="UTF-8" standalone="no"?>
<svg xmlns:ffdec="https://www.free-decompiler.com/flash" xmlns:xlink="http://www.w3.org/1999/xlink" ffdec:objectType="frame" height="100.35px" width="149.7px" xmlns="http://www.w3.org/2000/svg">
  <g transform="matrix(1.0, 0.0, 0.0, 1.0, 54.25, 88.15)">
    <use ffdec:characterId="50" height="92.0" transform="matrix(1.0, 0.0, 0.0, 1.0, -31.6, -79.8)" width="84.9" xlink:href="#shape0"/>
  </g>
  <defs>
    <g id="shape0" transform="matrix(1.0, 0.0, 0.0, 1.0, 31.6, 79.8)">
      <path d="M32.1 -79.7 L32.2 -78.95 30.5 -73.9 Q30.2 -72.95 30.2 -70.4 30.2 -69.85 30.55 -69.2 L31.0 -68.2 32.8 -69.3 Q34.9 -69.3 34.9 -64.4 L35.3 -61.85 35.7 -59.4 37.0 -59.2 37.25 -59.1 37.3 -58.45 36.35 -55.25 Q35.4 -52.55 35.4 -52.0 35.4 -49.15 34.2 -46.0 33.9 -45.15 33.05 -44.7 L31.9 -44.0 30.9 -42.5 30.0 -41.0 Q29.05 -39.05 28.4 -35.0 L28.2 -34.7 30.05 -35.05 32.5 -36.5 33.8 -36.5 Q34.2 -36.1 34.2 -35.0 L34.25 -34.85 34.4 -34.6 35.6 -34.8 37.85 -37.65 40.1 -40.5 41.0 -40.5 41.3 -40.4 41.4 -39.75 Q41.4 -38.95 40.8 -37.75 L40.2 -36.15 Q40.2 -35.6 40.6 -35.05 L41.0 -34.3 43.8 -34.1 45.05 -31.35 45.1 -29.0 Q45.1 -26.25 41.2 -18.85 L40.4 -17.45 45.3 -20.2 Q51.35 -23.35 53.3 -23.3 L36.15 -8.75 Q25.55 0.1 17.6 5.5 17.15 5.2 17.0 4.55 L16.85 3.85 Q15.75 5.55 13.7 7.25 10.25 10.1 6.9 10.1 6.25 10.1 6.15 9.6 L6.1 8.6 Q5.0 8.6 2.0 10.4 -0.95 12.2 -2.0 12.2 L-4.3 12.1 -8.0 8.5 -9.5 6.7 Q-11.1 6.65 -11.9 5.7 -13.05 4.25 -14.0 3.8 L-14.2 4.7 Q-15.4 4.35 -16.15 2.7 -16.85 0.85 -17.3 0.2 L-20.5 -4.6 -23.25 -9.2 Q-24.85 -12.15 -25.3 -14.4 L-23.9 -14.2 -23.8 -14.3 Q-25.15 -16.45 -28.35 -23.2 -31.6 -30.05 -31.6 -30.8 L-31.6 -31.1 -31.5 -31.25 -31.0 -31.5 -25.85 -22.45 Q-21.8 -15.5 -20.4 -15.5 L-19.0 -14.55 -17.3 -13.3 Q-17.2 -12.8 -17.2 -13.8 -17.2 -14.3 -22.45 -28.2 -27.7 -42.1 -27.7 -45.0 L-27.6 -46.0 -27.0 -46.0 Q-25.35 -43.55 -22.2 -37.3 -19.35 -31.7 -16.8 -28.3 L-15.2 -30.1 -13.95 -29.5 Q-13.25 -29.15 -12.6 -29.1 L-12.0 -27.9 -11.6 -28.1 Q-10.95 -27.85 -10.75 -27.3 L-10.7 -27.2 -9.9 -27.3 Q-9.6 -28.1 -9.4 -30.85 -9.3 -32.7 -8.6 -32.7 -7.05 -32.7 -6.9 -31.95 -6.65 -30.4 -6.1 -29.7 L-3.8 -26.2 Q-3.4 -26.2 -2.0 -27.1 L-0.4 -28.1 0.6 -28.0 1.4 -26.8 2.9 -28.1 3.3 -27.2 3.15 -26.7 3.35 -27.15 8.1 -37.8 Q10.3 -43.2 12.95 -48.4 16.95 -56.3 18.6 -56.3 L23.3 -65.35 Q28.55 -75.6 31.2 -79.8 L32.1 -79.7" fill="#afbfc2" fill-rule="evenodd" stroke="none"/>
    </g>
  </defs>
</svg>
