<?xml version="1.0" encoding="UTF-8" standalone="no"?>
<svg xmlns:ffdec="https://www.free-decompiler.com/flash" xmlns:xlink="http://www.w3.org/1999/xlink" ffdec:objectType="frame" height="100.35px" width="149.7px" xmlns="http://www.w3.org/2000/svg">
  <g transform="matrix(1.0, 0.0, 0.0, 1.0, 54.25, 88.15)">
    <use ffdec:characterId="51" height="92.5" transform="matrix(1.0, 0.0, 0.0, 1.0, -34.9, -87.7)" width="105.0" xlink:href="#shape0"/>
  </g>
  <defs>
    <g id="shape0" transform="matrix(1.0, 0.0, 0.0, 1.0, 34.9, 87.7)">
      <path d="M44.2 -63.2 L43.85 -60.8 43.4 -57.8 Q43.25 -56.55 41.65 -54.55 40.1 -52.7 39.55 -52.7 39.05 -52.7 39.05 -53.15 39.0 -53.6 38.5 -53.6 36.75 -53.6 35.1 -50.3 33.8 -47.65 33.8 -46.7 33.8 -46.4 34.15 -45.85 34.6 -45.15 35.3 -44.7 L37.0 -44.75 36.75 -44.45 Q37.65 -44.15 38.2 -43.1 42.1 -43.8 43.55 -46.85 45.5 -51.1 46.1 -51.6 L49.0 -51.6 50.0 -50.7 51.85 -50.8 54.0 -51.1 56.0 -52.9 Q60.55 -52.65 62.45 -51.45 L65.2 -49.0 Q66.8 -47.7 66.65 -46.8 L66.1 -44.8 Q66.1 -44.05 67.35 -43.6 L68.8 -43.2 Q70.1 -42.3 70.1 -40.8 70.1 -37.85 66.0 -32.0 61.7 -26.0 58.0 -24.3 L57.6 -24.95 57.8 -25.7 Q55.65 -25.65 52.5 -23.75 L48.5 -21.0 46.5 -19.5 45.2 -18.0 Q45.05 -17.55 45.2 -16.65 L45.3 -15.3 Q44.75 -13.25 39.9 -9.0 34.85 -4.6 32.4 -4.6 31.25 -4.6 31.2 -5.2 L31.4 -6.1 Q26.15 -4.55 22.6 -1.2 19.5 1.7 18.9 4.6 L18.4 4.8 17.7 4.65 17.6 3.85 Q17.6 3.35 17.95 2.65 L17.9 2.6 17.9 2.5 17.75 2.25 17.7 1.45 Q17.7 0.95 18.9 -1.7 L20.1 -4.4 20.0 -5.3 19.6 -5.6 16.6 -3.65 12.7 -0.9 8.9 2.45 6.55 2.6 Q6.05 2.6 5.6 3.05 5.1 3.5 4.6 3.5 L3.55 3.25 2.8 3.1 1.75 2.85 1.2 2.3 0.55 1.5 Q-0.35 0.7 -1.6 0.7 -2.8 0.7 -4.35 1.7 -5.9 2.7 -7.6 2.7 -9.8 2.7 -11.25 0.85 L-12.4 -1.2 -14.55 -3.05 -18.2 -5.4 Q-19.2 -4.55 -19.15 -3.25 L-18.8 -1.0 Q-18.9 -0.8 -19.2 -0.7 -21.5 -3.25 -27.2 -13.15 -32.9 -23.0 -32.9 -24.35 -32.9 -24.85 -32.5 -25.4 -32.1 -25.95 -32.1 -26.45 -32.1 -28.4 -33.5 -32.65 -34.9 -36.9 -34.9 -37.85 L-34.7 -39.2 -31.9 -35.35 Q-29.95 -32.45 -27.8 -31.0 L-27.6 -33.15 Q-27.6 -33.5 -30.35 -41.9 -33.25 -50.7 -33.6 -53.1 L-33.55 -53.25 -33.2 -53.6 Q-32.25 -53.35 -31.85 -52.45 L-31.3 -51.3 -31.0 -51.6 -30.9 -52.55 Q-30.9 -53.05 -30.5 -53.35 -30.1 -53.7 -30.1 -54.2 -30.1 -56.3 -31.0 -59.0 L-31.0 -60.8 Q-29.05 -61.0 -27.5 -58.65 L-25.4 -54.6 Q-24.55 -53.55 -23.15 -50.85 -21.6 -48.35 -19.5 -47.1 -16.8 -47.85 -16.05 -46.45 -15.65 -45.65 -15.5 -44.3 L-13.1 -40.7 -9.9 -40.85 Q-8.8 -40.6 -8.4 -40.0 L-7.2 -40.0 -6.5 -41.05 Q-5.75 -41.95 -4.6 -42.1 L-3.45 -38.95 Q-2.85 -37.0 -1.9 -35.9 -0.9 -35.75 3.0 -34.0 L3.75 -34.4 4.0 -35.0 4.35 -34.65 Q4.45 -34.4 5.0 -34.4 L6.45 -35.6 8.1 -37.3 Q8.6 -38.05 8.6 -40.6 8.55 -42.65 8.75 -43.75 9.05 -45.5 10.1 -46.9 11.8 -47.05 13.0 -49.15 13.9 -50.7 13.9 -51.7 L13.3 -53.8 12.6 -55.25 12.5 -55.1 12.2 -55.1 12.35 -55.55 12.1 -55.7 12.45 -55.9 Q12.8 -57.1 13.5 -58.45 12.7 -61.6 12.7 -62.6 12.7 -64.75 13.8 -66.35 L17.6 -71.3 Q19.15 -73.3 25.15 -74.6 L26.45 -74.95 27.8 -76.4 Q27.4 -77.0 26.1 -77.2 25.9 -76.65 25.9 -77.65 25.9 -78.6 26.9 -80.45 28.0 -82.45 29.0 -83.1 L32.7 -85.65 Q34.0 -86.5 34.85 -86.8 L35.8 -87.7 36.1 -87.5 36.2 -86.8 35.4 -83.8 34.6 -81.2 34.6 -81.1 Q38.6 -82.95 41.15 -78.65 43.0 -75.6 43.0 -73.1 L42.75 -72.3 41.4 -71.3 Q41.5 -70.3 42.45 -69.0 L43.7 -67.1 Q44.2 -65.95 44.2 -63.2" fill="#afbfc2" fill-rule="evenodd" stroke="none"/>
    </g>
  </defs>
</svg>
