<?xml version="1.0" encoding="UTF-8" standalone="no"?>
<svg xmlns:ffdec="https://www.free-decompiler.com/flash" xmlns:xlink="http://www.w3.org/1999/xlink" ffdec:objectType="frame" height="100.35px" width="149.7px" xmlns="http://www.w3.org/2000/svg">
  <g transform="matrix(1.0, 0.0, 0.0, 1.0, 54.25, 88.15)">
    <use ffdec:characterId="52" height="83.85" transform="matrix(1.0, 0.0, 0.0, 1.0, -43.2, -86.35)" width="123.0" xlink:href="#shape0"/>
  </g>
  <defs>
    <g id="shape0" transform="matrix(1.0, 0.0, 0.0, 1.0, 43.2, 86.35)">
      <path d="M44.5 -74.9 L44.1 -73.65 44.35 -72.5 46.6 -71.7 Q47.05 -71.65 47.6 -70.2 L48.1 -67.75 48.5 -65.7 Q48.5 -64.25 47.6 -62.4 46.65 -60.35 45.2 -59.1 43.2 -59.3 42.0 -60.5 37.4 -59.1 34.9 -56.5 32.8 -54.35 32.8 -52.15 32.8 -51.15 33.35 -50.55 34.2 -49.6 36.2 -50.0 L37.1 -49.15 37.7 -49.1 Q38.45 -48.85 38.6 -48.0 38.8 -47.5 38.65 -46.75 L38.5 -45.45 Q38.5 -44.6 38.9 -44.2 L40.2 -44.0 Q40.75 -43.45 40.9 -42.6 L42.0 -42.7 42.1 -43.15 41.9 -43.6 42.0 -43.75 42.4 -44.1 45.0 -44.0 Q45.6 -43.8 45.95 -42.95 L46.2 -41.9 46.2 -41.6 Q49.6 -42.95 52.35 -45.4 56.6 -49.15 56.6 -51.95 56.6 -52.4 55.0 -54.05 55.0 -54.55 56.0 -55.7 L57.3 -57.2 59.8 -57.2 60.55 -56.35 Q61.1 -55.8 61.7 -55.8 64.45 -55.8 64.8 -56.9 L64.6 -58.4 Q64.6 -59.05 65.0 -59.25 L65.6 -59.4 70.2 -59.3 Q74.8 -57.05 77.5 -52.55 79.8 -48.8 79.8 -45.5 79.8 -42.9 77.0 -37.4 74.15 -31.8 72.6 -31.8 L71.55 -31.95 70.5 -32.3 Q70.2 -32.6 70.2 -32.9 61.45 -31.9 59.65 -30.05 59.0 -29.4 59.1 -28.45 L59.3 -26.9 Q59.3 -25.5 58.85 -24.9 L56.4 -22.1 53.8 -19.0 53.65 -19.15 53.6 -19.1 53.6 -19.05 Q53.6 -18.35 52.45 -17.85 50.45 -15.75 48.6 -14.9 L48.4 -15.2 50.0 -16.9 50.1 -17.0 47.7 -16.35 46.1 -15.65 Q45.1 -15.2 44.2 -14.55 L40.4 -11.5 39.7 -11.45 Q39.5 -11.45 39.5 -12.05 39.5 -12.5 40.25 -13.1 41.0 -13.7 41.0 -14.0 41.0 -14.55 40.6 -14.9 L40.5 -15.0 40.3 -15.0 Q36.85 -15.0 32.0 -12.05 29.1 -10.35 27.4 -8.8 L26.5 -8.8 Q26.3 -8.25 26.3 -9.25 L27.5 -11.1 Q28.7 -12.9 28.7 -14.2 L27.3 -14.4 25.7 -16.45 Q24.3 -17.85 23.5 -17.8 21.05 -17.7 19.2 -17.05 L18.7 -15.95 Q18.35 -15.15 17.6 -14.7 16.9 -14.8 16.7 -15.1 L16.7 -15.3 14.8 -13.05 12.2 -10.6 12.0 -11.2 12.75 -12.7 12.1 -12.85 10.8 -11.7 Q8.2 -11.9 8.2 -12.5 L5.85 -12.0 3.6 -11.4 2.1 -11.5 Q-2.5 -14.05 -1.8 -19.3 L-4.0 -19.4 -5.75 -19.7 -8.3 -20.3 Q-9.7 -20.65 -9.75 -21.8 -9.55 -23.0 -9.7 -23.3 L-10.7 -23.6 -12.1 -25.9 Q-13.55 -27.8 -14.9 -27.8 -20.35 -27.8 -22.05 -26.45 -23.7 -25.1 -25.2 -19.7 L-25.3 -19.45 Q-25.4 -19.2 -26.0 -19.2 -26.65 -19.2 -27.2 -19.6 L-28.0 -20.2 Q-28.0 -19.15 -27.2 -16.5 -26.35 -13.85 -26.4 -12.8 L-26.6 -12.5 Q-29.65 -14.9 -31.85 -19.45 -33.95 -24.6 -35.2 -26.9 L-38.95 -34.15 Q-41.0 -38.65 -41.6 -41.9 L-41.55 -42.05 -41.2 -42.4 -40.25 -41.45 Q-40.0 -41.1 -39.6 -41.1 L-39.4 -42.55 -39.2 -44.1 Q-39.2 -44.8 -41.2 -51.0 -43.2 -57.15 -43.2 -57.75 L-43.0 -59.1 Q-42.35 -58.35 -40.65 -55.4 -39.15 -52.8 -37.6 -51.4 -37.3 -51.8 -37.3 -53.6 L-36.35 -54.85 Q-35.7 -55.35 -35.7 -55.8 -36.8 -59.05 -36.8 -60.0 L-36.7 -61.0 -36.9 -61.0 -37.0 -61.2 -37.1 -61.9 Q-37.1 -62.8 -35.7 -62.9 -35.2 -64.8 -35.2 -65.8 -36.1 -74.5 -36.7 -76.3 L-36.7 -79.0 -36.3 -79.0 -34.7 -75.5 Q-33.25 -72.8 -31.6 -72.8 -30.7 -72.8 -30.45 -72.3 -30.1 -71.5 -29.6 -71.2 L-28.3 -70.85 Q-27.35 -70.65 -26.4 -69.7 -25.85 -70.25 -25.45 -72.2 -25.15 -73.95 -23.6 -74.8 -21.75 -73.1 -19.8 -69.5 L-16.8 -63.9 -15.0 -60.95 -13.2 -58.2 Q-12.6 -57.45 -12.1 -57.4 L-10.7 -57.3 -8.7 -54.7 Q-8.05 -55.1 -8.1 -56.9 -8.15 -58.8 -7.6 -59.3 L-6.3 -56.45 Q-5.6 -54.45 -4.3 -53.3 L-3.65 -51.8 -3.1 -50.3 Q-2.7 -49.7 -1.45 -49.3 -0.1 -48.9 0.5 -48.3 L2.0 -48.4 1.95 -48.6 Q1.8 -48.7 1.8 -49.3 1.8 -49.85 2.6 -50.65 L4.0 -51.7 Q6.05 -51.4 7.0 -50.5 L8.0 -49.2 9.55 -50.25 10.95 -51.15 11.3 -51.55 12.4 -52.5 13.35 -52.25 14.3 -52.1 Q15.65 -52.1 16.3 -54.3 L16.7 -56.6 Q16.7 -57.75 15.9 -59.45 15.05 -61.25 13.8 -62.6 L12.75 -63.0 Q11.9 -63.2 11.5 -63.5 11.3 -63.65 11.05 -64.1 L10.7 -65.0 10.3 -67.7 Q10.3 -71.65 11.4 -73.95 13.2 -77.85 18.5 -80.0 L22.45 -80.85 Q24.25 -81.2 25.1 -82.9 25.4 -83.5 27.45 -84.55 L29.6 -85.5 Q31.25 -86.25 33.9 -86.35 36.6 -86.4 37.6 -85.7 38.75 -85.05 38.75 -83.75 38.75 -83.0 41.8 -82.8 42.55 -82.35 44.9 -76.2 44.9 -75.7 44.5 -74.9 M24.35 -7.7 L25.7 -8.2 Q25.7 -7.35 23.5 -5.35 L20.4 -2.5 Q19.4 -2.6 19.3 -2.9 21.15 -4.75 21.2 -5.15 20.9 -5.35 20.9 -5.75 20.9 -6.1 22.2 -7.4 L24.35 -7.7 M35.6 -7.9 Q34.9 -8.0 34.7 -8.3 35.4 -9.4 36.0 -9.7 L37.35 -9.8 38.2 -9.6 Q37.05 -8.35 35.6 -7.9 M-21.7 -25.1 L-22.4 -24.6 -23.0 -25.1 Q-22.75 -25.7 -21.9 -25.7 L-21.7 -25.1 M-21.9 -22.8 L-22.2 -21.6 Q-22.3 -21.3 -22.8 -21.1 L-23.4 -21.25 Q-23.6 -21.4 -23.6 -22.05 -23.6 -22.95 -22.3 -23.7 L-21.9 -22.8 M-22.8 -9.7 L-22.2 -8.55 -22.0 -7.85 -22.05 -6.75 -22.6 -6.1 -23.15 -7.5 -23.55 -7.9 -23.6 -7.9 Q-24.35 -7.9 -24.8 -8.2 L-25.4 -8.2 -25.9 -9.5 Q-26.3 -10.35 -26.3 -10.9 L-26.2 -11.7 -25.9 -11.7 Q-25.3 -11.1 -25.45 -11.0 L-24.6 -11.1 Q-24.05 -11.1 -24.15 -10.6 -24.25 -10.05 -24.0 -9.9 L-22.8 -9.7 M-20.6 -5.3 Q-20.6 -4.8 -21.0 -4.4 L-21.5 -4.4 -21.7 -5.5 -20.6 -5.3 M-6.6 -15.9 L-7.4 -15.9 -7.5 -16.8 -7.25 -17.65 -6.8 -17.8 -6.45 -17.7 -5.9 -17.4 -5.8 -16.95 Q-5.9 -16.4 -6.6 -15.9" fill="#afbfc2" fill-rule="evenodd" stroke="none"/>
    </g>
  </defs>
</svg>
